The Song is 6.53.
Timing Resolution(ticks per quarter note): 120
Tick Length: 123840
Ticks per minute: 18964.777947932616
BPM: 158
Track 1: size = 9
@0 , @0.0 Other Message: class javax.sound.midi.MetaMessage

@0 , @0.0 Other Message: class javax.sound.midi.MetaMessage

@0 , @0.0 Other Message: class javax.sound.midi.MetaMessage

@0 , @0.0 Other Message: class javax.sound.midi.MetaMessage

@53760 , @2.834728682170543 Other Message: class javax.sound.midi.MetaMessage

@78720 , @4.150852713178295 Other Message: class javax.sound.midi.MetaMessage

@121440 , @6.403449612403101 Other Message: class javax.sound.midi.MetaMessage

@122040 , @6.435087209302326 Other Message: class javax.sound.midi.MetaMessage

@122040 , @6.435087209302326 Other Message: class javax.sound.midi.Track$ImmutableEndOfTrack

Track 2: size = 617
@0 , @0.0 Other Message: class javax.sound.midi.MetaMessage

@0 , @0.0 Other Message: class javax.sound.midi.MetaMessage

@0 , @0.0 Channel: 0 
Command: 176

@0 , @0.0 Channel: 0 
Command: 192

@11941 , @0.629640907622739 Channel: 0 
Note on, E5 key =  76;WhichDrum: S ; velocity: 127
@12001 , @0.6328046673126616 Channel: 0 
Note on, E5 key =  76;WhichDrum: S ; velocity: 0
@12001 , @0.6328046673126616 Channel: 0 
Note on, E5 key =  76;WhichDrum: S ; velocity: 127
@12061 , @0.6359684270025839 Channel: 0 
Note on, E5 key =  76;WhichDrum: S ; velocity: 0
@19681 , @1.037765907622739 Channel: 0 
Note on, E5 key =  76;WhichDrum: S ; velocity: 127
@19741 , @1.0409296673126616 Channel: 0 
Note on, E5 key =  76;WhichDrum: S ; velocity: 0
@19741 , @1.0409296673126616 Channel: 0 
Note on, E5 key =  76;WhichDrum: S ; velocity: 127
@19801 , @1.044093427002584 Channel: 0 
Note on, E5 key =  76;WhichDrum: S ; velocity: 0
@19801 , @1.044093427002584 Channel: 0 
Note on, E5 key =  76;WhichDrum: S ; velocity: 127
@19861 , @1.0472571866925064 Channel: 0 
Note on, E5 key =  76;WhichDrum: S ; velocity: 0
@19861 , @1.0472571866925064 Channel: 0 
Note on, E5 key =  76;WhichDrum: S ; velocity: 127
@20041 , @1.0567484657622739 Channel: 0 
Note on, E5 key =  76;WhichDrum: S ; velocity: 0
@20041 , @1.0567484657622739 Channel: 0 
Note on, E5 key =  76;WhichDrum: S ; velocity: 127
@20101 , @1.0599122254521964 Channel: 0 
Note on, E5 key =  76;WhichDrum: S ; velocity: 0
@20101 , @1.0599122254521964 Channel: 0 
Note on, D5 key =  74;WhichDrum: T2 ; velocity: 127
@20161 , @1.063075985142119 Channel: 0 
Note on, D5 key =  74;WhichDrum: T2 ; velocity: 0
@20161 , @1.063075985142119 Channel: 0 
Note on, E5 key =  76;WhichDrum: S ; velocity: 127
@20221 , @1.0662397448320413 Channel: 0 
Note on, E5 key =  76;WhichDrum: S ; velocity: 0
@20221 , @1.0662397448320413 Channel: 0 
Note on, E5 key =  76;WhichDrum: S ; velocity: 127
@20281 , @1.0694035045219639 Channel: 0 
Note on, E5 key =  76;WhichDrum: S ; velocity: 0
@20281 , @1.0694035045219639 Channel: 0 
Note on, G5 key =  79;WhichDrum: C2 ; velocity: 127
@20341 , @1.0725672642118864 Channel: 0 
Note on, G5 key =  79;WhichDrum: C2 ; velocity: 0
@20341 , @1.0725672642118864 Channel: 0 
Note on, E5 key =  76;WhichDrum: S ; velocity: 127
@20401 , @1.0757310239018087 Channel: 0 
Note on, E5 key =  76;WhichDrum: S ; velocity: 0
@20581 , @1.0852223029715764 Channel: 0 
Note on, D5 key =  74;WhichDrum: T2 ; velocity: 127
@20641 , @1.0883860626614987 Channel: 0 
Note on, D5 key =  74;WhichDrum: T2 ; velocity: 0
@20641 , @1.0883860626614987 Channel: 0 
Note on, E5 key =  76;WhichDrum: S ; velocity: 127
@20701 , @1.0915498223514213 Channel: 0 
Note on, E5 key =  76;WhichDrum: S ; velocity: 0
@20701 , @1.0915498223514213 Channel: 0 
Note on, E5 key =  76;WhichDrum: S ; velocity: 127
@20761 , @1.0947135820413438 Channel: 0 
Note on, E5 key =  76;WhichDrum: S ; velocity: 0
@20761 , @1.0947135820413438 Channel: 0 
Note on, D5 key =  74;WhichDrum: T2 ; velocity: 127
@20821 , @1.0978773417312662 Channel: 0 
Note on, D5 key =  74;WhichDrum: T2 ; velocity: 0
@20821 , @1.0978773417312662 Channel: 0 
Note on, E5 key =  76;WhichDrum: S ; velocity: 127
@21061 , @1.1105323804909562 Channel: 0 
Note on, E5 key =  76;WhichDrum: S ; velocity: 0
@21061 , @1.1105323804909562 Channel: 0 
Note on, D5 key =  74;WhichDrum: T2 ; velocity: 127
@21121 , @1.1136961401808787 Channel: 0 
Note on, D5 key =  74;WhichDrum: T2 ; velocity: 0
@21121 , @1.1136961401808787 Channel: 0 
Note on, E5 key =  76;WhichDrum: S ; velocity: 127
@21181 , @1.1168598998708013 Channel: 0 
Note on, E5 key =  76;WhichDrum: S ; velocity: 0
@21181 , @1.1168598998708013 Channel: 0 
Note on, E5 key =  76;WhichDrum: S ; velocity: 127
@21241 , @1.1200236595607234 Channel: 0 
Note on, E5 key =  76;WhichDrum: S ; velocity: 0
@21241 , @1.1200236595607234 Channel: 0 
Note on, E5 key =  76;WhichDrum: S ; velocity: 127
@21301 , @1.123187419250646 Channel: 0 
Note on, E5 key =  76;WhichDrum: S ; velocity: 0
@21301 , @1.123187419250646 Channel: 0 
Note on, E5 key =  76;WhichDrum: S ; velocity: 127
@21361 , @1.1263511789405685 Channel: 0 
Note on, E5 key =  76;WhichDrum: S ; velocity: 0
@21721 , @1.1453337370801033 Channel: 0 
Note on, E5 key =  76;WhichDrum: S ; velocity: 127
@21781 , @1.1484974967700259 Channel: 0 
Note on, E5 key =  76;WhichDrum: S ; velocity: 0
@21781 , @1.1484974967700259 Channel: 0 
Note on, D5 key =  74;WhichDrum: T2 ; velocity: 127
@21841 , @1.1516612564599484 Channel: 0 
Note on, D5 key =  74;WhichDrum: T2 ; velocity: 0
@21841 , @1.1516612564599484 Channel: 0 
Note on, E5 key =  76;WhichDrum: S ; velocity: 127
@21901 , @1.1548250161498708 Channel: 0 
Note on, E5 key =  76;WhichDrum: S ; velocity: 0
@21901 , @1.1548250161498708 Channel: 0 
Note on, D5 key =  74;WhichDrum: T2 ; velocity: 127
@21961 , @1.1579887758397933 Channel: 0 
Note on, D5 key =  74;WhichDrum: T2 ; velocity: 0
@21961 , @1.1579887758397933 Channel: 0 
Note on, E5 key =  76;WhichDrum: S ; velocity: 127
@22021 , @1.1611525355297159 Channel: 0 
Note on, E5 key =  76;WhichDrum: S ; velocity: 0
@22021 , @1.1611525355297159 Channel: 0 
Note on, D5 key =  74;WhichDrum: T2 ; velocity: 127
@22081 , @1.1643162952196382 Channel: 0 
Note on, D5 key =  74;WhichDrum: T2 ; velocity: 0
@22081 , @1.1643162952196382 Channel: 0 
Note on, E5 key =  76;WhichDrum: S ; velocity: 127
@22141 , @1.1674800549095607 Channel: 0 
Note on, E5 key =  76;WhichDrum: S ; velocity: 0
@22141 , @1.1674800549095607 Channel: 0 
Note on, F#5 key =  78;WhichDrum: C1 ; velocity: 127
@22201 , @1.1706438145994833 Channel: 0 
Note on, F#5 key =  78;WhichDrum: C1 ; velocity: 0
@22201 , @1.1706438145994833 Channel: 0 
Note on, G5 key =  79;WhichDrum: C2 ; velocity: 127
@22261 , @1.1738075742894056 Channel: 0 
Note on, G5 key =  79;WhichDrum: C2 ; velocity: 0
@22261 , @1.1738075742894056 Channel: 0 
Note on, E5 key =  76;WhichDrum: S ; velocity: 127
@22321 , @1.1769713339793282 Channel: 0 
Note on, E5 key =  76;WhichDrum: S ; velocity: 0
@22321 , @1.1769713339793282 Channel: 0 
Note on, D5 key =  74;WhichDrum: T2 ; velocity: 127
@22441 , @1.1832988533591733 Channel: 0 
Note on, D5 key =  74;WhichDrum: T2 ; velocity: 0
@22441 , @1.1832988533591733 Channel: 0 
Note on, D5 key =  74;WhichDrum: T2 ; velocity: 127
@22501 , @1.1864626130490956 Channel: 0 
Note on, D5 key =  74;WhichDrum: T2 ; velocity: 0
@22501 , @1.1864626130490956 Channel: 0 
Note on, D5 key =  74;WhichDrum: T2 ; velocity: 127
@22561 , @1.1896263727390182 Channel: 0 
Note on, D5 key =  74;WhichDrum: T2 ; velocity: 0
@22561 , @1.1896263727390182 Channel: 0 
Note on, E5 key =  76;WhichDrum: S ; velocity: 127
@22621 , @1.1927901324289407 Channel: 0 
Note on, E5 key =  76;WhichDrum: S ; velocity: 0
@22621 , @1.1927901324289407 Channel: 0 
Note on, E5 key =  76;WhichDrum: S ; velocity: 127
@22741 , @1.1991176518087856 Channel: 0 
Note on, E5 key =  76;WhichDrum: S ; velocity: 0
@22741 , @1.1991176518087856 Channel: 0 
Note on, E5 key =  76;WhichDrum: S ; velocity: 127
@22801 , @1.2022814114987082 Channel: 0 
Note on, E5 key =  76;WhichDrum: S ; velocity: 0
@22861 , @1.2054451711886307 Channel: 0 
Note on, E5 key =  76;WhichDrum: S ; velocity: 127
@22921 , @1.208608930878553 Channel: 0 
Note on, E5 key =  76;WhichDrum: S ; velocity: 0
@22921 , @1.208608930878553 Channel: 0 
Note on, E5 key =  76;WhichDrum: S ; velocity: 127
@22981 , @1.2117726905684756 Channel: 0 
Note on, E5 key =  76;WhichDrum: S ; velocity: 0
@22981 , @1.2117726905684756 Channel: 0 
Note on, E5 key =  76;WhichDrum: S ; velocity: 127
@23041 , @1.2149364502583981 Channel: 0 
Note on, E5 key =  76;WhichDrum: S ; velocity: 0
@23041 , @1.2149364502583981 Channel: 0 
Note on, E5 key =  76;WhichDrum: S ; velocity: 127
@23101 , @1.2181002099483205 Channel: 0 
Note on, E5 key =  76;WhichDrum: S ; velocity: 0
@23101 , @1.2181002099483205 Channel: 0 
Note on, E5 key =  76;WhichDrum: S ; velocity: 127
@23161 , @1.2212639696382428 Channel: 0 
Note on, E5 key =  76;WhichDrum: S ; velocity: 0
@23161 , @1.2212639696382428 Channel: 0 
Note on, E5 key =  76;WhichDrum: S ; velocity: 127
@23221 , @1.2244277293281653 Channel: 0 
Note on, E5 key =  76;WhichDrum: S ; velocity: 0
@23221 , @1.2244277293281653 Channel: 0 
Note on, E5 key =  76;WhichDrum: S ; velocity: 127
@23341 , @1.2307552487080102 Channel: 0 
Note on, E5 key =  76;WhichDrum: S ; velocity: 0
@23521 , @1.2402465277777777 Channel: 0 
Note on, E5 key =  76;WhichDrum: S ; velocity: 127
@23581 , @1.2434102874677002 Channel: 0 
Note on, E5 key =  76;WhichDrum: S ; velocity: 0
@23581 , @1.2434102874677002 Channel: 0 
Note on, E5 key =  76;WhichDrum: S ; velocity: 127
@23641 , @1.2465740471576228 Channel: 0 
Note on, E5 key =  76;WhichDrum: S ; velocity: 0
@23761 , @1.2529015665374676 Channel: 0 
Note on, E5 key =  76;WhichDrum: S ; velocity: 127
@23821 , @1.2560653262273902 Channel: 0 
Note on, E5 key =  76;WhichDrum: S ; velocity: 0
@23821 , @1.2560653262273902 Channel: 0 
Note on, E5 key =  76;WhichDrum: S ; velocity: 127
@23881 , @1.2592290859173128 Channel: 0 
Note on, E5 key =  76;WhichDrum: S ; velocity: 0
@23881 , @1.2592290859173128 Channel: 0 
Note on, E5 key =  76;WhichDrum: S ; velocity: 127
@24001 , @1.2655566052971576 Channel: 0 
Note on, E5 key =  76;WhichDrum: S ; velocity: 0
@24001 , @1.2655566052971576 Channel: 0 
Note on, E5 key =  76;WhichDrum: S ; velocity: 127
@24061 , @1.2687203649870802 Channel: 0 
Note on, E5 key =  76;WhichDrum: S ; velocity: 0
@24061 , @1.2687203649870802 Channel: 0 
Note on, E5 key =  76;WhichDrum: S ; velocity: 127
@24121 , @1.2718841246770027 Channel: 0 
Note on, E5 key =  76;WhichDrum: S ; velocity: 0
@24241 , @1.2782116440568476 Channel: 0 
Note on, E5 key =  76;WhichDrum: S ; velocity: 127
@24301 , @1.2813754037467702 Channel: 0 
Note on, E5 key =  76;WhichDrum: S ; velocity: 0
@24301 , @1.2813754037467702 Channel: 0 
Note on, E5 key =  76;WhichDrum: S ; velocity: 127
@24361 , @1.2845391634366925 Channel: 0 
Note on, E5 key =  76;WhichDrum: S ; velocity: 0
@24361 , @1.2845391634366925 Channel: 0 
Note on, E5 key =  76;WhichDrum: S ; velocity: 127
@24481 , @1.2908666828165376 Channel: 0 
Note on, E5 key =  76;WhichDrum: S ; velocity: 0
@24481 , @1.2908666828165376 Channel: 0 
Note on, E5 key =  76;WhichDrum: S ; velocity: 127
@24541 , @1.29403044250646 Channel: 0 
Note on, E5 key =  76;WhichDrum: S ; velocity: 0
@24541 , @1.29403044250646 Channel: 0 
Note on, A4 key =  69;WhichDrum: T3 ; velocity: 127
@24601 , @1.2971942021963825 Channel: 0 
Note on, A4 key =  69;WhichDrum: T3 ; velocity: 0
@24661 , @1.300357961886305 Channel: 0 
Note on, E5 key =  76;WhichDrum: S ; velocity: 127
@24721 , @1.3035217215762276 Channel: 0 
Note on, E5 key =  76;WhichDrum: S ; velocity: 0
@24721 , @1.3035217215762276 Channel: 0 
Note on, E5 key =  76;WhichDrum: S ; velocity: 127
@24781 , @1.30668548126615 Channel: 0 
Note on, E5 key =  76;WhichDrum: S ; velocity: 0
@24781 , @1.30668548126615 Channel: 0 
Note on, E5 key =  76;WhichDrum: S ; velocity: 127
@24841 , @1.3098492409560725 Channel: 0 
Note on, E5 key =  76;WhichDrum: S ; velocity: 0
@24841 , @1.3098492409560725 Channel: 0 
Note on, E5 key =  76;WhichDrum: S ; velocity: 127
@24961 , @1.3161767603359174 Channel: 0 
Note on, E5 key =  76;WhichDrum: S ; velocity: 0
@25441 , @1.341486837855297 Channel: 0 
Note on, E5 key =  76;WhichDrum: S ; velocity: 127
@25501 , @1.3446505975452197 Channel: 0 
Note on, E5 key =  76;WhichDrum: S ; velocity: 0
@25501 , @1.3446505975452197 Channel: 0 
Note on, E5 key =  76;WhichDrum: S ; velocity: 127
@25561 , @1.3478143572351422 Channel: 0 
Note on, E5 key =  76;WhichDrum: S ; velocity: 0
@25681 , @1.354141876614987 Channel: 0 
Note on, E5 key =  76;WhichDrum: S ; velocity: 127
@25741 , @1.3573056363049096 Channel: 0 
Note on, E5 key =  76;WhichDrum: S ; velocity: 0
@25741 , @1.3573056363049096 Channel: 0 
Note on, E5 key =  76;WhichDrum: S ; velocity: 127
@25801 , @1.360469395994832 Channel: 0 
Note on, E5 key =  76;WhichDrum: S ; velocity: 0
@25801 , @1.360469395994832 Channel: 0 
Note on, E5 key =  76;WhichDrum: S ; velocity: 127
@25921 , @1.366796915374677 Channel: 0 
Note on, E5 key =  76;WhichDrum: S ; velocity: 0
@25921 , @1.366796915374677 Channel: 0 
Note on, E5 key =  76;WhichDrum: S ; velocity: 127
@25981 , @1.3699606750645996 Channel: 0 
Note on, E5 key =  76;WhichDrum: S ; velocity: 0
@25981 , @1.3699606750645996 Channel: 0 
Note on, E5 key =  76;WhichDrum: S ; velocity: 127
@26041 , @1.373124434754522 Channel: 0 
Note on, E5 key =  76;WhichDrum: S ; velocity: 0
@26161 , @1.379451954134367 Channel: 0 
Note on, E5 key =  76;WhichDrum: S ; velocity: 127
@26221 , @1.3826157138242894 Channel: 0 
Note on, E5 key =  76;WhichDrum: S ; velocity: 0
@26221 , @1.3826157138242894 Channel: 0 
Note on, E5 key =  76;WhichDrum: S ; velocity: 127
@26281 , @1.385779473514212 Channel: 0 
Note on, E5 key =  76;WhichDrum: S ; velocity: 0
@26281 , @1.385779473514212 Channel: 0 
Note on, E5 key =  76;WhichDrum: S ; velocity: 127
@26401 , @1.392106992894057 Channel: 0 
Note on, E5 key =  76;WhichDrum: S ; velocity: 0
@26401 , @1.392106992894057 Channel: 0 
Note on, E5 key =  76;WhichDrum: S ; velocity: 127
@26461 , @1.3952707525839794 Channel: 0 
Note on, E5 key =  76;WhichDrum: S ; velocity: 0
@26461 , @1.3952707525839794 Channel: 0 
Note on, A4 key =  69;WhichDrum: T3 ; velocity: 127
@26521 , @1.398434512273902 Channel: 0 
Note on, A4 key =  69;WhichDrum: T3 ; velocity: 0
@26581 , @1.4015982719638245 Channel: 0 
Note on, E5 key =  76;WhichDrum: S ; velocity: 127
@26641 , @1.4047620316537468 Channel: 0 
Note on, E5 key =  76;WhichDrum: S ; velocity: 0
@26641 , @1.4047620316537468 Channel: 0 
Note on, E5 key =  76;WhichDrum: S ; velocity: 127
@26701 , @1.4079257913436694 Channel: 0 
Note on, E5 key =  76;WhichDrum: S ; velocity: 0
@26701 , @1.4079257913436694 Channel: 0 
Note on, E5 key =  76;WhichDrum: S ; velocity: 127
@26761 , @1.411089551033592 Channel: 0 
Note on, E5 key =  76;WhichDrum: S ; velocity: 0
@26761 , @1.411089551033592 Channel: 0 
Note on, E5 key =  76;WhichDrum: S ; velocity: 127
@26881 , @1.4174170704134368 Channel: 0 
Note on, E5 key =  76;WhichDrum: S ; velocity: 0
@27841 , @1.4680372254521965 Channel: 0 
Note on, D5 key =  74;WhichDrum: T2 ; velocity: 127
@27901 , @1.4712009851421188 Channel: 0 
Note on, D5 key =  74;WhichDrum: T2 ; velocity: 0
@27901 , @1.4712009851421188 Channel: 0 
Note on, E5 key =  76;WhichDrum: S ; velocity: 127
@28441 , @1.4996748223514214 Channel: 0 
Note on, E5 key =  76;WhichDrum: S ; velocity: 0
@28561 , @1.5060023417312662 Channel: 0 
Note on, F5 key =  77;WhichDrum: HH ; velocity: 127
@28641 , @1.5102206879844962 Channel: 0 
Note on, F5 key =  77;WhichDrum: HH ; velocity: 0
@28641 , @1.5102206879844962 Channel: 0 
Note on, F5 key =  77;WhichDrum: HH ; velocity: 127
@28721 , @1.514439034237726 Channel: 0 
Note on, F5 key =  77;WhichDrum: HH ; velocity: 0
@28721 , @1.514439034237726 Channel: 0 
Note on, F5 key =  77;WhichDrum: HH ; velocity: 127
@28801 , @1.5186573804909562 Channel: 0 
Note on, F5 key =  77;WhichDrum: HH ; velocity: 0
@28801 , @1.5186573804909562 Channel: 0 
Note on, E5 key =  76;WhichDrum: S ; velocity: 127
@28921 , @1.524984899870801 Channel: 0 
Note on, E5 key =  76;WhichDrum: S ; velocity: 0
@29761 , @1.5692775355297157 Channel: 0 
Note on, D5 key =  74;WhichDrum: T2 ; velocity: 127
@29821 , @1.5724412952196383 Channel: 0 
Note on, D5 key =  74;WhichDrum: T2 ; velocity: 0
@29821 , @1.5724412952196383 Channel: 0 
Note on, E5 key =  76;WhichDrum: S ; velocity: 127
@30361 , @1.6009151324289406 Channel: 0 
Note on, E5 key =  76;WhichDrum: S ; velocity: 0
@30481 , @1.6072426518087857 Channel: 0 
Note on, F5 key =  77;WhichDrum: HH ; velocity: 127
@30561 , @1.6114609980620156 Channel: 0 
Note on, F5 key =  77;WhichDrum: HH ; velocity: 0
@30561 , @1.6114609980620156 Channel: 0 
Note on, F5 key =  77;WhichDrum: HH ; velocity: 127
@30641 , @1.6156793443152455 Channel: 0 
Note on, F5 key =  77;WhichDrum: HH ; velocity: 0
@30641 , @1.6156793443152455 Channel: 0 
Note on, F5 key =  77;WhichDrum: HH ; velocity: 127
@30721 , @1.6198976905684757 Channel: 0 
Note on, F5 key =  77;WhichDrum: HH ; velocity: 0
@30721 , @1.6198976905684757 Channel: 0 
Note on, B5 key =  83;WhichDrum: T1 ; velocity: 127
@30961 , @1.6325527293281654 Channel: 0 
Note on, B5 key =  83;WhichDrum: T1 ; velocity: 0
@31681 , @1.6705178456072352 Channel: 0 
Note on, D5 key =  74;WhichDrum: T2 ; velocity: 127
@31741 , @1.6736816052971577 Channel: 0 
Note on, D5 key =  74;WhichDrum: T2 ; velocity: 0
@31741 , @1.6736816052971577 Channel: 0 
Note on, E5 key =  76;WhichDrum: S ; velocity: 127
@32281 , @1.70215544250646 Channel: 0 
Note on, E5 key =  76;WhichDrum: S ; velocity: 0
@32401 , @1.708482961886305 Channel: 0 
Note on, F5 key =  77;WhichDrum: HH ; velocity: 127
@32481 , @1.712701308139535 Channel: 0 
Note on, F5 key =  77;WhichDrum: HH ; velocity: 0
@32481 , @1.712701308139535 Channel: 0 
Note on, F5 key =  77;WhichDrum: HH ; velocity: 127
@32561 , @1.716919654392765 Channel: 0 
Note on, F5 key =  77;WhichDrum: HH ; velocity: 0
@32561 , @1.716919654392765 Channel: 0 
Note on, F5 key =  77;WhichDrum: HH ; velocity: 127
@32641 , @1.7211380006459949 Channel: 0 
Note on, F5 key =  77;WhichDrum: HH ; velocity: 0
@32641 , @1.7211380006459949 Channel: 0 
Note on, E5 key =  76;WhichDrum: S ; velocity: 127
@32761 , @1.72746552002584 Channel: 0 
Note on, E5 key =  76;WhichDrum: S ; velocity: 0
@33601 , @1.7717581556847548 Channel: 0 
Note on, D5 key =  74;WhichDrum: T2 ; velocity: 127
@33661 , @1.7749219153746771 Channel: 0 
Note on, D5 key =  74;WhichDrum: T2 ; velocity: 0
@33661 , @1.7749219153746771 Channel: 0 
Note on, E5 key =  76;WhichDrum: S ; velocity: 127
@34201 , @1.8033957525839792 Channel: 0 
Note on, E5 key =  76;WhichDrum: S ; velocity: 0
@34321 , @1.8097232719638243 Channel: 0 
Note on, F5 key =  77;WhichDrum: HH ; velocity: 127
@34401 , @1.8139416182170542 Channel: 0 
Note on, F5 key =  77;WhichDrum: HH ; velocity: 0
@34401 , @1.8139416182170542 Channel: 0 
Note on, F5 key =  77;WhichDrum: HH ; velocity: 127
@34481 , @1.8181599644702844 Channel: 0 
Note on, F5 key =  77;WhichDrum: HH ; velocity: 0
@34481 , @1.8181599644702844 Channel: 0 
Note on, F5 key =  77;WhichDrum: HH ; velocity: 127
@34561 , @1.822378310723514 Channel: 0 
Note on, F5 key =  77;WhichDrum: HH ; velocity: 0
@34561 , @1.822378310723514 Channel: 0 
Note on, E5 key =  76;WhichDrum: S ; velocity: 127
@34681 , @1.8287058301033592 Channel: 0 
Note on, E5 key =  76;WhichDrum: S ; velocity: 0
@38281 , @2.018531411498708 Channel: 0 
Note on, E5 key =  76;WhichDrum: S ; velocity: 127
@38341 , @2.0216951711886306 Channel: 0 
Note on, E5 key =  76;WhichDrum: S ; velocity: 0
@38341 , @2.0216951711886306 Channel: 0 
Note on, D5 key =  74;WhichDrum: T2 ; velocity: 127
@38401 , @2.024858930878553 Channel: 0 
Note on, D5 key =  74;WhichDrum: T2 ; velocity: 0
@38401 , @2.024858930878553 Channel: 0 
Note on, E5 key =  76;WhichDrum: S ; velocity: 127
@38461 , @2.0280226905684753 Channel: 0 
Note on, E5 key =  76;WhichDrum: S ; velocity: 0
@38461 , @2.0280226905684753 Channel: 0 
Note on, E5 key =  76;WhichDrum: S ; velocity: 127
@38521 , @2.031186450258398 Channel: 0 
Note on, E5 key =  76;WhichDrum: S ; velocity: 0
@38521 , @2.031186450258398 Channel: 0 
Note on, E5 key =  76;WhichDrum: S ; velocity: 127
@38581 , @2.0343502099483204 Channel: 0 
Note on, E5 key =  76;WhichDrum: S ; velocity: 0
@38581 , @2.0343502099483204 Channel: 0 
Note on, E5 key =  76;WhichDrum: S ; velocity: 127
@38761 , @2.043841489018088 Channel: 0 
Note on, E5 key =  76;WhichDrum: S ; velocity: 0
@38761 , @2.043841489018088 Channel: 0 
Note on, E5 key =  76;WhichDrum: S ; velocity: 127
@38821 , @2.04700524870801 Channel: 0 
Note on, E5 key =  76;WhichDrum: S ; velocity: 0
@38821 , @2.04700524870801 Channel: 0 
Note on, D5 key =  74;WhichDrum: T2 ; velocity: 127
@38881 , @2.050169008397933 Channel: 0 
Note on, D5 key =  74;WhichDrum: T2 ; velocity: 0
@38881 , @2.050169008397933 Channel: 0 
Note on, E5 key =  76;WhichDrum: S ; velocity: 127
@38941 , @2.0533327680878553 Channel: 0 
Note on, E5 key =  76;WhichDrum: S ; velocity: 0
@38941 , @2.0533327680878553 Channel: 0 
Note on, E5 key =  76;WhichDrum: S ; velocity: 127
@39001 , @2.0564965277777776 Channel: 0 
Note on, E5 key =  76;WhichDrum: S ; velocity: 0
@39001 , @2.0564965277777776 Channel: 0 
Note on, G5 key =  79;WhichDrum: C2 ; velocity: 127
@39061 , @2.0596602874677004 Channel: 0 
Note on, G5 key =  79;WhichDrum: C2 ; velocity: 0
@39061 , @2.0596602874677004 Channel: 0 
Note on, E5 key =  76;WhichDrum: S ; velocity: 127
@39121 , @2.0628240471576227 Channel: 0 
Note on, E5 key =  76;WhichDrum: S ; velocity: 0
@39301 , @2.07231532622739 Channel: 0 
Note on, D5 key =  74;WhichDrum: T2 ; velocity: 127
@39361 , @2.075479085917313 Channel: 0 
Note on, D5 key =  74;WhichDrum: T2 ; velocity: 0
@39361 , @2.075479085917313 Channel: 0 
Note on, E5 key =  76;WhichDrum: S ; velocity: 127
@39421 , @2.0786428456072352 Channel: 0 
Note on, E5 key =  76;WhichDrum: S ; velocity: 0
@39421 , @2.0786428456072352 Channel: 0 
Note on, E5 key =  76;WhichDrum: S ; velocity: 127
@39481 , @2.0818066052971576 Channel: 0 
Note on, E5 key =  76;WhichDrum: S ; velocity: 0
@39481 , @2.0818066052971576 Channel: 0 
Note on, D5 key =  74;WhichDrum: T2 ; velocity: 127
@39541 , @2.0849703649870803 Channel: 0 
Note on, D5 key =  74;WhichDrum: T2 ; velocity: 0
@39541 , @2.0849703649870803 Channel: 0 
Note on, E5 key =  76;WhichDrum: S ; velocity: 127
@39781 , @2.09762540374677 Channel: 0 
Note on, E5 key =  76;WhichDrum: S ; velocity: 0
@39781 , @2.09762540374677 Channel: 0 
Note on, D5 key =  74;WhichDrum: T2 ; velocity: 127
@39841 , @2.1007891634366924 Channel: 0 
Note on, D5 key =  74;WhichDrum: T2 ; velocity: 0
@39841 , @2.1007891634366924 Channel: 0 
Note on, E5 key =  76;WhichDrum: S ; velocity: 127
@39901 , @2.103952923126615 Channel: 0 
Note on, E5 key =  76;WhichDrum: S ; velocity: 0
@39901 , @2.103952923126615 Channel: 0 
Note on, E5 key =  76;WhichDrum: S ; velocity: 127
@39961 , @2.1071166828165375 Channel: 0 
Note on, E5 key =  76;WhichDrum: S ; velocity: 0
@39961 , @2.1071166828165375 Channel: 0 
Note on, E5 key =  76;WhichDrum: S ; velocity: 127
@40021 , @2.11028044250646 Channel: 0 
Note on, E5 key =  76;WhichDrum: S ; velocity: 0
@40021 , @2.11028044250646 Channel: 0 
Note on, E5 key =  76;WhichDrum: S ; velocity: 127
@40081 , @2.1134442021963826 Channel: 0 
Note on, E5 key =  76;WhichDrum: S ; velocity: 0
@40441 , @2.1324267603359175 Channel: 0 
Note on, E5 key =  76;WhichDrum: S ; velocity: 127
@40501 , @2.13559052002584 Channel: 0 
Note on, E5 key =  76;WhichDrum: S ; velocity: 0
@40501 , @2.13559052002584 Channel: 0 
Note on, D5 key =  74;WhichDrum: T2 ; velocity: 127
@40561 , @2.1387542797157626 Channel: 0 
Note on, D5 key =  74;WhichDrum: T2 ; velocity: 0
@40561 , @2.1387542797157626 Channel: 0 
Note on, E5 key =  76;WhichDrum: S ; velocity: 127
@40621 , @2.141918039405685 Channel: 0 
Note on, E5 key =  76;WhichDrum: S ; velocity: 0
@40621 , @2.141918039405685 Channel: 0 
Note on, D5 key =  74;WhichDrum: T2 ; velocity: 127
@40681 , @2.1450817990956073 Channel: 0 
Note on, D5 key =  74;WhichDrum: T2 ; velocity: 0
@40681 , @2.1450817990956073 Channel: 0 
Note on, E5 key =  76;WhichDrum: S ; velocity: 127
@40741 , @2.14824555878553 Channel: 0 
Note on, E5 key =  76;WhichDrum: S ; velocity: 0
@40741 , @2.14824555878553 Channel: 0 
Note on, D5 key =  74;WhichDrum: T2 ; velocity: 127
@40801 , @2.1514093184754524 Channel: 0 
Note on, D5 key =  74;WhichDrum: T2 ; velocity: 0
@40801 , @2.1514093184754524 Channel: 0 
Note on, E5 key =  76;WhichDrum: S ; velocity: 127
@40861 , @2.1545730781653747 Channel: 0 
Note on, E5 key =  76;WhichDrum: S ; velocity: 0
@40861 , @2.1545730781653747 Channel: 0 
Note on, F#5 key =  78;WhichDrum: C1 ; velocity: 127
@40921 , @2.1577368378552975 Channel: 0 
Note on, F#5 key =  78;WhichDrum: C1 ; velocity: 0
@40921 , @2.1577368378552975 Channel: 0 
Note on, G5 key =  79;WhichDrum: C2 ; velocity: 127
@40981 , @2.16090059754522 Channel: 0 
Note on, G5 key =  79;WhichDrum: C2 ; velocity: 0
@40981 , @2.16090059754522 Channel: 0 
Note on, E5 key =  76;WhichDrum: S ; velocity: 127
@41041 , @2.164064357235142 Channel: 0 
Note on, E5 key =  76;WhichDrum: S ; velocity: 0
@41041 , @2.164064357235142 Channel: 0 
Note on, D5 key =  74;WhichDrum: T2 ; velocity: 127
@41161 , @2.1703918766149872 Channel: 0 
Note on, D5 key =  74;WhichDrum: T2 ; velocity: 0
@41161 , @2.1703918766149872 Channel: 0 
Note on, D5 key =  74;WhichDrum: T2 ; velocity: 127
@41221 , @2.17355563630491 Channel: 0 
Note on, D5 key =  74;WhichDrum: T2 ; velocity: 0
@41221 , @2.17355563630491 Channel: 0 
Note on, D5 key =  74;WhichDrum: T2 ; velocity: 127
@41281 , @2.1767193959948323 Channel: 0 
Note on, D5 key =  74;WhichDrum: T2 ; velocity: 0
@41281 , @2.1767193959948323 Channel: 0 
Note on, E5 key =  76;WhichDrum: S ; velocity: 127
@41341 , @2.1798831556847547 Channel: 0 
Note on, E5 key =  76;WhichDrum: S ; velocity: 0
@41341 , @2.1798831556847547 Channel: 0 
Note on, E5 key =  76;WhichDrum: S ; velocity: 127
@41461 , @2.1862106750645998 Channel: 0 
Note on, E5 key =  76;WhichDrum: S ; velocity: 0
@41461 , @2.1862106750645998 Channel: 0 
Note on, E5 key =  76;WhichDrum: S ; velocity: 127
@41521 , @2.189374434754522 Channel: 0 
Note on, E5 key =  76;WhichDrum: S ; velocity: 0
@41581 , @2.1925381944444444 Channel: 0 
Note on, E5 key =  76;WhichDrum: S ; velocity: 127
@41641 , @2.1957019541343668 Channel: 0 
Note on, E5 key =  76;WhichDrum: S ; velocity: 0
@41641 , @2.1957019541343668 Channel: 0 
Note on, E5 key =  76;WhichDrum: S ; velocity: 127
@41701 , @2.1988657138242895 Channel: 0 
Note on, E5 key =  76;WhichDrum: S ; velocity: 0
@41701 , @2.1988657138242895 Channel: 0 
Note on, E5 key =  76;WhichDrum: S ; velocity: 127
@41761 , @2.202029473514212 Channel: 0 
Note on, E5 key =  76;WhichDrum: S ; velocity: 0
@41761 , @2.202029473514212 Channel: 0 
Note on, E5 key =  76;WhichDrum: S ; velocity: 127
@41821 , @2.205193233204134 Channel: 0 
Note on, E5 key =  76;WhichDrum: S ; velocity: 0
@41821 , @2.205193233204134 Channel: 0 
Note on, E5 key =  76;WhichDrum: S ; velocity: 127
@41881 , @2.208356992894057 Channel: 0 
Note on, E5 key =  76;WhichDrum: S ; velocity: 0
@41881 , @2.208356992894057 Channel: 0 
Note on, E5 key =  76;WhichDrum: S ; velocity: 127
@41941 , @2.2115207525839793 Channel: 0 
Note on, E5 key =  76;WhichDrum: S ; velocity: 0
@41941 , @2.2115207525839793 Channel: 0 
Note on, E5 key =  76;WhichDrum: S ; velocity: 127
@42061 , @2.2178482719638244 Channel: 0 
Note on, E5 key =  76;WhichDrum: S ; velocity: 0
@42241 , @2.227339551033592 Channel: 0 
Note on, E5 key =  76;WhichDrum: S ; velocity: 127
@42301 , @2.230503310723514 Channel: 0 
Note on, E5 key =  76;WhichDrum: S ; velocity: 0
@42301 , @2.230503310723514 Channel: 0 
Note on, E5 key =  76;WhichDrum: S ; velocity: 127
@42361 , @2.2336670704134365 Channel: 0 
Note on, E5 key =  76;WhichDrum: S ; velocity: 0
@42481 , @2.2399945897932816 Channel: 0 
Note on, E5 key =  76;WhichDrum: S ; velocity: 127
@42541 , @2.243158349483204 Channel: 0 
Note on, E5 key =  76;WhichDrum: S ; velocity: 0
@42541 , @2.243158349483204 Channel: 0 
Note on, E5 key =  76;WhichDrum: S ; velocity: 127
@42601 , @2.2463221091731267 Channel: 0 
Note on, E5 key =  76;WhichDrum: S ; velocity: 0
@42601 , @2.2463221091731267 Channel: 0 
Note on, E5 key =  76;WhichDrum: S ; velocity: 127
@42721 , @2.252649628552972 Channel: 0 
Note on, E5 key =  76;WhichDrum: S ; velocity: 0
@42721 , @2.252649628552972 Channel: 0 
Note on, E5 key =  76;WhichDrum: S ; velocity: 127
@42781 , @2.255813388242894 Channel: 0 
Note on, E5 key =  76;WhichDrum: S ; velocity: 0
@42781 , @2.255813388242894 Channel: 0 
Note on, E5 key =  76;WhichDrum: S ; velocity: 127
@42841 , @2.2589771479328165 Channel: 0 
Note on, E5 key =  76;WhichDrum: S ; velocity: 0
@42961 , @2.2653046673126616 Channel: 0 
Note on, E5 key =  76;WhichDrum: S ; velocity: 127
@43021 , @2.268468427002584 Channel: 0 
Note on, E5 key =  76;WhichDrum: S ; velocity: 0
@43021 , @2.268468427002584 Channel: 0 
Note on, E5 key =  76;WhichDrum: S ; velocity: 127
@43081 , @2.2716321866925067 Channel: 0 
Note on, E5 key =  76;WhichDrum: S ; velocity: 0
@43081 , @2.2716321866925067 Channel: 0 
Note on, E5 key =  76;WhichDrum: S ; velocity: 127
@43201 , @2.2779597060723513 Channel: 0 
Note on, E5 key =  76;WhichDrum: S ; velocity: 0
@43201 , @2.2779597060723513 Channel: 0 
Note on, E5 key =  76;WhichDrum: S ; velocity: 127
@43261 , @2.281123465762274 Channel: 0 
Note on, E5 key =  76;WhichDrum: S ; velocity: 0
@43261 , @2.281123465762274 Channel: 0 
Note on, A4 key =  69;WhichDrum: T3 ; velocity: 127
@43321 , @2.2842872254521964 Channel: 0 
Note on, A4 key =  69;WhichDrum: T3 ; velocity: 0
@43381 , @2.2874509851421188 Channel: 0 
Note on, E5 key =  76;WhichDrum: S ; velocity: 127
@43441 , @2.2906147448320415 Channel: 0 
Note on, E5 key =  76;WhichDrum: S ; velocity: 0
@43441 , @2.2906147448320415 Channel: 0 
Note on, E5 key =  76;WhichDrum: S ; velocity: 127
@43501 , @2.293778504521964 Channel: 0 
Note on, E5 key =  76;WhichDrum: S ; velocity: 0
@43501 , @2.293778504521964 Channel: 0 
Note on, E5 key =  76;WhichDrum: S ; velocity: 127
@43561 , @2.296942264211886 Channel: 0 
Note on, E5 key =  76;WhichDrum: S ; velocity: 0
@43561 , @2.296942264211886 Channel: 0 
Note on, E5 key =  76;WhichDrum: S ; velocity: 127
@43681 , @2.3032697835917313 Channel: 0 
Note on, E5 key =  76;WhichDrum: S ; velocity: 0
@44161 , @2.3285798611111113 Channel: 0 
Note on, E5 key =  76;WhichDrum: S ; velocity: 127
@44221 , @2.3317436208010336 Channel: 0 
Note on, E5 key =  76;WhichDrum: S ; velocity: 0
@44221 , @2.3317436208010336 Channel: 0 
Note on, E5 key =  76;WhichDrum: S ; velocity: 127
@44281 , @2.3349073804909564 Channel: 0 
Note on, E5 key =  76;WhichDrum: S ; velocity: 0
@44401 , @2.341234899870801 Channel: 0 
Note on, E5 key =  76;WhichDrum: S ; velocity: 127
@44461 , @2.344398659560724 Channel: 0 
Note on, E5 key =  76;WhichDrum: S ; velocity: 0
@44461 , @2.344398659560724 Channel: 0 
Note on, E5 key =  76;WhichDrum: S ; velocity: 127
@44521 , @2.347562419250646 Channel: 0 
Note on, E5 key =  76;WhichDrum: S ; velocity: 0
@44521 , @2.347562419250646 Channel: 0 
Note on, E5 key =  76;WhichDrum: S ; velocity: 127
@44641 , @2.3538899386304912 Channel: 0 
Note on, E5 key =  76;WhichDrum: S ; velocity: 0
@44641 , @2.3538899386304912 Channel: 0 
Note on, E5 key =  76;WhichDrum: S ; velocity: 127
@44701 , @2.3570536983204136 Channel: 0 
Note on, E5 key =  76;WhichDrum: S ; velocity: 0
@44701 , @2.3570536983204136 Channel: 0 
Note on, E5 key =  76;WhichDrum: S ; velocity: 127
@44761 , @2.3602174580103363 Channel: 0 
Note on, E5 key =  76;WhichDrum: S ; velocity: 0
@44881 , @2.366544977390181 Channel: 0 
Note on, E5 key =  76;WhichDrum: S ; velocity: 127
@44941 , @2.3697087370801038 Channel: 0 
Note on, E5 key =  76;WhichDrum: S ; velocity: 0
@44941 , @2.3697087370801038 Channel: 0 
Note on, E5 key =  76;WhichDrum: S ; velocity: 127
@45001 , @2.372872496770026 Channel: 0 
Note on, E5 key =  76;WhichDrum: S ; velocity: 0
@45001 , @2.372872496770026 Channel: 0 
Note on, E5 key =  76;WhichDrum: S ; velocity: 127
@45121 , @2.379200016149871 Channel: 0 
Note on, E5 key =  76;WhichDrum: S ; velocity: 0
@45121 , @2.379200016149871 Channel: 0 
Note on, E5 key =  76;WhichDrum: S ; velocity: 127
@45181 , @2.3823637758397935 Channel: 0 
Note on, E5 key =  76;WhichDrum: S ; velocity: 0
@45181 , @2.3823637758397935 Channel: 0 
Note on, A4 key =  69;WhichDrum: T3 ; velocity: 127
@45241 , @2.385527535529716 Channel: 0 
Note on, A4 key =  69;WhichDrum: T3 ; velocity: 0
@45301 , @2.3886912952196386 Channel: 0 
Note on, E5 key =  76;WhichDrum: S ; velocity: 127
@45361 , @2.391855054909561 Channel: 0 
Note on, E5 key =  76;WhichDrum: S ; velocity: 0
@45361 , @2.391855054909561 Channel: 0 
Note on, E5 key =  76;WhichDrum: S ; velocity: 127
@45421 , @2.3950188145994833 Channel: 0 
Note on, E5 key =  76;WhichDrum: S ; velocity: 0
@45421 , @2.3950188145994833 Channel: 0 
Note on, E5 key =  76;WhichDrum: S ; velocity: 127
@45481 , @2.3981825742894056 Channel: 0 
Note on, E5 key =  76;WhichDrum: S ; velocity: 0
@45481 , @2.3981825742894056 Channel: 0 
Note on, E5 key =  76;WhichDrum: S ; velocity: 127
@45601 , @2.4045100936692507 Channel: 0 
Note on, E5 key =  76;WhichDrum: S ; velocity: 0
@46561 , @2.45513024870801 Channel: 0 
Note on, D5 key =  74;WhichDrum: T2 ; velocity: 127
@46621 , @2.458294008397933 Channel: 0 
Note on, D5 key =  74;WhichDrum: T2 ; velocity: 0
@46621 , @2.458294008397933 Channel: 0 
Note on, E5 key =  76;WhichDrum: S ; velocity: 127
@47161 , @2.4867678456072353 Channel: 0 
Note on, E5 key =  76;WhichDrum: S ; velocity: 0
@47281 , @2.4930953649870804 Channel: 0 
Note on, F5 key =  77;WhichDrum: HH ; velocity: 127
@47361 , @2.4973137112403103 Channel: 0 
Note on, F5 key =  77;WhichDrum: HH ; velocity: 0
@47361 , @2.4973137112403103 Channel: 0 
Note on, F5 key =  77;WhichDrum: HH ; velocity: 127
@47441 , @2.5015320574935402 Channel: 0 
Note on, F5 key =  77;WhichDrum: HH ; velocity: 0
@47441 , @2.5015320574935402 Channel: 0 
Note on, F5 key =  77;WhichDrum: HH ; velocity: 127
@47521 , @2.50575040374677 Channel: 0 
Note on, F5 key =  77;WhichDrum: HH ; velocity: 0
@47521 , @2.50575040374677 Channel: 0 
Note on, E5 key =  76;WhichDrum: S ; velocity: 127
@47641 , @2.5120779231266153 Channel: 0 
Note on, E5 key =  76;WhichDrum: S ; velocity: 0
@48481 , @2.55637055878553 Channel: 0 
Note on, D5 key =  74;WhichDrum: T2 ; velocity: 127
@48541 , @2.5595343184754524 Channel: 0 
Note on, D5 key =  74;WhichDrum: T2 ; velocity: 0
@48541 , @2.5595343184754524 Channel: 0 
Note on, E5 key =  76;WhichDrum: S ; velocity: 127
@49081 , @2.5880081556847547 Channel: 0 
Note on, E5 key =  76;WhichDrum: S ; velocity: 0
@49201 , @2.5943356750646 Channel: 0 
Note on, F5 key =  77;WhichDrum: HH ; velocity: 127
@49281 , @2.5985540213178293 Channel: 0 
Note on, F5 key =  77;WhichDrum: HH ; velocity: 0
@49281 , @2.5985540213178293 Channel: 0 
Note on, F5 key =  77;WhichDrum: HH ; velocity: 127
@49361 , @2.6027723675710597 Channel: 0 
Note on, F5 key =  77;WhichDrum: HH ; velocity: 0
@49361 , @2.6027723675710597 Channel: 0 
Note on, F5 key =  77;WhichDrum: HH ; velocity: 127
@49441 , @2.606990713824289 Channel: 0 
Note on, F5 key =  77;WhichDrum: HH ; velocity: 0
@49441 , @2.606990713824289 Channel: 0 
Note on, B5 key =  83;WhichDrum: T1 ; velocity: 127
@49681 , @2.6196457525839794 Channel: 0 
Note on, B5 key =  83;WhichDrum: T1 ; velocity: 0
@50401 , @2.657610868863049 Channel: 0 
Note on, D5 key =  74;WhichDrum: T2 ; velocity: 127
@50461 , @2.6607746285529714 Channel: 0 
Note on, D5 key =  74;WhichDrum: T2 ; velocity: 0
@50461 , @2.6607746285529714 Channel: 0 
Note on, E5 key =  76;WhichDrum: S ; velocity: 127
@51001 , @2.689248465762274 Channel: 0 
Note on, E5 key =  76;WhichDrum: S ; velocity: 0
@51121 , @2.695575985142119 Channel: 0 
Note on, F5 key =  77;WhichDrum: HH ; velocity: 127
@51201 , @2.699794331395349 Channel: 0 
Note on, F5 key =  77;WhichDrum: HH ; velocity: 0
@51201 , @2.699794331395349 Channel: 0 
Note on, F5 key =  77;WhichDrum: HH ; velocity: 127
@51281 , @2.7040126776485787 Channel: 0 
Note on, F5 key =  77;WhichDrum: HH ; velocity: 0
@51281 , @2.7040126776485787 Channel: 0 
Note on, F5 key =  77;WhichDrum: HH ; velocity: 127
@51361 , @2.708231023901809 Channel: 0 
Note on, F5 key =  77;WhichDrum: HH ; velocity: 0
@51361 , @2.708231023901809 Channel: 0 
Note on, E5 key =  76;WhichDrum: S ; velocity: 127
@51481 , @2.7145585432816537 Channel: 0 
Note on, E5 key =  76;WhichDrum: S ; velocity: 0
@52321 , @2.7588511789405685 Channel: 0 
Note on, D5 key =  74;WhichDrum: T2 ; velocity: 127
@52381 , @2.7620149386304913 Channel: 0 
Note on, D5 key =  74;WhichDrum: T2 ; velocity: 0
@52381 , @2.7620149386304913 Channel: 0 
Note on, E5 key =  76;WhichDrum: S ; velocity: 127
@52921 , @2.7904887758397936 Channel: 0 
Note on, E5 key =  76;WhichDrum: S ; velocity: 0
@53041 , @2.7968162952196387 Channel: 0 
Note on, F5 key =  77;WhichDrum: HH ; velocity: 127
@53121 , @2.801034641472868 Channel: 0 
Note on, F5 key =  77;WhichDrum: HH ; velocity: 0
@53121 , @2.801034641472868 Channel: 0 
Note on, F5 key =  77;WhichDrum: HH ; velocity: 127
@53201 , @2.8052529877260985 Channel: 0 
Note on, F5 key =  77;WhichDrum: HH ; velocity: 0
@53201 , @2.8052529877260985 Channel: 0 
Note on, F5 key =  77;WhichDrum: HH ; velocity: 127
@53281 , @2.809471333979328 Channel: 0 
Note on, F5 key =  77;WhichDrum: HH ; velocity: 0
@53281 , @2.809471333979328 Channel: 0 
Note on, B5 key =  83;WhichDrum: T1 ; velocity: 127
@53761 , @2.834781411498708 Channel: 0 
Note on, B5 key =  83;WhichDrum: T1 ; velocity: 0
@90661 , @4.780493620801034 Channel: 0 
Note on, D5 key =  74;WhichDrum: T2 ; velocity: 127
@90721 , @4.783657380490956 Channel: 0 
Note on, D5 key =  74;WhichDrum: T2 ; velocity: 0
@90721 , @4.783657380490956 Channel: 0 
Note on, E5 key =  76;WhichDrum: S ; velocity: 127
@90781 , @4.786821140180879 Channel: 0 
Note on, E5 key =  76;WhichDrum: S ; velocity: 0
@90781 , @4.786821140180879 Channel: 0 
Note on, E5 key =  76;WhichDrum: S ; velocity: 127
@90841 , @4.7899848998708014 Channel: 0 
Note on, E5 key =  76;WhichDrum: S ; velocity: 0
@90841 , @4.7899848998708014 Channel: 0 
Note on, E5 key =  76;WhichDrum: S ; velocity: 127
@90901 , @4.793148659560724 Channel: 0 
Note on, E5 key =  76;WhichDrum: S ; velocity: 0
@90901 , @4.793148659560724 Channel: 0 
Note on, E5 key =  76;WhichDrum: S ; velocity: 127
@91081 , @4.802639938630492 Channel: 0 
Note on, E5 key =  76;WhichDrum: S ; velocity: 0
@91081 , @4.802639938630492 Channel: 0 
Note on, E5 key =  76;WhichDrum: S ; velocity: 127
@91141 , @4.805803698320414 Channel: 0 
Note on, E5 key =  76;WhichDrum: S ; velocity: 0
@91141 , @4.805803698320414 Channel: 0 
Note on, D5 key =  74;WhichDrum: T2 ; velocity: 127
@91201 , @4.808967458010336 Channel: 0 
Note on, D5 key =  74;WhichDrum: T2 ; velocity: 0
@91201 , @4.808967458010336 Channel: 0 
Note on, E5 key =  76;WhichDrum: S ; velocity: 127
@91261 , @4.812131217700259 Channel: 0 
Note on, E5 key =  76;WhichDrum: S ; velocity: 0
@91261 , @4.812131217700259 Channel: 0 
Note on, E5 key =  76;WhichDrum: S ; velocity: 127
@91321 , @4.815294977390181 Channel: 0 
Note on, E5 key =  76;WhichDrum: S ; velocity: 0
@91321 , @4.815294977390181 Channel: 0 
Note on, G5 key =  79;WhichDrum: C2 ; velocity: 127
@91381 , @4.818458737080103 Channel: 0 
Note on, G5 key =  79;WhichDrum: C2 ; velocity: 0
@91381 , @4.818458737080103 Channel: 0 
Note on, E5 key =  76;WhichDrum: S ; velocity: 127
@91441 , @4.8216224967700265 Channel: 0 
Note on, E5 key =  76;WhichDrum: S ; velocity: 0
@91621 , @4.8311137758397935 Channel: 0 
Note on, D5 key =  74;WhichDrum: T2 ; velocity: 127
@91681 , @4.834277535529716 Channel: 0 
Note on, D5 key =  74;WhichDrum: T2 ; velocity: 0
@91681 , @4.834277535529716 Channel: 0 
Note on, E5 key =  76;WhichDrum: S ; velocity: 127
@91741 , @4.837441295219638 Channel: 0 
Note on, E5 key =  76;WhichDrum: S ; velocity: 0
@91741 , @4.837441295219638 Channel: 0 
Note on, E5 key =  76;WhichDrum: S ; velocity: 127
@91801 , @4.840605054909561 Channel: 0 
Note on, E5 key =  76;WhichDrum: S ; velocity: 0
@91801 , @4.840605054909561 Channel: 0 
Note on, D5 key =  74;WhichDrum: T2 ; velocity: 127
@91861 , @4.843768814599484 Channel: 0 
Note on, D5 key =  74;WhichDrum: T2 ; velocity: 0
@91861 , @4.843768814599484 Channel: 0 
Note on, E5 key =  76;WhichDrum: S ; velocity: 127
@92101 , @4.856423853359174 Channel: 0 
Note on, E5 key =  76;WhichDrum: S ; velocity: 0
@92101 , @4.856423853359174 Channel: 0 
Note on, D5 key =  74;WhichDrum: T2 ; velocity: 127
@92161 , @4.859587613049096 Channel: 0 
Note on, D5 key =  74;WhichDrum: T2 ; velocity: 0
@92161 , @4.859587613049096 Channel: 0 
Note on, E5 key =  76;WhichDrum: S ; velocity: 127
@92221 , @4.862751372739019 Channel: 0 
Note on, E5 key =  76;WhichDrum: S ; velocity: 0
@92221 , @4.862751372739019 Channel: 0 
Note on, E5 key =  76;WhichDrum: S ; velocity: 127
@92281 , @4.865915132428941 Channel: 0 
Note on, E5 key =  76;WhichDrum: S ; velocity: 0
@92281 , @4.865915132428941 Channel: 0 
Note on, E5 key =  76;WhichDrum: S ; velocity: 127
@92341 , @4.869078892118863 Channel: 0 
Note on, E5 key =  76;WhichDrum: S ; velocity: 0
@92341 , @4.869078892118863 Channel: 0 
Note on, E5 key =  76;WhichDrum: S ; velocity: 127
@92401 , @4.872242651808786 Channel: 0 
Note on, E5 key =  76;WhichDrum: S ; velocity: 0
@92761 , @4.89122520994832 Channel: 0 
Note on, E5 key =  76;WhichDrum: S ; velocity: 127
@92821 , @4.894388969638244 Channel: 0 
Note on, E5 key =  76;WhichDrum: S ; velocity: 0
@92821 , @4.894388969638244 Channel: 0 
Note on, D5 key =  74;WhichDrum: T2 ; velocity: 127
@92881 , @4.897552729328166 Channel: 0 
Note on, D5 key =  74;WhichDrum: T2 ; velocity: 0
@92881 , @4.897552729328166 Channel: 0 
Note on, E5 key =  76;WhichDrum: S ; velocity: 127
@92941 , @4.900716489018088 Channel: 0 
Note on, E5 key =  76;WhichDrum: S ; velocity: 0
@92941 , @4.900716489018088 Channel: 0 
Note on, D5 key =  74;WhichDrum: T2 ; velocity: 127
@93001 , @4.903880248708011 Channel: 0 
Note on, D5 key =  74;WhichDrum: T2 ; velocity: 0
@93001 , @4.903880248708011 Channel: 0 
Note on, E5 key =  76;WhichDrum: S ; velocity: 127
@93061 , @4.907044008397933 Channel: 0 
Note on, E5 key =  76;WhichDrum: S ; velocity: 0
@93061 , @4.907044008397933 Channel: 0 
Note on, D5 key =  74;WhichDrum: T2 ; velocity: 127
@93121 , @4.910207768087856 Channel: 0 
Note on, D5 key =  74;WhichDrum: T2 ; velocity: 0
@93121 , @4.910207768087856 Channel: 0 
Note on, E5 key =  76;WhichDrum: S ; velocity: 127
@93181 , @4.9133715277777785 Channel: 0 
Note on, E5 key =  76;WhichDrum: S ; velocity: 0
@93181 , @4.9133715277777785 Channel: 0 
Note on, F#5 key =  78;WhichDrum: C1 ; velocity: 127
@93241 , @4.916535287467701 Channel: 0 
Note on, F#5 key =  78;WhichDrum: C1 ; velocity: 0
@93241 , @4.916535287467701 Channel: 0 
Note on, G5 key =  79;WhichDrum: C2 ; velocity: 127
@93301 , @4.919699047157623 Channel: 0 
Note on, G5 key =  79;WhichDrum: C2 ; velocity: 0
@93301 , @4.919699047157623 Channel: 0 
Note on, E5 key =  76;WhichDrum: S ; velocity: 127
@93361 , @4.9228628068475455 Channel: 0 
Note on, E5 key =  76;WhichDrum: S ; velocity: 0
@93361 , @4.9228628068475455 Channel: 0 
Note on, D5 key =  74;WhichDrum: T2 ; velocity: 127
@93481 , @4.929190326227391 Channel: 0 
Note on, D5 key =  74;WhichDrum: T2 ; velocity: 0
@93481 , @4.929190326227391 Channel: 0 
Note on, D5 key =  74;WhichDrum: T2 ; velocity: 127
@93541 , @4.932354085917313 Channel: 0 
Note on, D5 key =  74;WhichDrum: T2 ; velocity: 0
@93541 , @4.932354085917313 Channel: 0 
Note on, D5 key =  74;WhichDrum: T2 ; velocity: 127
@93601 , @4.935517845607236 Channel: 0 
Note on, D5 key =  74;WhichDrum: T2 ; velocity: 0
@93601 , @4.935517845607236 Channel: 0 
Note on, E5 key =  76;WhichDrum: S ; velocity: 127
@93661 , @4.938681605297158 Channel: 0 
Note on, E5 key =  76;WhichDrum: S ; velocity: 0
@93661 , @4.938681605297158 Channel: 0 
Note on, E5 key =  76;WhichDrum: S ; velocity: 127
@93781 , @4.945009124677003 Channel: 0 
Note on, E5 key =  76;WhichDrum: S ; velocity: 0
@93781 , @4.945009124677003 Channel: 0 
Note on, E5 key =  76;WhichDrum: S ; velocity: 127
@93841 , @4.948172884366925 Channel: 0 
Note on, E5 key =  76;WhichDrum: S ; velocity: 0
@93901 , @4.951336644056847 Channel: 0 
Note on, E5 key =  76;WhichDrum: S ; velocity: 127
@93961 , @4.95450040374677 Channel: 0 
Note on, E5 key =  76;WhichDrum: S ; velocity: 0
@93961 , @4.95450040374677 Channel: 0 
Note on, E5 key =  76;WhichDrum: S ; velocity: 127
@94021 , @4.957664163436692 Channel: 0 
Note on, E5 key =  76;WhichDrum: S ; velocity: 0
@94021 , @4.957664163436692 Channel: 0 
Note on, E5 key =  76;WhichDrum: S ; velocity: 127
@94081 , @4.960827923126615 Channel: 0 
Note on, E5 key =  76;WhichDrum: S ; velocity: 0
@94081 , @4.960827923126615 Channel: 0 
Note on, E5 key =  76;WhichDrum: S ; velocity: 127
@94141 , @4.963991682816538 Channel: 0 
Note on, E5 key =  76;WhichDrum: S ; velocity: 0
@94141 , @4.963991682816538 Channel: 0 
Note on, E5 key =  76;WhichDrum: S ; velocity: 127
@94201 , @4.96715544250646 Channel: 0 
Note on, E5 key =  76;WhichDrum: S ; velocity: 0
@94201 , @4.96715544250646 Channel: 0 
Note on, E5 key =  76;WhichDrum: S ; velocity: 127
@94261 , @4.970319202196382 Channel: 0 
Note on, E5 key =  76;WhichDrum: S ; velocity: 0
@94261 , @4.970319202196382 Channel: 0 
Note on, E5 key =  76;WhichDrum: S ; velocity: 127
@94381 , @4.976646721576227 Channel: 0 
Note on, E5 key =  76;WhichDrum: S ; velocity: 0
@94561 , @4.986138000645995 Channel: 0 
Note on, E5 key =  76;WhichDrum: S ; velocity: 127
@94621 , @4.989301760335917 Channel: 0 
Note on, E5 key =  76;WhichDrum: S ; velocity: 0
@94621 , @4.989301760335917 Channel: 0 
Note on, E5 key =  76;WhichDrum: S ; velocity: 127
@94681 , @4.992465520025839 Channel: 0 
Note on, E5 key =  76;WhichDrum: S ; velocity: 0
@94801 , @4.998793039405685 Channel: 0 
Note on, E5 key =  76;WhichDrum: S ; velocity: 127
@94861 , @5.001956799095607 Channel: 0 
Note on, E5 key =  76;WhichDrum: S ; velocity: 0
@94861 , @5.001956799095607 Channel: 0 
Note on, E5 key =  76;WhichDrum: S ; velocity: 127
@94921 , @5.00512055878553 Channel: 0 
Note on, E5 key =  76;WhichDrum: S ; velocity: 0
@94921 , @5.00512055878553 Channel: 0 
Note on, E5 key =  76;WhichDrum: S ; velocity: 127
@95041 , @5.011448078165374 Channel: 0 
Note on, E5 key =  76;WhichDrum: S ; velocity: 0
@95041 , @5.011448078165374 Channel: 0 
Note on, E5 key =  76;WhichDrum: S ; velocity: 127
@95101 , @5.0146118378552975 Channel: 0 
Note on, E5 key =  76;WhichDrum: S ; velocity: 0
@95101 , @5.0146118378552975 Channel: 0 
Note on, E5 key =  76;WhichDrum: S ; velocity: 127
@95161 , @5.01777559754522 Channel: 0 
Note on, E5 key =  76;WhichDrum: S ; velocity: 0
@95281 , @5.0241031169250645 Channel: 0 
Note on, E5 key =  76;WhichDrum: S ; velocity: 127
@95341 , @5.027266876614987 Channel: 0 
Note on, E5 key =  76;WhichDrum: S ; velocity: 0
@95341 , @5.027266876614987 Channel: 0 
Note on, E5 key =  76;WhichDrum: S ; velocity: 127
@95401 , @5.030430636304909 Channel: 0 
Note on, E5 key =  76;WhichDrum: S ; velocity: 0
@95401 , @5.030430636304909 Channel: 0 
Note on, E5 key =  76;WhichDrum: S ; velocity: 127
@95521 , @5.036758155684755 Channel: 0 
Note on, E5 key =  76;WhichDrum: S ; velocity: 0
@95521 , @5.036758155684755 Channel: 0 
Note on, E5 key =  76;WhichDrum: S ; velocity: 127
@95581 , @5.039921915374677 Channel: 0 
Note on, E5 key =  76;WhichDrum: S ; velocity: 0
@95581 , @5.039921915374677 Channel: 0 
Note on, A4 key =  69;WhichDrum: T3 ; velocity: 127
@95641 , @5.043085675064599 Channel: 0 
Note on, A4 key =  69;WhichDrum: T3 ; velocity: 0
@95701 , @5.046249434754522 Channel: 0 
Note on, E5 key =  76;WhichDrum: S ; velocity: 127
@95761 , @5.049413194444444 Channel: 0 
Note on, E5 key =  76;WhichDrum: S ; velocity: 0
@95761 , @5.049413194444444 Channel: 0 
Note on, E5 key =  76;WhichDrum: S ; velocity: 127
@95821 , @5.052576954134367 Channel: 0 
Note on, E5 key =  76;WhichDrum: S ; velocity: 0
@95821 , @5.052576954134367 Channel: 0 
Note on, E5 key =  76;WhichDrum: S ; velocity: 127
@95881 , @5.05574071382429 Channel: 0 
Note on, E5 key =  76;WhichDrum: S ; velocity: 0
@95881 , @5.05574071382429 Channel: 0 
Note on, E5 key =  76;WhichDrum: S ; velocity: 127
@96001 , @5.062068233204134 Channel: 0 
Note on, E5 key =  76;WhichDrum: S ; velocity: 0
@96481 , @5.087378310723515 Channel: 0 
Note on, E5 key =  76;WhichDrum: S ; velocity: 127
@96541 , @5.090542070413437 Channel: 0 
Note on, E5 key =  76;WhichDrum: S ; velocity: 0
@96541 , @5.090542070413437 Channel: 0 
Note on, E5 key =  76;WhichDrum: S ; velocity: 127
@96601 , @5.093705830103359 Channel: 0 
Note on, E5 key =  76;WhichDrum: S ; velocity: 0
@96721 , @5.100033349483204 Channel: 0 
Note on, E5 key =  76;WhichDrum: S ; velocity: 127
@96781 , @5.103197109173126 Channel: 0 
Note on, E5 key =  76;WhichDrum: S ; velocity: 0
@96781 , @5.103197109173126 Channel: 0 
Note on, E5 key =  76;WhichDrum: S ; velocity: 127
@96841 , @5.1063608688630495 Channel: 0 
Note on, E5 key =  76;WhichDrum: S ; velocity: 0
@96841 , @5.1063608688630495 Channel: 0 
Note on, E5 key =  76;WhichDrum: S ; velocity: 127
@96961 , @5.112688388242894 Channel: 0 
Note on, E5 key =  76;WhichDrum: S ; velocity: 0
@96961 , @5.112688388242894 Channel: 0 
Note on, E5 key =  76;WhichDrum: S ; velocity: 127
@97021 , @5.1158521479328165 Channel: 0 
Note on, E5 key =  76;WhichDrum: S ; velocity: 0
@97021 , @5.1158521479328165 Channel: 0 
Note on, E5 key =  76;WhichDrum: S ; velocity: 127
@97081 , @5.119015907622739 Channel: 0 
Note on, E5 key =  76;WhichDrum: S ; velocity: 0
@97201 , @5.125343427002584 Channel: 0 
Note on, E5 key =  76;WhichDrum: S ; velocity: 127
@97261 , @5.128507186692507 Channel: 0 
Note on, E5 key =  76;WhichDrum: S ; velocity: 0
@97261 , @5.128507186692507 Channel: 0 
Note on, E5 key =  76;WhichDrum: S ; velocity: 127
@97321 , @5.131670946382429 Channel: 0 
Note on, E5 key =  76;WhichDrum: S ; velocity: 0
@97321 , @5.131670946382429 Channel: 0 
Note on, E5 key =  76;WhichDrum: S ; velocity: 127
@97441 , @5.137998465762274 Channel: 0 
Note on, E5 key =  76;WhichDrum: S ; velocity: 0
@97441 , @5.137998465762274 Channel: 0 
Note on, E5 key =  76;WhichDrum: S ; velocity: 127
@97501 , @5.141162225452197 Channel: 0 
Note on, E5 key =  76;WhichDrum: S ; velocity: 0
@97501 , @5.141162225452197 Channel: 0 
Note on, A4 key =  69;WhichDrum: T3 ; velocity: 127
@97561 , @5.144325985142119 Channel: 0 
Note on, A4 key =  69;WhichDrum: T3 ; velocity: 0
@97621 , @5.147489744832042 Channel: 0 
Note on, E5 key =  76;WhichDrum: S ; velocity: 127
@97681 , @5.150653504521964 Channel: 0 
Note on, E5 key =  76;WhichDrum: S ; velocity: 0
@97681 , @5.150653504521964 Channel: 0 
Note on, E5 key =  76;WhichDrum: S ; velocity: 127
@97741 , @5.153817264211886 Channel: 0 
Note on, E5 key =  76;WhichDrum: S ; velocity: 0
@97741 , @5.153817264211886 Channel: 0 
Note on, E5 key =  76;WhichDrum: S ; velocity: 127
@97801 , @5.156981023901809 Channel: 0 
Note on, E5 key =  76;WhichDrum: S ; velocity: 0
@97801 , @5.156981023901809 Channel: 0 
Note on, E5 key =  76;WhichDrum: S ; velocity: 127
@97921 , @5.163308543281654 Channel: 0 
Note on, E5 key =  76;WhichDrum: S ; velocity: 0
@98881 , @5.213928698320414 Channel: 0 
Note on, D5 key =  74;WhichDrum: T2 ; velocity: 127
@98941 , @5.217092458010336 Channel: 0 
Note on, D5 key =  74;WhichDrum: T2 ; velocity: 0
@98941 , @5.217092458010336 Channel: 0 
Note on, E5 key =  76;WhichDrum: S ; velocity: 127
@99481 , @5.245566295219638 Channel: 0 
Note on, E5 key =  76;WhichDrum: S ; velocity: 0
@99601 , @5.251893814599484 Channel: 0 
Note on, F5 key =  77;WhichDrum: HH ; velocity: 127
@99681 , @5.256112160852713 Channel: 0 
Note on, F5 key =  77;WhichDrum: HH ; velocity: 0
@99681 , @5.256112160852713 Channel: 0 
Note on, F5 key =  77;WhichDrum: HH ; velocity: 127
@99761 , @5.260330507105943 Channel: 0 
Note on, F5 key =  77;WhichDrum: HH ; velocity: 0
@99761 , @5.260330507105943 Channel: 0 
Note on, F5 key =  77;WhichDrum: HH ; velocity: 127
@99841 , @5.264548853359173 Channel: 0 
Note on, F5 key =  77;WhichDrum: HH ; velocity: 0
@99841 , @5.264548853359173 Channel: 0 
Note on, E5 key =  76;WhichDrum: S ; velocity: 127
@99961 , @5.270876372739019 Channel: 0 
Note on, E5 key =  76;WhichDrum: S ; velocity: 0
@100801 , @5.315169008397933 Channel: 0 
Note on, D5 key =  74;WhichDrum: T2 ; velocity: 127
@100861 , @5.318332768087855 Channel: 0 
Note on, D5 key =  74;WhichDrum: T2 ; velocity: 0
@100861 , @5.318332768087855 Channel: 0 
Note on, E5 key =  76;WhichDrum: S ; velocity: 127
@101401 , @5.346806605297158 Channel: 0 
Note on, E5 key =  76;WhichDrum: S ; velocity: 0
@101521 , @5.353134124677003 Channel: 0 
Note on, F5 key =  77;WhichDrum: HH ; velocity: 127
@101601 , @5.357352470930233 Channel: 0 
Note on, F5 key =  77;WhichDrum: HH ; velocity: 0
@101601 , @5.357352470930233 Channel: 0 
Note on, F5 key =  77;WhichDrum: HH ; velocity: 127
@101681 , @5.361570817183463 Channel: 0 
Note on, F5 key =  77;WhichDrum: HH ; velocity: 0
@101681 , @5.361570817183463 Channel: 0 
Note on, F5 key =  77;WhichDrum: HH ; velocity: 127
@101761 , @5.365789163436692 Channel: 0 
Note on, F5 key =  77;WhichDrum: HH ; velocity: 0
@101761 , @5.365789163436692 Channel: 0 
Note on, B5 key =  83;WhichDrum: T1 ; velocity: 127
@102001 , @5.378444202196382 Channel: 0 
Note on, B5 key =  83;WhichDrum: T1 ; velocity: 0
@102721 , @5.416409318475452 Channel: 0 
Note on, D5 key =  74;WhichDrum: T2 ; velocity: 127
@102781 , @5.419573078165374 Channel: 0 
Note on, D5 key =  74;WhichDrum: T2 ; velocity: 0
@102781 , @5.419573078165374 Channel: 0 
Note on, E5 key =  76;WhichDrum: S ; velocity: 127
@103321 , @5.448046915374677 Channel: 0 
Note on, E5 key =  76;WhichDrum: S ; velocity: 0
@103441 , @5.454374434754522 Channel: 0 
Note on, F5 key =  77;WhichDrum: HH ; velocity: 127
@103521 , @5.458592781007752 Channel: 0 
Note on, F5 key =  77;WhichDrum: HH ; velocity: 0
@103521 , @5.458592781007752 Channel: 0 
Note on, F5 key =  77;WhichDrum: HH ; velocity: 127
@103601 , @5.4628111272609825 Channel: 0 
Note on, F5 key =  77;WhichDrum: HH ; velocity: 0
@103601 , @5.4628111272609825 Channel: 0 
Note on, F5 key =  77;WhichDrum: HH ; velocity: 127
@103681 , @5.467029473514212 Channel: 0 
Note on, F5 key =  77;WhichDrum: HH ; velocity: 0
@103681 , @5.467029473514212 Channel: 0 
Note on, E5 key =  76;WhichDrum: S ; velocity: 127
@103801 , @5.473356992894057 Channel: 0 
Note on, E5 key =  76;WhichDrum: S ; velocity: 0
@104641 , @5.517649628552972 Channel: 0 
Note on, D5 key =  74;WhichDrum: T2 ; velocity: 127
@104701 , @5.520813388242894 Channel: 0 
Note on, D5 key =  74;WhichDrum: T2 ; velocity: 0
@104701 , @5.520813388242894 Channel: 0 
Note on, E5 key =  76;WhichDrum: S ; velocity: 127
@105241 , @5.549287225452197 Channel: 0 
Note on, E5 key =  76;WhichDrum: S ; velocity: 0
@105361 , @5.555614744832042 Channel: 0 
Note on, F5 key =  77;WhichDrum: HH ; velocity: 127
@105441 , @5.559833091085271 Channel: 0 
Note on, F5 key =  77;WhichDrum: HH ; velocity: 0
@105441 , @5.559833091085271 Channel: 0 
Note on, F5 key =  77;WhichDrum: HH ; velocity: 127
@105521 , @5.5640514373385015 Channel: 0 
Note on, F5 key =  77;WhichDrum: HH ; velocity: 0
@105521 , @5.5640514373385015 Channel: 0 
Note on, F5 key =  77;WhichDrum: HH ; velocity: 127
@105601 , @5.568269783591732 Channel: 0 
Note on, F5 key =  77;WhichDrum: HH ; velocity: 0
@105601 , @5.568269783591732 Channel: 0 
Note on, E5 key =  76;WhichDrum: S ; velocity: 127
@106141 , @5.596743620801034 Channel: 0 
Note on, E5 key =  76;WhichDrum: S ; velocity: 0
@106141 , @5.596743620801034 Channel: 0 
Note on, B4 key =  71;WhichDrum: T1 ; velocity: 75
@106201 , @5.599907380490956 Channel: 0 
Note on, B4 key =  71;WhichDrum: T1 ; velocity: 0
@106201 , @5.599907380490956 Channel: 0 
Note on, B4 key =  71;WhichDrum: T1 ; velocity: 75
@106261 , @5.603071140180879 Channel: 0 
Note on, B4 key =  71;WhichDrum: T1 ; velocity: 0
@106261 , @5.603071140180879 Channel: 0 
Note on, B4 key =  71;WhichDrum: T1 ; velocity: 75
@106321 , @5.606234899870802 Channel: 0 
Note on, B4 key =  71;WhichDrum: T1 ; velocity: 0
@106321 , @5.606234899870802 Channel: 0 
Note on, B4 key =  71;WhichDrum: T1 ; velocity: 75
@106441 , @5.612562419250646 Channel: 0 
Note on, B4 key =  71;WhichDrum: T1 ; velocity: 0
@106441 , @5.612562419250646 Other Message: class javax.sound.midi.Track$ImmutableEndOfTrack

Track 3: size = 4221
@0 , @0.0 Other Message: class javax.sound.midi.MetaMessage

@0 , @0.0 Other Message: class javax.sound.midi.MetaMessage

@0 , @0.0 Channel: 1 
Command: 192

@0 , @0.0 Channel: 1 
Command: 176

@0 , @0.0 Channel: 1 
Command: 176

@0 , @0.0 Channel: 1 
Note on, A2 key =  45;WhichDrum: T3 ; velocity: 127
@60 , @0.0031637596899224806 Channel: 1 
Note on, A2 key =  45;WhichDrum: T3 ; velocity: 0
@60 , @0.0031637596899224806 Channel: 1 
Note on, A2 key =  45;WhichDrum: T3 ; velocity: 127
@120 , @0.006327519379844961 Channel: 1 
Note on, A2 key =  45;WhichDrum: T3 ; velocity: 0
@120 , @0.006327519379844961 Channel: 1 
Note on, D4 key =  62;WhichDrum: T2 ; velocity: 127
@150 , @0.007909399224806202 Channel: 1 
Note on, D4 key =  62;WhichDrum: T2 ; velocity: 0
@150 , @0.007909399224806202 Channel: 1 
Note on, D#4 key =  63;WhichDrum: T1 ; velocity: 127
@180 , @0.009491279069767442 Channel: 1 
Note on, D#4 key =  63;WhichDrum: T1 ; velocity: 0
@180 , @0.009491279069767442 Channel: 1 
Note on, D4 key =  62;WhichDrum: T2 ; velocity: 127
@300 , @0.015818798449612405 Channel: 1 
Note on, D4 key =  62;WhichDrum: T2 ; velocity: 0
@300 , @0.015818798449612405 Channel: 1 
Note on, A2 key =  45;WhichDrum: T3 ; velocity: 127
@360 , @0.018982558139534884 Channel: 1 
Note on, A2 key =  45;WhichDrum: T3 ; velocity: 0
@360 , @0.018982558139534884 Channel: 1 
Note on, A3 key =  57;WhichDrum: T3 ; velocity: 127
@390 , @0.020564437984496125 Channel: 1 
Note on, A3 key =  57;WhichDrum: T3 ; velocity: 0
@390 , @0.020564437984496125 Channel: 1 
Note on, A#3 key =  58;WhichDrum: T2 ; velocity: 127
@420 , @0.022146317829457366 Channel: 1 
Note on, A#3 key =  58;WhichDrum: T2 ; velocity: 0
@420 , @0.022146317829457366 Channel: 1 
Note on, A3 key =  57;WhichDrum: T3 ; velocity: 127
@540 , @0.028473837209302327 Channel: 1 
Note on, A3 key =  57;WhichDrum: T3 ; velocity: 0
@540 , @0.028473837209302327 Channel: 1 
Note on, A2 key =  45;WhichDrum: T3 ; velocity: 127
@600 , @0.03163759689922481 Channel: 1 
Note on, A2 key =  45;WhichDrum: T3 ; velocity: 0
@600 , @0.03163759689922481 Channel: 1 
Note on, F3 key =  53;WhichDrum: HH ; velocity: 127
@660 , @0.034801356589147285 Channel: 1 
Note on, F3 key =  53;WhichDrum: HH ; velocity: 0
@660 , @0.034801356589147285 Channel: 1 
Note on, E3 key =  52;WhichDrum: S ; velocity: 127
@720 , @0.03796511627906977 Channel: 1 
Note on, E3 key =  52;WhichDrum: S ; velocity: 0
@720 , @0.03796511627906977 Channel: 1 
Note on, G3 key =  55;WhichDrum: C2 ; velocity: 127
@780 , @0.04112887596899225 Channel: 1 
Note on, G3 key =  55;WhichDrum: C2 ; velocity: 0
@780 , @0.04112887596899225 Channel: 1 
Note on, E3 key =  52;WhichDrum: S ; velocity: 127
@840 , @0.04429263565891473 Channel: 1 
Note on, E3 key =  52;WhichDrum: S ; velocity: 0
@840 , @0.04429263565891473 Channel: 1 
Note on, C4 key =  60;WhichDrum: B ; velocity: 127
@900 , @0.04745639534883721 Channel: 1 
Note on, C4 key =  60;WhichDrum: B ; velocity: 0
@900 , @0.04745639534883721 Channel: 1 
Note on, A3 key =  57;WhichDrum: T3 ; velocity: 127
@960 , @0.05062015503875969 Channel: 1 
Note on, A3 key =  57;WhichDrum: T3 ; velocity: 0
@960 , @0.05062015503875969 Channel: 1 
Note on, A2 key =  45;WhichDrum: T3 ; velocity: 127
@1020 , @0.05378391472868218 Channel: 1 
Note on, A2 key =  45;WhichDrum: T3 ; velocity: 0
@1020 , @0.05378391472868218 Channel: 1 
Note on, A2 key =  45;WhichDrum: T3 ; velocity: 127
@1080 , @0.056947674418604655 Channel: 1 
Note on, A2 key =  45;WhichDrum: T3 ; velocity: 0
@1080 , @0.056947674418604655 Channel: 1 
Note on, D4 key =  62;WhichDrum: T2 ; velocity: 127
@1110 , @0.058529554263565896 Channel: 1 
Note on, D4 key =  62;WhichDrum: T2 ; velocity: 0
@1110 , @0.058529554263565896 Channel: 1 
Note on, D#4 key =  63;WhichDrum: T1 ; velocity: 127
@1140 , @0.06011143410852714 Channel: 1 
Note on, D#4 key =  63;WhichDrum: T1 ; velocity: 0
@1140 , @0.06011143410852714 Channel: 1 
Note on, D4 key =  62;WhichDrum: T2 ; velocity: 127
@1260 , @0.0664389534883721 Channel: 1 
Note on, D4 key =  62;WhichDrum: T2 ; velocity: 0
@1260 , @0.0664389534883721 Channel: 1 
Note on, A2 key =  45;WhichDrum: T3 ; velocity: 127
@1320 , @0.06960271317829457 Channel: 1 
Note on, A2 key =  45;WhichDrum: T3 ; velocity: 0
@1320 , @0.06960271317829457 Channel: 1 
Note on, A3 key =  57;WhichDrum: T3 ; velocity: 127
@1350 , @0.07118459302325582 Channel: 1 
Note on, A3 key =  57;WhichDrum: T3 ; velocity: 0
@1350 , @0.07118459302325582 Channel: 1 
Note on, A#3 key =  58;WhichDrum: T2 ; velocity: 127
@1380 , @0.07276647286821707 Channel: 1 
Note on, A#3 key =  58;WhichDrum: T2 ; velocity: 0
@1380 , @0.07276647286821707 Channel: 1 
Note on, A3 key =  57;WhichDrum: T3 ; velocity: 127
@1500 , @0.07909399224806202 Channel: 1 
Note on, A3 key =  57;WhichDrum: T3 ; velocity: 0
@1500 , @0.07909399224806202 Channel: 1 
Note on, A2 key =  45;WhichDrum: T3 ; velocity: 127
@1560 , @0.0822577519379845 Channel: 1 
Note on, A2 key =  45;WhichDrum: T3 ; velocity: 0
@1560 , @0.0822577519379845 Channel: 1 
Note on, F3 key =  53;WhichDrum: HH ; velocity: 127
@1620 , @0.08542151162790698 Channel: 1 
Note on, F3 key =  53;WhichDrum: HH ; velocity: 0
@1620 , @0.08542151162790698 Channel: 1 
Note on, E3 key =  52;WhichDrum: S ; velocity: 127
@1680 , @0.08858527131782946 Channel: 1 
Note on, E3 key =  52;WhichDrum: S ; velocity: 0
@1680 , @0.08858527131782946 Channel: 1 
Note on, G3 key =  55;WhichDrum: C2 ; velocity: 127
@1740 , @0.09174903100775195 Channel: 1 
Note on, G3 key =  55;WhichDrum: C2 ; velocity: 0
@1740 , @0.09174903100775195 Channel: 1 
Note on, E3 key =  52;WhichDrum: S ; velocity: 127
@1800 , @0.09491279069767442 Channel: 1 
Note on, E3 key =  52;WhichDrum: S ; velocity: 0
@1800 , @0.09491279069767442 Channel: 1 
Note on, C4 key =  60;WhichDrum: B ; velocity: 127
@1860 , @0.09807655038759691 Channel: 1 
Note on, C4 key =  60;WhichDrum: B ; velocity: 0
@1860 , @0.09807655038759691 Channel: 1 
Note on, A3 key =  57;WhichDrum: T3 ; velocity: 127
@1920 , @0.10124031007751938 Channel: 1 
Note on, A3 key =  57;WhichDrum: T3 ; velocity: 0
@1920 , @0.10124031007751938 Channel: 1 
Note on, A2 key =  45;WhichDrum: T3 ; velocity: 127
@1980 , @0.10440406976744186 Channel: 1 
Note on, A2 key =  45;WhichDrum: T3 ; velocity: 0
@1980 , @0.10440406976744186 Channel: 1 
Note on, A2 key =  45;WhichDrum: T3 ; velocity: 127
@2040 , @0.10756782945736436 Channel: 1 
Note on, A2 key =  45;WhichDrum: T3 ; velocity: 0
@2040 , @0.10756782945736436 Channel: 1 
Note on, D4 key =  62;WhichDrum: T2 ; velocity: 127
@2070 , @0.10914970930232558 Channel: 1 
Note on, D4 key =  62;WhichDrum: T2 ; velocity: 0
@2070 , @0.10914970930232558 Channel: 1 
Note on, D#4 key =  63;WhichDrum: T1 ; velocity: 127
@2100 , @0.11073158914728681 Channel: 1 
Note on, D#4 key =  63;WhichDrum: T1 ; velocity: 0
@2100 , @0.11073158914728681 Channel: 1 
Note on, D4 key =  62;WhichDrum: T2 ; velocity: 127
@2220 , @0.11705910852713179 Channel: 1 
Note on, D4 key =  62;WhichDrum: T2 ; velocity: 0
@2220 , @0.11705910852713179 Channel: 1 
Note on, A2 key =  45;WhichDrum: T3 ; velocity: 127
@2280 , @0.12022286821705427 Channel: 1 
Note on, A2 key =  45;WhichDrum: T3 ; velocity: 0
@2280 , @0.12022286821705427 Channel: 1 
Note on, A3 key =  57;WhichDrum: T3 ; velocity: 127
@2310 , @0.1218047480620155 Channel: 1 
Note on, A3 key =  57;WhichDrum: T3 ; velocity: 0
@2310 , @0.1218047480620155 Channel: 1 
Note on, A#3 key =  58;WhichDrum: T2 ; velocity: 127
@2340 , @0.12338662790697674 Channel: 1 
Note on, A#3 key =  58;WhichDrum: T2 ; velocity: 0
@2340 , @0.12338662790697674 Channel: 1 
Note on, A3 key =  57;WhichDrum: T3 ; velocity: 127
@2460 , @0.1297141472868217 Channel: 1 
Note on, A3 key =  57;WhichDrum: T3 ; velocity: 0
@2460 , @0.1297141472868217 Channel: 1 
Note on, A2 key =  45;WhichDrum: T3 ; velocity: 127
@2520 , @0.1328779069767442 Channel: 1 
Note on, A2 key =  45;WhichDrum: T3 ; velocity: 0
@2520 , @0.1328779069767442 Channel: 1 
Note on, F3 key =  53;WhichDrum: HH ; velocity: 127
@2580 , @0.13604166666666667 Channel: 1 
Note on, F3 key =  53;WhichDrum: HH ; velocity: 0
@2580 , @0.13604166666666667 Channel: 1 
Note on, E3 key =  52;WhichDrum: S ; velocity: 127
@2640 , @0.13920542635658914 Channel: 1 
Note on, E3 key =  52;WhichDrum: S ; velocity: 0
@2640 , @0.13920542635658914 Channel: 1 
Note on, G3 key =  55;WhichDrum: C2 ; velocity: 127
@2700 , @0.14236918604651164 Channel: 1 
Note on, G3 key =  55;WhichDrum: C2 ; velocity: 0
@2700 , @0.14236918604651164 Channel: 1 
Note on, E3 key =  52;WhichDrum: S ; velocity: 127
@2760 , @0.14553294573643413 Channel: 1 
Note on, E3 key =  52;WhichDrum: S ; velocity: 0
@2760 , @0.14553294573643413 Channel: 1 
Note on, C4 key =  60;WhichDrum: B ; velocity: 127
@2820 , @0.14869670542635657 Channel: 1 
Note on, C4 key =  60;WhichDrum: B ; velocity: 0
@2820 , @0.14869670542635657 Channel: 1 
Note on, A3 key =  57;WhichDrum: T3 ; velocity: 127
@2880 , @0.15186046511627907 Channel: 1 
Note on, A3 key =  57;WhichDrum: T3 ; velocity: 0
@2880 , @0.15186046511627907 Channel: 1 
Note on, A2 key =  45;WhichDrum: T3 ; velocity: 127
@2940 , @0.15502422480620157 Channel: 1 
Note on, A2 key =  45;WhichDrum: T3 ; velocity: 0
@2940 , @0.15502422480620157 Channel: 1 
Note on, A2 key =  45;WhichDrum: T3 ; velocity: 127
@3000 , @0.15818798449612403 Channel: 1 
Note on, A2 key =  45;WhichDrum: T3 ; velocity: 0
@3000 , @0.15818798449612403 Channel: 1 
Note on, D4 key =  62;WhichDrum: T2 ; velocity: 127
@3030 , @0.15976986434108525 Channel: 1 
Note on, D4 key =  62;WhichDrum: T2 ; velocity: 0
@3030 , @0.15976986434108525 Channel: 1 
Note on, D#4 key =  63;WhichDrum: T1 ; velocity: 127
@3060 , @0.1613517441860465 Channel: 1 
Note on, D#4 key =  63;WhichDrum: T1 ; velocity: 0
@3060 , @0.1613517441860465 Channel: 1 
Note on, D4 key =  62;WhichDrum: T2 ; velocity: 127
@3180 , @0.1676792635658915 Channel: 1 
Note on, D4 key =  62;WhichDrum: T2 ; velocity: 0
@3180 , @0.1676792635658915 Channel: 1 
Note on, A2 key =  45;WhichDrum: T3 ; velocity: 127
@3240 , @0.17084302325581396 Channel: 1 
Note on, A2 key =  45;WhichDrum: T3 ; velocity: 0
@3240 , @0.17084302325581396 Channel: 1 
Note on, A3 key =  57;WhichDrum: T3 ; velocity: 127
@3270 , @0.17242490310077518 Channel: 1 
Note on, A3 key =  57;WhichDrum: T3 ; velocity: 0
@3270 , @0.17242490310077518 Channel: 1 
Note on, A#3 key =  58;WhichDrum: T2 ; velocity: 127
@3300 , @0.17400678294573643 Channel: 1 
Note on, A#3 key =  58;WhichDrum: T2 ; velocity: 0
@3300 , @0.17400678294573643 Channel: 1 
Note on, A3 key =  57;WhichDrum: T3 ; velocity: 127
@3420 , @0.1803343023255814 Channel: 1 
Note on, A3 key =  57;WhichDrum: T3 ; velocity: 0
@3420 , @0.1803343023255814 Channel: 1 
Note on, A2 key =  45;WhichDrum: T3 ; velocity: 127
@3480 , @0.1834980620155039 Channel: 1 
Note on, A2 key =  45;WhichDrum: T3 ; velocity: 0
@3480 , @0.1834980620155039 Channel: 1 
Note on, F3 key =  53;WhichDrum: HH ; velocity: 127
@3540 , @0.18666182170542636 Channel: 1 
Note on, F3 key =  53;WhichDrum: HH ; velocity: 0
@3540 , @0.18666182170542636 Channel: 1 
Note on, E3 key =  52;WhichDrum: S ; velocity: 127
@3600 , @0.18982558139534883 Channel: 1 
Note on, E3 key =  52;WhichDrum: S ; velocity: 0
@3600 , @0.18982558139534883 Channel: 1 
Note on, G3 key =  55;WhichDrum: C2 ; velocity: 127
@3660 , @0.19298934108527133 Channel: 1 
Note on, G3 key =  55;WhichDrum: C2 ; velocity: 0
@3660 , @0.19298934108527133 Channel: 1 
Note on, E3 key =  52;WhichDrum: S ; velocity: 127
@3720 , @0.19615310077519382 Channel: 1 
Note on, E3 key =  52;WhichDrum: S ; velocity: 0
@3720 , @0.19615310077519382 Channel: 1 
Note on, C4 key =  60;WhichDrum: B ; velocity: 127
@3780 , @0.1993168604651163 Channel: 1 
Note on, C4 key =  60;WhichDrum: B ; velocity: 0
@3780 , @0.1993168604651163 Channel: 1 
Note on, A3 key =  57;WhichDrum: T3 ; velocity: 127
@3840 , @0.20248062015503876 Channel: 1 
Note on, A3 key =  57;WhichDrum: T3 ; velocity: 0
@3840 , @0.20248062015503876 Channel: 1 
Note on, A2 key =  45;WhichDrum: T3 ; velocity: 127
@3900 , @0.20564437984496126 Channel: 1 
Note on, A2 key =  45;WhichDrum: T3 ; velocity: 0
@3900 , @0.20564437984496126 Channel: 1 
Note on, A2 key =  45;WhichDrum: T3 ; velocity: 127
@3960 , @0.20880813953488372 Channel: 1 
Note on, A2 key =  45;WhichDrum: T3 ; velocity: 0
@3960 , @0.20880813953488372 Channel: 1 
Note on, D4 key =  62;WhichDrum: T2 ; velocity: 127
@3990 , @0.21039001937984497 Channel: 1 
Note on, D4 key =  62;WhichDrum: T2 ; velocity: 0
@3990 , @0.21039001937984497 Channel: 1 
Note on, D#4 key =  63;WhichDrum: T1 ; velocity: 127
@4020 , @0.21197189922480622 Channel: 1 
Note on, D#4 key =  63;WhichDrum: T1 ; velocity: 0
@4020 , @0.21197189922480622 Channel: 1 
Note on, D4 key =  62;WhichDrum: T2 ; velocity: 127
@4140 , @0.21829941860465116 Channel: 1 
Note on, D4 key =  62;WhichDrum: T2 ; velocity: 0
@4140 , @0.21829941860465116 Channel: 1 
Note on, A2 key =  45;WhichDrum: T3 ; velocity: 127
@4200 , @0.22146317829457363 Channel: 1 
Note on, A2 key =  45;WhichDrum: T3 ; velocity: 0
@4200 , @0.22146317829457363 Channel: 1 
Note on, A3 key =  57;WhichDrum: T3 ; velocity: 127
@4230 , @0.22304505813953487 Channel: 1 
Note on, A3 key =  57;WhichDrum: T3 ; velocity: 0
@4230 , @0.22304505813953487 Channel: 1 
Note on, A#3 key =  58;WhichDrum: T2 ; velocity: 127
@4260 , @0.22462693798449612 Channel: 1 
Note on, A#3 key =  58;WhichDrum: T2 ; velocity: 0
@4260 , @0.22462693798449612 Channel: 1 
Note on, A3 key =  57;WhichDrum: T3 ; velocity: 127
@4380 , @0.2309544573643411 Channel: 1 
Note on, A3 key =  57;WhichDrum: T3 ; velocity: 0
@4380 , @0.2309544573643411 Channel: 1 
Note on, A2 key =  45;WhichDrum: T3 ; velocity: 127
@4440 , @0.23411821705426358 Channel: 1 
Note on, A2 key =  45;WhichDrum: T3 ; velocity: 0
@4440 , @0.23411821705426358 Channel: 1 
Note on, F3 key =  53;WhichDrum: HH ; velocity: 127
@4500 , @0.23728197674418608 Channel: 1 
Note on, F3 key =  53;WhichDrum: HH ; velocity: 0
@4500 , @0.23728197674418608 Channel: 1 
Note on, E3 key =  52;WhichDrum: S ; velocity: 127
@4560 , @0.24044573643410855 Channel: 1 
Note on, E3 key =  52;WhichDrum: S ; velocity: 0
@4560 , @0.24044573643410855 Channel: 1 
Note on, G3 key =  55;WhichDrum: C2 ; velocity: 127
@4620 , @0.243609496124031 Channel: 1 
Note on, G3 key =  55;WhichDrum: C2 ; velocity: 0
@4620 , @0.243609496124031 Channel: 1 
Note on, E3 key =  52;WhichDrum: S ; velocity: 127
@4680 , @0.24677325581395348 Channel: 1 
Note on, E3 key =  52;WhichDrum: S ; velocity: 0
@4680 , @0.24677325581395348 Channel: 1 
Note on, C4 key =  60;WhichDrum: B ; velocity: 127
@4740 , @0.24993701550387598 Channel: 1 
Note on, C4 key =  60;WhichDrum: B ; velocity: 0
@4740 , @0.24993701550387598 Channel: 1 
Note on, A3 key =  57;WhichDrum: T3 ; velocity: 127
@4800 , @0.2531007751937985 Channel: 1 
Note on, A3 key =  57;WhichDrum: T3 ; velocity: 0
@4800 , @0.2531007751937985 Channel: 1 
Note on, A2 key =  45;WhichDrum: T3 ; velocity: 127
@4860 , @0.2562645348837209 Channel: 1 
Note on, A2 key =  45;WhichDrum: T3 ; velocity: 0
@4860 , @0.2562645348837209 Channel: 1 
Note on, A2 key =  45;WhichDrum: T3 ; velocity: 127
@4920 , @0.2594282945736434 Channel: 1 
Note on, A2 key =  45;WhichDrum: T3 ; velocity: 0
@4920 , @0.2594282945736434 Channel: 1 
Note on, D4 key =  62;WhichDrum: T2 ; velocity: 127
@4950 , @0.2610101744186047 Channel: 1 
Note on, D4 key =  62;WhichDrum: T2 ; velocity: 0
@4950 , @0.2610101744186047 Channel: 1 
Note on, D#4 key =  63;WhichDrum: T1 ; velocity: 127
@4980 , @0.2625920542635659 Channel: 1 
Note on, D#4 key =  63;WhichDrum: T1 ; velocity: 0
@4980 , @0.2625920542635659 Channel: 1 
Note on, D4 key =  62;WhichDrum: T2 ; velocity: 127
@5100 , @0.26891957364341085 Channel: 1 
Note on, D4 key =  62;WhichDrum: T2 ; velocity: 0
@5100 , @0.26891957364341085 Channel: 1 
Note on, A2 key =  45;WhichDrum: T3 ; velocity: 127
@5160 , @0.27208333333333334 Channel: 1 
Note on, A2 key =  45;WhichDrum: T3 ; velocity: 0
@5160 , @0.27208333333333334 Channel: 1 
Note on, A3 key =  57;WhichDrum: T3 ; velocity: 127
@5190 , @0.27366521317829456 Channel: 1 
Note on, A3 key =  57;WhichDrum: T3 ; velocity: 0
@5190 , @0.27366521317829456 Channel: 1 
Note on, A#3 key =  58;WhichDrum: T2 ; velocity: 127
@5220 , @0.27524709302325584 Channel: 1 
Note on, A#3 key =  58;WhichDrum: T2 ; velocity: 0
@5220 , @0.27524709302325584 Channel: 1 
Note on, A3 key =  57;WhichDrum: T3 ; velocity: 127
@5340 , @0.2815746124031008 Channel: 1 
Note on, A3 key =  57;WhichDrum: T3 ; velocity: 0
@5340 , @0.2815746124031008 Channel: 1 
Note on, A2 key =  45;WhichDrum: T3 ; velocity: 127
@5400 , @0.2847383720930233 Channel: 1 
Note on, A2 key =  45;WhichDrum: T3 ; velocity: 0
@5400 , @0.2847383720930233 Channel: 1 
Note on, F3 key =  53;WhichDrum: HH ; velocity: 127
@5460 , @0.28790213178294577 Channel: 1 
Note on, F3 key =  53;WhichDrum: HH ; velocity: 0
@5460 , @0.28790213178294577 Channel: 1 
Note on, E3 key =  52;WhichDrum: S ; velocity: 127
@5520 , @0.29106589147286827 Channel: 1 
Note on, E3 key =  52;WhichDrum: S ; velocity: 0
@5520 , @0.29106589147286827 Channel: 1 
Note on, G3 key =  55;WhichDrum: C2 ; velocity: 127
@5580 , @0.2942296511627907 Channel: 1 
Note on, G3 key =  55;WhichDrum: C2 ; velocity: 0
@5580 , @0.2942296511627907 Channel: 1 
Note on, E3 key =  52;WhichDrum: S ; velocity: 127
@5640 , @0.29739341085271315 Channel: 1 
Note on, E3 key =  52;WhichDrum: S ; velocity: 0
@5640 , @0.29739341085271315 Channel: 1 
Note on, C4 key =  60;WhichDrum: B ; velocity: 127
@5700 , @0.30055717054263564 Channel: 1 
Note on, C4 key =  60;WhichDrum: B ; velocity: 0
@5700 , @0.30055717054263564 Channel: 1 
Note on, A3 key =  57;WhichDrum: T3 ; velocity: 127
@5760 , @0.30372093023255814 Channel: 1 
Note on, A3 key =  57;WhichDrum: T3 ; velocity: 0
@5760 , @0.30372093023255814 Channel: 1 
Note on, A2 key =  45;WhichDrum: T3 ; velocity: 127
@5820 , @0.30688468992248064 Channel: 1 
Note on, A2 key =  45;WhichDrum: T3 ; velocity: 0
@5820 , @0.30688468992248064 Channel: 1 
Note on, A2 key =  45;WhichDrum: T3 ; velocity: 127
@5880 , @0.31004844961240313 Channel: 1 
Note on, A2 key =  45;WhichDrum: T3 ; velocity: 0
@5880 , @0.31004844961240313 Channel: 1 
Note on, D4 key =  62;WhichDrum: T2 ; velocity: 127
@5910 , @0.31163032945736435 Channel: 1 
Note on, D4 key =  62;WhichDrum: T2 ; velocity: 0
@5910 , @0.31163032945736435 Channel: 1 
Note on, D#4 key =  63;WhichDrum: T1 ; velocity: 127
@5940 , @0.31321220930232563 Channel: 1 
Note on, D#4 key =  63;WhichDrum: T1 ; velocity: 0
@5940 , @0.31321220930232563 Channel: 1 
Note on, D4 key =  62;WhichDrum: T2 ; velocity: 127
@6060 , @0.3195397286821705 Channel: 1 
Note on, D4 key =  62;WhichDrum: T2 ; velocity: 0
@6060 , @0.3195397286821705 Channel: 1 
Note on, A2 key =  45;WhichDrum: T3 ; velocity: 127
@6120 , @0.322703488372093 Channel: 1 
Note on, A2 key =  45;WhichDrum: T3 ; velocity: 0
@6120 , @0.322703488372093 Channel: 1 
Note on, A3 key =  57;WhichDrum: T3 ; velocity: 127
@6150 , @0.3242853682170543 Channel: 1 
Note on, A3 key =  57;WhichDrum: T3 ; velocity: 0
@6150 , @0.3242853682170543 Channel: 1 
Note on, A#3 key =  58;WhichDrum: T2 ; velocity: 127
@6180 , @0.3258672480620155 Channel: 1 
Note on, A#3 key =  58;WhichDrum: T2 ; velocity: 0
@6180 , @0.3258672480620155 Channel: 1 
Note on, A3 key =  57;WhichDrum: T3 ; velocity: 127
@6300 , @0.3321947674418605 Channel: 1 
Note on, A3 key =  57;WhichDrum: T3 ; velocity: 0
@6300 , @0.3321947674418605 Channel: 1 
Note on, A2 key =  45;WhichDrum: T3 ; velocity: 127
@6360 , @0.335358527131783 Channel: 1 
Note on, A2 key =  45;WhichDrum: T3 ; velocity: 0
@6360 , @0.335358527131783 Channel: 1 
Note on, F3 key =  53;WhichDrum: HH ; velocity: 127
@6420 , @0.33852228682170543 Channel: 1 
Note on, F3 key =  53;WhichDrum: HH ; velocity: 0
@6420 , @0.33852228682170543 Channel: 1 
Note on, E3 key =  52;WhichDrum: S ; velocity: 127
@6480 , @0.3416860465116279 Channel: 1 
Note on, E3 key =  52;WhichDrum: S ; velocity: 0
@6480 , @0.3416860465116279 Channel: 1 
Note on, G3 key =  55;WhichDrum: C2 ; velocity: 127
@6540 , @0.34484980620155037 Channel: 1 
Note on, G3 key =  55;WhichDrum: C2 ; velocity: 0
@6540 , @0.34484980620155037 Channel: 1 
Note on, E3 key =  52;WhichDrum: S ; velocity: 127
@6600 , @0.34801356589147286 Channel: 1 
Note on, E3 key =  52;WhichDrum: S ; velocity: 0
@6600 , @0.34801356589147286 Channel: 1 
Note on, C4 key =  60;WhichDrum: B ; velocity: 127
@6660 , @0.35117732558139536 Channel: 1 
Note on, C4 key =  60;WhichDrum: B ; velocity: 0
@6660 , @0.35117732558139536 Channel: 1 
Note on, A3 key =  57;WhichDrum: T3 ; velocity: 127
@6720 , @0.35434108527131786 Channel: 1 
Note on, A3 key =  57;WhichDrum: T3 ; velocity: 0
@6720 , @0.35434108527131786 Channel: 1 
Note on, A2 key =  45;WhichDrum: T3 ; velocity: 127
@6780 , @0.3575048449612403 Channel: 1 
Note on, A2 key =  45;WhichDrum: T3 ; velocity: 0
@6780 , @0.3575048449612403 Channel: 1 
Note on, A2 key =  45;WhichDrum: T3 ; velocity: 127
@6840 , @0.3606686046511628 Channel: 1 
Note on, A2 key =  45;WhichDrum: T3 ; velocity: 0
@6840 , @0.3606686046511628 Channel: 1 
Note on, D4 key =  62;WhichDrum: T2 ; velocity: 127
@6870 , @0.36225048449612407 Channel: 1 
Note on, D4 key =  62;WhichDrum: T2 ; velocity: 0
@6870 , @0.36225048449612407 Channel: 1 
Note on, D#4 key =  63;WhichDrum: T1 ; velocity: 127
@6900 , @0.3638323643410853 Channel: 1 
Note on, D#4 key =  63;WhichDrum: T1 ; velocity: 0
@6900 , @0.3638323643410853 Channel: 1 
Note on, D4 key =  62;WhichDrum: T2 ; velocity: 127
@7020 , @0.3701598837209302 Channel: 1 
Note on, D4 key =  62;WhichDrum: T2 ; velocity: 0
@7020 , @0.3701598837209302 Channel: 1 
Note on, A2 key =  45;WhichDrum: T3 ; velocity: 127
@7080 , @0.3733236434108527 Channel: 1 
Note on, A2 key =  45;WhichDrum: T3 ; velocity: 0
@7080 , @0.3733236434108527 Channel: 1 
Note on, A3 key =  57;WhichDrum: T3 ; velocity: 127
@7110 , @0.37490552325581394 Channel: 1 
Note on, A3 key =  57;WhichDrum: T3 ; velocity: 0
@7110 , @0.37490552325581394 Channel: 1 
Note on, A#3 key =  58;WhichDrum: T2 ; velocity: 127
@7140 , @0.3764874031007752 Channel: 1 
Note on, A#3 key =  58;WhichDrum: T2 ; velocity: 0
@7140 , @0.3764874031007752 Channel: 1 
Note on, A3 key =  57;WhichDrum: T3 ; velocity: 127
@7260 , @0.38281492248062016 Channel: 1 
Note on, A3 key =  57;WhichDrum: T3 ; velocity: 0
@7260 , @0.38281492248062016 Channel: 1 
Note on, A2 key =  45;WhichDrum: T3 ; velocity: 127
@7320 , @0.38597868217054265 Channel: 1 
Note on, A2 key =  45;WhichDrum: T3 ; velocity: 0
@7320 , @0.38597868217054265 Channel: 1 
Note on, F3 key =  53;WhichDrum: HH ; velocity: 127
@7380 , @0.38914244186046515 Channel: 1 
Note on, F3 key =  53;WhichDrum: HH ; velocity: 0
@7380 , @0.38914244186046515 Channel: 1 
Note on, E3 key =  52;WhichDrum: S ; velocity: 127
@7440 , @0.39230620155038765 Channel: 1 
Note on, E3 key =  52;WhichDrum: S ; velocity: 0
@7440 , @0.39230620155038765 Channel: 1 
Note on, G3 key =  55;WhichDrum: C2 ; velocity: 127
@7500 , @0.3954699612403101 Channel: 1 
Note on, G3 key =  55;WhichDrum: C2 ; velocity: 0
@7500 , @0.3954699612403101 Channel: 1 
Note on, E3 key =  52;WhichDrum: S ; velocity: 127
@7560 , @0.3986337209302326 Channel: 1 
Note on, E3 key =  52;WhichDrum: S ; velocity: 0
@7560 , @0.3986337209302326 Channel: 1 
Note on, C4 key =  60;WhichDrum: B ; velocity: 127
@7620 , @0.401797480620155 Channel: 1 
Note on, C4 key =  60;WhichDrum: B ; velocity: 0
@7620 , @0.401797480620155 Channel: 1 
Note on, A3 key =  57;WhichDrum: T3 ; velocity: 127
@7680 , @0.4049612403100775 Channel: 1 
Note on, A3 key =  57;WhichDrum: T3 ; velocity: 0
@7680 , @0.4049612403100775 Channel: 1 
Note on, E4 key =  64;WhichDrum: S ; velocity: 127
@7740 , @0.408125 Channel: 1 
Note on, E4 key =  64;WhichDrum: S ; velocity: 0
@7740 , @0.408125 Channel: 1 
Note on, D4 key =  62;WhichDrum: T2 ; velocity: 127
@7800 , @0.4112887596899225 Channel: 1 
Note on, D4 key =  62;WhichDrum: T2 ; velocity: 0
@7800 , @0.4112887596899225 Channel: 1 
Note on, B3 key =  59;WhichDrum: T1 ; velocity: 127
@7860 , @0.414452519379845 Channel: 1 
Note on, B3 key =  59;WhichDrum: T1 ; velocity: 0
@7860 , @0.414452519379845 Channel: 1 
Note on, D4 key =  62;WhichDrum: T2 ; velocity: 127
@7920 , @0.41761627906976745 Channel: 1 
Note on, D4 key =  62;WhichDrum: T2 ; velocity: 0
@7920 , @0.41761627906976745 Channel: 1 
Note on, B3 key =  59;WhichDrum: T1 ; velocity: 127
@7980 , @0.42078003875968994 Channel: 1 
Note on, B3 key =  59;WhichDrum: T1 ; velocity: 0
@7980 , @0.42078003875968994 Channel: 1 
Note on, A#3 key =  58;WhichDrum: T2 ; velocity: 127
@8040 , @0.42394379844961244 Channel: 1 
Note on, A#3 key =  58;WhichDrum: T2 ; velocity: 0
@8040 , @0.42394379844961244 Channel: 1 
Note on, A3 key =  57;WhichDrum: T3 ; velocity: 127
@8100 , @0.42710755813953494 Channel: 1 
Note on, A3 key =  57;WhichDrum: T3 ; velocity: 0
@8100 , @0.42710755813953494 Channel: 1 
Note on, G3 key =  55;WhichDrum: C2 ; velocity: 127
@8160 , @0.43027131782945743 Channel: 1 
Note on, G3 key =  55;WhichDrum: C2 ; velocity: 0
@8160 , @0.43027131782945743 Channel: 1 
Note on, E2 key =  40;WhichDrum: S ; velocity: 127
@8220 , @0.43343507751937993 Channel: 1 
Note on, E2 key =  40;WhichDrum: S ; velocity: 0
@8220 , @0.43343507751937993 Channel: 1 
Note on, E2 key =  40;WhichDrum: S ; velocity: 127
@8280 , @0.4365988372093023 Channel: 1 
Note on, E2 key =  40;WhichDrum: S ; velocity: 0
@8280 , @0.4365988372093023 Channel: 1 
Note on, E2 key =  40;WhichDrum: S ; velocity: 127
@8340 , @0.4397625968992248 Channel: 1 
Note on, E2 key =  40;WhichDrum: S ; velocity: 0
@8340 , @0.4397625968992248 Channel: 1 
Note on, E2 key =  40;WhichDrum: S ; velocity: 127
@8400 , @0.44292635658914725 Channel: 1 
Note on, E2 key =  40;WhichDrum: S ; velocity: 0
@8400 , @0.44292635658914725 Channel: 1 
Note on, G3 key =  55;WhichDrum: C2 ; velocity: 127
@8400 , @0.44292635658914725 Channel: 1 
Note on, D3 key =  50;WhichDrum: T2 ; velocity: 127
@8460 , @0.44609011627906975 Channel: 1 
Note on, G3 key =  55;WhichDrum: C2 ; velocity: 0
@8460 , @0.44609011627906975 Channel: 1 
Note on, D3 key =  50;WhichDrum: T2 ; velocity: 0
@8460 , @0.44609011627906975 Channel: 1 
Note on, E3 key =  52;WhichDrum: S ; velocity: 127
@8460 , @0.44609011627906975 Channel: 1 
Note on, A3 key =  57;WhichDrum: T3 ; velocity: 127
@8520 , @0.44925387596899224 Channel: 1 
Note on, E3 key =  52;WhichDrum: S ; velocity: 0
@8520 , @0.44925387596899224 Channel: 1 
Note on, A3 key =  57;WhichDrum: T3 ; velocity: 0
@8520 , @0.44925387596899224 Channel: 1 
Note on, D3 key =  50;WhichDrum: T2 ; velocity: 127
@8520 , @0.44925387596899224 Channel: 1 
Note on, G3 key =  55;WhichDrum: C2 ; velocity: 127
@8580 , @0.45241763565891474 Channel: 1 
Note on, D3 key =  50;WhichDrum: T2 ; velocity: 0
@8580 , @0.45241763565891474 Channel: 1 
Note on, G3 key =  55;WhichDrum: C2 ; velocity: 0
@8580 , @0.45241763565891474 Channel: 1 
Note on, A3 key =  57;WhichDrum: T3 ; velocity: 127
@8580 , @0.45241763565891474 Channel: 1 
Note on, E3 key =  52;WhichDrum: S ; velocity: 127
@8640 , @0.45558139534883724 Channel: 1 
Note on, A3 key =  57;WhichDrum: T3 ; velocity: 0
@8640 , @0.45558139534883724 Channel: 1 
Note on, E3 key =  52;WhichDrum: S ; velocity: 0
@8640 , @0.45558139534883724 Channel: 1 
Note on, E2 key =  40;WhichDrum: S ; velocity: 127
@8700 , @0.45874515503875973 Channel: 1 
Note on, E2 key =  40;WhichDrum: S ; velocity: 0
@8700 , @0.45874515503875973 Channel: 1 
Note on, E2 key =  40;WhichDrum: S ; velocity: 127
@8760 , @0.4619089147286822 Channel: 1 
Note on, E2 key =  40;WhichDrum: S ; velocity: 0
@8760 , @0.4619089147286822 Channel: 1 
Note on, E2 key =  40;WhichDrum: S ; velocity: 127
@8820 , @0.46507267441860467 Channel: 1 
Note on, E2 key =  40;WhichDrum: S ; velocity: 0
@8820 , @0.46507267441860467 Channel: 1 
Note on, E2 key =  40;WhichDrum: S ; velocity: 127
@8880 , @0.46823643410852717 Channel: 1 
Note on, E2 key =  40;WhichDrum: S ; velocity: 0
@8880 , @0.46823643410852717 Channel: 1 
Note on, E3 key =  52;WhichDrum: S ; velocity: 127
@8940 , @0.47140019379844966 Channel: 1 
Note on, E3 key =  52;WhichDrum: S ; velocity: 0
@8940 , @0.47140019379844966 Channel: 1 
Note on, D3 key =  50;WhichDrum: T2 ; velocity: 127
@9000 , @0.47456395348837216 Channel: 1 
Note on, D3 key =  50;WhichDrum: T2 ; velocity: 0
@9000 , @0.47456395348837216 Channel: 1 
Note on, B2 key =  47;WhichDrum: T1 ; velocity: 127
@9060 , @0.4777277131782946 Channel: 1 
Note on, B2 key =  47;WhichDrum: T1 ; velocity: 0
@9060 , @0.4777277131782946 Channel: 1 
Note on, A#2 key =  46;WhichDrum: T2 ; velocity: 127
@9120 , @0.4808914728682171 Channel: 1 
Note on, A#2 key =  46;WhichDrum: T2 ; velocity: 0
@9120 , @0.4808914728682171 Channel: 1 
Note on, E2 key =  40;WhichDrum: S ; velocity: 127
@9180 , @0.4840552325581396 Channel: 1 
Note on, E2 key =  40;WhichDrum: S ; velocity: 0
@9180 , @0.4840552325581396 Channel: 1 
Note on, E2 key =  40;WhichDrum: S ; velocity: 127
@9240 , @0.487218992248062 Channel: 1 
Note on, E2 key =  40;WhichDrum: S ; velocity: 0
@9240 , @0.487218992248062 Channel: 1 
Note on, E2 key =  40;WhichDrum: S ; velocity: 127
@9300 , @0.4903827519379845 Channel: 1 
Note on, E2 key =  40;WhichDrum: S ; velocity: 0
@9300 , @0.4903827519379845 Channel: 1 
Note on, E2 key =  40;WhichDrum: S ; velocity: 127
@9360 , @0.49354651162790697 Channel: 1 
Note on, E2 key =  40;WhichDrum: S ; velocity: 0
@9360 , @0.49354651162790697 Channel: 1 
Note on, G3 key =  55;WhichDrum: C2 ; velocity: 127
@9360 , @0.49354651162790697 Channel: 1 
Note on, D3 key =  50;WhichDrum: T2 ; velocity: 127
@9420 , @0.49671027131782947 Channel: 1 
Note on, G3 key =  55;WhichDrum: C2 ; velocity: 0
@9420 , @0.49671027131782947 Channel: 1 
Note on, D3 key =  50;WhichDrum: T2 ; velocity: 0
@9420 , @0.49671027131782947 Channel: 1 
Note on, E3 key =  52;WhichDrum: S ; velocity: 127
@9420 , @0.49671027131782947 Channel: 1 
Note on, A3 key =  57;WhichDrum: T3 ; velocity: 127
@9480 , @0.49987403100775196 Channel: 1 
Note on, E3 key =  52;WhichDrum: S ; velocity: 0
@9480 , @0.49987403100775196 Channel: 1 
Note on, A3 key =  57;WhichDrum: T3 ; velocity: 0
@9480 , @0.49987403100775196 Channel: 1 
Note on, D3 key =  50;WhichDrum: T2 ; velocity: 127
@9480 , @0.49987403100775196 Channel: 1 
Note on, G3 key =  55;WhichDrum: C2 ; velocity: 127
@9540 , @0.5030377906976744 Channel: 1 
Note on, D3 key =  50;WhichDrum: T2 ; velocity: 0
@9540 , @0.5030377906976744 Channel: 1 
Note on, G3 key =  55;WhichDrum: C2 ; velocity: 0
@9540 , @0.5030377906976744 Channel: 1 
Note on, A3 key =  57;WhichDrum: T3 ; velocity: 127
@9540 , @0.5030377906976744 Channel: 1 
Note on, E3 key =  52;WhichDrum: S ; velocity: 127
@9600 , @0.506201550387597 Channel: 1 
Note on, A3 key =  57;WhichDrum: T3 ; velocity: 0
@9600 , @0.506201550387597 Channel: 1 
Note on, E3 key =  52;WhichDrum: S ; velocity: 0
@9600 , @0.506201550387597 Channel: 1 
Note on, E2 key =  40;WhichDrum: S ; velocity: 127
@9660 , @0.5093653100775194 Channel: 1 
Note on, E2 key =  40;WhichDrum: S ; velocity: 0
@9660 , @0.5093653100775194 Channel: 1 
Note on, E2 key =  40;WhichDrum: S ; velocity: 127
@9720 , @0.5125290697674418 Channel: 1 
Note on, E2 key =  40;WhichDrum: S ; velocity: 0
@9720 , @0.5125290697674418 Channel: 1 
Note on, E2 key =  40;WhichDrum: S ; velocity: 127
@9780 , @0.5156928294573644 Channel: 1 
Note on, E2 key =  40;WhichDrum: S ; velocity: 0
@9780 , @0.5156928294573644 Channel: 1 
Note on, E2 key =  40;WhichDrum: S ; velocity: 127
@9840 , @0.5188565891472868 Channel: 1 
Note on, E2 key =  40;WhichDrum: S ; velocity: 0
@9840 , @0.5188565891472868 Channel: 1 
Note on, E3 key =  52;WhichDrum: S ; velocity: 127
@9900 , @0.5220203488372094 Channel: 1 
Note on, E3 key =  52;WhichDrum: S ; velocity: 0
@9900 , @0.5220203488372094 Channel: 1 
Note on, D3 key =  50;WhichDrum: T2 ; velocity: 127
@9960 , @0.5251841085271318 Channel: 1 
Note on, D3 key =  50;WhichDrum: T2 ; velocity: 0
@9960 , @0.5251841085271318 Channel: 1 
Note on, B2 key =  47;WhichDrum: T1 ; velocity: 127
@10020 , @0.5283478682170543 Channel: 1 
Note on, B2 key =  47;WhichDrum: T1 ; velocity: 0
@10020 , @0.5283478682170543 Channel: 1 
Note on, A#2 key =  46;WhichDrum: T2 ; velocity: 127
@10080 , @0.5315116279069768 Channel: 1 
Note on, A#2 key =  46;WhichDrum: T2 ; velocity: 0
@10080 , @0.5315116279069768 Channel: 1 
Note on, E2 key =  40;WhichDrum: S ; velocity: 127
@10140 , @0.5346753875968993 Channel: 1 
Note on, E2 key =  40;WhichDrum: S ; velocity: 0
@10140 , @0.5346753875968993 Channel: 1 
Note on, E2 key =  40;WhichDrum: S ; velocity: 127
@10200 , @0.5378391472868217 Channel: 1 
Note on, E2 key =  40;WhichDrum: S ; velocity: 0
@10200 , @0.5378391472868217 Channel: 1 
Note on, E2 key =  40;WhichDrum: S ; velocity: 127
@10260 , @0.5410029069767441 Channel: 1 
Note on, E2 key =  40;WhichDrum: S ; velocity: 0
@10260 , @0.5410029069767441 Channel: 1 
Note on, E2 key =  40;WhichDrum: S ; velocity: 127
@10320 , @0.5441666666666667 Channel: 1 
Note on, E2 key =  40;WhichDrum: S ; velocity: 0
@10320 , @0.5441666666666667 Channel: 1 
Note on, G3 key =  55;WhichDrum: C2 ; velocity: 127
@10320 , @0.5441666666666667 Channel: 1 
Note on, D3 key =  50;WhichDrum: T2 ; velocity: 127
@10380 , @0.5473304263565891 Channel: 1 
Note on, G3 key =  55;WhichDrum: C2 ; velocity: 0
@10380 , @0.5473304263565891 Channel: 1 
Note on, D3 key =  50;WhichDrum: T2 ; velocity: 0
@10380 , @0.5473304263565891 Channel: 1 
Note on, E3 key =  52;WhichDrum: S ; velocity: 127
@10380 , @0.5473304263565891 Channel: 1 
Note on, A3 key =  57;WhichDrum: T3 ; velocity: 127
@10440 , @0.5504941860465117 Channel: 1 
Note on, E3 key =  52;WhichDrum: S ; velocity: 0
@10440 , @0.5504941860465117 Channel: 1 
Note on, A3 key =  57;WhichDrum: T3 ; velocity: 0
@10440 , @0.5504941860465117 Channel: 1 
Note on, D3 key =  50;WhichDrum: T2 ; velocity: 127
@10440 , @0.5504941860465117 Channel: 1 
Note on, G3 key =  55;WhichDrum: C2 ; velocity: 127
@10500 , @0.5536579457364341 Channel: 1 
Note on, D3 key =  50;WhichDrum: T2 ; velocity: 0
@10500 , @0.5536579457364341 Channel: 1 
Note on, G3 key =  55;WhichDrum: C2 ; velocity: 0
@10500 , @0.5536579457364341 Channel: 1 
Note on, E3 key =  52;WhichDrum: S ; velocity: 127
@10500 , @0.5536579457364341 Channel: 1 
Note on, A3 key =  57;WhichDrum: T3 ; velocity: 127
@10560 , @0.5568217054263566 Channel: 1 
Note on, E3 key =  52;WhichDrum: S ; velocity: 0
@10560 , @0.5568217054263566 Channel: 1 
Note on, A3 key =  57;WhichDrum: T3 ; velocity: 0
@10560 , @0.5568217054263566 Channel: 1 
Note on, E2 key =  40;WhichDrum: S ; velocity: 127
@10620 , @0.5599854651162791 Channel: 1 
Note on, E2 key =  40;WhichDrum: S ; velocity: 0
@10620 , @0.5599854651162791 Channel: 1 
Note on, E2 key =  40;WhichDrum: S ; velocity: 127
@10680 , @0.5631492248062016 Channel: 1 
Note on, E2 key =  40;WhichDrum: S ; velocity: 0
@10680 , @0.5631492248062016 Channel: 1 
Note on, E2 key =  40;WhichDrum: S ; velocity: 127
@10740 , @0.5663129844961241 Channel: 1 
Note on, E2 key =  40;WhichDrum: S ; velocity: 0
@10740 , @0.5663129844961241 Channel: 1 
Note on, E2 key =  40;WhichDrum: S ; velocity: 127
@10800 , @0.5694767441860465 Channel: 1 
Note on, E2 key =  40;WhichDrum: S ; velocity: 0
@10800 , @0.5694767441860465 Channel: 1 
Note on, E3 key =  52;WhichDrum: S ; velocity: 127
@10860 , @0.572640503875969 Channel: 1 
Note on, E3 key =  52;WhichDrum: S ; velocity: 0
@10860 , @0.572640503875969 Channel: 1 
Note on, D3 key =  50;WhichDrum: T2 ; velocity: 127
@10920 , @0.5758042635658915 Channel: 1 
Note on, D3 key =  50;WhichDrum: T2 ; velocity: 0
@10920 , @0.5758042635658915 Channel: 1 
Note on, B2 key =  47;WhichDrum: T1 ; velocity: 127
@10980 , @0.578968023255814 Channel: 1 
Note on, B2 key =  47;WhichDrum: T1 ; velocity: 0
@10980 , @0.578968023255814 Channel: 1 
Note on, A#2 key =  46;WhichDrum: T2 ; velocity: 127
@11040 , @0.5821317829457365 Channel: 1 
Note on, A#2 key =  46;WhichDrum: T2 ; velocity: 0
@11040 , @0.5821317829457365 Channel: 1 
Note on, E2 key =  40;WhichDrum: S ; velocity: 127
@11100 , @0.585295542635659 Channel: 1 
Note on, E2 key =  40;WhichDrum: S ; velocity: 0
@11100 , @0.585295542635659 Channel: 1 
Note on, E2 key =  40;WhichDrum: S ; velocity: 127
@11160 , @0.5884593023255814 Channel: 1 
Note on, E2 key =  40;WhichDrum: S ; velocity: 0
@11160 , @0.5884593023255814 Channel: 1 
Note on, E2 key =  40;WhichDrum: S ; velocity: 127
@11220 , @0.5916230620155039 Channel: 1 
Note on, E2 key =  40;WhichDrum: S ; velocity: 0
@11220 , @0.5916230620155039 Channel: 1 
Note on, E2 key =  40;WhichDrum: S ; velocity: 127
@11280 , @0.5947868217054263 Channel: 1 
Note on, E2 key =  40;WhichDrum: S ; velocity: 0
@11280 , @0.5947868217054263 Channel: 1 
Note on, G3 key =  55;WhichDrum: C2 ; velocity: 127
@11280 , @0.5947868217054263 Channel: 1 
Note on, D3 key =  50;WhichDrum: T2 ; velocity: 127
@11340 , @0.5979505813953488 Channel: 1 
Note on, G3 key =  55;WhichDrum: C2 ; velocity: 0
@11340 , @0.5979505813953488 Channel: 1 
Note on, D3 key =  50;WhichDrum: T2 ; velocity: 0
@11340 , @0.5979505813953488 Channel: 1 
Note on, E3 key =  52;WhichDrum: S ; velocity: 127
@11340 , @0.5979505813953488 Channel: 1 
Note on, A3 key =  57;WhichDrum: T3 ; velocity: 127
@11400 , @0.6011143410852713 Channel: 1 
Note on, E3 key =  52;WhichDrum: S ; velocity: 0
@11400 , @0.6011143410852713 Channel: 1 
Note on, A3 key =  57;WhichDrum: T3 ; velocity: 0
@11400 , @0.6011143410852713 Channel: 1 
Note on, D3 key =  50;WhichDrum: T2 ; velocity: 127
@11400 , @0.6011143410852713 Channel: 1 
Note on, G3 key =  55;WhichDrum: C2 ; velocity: 127
@11460 , @0.6042781007751938 Channel: 1 
Note on, D3 key =  50;WhichDrum: T2 ; velocity: 0
@11460 , @0.6042781007751938 Channel: 1 
Note on, G3 key =  55;WhichDrum: C2 ; velocity: 0
@11460 , @0.6042781007751938 Channel: 1 
Note on, A3 key =  57;WhichDrum: T3 ; velocity: 127
@11460 , @0.6042781007751938 Channel: 1 
Note on, E3 key =  52;WhichDrum: S ; velocity: 127
@11520 , @0.6074418604651163 Channel: 1 
Note on, A3 key =  57;WhichDrum: T3 ; velocity: 0
@11520 , @0.6074418604651163 Channel: 1 
Note on, E3 key =  52;WhichDrum: S ; velocity: 0
@11520 , @0.6074418604651163 Channel: 1 
Note on, E2 key =  40;WhichDrum: S ; velocity: 127
@11580 , @0.6106056201550388 Channel: 1 
Note on, E2 key =  40;WhichDrum: S ; velocity: 0
@11580 , @0.6106056201550388 Channel: 1 
Note on, E2 key =  40;WhichDrum: S ; velocity: 127
@11640 , @0.6137693798449613 Channel: 1 
Note on, E2 key =  40;WhichDrum: S ; velocity: 0
@11640 , @0.6137693798449613 Channel: 1 
Note on, E2 key =  40;WhichDrum: S ; velocity: 127
@11700 , @0.6169331395348837 Channel: 1 
Note on, E2 key =  40;WhichDrum: S ; velocity: 0
@11700 , @0.6169331395348837 Channel: 1 
Note on, E2 key =  40;WhichDrum: S ; velocity: 127
@11760 , @0.6200968992248063 Channel: 1 
Note on, E2 key =  40;WhichDrum: S ; velocity: 0
@11760 , @0.6200968992248063 Channel: 1 
Note on, E3 key =  52;WhichDrum: S ; velocity: 127
@11820 , @0.6232606589147287 Channel: 1 
Note on, E3 key =  52;WhichDrum: S ; velocity: 0
@11820 , @0.6232606589147287 Channel: 1 
Note on, D3 key =  50;WhichDrum: T2 ; velocity: 127
@11880 , @0.6264244186046513 Channel: 1 
Note on, D3 key =  50;WhichDrum: T2 ; velocity: 0
@11880 , @0.6264244186046513 Channel: 1 
Note on, B2 key =  47;WhichDrum: T1 ; velocity: 127
@11940 , @0.6295881782945737 Channel: 1 
Note on, B2 key =  47;WhichDrum: T1 ; velocity: 0
@11940 , @0.6295881782945737 Channel: 1 
Note on, A#2 key =  46;WhichDrum: T2 ; velocity: 127
@12000 , @0.6327519379844961 Channel: 1 
Note on, A#2 key =  46;WhichDrum: T2 ; velocity: 0
@12000 , @0.6327519379844961 Channel: 1 
Note on, E2 key =  40;WhichDrum: S ; velocity: 127
@12060 , @0.6359156976744187 Channel: 1 
Note on, E2 key =  40;WhichDrum: S ; velocity: 0
@12060 , @0.6359156976744187 Channel: 1 
Note on, E2 key =  40;WhichDrum: S ; velocity: 127
@12120 , @0.639079457364341 Channel: 1 
Note on, E2 key =  40;WhichDrum: S ; velocity: 0
@12120 , @0.639079457364341 Channel: 1 
Note on, E2 key =  40;WhichDrum: S ; velocity: 127
@12180 , @0.6422432170542636 Channel: 1 
Note on, E2 key =  40;WhichDrum: S ; velocity: 0
@12180 , @0.6422432170542636 Channel: 1 
Note on, E2 key =  40;WhichDrum: S ; velocity: 127
@12240 , @0.645406976744186 Channel: 1 
Note on, E2 key =  40;WhichDrum: S ; velocity: 0
@12240 , @0.645406976744186 Channel: 1 
Note on, G3 key =  55;WhichDrum: C2 ; velocity: 127
@12240 , @0.645406976744186 Channel: 1 
Note on, D3 key =  50;WhichDrum: T2 ; velocity: 127
@12300 , @0.6485707364341086 Channel: 1 
Note on, G3 key =  55;WhichDrum: C2 ; velocity: 0
@12300 , @0.6485707364341086 Channel: 1 
Note on, D3 key =  50;WhichDrum: T2 ; velocity: 0
@12300 , @0.6485707364341086 Channel: 1 
Note on, E3 key =  52;WhichDrum: S ; velocity: 127
@12300 , @0.6485707364341086 Channel: 1 
Note on, A3 key =  57;WhichDrum: T3 ; velocity: 127
@12360 , @0.651734496124031 Channel: 1 
Note on, E3 key =  52;WhichDrum: S ; velocity: 0
@12360 , @0.651734496124031 Channel: 1 
Note on, A3 key =  57;WhichDrum: T3 ; velocity: 0
@12360 , @0.651734496124031 Channel: 1 
Note on, D3 key =  50;WhichDrum: T2 ; velocity: 127
@12360 , @0.651734496124031 Channel: 1 
Note on, G3 key =  55;WhichDrum: C2 ; velocity: 127
@12420 , @0.6548982558139534 Channel: 1 
Note on, D3 key =  50;WhichDrum: T2 ; velocity: 0
@12420 , @0.6548982558139534 Channel: 1 
Note on, G3 key =  55;WhichDrum: C2 ; velocity: 0
@12420 , @0.6548982558139534 Channel: 1 
Note on, A3 key =  57;WhichDrum: T3 ; velocity: 127
@12420 , @0.6548982558139534 Channel: 1 
Note on, E3 key =  52;WhichDrum: S ; velocity: 127
@12480 , @0.658062015503876 Channel: 1 
Note on, A3 key =  57;WhichDrum: T3 ; velocity: 0
@12480 , @0.658062015503876 Channel: 1 
Note on, E3 key =  52;WhichDrum: S ; velocity: 0
@12480 , @0.658062015503876 Channel: 1 
Note on, E2 key =  40;WhichDrum: S ; velocity: 127
@12540 , @0.6612257751937984 Channel: 1 
Note on, E2 key =  40;WhichDrum: S ; velocity: 0
@12540 , @0.6612257751937984 Channel: 1 
Note on, E2 key =  40;WhichDrum: S ; velocity: 127
@12600 , @0.664389534883721 Channel: 1 
Note on, E2 key =  40;WhichDrum: S ; velocity: 0
@12600 , @0.664389534883721 Channel: 1 
Note on, E2 key =  40;WhichDrum: S ; velocity: 127
@12660 , @0.6675532945736434 Channel: 1 
Note on, E2 key =  40;WhichDrum: S ; velocity: 0
@12660 , @0.6675532945736434 Channel: 1 
Note on, E2 key =  40;WhichDrum: S ; velocity: 127
@12720 , @0.670717054263566 Channel: 1 
Note on, E2 key =  40;WhichDrum: S ; velocity: 0
@12720 , @0.670717054263566 Channel: 1 
Note on, E3 key =  52;WhichDrum: S ; velocity: 127
@12780 , @0.6738808139534884 Channel: 1 
Note on, E3 key =  52;WhichDrum: S ; velocity: 0
@12780 , @0.6738808139534884 Channel: 1 
Note on, D3 key =  50;WhichDrum: T2 ; velocity: 127
@12840 , @0.6770445736434109 Channel: 1 
Note on, D3 key =  50;WhichDrum: T2 ; velocity: 0
@12840 , @0.6770445736434109 Channel: 1 
Note on, B2 key =  47;WhichDrum: T1 ; velocity: 127
@12900 , @0.6802083333333334 Channel: 1 
Note on, B2 key =  47;WhichDrum: T1 ; velocity: 0
@12900 , @0.6802083333333334 Channel: 1 
Note on, A#2 key =  46;WhichDrum: T2 ; velocity: 127
@12960 , @0.6833720930232559 Channel: 1 
Note on, A#2 key =  46;WhichDrum: T2 ; velocity: 0
@12960 , @0.6833720930232559 Channel: 1 
Note on, E2 key =  40;WhichDrum: S ; velocity: 127
@13020 , @0.6865358527131784 Channel: 1 
Note on, E2 key =  40;WhichDrum: S ; velocity: 0
@13020 , @0.6865358527131784 Channel: 1 
Note on, E2 key =  40;WhichDrum: S ; velocity: 127
@13080 , @0.6896996124031007 Channel: 1 
Note on, E2 key =  40;WhichDrum: S ; velocity: 0
@13080 , @0.6896996124031007 Channel: 1 
Note on, E2 key =  40;WhichDrum: S ; velocity: 127
@13140 , @0.6928633720930233 Channel: 1 
Note on, E2 key =  40;WhichDrum: S ; velocity: 0
@13140 , @0.6928633720930233 Channel: 1 
Note on, E2 key =  40;WhichDrum: S ; velocity: 127
@13200 , @0.6960271317829457 Channel: 1 
Note on, E2 key =  40;WhichDrum: S ; velocity: 0
@13200 , @0.6960271317829457 Channel: 1 
Note on, G3 key =  55;WhichDrum: C2 ; velocity: 127
@13200 , @0.6960271317829457 Channel: 1 
Note on, D3 key =  50;WhichDrum: T2 ; velocity: 127
@13260 , @0.6991908914728682 Channel: 1 
Note on, G3 key =  55;WhichDrum: C2 ; velocity: 0
@13260 , @0.6991908914728682 Channel: 1 
Note on, D3 key =  50;WhichDrum: T2 ; velocity: 0
@13260 , @0.6991908914728682 Channel: 1 
Note on, E3 key =  52;WhichDrum: S ; velocity: 127
@13260 , @0.6991908914728682 Channel: 1 
Note on, A3 key =  57;WhichDrum: T3 ; velocity: 127
@13320 , @0.7023546511627907 Channel: 1 
Note on, E3 key =  52;WhichDrum: S ; velocity: 0
@13320 , @0.7023546511627907 Channel: 1 
Note on, A3 key =  57;WhichDrum: T3 ; velocity: 0
@13320 , @0.7023546511627907 Channel: 1 
Note on, D3 key =  50;WhichDrum: T2 ; velocity: 127
@13320 , @0.7023546511627907 Channel: 1 
Note on, G3 key =  55;WhichDrum: C2 ; velocity: 127
@13380 , @0.7055184108527132 Channel: 1 
Note on, D3 key =  50;WhichDrum: T2 ; velocity: 0
@13380 , @0.7055184108527132 Channel: 1 
Note on, G3 key =  55;WhichDrum: C2 ; velocity: 0
@13380 , @0.7055184108527132 Channel: 1 
Note on, A3 key =  57;WhichDrum: T3 ; velocity: 127
@13380 , @0.7055184108527132 Channel: 1 
Note on, E3 key =  52;WhichDrum: S ; velocity: 127
@13440 , @0.7086821705426357 Channel: 1 
Note on, A3 key =  57;WhichDrum: T3 ; velocity: 0
@13440 , @0.7086821705426357 Channel: 1 
Note on, E3 key =  52;WhichDrum: S ; velocity: 0
@13440 , @0.7086821705426357 Channel: 1 
Note on, E2 key =  40;WhichDrum: S ; velocity: 127
@13500 , @0.7118459302325582 Channel: 1 
Note on, E2 key =  40;WhichDrum: S ; velocity: 0
@13500 , @0.7118459302325582 Channel: 1 
Note on, E2 key =  40;WhichDrum: S ; velocity: 127
@13560 , @0.7150096899224806 Channel: 1 
Note on, E2 key =  40;WhichDrum: S ; velocity: 0
@13560 , @0.7150096899224806 Channel: 1 
Note on, E2 key =  40;WhichDrum: S ; velocity: 127
@13620 , @0.7181734496124031 Channel: 1 
Note on, E2 key =  40;WhichDrum: S ; velocity: 0
@13620 , @0.7181734496124031 Channel: 1 
Note on, E2 key =  40;WhichDrum: S ; velocity: 127
@13680 , @0.7213372093023256 Channel: 1 
Note on, E2 key =  40;WhichDrum: S ; velocity: 0
@13680 , @0.7213372093023256 Channel: 1 
Note on, E3 key =  52;WhichDrum: S ; velocity: 127
@13740 , @0.7245009689922481 Channel: 1 
Note on, E3 key =  52;WhichDrum: S ; velocity: 0
@13740 , @0.7245009689922481 Channel: 1 
Note on, D3 key =  50;WhichDrum: T2 ; velocity: 127
@13800 , @0.7276647286821706 Channel: 1 
Note on, D3 key =  50;WhichDrum: T2 ; velocity: 0
@13800 , @0.7276647286821706 Channel: 1 
Note on, B2 key =  47;WhichDrum: T1 ; velocity: 127
@13860 , @0.7308284883720931 Channel: 1 
Note on, B2 key =  47;WhichDrum: T1 ; velocity: 0
@13860 , @0.7308284883720931 Channel: 1 
Note on, A#2 key =  46;WhichDrum: T2 ; velocity: 127
@13920 , @0.7339922480620156 Channel: 1 
Note on, A#2 key =  46;WhichDrum: T2 ; velocity: 0
@13920 , @0.7339922480620156 Channel: 1 
Note on, E2 key =  40;WhichDrum: S ; velocity: 127
@13980 , @0.737156007751938 Channel: 1 
Note on, E2 key =  40;WhichDrum: S ; velocity: 0
@13980 , @0.737156007751938 Channel: 1 
Note on, E2 key =  40;WhichDrum: S ; velocity: 127
@14040 , @0.7403197674418605 Channel: 1 
Note on, E2 key =  40;WhichDrum: S ; velocity: 0
@14040 , @0.7403197674418605 Channel: 1 
Note on, E2 key =  40;WhichDrum: S ; velocity: 127
@14100 , @0.7434835271317829 Channel: 1 
Note on, E2 key =  40;WhichDrum: S ; velocity: 0
@14100 , @0.7434835271317829 Channel: 1 
Note on, E2 key =  40;WhichDrum: S ; velocity: 127
@14160 , @0.7466472868217054 Channel: 1 
Note on, E2 key =  40;WhichDrum: S ; velocity: 0
@14160 , @0.7466472868217054 Channel: 1 
Note on, G3 key =  55;WhichDrum: C2 ; velocity: 127
@14160 , @0.7466472868217054 Channel: 1 
Note on, D3 key =  50;WhichDrum: T2 ; velocity: 127
@14220 , @0.7498110465116279 Channel: 1 
Note on, G3 key =  55;WhichDrum: C2 ; velocity: 0
@14220 , @0.7498110465116279 Channel: 1 
Note on, D3 key =  50;WhichDrum: T2 ; velocity: 0
@14220 , @0.7498110465116279 Channel: 1 
Note on, E3 key =  52;WhichDrum: S ; velocity: 127
@14220 , @0.7498110465116279 Channel: 1 
Note on, A3 key =  57;WhichDrum: T3 ; velocity: 127
@14280 , @0.7529748062015504 Channel: 1 
Note on, E3 key =  52;WhichDrum: S ; velocity: 0
@14280 , @0.7529748062015504 Channel: 1 
Note on, A3 key =  57;WhichDrum: T3 ; velocity: 0
@14280 , @0.7529748062015504 Channel: 1 
Note on, D3 key =  50;WhichDrum: T2 ; velocity: 127
@14280 , @0.7529748062015504 Channel: 1 
Note on, G3 key =  55;WhichDrum: C2 ; velocity: 127
@14340 , @0.7561385658914729 Channel: 1 
Note on, D3 key =  50;WhichDrum: T2 ; velocity: 0
@14340 , @0.7561385658914729 Channel: 1 
Note on, G3 key =  55;WhichDrum: C2 ; velocity: 0
@14340 , @0.7561385658914729 Channel: 1 
Note on, A3 key =  57;WhichDrum: T3 ; velocity: 127
@14340 , @0.7561385658914729 Channel: 1 
Note on, E3 key =  52;WhichDrum: S ; velocity: 127
@14400 , @0.7593023255813953 Channel: 1 
Note on, A3 key =  57;WhichDrum: T3 ; velocity: 0
@14400 , @0.7593023255813953 Channel: 1 
Note on, E3 key =  52;WhichDrum: S ; velocity: 0
@14400 , @0.7593023255813953 Channel: 1 
Note on, E2 key =  40;WhichDrum: S ; velocity: 127
@14460 , @0.7624660852713179 Channel: 1 
Note on, E2 key =  40;WhichDrum: S ; velocity: 0
@14460 , @0.7624660852713179 Channel: 1 
Note on, E2 key =  40;WhichDrum: S ; velocity: 127
@14520 , @0.7656298449612403 Channel: 1 
Note on, E2 key =  40;WhichDrum: S ; velocity: 0
@14520 , @0.7656298449612403 Channel: 1 
Note on, E2 key =  40;WhichDrum: S ; velocity: 127
@14580 , @0.7687936046511629 Channel: 1 
Note on, E2 key =  40;WhichDrum: S ; velocity: 0
@14580 , @0.7687936046511629 Channel: 1 
Note on, E2 key =  40;WhichDrum: S ; velocity: 127
@14640 , @0.7719573643410853 Channel: 1 
Note on, E2 key =  40;WhichDrum: S ; velocity: 0
@14640 , @0.7719573643410853 Channel: 1 
Note on, E3 key =  52;WhichDrum: S ; velocity: 127
@14700 , @0.7751211240310077 Channel: 1 
Note on, E3 key =  52;WhichDrum: S ; velocity: 0
@14700 , @0.7751211240310077 Channel: 1 
Note on, D3 key =  50;WhichDrum: T2 ; velocity: 127
@14760 , @0.7782848837209303 Channel: 1 
Note on, D3 key =  50;WhichDrum: T2 ; velocity: 0
@14760 , @0.7782848837209303 Channel: 1 
Note on, B2 key =  47;WhichDrum: T1 ; velocity: 127
@14820 , @0.7814486434108527 Channel: 1 
Note on, B2 key =  47;WhichDrum: T1 ; velocity: 0
@14820 , @0.7814486434108527 Channel: 1 
Note on, A#2 key =  46;WhichDrum: T2 ; velocity: 127
@14880 , @0.7846124031007753 Channel: 1 
Note on, A#2 key =  46;WhichDrum: T2 ; velocity: 0
@14880 , @0.7846124031007753 Channel: 1 
Note on, E2 key =  40;WhichDrum: S ; velocity: 127
@14940 , @0.7877761627906977 Channel: 1 
Note on, E2 key =  40;WhichDrum: S ; velocity: 0
@14940 , @0.7877761627906977 Channel: 1 
Note on, E2 key =  40;WhichDrum: S ; velocity: 127
@15000 , @0.7909399224806202 Channel: 1 
Note on, E2 key =  40;WhichDrum: S ; velocity: 0
@15000 , @0.7909399224806202 Channel: 1 
Note on, E2 key =  40;WhichDrum: S ; velocity: 127
@15060 , @0.7941036821705426 Channel: 1 
Note on, E2 key =  40;WhichDrum: S ; velocity: 0
@15060 , @0.7941036821705426 Channel: 1 
Note on, E2 key =  40;WhichDrum: S ; velocity: 127
@15120 , @0.7972674418604652 Channel: 1 
Note on, E2 key =  40;WhichDrum: S ; velocity: 0
@15120 , @0.7972674418604652 Channel: 1 
Note on, G3 key =  55;WhichDrum: C2 ; velocity: 127
@15120 , @0.7972674418604652 Channel: 1 
Note on, D3 key =  50;WhichDrum: T2 ; velocity: 127
@15180 , @0.8004312015503876 Channel: 1 
Note on, G3 key =  55;WhichDrum: C2 ; velocity: 0
@15180 , @0.8004312015503876 Channel: 1 
Note on, D3 key =  50;WhichDrum: T2 ; velocity: 0
@15180 , @0.8004312015503876 Channel: 1 
Note on, E3 key =  52;WhichDrum: S ; velocity: 127
@15180 , @0.8004312015503876 Channel: 1 
Note on, A3 key =  57;WhichDrum: T3 ; velocity: 127
@15240 , @0.80359496124031 Channel: 1 
Note on, E3 key =  52;WhichDrum: S ; velocity: 0
@15240 , @0.80359496124031 Channel: 1 
Note on, A3 key =  57;WhichDrum: T3 ; velocity: 0
@15240 , @0.80359496124031 Channel: 1 
Note on, D3 key =  50;WhichDrum: T2 ; velocity: 127
@15240 , @0.80359496124031 Channel: 1 
Note on, G3 key =  55;WhichDrum: C2 ; velocity: 127
@15300 , @0.8067587209302326 Channel: 1 
Note on, D3 key =  50;WhichDrum: T2 ; velocity: 0
@15300 , @0.8067587209302326 Channel: 1 
Note on, G3 key =  55;WhichDrum: C2 ; velocity: 0
@15300 , @0.8067587209302326 Channel: 1 
Note on, A3 key =  57;WhichDrum: T3 ; velocity: 127
@15300 , @0.8067587209302326 Channel: 1 
Note on, E3 key =  52;WhichDrum: S ; velocity: 127
@15360 , @0.809922480620155 Channel: 1 
Note on, A3 key =  57;WhichDrum: T3 ; velocity: 0
@15360 , @0.809922480620155 Channel: 1 
Note on, E3 key =  52;WhichDrum: S ; velocity: 0
@15360 , @0.809922480620155 Channel: 1 
Note on, E2 key =  40;WhichDrum: S ; velocity: 127
@15420 , @0.8130862403100776 Channel: 1 
Note on, E2 key =  40;WhichDrum: S ; velocity: 0
@15420 , @0.8130862403100776 Channel: 1 
Note on, E2 key =  40;WhichDrum: S ; velocity: 127
@15480 , @0.81625 Channel: 1 
Note on, E2 key =  40;WhichDrum: S ; velocity: 0
@15480 , @0.81625 Channel: 1 
Note on, E2 key =  40;WhichDrum: S ; velocity: 127
@15540 , @0.8194137596899225 Channel: 1 
Note on, E2 key =  40;WhichDrum: S ; velocity: 0
@15540 , @0.8194137596899225 Channel: 1 
Note on, E2 key =  40;WhichDrum: S ; velocity: 127
@15600 , @0.822577519379845 Channel: 1 
Note on, E2 key =  40;WhichDrum: S ; velocity: 0
@15600 , @0.822577519379845 Channel: 1 
Note on, E3 key =  52;WhichDrum: S ; velocity: 127
@15660 , @0.8257412790697675 Channel: 1 
Note on, E3 key =  52;WhichDrum: S ; velocity: 0
@15660 , @0.8257412790697675 Channel: 1 
Note on, D3 key =  50;WhichDrum: T2 ; velocity: 127
@15720 , @0.82890503875969 Channel: 1 
Note on, D3 key =  50;WhichDrum: T2 ; velocity: 0
@15720 , @0.82890503875969 Channel: 1 
Note on, B2 key =  47;WhichDrum: T1 ; velocity: 127
@15780 , @0.8320687984496125 Channel: 1 
Note on, B2 key =  47;WhichDrum: T1 ; velocity: 0
@15780 , @0.8320687984496125 Channel: 1 
Note on, A#2 key =  46;WhichDrum: T2 ; velocity: 127
@15840 , @0.8352325581395349 Channel: 1 
Note on, A#2 key =  46;WhichDrum: T2 ; velocity: 0
@15840 , @0.8352325581395349 Channel: 1 
Note on, E2 key =  40;WhichDrum: S ; velocity: 127
@15900 , @0.8383963178294574 Channel: 1 
Note on, E2 key =  40;WhichDrum: S ; velocity: 0
@15900 , @0.8383963178294574 Channel: 1 
Note on, E2 key =  40;WhichDrum: S ; velocity: 127
@15960 , @0.8415600775193799 Channel: 1 
Note on, E2 key =  40;WhichDrum: S ; velocity: 0
@15960 , @0.8415600775193799 Channel: 1 
Note on, E2 key =  40;WhichDrum: S ; velocity: 127
@16020 , @0.8447238372093024 Channel: 1 
Note on, E2 key =  40;WhichDrum: S ; velocity: 0
@16020 , @0.8447238372093024 Channel: 1 
Note on, E2 key =  40;WhichDrum: S ; velocity: 127
@16080 , @0.8478875968992249 Channel: 1 
Note on, E2 key =  40;WhichDrum: S ; velocity: 0
@16080 , @0.8478875968992249 Channel: 1 
Note on, E2 key =  40;WhichDrum: S ; velocity: 127
@16140 , @0.8510513565891474 Channel: 1 
Note on, E2 key =  40;WhichDrum: S ; velocity: 0
@16140 , @0.8510513565891474 Channel: 1 
Note on, E2 key =  40;WhichDrum: S ; velocity: 127
@16200 , @0.8542151162790699 Channel: 1 
Note on, E2 key =  40;WhichDrum: S ; velocity: 0
@16200 , @0.8542151162790699 Channel: 1 
Note on, E2 key =  40;WhichDrum: S ; velocity: 127
@16260 , @0.8573788759689923 Channel: 1 
Note on, E2 key =  40;WhichDrum: S ; velocity: 0
@16260 , @0.8573788759689923 Channel: 1 
Note on, E2 key =  40;WhichDrum: S ; velocity: 127
@16320 , @0.8605426356589149 Channel: 1 
Note on, E2 key =  40;WhichDrum: S ; velocity: 0
@16320 , @0.8605426356589149 Channel: 1 
Note on, E2 key =  40;WhichDrum: S ; velocity: 127
@16380 , @0.8637063953488373 Channel: 1 
Note on, E2 key =  40;WhichDrum: S ; velocity: 0
@16380 , @0.8637063953488373 Channel: 1 
Note on, E2 key =  40;WhichDrum: S ; velocity: 127
@16440 , @0.8668701550387599 Channel: 1 
Note on, E2 key =  40;WhichDrum: S ; velocity: 0
@16440 , @0.8668701550387599 Channel: 1 
Note on, E2 key =  40;WhichDrum: S ; velocity: 127
@16500 , @0.8700339147286821 Channel: 1 
Note on, E2 key =  40;WhichDrum: S ; velocity: 0
@16500 , @0.8700339147286821 Channel: 1 
Note on, E2 key =  40;WhichDrum: S ; velocity: 127
@16560 , @0.8731976744186046 Channel: 1 
Note on, E2 key =  40;WhichDrum: S ; velocity: 0
@16560 , @0.8731976744186046 Channel: 1 
Note on, B2 key =  47;WhichDrum: T1 ; velocity: 127
@16620 , @0.8763614341085271 Channel: 1 
Note on, B2 key =  47;WhichDrum: T1 ; velocity: 0
@16620 , @0.8763614341085271 Channel: 1 
Note on, A#2 key =  46;WhichDrum: T2 ; velocity: 127
@16680 , @0.8795251937984496 Channel: 1 
Note on, A#2 key =  46;WhichDrum: T2 ; velocity: 0
@16680 , @0.8795251937984496 Channel: 1 
Note on, G3 key =  55;WhichDrum: C2 ; velocity: 127
@16740 , @0.8826889534883721 Channel: 1 
Note on, G3 key =  55;WhichDrum: C2 ; velocity: 0
@16740 , @0.8826889534883721 Channel: 1 
Note on, E3 key =  52;WhichDrum: S ; velocity: 127
@16800 , @0.8858527131782945 Channel: 1 
Note on, E3 key =  52;WhichDrum: S ; velocity: 0
@16800 , @0.8858527131782945 Channel: 1 
Note on, E2 key =  40;WhichDrum: S ; velocity: 127
@16860 , @0.8890164728682171 Channel: 1 
Note on, E2 key =  40;WhichDrum: S ; velocity: 0
@16860 , @0.8890164728682171 Channel: 1 
Note on, E2 key =  40;WhichDrum: S ; velocity: 127
@16920 , @0.8921802325581395 Channel: 1 
Note on, E2 key =  40;WhichDrum: S ; velocity: 0
@16920 , @0.8921802325581395 Channel: 1 
Note on, E2 key =  40;WhichDrum: S ; velocity: 127
@16980 , @0.895343992248062 Channel: 1 
Note on, E2 key =  40;WhichDrum: S ; velocity: 0
@16980 , @0.895343992248062 Channel: 1 
Note on, E2 key =  40;WhichDrum: S ; velocity: 127
@17040 , @0.8985077519379845 Channel: 1 
Note on, E2 key =  40;WhichDrum: S ; velocity: 0
@17040 , @0.8985077519379845 Channel: 1 
Note on, E2 key =  40;WhichDrum: S ; velocity: 127
@17100 , @0.9016715116279069 Channel: 1 
Note on, E2 key =  40;WhichDrum: S ; velocity: 0
@17100 , @0.9016715116279069 Channel: 1 
Note on, E2 key =  40;WhichDrum: S ; velocity: 127
@17160 , @0.9048352713178295 Channel: 1 
Note on, E2 key =  40;WhichDrum: S ; velocity: 0
@17160 , @0.9048352713178295 Channel: 1 
Note on, E2 key =  40;WhichDrum: S ; velocity: 127
@17220 , @0.9079990310077519 Channel: 1 
Note on, E2 key =  40;WhichDrum: S ; velocity: 0
@17220 , @0.9079990310077519 Channel: 1 
Note on, E2 key =  40;WhichDrum: S ; velocity: 127
@17280 , @0.9111627906976745 Channel: 1 
Note on, E2 key =  40;WhichDrum: S ; velocity: 0
@17280 , @0.9111627906976745 Channel: 1 
Note on, E2 key =  40;WhichDrum: S ; velocity: 127
@17340 , @0.9143265503875969 Channel: 1 
Note on, E2 key =  40;WhichDrum: S ; velocity: 0
@17340 , @0.9143265503875969 Channel: 1 
Note on, E2 key =  40;WhichDrum: S ; velocity: 127
@17400 , @0.9174903100775195 Channel: 1 
Note on, E2 key =  40;WhichDrum: S ; velocity: 0
@17400 , @0.9174903100775195 Channel: 1 
Note on, E2 key =  40;WhichDrum: S ; velocity: 127
@17460 , @0.9206540697674419 Channel: 1 
Note on, E2 key =  40;WhichDrum: S ; velocity: 0
@17460 , @0.9206540697674419 Channel: 1 
Note on, E2 key =  40;WhichDrum: S ; velocity: 127
@17520 , @0.9238178294573643 Channel: 1 
Note on, E2 key =  40;WhichDrum: S ; velocity: 0
@17520 , @0.9238178294573643 Channel: 1 
Note on, B2 key =  47;WhichDrum: T1 ; velocity: 127
@17580 , @0.9269815891472869 Channel: 1 
Note on, B2 key =  47;WhichDrum: T1 ; velocity: 0
@17580 , @0.9269815891472869 Channel: 1 
Note on, A#2 key =  46;WhichDrum: T2 ; velocity: 127
@17640 , @0.9301453488372093 Channel: 1 
Note on, A#2 key =  46;WhichDrum: T2 ; velocity: 0
@17640 , @0.9301453488372093 Channel: 1 
Note on, G3 key =  55;WhichDrum: C2 ; velocity: 127
@17700 , @0.9333091085271319 Channel: 1 
Note on, G3 key =  55;WhichDrum: C2 ; velocity: 0
@17700 , @0.9333091085271319 Channel: 1 
Note on, E3 key =  52;WhichDrum: S ; velocity: 127
@17760 , @0.9364728682170543 Channel: 1 
Note on, E3 key =  52;WhichDrum: S ; velocity: 0
@17760 , @0.9364728682170543 Channel: 1 
Note on, E2 key =  40;WhichDrum: S ; velocity: 127
@17820 , @0.9396366279069768 Channel: 1 
Note on, E2 key =  40;WhichDrum: S ; velocity: 0
@17820 , @0.9396366279069768 Channel: 1 
Note on, E2 key =  40;WhichDrum: S ; velocity: 127
@17880 , @0.9428003875968993 Channel: 1 
Note on, E2 key =  40;WhichDrum: S ; velocity: 0
@17880 , @0.9428003875968993 Channel: 1 
Note on, E2 key =  40;WhichDrum: S ; velocity: 127
@17940 , @0.9459641472868218 Channel: 1 
Note on, E2 key =  40;WhichDrum: S ; velocity: 0
@17940 , @0.9459641472868218 Channel: 1 
Note on, E2 key =  40;WhichDrum: S ; velocity: 127
@18000 , @0.9491279069767443 Channel: 1 
Note on, E2 key =  40;WhichDrum: S ; velocity: 0
@18000 , @0.9491279069767443 Channel: 1 
Note on, E2 key =  40;WhichDrum: S ; velocity: 127
@18060 , @0.9522916666666668 Channel: 1 
Note on, E2 key =  40;WhichDrum: S ; velocity: 0
@18060 , @0.9522916666666668 Channel: 1 
Note on, E2 key =  40;WhichDrum: S ; velocity: 127
@18120 , @0.9554554263565892 Channel: 1 
Note on, E2 key =  40;WhichDrum: S ; velocity: 0
@18120 , @0.9554554263565892 Channel: 1 
Note on, E2 key =  40;WhichDrum: S ; velocity: 127
@18180 , @0.9586191860465118 Channel: 1 
Note on, E2 key =  40;WhichDrum: S ; velocity: 0
@18180 , @0.9586191860465118 Channel: 1 
Note on, E2 key =  40;WhichDrum: S ; velocity: 127
@18240 , @0.9617829457364342 Channel: 1 
Note on, E2 key =  40;WhichDrum: S ; velocity: 0
@18240 , @0.9617829457364342 Channel: 1 
Note on, E2 key =  40;WhichDrum: S ; velocity: 127
@18300 , @0.9649467054263567 Channel: 1 
Note on, E2 key =  40;WhichDrum: S ; velocity: 0
@18300 , @0.9649467054263567 Channel: 1 
Note on, E2 key =  40;WhichDrum: S ; velocity: 127
@18360 , @0.9681104651162792 Channel: 1 
Note on, E2 key =  40;WhichDrum: S ; velocity: 0
@18360 , @0.9681104651162792 Channel: 1 
Note on, E2 key =  40;WhichDrum: S ; velocity: 127
@18420 , @0.9712742248062015 Channel: 1 
Note on, E2 key =  40;WhichDrum: S ; velocity: 0
@18420 , @0.9712742248062015 Channel: 1 
Note on, E2 key =  40;WhichDrum: S ; velocity: 127
@18480 , @0.974437984496124 Channel: 1 
Note on, E2 key =  40;WhichDrum: S ; velocity: 0
@18480 , @0.974437984496124 Channel: 1 
Note on, B2 key =  47;WhichDrum: T1 ; velocity: 127
@18540 , @0.9776017441860465 Channel: 1 
Note on, B2 key =  47;WhichDrum: T1 ; velocity: 0
@18540 , @0.9776017441860465 Channel: 1 
Note on, A#2 key =  46;WhichDrum: T2 ; velocity: 127
@18600 , @0.980765503875969 Channel: 1 
Note on, A#2 key =  46;WhichDrum: T2 ; velocity: 0
@18600 , @0.980765503875969 Channel: 1 
Note on, G3 key =  55;WhichDrum: C2 ; velocity: 127
@18660 , @0.9839292635658915 Channel: 1 
Note on, G3 key =  55;WhichDrum: C2 ; velocity: 0
@18660 , @0.9839292635658915 Channel: 1 
Note on, E3 key =  52;WhichDrum: S ; velocity: 127
@18720 , @0.9870930232558139 Channel: 1 
Note on, E3 key =  52;WhichDrum: S ; velocity: 0
@18720 , @0.9870930232558139 Channel: 1 
Note on, E2 key =  40;WhichDrum: S ; velocity: 127
@18780 , @0.9902567829457364 Channel: 1 
Note on, E2 key =  40;WhichDrum: S ; velocity: 0
@18780 , @0.9902567829457364 Channel: 1 
Note on, E2 key =  40;WhichDrum: S ; velocity: 127
@18840 , @0.9934205426356589 Channel: 1 
Note on, E2 key =  40;WhichDrum: S ; velocity: 0
@18840 , @0.9934205426356589 Channel: 1 
Note on, E2 key =  40;WhichDrum: S ; velocity: 127
@18900 , @0.9965843023255814 Channel: 1 
Note on, E2 key =  40;WhichDrum: S ; velocity: 0
@18900 , @0.9965843023255814 Channel: 1 
Note on, E2 key =  40;WhichDrum: S ; velocity: 127
@18960 , @0.9997480620155039 Channel: 1 
Note on, E2 key =  40;WhichDrum: S ; velocity: 0
@18960 , @0.9997480620155039 Channel: 1 
Note on, E2 key =  40;WhichDrum: S ; velocity: 127
@19020 , @1.0029118217054263 Channel: 1 
Note on, E2 key =  40;WhichDrum: S ; velocity: 0
@19020 , @1.0029118217054263 Channel: 1 
Note on, E2 key =  40;WhichDrum: S ; velocity: 127
@19080 , @1.0060755813953488 Channel: 1 
Note on, E2 key =  40;WhichDrum: S ; velocity: 0
@19080 , @1.0060755813953488 Channel: 1 
Note on, E2 key =  40;WhichDrum: S ; velocity: 127
@19140 , @1.0092393410852714 Channel: 1 
Note on, E2 key =  40;WhichDrum: S ; velocity: 0
@19140 , @1.0092393410852714 Channel: 1 
Note on, E2 key =  40;WhichDrum: S ; velocity: 127
@19200 , @1.012403100775194 Channel: 1 
Note on, E2 key =  40;WhichDrum: S ; velocity: 0
@19200 , @1.012403100775194 Channel: 1 
Note on, E2 key =  40;WhichDrum: S ; velocity: 127
@19260 , @1.0155668604651162 Channel: 1 
Note on, E2 key =  40;WhichDrum: S ; velocity: 0
@19260 , @1.0155668604651162 Channel: 1 
Note on, E2 key =  40;WhichDrum: S ; velocity: 127
@19320 , @1.0187306201550388 Channel: 1 
Note on, E2 key =  40;WhichDrum: S ; velocity: 0
@19320 , @1.0187306201550388 Channel: 1 
Note on, E2 key =  40;WhichDrum: S ; velocity: 127
@19380 , @1.0218943798449613 Channel: 1 
Note on, E2 key =  40;WhichDrum: S ; velocity: 0
@19380 , @1.0218943798449613 Channel: 1 
Note on, E2 key =  40;WhichDrum: S ; velocity: 127
@19440 , @1.0250581395348837 Channel: 1 
Note on, E2 key =  40;WhichDrum: S ; velocity: 0
@19440 , @1.0250581395348837 Channel: 1 
Note on, B2 key =  47;WhichDrum: T1 ; velocity: 127
@19500 , @1.0282218992248062 Channel: 1 
Note on, B2 key =  47;WhichDrum: T1 ; velocity: 0
@19500 , @1.0282218992248062 Channel: 1 
Note on, A#2 key =  46;WhichDrum: T2 ; velocity: 127
@19560 , @1.0313856589147288 Channel: 1 
Note on, A#2 key =  46;WhichDrum: T2 ; velocity: 0
@19560 , @1.0313856589147288 Channel: 1 
Note on, G3 key =  55;WhichDrum: C2 ; velocity: 127
@19620 , @1.0345494186046513 Channel: 1 
Note on, G3 key =  55;WhichDrum: C2 ; velocity: 0
@19620 , @1.0345494186046513 Channel: 1 
Note on, E3 key =  52;WhichDrum: S ; velocity: 127
@19680 , @1.0377131782945737 Channel: 1 
Note on, E3 key =  52;WhichDrum: S ; velocity: 0
@19680 , @1.0377131782945737 Channel: 1 
Note on, E2 key =  40;WhichDrum: S ; velocity: 127
@19740 , @1.0408769379844962 Channel: 1 
Note on, E2 key =  40;WhichDrum: S ; velocity: 0
@19740 , @1.0408769379844962 Channel: 1 
Note on, E2 key =  40;WhichDrum: S ; velocity: 127
@19800 , @1.0440406976744188 Channel: 1 
Note on, E2 key =  40;WhichDrum: S ; velocity: 0
@19800 , @1.0440406976744188 Channel: 1 
Note on, E2 key =  40;WhichDrum: S ; velocity: 127
@19860 , @1.047204457364341 Channel: 1 
Note on, E2 key =  40;WhichDrum: S ; velocity: 0
@19860 , @1.047204457364341 Channel: 1 
Note on, E2 key =  40;WhichDrum: S ; velocity: 127
@19920 , @1.0503682170542636 Channel: 1 
Note on, E2 key =  40;WhichDrum: S ; velocity: 0
@19920 , @1.0503682170542636 Channel: 1 
Note on, E2 key =  40;WhichDrum: S ; velocity: 127
@19980 , @1.0535319767441862 Channel: 1 
Note on, E2 key =  40;WhichDrum: S ; velocity: 0
@19980 , @1.0535319767441862 Channel: 1 
Note on, E2 key =  40;WhichDrum: S ; velocity: 127
@20040 , @1.0566957364341085 Channel: 1 
Note on, E2 key =  40;WhichDrum: S ; velocity: 0
@20040 , @1.0566957364341085 Channel: 1 
Note on, E2 key =  40;WhichDrum: S ; velocity: 127
@20100 , @1.059859496124031 Channel: 1 
Note on, E2 key =  40;WhichDrum: S ; velocity: 0
@20100 , @1.059859496124031 Channel: 1 
Note on, E2 key =  40;WhichDrum: S ; velocity: 127
@20160 , @1.0630232558139536 Channel: 1 
Note on, E2 key =  40;WhichDrum: S ; velocity: 0
@20160 , @1.0630232558139536 Channel: 1 
Note on, E2 key =  40;WhichDrum: S ; velocity: 127
@20220 , @1.0661870155038762 Channel: 1 
Note on, E2 key =  40;WhichDrum: S ; velocity: 0
@20220 , @1.0661870155038762 Channel: 1 
Note on, E2 key =  40;WhichDrum: S ; velocity: 127
@20280 , @1.0693507751937985 Channel: 1 
Note on, E2 key =  40;WhichDrum: S ; velocity: 0
@20280 , @1.0693507751937985 Channel: 1 
Note on, E2 key =  40;WhichDrum: S ; velocity: 127
@20340 , @1.0725145348837208 Channel: 1 
Note on, E2 key =  40;WhichDrum: S ; velocity: 0
@20340 , @1.0725145348837208 Channel: 1 
Note on, E2 key =  40;WhichDrum: S ; velocity: 127
@20400 , @1.0756782945736434 Channel: 1 
Note on, E2 key =  40;WhichDrum: S ; velocity: 0
@20400 , @1.0756782945736434 Channel: 1 
Note on, B2 key =  47;WhichDrum: T1 ; velocity: 127
@20460 , @1.078842054263566 Channel: 1 
Note on, B2 key =  47;WhichDrum: T1 ; velocity: 0
@20460 , @1.078842054263566 Channel: 1 
Note on, A#2 key =  46;WhichDrum: T2 ; velocity: 127
@20520 , @1.0820058139534883 Channel: 1 
Note on, A#2 key =  46;WhichDrum: T2 ; velocity: 0
@20520 , @1.0820058139534883 Channel: 1 
Note on, G3 key =  55;WhichDrum: C2 ; velocity: 127
@20580 , @1.0851695736434108 Channel: 1 
Note on, G3 key =  55;WhichDrum: C2 ; velocity: 0
@20580 , @1.0851695736434108 Channel: 1 
Note on, E3 key =  52;WhichDrum: S ; velocity: 127
@20640 , @1.0883333333333334 Channel: 1 
Note on, E3 key =  52;WhichDrum: S ; velocity: 0
@20640 , @1.0883333333333334 Channel: 1 
Note on, E2 key =  40;WhichDrum: S ; velocity: 127
@20700 , @1.0914970930232557 Channel: 1 
Note on, E2 key =  40;WhichDrum: S ; velocity: 0
@20700 , @1.0914970930232557 Channel: 1 
Note on, E2 key =  40;WhichDrum: S ; velocity: 127
@20760 , @1.0946608527131783 Channel: 1 
Note on, E2 key =  40;WhichDrum: S ; velocity: 0
@20760 , @1.0946608527131783 Channel: 1 
Note on, E2 key =  40;WhichDrum: S ; velocity: 127
@20820 , @1.0978246124031008 Channel: 1 
Note on, E2 key =  40;WhichDrum: S ; velocity: 0
@20820 , @1.0978246124031008 Channel: 1 
Note on, E2 key =  40;WhichDrum: S ; velocity: 127
@20880 , @1.1009883720930234 Channel: 1 
Note on, E2 key =  40;WhichDrum: S ; velocity: 0
@20880 , @1.1009883720930234 Channel: 1 
Note on, E2 key =  40;WhichDrum: S ; velocity: 127
@20940 , @1.1041521317829457 Channel: 1 
Note on, E2 key =  40;WhichDrum: S ; velocity: 0
@20940 , @1.1041521317829457 Channel: 1 
Note on, E2 key =  40;WhichDrum: S ; velocity: 127
@21000 , @1.1073158914728682 Channel: 1 
Note on, E2 key =  40;WhichDrum: S ; velocity: 0
@21000 , @1.1073158914728682 Channel: 1 
Note on, E2 key =  40;WhichDrum: S ; velocity: 127
@21060 , @1.1104796511627908 Channel: 1 
Note on, E2 key =  40;WhichDrum: S ; velocity: 0
@21060 , @1.1104796511627908 Channel: 1 
Note on, E2 key =  40;WhichDrum: S ; velocity: 127
@21120 , @1.1136434108527131 Channel: 1 
Note on, E2 key =  40;WhichDrum: S ; velocity: 0
@21120 , @1.1136434108527131 Channel: 1 
Note on, E2 key =  40;WhichDrum: S ; velocity: 127
@21180 , @1.1168071705426357 Channel: 1 
Note on, E2 key =  40;WhichDrum: S ; velocity: 0
@21180 , @1.1168071705426357 Channel: 1 
Note on, E2 key =  40;WhichDrum: S ; velocity: 127
@21240 , @1.1199709302325582 Channel: 1 
Note on, E2 key =  40;WhichDrum: S ; velocity: 0
@21240 , @1.1199709302325582 Channel: 1 
Note on, E2 key =  40;WhichDrum: S ; velocity: 127
@21300 , @1.1231346899224806 Channel: 1 
Note on, E2 key =  40;WhichDrum: S ; velocity: 0
@21300 , @1.1231346899224806 Channel: 1 
Note on, E2 key =  40;WhichDrum: S ; velocity: 127
@21360 , @1.126298449612403 Channel: 1 
Note on, E2 key =  40;WhichDrum: S ; velocity: 0
@21360 , @1.126298449612403 Channel: 1 
Note on, B2 key =  47;WhichDrum: T1 ; velocity: 127
@21420 , @1.1294622093023257 Channel: 1 
Note on, B2 key =  47;WhichDrum: T1 ; velocity: 0
@21420 , @1.1294622093023257 Channel: 1 
Note on, A#2 key =  46;WhichDrum: T2 ; velocity: 127
@21480 , @1.1326259689922482 Channel: 1 
Note on, A#2 key =  46;WhichDrum: T2 ; velocity: 0
@21480 , @1.1326259689922482 Channel: 1 
Note on, G3 key =  55;WhichDrum: C2 ; velocity: 127
@21540 , @1.1357897286821705 Channel: 1 
Note on, G3 key =  55;WhichDrum: C2 ; velocity: 0
@21540 , @1.1357897286821705 Channel: 1 
Note on, E3 key =  52;WhichDrum: S ; velocity: 127
@21600 , @1.138953488372093 Channel: 1 
Note on, E3 key =  52;WhichDrum: S ; velocity: 0
@21600 , @1.138953488372093 Channel: 1 
Note on, E2 key =  40;WhichDrum: S ; velocity: 127
@21660 , @1.1421172480620156 Channel: 1 
Note on, E2 key =  40;WhichDrum: S ; velocity: 0
@21660 , @1.1421172480620156 Channel: 1 
Note on, E2 key =  40;WhichDrum: S ; velocity: 127
@21720 , @1.145281007751938 Channel: 1 
Note on, E2 key =  40;WhichDrum: S ; velocity: 0
@21720 , @1.145281007751938 Channel: 1 
Note on, E2 key =  40;WhichDrum: S ; velocity: 127
@21780 , @1.1484447674418605 Channel: 1 
Note on, E2 key =  40;WhichDrum: S ; velocity: 0
@21780 , @1.1484447674418605 Channel: 1 
Note on, E2 key =  40;WhichDrum: S ; velocity: 127
@21840 , @1.151608527131783 Channel: 1 
Note on, E2 key =  40;WhichDrum: S ; velocity: 0
@21840 , @1.151608527131783 Channel: 1 
Note on, E2 key =  40;WhichDrum: S ; velocity: 127
@21900 , @1.1547722868217056 Channel: 1 
Note on, E2 key =  40;WhichDrum: S ; velocity: 0
@21900 , @1.1547722868217056 Channel: 1 
Note on, E2 key =  40;WhichDrum: S ; velocity: 127
@21960 , @1.157936046511628 Channel: 1 
Note on, E2 key =  40;WhichDrum: S ; velocity: 0
@21960 , @1.157936046511628 Channel: 1 
Note on, E2 key =  40;WhichDrum: S ; velocity: 127
@22020 , @1.1610998062015505 Channel: 1 
Note on, E2 key =  40;WhichDrum: S ; velocity: 0
@22020 , @1.1610998062015505 Channel: 1 
Note on, E2 key =  40;WhichDrum: S ; velocity: 127
@22080 , @1.164263565891473 Channel: 1 
Note on, E2 key =  40;WhichDrum: S ; velocity: 0
@22080 , @1.164263565891473 Channel: 1 
Note on, E2 key =  40;WhichDrum: S ; velocity: 127
@22140 , @1.1674273255813954 Channel: 1 
Note on, E2 key =  40;WhichDrum: S ; velocity: 0
@22140 , @1.1674273255813954 Channel: 1 
Note on, E2 key =  40;WhichDrum: S ; velocity: 127
@22200 , @1.170591085271318 Channel: 1 
Note on, E2 key =  40;WhichDrum: S ; velocity: 0
@22200 , @1.170591085271318 Channel: 1 
Note on, E2 key =  40;WhichDrum: S ; velocity: 127
@22260 , @1.1737548449612403 Channel: 1 
Note on, E2 key =  40;WhichDrum: S ; velocity: 0
@22260 , @1.1737548449612403 Channel: 1 
Note on, E2 key =  40;WhichDrum: S ; velocity: 127
@22320 , @1.1769186046511628 Channel: 1 
Note on, E2 key =  40;WhichDrum: S ; velocity: 0
@22320 , @1.1769186046511628 Channel: 1 
Note on, B2 key =  47;WhichDrum: T1 ; velocity: 127
@22380 , @1.1800823643410852 Channel: 1 
Note on, B2 key =  47;WhichDrum: T1 ; velocity: 0
@22380 , @1.1800823643410852 Channel: 1 
Note on, A#2 key =  46;WhichDrum: T2 ; velocity: 127
@22440 , @1.1832461240310077 Channel: 1 
Note on, A#2 key =  46;WhichDrum: T2 ; velocity: 0
@22440 , @1.1832461240310077 Channel: 1 
Note on, G3 key =  55;WhichDrum: C2 ; velocity: 127
@22500 , @1.1864098837209303 Channel: 1 
Note on, G3 key =  55;WhichDrum: C2 ; velocity: 0
@22500 , @1.1864098837209303 Channel: 1 
Note on, E3 key =  52;WhichDrum: S ; velocity: 127
@22560 , @1.1895736434108526 Channel: 1 
Note on, E3 key =  52;WhichDrum: S ; velocity: 0
@22560 , @1.1895736434108526 Channel: 1 
Note on, E2 key =  40;WhichDrum: S ; velocity: 127
@22620 , @1.1927374031007751 Channel: 1 
Note on, E2 key =  40;WhichDrum: S ; velocity: 0
@22620 , @1.1927374031007751 Channel: 1 
Note on, E2 key =  40;WhichDrum: S ; velocity: 127
@22680 , @1.1959011627906977 Channel: 1 
Note on, E2 key =  40;WhichDrum: S ; velocity: 0
@22680 , @1.1959011627906977 Channel: 1 
Note on, E2 key =  40;WhichDrum: S ; velocity: 127
@22740 , @1.1990649224806202 Channel: 1 
Note on, E2 key =  40;WhichDrum: S ; velocity: 0
@22740 , @1.1990649224806202 Channel: 1 
Note on, E2 key =  40;WhichDrum: S ; velocity: 127
@22800 , @1.2022286821705426 Channel: 1 
Note on, E2 key =  40;WhichDrum: S ; velocity: 0
@22800 , @1.2022286821705426 Channel: 1 
Note on, E2 key =  40;WhichDrum: S ; velocity: 127
@22860 , @1.2053924418604651 Channel: 1 
Note on, E2 key =  40;WhichDrum: S ; velocity: 0
@22860 , @1.2053924418604651 Channel: 1 
Note on, E2 key =  40;WhichDrum: S ; velocity: 127
@22920 , @1.2085562015503877 Channel: 1 
Note on, E2 key =  40;WhichDrum: S ; velocity: 0
@22920 , @1.2085562015503877 Channel: 1 
Note on, E2 key =  40;WhichDrum: S ; velocity: 127
@22980 , @1.21171996124031 Channel: 1 
Note on, E2 key =  40;WhichDrum: S ; velocity: 0
@22980 , @1.21171996124031 Channel: 1 
Note on, E2 key =  40;WhichDrum: S ; velocity: 127
@23040 , @1.2148837209302326 Channel: 1 
Note on, E2 key =  40;WhichDrum: S ; velocity: 0
@23040 , @1.2148837209302326 Channel: 1 
Note on, E2 key =  40;WhichDrum: S ; velocity: 127
@23100 , @1.218047480620155 Channel: 1 
Note on, E2 key =  40;WhichDrum: S ; velocity: 0
@23100 , @1.218047480620155 Channel: 1 
Note on, E2 key =  40;WhichDrum: S ; velocity: 127
@23160 , @1.2212112403100777 Channel: 1 
Note on, E2 key =  40;WhichDrum: S ; velocity: 0
@23160 , @1.2212112403100777 Channel: 1 
Note on, E2 key =  40;WhichDrum: S ; velocity: 127
@23220 , @1.224375 Channel: 1 
Note on, E2 key =  40;WhichDrum: S ; velocity: 0
@23220 , @1.224375 Channel: 1 
Note on, E2 key =  40;WhichDrum: S ; velocity: 127
@23280 , @1.2275387596899225 Channel: 1 
Note on, E2 key =  40;WhichDrum: S ; velocity: 0
@23280 , @1.2275387596899225 Channel: 1 
Note on, B2 key =  47;WhichDrum: T1 ; velocity: 127
@23340 , @1.230702519379845 Channel: 1 
Note on, B2 key =  47;WhichDrum: T1 ; velocity: 0
@23340 , @1.230702519379845 Channel: 1 
Note on, A#2 key =  46;WhichDrum: T2 ; velocity: 127
@23400 , @1.2338662790697674 Channel: 1 
Note on, A#2 key =  46;WhichDrum: T2 ; velocity: 0
@23400 , @1.2338662790697674 Channel: 1 
Note on, G3 key =  55;WhichDrum: C2 ; velocity: 127
@23460 , @1.23703003875969 Channel: 1 
Note on, G3 key =  55;WhichDrum: C2 ; velocity: 0
@23460 , @1.23703003875969 Channel: 1 
Note on, E3 key =  52;WhichDrum: S ; velocity: 127
@23520 , @1.2401937984496125 Channel: 1 
Note on, E3 key =  52;WhichDrum: S ; velocity: 0
@23520 , @1.2401937984496125 Channel: 1 
Note on, C4 key =  60;WhichDrum: B ; velocity: 127
@23520 , @1.2401937984496125 Channel: 1 
Note on, G3 key =  55;WhichDrum: C2 ; velocity: 127
@23580 , @1.2433575581395349 Channel: 1 
Note on, C4 key =  60;WhichDrum: B ; velocity: 0
@23580 , @1.2433575581395349 Channel: 1 
Note on, G3 key =  55;WhichDrum: C2 ; velocity: 0
@23580 , @1.2433575581395349 Channel: 1 
Note on, E2 key =  40;WhichDrum: S ; velocity: 127
@23640 , @1.2465213178294574 Channel: 1 
Note on, E2 key =  40;WhichDrum: S ; velocity: 0
@23640 , @1.2465213178294574 Channel: 1 
Note on, E2 key =  40;WhichDrum: S ; velocity: 127
@23700 , @1.24968507751938 Channel: 1 
Note on, E2 key =  40;WhichDrum: S ; velocity: 0
@23700 , @1.24968507751938 Channel: 1 
Note on, E2 key =  40;WhichDrum: S ; velocity: 127
@23760 , @1.2528488372093025 Channel: 1 
Note on, E2 key =  40;WhichDrum: S ; velocity: 0
@23760 , @1.2528488372093025 Channel: 1 
Note on, G3 key =  55;WhichDrum: C2 ; velocity: 127
@23760 , @1.2528488372093025 Channel: 1 
Note on, C4 key =  60;WhichDrum: B ; velocity: 127
@23820 , @1.2560125968992248 Channel: 1 
Note on, G3 key =  55;WhichDrum: C2 ; velocity: 0
@23820 , @1.2560125968992248 Channel: 1 
Note on, C4 key =  60;WhichDrum: B ; velocity: 0
@23820 , @1.2560125968992248 Channel: 1 
Note on, D4 key =  62;WhichDrum: T2 ; velocity: 127
@23820 , @1.2560125968992248 Channel: 1 
Note on, A3 key =  57;WhichDrum: T3 ; velocity: 127
@23880 , @1.2591763565891474 Channel: 1 
Note on, D4 key =  62;WhichDrum: T2 ; velocity: 0
@23880 , @1.2591763565891474 Channel: 1 
Note on, A3 key =  57;WhichDrum: T3 ; velocity: 0
@23880 , @1.2591763565891474 Channel: 1 
Note on, G3 key =  55;WhichDrum: C2 ; velocity: 127
@23880 , @1.2591763565891474 Channel: 1 
Note on, C4 key =  60;WhichDrum: B ; velocity: 127
@24000 , @1.2655038759689923 Channel: 1 
Note on, G3 key =  55;WhichDrum: C2 ; velocity: 0
@24000 , @1.2655038759689923 Channel: 1 
Note on, C4 key =  60;WhichDrum: B ; velocity: 0
@24000 , @1.2655038759689923 Channel: 1 
Note on, C4 key =  60;WhichDrum: B ; velocity: 127
@24000 , @1.2655038759689923 Channel: 1 
Note on, G3 key =  55;WhichDrum: C2 ; velocity: 127
@24060 , @1.2686676356589148 Channel: 1 
Note on, C4 key =  60;WhichDrum: B ; velocity: 0
@24060 , @1.2686676356589148 Channel: 1 
Note on, G3 key =  55;WhichDrum: C2 ; velocity: 0
@24060 , @1.2686676356589148 Channel: 1 
Note on, E2 key =  40;WhichDrum: S ; velocity: 127
@24120 , @1.2718313953488374 Channel: 1 
Note on, E2 key =  40;WhichDrum: S ; velocity: 0
@24120 , @1.2718313953488374 Channel: 1 
Note on, E2 key =  40;WhichDrum: S ; velocity: 127
@24180 , @1.27499515503876 Channel: 1 
Note on, E2 key =  40;WhichDrum: S ; velocity: 0
@24180 , @1.27499515503876 Channel: 1 
Note on, E2 key =  40;WhichDrum: S ; velocity: 127
@24240 , @1.278158914728682 Channel: 1 
Note on, E2 key =  40;WhichDrum: S ; velocity: 0
@24240 , @1.278158914728682 Channel: 1 
Note on, G3 key =  55;WhichDrum: C2 ; velocity: 127
@24240 , @1.278158914728682 Channel: 1 
Note on, C4 key =  60;WhichDrum: B ; velocity: 127
@24300 , @1.2813226744186046 Channel: 1 
Note on, G3 key =  55;WhichDrum: C2 ; velocity: 0
@24300 , @1.2813226744186046 Channel: 1 
Note on, C4 key =  60;WhichDrum: B ; velocity: 0
@24300 , @1.2813226744186046 Channel: 1 
Note on, D4 key =  62;WhichDrum: T2 ; velocity: 127
@24300 , @1.2813226744186046 Channel: 1 
Note on, A3 key =  57;WhichDrum: T3 ; velocity: 127
@24360 , @1.2844864341085271 Channel: 1 
Note on, D4 key =  62;WhichDrum: T2 ; velocity: 0
@24360 , @1.2844864341085271 Channel: 1 
Note on, A3 key =  57;WhichDrum: T3 ; velocity: 0
@24360 , @1.2844864341085271 Channel: 1 
Note on, G3 key =  55;WhichDrum: C2 ; velocity: 127
@24360 , @1.2844864341085271 Channel: 1 
Note on, C4 key =  60;WhichDrum: B ; velocity: 127
@24480 , @1.290813953488372 Channel: 1 
Note on, G3 key =  55;WhichDrum: C2 ; velocity: 0
@24480 , @1.290813953488372 Channel: 1 
Note on, C4 key =  60;WhichDrum: B ; velocity: 0
@24480 , @1.290813953488372 Channel: 1 
Note on, C4 key =  60;WhichDrum: B ; velocity: 127
@24480 , @1.290813953488372 Channel: 1 
Note on, G3 key =  55;WhichDrum: C2 ; velocity: 127
@24540 , @1.2939777131782946 Channel: 1 
Note on, C4 key =  60;WhichDrum: B ; velocity: 0
@24540 , @1.2939777131782946 Channel: 1 
Note on, G3 key =  55;WhichDrum: C2 ; velocity: 0
@24540 , @1.2939777131782946 Channel: 1 
Note on, E2 key =  40;WhichDrum: S ; velocity: 127
@24600 , @1.2971414728682171 Channel: 1 
Note on, E2 key =  40;WhichDrum: S ; velocity: 0
@24600 , @1.2971414728682171 Channel: 1 
Note on, E2 key =  40;WhichDrum: S ; velocity: 127
@24660 , @1.3003052325581395 Channel: 1 
Note on, E2 key =  40;WhichDrum: S ; velocity: 0
@24660 , @1.3003052325581395 Channel: 1 
Note on, E2 key =  40;WhichDrum: S ; velocity: 127
@24720 , @1.303468992248062 Channel: 1 
Note on, E2 key =  40;WhichDrum: S ; velocity: 0
@24720 , @1.303468992248062 Channel: 1 
Note on, G3 key =  55;WhichDrum: C2 ; velocity: 127
@24720 , @1.303468992248062 Channel: 1 
Note on, C4 key =  60;WhichDrum: B ; velocity: 127
@24780 , @1.3066327519379846 Channel: 1 
Note on, G3 key =  55;WhichDrum: C2 ; velocity: 0
@24780 , @1.3066327519379846 Channel: 1 
Note on, C4 key =  60;WhichDrum: B ; velocity: 0
@24780 , @1.3066327519379846 Channel: 1 
Note on, D4 key =  62;WhichDrum: T2 ; velocity: 127
@24780 , @1.3066327519379846 Channel: 1 
Note on, A3 key =  57;WhichDrum: T3 ; velocity: 127
@24840 , @1.309796511627907 Channel: 1 
Note on, D4 key =  62;WhichDrum: T2 ; velocity: 0
@24840 , @1.309796511627907 Channel: 1 
Note on, A3 key =  57;WhichDrum: T3 ; velocity: 0
@24840 , @1.309796511627907 Channel: 1 
Note on, G3 key =  55;WhichDrum: C2 ; velocity: 127
@24840 , @1.309796511627907 Channel: 1 
Note on, C4 key =  60;WhichDrum: B ; velocity: 127
@24960 , @1.316124031007752 Channel: 1 
Note on, G3 key =  55;WhichDrum: C2 ; velocity: 0
@24960 , @1.316124031007752 Channel: 1 
Note on, C4 key =  60;WhichDrum: B ; velocity: 0
@24960 , @1.316124031007752 Channel: 1 
Note on, D4 key =  62;WhichDrum: T2 ; velocity: 127
@25020 , @1.3192877906976745 Channel: 1 
Note on, D4 key =  62;WhichDrum: T2 ; velocity: 0
@25020 , @1.3192877906976745 Channel: 1 
Note on, C4 key =  60;WhichDrum: B ; velocity: 127
@25080 , @1.3224515503875969 Channel: 1 
Note on, C4 key =  60;WhichDrum: B ; velocity: 0
@25080 , @1.3224515503875969 Channel: 1 
Note on, A3 key =  57;WhichDrum: T3 ; velocity: 127
@25140 , @1.3256153100775194 Channel: 1 
Note on, A3 key =  57;WhichDrum: T3 ; velocity: 0
@25140 , @1.3256153100775194 Channel: 1 
Note on, G#3 key =  56;WhichDrum: B ; velocity: 127
@25200 , @1.328779069767442 Channel: 1 
Note on, G#3 key =  56;WhichDrum: B ; velocity: 0
@25200 , @1.328779069767442 Channel: 1 
Note on, G3 key =  55;WhichDrum: C2 ; velocity: 127
@25260 , @1.3319428294573643 Channel: 1 
Note on, G3 key =  55;WhichDrum: C2 ; velocity: 0
@25260 , @1.3319428294573643 Channel: 1 
Note on, E3 key =  52;WhichDrum: S ; velocity: 127
@25320 , @1.3351065891472869 Channel: 1 
Note on, E3 key =  52;WhichDrum: S ; velocity: 0
@25320 , @1.3351065891472869 Channel: 1 
Note on, D#3 key =  51;WhichDrum: T1 ; velocity: 127
@25380 , @1.3382703488372094 Channel: 1 
Note on, D#3 key =  51;WhichDrum: T1 ; velocity: 0
@25380 , @1.3382703488372094 Channel: 1 
Note on, D3 key =  50;WhichDrum: T2 ; velocity: 127
@25440 , @1.341434108527132 Channel: 1 
Note on, D3 key =  50;WhichDrum: T2 ; velocity: 0
@25440 , @1.341434108527132 Channel: 1 
Note on, C4 key =  60;WhichDrum: B ; velocity: 127
@25440 , @1.341434108527132 Channel: 1 
Note on, G3 key =  55;WhichDrum: C2 ; velocity: 127
@25500 , @1.3445978682170543 Channel: 1 
Note on, C4 key =  60;WhichDrum: B ; velocity: 0
@25500 , @1.3445978682170543 Channel: 1 
Note on, G3 key =  55;WhichDrum: C2 ; velocity: 0
@25500 , @1.3445978682170543 Channel: 1 
Note on, E2 key =  40;WhichDrum: S ; velocity: 127
@25560 , @1.3477616279069768 Channel: 1 
Note on, E2 key =  40;WhichDrum: S ; velocity: 0
@25560 , @1.3477616279069768 Channel: 1 
Note on, E2 key =  40;WhichDrum: S ; velocity: 127
@25620 , @1.3509253875968994 Channel: 1 
Note on, E2 key =  40;WhichDrum: S ; velocity: 0
@25620 , @1.3509253875968994 Channel: 1 
Note on, E2 key =  40;WhichDrum: S ; velocity: 127
@25680 , @1.3540891472868217 Channel: 1 
Note on, E2 key =  40;WhichDrum: S ; velocity: 0
@25680 , @1.3540891472868217 Channel: 1 
Note on, G3 key =  55;WhichDrum: C2 ; velocity: 127
@25680 , @1.3540891472868217 Channel: 1 
Note on, C4 key =  60;WhichDrum: B ; velocity: 127
@25740 , @1.3572529069767443 Channel: 1 
Note on, G3 key =  55;WhichDrum: C2 ; velocity: 0
@25740 , @1.3572529069767443 Channel: 1 
Note on, C4 key =  60;WhichDrum: B ; velocity: 0
@25740 , @1.3572529069767443 Channel: 1 
Note on, D4 key =  62;WhichDrum: T2 ; velocity: 127
@25740 , @1.3572529069767443 Channel: 1 
Note on, A3 key =  57;WhichDrum: T3 ; velocity: 127
@25800 , @1.3604166666666668 Channel: 1 
Note on, D4 key =  62;WhichDrum: T2 ; velocity: 0
@25800 , @1.3604166666666668 Channel: 1 
Note on, A3 key =  57;WhichDrum: T3 ; velocity: 0
@25800 , @1.3604166666666668 Channel: 1 
Note on, G3 key =  55;WhichDrum: C2 ; velocity: 127
@25800 , @1.3604166666666668 Channel: 1 
Note on, C4 key =  60;WhichDrum: B ; velocity: 127
@25920 , @1.3667441860465117 Channel: 1 
Note on, G3 key =  55;WhichDrum: C2 ; velocity: 0
@25920 , @1.3667441860465117 Channel: 1 
Note on, C4 key =  60;WhichDrum: B ; velocity: 0
@25920 , @1.3667441860465117 Channel: 1 
Note on, C4 key =  60;WhichDrum: B ; velocity: 127
@25920 , @1.3667441860465117 Channel: 1 
Note on, G3 key =  55;WhichDrum: C2 ; velocity: 127
@25980 , @1.3699079457364343 Channel: 1 
Note on, C4 key =  60;WhichDrum: B ; velocity: 0
@25980 , @1.3699079457364343 Channel: 1 
Note on, G3 key =  55;WhichDrum: C2 ; velocity: 0
@25980 , @1.3699079457364343 Channel: 1 
Note on, E2 key =  40;WhichDrum: S ; velocity: 127
@26040 , @1.3730717054263568 Channel: 1 
Note on, E2 key =  40;WhichDrum: S ; velocity: 0
@26040 , @1.3730717054263568 Channel: 1 
Note on, E2 key =  40;WhichDrum: S ; velocity: 127
@26100 , @1.3762354651162791 Channel: 1 
Note on, E2 key =  40;WhichDrum: S ; velocity: 0
@26100 , @1.3762354651162791 Channel: 1 
Note on, E2 key =  40;WhichDrum: S ; velocity: 127
@26160 , @1.3793992248062015 Channel: 1 
Note on, E2 key =  40;WhichDrum: S ; velocity: 0
@26160 , @1.3793992248062015 Channel: 1 
Note on, G3 key =  55;WhichDrum: C2 ; velocity: 127
@26160 , @1.3793992248062015 Channel: 1 
Note on, C4 key =  60;WhichDrum: B ; velocity: 127
@26220 , @1.382562984496124 Channel: 1 
Note on, G3 key =  55;WhichDrum: C2 ; velocity: 0
@26220 , @1.382562984496124 Channel: 1 
Note on, C4 key =  60;WhichDrum: B ; velocity: 0
@26220 , @1.382562984496124 Channel: 1 
Note on, D4 key =  62;WhichDrum: T2 ; velocity: 127
@26220 , @1.382562984496124 Channel: 1 
Note on, A3 key =  57;WhichDrum: T3 ; velocity: 127
@26280 , @1.3857267441860466 Channel: 1 
Note on, D4 key =  62;WhichDrum: T2 ; velocity: 0
@26280 , @1.3857267441860466 Channel: 1 
Note on, A3 key =  57;WhichDrum: T3 ; velocity: 0
@26280 , @1.3857267441860466 Channel: 1 
Note on, G3 key =  55;WhichDrum: C2 ; velocity: 127
@26280 , @1.3857267441860466 Channel: 1 
Note on, C4 key =  60;WhichDrum: B ; velocity: 127
@26400 , @1.3920542635658915 Channel: 1 
Note on, G3 key =  55;WhichDrum: C2 ; velocity: 0
@26400 , @1.3920542635658915 Channel: 1 
Note on, C4 key =  60;WhichDrum: B ; velocity: 0
@26400 , @1.3920542635658915 Channel: 1 
Note on, C4 key =  60;WhichDrum: B ; velocity: 127
@26400 , @1.3920542635658915 Channel: 1 
Note on, G3 key =  55;WhichDrum: C2 ; velocity: 127
@26460 , @1.395218023255814 Channel: 1 
Note on, C4 key =  60;WhichDrum: B ; velocity: 0
@26460 , @1.395218023255814 Channel: 1 
Note on, G3 key =  55;WhichDrum: C2 ; velocity: 0
@26460 , @1.395218023255814 Channel: 1 
Note on, E2 key =  40;WhichDrum: S ; velocity: 127
@26520 , @1.3983817829457363 Channel: 1 
Note on, E2 key =  40;WhichDrum: S ; velocity: 0
@26520 , @1.3983817829457363 Channel: 1 
Note on, E2 key =  40;WhichDrum: S ; velocity: 127
@26580 , @1.401545542635659 Channel: 1 
Note on, E2 key =  40;WhichDrum: S ; velocity: 0
@26580 , @1.401545542635659 Channel: 1 
Note on, E2 key =  40;WhichDrum: S ; velocity: 127
@26640 , @1.4047093023255814 Channel: 1 
Note on, E2 key =  40;WhichDrum: S ; velocity: 0
@26640 , @1.4047093023255814 Channel: 1 
Note on, G3 key =  55;WhichDrum: C2 ; velocity: 127
@26640 , @1.4047093023255814 Channel: 1 
Note on, C4 key =  60;WhichDrum: B ; velocity: 127
@26700 , @1.407873062015504 Channel: 1 
Note on, G3 key =  55;WhichDrum: C2 ; velocity: 0
@26700 , @1.407873062015504 Channel: 1 
Note on, C4 key =  60;WhichDrum: B ; velocity: 0
@26700 , @1.407873062015504 Channel: 1 
Note on, D4 key =  62;WhichDrum: T2 ; velocity: 127
@26700 , @1.407873062015504 Channel: 1 
Note on, A3 key =  57;WhichDrum: T3 ; velocity: 127
@26760 , @1.4110368217054263 Channel: 1 
Note on, D4 key =  62;WhichDrum: T2 ; velocity: 0
@26760 , @1.4110368217054263 Channel: 1 
Note on, A3 key =  57;WhichDrum: T3 ; velocity: 0
@26760 , @1.4110368217054263 Channel: 1 
Note on, G3 key =  55;WhichDrum: C2 ; velocity: 127
@26760 , @1.4110368217054263 Channel: 1 
Note on, C4 key =  60;WhichDrum: B ; velocity: 127
@26880 , @1.4173643410852714 Channel: 1 
Note on, G3 key =  55;WhichDrum: C2 ; velocity: 0
@26880 , @1.4173643410852714 Channel: 1 
Note on, C4 key =  60;WhichDrum: B ; velocity: 0
@26880 , @1.4173643410852714 Channel: 1 
Note on, E4 key =  64;WhichDrum: S ; velocity: 127
@26940 , @1.4205281007751938 Channel: 1 
Note on, E4 key =  64;WhichDrum: S ; velocity: 0
@26940 , @1.4205281007751938 Channel: 1 
Note on, D4 key =  62;WhichDrum: T2 ; velocity: 127
@27000 , @1.4236918604651163 Channel: 1 
Note on, D4 key =  62;WhichDrum: T2 ; velocity: 0
@27000 , @1.4236918604651163 Channel: 1 
Note on, B3 key =  59;WhichDrum: T1 ; velocity: 127
@27060 , @1.4268556201550389 Channel: 1 
Note on, B3 key =  59;WhichDrum: T1 ; velocity: 0
@27060 , @1.4268556201550389 Channel: 1 
Note on, D4 key =  62;WhichDrum: T2 ; velocity: 127
@27120 , @1.4300193798449612 Channel: 1 
Note on, D4 key =  62;WhichDrum: T2 ; velocity: 0
@27120 , @1.4300193798449612 Channel: 1 
Note on, B3 key =  59;WhichDrum: T1 ; velocity: 127
@27180 , @1.4331831395348837 Channel: 1 
Note on, B3 key =  59;WhichDrum: T1 ; velocity: 0
@27180 , @1.4331831395348837 Channel: 1 
Note on, A#3 key =  58;WhichDrum: T2 ; velocity: 127
@27240 , @1.4363468992248063 Channel: 1 
Note on, A#3 key =  58;WhichDrum: T2 ; velocity: 0
@27240 , @1.4363468992248063 Channel: 1 
Note on, A3 key =  57;WhichDrum: T3 ; velocity: 127
@27300 , @1.4395106589147288 Channel: 1 
Note on, A3 key =  57;WhichDrum: T3 ; velocity: 0
@27300 , @1.4395106589147288 Channel: 1 
Note on, G3 key =  55;WhichDrum: C2 ; velocity: 127
@27360 , @1.4426744186046512 Channel: 1 
Note on, G3 key =  55;WhichDrum: C2 ; velocity: 0
@27360 , @1.4426744186046512 Channel: 1 
Note on, E4 key =  64;WhichDrum: S ; velocity: 127
@27420 , @1.4458381782945737 Channel: 1 
Note on, E4 key =  64;WhichDrum: S ; velocity: 0
@27420 , @1.4458381782945737 Channel: 1 
Note on, D4 key =  62;WhichDrum: T2 ; velocity: 127
@27480 , @1.4490019379844963 Channel: 1 
Note on, D4 key =  62;WhichDrum: T2 ; velocity: 0
@27480 , @1.4490019379844963 Channel: 1 
Note on, B3 key =  59;WhichDrum: T1 ; velocity: 127
@27540 , @1.4521656976744186 Channel: 1 
Note on, B3 key =  59;WhichDrum: T1 ; velocity: 0
@27540 , @1.4521656976744186 Channel: 1 
Note on, D4 key =  62;WhichDrum: T2 ; velocity: 127
@27600 , @1.4553294573643412 Channel: 1 
Note on, D4 key =  62;WhichDrum: T2 ; velocity: 0
@27600 , @1.4553294573643412 Channel: 1 
Note on, B3 key =  59;WhichDrum: T1 ; velocity: 127
@27660 , @1.4584932170542637 Channel: 1 
Note on, B3 key =  59;WhichDrum: T1 ; velocity: 0
@27660 , @1.4584932170542637 Channel: 1 
Note on, A#3 key =  58;WhichDrum: T2 ; velocity: 127
@27720 , @1.4616569767441863 Channel: 1 
Note on, A#3 key =  58;WhichDrum: T2 ; velocity: 0
@27720 , @1.4616569767441863 Channel: 1 
Note on, A3 key =  57;WhichDrum: T3 ; velocity: 127
@27780 , @1.4648207364341086 Channel: 1 
Note on, A3 key =  57;WhichDrum: T3 ; velocity: 0
@27780 , @1.4648207364341086 Channel: 1 
Note on, G3 key =  55;WhichDrum: C2 ; velocity: 127
@27840 , @1.4679844961240311 Channel: 1 
Note on, G3 key =  55;WhichDrum: C2 ; velocity: 0
@27840 , @1.4679844961240311 Channel: 1 
Note on, D4 key =  62;WhichDrum: T2 ; velocity: 127
@27840 , @1.4679844961240311 Channel: 1 
Note on, G3 key =  55;WhichDrum: C2 ; velocity: 127
@28320 , @1.493294573643411 Channel: 1 
Note on, D4 key =  62;WhichDrum: T2 ; velocity: 0
@28320 , @1.493294573643411 Channel: 1 
Note on, G3 key =  55;WhichDrum: C2 ; velocity: 0
@28320 , @1.493294573643411 Channel: 1 
Note on, C#4 key =  61;WhichDrum: T3 ; velocity: 127
@28320 , @1.493294573643411 Channel: 1 
Note on, F#3 key =  54;WhichDrum: C1 ; velocity: 127
@28560 , @1.5059496124031009 Channel: 1 
Note on, C#4 key =  61;WhichDrum: T3 ; velocity: 0
@28560 , @1.5059496124031009 Channel: 1 
Note on, F#3 key =  54;WhichDrum: C1 ; velocity: 0
@28560 , @1.5059496124031009 Channel: 1 
Note on, C4 key =  60;WhichDrum: B ; velocity: 127
@28560 , @1.5059496124031009 Channel: 1 
Note on, F3 key =  53;WhichDrum: HH ; velocity: 127
@28800 , @1.5186046511627906 Channel: 1 
Note on, C4 key =  60;WhichDrum: B ; velocity: 0
@28800 , @1.5186046511627906 Channel: 1 
Note on, F3 key =  53;WhichDrum: HH ; velocity: 0
@28800 , @1.5186046511627906 Channel: 1 
Note on, E2 key =  40;WhichDrum: S ; velocity: 127
@28860 , @1.5217684108527132 Channel: 1 
Note on, E2 key =  40;WhichDrum: S ; velocity: 0
@28860 , @1.5217684108527132 Channel: 1 
Note on, E2 key =  40;WhichDrum: S ; velocity: 127
@28920 , @1.5249321705426357 Channel: 1 
Note on, E2 key =  40;WhichDrum: S ; velocity: 0
@28920 , @1.5249321705426357 Channel: 1 
Note on, E2 key =  40;WhichDrum: S ; velocity: 127
@28980 , @1.5280959302325583 Channel: 1 
Note on, E2 key =  40;WhichDrum: S ; velocity: 0
@28980 , @1.5280959302325583 Channel: 1 
Note on, E2 key =  40;WhichDrum: S ; velocity: 127
@29040 , @1.5312596899224806 Channel: 1 
Note on, E2 key =  40;WhichDrum: S ; velocity: 0
@29040 , @1.5312596899224806 Channel: 1 
Note on, E2 key =  40;WhichDrum: S ; velocity: 127
@29100 , @1.5344234496124032 Channel: 1 
Note on, E2 key =  40;WhichDrum: S ; velocity: 0
@29100 , @1.5344234496124032 Channel: 1 
Note on, E2 key =  40;WhichDrum: S ; velocity: 127
@29160 , @1.5375872093023257 Channel: 1 
Note on, E2 key =  40;WhichDrum: S ; velocity: 0
@29160 , @1.5375872093023257 Channel: 1 
Note on, E2 key =  40;WhichDrum: S ; velocity: 127
@29220 , @1.540750968992248 Channel: 1 
Note on, E2 key =  40;WhichDrum: S ; velocity: 0
@29220 , @1.540750968992248 Channel: 1 
Note on, E2 key =  40;WhichDrum: S ; velocity: 127
@29280 , @1.5439147286821706 Channel: 1 
Note on, E2 key =  40;WhichDrum: S ; velocity: 0
@29280 , @1.5439147286821706 Channel: 1 
Note on, E2 key =  40;WhichDrum: S ; velocity: 127
@29340 , @1.5470784883720932 Channel: 1 
Note on, E2 key =  40;WhichDrum: S ; velocity: 0
@29340 , @1.5470784883720932 Channel: 1 
Note on, E2 key =  40;WhichDrum: S ; velocity: 127
@29400 , @1.5502422480620155 Channel: 1 
Note on, E2 key =  40;WhichDrum: S ; velocity: 0
@29400 , @1.5502422480620155 Channel: 1 
Note on, E2 key =  40;WhichDrum: S ; velocity: 127
@29460 , @1.553406007751938 Channel: 1 
Note on, E2 key =  40;WhichDrum: S ; velocity: 0
@29460 , @1.553406007751938 Channel: 1 
Note on, E2 key =  40;WhichDrum: S ; velocity: 127
@29520 , @1.5565697674418606 Channel: 1 
Note on, E2 key =  40;WhichDrum: S ; velocity: 0
@29520 , @1.5565697674418606 Channel: 1 
Note on, E2 key =  40;WhichDrum: S ; velocity: 127
@29580 , @1.5597335271317831 Channel: 1 
Note on, E2 key =  40;WhichDrum: S ; velocity: 0
@29580 , @1.5597335271317831 Channel: 1 
Note on, E2 key =  40;WhichDrum: S ; velocity: 127
@29640 , @1.5628972868217055 Channel: 1 
Note on, E2 key =  40;WhichDrum: S ; velocity: 0
@29640 , @1.5628972868217055 Channel: 1 
Note on, E2 key =  40;WhichDrum: S ; velocity: 127
@29700 , @1.566061046511628 Channel: 1 
Note on, E2 key =  40;WhichDrum: S ; velocity: 0
@29700 , @1.566061046511628 Channel: 1 
Note on, E2 key =  40;WhichDrum: S ; velocity: 127
@29760 , @1.5692248062015506 Channel: 1 
Note on, E2 key =  40;WhichDrum: S ; velocity: 0
@29760 , @1.5692248062015506 Channel: 1 
Note on, D4 key =  62;WhichDrum: T2 ; velocity: 127
@29760 , @1.5692248062015506 Channel: 1 
Note on, G3 key =  55;WhichDrum: C2 ; velocity: 127
@30240 , @1.5945348837209303 Channel: 1 
Note on, D4 key =  62;WhichDrum: T2 ; velocity: 0
@30240 , @1.5945348837209303 Channel: 1 
Note on, G3 key =  55;WhichDrum: C2 ; velocity: 0
@30240 , @1.5945348837209303 Channel: 1 
Note on, C#4 key =  61;WhichDrum: T3 ; velocity: 127
@30240 , @1.5945348837209303 Channel: 1 
Note on, F#3 key =  54;WhichDrum: C1 ; velocity: 127
@30480 , @1.60718992248062 Channel: 1 
Note on, C#4 key =  61;WhichDrum: T3 ; velocity: 0
@30480 , @1.60718992248062 Channel: 1 
Note on, F#3 key =  54;WhichDrum: C1 ; velocity: 0
@30480 , @1.60718992248062 Channel: 1 
Note on, C4 key =  60;WhichDrum: B ; velocity: 127
@30480 , @1.60718992248062 Channel: 1 
Note on, F3 key =  53;WhichDrum: HH ; velocity: 127
@30720 , @1.61984496124031 Channel: 1 
Note on, C4 key =  60;WhichDrum: B ; velocity: 0
@30720 , @1.61984496124031 Channel: 1 
Note on, F3 key =  53;WhichDrum: HH ; velocity: 0
@30720 , @1.61984496124031 Channel: 1 
Note on, E2 key =  40;WhichDrum: S ; velocity: 127
@30780 , @1.6230087209302326 Channel: 1 
Note on, E2 key =  40;WhichDrum: S ; velocity: 0
@30780 , @1.6230087209302326 Channel: 1 
Note on, E2 key =  40;WhichDrum: S ; velocity: 127
@30840 , @1.6261724806201552 Channel: 1 
Note on, E2 key =  40;WhichDrum: S ; velocity: 0
@30840 , @1.6261724806201552 Channel: 1 
Note on, E2 key =  40;WhichDrum: S ; velocity: 127
@30900 , @1.6293362403100775 Channel: 1 
Note on, E2 key =  40;WhichDrum: S ; velocity: 0
@30900 , @1.6293362403100775 Channel: 1 
Note on, E2 key =  40;WhichDrum: S ; velocity: 127
@30960 , @1.6325 Channel: 1 
Note on, E2 key =  40;WhichDrum: S ; velocity: 0
@30960 , @1.6325 Channel: 1 
Note on, E2 key =  40;WhichDrum: S ; velocity: 127
@31020 , @1.6356637596899226 Channel: 1 
Note on, E2 key =  40;WhichDrum: S ; velocity: 0
@31020 , @1.6356637596899226 Channel: 1 
Note on, E2 key =  40;WhichDrum: S ; velocity: 127
@31080 , @1.638827519379845 Channel: 1 
Note on, E2 key =  40;WhichDrum: S ; velocity: 0
@31080 , @1.638827519379845 Channel: 1 
Note on, E2 key =  40;WhichDrum: S ; velocity: 127
@31140 , @1.6419912790697675 Channel: 1 
Note on, E2 key =  40;WhichDrum: S ; velocity: 0
@31140 , @1.6419912790697675 Channel: 1 
Note on, E2 key =  40;WhichDrum: S ; velocity: 127
@31200 , @1.64515503875969 Channel: 1 
Note on, E2 key =  40;WhichDrum: S ; velocity: 0
@31200 , @1.64515503875969 Channel: 1 
Note on, E2 key =  40;WhichDrum: S ; velocity: 127
@31260 , @1.6483187984496126 Channel: 1 
Note on, E2 key =  40;WhichDrum: S ; velocity: 0
@31260 , @1.6483187984496126 Channel: 1 
Note on, E2 key =  40;WhichDrum: S ; velocity: 127
@31320 , @1.651482558139535 Channel: 1 
Note on, E2 key =  40;WhichDrum: S ; velocity: 0
@31320 , @1.651482558139535 Channel: 1 
Note on, E2 key =  40;WhichDrum: S ; velocity: 127
@31380 , @1.6546463178294575 Channel: 1 
Note on, E2 key =  40;WhichDrum: S ; velocity: 0
@31380 , @1.6546463178294575 Channel: 1 
Note on, E2 key =  40;WhichDrum: S ; velocity: 127
@31440 , @1.65781007751938 Channel: 1 
Note on, E2 key =  40;WhichDrum: S ; velocity: 0
@31440 , @1.65781007751938 Channel: 1 
Note on, E2 key =  40;WhichDrum: S ; velocity: 127
@31500 , @1.6609738372093024 Channel: 1 
Note on, E2 key =  40;WhichDrum: S ; velocity: 0
@31500 , @1.6609738372093024 Channel: 1 
Note on, E2 key =  40;WhichDrum: S ; velocity: 127
@31560 , @1.664137596899225 Channel: 1 
Note on, E2 key =  40;WhichDrum: S ; velocity: 0
@31560 , @1.664137596899225 Channel: 1 
Note on, E2 key =  40;WhichDrum: S ; velocity: 127
@31620 , @1.6673013565891475 Channel: 1 
Note on, E2 key =  40;WhichDrum: S ; velocity: 0
@31620 , @1.6673013565891475 Channel: 1 
Note on, E2 key =  40;WhichDrum: S ; velocity: 127
@31680 , @1.6704651162790698 Channel: 1 
Note on, E2 key =  40;WhichDrum: S ; velocity: 0
@31680 , @1.6704651162790698 Channel: 1 
Note on, D4 key =  62;WhichDrum: T2 ; velocity: 127
@31680 , @1.6704651162790698 Channel: 1 
Note on, G3 key =  55;WhichDrum: C2 ; velocity: 127
@32160 , @1.6957751937984498 Channel: 1 
Note on, D4 key =  62;WhichDrum: T2 ; velocity: 0
@32160 , @1.6957751937984498 Channel: 1 
Note on, G3 key =  55;WhichDrum: C2 ; velocity: 0
@32160 , @1.6957751937984498 Channel: 1 
Note on, C#4 key =  61;WhichDrum: T3 ; velocity: 127
@32160 , @1.6957751937984498 Channel: 1 
Note on, F#3 key =  54;WhichDrum: C1 ; velocity: 127
@32400 , @1.7084302325581397 Channel: 1 
Note on, C#4 key =  61;WhichDrum: T3 ; velocity: 0
@32400 , @1.7084302325581397 Channel: 1 
Note on, F#3 key =  54;WhichDrum: C1 ; velocity: 0
@32400 , @1.7084302325581397 Channel: 1 
Note on, C4 key =  60;WhichDrum: B ; velocity: 127
@32400 , @1.7084302325581397 Channel: 1 
Note on, F3 key =  53;WhichDrum: HH ; velocity: 127
@32640 , @1.7210852713178297 Channel: 1 
Note on, C4 key =  60;WhichDrum: B ; velocity: 0
@32640 , @1.7210852713178297 Channel: 1 
Note on, F3 key =  53;WhichDrum: HH ; velocity: 0
@32640 , @1.7210852713178297 Channel: 1 
Note on, E2 key =  40;WhichDrum: S ; velocity: 127
@32700 , @1.724249031007752 Channel: 1 
Note on, E2 key =  40;WhichDrum: S ; velocity: 0
@32700 , @1.724249031007752 Channel: 1 
Note on, E2 key =  40;WhichDrum: S ; velocity: 127
@32760 , @1.7274127906976746 Channel: 1 
Note on, E2 key =  40;WhichDrum: S ; velocity: 0
@32760 , @1.7274127906976746 Channel: 1 
Note on, E2 key =  40;WhichDrum: S ; velocity: 127
@32820 , @1.7305765503875972 Channel: 1 
Note on, E2 key =  40;WhichDrum: S ; velocity: 0
@32820 , @1.7305765503875972 Channel: 1 
Note on, E2 key =  40;WhichDrum: S ; velocity: 127
@32880 , @1.7337403100775197 Channel: 1 
Note on, E2 key =  40;WhichDrum: S ; velocity: 0
@32880 , @1.7337403100775197 Channel: 1 
Note on, E2 key =  40;WhichDrum: S ; velocity: 127
@32940 , @1.7369040697674418 Channel: 1 
Note on, E2 key =  40;WhichDrum: S ; velocity: 0
@32940 , @1.7369040697674418 Channel: 1 
Note on, E2 key =  40;WhichDrum: S ; velocity: 127
@33000 , @1.7400678294573642 Channel: 1 
Note on, E2 key =  40;WhichDrum: S ; velocity: 0
@33000 , @1.7400678294573642 Channel: 1 
Note on, E2 key =  40;WhichDrum: S ; velocity: 127
@33060 , @1.7432315891472867 Channel: 1 
Note on, E2 key =  40;WhichDrum: S ; velocity: 0
@33060 , @1.7432315891472867 Channel: 1 
Note on, E2 key =  40;WhichDrum: S ; velocity: 127
@33120 , @1.7463953488372093 Channel: 1 
Note on, E2 key =  40;WhichDrum: S ; velocity: 0
@33120 , @1.7463953488372093 Channel: 1 
Note on, E2 key =  40;WhichDrum: S ; velocity: 127
@33180 , @1.7495591085271316 Channel: 1 
Note on, E2 key =  40;WhichDrum: S ; velocity: 0
@33180 , @1.7495591085271316 Channel: 1 
Note on, E2 key =  40;WhichDrum: S ; velocity: 127
@33240 , @1.7527228682170541 Channel: 1 
Note on, E2 key =  40;WhichDrum: S ; velocity: 0
@33240 , @1.7527228682170541 Channel: 1 
Note on, E2 key =  40;WhichDrum: S ; velocity: 127
@33300 , @1.7558866279069767 Channel: 1 
Note on, E2 key =  40;WhichDrum: S ; velocity: 0
@33300 , @1.7558866279069767 Channel: 1 
Note on, E2 key =  40;WhichDrum: S ; velocity: 127
@33360 , @1.7590503875968992 Channel: 1 
Note on, E2 key =  40;WhichDrum: S ; velocity: 0
@33360 , @1.7590503875968992 Channel: 1 
Note on, E2 key =  40;WhichDrum: S ; velocity: 127
@33420 , @1.7622141472868216 Channel: 1 
Note on, E2 key =  40;WhichDrum: S ; velocity: 0
@33420 , @1.7622141472868216 Channel: 1 
Note on, E2 key =  40;WhichDrum: S ; velocity: 127
@33480 , @1.7653779069767441 Channel: 1 
Note on, E2 key =  40;WhichDrum: S ; velocity: 0
@33480 , @1.7653779069767441 Channel: 1 
Note on, E2 key =  40;WhichDrum: S ; velocity: 127
@33540 , @1.7685416666666667 Channel: 1 
Note on, E2 key =  40;WhichDrum: S ; velocity: 0
@33540 , @1.7685416666666667 Channel: 1 
Note on, E2 key =  40;WhichDrum: S ; velocity: 127
@33600 , @1.771705426356589 Channel: 1 
Note on, E2 key =  40;WhichDrum: S ; velocity: 0
@33600 , @1.771705426356589 Channel: 1 
Note on, D4 key =  62;WhichDrum: T2 ; velocity: 127
@33600 , @1.771705426356589 Channel: 1 
Note on, G3 key =  55;WhichDrum: C2 ; velocity: 127
@34080 , @1.797015503875969 Channel: 1 
Note on, D4 key =  62;WhichDrum: T2 ; velocity: 0
@34080 , @1.797015503875969 Channel: 1 
Note on, G3 key =  55;WhichDrum: C2 ; velocity: 0
@34080 , @1.797015503875969 Channel: 1 
Note on, C#4 key =  61;WhichDrum: T3 ; velocity: 127
@34080 , @1.797015503875969 Channel: 1 
Note on, F#3 key =  54;WhichDrum: C1 ; velocity: 127
@34320 , @1.809670542635659 Channel: 1 
Note on, C#4 key =  61;WhichDrum: T3 ; velocity: 0
@34320 , @1.809670542635659 Channel: 1 
Note on, F#3 key =  54;WhichDrum: C1 ; velocity: 0
@34320 , @1.809670542635659 Channel: 1 
Note on, C4 key =  60;WhichDrum: B ; velocity: 127
@34320 , @1.809670542635659 Channel: 1 
Note on, F3 key =  53;WhichDrum: HH ; velocity: 127
@34560 , @1.822325581395349 Channel: 1 
Note on, C4 key =  60;WhichDrum: B ; velocity: 0
@34560 , @1.822325581395349 Channel: 1 
Note on, F3 key =  53;WhichDrum: HH ; velocity: 0
@34560 , @1.822325581395349 Channel: 1 
Note on, E2 key =  40;WhichDrum: S ; velocity: 127
@34620 , @1.8254893410852713 Channel: 1 
Note on, E2 key =  40;WhichDrum: S ; velocity: 0
@34620 , @1.8254893410852713 Channel: 1 
Note on, E2 key =  40;WhichDrum: S ; velocity: 127
@34680 , @1.8286531007751938 Channel: 1 
Note on, E2 key =  40;WhichDrum: S ; velocity: 0
@34680 , @1.8286531007751938 Channel: 1 
Note on, E2 key =  40;WhichDrum: S ; velocity: 127
@34740 , @1.8318168604651164 Channel: 1 
Note on, E2 key =  40;WhichDrum: S ; velocity: 0
@34740 , @1.8318168604651164 Channel: 1 
Note on, E2 key =  40;WhichDrum: S ; velocity: 127
@34800 , @1.834980620155039 Channel: 1 
Note on, E2 key =  40;WhichDrum: S ; velocity: 0
@34800 , @1.834980620155039 Channel: 1 
Note on, G3 key =  55;WhichDrum: C2 ; velocity: 127
@34800 , @1.834980620155039 Channel: 1 
Note on, D3 key =  50;WhichDrum: T2 ; velocity: 127
@34860 , @1.8381443798449613 Channel: 1 
Note on, G3 key =  55;WhichDrum: C2 ; velocity: 0
@34860 , @1.8381443798449613 Channel: 1 
Note on, D3 key =  50;WhichDrum: T2 ; velocity: 0
@34860 , @1.8381443798449613 Channel: 1 
Note on, E3 key =  52;WhichDrum: S ; velocity: 127
@34860 , @1.8381443798449613 Channel: 1 
Note on, A3 key =  57;WhichDrum: T3 ; velocity: 127
@34920 , @1.8413081395348838 Channel: 1 
Note on, E3 key =  52;WhichDrum: S ; velocity: 0
@34920 , @1.8413081395348838 Channel: 1 
Note on, A3 key =  57;WhichDrum: T3 ; velocity: 0
@34920 , @1.8413081395348838 Channel: 1 
Note on, D3 key =  50;WhichDrum: T2 ; velocity: 127
@34920 , @1.8413081395348838 Channel: 1 
Note on, G3 key =  55;WhichDrum: C2 ; velocity: 127
@34980 , @1.8444718992248064 Channel: 1 
Note on, D3 key =  50;WhichDrum: T2 ; velocity: 0
@34980 , @1.8444718992248064 Channel: 1 
Note on, G3 key =  55;WhichDrum: C2 ; velocity: 0
@34980 , @1.8444718992248064 Channel: 1 
Note on, A3 key =  57;WhichDrum: T3 ; velocity: 127
@34980 , @1.8444718992248064 Channel: 1 
Note on, E3 key =  52;WhichDrum: S ; velocity: 127
@35040 , @1.8476356589147287 Channel: 1 
Note on, A3 key =  57;WhichDrum: T3 ; velocity: 0
@35040 , @1.8476356589147287 Channel: 1 
Note on, E3 key =  52;WhichDrum: S ; velocity: 0
@35040 , @1.8476356589147287 Channel: 1 
Note on, E2 key =  40;WhichDrum: S ; velocity: 127
@35100 , @1.8507994186046512 Channel: 1 
Note on, E2 key =  40;WhichDrum: S ; velocity: 0
@35100 , @1.8507994186046512 Channel: 1 
Note on, E2 key =  40;WhichDrum: S ; velocity: 127
@35160 , @1.8539631782945738 Channel: 1 
Note on, E2 key =  40;WhichDrum: S ; velocity: 0
@35160 , @1.8539631782945738 Channel: 1 
Note on, E2 key =  40;WhichDrum: S ; velocity: 127
@35220 , @1.8571269379844961 Channel: 1 
Note on, E2 key =  40;WhichDrum: S ; velocity: 0
@35220 , @1.8571269379844961 Channel: 1 
Note on, E2 key =  40;WhichDrum: S ; velocity: 127
@35280 , @1.8602906976744187 Channel: 1 
Note on, E2 key =  40;WhichDrum: S ; velocity: 0
@35280 , @1.8602906976744187 Channel: 1 
Note on, E3 key =  52;WhichDrum: S ; velocity: 127
@35340 , @1.8634544573643412 Channel: 1 
Note on, E3 key =  52;WhichDrum: S ; velocity: 0
@35340 , @1.8634544573643412 Channel: 1 
Note on, D3 key =  50;WhichDrum: T2 ; velocity: 127
@35400 , @1.8666182170542638 Channel: 1 
Note on, D3 key =  50;WhichDrum: T2 ; velocity: 0
@35400 , @1.8666182170542638 Channel: 1 
Note on, B2 key =  47;WhichDrum: T1 ; velocity: 127
@35460 , @1.8697819767441861 Channel: 1 
Note on, B2 key =  47;WhichDrum: T1 ; velocity: 0
@35460 , @1.8697819767441861 Channel: 1 
Note on, A#2 key =  46;WhichDrum: T2 ; velocity: 127
@35520 , @1.8729457364341087 Channel: 1 
Note on, A#2 key =  46;WhichDrum: T2 ; velocity: 0
@35520 , @1.8729457364341087 Channel: 1 
Note on, E2 key =  40;WhichDrum: S ; velocity: 127
@35580 , @1.8761094961240312 Channel: 1 
Note on, E2 key =  40;WhichDrum: S ; velocity: 0
@35580 , @1.8761094961240312 Channel: 1 
Note on, E2 key =  40;WhichDrum: S ; velocity: 127
@35640 , @1.8792732558139535 Channel: 1 
Note on, E2 key =  40;WhichDrum: S ; velocity: 0
@35640 , @1.8792732558139535 Channel: 1 
Note on, E2 key =  40;WhichDrum: S ; velocity: 127
@35700 , @1.882437015503876 Channel: 1 
Note on, E2 key =  40;WhichDrum: S ; velocity: 0
@35700 , @1.882437015503876 Channel: 1 
Note on, E2 key =  40;WhichDrum: S ; velocity: 127
@35760 , @1.8856007751937987 Channel: 1 
Note on, E2 key =  40;WhichDrum: S ; velocity: 0
@35760 , @1.8856007751937987 Channel: 1 
Note on, G3 key =  55;WhichDrum: C2 ; velocity: 127
@35760 , @1.8856007751937987 Channel: 1 
Note on, D3 key =  50;WhichDrum: T2 ; velocity: 127
@35820 , @1.8887645348837212 Channel: 1 
Note on, G3 key =  55;WhichDrum: C2 ; velocity: 0
@35820 , @1.8887645348837212 Channel: 1 
Note on, D3 key =  50;WhichDrum: T2 ; velocity: 0
@35820 , @1.8887645348837212 Channel: 1 
Note on, E3 key =  52;WhichDrum: S ; velocity: 127
@35820 , @1.8887645348837212 Channel: 1 
Note on, A3 key =  57;WhichDrum: T3 ; velocity: 127
@35880 , @1.8919282945736435 Channel: 1 
Note on, E3 key =  52;WhichDrum: S ; velocity: 0
@35880 , @1.8919282945736435 Channel: 1 
Note on, A3 key =  57;WhichDrum: T3 ; velocity: 0
@35880 , @1.8919282945736435 Channel: 1 
Note on, D3 key =  50;WhichDrum: T2 ; velocity: 127
@35880 , @1.8919282945736435 Channel: 1 
Note on, G3 key =  55;WhichDrum: C2 ; velocity: 127
@35940 , @1.895092054263566 Channel: 1 
Note on, D3 key =  50;WhichDrum: T2 ; velocity: 0
@35940 , @1.895092054263566 Channel: 1 
Note on, G3 key =  55;WhichDrum: C2 ; velocity: 0
@35940 , @1.895092054263566 Channel: 1 
Note on, A3 key =  57;WhichDrum: T3 ; velocity: 127
@35940 , @1.895092054263566 Channel: 1 
Note on, E3 key =  52;WhichDrum: S ; velocity: 127
@36000 , @1.8982558139534886 Channel: 1 
Note on, A3 key =  57;WhichDrum: T3 ; velocity: 0
@36000 , @1.8982558139534886 Channel: 1 
Note on, E3 key =  52;WhichDrum: S ; velocity: 0
@36000 , @1.8982558139534886 Channel: 1 
Note on, E2 key =  40;WhichDrum: S ; velocity: 127
@36060 , @1.901419573643411 Channel: 1 
Note on, E2 key =  40;WhichDrum: S ; velocity: 0
@36060 , @1.901419573643411 Channel: 1 
Note on, E2 key =  40;WhichDrum: S ; velocity: 127
@36120 , @1.9045833333333335 Channel: 1 
Note on, E2 key =  40;WhichDrum: S ; velocity: 0
@36120 , @1.9045833333333335 Channel: 1 
Note on, E2 key =  40;WhichDrum: S ; velocity: 127
@36180 , @1.907747093023256 Channel: 1 
Note on, E2 key =  40;WhichDrum: S ; velocity: 0
@36180 , @1.907747093023256 Channel: 1 
Note on, E2 key =  40;WhichDrum: S ; velocity: 127
@36240 , @1.9109108527131784 Channel: 1 
Note on, E2 key =  40;WhichDrum: S ; velocity: 0
@36240 , @1.9109108527131784 Channel: 1 
Note on, E3 key =  52;WhichDrum: S ; velocity: 127
@36300 , @1.914074612403101 Channel: 1 
Note on, E3 key =  52;WhichDrum: S ; velocity: 0
@36300 , @1.914074612403101 Channel: 1 
Note on, D3 key =  50;WhichDrum: T2 ; velocity: 127
@36360 , @1.9172383720930235 Channel: 1 
Note on, D3 key =  50;WhichDrum: T2 ; velocity: 0
@36360 , @1.9172383720930235 Channel: 1 
Note on, B2 key =  47;WhichDrum: T1 ; velocity: 127
@36420 , @1.920402131782946 Channel: 1 
Note on, B2 key =  47;WhichDrum: T1 ; velocity: 0
@36420 , @1.920402131782946 Channel: 1 
Note on, A#2 key =  46;WhichDrum: T2 ; velocity: 127
@36480 , @1.9235658914728684 Channel: 1 
Note on, A#2 key =  46;WhichDrum: T2 ; velocity: 0
@36480 , @1.9235658914728684 Channel: 1 
Note on, E2 key =  40;WhichDrum: S ; velocity: 127
@36540 , @1.926729651162791 Channel: 1 
Note on, E2 key =  40;WhichDrum: S ; velocity: 0
@36540 , @1.926729651162791 Channel: 1 
Note on, E2 key =  40;WhichDrum: S ; velocity: 127
@36600 , @1.9298934108527135 Channel: 1 
Note on, E2 key =  40;WhichDrum: S ; velocity: 0
@36600 , @1.9298934108527135 Channel: 1 
Note on, E2 key =  40;WhichDrum: S ; velocity: 127
@36660 , @1.9330571705426358 Channel: 1 
Note on, E2 key =  40;WhichDrum: S ; velocity: 0
@36660 , @1.9330571705426358 Channel: 1 
Note on, E2 key =  40;WhichDrum: S ; velocity: 127
@36720 , @1.9362209302325584 Channel: 1 
Note on, E2 key =  40;WhichDrum: S ; velocity: 0
@36720 , @1.9362209302325584 Channel: 1 
Note on, G3 key =  55;WhichDrum: C2 ; velocity: 127
@36720 , @1.9362209302325584 Channel: 1 
Note on, D3 key =  50;WhichDrum: T2 ; velocity: 127
@36780 , @1.9393846899224805 Channel: 1 
Note on, G3 key =  55;WhichDrum: C2 ; velocity: 0
@36780 , @1.9393846899224805 Channel: 1 
Note on, D3 key =  50;WhichDrum: T2 ; velocity: 0
@36780 , @1.9393846899224805 Channel: 1 
Note on, E3 key =  52;WhichDrum: S ; velocity: 127
@36780 , @1.9393846899224805 Channel: 1 
Note on, A3 key =  57;WhichDrum: T3 ; velocity: 127
@36840 , @1.942548449612403 Channel: 1 
Note on, E3 key =  52;WhichDrum: S ; velocity: 0
@36840 , @1.942548449612403 Channel: 1 
Note on, A3 key =  57;WhichDrum: T3 ; velocity: 0
@36840 , @1.942548449612403 Channel: 1 
Note on, D3 key =  50;WhichDrum: T2 ; velocity: 127
@36840 , @1.942548449612403 Channel: 1 
Note on, G3 key =  55;WhichDrum: C2 ; velocity: 127
@36900 , @1.9457122093023256 Channel: 1 
Note on, D3 key =  50;WhichDrum: T2 ; velocity: 0
@36900 , @1.9457122093023256 Channel: 1 
Note on, G3 key =  55;WhichDrum: C2 ; velocity: 0
@36900 , @1.9457122093023256 Channel: 1 
Note on, A3 key =  57;WhichDrum: T3 ; velocity: 127
@36900 , @1.9457122093023256 Channel: 1 
Note on, E3 key =  52;WhichDrum: S ; velocity: 127
@36960 , @1.948875968992248 Channel: 1 
Note on, A3 key =  57;WhichDrum: T3 ; velocity: 0
@36960 , @1.948875968992248 Channel: 1 
Note on, E3 key =  52;WhichDrum: S ; velocity: 0
@36960 , @1.948875968992248 Channel: 1 
Note on, E2 key =  40;WhichDrum: S ; velocity: 127
@37020 , @1.9520397286821705 Channel: 1 
Note on, E2 key =  40;WhichDrum: S ; velocity: 0
@37020 , @1.9520397286821705 Channel: 1 
Note on, E2 key =  40;WhichDrum: S ; velocity: 127
@37080 , @1.955203488372093 Channel: 1 
Note on, E2 key =  40;WhichDrum: S ; velocity: 0
@37080 , @1.955203488372093 Channel: 1 
Note on, E2 key =  40;WhichDrum: S ; velocity: 127
@37140 , @1.9583672480620153 Channel: 1 
Note on, E2 key =  40;WhichDrum: S ; velocity: 0
@37140 , @1.9583672480620153 Channel: 1 
Note on, E2 key =  40;WhichDrum: S ; velocity: 127
@37200 , @1.961531007751938 Channel: 1 
Note on, E2 key =  40;WhichDrum: S ; velocity: 0
@37200 , @1.961531007751938 Channel: 1 
Note on, E3 key =  52;WhichDrum: S ; velocity: 127
@37260 , @1.9646947674418604 Channel: 1 
Note on, E3 key =  52;WhichDrum: S ; velocity: 0
@37260 , @1.9646947674418604 Channel: 1 
Note on, D3 key =  50;WhichDrum: T2 ; velocity: 127
@37320 , @1.967858527131783 Channel: 1 
Note on, D3 key =  50;WhichDrum: T2 ; velocity: 0
@37320 , @1.967858527131783 Channel: 1 
Note on, B2 key =  47;WhichDrum: T1 ; velocity: 127
@37380 , @1.9710222868217053 Channel: 1 
Note on, B2 key =  47;WhichDrum: T1 ; velocity: 0
@37380 , @1.9710222868217053 Channel: 1 
Note on, A#2 key =  46;WhichDrum: T2 ; velocity: 127
@37440 , @1.9741860465116279 Channel: 1 
Note on, A#2 key =  46;WhichDrum: T2 ; velocity: 0
@37440 , @1.9741860465116279 Channel: 1 
Note on, E2 key =  40;WhichDrum: S ; velocity: 127
@37500 , @1.9773498062015504 Channel: 1 
Note on, E2 key =  40;WhichDrum: S ; velocity: 0
@37500 , @1.9773498062015504 Channel: 1 
Note on, E2 key =  40;WhichDrum: S ; velocity: 127
@37560 , @1.9805135658914728 Channel: 1 
Note on, E2 key =  40;WhichDrum: S ; velocity: 0
@37560 , @1.9805135658914728 Channel: 1 
Note on, E2 key =  40;WhichDrum: S ; velocity: 127
@37620 , @1.9836773255813953 Channel: 1 
Note on, E2 key =  40;WhichDrum: S ; velocity: 0
@37620 , @1.9836773255813953 Channel: 1 
Note on, E2 key =  40;WhichDrum: S ; velocity: 127
@37680 , @1.9868410852713179 Channel: 1 
Note on, E2 key =  40;WhichDrum: S ; velocity: 0
@37680 , @1.9868410852713179 Channel: 1 
Note on, G3 key =  55;WhichDrum: C2 ; velocity: 127
@37680 , @1.9868410852713179 Channel: 1 
Note on, D3 key =  50;WhichDrum: T2 ; velocity: 127
@37740 , @1.9900048449612402 Channel: 1 
Note on, G3 key =  55;WhichDrum: C2 ; velocity: 0
@37740 , @1.9900048449612402 Channel: 1 
Note on, D3 key =  50;WhichDrum: T2 ; velocity: 0
@37740 , @1.9900048449612402 Channel: 1 
Note on, E3 key =  52;WhichDrum: S ; velocity: 127
@37740 , @1.9900048449612402 Channel: 1 
Note on, A3 key =  57;WhichDrum: T3 ; velocity: 127
@37800 , @1.9931686046511627 Channel: 1 
Note on, E3 key =  52;WhichDrum: S ; velocity: 0
@37800 , @1.9931686046511627 Channel: 1 
Note on, A3 key =  57;WhichDrum: T3 ; velocity: 0
@37800 , @1.9931686046511627 Channel: 1 
Note on, D3 key =  50;WhichDrum: T2 ; velocity: 127
@37800 , @1.9931686046511627 Channel: 1 
Note on, G3 key =  55;WhichDrum: C2 ; velocity: 127
@37860 , @1.9963323643410853 Channel: 1 
Note on, D3 key =  50;WhichDrum: T2 ; velocity: 0
@37860 , @1.9963323643410853 Channel: 1 
Note on, G3 key =  55;WhichDrum: C2 ; velocity: 0
@37860 , @1.9963323643410853 Channel: 1 
Note on, A3 key =  57;WhichDrum: T3 ; velocity: 127
@37860 , @1.9963323643410853 Channel: 1 
Note on, E3 key =  52;WhichDrum: S ; velocity: 127
@37920 , @1.9994961240310078 Channel: 1 
Note on, A3 key =  57;WhichDrum: T3 ; velocity: 0
@37920 , @1.9994961240310078 Channel: 1 
Note on, E3 key =  52;WhichDrum: S ; velocity: 0
@37920 , @1.9994961240310078 Channel: 1 
Note on, E2 key =  40;WhichDrum: S ; velocity: 127
@37980 , @2.00265988372093 Channel: 1 
Note on, E2 key =  40;WhichDrum: S ; velocity: 0
@37980 , @2.00265988372093 Channel: 1 
Note on, E2 key =  40;WhichDrum: S ; velocity: 127
@38040 , @2.0058236434108525 Channel: 1 
Note on, E2 key =  40;WhichDrum: S ; velocity: 0
@38040 , @2.0058236434108525 Channel: 1 
Note on, E2 key =  40;WhichDrum: S ; velocity: 127
@38100 , @2.0089874031007753 Channel: 1 
Note on, E2 key =  40;WhichDrum: S ; velocity: 0
@38100 , @2.0089874031007753 Channel: 1 
Note on, E2 key =  40;WhichDrum: S ; velocity: 127
@38160 , @2.0121511627906976 Channel: 1 
Note on, E2 key =  40;WhichDrum: S ; velocity: 0
@38160 , @2.0121511627906976 Channel: 1 
Note on, E3 key =  52;WhichDrum: S ; velocity: 127
@38220 , @2.0153149224806204 Channel: 1 
Note on, E3 key =  52;WhichDrum: S ; velocity: 0
@38220 , @2.0153149224806204 Channel: 1 
Note on, D3 key =  50;WhichDrum: T2 ; velocity: 127
@38280 , @2.0184786821705427 Channel: 1 
Note on, D3 key =  50;WhichDrum: T2 ; velocity: 0
@38280 , @2.0184786821705427 Channel: 1 
Note on, B2 key =  47;WhichDrum: T1 ; velocity: 127
@38340 , @2.021642441860465 Channel: 1 
Note on, B2 key =  47;WhichDrum: T1 ; velocity: 0
@38340 , @2.021642441860465 Channel: 1 
Note on, A#2 key =  46;WhichDrum: T2 ; velocity: 127
@38400 , @2.024806201550388 Channel: 1 
Note on, A#2 key =  46;WhichDrum: T2 ; velocity: 0
@38400 , @2.024806201550388 Channel: 1 
Note on, E2 key =  40;WhichDrum: S ; velocity: 127
@38460 , @2.02796996124031 Channel: 1 
Note on, E2 key =  40;WhichDrum: S ; velocity: 0
@38460 , @2.02796996124031 Channel: 1 
Note on, E2 key =  40;WhichDrum: S ; velocity: 127
@38520 , @2.0311337209302325 Channel: 1 
Note on, E2 key =  40;WhichDrum: S ; velocity: 0
@38520 , @2.0311337209302325 Channel: 1 
Note on, E2 key =  40;WhichDrum: S ; velocity: 127
@38580 , @2.0342974806201553 Channel: 1 
Note on, E2 key =  40;WhichDrum: S ; velocity: 0
@38580 , @2.0342974806201553 Channel: 1 
Note on, E2 key =  40;WhichDrum: S ; velocity: 127
@38640 , @2.0374612403100776 Channel: 1 
Note on, E2 key =  40;WhichDrum: S ; velocity: 0
@38640 , @2.0374612403100776 Channel: 1 
Note on, E2 key =  40;WhichDrum: S ; velocity: 127
@38700 , @2.040625 Channel: 1 
Note on, E2 key =  40;WhichDrum: S ; velocity: 0
@38700 , @2.040625 Channel: 1 
Note on, E2 key =  40;WhichDrum: S ; velocity: 127
@38760 , @2.0437887596899227 Channel: 1 
Note on, E2 key =  40;WhichDrum: S ; velocity: 0
@38760 , @2.0437887596899227 Channel: 1 
Note on, E2 key =  40;WhichDrum: S ; velocity: 127
@38820 , @2.046952519379845 Channel: 1 
Note on, E2 key =  40;WhichDrum: S ; velocity: 0
@38820 , @2.046952519379845 Channel: 1 
Note on, E2 key =  40;WhichDrum: S ; velocity: 127
@38880 , @2.0501162790697673 Channel: 1 
Note on, E2 key =  40;WhichDrum: S ; velocity: 0
@38880 , @2.0501162790697673 Channel: 1 
Note on, E2 key =  40;WhichDrum: S ; velocity: 127
@38940 , @2.05328003875969 Channel: 1 
Note on, E2 key =  40;WhichDrum: S ; velocity: 0
@38940 , @2.05328003875969 Channel: 1 
Note on, E2 key =  40;WhichDrum: S ; velocity: 127
@39000 , @2.0564437984496124 Channel: 1 
Note on, E2 key =  40;WhichDrum: S ; velocity: 0
@39000 , @2.0564437984496124 Channel: 1 
Note on, E2 key =  40;WhichDrum: S ; velocity: 127
@39060 , @2.0596075581395348 Channel: 1 
Note on, E2 key =  40;WhichDrum: S ; velocity: 0
@39060 , @2.0596075581395348 Channel: 1 
Note on, E2 key =  40;WhichDrum: S ; velocity: 127
@39120 , @2.0627713178294576 Channel: 1 
Note on, E2 key =  40;WhichDrum: S ; velocity: 0
@39120 , @2.0627713178294576 Channel: 1 
Note on, B2 key =  47;WhichDrum: T1 ; velocity: 127
@39180 , @2.06593507751938 Channel: 1 
Note on, B2 key =  47;WhichDrum: T1 ; velocity: 0
@39180 , @2.06593507751938 Channel: 1 
Note on, A#2 key =  46;WhichDrum: T2 ; velocity: 127
@39240 , @2.0690988372093027 Channel: 1 
Note on, A#2 key =  46;WhichDrum: T2 ; velocity: 0
@39240 , @2.0690988372093027 Channel: 1 
Note on, G3 key =  55;WhichDrum: C2 ; velocity: 127
@39300 , @2.072262596899225 Channel: 1 
Note on, G3 key =  55;WhichDrum: C2 ; velocity: 0
@39300 , @2.072262596899225 Channel: 1 
Note on, E3 key =  52;WhichDrum: S ; velocity: 127
@39360 , @2.0754263565891473 Channel: 1 
Note on, E3 key =  52;WhichDrum: S ; velocity: 0
@39360 , @2.0754263565891473 Channel: 1 
Note on, E2 key =  40;WhichDrum: S ; velocity: 127
@39420 , @2.07859011627907 Channel: 1 
Note on, E2 key =  40;WhichDrum: S ; velocity: 0
@39420 , @2.07859011627907 Channel: 1 
Note on, E2 key =  40;WhichDrum: S ; velocity: 127
@39480 , @2.0817538759689924 Channel: 1 
Note on, E2 key =  40;WhichDrum: S ; velocity: 0
@39480 , @2.0817538759689924 Channel: 1 
Note on, E2 key =  40;WhichDrum: S ; velocity: 127
@39540 , @2.0849176356589147 Channel: 1 
Note on, E2 key =  40;WhichDrum: S ; velocity: 0
@39540 , @2.0849176356589147 Channel: 1 
Note on, E2 key =  40;WhichDrum: S ; velocity: 127
@39600 , @2.0880813953488375 Channel: 1 
Note on, E2 key =  40;WhichDrum: S ; velocity: 0
@39600 , @2.0880813953488375 Channel: 1 
Note on, E2 key =  40;WhichDrum: S ; velocity: 127
@39660 , @2.09124515503876 Channel: 1 
Note on, E2 key =  40;WhichDrum: S ; velocity: 0
@39660 , @2.09124515503876 Channel: 1 
Note on, E2 key =  40;WhichDrum: S ; velocity: 127
@39720 , @2.094408914728682 Channel: 1 
Note on, E2 key =  40;WhichDrum: S ; velocity: 0
@39720 , @2.094408914728682 Channel: 1 
Note on, E2 key =  40;WhichDrum: S ; velocity: 127
@39780 , @2.097572674418605 Channel: 1 
Note on, E2 key =  40;WhichDrum: S ; velocity: 0
@39780 , @2.097572674418605 Channel: 1 
Note on, E2 key =  40;WhichDrum: S ; velocity: 127
@39840 , @2.1007364341085273 Channel: 1 
Note on, E2 key =  40;WhichDrum: S ; velocity: 0
@39840 , @2.1007364341085273 Channel: 1 
Note on, E2 key =  40;WhichDrum: S ; velocity: 127
@39900 , @2.1039001937984496 Channel: 1 
Note on, E2 key =  40;WhichDrum: S ; velocity: 0
@39900 , @2.1039001937984496 Channel: 1 
Note on, E2 key =  40;WhichDrum: S ; velocity: 127
@39960 , @2.1070639534883724 Channel: 1 
Note on, E2 key =  40;WhichDrum: S ; velocity: 0
@39960 , @2.1070639534883724 Channel: 1 
Note on, E2 key =  40;WhichDrum: S ; velocity: 127
@40020 , @2.1102277131782947 Channel: 1 
Note on, E2 key =  40;WhichDrum: S ; velocity: 0
@40020 , @2.1102277131782947 Channel: 1 
Note on, E2 key =  40;WhichDrum: S ; velocity: 127
@40080 , @2.113391472868217 Channel: 1 
Note on, E2 key =  40;WhichDrum: S ; velocity: 0
@40080 , @2.113391472868217 Channel: 1 
Note on, B2 key =  47;WhichDrum: T1 ; velocity: 127
@40140 , @2.11655523255814 Channel: 1 
Note on, B2 key =  47;WhichDrum: T1 ; velocity: 0
@40140 , @2.11655523255814 Channel: 1 
Note on, A#2 key =  46;WhichDrum: T2 ; velocity: 127
@40200 , @2.119718992248062 Channel: 1 
Note on, A#2 key =  46;WhichDrum: T2 ; velocity: 0
@40200 , @2.119718992248062 Channel: 1 
Note on, G3 key =  55;WhichDrum: C2 ; velocity: 127
@40260 , @2.122882751937985 Channel: 1 
Note on, G3 key =  55;WhichDrum: C2 ; velocity: 0
@40260 , @2.122882751937985 Channel: 1 
Note on, E3 key =  52;WhichDrum: S ; velocity: 127
@40320 , @2.1260465116279073 Channel: 1 
Note on, E3 key =  52;WhichDrum: S ; velocity: 0
@40320 , @2.1260465116279073 Channel: 1 
Note on, E2 key =  40;WhichDrum: S ; velocity: 127
@40380 , @2.1292102713178296 Channel: 1 
Note on, E2 key =  40;WhichDrum: S ; velocity: 0
@40380 , @2.1292102713178296 Channel: 1 
Note on, E2 key =  40;WhichDrum: S ; velocity: 127
@40440 , @2.1323740310077524 Channel: 1 
Note on, E2 key =  40;WhichDrum: S ; velocity: 0
@40440 , @2.1323740310077524 Channel: 1 
Note on, E2 key =  40;WhichDrum: S ; velocity: 127
@40500 , @2.1355377906976747 Channel: 1 
Note on, E2 key =  40;WhichDrum: S ; velocity: 0
@40500 , @2.1355377906976747 Channel: 1 
Note on, E2 key =  40;WhichDrum: S ; velocity: 127
@40560 , @2.138701550387597 Channel: 1 
Note on, E2 key =  40;WhichDrum: S ; velocity: 0
@40560 , @2.138701550387597 Channel: 1 
Note on, E2 key =  40;WhichDrum: S ; velocity: 127
@40620 , @2.14186531007752 Channel: 1 
Note on, E2 key =  40;WhichDrum: S ; velocity: 0
@40620 , @2.14186531007752 Channel: 1 
Note on, E2 key =  40;WhichDrum: S ; velocity: 127
@40680 , @2.1450290697674417 Channel: 1 
Note on, E2 key =  40;WhichDrum: S ; velocity: 0
@40680 , @2.1450290697674417 Channel: 1 
Note on, E2 key =  40;WhichDrum: S ; velocity: 127
@40740 , @2.1481928294573645 Channel: 1 
Note on, E2 key =  40;WhichDrum: S ; velocity: 0
@40740 , @2.1481928294573645 Channel: 1 
Note on, E2 key =  40;WhichDrum: S ; velocity: 127
@40800 , @2.151356589147287 Channel: 1 
Note on, E2 key =  40;WhichDrum: S ; velocity: 0
@40800 , @2.151356589147287 Channel: 1 
Note on, E2 key =  40;WhichDrum: S ; velocity: 127
@40860 , @2.154520348837209 Channel: 1 
Note on, E2 key =  40;WhichDrum: S ; velocity: 0
@40860 , @2.154520348837209 Channel: 1 
Note on, E2 key =  40;WhichDrum: S ; velocity: 127
@40920 , @2.157684108527132 Channel: 1 
Note on, E2 key =  40;WhichDrum: S ; velocity: 0
@40920 , @2.157684108527132 Channel: 1 
Note on, E2 key =  40;WhichDrum: S ; velocity: 127
@40980 , @2.160847868217054 Channel: 1 
Note on, E2 key =  40;WhichDrum: S ; velocity: 0
@40980 , @2.160847868217054 Channel: 1 
Note on, E2 key =  40;WhichDrum: S ; velocity: 127
@41040 , @2.1640116279069765 Channel: 1 
Note on, E2 key =  40;WhichDrum: S ; velocity: 0
@41040 , @2.1640116279069765 Channel: 1 
Note on, B2 key =  47;WhichDrum: T1 ; velocity: 127
@41100 , @2.1671753875968993 Channel: 1 
Note on, B2 key =  47;WhichDrum: T1 ; velocity: 0
@41100 , @2.1671753875968993 Channel: 1 
Note on, A#2 key =  46;WhichDrum: T2 ; velocity: 127
@41160 , @2.1703391472868216 Channel: 1 
Note on, A#2 key =  46;WhichDrum: T2 ; velocity: 0
@41160 , @2.1703391472868216 Channel: 1 
Note on, G3 key =  55;WhichDrum: C2 ; velocity: 127
@41220 , @2.173502906976744 Channel: 1 
Note on, G3 key =  55;WhichDrum: C2 ; velocity: 0
@41220 , @2.173502906976744 Channel: 1 
Note on, E3 key =  52;WhichDrum: S ; velocity: 127
@41280 , @2.1766666666666667 Channel: 1 
Note on, E3 key =  52;WhichDrum: S ; velocity: 0
@41280 , @2.1766666666666667 Channel: 1 
Note on, E2 key =  40;WhichDrum: S ; velocity: 127
@41340 , @2.179830426356589 Channel: 1 
Note on, E2 key =  40;WhichDrum: S ; velocity: 0
@41340 , @2.179830426356589 Channel: 1 
Note on, E2 key =  40;WhichDrum: S ; velocity: 127
@41400 , @2.1829941860465114 Channel: 1 
Note on, E2 key =  40;WhichDrum: S ; velocity: 0
@41400 , @2.1829941860465114 Channel: 1 
Note on, E2 key =  40;WhichDrum: S ; velocity: 127
@41460 , @2.186157945736434 Channel: 1 
Note on, E2 key =  40;WhichDrum: S ; velocity: 0
@41460 , @2.186157945736434 Channel: 1 
Note on, E2 key =  40;WhichDrum: S ; velocity: 127
@41520 , @2.1893217054263565 Channel: 1 
Note on, E2 key =  40;WhichDrum: S ; velocity: 0
@41520 , @2.1893217054263565 Channel: 1 
Note on, E2 key =  40;WhichDrum: S ; velocity: 127
@41580 , @2.192485465116279 Channel: 1 
Note on, E2 key =  40;WhichDrum: S ; velocity: 0
@41580 , @2.192485465116279 Channel: 1 
Note on, E2 key =  40;WhichDrum: S ; velocity: 127
@41640 , @2.1956492248062016 Channel: 1 
Note on, E2 key =  40;WhichDrum: S ; velocity: 0
@41640 , @2.1956492248062016 Channel: 1 
Note on, E2 key =  40;WhichDrum: S ; velocity: 127
@41700 , @2.198812984496124 Channel: 1 
Note on, E2 key =  40;WhichDrum: S ; velocity: 0
@41700 , @2.198812984496124 Channel: 1 
Note on, E2 key =  40;WhichDrum: S ; velocity: 127
@41760 , @2.2019767441860467 Channel: 1 
Note on, E2 key =  40;WhichDrum: S ; velocity: 0
@41760 , @2.2019767441860467 Channel: 1 
Note on, E2 key =  40;WhichDrum: S ; velocity: 127
@41820 , @2.205140503875969 Channel: 1 
Note on, E2 key =  40;WhichDrum: S ; velocity: 0
@41820 , @2.205140503875969 Channel: 1 
Note on, E2 key =  40;WhichDrum: S ; velocity: 127
@41880 , @2.2083042635658914 Channel: 1 
Note on, E2 key =  40;WhichDrum: S ; velocity: 0
@41880 , @2.2083042635658914 Channel: 1 
Note on, E2 key =  40;WhichDrum: S ; velocity: 127
@41940 , @2.211468023255814 Channel: 1 
Note on, E2 key =  40;WhichDrum: S ; velocity: 0
@41940 , @2.211468023255814 Channel: 1 
Note on, E2 key =  40;WhichDrum: S ; velocity: 127
@42000 , @2.2146317829457365 Channel: 1 
Note on, E2 key =  40;WhichDrum: S ; velocity: 0
@42000 , @2.2146317829457365 Channel: 1 
Note on, B2 key =  47;WhichDrum: T1 ; velocity: 127
@42060 , @2.217795542635659 Channel: 1 
Note on, B2 key =  47;WhichDrum: T1 ; velocity: 0
@42060 , @2.217795542635659 Channel: 1 
Note on, A#2 key =  46;WhichDrum: T2 ; velocity: 127
@42120 , @2.2209593023255816 Channel: 1 
Note on, A#2 key =  46;WhichDrum: T2 ; velocity: 0
@42120 , @2.2209593023255816 Channel: 1 
Note on, G3 key =  55;WhichDrum: C2 ; velocity: 127
@42180 , @2.224123062015504 Channel: 1 
Note on, G3 key =  55;WhichDrum: C2 ; velocity: 0
@42180 , @2.224123062015504 Channel: 1 
Note on, E3 key =  52;WhichDrum: S ; velocity: 127
@42240 , @2.2272868217054262 Channel: 1 
Note on, E3 key =  52;WhichDrum: S ; velocity: 0
@42240 , @2.2272868217054262 Channel: 1 
Note on, C4 key =  60;WhichDrum: B ; velocity: 127
@42240 , @2.2272868217054262 Channel: 1 
Note on, G3 key =  55;WhichDrum: C2 ; velocity: 127
@42300 , @2.230450581395349 Channel: 1 
Note on, C4 key =  60;WhichDrum: B ; velocity: 0
@42300 , @2.230450581395349 Channel: 1 
Note on, G3 key =  55;WhichDrum: C2 ; velocity: 0
@42300 , @2.230450581395349 Channel: 1 
Note on, E2 key =  40;WhichDrum: S ; velocity: 127
@42360 , @2.2336143410852713 Channel: 1 
Note on, E2 key =  40;WhichDrum: S ; velocity: 0
@42360 , @2.2336143410852713 Channel: 1 
Note on, E2 key =  40;WhichDrum: S ; velocity: 127
@42420 , @2.2367781007751937 Channel: 1 
Note on, E2 key =  40;WhichDrum: S ; velocity: 0
@42420 , @2.2367781007751937 Channel: 1 
Note on, E2 key =  40;WhichDrum: S ; velocity: 127
@42480 , @2.2399418604651165 Channel: 1 
Note on, E2 key =  40;WhichDrum: S ; velocity: 0
@42480 , @2.2399418604651165 Channel: 1 
Note on, G3 key =  55;WhichDrum: C2 ; velocity: 127
@42480 , @2.2399418604651165 Channel: 1 
Note on, C4 key =  60;WhichDrum: B ; velocity: 127
@42540 , @2.243105620155039 Channel: 1 
Note on, G3 key =  55;WhichDrum: C2 ; velocity: 0
@42540 , @2.243105620155039 Channel: 1 
Note on, C4 key =  60;WhichDrum: B ; velocity: 0
@42540 , @2.243105620155039 Channel: 1 
Note on, D4 key =  62;WhichDrum: T2 ; velocity: 127
@42540 , @2.243105620155039 Channel: 1 
Note on, A3 key =  57;WhichDrum: T3 ; velocity: 127
@42600 , @2.246269379844961 Channel: 1 
Note on, D4 key =  62;WhichDrum: T2 ; velocity: 0
@42600 , @2.246269379844961 Channel: 1 
Note on, A3 key =  57;WhichDrum: T3 ; velocity: 0
@42600 , @2.246269379844961 Channel: 1 
Note on, G3 key =  55;WhichDrum: C2 ; velocity: 127
@42600 , @2.246269379844961 Channel: 1 
Note on, C4 key =  60;WhichDrum: B ; velocity: 127
@42720 , @2.252596899224806 Channel: 1 
Note on, G3 key =  55;WhichDrum: C2 ; velocity: 0
@42720 , @2.252596899224806 Channel: 1 
Note on, C4 key =  60;WhichDrum: B ; velocity: 0
@42720 , @2.252596899224806 Channel: 1 
Note on, C4 key =  60;WhichDrum: B ; velocity: 127
@42720 , @2.252596899224806 Channel: 1 
Note on, G3 key =  55;WhichDrum: C2 ; velocity: 127
@42780 , @2.255760658914729 Channel: 1 
Note on, C4 key =  60;WhichDrum: B ; velocity: 0
@42780 , @2.255760658914729 Channel: 1 
Note on, G3 key =  55;WhichDrum: C2 ; velocity: 0
@42780 , @2.255760658914729 Channel: 1 
Note on, E2 key =  40;WhichDrum: S ; velocity: 127
@42840 , @2.2589244186046513 Channel: 1 
Note on, E2 key =  40;WhichDrum: S ; velocity: 0
@42840 , @2.2589244186046513 Channel: 1 
Note on, E2 key =  40;WhichDrum: S ; velocity: 127
@42900 , @2.2620881782945736 Channel: 1 
Note on, E2 key =  40;WhichDrum: S ; velocity: 0
@42900 , @2.2620881782945736 Channel: 1 
Note on, E2 key =  40;WhichDrum: S ; velocity: 127
@42960 , @2.2652519379844964 Channel: 1 
Note on, E2 key =  40;WhichDrum: S ; velocity: 0
@42960 , @2.2652519379844964 Channel: 1 
Note on, G3 key =  55;WhichDrum: C2 ; velocity: 127
@42960 , @2.2652519379844964 Channel: 1 
Note on, C4 key =  60;WhichDrum: B ; velocity: 127
@43020 , @2.2684156976744188 Channel: 1 
Note on, G3 key =  55;WhichDrum: C2 ; velocity: 0
@43020 , @2.2684156976744188 Channel: 1 
Note on, C4 key =  60;WhichDrum: B ; velocity: 0
@43020 , @2.2684156976744188 Channel: 1 
Note on, D4 key =  62;WhichDrum: T2 ; velocity: 127
@43020 , @2.2684156976744188 Channel: 1 
Note on, A3 key =  57;WhichDrum: T3 ; velocity: 127
@43080 , @2.271579457364341 Channel: 1 
Note on, D4 key =  62;WhichDrum: T2 ; velocity: 0
@43080 , @2.271579457364341 Channel: 1 
Note on, A3 key =  57;WhichDrum: T3 ; velocity: 0
@43080 , @2.271579457364341 Channel: 1 
Note on, G3 key =  55;WhichDrum: C2 ; velocity: 127
@43080 , @2.271579457364341 Channel: 1 
Note on, C4 key =  60;WhichDrum: B ; velocity: 127
@43200 , @2.277906976744186 Channel: 1 
Note on, G3 key =  55;WhichDrum: C2 ; velocity: 0
@43200 , @2.277906976744186 Channel: 1 
Note on, C4 key =  60;WhichDrum: B ; velocity: 0
@43200 , @2.277906976744186 Channel: 1 
Note on, C4 key =  60;WhichDrum: B ; velocity: 127
@43200 , @2.277906976744186 Channel: 1 
Note on, G3 key =  55;WhichDrum: C2 ; velocity: 127
@43260 , @2.2810707364341085 Channel: 1 
Note on, C4 key =  60;WhichDrum: B ; velocity: 0
@43260 , @2.2810707364341085 Channel: 1 
Note on, G3 key =  55;WhichDrum: C2 ; velocity: 0
@43260 , @2.2810707364341085 Channel: 1 
Note on, E2 key =  40;WhichDrum: S ; velocity: 127
@43320 , @2.2842344961240313 Channel: 1 
Note on, E2 key =  40;WhichDrum: S ; velocity: 0
@43320 , @2.2842344961240313 Channel: 1 
Note on, E2 key =  40;WhichDrum: S ; velocity: 127
@43380 , @2.2873982558139536 Channel: 1 
Note on, E2 key =  40;WhichDrum: S ; velocity: 0
@43380 , @2.2873982558139536 Channel: 1 
Note on, E2 key =  40;WhichDrum: S ; velocity: 127
@43440 , @2.290562015503876 Channel: 1 
Note on, E2 key =  40;WhichDrum: S ; velocity: 0
@43440 , @2.290562015503876 Channel: 1 
Note on, G3 key =  55;WhichDrum: C2 ; velocity: 127
@43440 , @2.290562015503876 Channel: 1 
Note on, C4 key =  60;WhichDrum: B ; velocity: 127
@43500 , @2.2937257751937987 Channel: 1 
Note on, G3 key =  55;WhichDrum: C2 ; velocity: 0
@43500 , @2.2937257751937987 Channel: 1 
Note on, C4 key =  60;WhichDrum: B ; velocity: 0
@43500 , @2.2937257751937987 Channel: 1 
Note on, D4 key =  62;WhichDrum: T2 ; velocity: 127
@43500 , @2.2937257751937987 Channel: 1 
Note on, A3 key =  57;WhichDrum: T3 ; velocity: 127
@43560 , @2.296889534883721 Channel: 1 
Note on, D4 key =  62;WhichDrum: T2 ; velocity: 0
@43560 , @2.296889534883721 Channel: 1 
Note on, A3 key =  57;WhichDrum: T3 ; velocity: 0
@43560 , @2.296889534883721 Channel: 1 
Note on, G3 key =  55;WhichDrum: C2 ; velocity: 127
@43560 , @2.296889534883721 Channel: 1 
Note on, C4 key =  60;WhichDrum: B ; velocity: 127
@43680 , @2.303217054263566 Channel: 1 
Note on, G3 key =  55;WhichDrum: C2 ; velocity: 0
@43680 , @2.303217054263566 Channel: 1 
Note on, C4 key =  60;WhichDrum: B ; velocity: 0
@43680 , @2.303217054263566 Channel: 1 
Note on, D4 key =  62;WhichDrum: T2 ; velocity: 127
@43740 , @2.3063808139534885 Channel: 1 
Note on, D4 key =  62;WhichDrum: T2 ; velocity: 0
@43740 , @2.3063808139534885 Channel: 1 
Note on, C4 key =  60;WhichDrum: B ; velocity: 127
@43800 , @2.3095445736434113 Channel: 1 
Note on, C4 key =  60;WhichDrum: B ; velocity: 0
@43800 , @2.3095445736434113 Channel: 1 
Note on, A3 key =  57;WhichDrum: T3 ; velocity: 127
@43860 , @2.3127083333333336 Channel: 1 
Note on, A3 key =  57;WhichDrum: T3 ; velocity: 0
@43860 , @2.3127083333333336 Channel: 1 
Note on, G#3 key =  56;WhichDrum: B ; velocity: 127
@43920 , @2.315872093023256 Channel: 1 
Note on, G#3 key =  56;WhichDrum: B ; velocity: 0
@43920 , @2.315872093023256 Channel: 1 
Note on, G3 key =  55;WhichDrum: C2 ; velocity: 127
@43980 , @2.3190358527131787 Channel: 1 
Note on, G3 key =  55;WhichDrum: C2 ; velocity: 0
@43980 , @2.3190358527131787 Channel: 1 
Note on, E3 key =  52;WhichDrum: S ; velocity: 127
@44040 , @2.322199612403101 Channel: 1 
Note on, E3 key =  52;WhichDrum: S ; velocity: 0
@44040 , @2.322199612403101 Channel: 1 
Note on, D#3 key =  51;WhichDrum: T1 ; velocity: 127
@44100 , @2.3253633720930234 Channel: 1 
Note on, D#3 key =  51;WhichDrum: T1 ; velocity: 0
@44100 , @2.3253633720930234 Channel: 1 
Note on, D3 key =  50;WhichDrum: T2 ; velocity: 127
@44160 , @2.328527131782946 Channel: 1 
Note on, D3 key =  50;WhichDrum: T2 ; velocity: 0
@44160 , @2.328527131782946 Channel: 1 
Note on, C4 key =  60;WhichDrum: B ; velocity: 127
@44160 , @2.328527131782946 Channel: 1 
Note on, G3 key =  55;WhichDrum: C2 ; velocity: 127
@44220 , @2.3316908914728685 Channel: 1 
Note on, C4 key =  60;WhichDrum: B ; velocity: 0
@44220 , @2.3316908914728685 Channel: 1 
Note on, G3 key =  55;WhichDrum: C2 ; velocity: 0
@44220 , @2.3316908914728685 Channel: 1 
Note on, E2 key =  40;WhichDrum: S ; velocity: 127
@44280 , @2.334854651162791 Channel: 1 
Note on, E2 key =  40;WhichDrum: S ; velocity: 0
@44280 , @2.334854651162791 Channel: 1 
Note on, E2 key =  40;WhichDrum: S ; velocity: 127
@44340 , @2.3380184108527136 Channel: 1 
Note on, E2 key =  40;WhichDrum: S ; velocity: 0
@44340 , @2.3380184108527136 Channel: 1 
Note on, E2 key =  40;WhichDrum: S ; velocity: 127
@44400 , @2.341182170542636 Channel: 1 
Note on, E2 key =  40;WhichDrum: S ; velocity: 0
@44400 , @2.341182170542636 Channel: 1 
Note on, G3 key =  55;WhichDrum: C2 ; velocity: 127
@44400 , @2.341182170542636 Channel: 1 
Note on, C4 key =  60;WhichDrum: B ; velocity: 127
@44460 , @2.344345930232558 Channel: 1 
Note on, G3 key =  55;WhichDrum: C2 ; velocity: 0
@44460 , @2.344345930232558 Channel: 1 
Note on, C4 key =  60;WhichDrum: B ; velocity: 0
@44460 , @2.344345930232558 Channel: 1 
Note on, D4 key =  62;WhichDrum: T2 ; velocity: 127
@44460 , @2.344345930232558 Channel: 1 
Note on, A3 key =  57;WhichDrum: T3 ; velocity: 127
@44520 , @2.3475096899224805 Channel: 1 
Note on, D4 key =  62;WhichDrum: T2 ; velocity: 0
@44520 , @2.3475096899224805 Channel: 1 
Note on, A3 key =  57;WhichDrum: T3 ; velocity: 0
@44520 , @2.3475096899224805 Channel: 1 
Note on, G3 key =  55;WhichDrum: C2 ; velocity: 127
@44520 , @2.3475096899224805 Channel: 1 
Note on, C4 key =  60;WhichDrum: B ; velocity: 127
@44640 , @2.3538372093023257 Channel: 1 
Note on, G3 key =  55;WhichDrum: C2 ; velocity: 0
@44640 , @2.3538372093023257 Channel: 1 
Note on, C4 key =  60;WhichDrum: B ; velocity: 0
@44640 , @2.3538372093023257 Channel: 1 
Note on, C4 key =  60;WhichDrum: B ; velocity: 127
@44640 , @2.3538372093023257 Channel: 1 
Note on, G3 key =  55;WhichDrum: C2 ; velocity: 127
@44700 , @2.357000968992248 Channel: 1 
Note on, C4 key =  60;WhichDrum: B ; velocity: 0
@44700 , @2.357000968992248 Channel: 1 
Note on, G3 key =  55;WhichDrum: C2 ; velocity: 0
@44700 , @2.357000968992248 Channel: 1 
Note on, E2 key =  40;WhichDrum: S ; velocity: 127
@44760 , @2.3601647286821703 Channel: 1 
Note on, E2 key =  40;WhichDrum: S ; velocity: 0
@44760 , @2.3601647286821703 Channel: 1 
Note on, E2 key =  40;WhichDrum: S ; velocity: 127
@44820 , @2.363328488372093 Channel: 1 
Note on, E2 key =  40;WhichDrum: S ; velocity: 0
@44820 , @2.363328488372093 Channel: 1 
Note on, E2 key =  40;WhichDrum: S ; velocity: 127
@44880 , @2.3664922480620154 Channel: 1 
Note on, E2 key =  40;WhichDrum: S ; velocity: 0
@44880 , @2.3664922480620154 Channel: 1 
Note on, G3 key =  55;WhichDrum: C2 ; velocity: 127
@44880 , @2.3664922480620154 Channel: 1 
Note on, C4 key =  60;WhichDrum: B ; velocity: 127
@44940 , @2.3696560077519377 Channel: 1 
Note on, G3 key =  55;WhichDrum: C2 ; velocity: 0
@44940 , @2.3696560077519377 Channel: 1 
Note on, C4 key =  60;WhichDrum: B ; velocity: 0
@44940 , @2.3696560077519377 Channel: 1 
Note on, D4 key =  62;WhichDrum: T2 ; velocity: 127
@44940 , @2.3696560077519377 Channel: 1 
Note on, A3 key =  57;WhichDrum: T3 ; velocity: 127
@45000 , @2.3728197674418605 Channel: 1 
Note on, D4 key =  62;WhichDrum: T2 ; velocity: 0
@45000 , @2.3728197674418605 Channel: 1 
Note on, A3 key =  57;WhichDrum: T3 ; velocity: 0
@45000 , @2.3728197674418605 Channel: 1 
Note on, G3 key =  55;WhichDrum: C2 ; velocity: 127
@45000 , @2.3728197674418605 Channel: 1 
Note on, C4 key =  60;WhichDrum: B ; velocity: 127
@45120 , @2.379147286821705 Channel: 1 
Note on, G3 key =  55;WhichDrum: C2 ; velocity: 0
@45120 , @2.379147286821705 Channel: 1 
Note on, C4 key =  60;WhichDrum: B ; velocity: 0
@45120 , @2.379147286821705 Channel: 1 
Note on, C4 key =  60;WhichDrum: B ; velocity: 127
@45120 , @2.379147286821705 Channel: 1 
Note on, G3 key =  55;WhichDrum: C2 ; velocity: 127
@45180 , @2.382311046511628 Channel: 1 
Note on, C4 key =  60;WhichDrum: B ; velocity: 0
@45180 , @2.382311046511628 Channel: 1 
Note on, G3 key =  55;WhichDrum: C2 ; velocity: 0
@45180 , @2.382311046511628 Channel: 1 
Note on, E2 key =  40;WhichDrum: S ; velocity: 127
@45240 , @2.3854748062015503 Channel: 1 
Note on, E2 key =  40;WhichDrum: S ; velocity: 0
@45240 , @2.3854748062015503 Channel: 1 
Note on, E2 key =  40;WhichDrum: S ; velocity: 127
@45300 , @2.388638565891473 Channel: 1 
Note on, E2 key =  40;WhichDrum: S ; velocity: 0
@45300 , @2.388638565891473 Channel: 1 
Note on, E2 key =  40;WhichDrum: S ; velocity: 127
@45360 , @2.3918023255813954 Channel: 1 
Note on, E2 key =  40;WhichDrum: S ; velocity: 0
@45360 , @2.3918023255813954 Channel: 1 
Note on, G3 key =  55;WhichDrum: C2 ; velocity: 127
@45360 , @2.3918023255813954 Channel: 1 
Note on, C4 key =  60;WhichDrum: B ; velocity: 127
@45420 , @2.3949660852713177 Channel: 1 
Note on, G3 key =  55;WhichDrum: C2 ; velocity: 0
@45420 , @2.3949660852713177 Channel: 1 
Note on, C4 key =  60;WhichDrum: B ; velocity: 0
@45420 , @2.3949660852713177 Channel: 1 
Note on, D4 key =  62;WhichDrum: T2 ; velocity: 127
@45420 , @2.3949660852713177 Channel: 1 
Note on, A3 key =  57;WhichDrum: T3 ; velocity: 127
@45480 , @2.3981298449612405 Channel: 1 
Note on, D4 key =  62;WhichDrum: T2 ; velocity: 0
@45480 , @2.3981298449612405 Channel: 1 
Note on, A3 key =  57;WhichDrum: T3 ; velocity: 0
@45480 , @2.3981298449612405 Channel: 1 
Note on, G3 key =  55;WhichDrum: C2 ; velocity: 127
@45480 , @2.3981298449612405 Channel: 1 
Note on, C4 key =  60;WhichDrum: B ; velocity: 127
@45600 , @2.404457364341085 Channel: 1 
Note on, G3 key =  55;WhichDrum: C2 ; velocity: 0
@45600 , @2.404457364341085 Channel: 1 
Note on, C4 key =  60;WhichDrum: B ; velocity: 0
@45600 , @2.404457364341085 Channel: 1 
Note on, E4 key =  64;WhichDrum: S ; velocity: 127
@45660 , @2.407621124031008 Channel: 1 
Note on, E4 key =  64;WhichDrum: S ; velocity: 0
@45660 , @2.407621124031008 Channel: 1 
Note on, D4 key =  62;WhichDrum: T2 ; velocity: 127
@45720 , @2.4107848837209302 Channel: 1 
Note on, D4 key =  62;WhichDrum: T2 ; velocity: 0
@45720 , @2.4107848837209302 Channel: 1 
Note on, B3 key =  59;WhichDrum: T1 ; velocity: 127
@45780 , @2.4139486434108526 Channel: 1 
Note on, B3 key =  59;WhichDrum: T1 ; velocity: 0
@45780 , @2.4139486434108526 Channel: 1 
Note on, D4 key =  62;WhichDrum: T2 ; velocity: 127
@45840 , @2.4171124031007754 Channel: 1 
Note on, D4 key =  62;WhichDrum: T2 ; velocity: 0
@45840 , @2.4171124031007754 Channel: 1 
Note on, B3 key =  59;WhichDrum: T1 ; velocity: 127
@45900 , @2.4202761627906977 Channel: 1 
Note on, B3 key =  59;WhichDrum: T1 ; velocity: 0
@45900 , @2.4202761627906977 Channel: 1 
Note on, A#3 key =  58;WhichDrum: T2 ; velocity: 127
@45960 , @2.42343992248062 Channel: 1 
Note on, A#3 key =  58;WhichDrum: T2 ; velocity: 0
@45960 , @2.42343992248062 Channel: 1 
Note on, A3 key =  57;WhichDrum: T3 ; velocity: 127
@46020 , @2.426603682170543 Channel: 1 
Note on, A3 key =  57;WhichDrum: T3 ; velocity: 0
@46020 , @2.426603682170543 Channel: 1 
Note on, G3 key =  55;WhichDrum: C2 ; velocity: 127
@46080 , @2.429767441860465 Channel: 1 
Note on, G3 key =  55;WhichDrum: C2 ; velocity: 0
@46080 , @2.429767441860465 Channel: 1 
Note on, E4 key =  64;WhichDrum: S ; velocity: 127
@46140 , @2.4329312015503874 Channel: 1 
Note on, E4 key =  64;WhichDrum: S ; velocity: 0
@46140 , @2.4329312015503874 Channel: 1 
Note on, D4 key =  62;WhichDrum: T2 ; velocity: 127
@46200 , @2.43609496124031 Channel: 1 
Note on, D4 key =  62;WhichDrum: T2 ; velocity: 0
@46200 , @2.43609496124031 Channel: 1 
Note on, B3 key =  59;WhichDrum: T1 ; velocity: 127
@46260 , @2.4392587209302325 Channel: 1 
Note on, B3 key =  59;WhichDrum: T1 ; velocity: 0
@46260 , @2.4392587209302325 Channel: 1 
Note on, D4 key =  62;WhichDrum: T2 ; velocity: 127
@46320 , @2.4424224806201553 Channel: 1 
Note on, D4 key =  62;WhichDrum: T2 ; velocity: 0
@46320 , @2.4424224806201553 Channel: 1 
Note on, B3 key =  59;WhichDrum: T1 ; velocity: 127
@46380 , @2.4455862403100777 Channel: 1 
Note on, B3 key =  59;WhichDrum: T1 ; velocity: 0
@46380 , @2.4455862403100777 Channel: 1 
Note on, A#3 key =  58;WhichDrum: T2 ; velocity: 127
@46440 , @2.44875 Channel: 1 
Note on, A#3 key =  58;WhichDrum: T2 ; velocity: 0
@46440 , @2.44875 Channel: 1 
Note on, A3 key =  57;WhichDrum: T3 ; velocity: 127
@46500 , @2.4519137596899228 Channel: 1 
Note on, A3 key =  57;WhichDrum: T3 ; velocity: 0
@46500 , @2.4519137596899228 Channel: 1 
Note on, G3 key =  55;WhichDrum: C2 ; velocity: 127
@46560 , @2.455077519379845 Channel: 1 
Note on, G3 key =  55;WhichDrum: C2 ; velocity: 0
@46560 , @2.455077519379845 Channel: 1 
Note on, D4 key =  62;WhichDrum: T2 ; velocity: 127
@46560 , @2.455077519379845 Channel: 1 
Note on, G3 key =  55;WhichDrum: C2 ; velocity: 127
@47040 , @2.480387596899225 Channel: 1 
Note on, D4 key =  62;WhichDrum: T2 ; velocity: 0
@47040 , @2.480387596899225 Channel: 1 
Note on, G3 key =  55;WhichDrum: C2 ; velocity: 0
@47040 , @2.480387596899225 Channel: 1 
Note on, C#4 key =  61;WhichDrum: T3 ; velocity: 127
@47040 , @2.480387596899225 Channel: 1 
Note on, F#3 key =  54;WhichDrum: C1 ; velocity: 127
@47280 , @2.493042635658915 Channel: 1 
Note on, C#4 key =  61;WhichDrum: T3 ; velocity: 0
@47280 , @2.493042635658915 Channel: 1 
Note on, F#3 key =  54;WhichDrum: C1 ; velocity: 0
@47280 , @2.493042635658915 Channel: 1 
Note on, C4 key =  60;WhichDrum: B ; velocity: 127
@47280 , @2.493042635658915 Channel: 1 
Note on, F3 key =  53;WhichDrum: HH ; velocity: 127
@47520 , @2.505697674418605 Channel: 1 
Note on, C4 key =  60;WhichDrum: B ; velocity: 0
@47520 , @2.505697674418605 Channel: 1 
Note on, F3 key =  53;WhichDrum: HH ; velocity: 0
@47520 , @2.505697674418605 Channel: 1 
Note on, E2 key =  40;WhichDrum: S ; velocity: 127
@47580 , @2.5088614341085274 Channel: 1 
Note on, E2 key =  40;WhichDrum: S ; velocity: 0
@47580 , @2.5088614341085274 Channel: 1 
Note on, E2 key =  40;WhichDrum: S ; velocity: 127
@47640 , @2.5120251937984497 Channel: 1 
Note on, E2 key =  40;WhichDrum: S ; velocity: 0
@47640 , @2.5120251937984497 Channel: 1 
Note on, E2 key =  40;WhichDrum: S ; velocity: 127
@47700 , @2.5151889534883725 Channel: 1 
Note on, E2 key =  40;WhichDrum: S ; velocity: 0
@47700 , @2.5151889534883725 Channel: 1 
Note on, E2 key =  40;WhichDrum: S ; velocity: 127
@47760 , @2.518352713178295 Channel: 1 
Note on, E2 key =  40;WhichDrum: S ; velocity: 0
@47760 , @2.518352713178295 Channel: 1 
Note on, E2 key =  40;WhichDrum: S ; velocity: 127
@47820 , @2.521516472868217 Channel: 1 
Note on, E2 key =  40;WhichDrum: S ; velocity: 0
@47820 , @2.521516472868217 Channel: 1 
Note on, E2 key =  40;WhichDrum: S ; velocity: 127
@47880 , @2.52468023255814 Channel: 1 
Note on, E2 key =  40;WhichDrum: S ; velocity: 0
@47880 , @2.52468023255814 Channel: 1 
Note on, E2 key =  40;WhichDrum: S ; velocity: 127
@47940 , @2.527843992248062 Channel: 1 
Note on, E2 key =  40;WhichDrum: S ; velocity: 0
@47940 , @2.527843992248062 Channel: 1 
Note on, E2 key =  40;WhichDrum: S ; velocity: 127
@48000 , @2.5310077519379846 Channel: 1 
Note on, E2 key =  40;WhichDrum: S ; velocity: 0
@48000 , @2.5310077519379846 Channel: 1 
Note on, E2 key =  40;WhichDrum: S ; velocity: 127
@48060 , @2.5341715116279073 Channel: 1 
Note on, E2 key =  40;WhichDrum: S ; velocity: 0
@48060 , @2.5341715116279073 Channel: 1 
Note on, E2 key =  40;WhichDrum: S ; velocity: 127
@48120 , @2.5373352713178297 Channel: 1 
Note on, E2 key =  40;WhichDrum: S ; velocity: 0
@48120 , @2.5373352713178297 Channel: 1 
Note on, E2 key =  40;WhichDrum: S ; velocity: 127
@48180 , @2.540499031007752 Channel: 1 
Note on, E2 key =  40;WhichDrum: S ; velocity: 0
@48180 , @2.540499031007752 Channel: 1 
Note on, E2 key =  40;WhichDrum: S ; velocity: 127
@48240 , @2.5436627906976748 Channel: 1 
Note on, E2 key =  40;WhichDrum: S ; velocity: 0
@48240 , @2.5436627906976748 Channel: 1 
Note on, E2 key =  40;WhichDrum: S ; velocity: 127
@48300 , @2.546826550387597 Channel: 1 
Note on, E2 key =  40;WhichDrum: S ; velocity: 0
@48300 , @2.546826550387597 Channel: 1 
Note on, E2 key =  40;WhichDrum: S ; velocity: 127
@48360 , @2.54999031007752 Channel: 1 
Note on, E2 key =  40;WhichDrum: S ; velocity: 0
@48360 , @2.54999031007752 Channel: 1 
Note on, E2 key =  40;WhichDrum: S ; velocity: 127
@48420 , @2.5531540697674417 Channel: 1 
Note on, E2 key =  40;WhichDrum: S ; velocity: 0
@48420 , @2.5531540697674417 Channel: 1 
Note on, E2 key =  40;WhichDrum: S ; velocity: 127
@48480 , @2.556317829457364 Channel: 1 
Note on, E2 key =  40;WhichDrum: S ; velocity: 0
@48480 , @2.556317829457364 Channel: 1 
Note on, D4 key =  62;WhichDrum: T2 ; velocity: 127
@48480 , @2.556317829457364 Channel: 1 
Note on, G3 key =  55;WhichDrum: C2 ; velocity: 127
@48960 , @2.581627906976744 Channel: 1 
Note on, D4 key =  62;WhichDrum: T2 ; velocity: 0
@48960 , @2.581627906976744 Channel: 1 
Note on, G3 key =  55;WhichDrum: C2 ; velocity: 0
@48960 , @2.581627906976744 Channel: 1 
Note on, C#4 key =  61;WhichDrum: T3 ; velocity: 127
@48960 , @2.581627906976744 Channel: 1 
Note on, F#3 key =  54;WhichDrum: C1 ; velocity: 127
@49200 , @2.5942829457364343 Channel: 1 
Note on, C#4 key =  61;WhichDrum: T3 ; velocity: 0
@49200 , @2.5942829457364343 Channel: 1 
Note on, F#3 key =  54;WhichDrum: C1 ; velocity: 0
@49200 , @2.5942829457364343 Channel: 1 
Note on, C4 key =  60;WhichDrum: B ; velocity: 127
@49200 , @2.5942829457364343 Channel: 1 
Note on, F3 key =  53;WhichDrum: HH ; velocity: 127
@49440 , @2.606937984496124 Channel: 1 
Note on, C4 key =  60;WhichDrum: B ; velocity: 0
@49440 , @2.606937984496124 Channel: 1 
Note on, F3 key =  53;WhichDrum: HH ; velocity: 0
@49440 , @2.606937984496124 Channel: 1 
Note on, E2 key =  40;WhichDrum: S ; velocity: 127
@49500 , @2.6101017441860463 Channel: 1 
Note on, E2 key =  40;WhichDrum: S ; velocity: 0
@49500 , @2.6101017441860463 Channel: 1 
Note on, E2 key =  40;WhichDrum: S ; velocity: 127
@49560 , @2.613265503875969 Channel: 1 
Note on, E2 key =  40;WhichDrum: S ; velocity: 0
@49560 , @2.613265503875969 Channel: 1 
Note on, E2 key =  40;WhichDrum: S ; velocity: 127
@49620 , @2.6164292635658914 Channel: 1 
Note on, E2 key =  40;WhichDrum: S ; velocity: 0
@49620 , @2.6164292635658914 Channel: 1 
Note on, E2 key =  40;WhichDrum: S ; velocity: 127
@49680 , @2.619593023255814 Channel: 1 
Note on, E2 key =  40;WhichDrum: S ; velocity: 0
@49680 , @2.619593023255814 Channel: 1 
Note on, E2 key =  40;WhichDrum: S ; velocity: 127
@49740 , @2.6227567829457366 Channel: 1 
Note on, E2 key =  40;WhichDrum: S ; velocity: 0
@49740 , @2.6227567829457366 Channel: 1 
Note on, E2 key =  40;WhichDrum: S ; velocity: 127
@49800 , @2.625920542635659 Channel: 1 
Note on, E2 key =  40;WhichDrum: S ; velocity: 0
@49800 , @2.625920542635659 Channel: 1 
Note on, E2 key =  40;WhichDrum: S ; velocity: 127
@49860 , @2.6290843023255817 Channel: 1 
Note on, E2 key =  40;WhichDrum: S ; velocity: 0
@49860 , @2.6290843023255817 Channel: 1 
Note on, E2 key =  40;WhichDrum: S ; velocity: 127
@49920 , @2.632248062015504 Channel: 1 
Note on, E2 key =  40;WhichDrum: S ; velocity: 0
@49920 , @2.632248062015504 Channel: 1 
Note on, E2 key =  40;WhichDrum: S ; velocity: 127
@49980 , @2.6354118217054263 Channel: 1 
Note on, E2 key =  40;WhichDrum: S ; velocity: 0
@49980 , @2.6354118217054263 Channel: 1 
Note on, E2 key =  40;WhichDrum: S ; velocity: 127
@50040 , @2.638575581395349 Channel: 1 
Note on, E2 key =  40;WhichDrum: S ; velocity: 0
@50040 , @2.638575581395349 Channel: 1 
Note on, E2 key =  40;WhichDrum: S ; velocity: 127
@50100 , @2.6417393410852714 Channel: 1 
Note on, E2 key =  40;WhichDrum: S ; velocity: 0
@50100 , @2.6417393410852714 Channel: 1 
Note on, E2 key =  40;WhichDrum: S ; velocity: 127
@50160 , @2.6449031007751937 Channel: 1 
Note on, E2 key =  40;WhichDrum: S ; velocity: 0
@50160 , @2.6449031007751937 Channel: 1 
Note on, E2 key =  40;WhichDrum: S ; velocity: 127
@50220 , @2.6480668604651165 Channel: 1 
Note on, E2 key =  40;WhichDrum: S ; velocity: 0
@50220 , @2.6480668604651165 Channel: 1 
Note on, E2 key =  40;WhichDrum: S ; velocity: 127
@50280 , @2.651230620155039 Channel: 1 
Note on, E2 key =  40;WhichDrum: S ; velocity: 0
@50280 , @2.651230620155039 Channel: 1 
Note on, E2 key =  40;WhichDrum: S ; velocity: 127
@50340 , @2.654394379844961 Channel: 1 
Note on, E2 key =  40;WhichDrum: S ; velocity: 0
@50340 , @2.654394379844961 Channel: 1 
Note on, E2 key =  40;WhichDrum: S ; velocity: 127
@50400 , @2.657558139534884 Channel: 1 
Note on, E2 key =  40;WhichDrum: S ; velocity: 0
@50400 , @2.657558139534884 Channel: 1 
Note on, D4 key =  62;WhichDrum: T2 ; velocity: 127
@50400 , @2.657558139534884 Channel: 1 
Note on, G3 key =  55;WhichDrum: C2 ; velocity: 127
@50880 , @2.682868217054264 Channel: 1 
Note on, D4 key =  62;WhichDrum: T2 ; velocity: 0
@50880 , @2.682868217054264 Channel: 1 
Note on, G3 key =  55;WhichDrum: C2 ; velocity: 0
@50880 , @2.682868217054264 Channel: 1 
Note on, C#4 key =  61;WhichDrum: T3 ; velocity: 127
@50880 , @2.682868217054264 Channel: 1 
Note on, F#3 key =  54;WhichDrum: C1 ; velocity: 127
@51120 , @2.6955232558139537 Channel: 1 
Note on, C#4 key =  61;WhichDrum: T3 ; velocity: 0
@51120 , @2.6955232558139537 Channel: 1 
Note on, F#3 key =  54;WhichDrum: C1 ; velocity: 0
@51120 , @2.6955232558139537 Channel: 1 
Note on, C4 key =  60;WhichDrum: B ; velocity: 127
@51120 , @2.6955232558139537 Channel: 1 
Note on, F3 key =  53;WhichDrum: HH ; velocity: 127
@51360 , @2.7081782945736435 Channel: 1 
Note on, C4 key =  60;WhichDrum: B ; velocity: 0
@51360 , @2.7081782945736435 Channel: 1 
Note on, F3 key =  53;WhichDrum: HH ; velocity: 0
@51360 , @2.7081782945736435 Channel: 1 
Note on, E2 key =  40;WhichDrum: S ; velocity: 127
@51420 , @2.7113420542635662 Channel: 1 
Note on, E2 key =  40;WhichDrum: S ; velocity: 0
@51420 , @2.7113420542635662 Channel: 1 
Note on, E2 key =  40;WhichDrum: S ; velocity: 127
@51480 , @2.7145058139534886 Channel: 1 
Note on, E2 key =  40;WhichDrum: S ; velocity: 0
@51480 , @2.7145058139534886 Channel: 1 
Note on, E2 key =  40;WhichDrum: S ; velocity: 127
@51540 , @2.717669573643411 Channel: 1 
Note on, E2 key =  40;WhichDrum: S ; velocity: 0
@51540 , @2.717669573643411 Channel: 1 
Note on, E2 key =  40;WhichDrum: S ; velocity: 127
@51600 , @2.7208333333333337 Channel: 1 
Note on, E2 key =  40;WhichDrum: S ; velocity: 0
@51600 , @2.7208333333333337 Channel: 1 
Note on, E2 key =  40;WhichDrum: S ; velocity: 127
@51660 , @2.723997093023256 Channel: 1 
Note on, E2 key =  40;WhichDrum: S ; velocity: 0
@51660 , @2.723997093023256 Channel: 1 
Note on, E2 key =  40;WhichDrum: S ; velocity: 127
@51720 , @2.7271608527131783 Channel: 1 
Note on, E2 key =  40;WhichDrum: S ; velocity: 0
@51720 , @2.7271608527131783 Channel: 1 
Note on, E2 key =  40;WhichDrum: S ; velocity: 127
@51780 , @2.730324612403101 Channel: 1 
Note on, E2 key =  40;WhichDrum: S ; velocity: 0
@51780 , @2.730324612403101 Channel: 1 
Note on, E2 key =  40;WhichDrum: S ; velocity: 127
@51840 , @2.7334883720930234 Channel: 1 
Note on, E2 key =  40;WhichDrum: S ; velocity: 0
@51840 , @2.7334883720930234 Channel: 1 
Note on, E2 key =  40;WhichDrum: S ; velocity: 127
@51900 , @2.736652131782946 Channel: 1 
Note on, E2 key =  40;WhichDrum: S ; velocity: 0
@51900 , @2.736652131782946 Channel: 1 
Note on, E2 key =  40;WhichDrum: S ; velocity: 127
@51960 , @2.7398158914728685 Channel: 1 
Note on, E2 key =  40;WhichDrum: S ; velocity: 0
@51960 , @2.7398158914728685 Channel: 1 
Note on, E2 key =  40;WhichDrum: S ; velocity: 127
@52020 , @2.742979651162791 Channel: 1 
Note on, E2 key =  40;WhichDrum: S ; velocity: 0
@52020 , @2.742979651162791 Channel: 1 
Note on, E2 key =  40;WhichDrum: S ; velocity: 127
@52080 , @2.7461434108527136 Channel: 1 
Note on, E2 key =  40;WhichDrum: S ; velocity: 0
@52080 , @2.7461434108527136 Channel: 1 
Note on, E2 key =  40;WhichDrum: S ; velocity: 127
@52140 , @2.749307170542636 Channel: 1 
Note on, E2 key =  40;WhichDrum: S ; velocity: 0
@52140 , @2.749307170542636 Channel: 1 
Note on, E2 key =  40;WhichDrum: S ; velocity: 127
@52200 , @2.7524709302325583 Channel: 1 
Note on, E2 key =  40;WhichDrum: S ; velocity: 0
@52200 , @2.7524709302325583 Channel: 1 
Note on, E2 key =  40;WhichDrum: S ; velocity: 127
@52260 , @2.7556346899224806 Channel: 1 
Note on, E2 key =  40;WhichDrum: S ; velocity: 0
@52260 , @2.7556346899224806 Channel: 1 
Note on, E2 key =  40;WhichDrum: S ; velocity: 127
@52320 , @2.758798449612403 Channel: 1 
Note on, E2 key =  40;WhichDrum: S ; velocity: 0
@52320 , @2.758798449612403 Channel: 1 
Note on, D4 key =  62;WhichDrum: T2 ; velocity: 127
@52320 , @2.758798449612403 Channel: 1 
Note on, G3 key =  55;WhichDrum: C2 ; velocity: 127
@52800 , @2.784108527131783 Channel: 1 
Note on, D4 key =  62;WhichDrum: T2 ; velocity: 0
@52800 , @2.784108527131783 Channel: 1 
Note on, G3 key =  55;WhichDrum: C2 ; velocity: 0
@52800 , @2.784108527131783 Channel: 1 
Note on, C#4 key =  61;WhichDrum: T3 ; velocity: 127
@52800 , @2.784108527131783 Channel: 1 
Note on, F#3 key =  54;WhichDrum: C1 ; velocity: 127
@53040 , @2.7967635658914727 Channel: 1 
Note on, C#4 key =  61;WhichDrum: T3 ; velocity: 0
@53040 , @2.7967635658914727 Channel: 1 
Note on, F#3 key =  54;WhichDrum: C1 ; velocity: 0
@53040 , @2.7967635658914727 Channel: 1 
Note on, C4 key =  60;WhichDrum: B ; velocity: 127
@53040 , @2.7967635658914727 Channel: 1 
Note on, F3 key =  53;WhichDrum: HH ; velocity: 127
@53280 , @2.809418604651163 Channel: 1 
Note on, C4 key =  60;WhichDrum: B ; velocity: 0
@53280 , @2.809418604651163 Channel: 1 
Note on, F3 key =  53;WhichDrum: HH ; velocity: 0
@53280 , @2.809418604651163 Channel: 1 
Note on, E4 key =  64;WhichDrum: S ; velocity: 127
@53280 , @2.809418604651163 Channel: 1 
Note on, B3 key =  59;WhichDrum: T1 ; velocity: 127
@53280 , @2.809418604651163 Channel: 1 
Note on, E3 key =  52;WhichDrum: S ; velocity: 127
@53280 , @2.809418604651163 Channel: 1 
Note on, E2 key =  40;WhichDrum: S ; velocity: 127
@53760 , @2.834728682170543 Channel: 1 
Note on, E4 key =  64;WhichDrum: S ; velocity: 0
@53760 , @2.834728682170543 Channel: 1 
Note on, B3 key =  59;WhichDrum: T1 ; velocity: 0
@53760 , @2.834728682170543 Channel: 1 
Note on, E3 key =  52;WhichDrum: S ; velocity: 0
@53760 , @2.834728682170543 Channel: 1 
Note on, E2 key =  40;WhichDrum: S ; velocity: 0
@53760 , @2.834728682170543 Channel: 1 
Note on, G#4 key =  68;WhichDrum: B ; velocity: 127
@53760 , @2.834728682170543 Channel: 1 
Note on, E4 key =  64;WhichDrum: S ; velocity: 127
@53760 , @2.834728682170543 Channel: 1 
Note on, B3 key =  59;WhichDrum: T1 ; velocity: 127
@53760 , @2.834728682170543 Channel: 1 
Note on, E3 key =  52;WhichDrum: S ; velocity: 127
@53880 , @2.8410562015503875 Channel: 1 
Note on, G#4 key =  68;WhichDrum: B ; velocity: 0
@53880 , @2.8410562015503875 Channel: 1 
Note on, E4 key =  64;WhichDrum: S ; velocity: 0
@53880 , @2.8410562015503875 Channel: 1 
Note on, B3 key =  59;WhichDrum: T1 ; velocity: 0
@53880 , @2.8410562015503875 Channel: 1 
Note on, E3 key =  52;WhichDrum: S ; velocity: 0
@55680 , @2.9359689922480623 Channel: 1 
Note on, A2 key =  45;WhichDrum: T3 ; velocity: 127
@55680 , @2.9359689922480623 Channel: 1 
Note on, G3 key =  55;WhichDrum: C2 ; velocity: 127
@55740 , @2.9391327519379846 Channel: 1 
Note on, A2 key =  45;WhichDrum: T3 ; velocity: 0
@55740 , @2.9391327519379846 Channel: 1 
Note on, G3 key =  55;WhichDrum: C2 ; velocity: 0
@55740 , @2.9391327519379846 Channel: 1 
Note on, A3 key =  57;WhichDrum: T3 ; velocity: 127
@55740 , @2.9391327519379846 Channel: 1 
Note on, A2 key =  45;WhichDrum: T3 ; velocity: 127
@55800 , @2.9422965116279074 Channel: 1 
Note on, A3 key =  57;WhichDrum: T3 ; velocity: 0
@55800 , @2.9422965116279074 Channel: 1 
Note on, A2 key =  45;WhichDrum: T3 ; velocity: 0
@55800 , @2.9422965116279074 Channel: 1 
Note on, A2 key =  45;WhichDrum: T3 ; velocity: 127
@55860 , @2.9454602713178297 Channel: 1 
Note on, A2 key =  45;WhichDrum: T3 ; velocity: 0
@55860 , @2.9454602713178297 Channel: 1 
Note on, A3 key =  57;WhichDrum: T3 ; velocity: 127
@55920 , @2.948624031007752 Channel: 1 
Note on, A3 key =  57;WhichDrum: T3 ; velocity: 0
@55920 , @2.948624031007752 Channel: 1 
Note on, A2 key =  45;WhichDrum: T3 ; velocity: 127
@55980 , @2.951787790697675 Channel: 1 
Note on, A2 key =  45;WhichDrum: T3 ; velocity: 0
@55980 , @2.951787790697675 Channel: 1 
Note on, A2 key =  45;WhichDrum: T3 ; velocity: 127
@56040 , @2.954951550387597 Channel: 1 
Note on, A2 key =  45;WhichDrum: T3 ; velocity: 0
@56040 , @2.954951550387597 Channel: 1 
Note on, A3 key =  57;WhichDrum: T3 ; velocity: 127
@56100 , @2.9581153100775195 Channel: 1 
Note on, A3 key =  57;WhichDrum: T3 ; velocity: 0
@56100 , @2.9581153100775195 Channel: 1 
Note on, A2 key =  45;WhichDrum: T3 ; velocity: 127
@56160 , @2.961279069767442 Channel: 1 
Note on, A2 key =  45;WhichDrum: T3 ; velocity: 0
@56160 , @2.961279069767442 Channel: 1 
Note on, C4 key =  60;WhichDrum: B ; velocity: 127
@56160 , @2.961279069767442 Channel: 1 
Note on, G3 key =  55;WhichDrum: C2 ; velocity: 127
@56220 , @2.964442829457364 Channel: 1 
Note on, C4 key =  60;WhichDrum: B ; velocity: 0
@56220 , @2.964442829457364 Channel: 1 
Note on, G3 key =  55;WhichDrum: C2 ; velocity: 0
@56220 , @2.964442829457364 Channel: 1 
Note on, A2 key =  45;WhichDrum: T3 ; velocity: 127
@56280 , @2.967606589147287 Channel: 1 
Note on, A2 key =  45;WhichDrum: T3 ; velocity: 0
@56280 , @2.967606589147287 Channel: 1 
Note on, A2 key =  45;WhichDrum: T3 ; velocity: 127
@56340 , @2.9707703488372093 Channel: 1 
Note on, A2 key =  45;WhichDrum: T3 ; velocity: 0
@56340 , @2.9707703488372093 Channel: 1 
Note on, A3 key =  57;WhichDrum: T3 ; velocity: 127
@56400 , @2.9739341085271316 Channel: 1 
Note on, A3 key =  57;WhichDrum: T3 ; velocity: 0
@56400 , @2.9739341085271316 Channel: 1 
Note on, A2 key =  45;WhichDrum: T3 ; velocity: 127
@56460 , @2.9770978682170544 Channel: 1 
Note on, A2 key =  45;WhichDrum: T3 ; velocity: 0
@56460 , @2.9770978682170544 Channel: 1 
Note on, A2 key =  45;WhichDrum: T3 ; velocity: 127
@56520 , @2.9802616279069767 Channel: 1 
Note on, A2 key =  45;WhichDrum: T3 ; velocity: 0
@56520 , @2.9802616279069767 Channel: 1 
Note on, A3 key =  57;WhichDrum: T3 ; velocity: 127
@56580 , @2.983425387596899 Channel: 1 
Note on, A3 key =  57;WhichDrum: T3 ; velocity: 0
@56580 , @2.983425387596899 Channel: 1 
Note on, A2 key =  45;WhichDrum: T3 ; velocity: 127
@56640 , @2.986589147286822 Channel: 1 
Note on, A2 key =  45;WhichDrum: T3 ; velocity: 0
@56640 , @2.986589147286822 Channel: 1 
Note on, B3 key =  59;WhichDrum: T1 ; velocity: 127
@56640 , @2.986589147286822 Channel: 1 
Note on, F#3 key =  54;WhichDrum: C1 ; velocity: 127
@56700 , @2.989752906976744 Channel: 1 
Note on, B3 key =  59;WhichDrum: T1 ; velocity: 0
@56700 , @2.989752906976744 Channel: 1 
Note on, F#3 key =  54;WhichDrum: C1 ; velocity: 0
@56700 , @2.989752906976744 Channel: 1 
Note on, A2 key =  45;WhichDrum: T3 ; velocity: 127
@56760 , @2.9929166666666664 Channel: 1 
Note on, A2 key =  45;WhichDrum: T3 ; velocity: 0
@56760 , @2.9929166666666664 Channel: 1 
Note on, A2 key =  45;WhichDrum: T3 ; velocity: 127
@56820 , @2.996080426356589 Channel: 1 
Note on, A2 key =  45;WhichDrum: T3 ; velocity: 0
@56820 , @2.996080426356589 Channel: 1 
Note on, A3 key =  57;WhichDrum: T3 ; velocity: 127
@56880 , @2.9992441860465116 Channel: 1 
Note on, A3 key =  57;WhichDrum: T3 ; velocity: 0
@56880 , @2.9992441860465116 Channel: 1 
Note on, A2 key =  45;WhichDrum: T3 ; velocity: 127
@56940 , @3.0024079457364343 Channel: 1 
Note on, A2 key =  45;WhichDrum: T3 ; velocity: 0
@56940 , @3.0024079457364343 Channel: 1 
Note on, A2 key =  45;WhichDrum: T3 ; velocity: 127
@57000 , @3.0055717054263567 Channel: 1 
Note on, A2 key =  45;WhichDrum: T3 ; velocity: 0
@57000 , @3.0055717054263567 Channel: 1 
Note on, A3 key =  57;WhichDrum: T3 ; velocity: 127
@57120 , @3.0118992248062018 Channel: 1 
Note on, A3 key =  57;WhichDrum: T3 ; velocity: 0
@57120 , @3.0118992248062018 Channel: 1 
Note on, C3 key =  48;WhichDrum: B ; velocity: 127
@57180 , @3.015062984496124 Channel: 1 
Note on, C3 key =  48;WhichDrum: B ; velocity: 0
@57180 , @3.015062984496124 Channel: 1 
Note on, B2 key =  47;WhichDrum: T1 ; velocity: 127
@57240 , @3.0182267441860464 Channel: 1 
Note on, B2 key =  47;WhichDrum: T1 ; velocity: 0
@57240 , @3.0182267441860464 Channel: 1 
Note on, A2 key =  45;WhichDrum: T3 ; velocity: 127
@57300 , @3.021390503875969 Channel: 1 
Note on, A2 key =  45;WhichDrum: T3 ; velocity: 0
@57300 , @3.021390503875969 Channel: 1 
Note on, F3 key =  53;WhichDrum: HH ; velocity: 127
@57360 , @3.0245542635658915 Channel: 1 
Note on, F3 key =  53;WhichDrum: HH ; velocity: 0
@57360 , @3.0245542635658915 Channel: 1 
Note on, E3 key =  52;WhichDrum: S ; velocity: 127
@57420 , @3.027718023255814 Channel: 1 
Note on, E3 key =  52;WhichDrum: S ; velocity: 0
@57420 , @3.027718023255814 Channel: 1 
Note on, D3 key =  50;WhichDrum: T2 ; velocity: 127
@57480 , @3.0308817829457366 Channel: 1 
Note on, D3 key =  50;WhichDrum: T2 ; velocity: 0
@57480 , @3.0308817829457366 Channel: 1 
Note on, C3 key =  48;WhichDrum: B ; velocity: 127
@57540 , @3.034045542635659 Channel: 1 
Note on, C3 key =  48;WhichDrum: B ; velocity: 0
@57540 , @3.034045542635659 Channel: 1 
Note on, A2 key =  45;WhichDrum: T3 ; velocity: 127
@57600 , @3.0372093023255813 Channel: 1 
Note on, A2 key =  45;WhichDrum: T3 ; velocity: 0
@57600 , @3.0372093023255813 Channel: 1 
Note on, G3 key =  55;WhichDrum: C2 ; velocity: 127
@57660 , @3.040373062015504 Channel: 1 
Note on, G3 key =  55;WhichDrum: C2 ; velocity: 0
@57660 , @3.040373062015504 Channel: 1 
Note on, A2 key =  45;WhichDrum: T3 ; velocity: 127
@57720 , @3.0435368217054264 Channel: 1 
Note on, A2 key =  45;WhichDrum: T3 ; velocity: 0
@57720 , @3.0435368217054264 Channel: 1 
Note on, A2 key =  45;WhichDrum: T3 ; velocity: 127
@57780 , @3.0467005813953487 Channel: 1 
Note on, A2 key =  45;WhichDrum: T3 ; velocity: 0
@57780 , @3.0467005813953487 Channel: 1 
Note on, A3 key =  57;WhichDrum: T3 ; velocity: 127
@57840 , @3.0498643410852715 Channel: 1 
Note on, A3 key =  57;WhichDrum: T3 ; velocity: 0
@57840 , @3.0498643410852715 Channel: 1 
Note on, A2 key =  45;WhichDrum: T3 ; velocity: 127
@57900 , @3.053028100775194 Channel: 1 
Note on, A2 key =  45;WhichDrum: T3 ; velocity: 0
@57900 , @3.053028100775194 Channel: 1 
Note on, A2 key =  45;WhichDrum: T3 ; velocity: 127
@57960 , @3.0561918604651166 Channel: 1 
Note on, A2 key =  45;WhichDrum: T3 ; velocity: 0
@57960 , @3.0561918604651166 Channel: 1 
Note on, A3 key =  57;WhichDrum: T3 ; velocity: 127
@58020 , @3.059355620155039 Channel: 1 
Note on, A3 key =  57;WhichDrum: T3 ; velocity: 0
@58020 , @3.059355620155039 Channel: 1 
Note on, A2 key =  45;WhichDrum: T3 ; velocity: 127
@58080 , @3.0625193798449613 Channel: 1 
Note on, A2 key =  45;WhichDrum: T3 ; velocity: 0
@58080 , @3.0625193798449613 Channel: 1 
Note on, C4 key =  60;WhichDrum: B ; velocity: 127
@58080 , @3.0625193798449613 Channel: 1 
Note on, G3 key =  55;WhichDrum: C2 ; velocity: 127
@58140 , @3.065683139534884 Channel: 1 
Note on, C4 key =  60;WhichDrum: B ; velocity: 0
@58140 , @3.065683139534884 Channel: 1 
Note on, G3 key =  55;WhichDrum: C2 ; velocity: 0
@58140 , @3.065683139534884 Channel: 1 
Note on, A2 key =  45;WhichDrum: T3 ; velocity: 127
@58200 , @3.0688468992248064 Channel: 1 
Note on, A2 key =  45;WhichDrum: T3 ; velocity: 0
@58200 , @3.0688468992248064 Channel: 1 
Note on, A2 key =  45;WhichDrum: T3 ; velocity: 127
@58260 , @3.0720106589147287 Channel: 1 
Note on, A2 key =  45;WhichDrum: T3 ; velocity: 0
@58260 , @3.0720106589147287 Channel: 1 
Note on, A3 key =  57;WhichDrum: T3 ; velocity: 127
@58320 , @3.0751744186046515 Channel: 1 
Note on, A3 key =  57;WhichDrum: T3 ; velocity: 0
@58320 , @3.0751744186046515 Channel: 1 
Note on, A2 key =  45;WhichDrum: T3 ; velocity: 127
@58380 , @3.078338178294574 Channel: 1 
Note on, A2 key =  45;WhichDrum: T3 ; velocity: 0
@58380 , @3.078338178294574 Channel: 1 
Note on, A2 key =  45;WhichDrum: T3 ; velocity: 127
@58440 , @3.081501937984496 Channel: 1 
Note on, A2 key =  45;WhichDrum: T3 ; velocity: 0
@58440 , @3.081501937984496 Channel: 1 
Note on, A3 key =  57;WhichDrum: T3 ; velocity: 127
@58500 , @3.084665697674419 Channel: 1 
Note on, A3 key =  57;WhichDrum: T3 ; velocity: 0
@58500 , @3.084665697674419 Channel: 1 
Note on, A2 key =  45;WhichDrum: T3 ; velocity: 127
@58560 , @3.0878294573643412 Channel: 1 
Note on, A2 key =  45;WhichDrum: T3 ; velocity: 0
@58560 , @3.0878294573643412 Channel: 1 
Note on, B3 key =  59;WhichDrum: T1 ; velocity: 127
@58560 , @3.0878294573643412 Channel: 1 
Note on, F#3 key =  54;WhichDrum: C1 ; velocity: 127
@58620 , @3.0909932170542636 Channel: 1 
Note on, B3 key =  59;WhichDrum: T1 ; velocity: 0
@58620 , @3.0909932170542636 Channel: 1 
Note on, F#3 key =  54;WhichDrum: C1 ; velocity: 0
@58620 , @3.0909932170542636 Channel: 1 
Note on, A2 key =  45;WhichDrum: T3 ; velocity: 127
@58680 , @3.0941569767441863 Channel: 1 
Note on, A2 key =  45;WhichDrum: T3 ; velocity: 0
@58680 , @3.0941569767441863 Channel: 1 
Note on, A2 key =  45;WhichDrum: T3 ; velocity: 127
@58740 , @3.0973207364341087 Channel: 1 
Note on, A2 key =  45;WhichDrum: T3 ; velocity: 0
@58740 , @3.0973207364341087 Channel: 1 
Note on, A3 key =  57;WhichDrum: T3 ; velocity: 127
@58800 , @3.100484496124031 Channel: 1 
Note on, A3 key =  57;WhichDrum: T3 ; velocity: 0
@58800 , @3.100484496124031 Channel: 1 
Note on, A2 key =  45;WhichDrum: T3 ; velocity: 127
@58860 , @3.1036482558139538 Channel: 1 
Note on, A2 key =  45;WhichDrum: T3 ; velocity: 0
@58860 , @3.1036482558139538 Channel: 1 
Note on, A2 key =  45;WhichDrum: T3 ; velocity: 127
@58920 , @3.106812015503876 Channel: 1 
Note on, A2 key =  45;WhichDrum: T3 ; velocity: 0
@58920 , @3.106812015503876 Channel: 1 
Note on, A3 key =  57;WhichDrum: T3 ; velocity: 127
@59040 , @3.113139534883721 Channel: 1 
Note on, A3 key =  57;WhichDrum: T3 ; velocity: 0
@59040 , @3.113139534883721 Channel: 1 
Note on, C3 key =  48;WhichDrum: B ; velocity: 127
@59100 , @3.1163032945736435 Channel: 1 
Note on, C3 key =  48;WhichDrum: B ; velocity: 0
@59100 , @3.1163032945736435 Channel: 1 
Note on, B2 key =  47;WhichDrum: T1 ; velocity: 127
@59160 , @3.1194670542635663 Channel: 1 
Note on, B2 key =  47;WhichDrum: T1 ; velocity: 0
@59160 , @3.1194670542635663 Channel: 1 
Note on, A2 key =  45;WhichDrum: T3 ; velocity: 127
@59220 , @3.1226308139534886 Channel: 1 
Note on, A2 key =  45;WhichDrum: T3 ; velocity: 0
@59220 , @3.1226308139534886 Channel: 1 
Note on, F3 key =  53;WhichDrum: HH ; velocity: 127
@59280 , @3.125794573643411 Channel: 1 
Note on, F3 key =  53;WhichDrum: HH ; velocity: 0
@59280 , @3.125794573643411 Channel: 1 
Note on, E3 key =  52;WhichDrum: S ; velocity: 127
@59340 , @3.1289583333333337 Channel: 1 
Note on, E3 key =  52;WhichDrum: S ; velocity: 0
@59340 , @3.1289583333333337 Channel: 1 
Note on, D3 key =  50;WhichDrum: T2 ; velocity: 127
@59400 , @3.132122093023256 Channel: 1 
Note on, D3 key =  50;WhichDrum: T2 ; velocity: 0
@59400 , @3.132122093023256 Channel: 1 
Note on, C3 key =  48;WhichDrum: B ; velocity: 127
@59460 , @3.1352858527131784 Channel: 1 
Note on, C3 key =  48;WhichDrum: B ; velocity: 0
@59460 , @3.1352858527131784 Channel: 1 
Note on, A2 key =  45;WhichDrum: T3 ; velocity: 127
@59520 , @3.138449612403101 Channel: 1 
Note on, A2 key =  45;WhichDrum: T3 ; velocity: 0
@59520 , @3.138449612403101 Channel: 1 
Note on, G3 key =  55;WhichDrum: C2 ; velocity: 127
@59580 , @3.1416133720930235 Channel: 1 
Note on, G3 key =  55;WhichDrum: C2 ; velocity: 0
@59580 , @3.1416133720930235 Channel: 1 
Note on, A2 key =  45;WhichDrum: T3 ; velocity: 127
@59640 , @3.144777131782946 Channel: 1 
Note on, A2 key =  45;WhichDrum: T3 ; velocity: 0
@59640 , @3.144777131782946 Channel: 1 
Note on, A2 key =  45;WhichDrum: T3 ; velocity: 127
@59700 , @3.1479408914728686 Channel: 1 
Note on, A2 key =  45;WhichDrum: T3 ; velocity: 0
@59700 , @3.1479408914728686 Channel: 1 
Note on, A3 key =  57;WhichDrum: T3 ; velocity: 127
@59760 , @3.151104651162791 Channel: 1 
Note on, A3 key =  57;WhichDrum: T3 ; velocity: 0
@59760 , @3.151104651162791 Channel: 1 
Note on, A2 key =  45;WhichDrum: T3 ; velocity: 127
@59820 , @3.1542684108527133 Channel: 1 
Note on, A2 key =  45;WhichDrum: T3 ; velocity: 0
@59820 , @3.1542684108527133 Channel: 1 
Note on, A2 key =  45;WhichDrum: T3 ; velocity: 127
@59880 , @3.157432170542636 Channel: 1 
Note on, A2 key =  45;WhichDrum: T3 ; velocity: 0
@59880 , @3.157432170542636 Channel: 1 
Note on, A3 key =  57;WhichDrum: T3 ; velocity: 127
@59940 , @3.1605959302325584 Channel: 1 
Note on, A3 key =  57;WhichDrum: T3 ; velocity: 0
@59940 , @3.1605959302325584 Channel: 1 
Note on, A2 key =  45;WhichDrum: T3 ; velocity: 127
@60000 , @3.1637596899224807 Channel: 1 
Note on, A2 key =  45;WhichDrum: T3 ; velocity: 0
@60000 , @3.1637596899224807 Channel: 1 
Note on, C4 key =  60;WhichDrum: B ; velocity: 127
@60000 , @3.1637596899224807 Channel: 1 
Note on, G3 key =  55;WhichDrum: C2 ; velocity: 127
@60060 , @3.166923449612403 Channel: 1 
Note on, C4 key =  60;WhichDrum: B ; velocity: 0
@60060 , @3.166923449612403 Channel: 1 
Note on, G3 key =  55;WhichDrum: C2 ; velocity: 0
@60060 , @3.166923449612403 Channel: 1 
Note on, A2 key =  45;WhichDrum: T3 ; velocity: 127
@60120 , @3.1700872093023253 Channel: 1 
Note on, A2 key =  45;WhichDrum: T3 ; velocity: 0
@60120 , @3.1700872093023253 Channel: 1 
Note on, A2 key =  45;WhichDrum: T3 ; velocity: 127
@60180 , @3.173250968992248 Channel: 1 
Note on, A2 key =  45;WhichDrum: T3 ; velocity: 0
@60180 , @3.173250968992248 Channel: 1 
Note on, A3 key =  57;WhichDrum: T3 ; velocity: 127
@60240 , @3.1764147286821705 Channel: 1 
Note on, A3 key =  57;WhichDrum: T3 ; velocity: 0
@60240 , @3.1764147286821705 Channel: 1 
Note on, A2 key =  45;WhichDrum: T3 ; velocity: 127
@60300 , @3.179578488372093 Channel: 1 
Note on, A2 key =  45;WhichDrum: T3 ; velocity: 0
@60300 , @3.179578488372093 Channel: 1 
Note on, A2 key =  45;WhichDrum: T3 ; velocity: 127
@60360 , @3.1827422480620156 Channel: 1 
Note on, A2 key =  45;WhichDrum: T3 ; velocity: 0
@60360 , @3.1827422480620156 Channel: 1 
Note on, A3 key =  57;WhichDrum: T3 ; velocity: 127
@60420 , @3.185906007751938 Channel: 1 
Note on, A3 key =  57;WhichDrum: T3 ; velocity: 0
@60420 , @3.185906007751938 Channel: 1 
Note on, A2 key =  45;WhichDrum: T3 ; velocity: 127
@60480 , @3.1890697674418607 Channel: 1 
Note on, A2 key =  45;WhichDrum: T3 ; velocity: 0
@60480 , @3.1890697674418607 Channel: 1 
Note on, B3 key =  59;WhichDrum: T1 ; velocity: 127
@60480 , @3.1890697674418607 Channel: 1 
Note on, F#3 key =  54;WhichDrum: C1 ; velocity: 127
@60540 , @3.192233527131783 Channel: 1 
Note on, B3 key =  59;WhichDrum: T1 ; velocity: 0
@60540 , @3.192233527131783 Channel: 1 
Note on, F#3 key =  54;WhichDrum: C1 ; velocity: 0
@60540 , @3.192233527131783 Channel: 1 
Note on, A2 key =  45;WhichDrum: T3 ; velocity: 127
@60600 , @3.1953972868217053 Channel: 1 
Note on, A2 key =  45;WhichDrum: T3 ; velocity: 0
@60600 , @3.1953972868217053 Channel: 1 
Note on, A2 key =  45;WhichDrum: T3 ; velocity: 127
@60660 , @3.198561046511628 Channel: 1 
Note on, A2 key =  45;WhichDrum: T3 ; velocity: 0
@60660 , @3.198561046511628 Channel: 1 
Note on, A3 key =  57;WhichDrum: T3 ; velocity: 127
@60720 , @3.2017248062015504 Channel: 1 
Note on, A3 key =  57;WhichDrum: T3 ; velocity: 0
@60720 , @3.2017248062015504 Channel: 1 
Note on, A2 key =  45;WhichDrum: T3 ; velocity: 127
@60780 , @3.2048885658914728 Channel: 1 
Note on, A2 key =  45;WhichDrum: T3 ; velocity: 0
@60780 , @3.2048885658914728 Channel: 1 
Note on, A2 key =  45;WhichDrum: T3 ; velocity: 127
@60840 , @3.2080523255813955 Channel: 1 
Note on, A2 key =  45;WhichDrum: T3 ; velocity: 0
@60840 , @3.2080523255813955 Channel: 1 
Note on, A3 key =  57;WhichDrum: T3 ; velocity: 127
@60960 , @3.21437984496124 Channel: 1 
Note on, A3 key =  57;WhichDrum: T3 ; velocity: 0
@60960 , @3.21437984496124 Channel: 1 
Note on, C3 key =  48;WhichDrum: B ; velocity: 127
@61020 , @3.217543604651163 Channel: 1 
Note on, C3 key =  48;WhichDrum: B ; velocity: 0
@61020 , @3.217543604651163 Channel: 1 
Note on, B2 key =  47;WhichDrum: T1 ; velocity: 127
@61080 , @3.2207073643410853 Channel: 1 
Note on, B2 key =  47;WhichDrum: T1 ; velocity: 0
@61080 , @3.2207073643410853 Channel: 1 
Note on, A2 key =  45;WhichDrum: T3 ; velocity: 127
@61140 , @3.2238711240310076 Channel: 1 
Note on, A2 key =  45;WhichDrum: T3 ; velocity: 0
@61140 , @3.2238711240310076 Channel: 1 
Note on, F3 key =  53;WhichDrum: HH ; velocity: 127
@61200 , @3.2270348837209304 Channel: 1 
Note on, F3 key =  53;WhichDrum: HH ; velocity: 0
@61200 , @3.2270348837209304 Channel: 1 
Note on, E3 key =  52;WhichDrum: S ; velocity: 127
@61260 , @3.2301986434108527 Channel: 1 
Note on, E3 key =  52;WhichDrum: S ; velocity: 0
@61260 , @3.2301986434108527 Channel: 1 
Note on, D3 key =  50;WhichDrum: T2 ; velocity: 127
@61320 , @3.233362403100775 Channel: 1 
Note on, D3 key =  50;WhichDrum: T2 ; velocity: 0
@61320 , @3.233362403100775 Channel: 1 
Note on, C3 key =  48;WhichDrum: B ; velocity: 127
@61380 , @3.236526162790698 Channel: 1 
Note on, C3 key =  48;WhichDrum: B ; velocity: 0
@61380 , @3.236526162790698 Channel: 1 
Note on, A2 key =  45;WhichDrum: T3 ; velocity: 127
@61440 , @3.23968992248062 Channel: 1 
Note on, A2 key =  45;WhichDrum: T3 ; velocity: 0
@61440 , @3.23968992248062 Channel: 1 
Note on, G3 key =  55;WhichDrum: C2 ; velocity: 127
@61500 , @3.242853682170543 Channel: 1 
Note on, G3 key =  55;WhichDrum: C2 ; velocity: 0
@61500 , @3.242853682170543 Channel: 1 
Note on, A2 key =  45;WhichDrum: T3 ; velocity: 127
@61560 , @3.2460174418604653 Channel: 1 
Note on, A2 key =  45;WhichDrum: T3 ; velocity: 0
@61560 , @3.2460174418604653 Channel: 1 
Note on, A2 key =  45;WhichDrum: T3 ; velocity: 127
@61620 , @3.2491812015503876 Channel: 1 
Note on, A2 key =  45;WhichDrum: T3 ; velocity: 0
@61620 , @3.2491812015503876 Channel: 1 
Note on, A3 key =  57;WhichDrum: T3 ; velocity: 127
@61680 , @3.2523449612403104 Channel: 1 
Note on, A3 key =  57;WhichDrum: T3 ; velocity: 0
@61680 , @3.2523449612403104 Channel: 1 
Note on, A2 key =  45;WhichDrum: T3 ; velocity: 127
@61740 , @3.2555087209302327 Channel: 1 
Note on, A2 key =  45;WhichDrum: T3 ; velocity: 0
@61740 , @3.2555087209302327 Channel: 1 
Note on, A2 key =  45;WhichDrum: T3 ; velocity: 127
@61800 , @3.258672480620155 Channel: 1 
Note on, A2 key =  45;WhichDrum: T3 ; velocity: 0
@61800 , @3.258672480620155 Channel: 1 
Note on, A3 key =  57;WhichDrum: T3 ; velocity: 127
@61860 , @3.261836240310078 Channel: 1 
Note on, A3 key =  57;WhichDrum: T3 ; velocity: 0
@61860 , @3.261836240310078 Channel: 1 
Note on, A2 key =  45;WhichDrum: T3 ; velocity: 127
@61920 , @3.265 Channel: 1 
Note on, A2 key =  45;WhichDrum: T3 ; velocity: 0
@61920 , @3.265 Channel: 1 
Note on, C4 key =  60;WhichDrum: B ; velocity: 127
@61920 , @3.265 Channel: 1 
Note on, G3 key =  55;WhichDrum: C2 ; velocity: 127
@61980 , @3.2681637596899225 Channel: 1 
Note on, C4 key =  60;WhichDrum: B ; velocity: 0
@61980 , @3.2681637596899225 Channel: 1 
Note on, G3 key =  55;WhichDrum: C2 ; velocity: 0
@61980 , @3.2681637596899225 Channel: 1 
Note on, A2 key =  45;WhichDrum: T3 ; velocity: 127
@62040 , @3.2713275193798452 Channel: 1 
Note on, A2 key =  45;WhichDrum: T3 ; velocity: 0
@62040 , @3.2713275193798452 Channel: 1 
Note on, A2 key =  45;WhichDrum: T3 ; velocity: 127
@62100 , @3.2744912790697676 Channel: 1 
Note on, A2 key =  45;WhichDrum: T3 ; velocity: 0
@62100 , @3.2744912790697676 Channel: 1 
Note on, A3 key =  57;WhichDrum: T3 ; velocity: 127
@62160 , @3.27765503875969 Channel: 1 
Note on, A3 key =  57;WhichDrum: T3 ; velocity: 0
@62160 , @3.27765503875969 Channel: 1 
Note on, A2 key =  45;WhichDrum: T3 ; velocity: 127
@62220 , @3.2808187984496127 Channel: 1 
Note on, A2 key =  45;WhichDrum: T3 ; velocity: 0
@62220 , @3.2808187984496127 Channel: 1 
Note on, A2 key =  45;WhichDrum: T3 ; velocity: 127
@62280 , @3.283982558139535 Channel: 1 
Note on, A2 key =  45;WhichDrum: T3 ; velocity: 0
@62280 , @3.283982558139535 Channel: 1 
Note on, A3 key =  57;WhichDrum: T3 ; velocity: 127
@62340 , @3.2871463178294573 Channel: 1 
Note on, A3 key =  57;WhichDrum: T3 ; velocity: 0
@62340 , @3.2871463178294573 Channel: 1 
Note on, A2 key =  45;WhichDrum: T3 ; velocity: 127
@62400 , @3.29031007751938 Channel: 1 
Note on, A2 key =  45;WhichDrum: T3 ; velocity: 0
@62400 , @3.29031007751938 Channel: 1 
Note on, B3 key =  59;WhichDrum: T1 ; velocity: 127
@62400 , @3.29031007751938 Channel: 1 
Note on, F#3 key =  54;WhichDrum: C1 ; velocity: 127
@62460 , @3.2934738372093024 Channel: 1 
Note on, B3 key =  59;WhichDrum: T1 ; velocity: 0
@62460 , @3.2934738372093024 Channel: 1 
Note on, F#3 key =  54;WhichDrum: C1 ; velocity: 0
@62460 , @3.2934738372093024 Channel: 1 
Note on, A2 key =  45;WhichDrum: T3 ; velocity: 127
@62520 , @3.296637596899225 Channel: 1 
Note on, A2 key =  45;WhichDrum: T3 ; velocity: 0
@62520 , @3.296637596899225 Channel: 1 
Note on, A2 key =  45;WhichDrum: T3 ; velocity: 127
@62580 , @3.2998013565891475 Channel: 1 
Note on, A2 key =  45;WhichDrum: T3 ; velocity: 0
@62580 , @3.2998013565891475 Channel: 1 
Note on, A3 key =  57;WhichDrum: T3 ; velocity: 127
@62640 , @3.30296511627907 Channel: 1 
Note on, A3 key =  57;WhichDrum: T3 ; velocity: 0
@62640 , @3.30296511627907 Channel: 1 
Note on, A2 key =  45;WhichDrum: T3 ; velocity: 127
@62700 , @3.3061288759689926 Channel: 1 
Note on, A2 key =  45;WhichDrum: T3 ; velocity: 0
@62700 , @3.3061288759689926 Channel: 1 
Note on, A2 key =  45;WhichDrum: T3 ; velocity: 127
@62760 , @3.309292635658915 Channel: 1 
Note on, A2 key =  45;WhichDrum: T3 ; velocity: 0
@62760 , @3.309292635658915 Channel: 1 
Note on, A3 key =  57;WhichDrum: T3 ; velocity: 127
@62880 , @3.31562015503876 Channel: 1 
Note on, A3 key =  57;WhichDrum: T3 ; velocity: 0
@62880 , @3.31562015503876 Channel: 1 
Note on, C3 key =  48;WhichDrum: B ; velocity: 127
@62940 , @3.3187839147286824 Channel: 1 
Note on, C3 key =  48;WhichDrum: B ; velocity: 0
@62940 , @3.3187839147286824 Channel: 1 
Note on, B2 key =  47;WhichDrum: T1 ; velocity: 127
@63000 , @3.3219476744186047 Channel: 1 
Note on, B2 key =  47;WhichDrum: T1 ; velocity: 0
@63000 , @3.3219476744186047 Channel: 1 
Note on, A2 key =  45;WhichDrum: T3 ; velocity: 127
@63060 , @3.3251114341085275 Channel: 1 
Note on, A2 key =  45;WhichDrum: T3 ; velocity: 0
@63060 , @3.3251114341085275 Channel: 1 
Note on, F3 key =  53;WhichDrum: HH ; velocity: 127
@63120 , @3.32827519379845 Channel: 1 
Note on, F3 key =  53;WhichDrum: HH ; velocity: 0
@63120 , @3.32827519379845 Channel: 1 
Note on, E3 key =  52;WhichDrum: S ; velocity: 127
@63180 , @3.331438953488372 Channel: 1 
Note on, E3 key =  52;WhichDrum: S ; velocity: 0
@63180 , @3.331438953488372 Channel: 1 
Note on, D3 key =  50;WhichDrum: T2 ; velocity: 127
@63240 , @3.334602713178295 Channel: 1 
Note on, D3 key =  50;WhichDrum: T2 ; velocity: 0
@63240 , @3.334602713178295 Channel: 1 
Note on, C3 key =  48;WhichDrum: B ; velocity: 127
@63300 , @3.3377664728682173 Channel: 1 
Note on, C3 key =  48;WhichDrum: B ; velocity: 0
@63300 , @3.3377664728682173 Channel: 1 
Note on, A2 key =  45;WhichDrum: T3 ; velocity: 127
@63360 , @3.3409302325581396 Channel: 1 
Note on, A2 key =  45;WhichDrum: T3 ; velocity: 0
@63360 , @3.3409302325581396 Channel: 1 
Note on, D4 key =  62;WhichDrum: T2 ; velocity: 127
@63360 , @3.3409302325581396 Channel: 1 
Note on, G3 key =  55;WhichDrum: C2 ; velocity: 127
@63840 , @3.3662403100775196 Channel: 1 
Note on, D4 key =  62;WhichDrum: T2 ; velocity: 0
@63840 , @3.3662403100775196 Channel: 1 
Note on, G3 key =  55;WhichDrum: C2 ; velocity: 0
@63840 , @3.3662403100775196 Channel: 1 
Note on, C#4 key =  61;WhichDrum: T3 ; velocity: 127
@63840 , @3.3662403100775196 Channel: 1 
Note on, F#3 key =  54;WhichDrum: C1 ; velocity: 127
@64080 , @3.3788953488372098 Channel: 1 
Note on, C#4 key =  61;WhichDrum: T3 ; velocity: 0
@64080 , @3.3788953488372098 Channel: 1 
Note on, F#3 key =  54;WhichDrum: C1 ; velocity: 0
@64080 , @3.3788953488372098 Channel: 1 
Note on, C4 key =  60;WhichDrum: B ; velocity: 127
@64080 , @3.3788953488372098 Channel: 1 
Note on, F3 key =  53;WhichDrum: HH ; velocity: 127
@64320 , @3.3915503875968995 Channel: 1 
Note on, C4 key =  60;WhichDrum: B ; velocity: 0
@64320 , @3.3915503875968995 Channel: 1 
Note on, F3 key =  53;WhichDrum: HH ; velocity: 0
@64320 , @3.3915503875968995 Channel: 1 
Note on, E2 key =  40;WhichDrum: S ; velocity: 127
@64380 , @3.394714147286822 Channel: 1 
Note on, E2 key =  40;WhichDrum: S ; velocity: 0
@64380 , @3.394714147286822 Channel: 1 
Note on, E2 key =  40;WhichDrum: S ; velocity: 127
@64440 , @3.3978779069767446 Channel: 1 
Note on, E2 key =  40;WhichDrum: S ; velocity: 0
@64440 , @3.3978779069767446 Channel: 1 
Note on, E2 key =  40;WhichDrum: S ; velocity: 127
@64500 , @3.401041666666667 Channel: 1 
Note on, E2 key =  40;WhichDrum: S ; velocity: 0
@64500 , @3.401041666666667 Channel: 1 
Note on, E2 key =  40;WhichDrum: S ; velocity: 127
@64560 , @3.4042054263565897 Channel: 1 
Note on, E2 key =  40;WhichDrum: S ; velocity: 0
@64560 , @3.4042054263565897 Channel: 1 
Note on, E2 key =  40;WhichDrum: S ; velocity: 127
@64620 , @3.407369186046512 Channel: 1 
Note on, E2 key =  40;WhichDrum: S ; velocity: 0
@64620 , @3.407369186046512 Channel: 1 
Note on, E2 key =  40;WhichDrum: S ; velocity: 127
@64680 , @3.4105329457364344 Channel: 1 
Note on, E2 key =  40;WhichDrum: S ; velocity: 0
@64680 , @3.4105329457364344 Channel: 1 
Note on, E2 key =  40;WhichDrum: S ; velocity: 127
@64740 , @3.413696705426357 Channel: 1 
Note on, E2 key =  40;WhichDrum: S ; velocity: 0
@64740 , @3.413696705426357 Channel: 1 
Note on, E2 key =  40;WhichDrum: S ; velocity: 127
@64800 , @3.4168604651162795 Channel: 1 
Note on, E2 key =  40;WhichDrum: S ; velocity: 0
@64800 , @3.4168604651162795 Channel: 1 
Note on, E2 key =  40;WhichDrum: S ; velocity: 127
@64860 , @3.420024224806202 Channel: 1 
Note on, E2 key =  40;WhichDrum: S ; velocity: 0
@64860 , @3.420024224806202 Channel: 1 
Note on, E2 key =  40;WhichDrum: S ; velocity: 127
@64920 , @3.4231879844961246 Channel: 1 
Note on, E2 key =  40;WhichDrum: S ; velocity: 0
@64920 , @3.4231879844961246 Channel: 1 
Note on, E2 key =  40;WhichDrum: S ; velocity: 127
@64980 , @3.426351744186047 Channel: 1 
Note on, E2 key =  40;WhichDrum: S ; velocity: 0
@64980 , @3.426351744186047 Channel: 1 
Note on, E2 key =  40;WhichDrum: S ; velocity: 127
@65040 , @3.4295155038759693 Channel: 1 
Note on, E2 key =  40;WhichDrum: S ; velocity: 0
@65040 , @3.4295155038759693 Channel: 1 
Note on, E2 key =  40;WhichDrum: S ; velocity: 127
@65100 , @3.432679263565892 Channel: 1 
Note on, E2 key =  40;WhichDrum: S ; velocity: 0
@65100 , @3.432679263565892 Channel: 1 
Note on, E2 key =  40;WhichDrum: S ; velocity: 127
@65160 , @3.4358430232558144 Channel: 1 
Note on, E2 key =  40;WhichDrum: S ; velocity: 0
@65160 , @3.4358430232558144 Channel: 1 
Note on, E2 key =  40;WhichDrum: S ; velocity: 127
@65220 , @3.4390067829457367 Channel: 1 
Note on, E2 key =  40;WhichDrum: S ; velocity: 0
@65220 , @3.4390067829457367 Channel: 1 
Note on, E2 key =  40;WhichDrum: S ; velocity: 127
@65280 , @3.4421705426356595 Channel: 1 
Note on, E2 key =  40;WhichDrum: S ; velocity: 0
@65280 , @3.4421705426356595 Channel: 1 
Note on, D4 key =  62;WhichDrum: T2 ; velocity: 127
@65280 , @3.4421705426356595 Channel: 1 
Note on, G3 key =  55;WhichDrum: C2 ; velocity: 127
@65760 , @3.4674806201550394 Channel: 1 
Note on, D4 key =  62;WhichDrum: T2 ; velocity: 0
@65760 , @3.4674806201550394 Channel: 1 
Note on, G3 key =  55;WhichDrum: C2 ; velocity: 0
@65760 , @3.4674806201550394 Channel: 1 
Note on, C#4 key =  61;WhichDrum: T3 ; velocity: 127
@65760 , @3.4674806201550394 Channel: 1 
Note on, F#3 key =  54;WhichDrum: C1 ; velocity: 127
@66000 , @3.4801356589147283 Channel: 1 
Note on, C#4 key =  61;WhichDrum: T3 ; velocity: 0
@66000 , @3.4801356589147283 Channel: 1 
Note on, F#3 key =  54;WhichDrum: C1 ; velocity: 0
@66000 , @3.4801356589147283 Channel: 1 
Note on, C4 key =  60;WhichDrum: B ; velocity: 127
@66000 , @3.4801356589147283 Channel: 1 
Note on, F3 key =  53;WhichDrum: HH ; velocity: 127
@66240 , @3.4927906976744185 Channel: 1 
Note on, C4 key =  60;WhichDrum: B ; velocity: 0
@66240 , @3.4927906976744185 Channel: 1 
Note on, F3 key =  53;WhichDrum: HH ; velocity: 0
@66240 , @3.4927906976744185 Channel: 1 
Note on, E2 key =  40;WhichDrum: S ; velocity: 127
@66300 , @3.495954457364341 Channel: 1 
Note on, E2 key =  40;WhichDrum: S ; velocity: 0
@66300 , @3.495954457364341 Channel: 1 
Note on, E2 key =  40;WhichDrum: S ; velocity: 127
@66360 , @3.499118217054263 Channel: 1 
Note on, E2 key =  40;WhichDrum: S ; velocity: 0
@66360 , @3.499118217054263 Channel: 1 
Note on, E2 key =  40;WhichDrum: S ; velocity: 127
@66420 , @3.502281976744186 Channel: 1 
Note on, E2 key =  40;WhichDrum: S ; velocity: 0
@66420 , @3.502281976744186 Channel: 1 
Note on, E2 key =  40;WhichDrum: S ; velocity: 127
@66480 , @3.5054457364341083 Channel: 1 
Note on, E2 key =  40;WhichDrum: S ; velocity: 0
@66480 , @3.5054457364341083 Channel: 1 
Note on, E2 key =  40;WhichDrum: S ; velocity: 127
@66540 , @3.508609496124031 Channel: 1 
Note on, E2 key =  40;WhichDrum: S ; velocity: 0
@66540 , @3.508609496124031 Channel: 1 
Note on, E2 key =  40;WhichDrum: S ; velocity: 127
@66600 , @3.5117732558139534 Channel: 1 
Note on, E2 key =  40;WhichDrum: S ; velocity: 0
@66600 , @3.5117732558139534 Channel: 1 
Note on, E2 key =  40;WhichDrum: S ; velocity: 127
@66660 , @3.5149370155038757 Channel: 1 
Note on, E2 key =  40;WhichDrum: S ; velocity: 0
@66660 , @3.5149370155038757 Channel: 1 
Note on, E2 key =  40;WhichDrum: S ; velocity: 127
@66720 , @3.5181007751937985 Channel: 1 
Note on, E2 key =  40;WhichDrum: S ; velocity: 0
@66720 , @3.5181007751937985 Channel: 1 
Note on, E2 key =  40;WhichDrum: S ; velocity: 127
@66780 , @3.521264534883721 Channel: 1 
Note on, E2 key =  40;WhichDrum: S ; velocity: 0
@66780 , @3.521264534883721 Channel: 1 
Note on, E2 key =  40;WhichDrum: S ; velocity: 127
@66840 , @3.524428294573643 Channel: 1 
Note on, E2 key =  40;WhichDrum: S ; velocity: 0
@66840 , @3.524428294573643 Channel: 1 
Note on, E2 key =  40;WhichDrum: S ; velocity: 127
@66900 , @3.527592054263566 Channel: 1 
Note on, E2 key =  40;WhichDrum: S ; velocity: 0
@66900 , @3.527592054263566 Channel: 1 
Note on, E2 key =  40;WhichDrum: S ; velocity: 127
@66960 , @3.5307558139534883 Channel: 1 
Note on, E2 key =  40;WhichDrum: S ; velocity: 0
@66960 , @3.5307558139534883 Channel: 1 
Note on, E2 key =  40;WhichDrum: S ; velocity: 127
@67020 , @3.5339195736434106 Channel: 1 
Note on, E2 key =  40;WhichDrum: S ; velocity: 0
@67020 , @3.5339195736434106 Channel: 1 
Note on, E2 key =  40;WhichDrum: S ; velocity: 127
@67080 , @3.5370833333333334 Channel: 1 
Note on, E2 key =  40;WhichDrum: S ; velocity: 0
@67080 , @3.5370833333333334 Channel: 1 
Note on, E2 key =  40;WhichDrum: S ; velocity: 127
@67140 , @3.5402470930232557 Channel: 1 
Note on, E2 key =  40;WhichDrum: S ; velocity: 0
@67140 , @3.5402470930232557 Channel: 1 
Note on, E2 key =  40;WhichDrum: S ; velocity: 127
@67200 , @3.543410852713178 Channel: 1 
Note on, E2 key =  40;WhichDrum: S ; velocity: 0
@67200 , @3.543410852713178 Channel: 1 
Note on, D4 key =  62;WhichDrum: T2 ; velocity: 127
@67200 , @3.543410852713178 Channel: 1 
Note on, G3 key =  55;WhichDrum: C2 ; velocity: 127
@67680 , @3.568720930232558 Channel: 1 
Note on, D4 key =  62;WhichDrum: T2 ; velocity: 0
@67680 , @3.568720930232558 Channel: 1 
Note on, G3 key =  55;WhichDrum: C2 ; velocity: 0
@67680 , @3.568720930232558 Channel: 1 
Note on, C#4 key =  61;WhichDrum: T3 ; velocity: 127
@67680 , @3.568720930232558 Channel: 1 
Note on, F#3 key =  54;WhichDrum: C1 ; velocity: 127
@67920 , @3.581375968992248 Channel: 1 
Note on, C#4 key =  61;WhichDrum: T3 ; velocity: 0
@67920 , @3.581375968992248 Channel: 1 
Note on, F#3 key =  54;WhichDrum: C1 ; velocity: 0
@67920 , @3.581375968992248 Channel: 1 
Note on, C4 key =  60;WhichDrum: B ; velocity: 127
@67920 , @3.581375968992248 Channel: 1 
Note on, F3 key =  53;WhichDrum: HH ; velocity: 127
@68160 , @3.594031007751938 Channel: 1 
Note on, C4 key =  60;WhichDrum: B ; velocity: 0
@68160 , @3.594031007751938 Channel: 1 
Note on, F3 key =  53;WhichDrum: HH ; velocity: 0
@68160 , @3.594031007751938 Channel: 1 
Note on, E2 key =  40;WhichDrum: S ; velocity: 127
@68220 , @3.5971947674418603 Channel: 1 
Note on, E2 key =  40;WhichDrum: S ; velocity: 0
@68220 , @3.5971947674418603 Channel: 1 
Note on, E2 key =  40;WhichDrum: S ; velocity: 127
@68280 , @3.600358527131783 Channel: 1 
Note on, E2 key =  40;WhichDrum: S ; velocity: 0
@68280 , @3.600358527131783 Channel: 1 
Note on, E2 key =  40;WhichDrum: S ; velocity: 127
@68340 , @3.6035222868217054 Channel: 1 
Note on, E2 key =  40;WhichDrum: S ; velocity: 0
@68340 , @3.6035222868217054 Channel: 1 
Note on, E2 key =  40;WhichDrum: S ; velocity: 127
@68400 , @3.6066860465116277 Channel: 1 
Note on, E2 key =  40;WhichDrum: S ; velocity: 0
@68400 , @3.6066860465116277 Channel: 1 
Note on, E2 key =  40;WhichDrum: S ; velocity: 127
@68460 , @3.6098498062015505 Channel: 1 
Note on, E2 key =  40;WhichDrum: S ; velocity: 0
@68460 , @3.6098498062015505 Channel: 1 
Note on, E2 key =  40;WhichDrum: S ; velocity: 127
@68520 , @3.613013565891473 Channel: 1 
Note on, E2 key =  40;WhichDrum: S ; velocity: 0
@68520 , @3.613013565891473 Channel: 1 
Note on, E2 key =  40;WhichDrum: S ; velocity: 127
@68580 , @3.6161773255813956 Channel: 1 
Note on, E2 key =  40;WhichDrum: S ; velocity: 0
@68580 , @3.6161773255813956 Channel: 1 
Note on, E2 key =  40;WhichDrum: S ; velocity: 127
@68640 , @3.619341085271318 Channel: 1 
Note on, E2 key =  40;WhichDrum: S ; velocity: 0
@68640 , @3.619341085271318 Channel: 1 
Note on, E2 key =  40;WhichDrum: S ; velocity: 127
@68700 , @3.6225048449612403 Channel: 1 
Note on, E2 key =  40;WhichDrum: S ; velocity: 0
@68700 , @3.6225048449612403 Channel: 1 
Note on, E2 key =  40;WhichDrum: S ; velocity: 127
@68760 , @3.625668604651163 Channel: 1 
Note on, E2 key =  40;WhichDrum: S ; velocity: 0
@68760 , @3.625668604651163 Channel: 1 
Note on, E2 key =  40;WhichDrum: S ; velocity: 127
@68820 , @3.6288323643410854 Channel: 1 
Note on, E2 key =  40;WhichDrum: S ; velocity: 0
@68820 , @3.6288323643410854 Channel: 1 
Note on, E2 key =  40;WhichDrum: S ; velocity: 127
@68880 , @3.6319961240310077 Channel: 1 
Note on, E2 key =  40;WhichDrum: S ; velocity: 0
@68880 , @3.6319961240310077 Channel: 1 
Note on, E2 key =  40;WhichDrum: S ; velocity: 127
@68940 , @3.6351598837209305 Channel: 1 
Note on, E2 key =  40;WhichDrum: S ; velocity: 0
@68940 , @3.6351598837209305 Channel: 1 
Note on, E2 key =  40;WhichDrum: S ; velocity: 127
@69000 , @3.638323643410853 Channel: 1 
Note on, E2 key =  40;WhichDrum: S ; velocity: 0
@69000 , @3.638323643410853 Channel: 1 
Note on, E2 key =  40;WhichDrum: S ; velocity: 127
@69060 , @3.641487403100775 Channel: 1 
Note on, E2 key =  40;WhichDrum: S ; velocity: 0
@69060 , @3.641487403100775 Channel: 1 
Note on, E2 key =  40;WhichDrum: S ; velocity: 127
@69120 , @3.644651162790698 Channel: 1 
Note on, E2 key =  40;WhichDrum: S ; velocity: 0
@69120 , @3.644651162790698 Channel: 1 
Note on, D4 key =  62;WhichDrum: T2 ; velocity: 127
@69120 , @3.644651162790698 Channel: 1 
Note on, G3 key =  55;WhichDrum: C2 ; velocity: 127
@69600 , @3.669961240310078 Channel: 1 
Note on, D4 key =  62;WhichDrum: T2 ; velocity: 0
@69600 , @3.669961240310078 Channel: 1 
Note on, G3 key =  55;WhichDrum: C2 ; velocity: 0
@69600 , @3.669961240310078 Channel: 1 
Note on, C#4 key =  61;WhichDrum: T3 ; velocity: 127
@69600 , @3.669961240310078 Channel: 1 
Note on, F#3 key =  54;WhichDrum: C1 ; velocity: 127
@69840 , @3.6826162790697676 Channel: 1 
Note on, C#4 key =  61;WhichDrum: T3 ; velocity: 0
@69840 , @3.6826162790697676 Channel: 1 
Note on, F#3 key =  54;WhichDrum: C1 ; velocity: 0
@69840 , @3.6826162790697676 Channel: 1 
Note on, C4 key =  60;WhichDrum: B ; velocity: 127
@69840 , @3.6826162790697676 Channel: 1 
Note on, F3 key =  53;WhichDrum: HH ; velocity: 127
@70080 , @3.6952713178294574 Channel: 1 
Note on, C4 key =  60;WhichDrum: B ; velocity: 0
@70080 , @3.6952713178294574 Channel: 1 
Note on, F3 key =  53;WhichDrum: HH ; velocity: 0
@70080 , @3.6952713178294574 Channel: 1 
Note on, D3 key =  50;WhichDrum: T2 ; velocity: 127
@70140 , @3.69843507751938 Channel: 1 
Note on, D3 key =  50;WhichDrum: T2 ; velocity: 0
@70140 , @3.69843507751938 Channel: 1 
Note on, E3 key =  52;WhichDrum: S ; velocity: 127
@70200 , @3.7015988372093025 Channel: 1 
Note on, E3 key =  52;WhichDrum: S ; velocity: 0
@70200 , @3.7015988372093025 Channel: 1 
Note on, E2 key =  40;WhichDrum: S ; velocity: 127
@70260 , @3.704762596899225 Channel: 1 
Note on, E2 key =  40;WhichDrum: S ; velocity: 0
@70260 , @3.704762596899225 Channel: 1 
Note on, E3 key =  52;WhichDrum: S ; velocity: 127
@70320 , @3.7079263565891476 Channel: 1 
Note on, E3 key =  52;WhichDrum: S ; velocity: 0
@70320 , @3.7079263565891476 Channel: 1 
Note on, E2 key =  40;WhichDrum: S ; velocity: 127
@70380 , @3.71109011627907 Channel: 1 
Note on, E2 key =  40;WhichDrum: S ; velocity: 0
@70380 , @3.71109011627907 Channel: 1 
Note on, E2 key =  40;WhichDrum: S ; velocity: 127
@70440 , @3.7142538759689923 Channel: 1 
Note on, E2 key =  40;WhichDrum: S ; velocity: 0
@70440 , @3.7142538759689923 Channel: 1 
Note on, E3 key =  52;WhichDrum: S ; velocity: 127
@70500 , @3.717417635658915 Channel: 1 
Note on, E3 key =  52;WhichDrum: S ; velocity: 0
@70500 , @3.717417635658915 Channel: 1 
Note on, E2 key =  40;WhichDrum: S ; velocity: 127
@70560 , @3.7205813953488374 Channel: 1 
Note on, E2 key =  40;WhichDrum: S ; velocity: 0
@70560 , @3.7205813953488374 Channel: 1 
Note on, D3 key =  50;WhichDrum: T2 ; velocity: 127
@70560 , @3.7205813953488374 Channel: 1 
Note on, G3 key =  55;WhichDrum: C2 ; velocity: 127
@70620 , @3.72374515503876 Channel: 1 
Note on, D3 key =  50;WhichDrum: T2 ; velocity: 0
@70620 , @3.72374515503876 Channel: 1 
Note on, G3 key =  55;WhichDrum: C2 ; velocity: 0
@70620 , @3.72374515503876 Channel: 1 
Note on, E2 key =  40;WhichDrum: S ; velocity: 127
@70680 , @3.7269089147286825 Channel: 1 
Note on, E2 key =  40;WhichDrum: S ; velocity: 0
@70680 , @3.7269089147286825 Channel: 1 
Note on, E2 key =  40;WhichDrum: S ; velocity: 127
@70740 , @3.730072674418605 Channel: 1 
Note on, E2 key =  40;WhichDrum: S ; velocity: 0
@70740 , @3.730072674418605 Channel: 1 
Note on, E3 key =  52;WhichDrum: S ; velocity: 127
@70800 , @3.7332364341085276 Channel: 1 
Note on, E3 key =  52;WhichDrum: S ; velocity: 0
@70800 , @3.7332364341085276 Channel: 1 
Note on, E2 key =  40;WhichDrum: S ; velocity: 127
@70860 , @3.73640019379845 Channel: 1 
Note on, E2 key =  40;WhichDrum: S ; velocity: 0
@70860 , @3.73640019379845 Channel: 1 
Note on, E2 key =  40;WhichDrum: S ; velocity: 127
@70920 , @3.7395639534883722 Channel: 1 
Note on, E2 key =  40;WhichDrum: S ; velocity: 0
@70920 , @3.7395639534883722 Channel: 1 
Note on, E3 key =  52;WhichDrum: S ; velocity: 127
@70980 , @3.742727713178295 Channel: 1 
Note on, E3 key =  52;WhichDrum: S ; velocity: 0
@70980 , @3.742727713178295 Channel: 1 
Note on, E2 key =  40;WhichDrum: S ; velocity: 127
@71040 , @3.7458914728682173 Channel: 1 
Note on, E2 key =  40;WhichDrum: S ; velocity: 0
@71040 , @3.7458914728682173 Channel: 1 
Note on, F#3 key =  54;WhichDrum: C1 ; velocity: 127
@71040 , @3.7458914728682173 Channel: 1 
Note on, C#3 key =  49;WhichDrum: T3 ; velocity: 127
@71100 , @3.7490552325581397 Channel: 1 
Note on, F#3 key =  54;WhichDrum: C1 ; velocity: 0
@71100 , @3.7490552325581397 Channel: 1 
Note on, C#3 key =  49;WhichDrum: T3 ; velocity: 0
@71100 , @3.7490552325581397 Channel: 1 
Note on, E2 key =  40;WhichDrum: S ; velocity: 127
@71160 , @3.7522189922480624 Channel: 1 
Note on, E2 key =  40;WhichDrum: S ; velocity: 0
@71160 , @3.7522189922480624 Channel: 1 
Note on, E2 key =  40;WhichDrum: S ; velocity: 127
@71220 , @3.7553827519379848 Channel: 1 
Note on, E2 key =  40;WhichDrum: S ; velocity: 0
@71220 , @3.7553827519379848 Channel: 1 
Note on, E3 key =  52;WhichDrum: S ; velocity: 127
@71280 , @3.758546511627907 Channel: 1 
Note on, E3 key =  52;WhichDrum: S ; velocity: 0
@71280 , @3.758546511627907 Channel: 1 
Note on, E2 key =  40;WhichDrum: S ; velocity: 127
@71340 , @3.76171027131783 Channel: 1 
Note on, E2 key =  40;WhichDrum: S ; velocity: 0
@71340 , @3.76171027131783 Channel: 1 
Note on, E2 key =  40;WhichDrum: S ; velocity: 127
@71400 , @3.764874031007752 Channel: 1 
Note on, E2 key =  40;WhichDrum: S ; velocity: 0
@71400 , @3.764874031007752 Channel: 1 
Note on, E3 key =  52;WhichDrum: S ; velocity: 127
@71520 , @3.7712015503875973 Channel: 1 
Note on, E3 key =  52;WhichDrum: S ; velocity: 0
@71520 , @3.7712015503875973 Channel: 1 
Note on, G2 key =  43;WhichDrum: C2 ; velocity: 127
@71580 , @3.7743653100775196 Channel: 1 
Note on, G2 key =  43;WhichDrum: C2 ; velocity: 0
@71580 , @3.7743653100775196 Channel: 1 
Note on, F#2 key =  42;WhichDrum: C1 ; velocity: 127
@71640 , @3.7775290697674424 Channel: 1 
Note on, F#2 key =  42;WhichDrum: C1 ; velocity: 0
@71640 , @3.7775290697674424 Channel: 1 
Note on, E2 key =  40;WhichDrum: S ; velocity: 127
@71700 , @3.7806928294573647 Channel: 1 
Note on, E2 key =  40;WhichDrum: S ; velocity: 0
@71700 , @3.7806928294573647 Channel: 1 
Note on, C3 key =  48;WhichDrum: B ; velocity: 127
@71760 , @3.783856589147287 Channel: 1 
Note on, C3 key =  48;WhichDrum: B ; velocity: 0
@71760 , @3.783856589147287 Channel: 1 
Note on, B2 key =  47;WhichDrum: T1 ; velocity: 127
@71820 , @3.78702034883721 Channel: 1 
Note on, B2 key =  47;WhichDrum: T1 ; velocity: 0
@71820 , @3.78702034883721 Channel: 1 
Note on, A2 key =  45;WhichDrum: T3 ; velocity: 127
@71880 , @3.790184108527132 Channel: 1 
Note on, A2 key =  45;WhichDrum: T3 ; velocity: 0
@71880 , @3.790184108527132 Channel: 1 
Note on, G2 key =  43;WhichDrum: C2 ; velocity: 127
@71940 , @3.7933478682170545 Channel: 1 
Note on, G2 key =  43;WhichDrum: C2 ; velocity: 0
@71940 , @3.7933478682170545 Channel: 1 
Note on, E2 key =  40;WhichDrum: S ; velocity: 127
@72000 , @3.7965116279069773 Channel: 1 
Note on, E2 key =  40;WhichDrum: S ; velocity: 0
@72000 , @3.7965116279069773 Channel: 1 
Note on, D3 key =  50;WhichDrum: T2 ; velocity: 127
@72060 , @3.7996753875968996 Channel: 1 
Note on, D3 key =  50;WhichDrum: T2 ; velocity: 0
@72060 , @3.7996753875968996 Channel: 1 
Note on, E3 key =  52;WhichDrum: S ; velocity: 127
@72120 , @3.802839147286822 Channel: 1 
Note on, E3 key =  52;WhichDrum: S ; velocity: 0
@72120 , @3.802839147286822 Channel: 1 
Note on, E2 key =  40;WhichDrum: S ; velocity: 127
@72180 , @3.8060029069767447 Channel: 1 
Note on, E2 key =  40;WhichDrum: S ; velocity: 0
@72180 , @3.8060029069767447 Channel: 1 
Note on, E3 key =  52;WhichDrum: S ; velocity: 127
@72240 , @3.809166666666667 Channel: 1 
Note on, E3 key =  52;WhichDrum: S ; velocity: 0
@72240 , @3.809166666666667 Channel: 1 
Note on, E2 key =  40;WhichDrum: S ; velocity: 127
@72300 , @3.8123304263565894 Channel: 1 
Note on, E2 key =  40;WhichDrum: S ; velocity: 0
@72300 , @3.8123304263565894 Channel: 1 
Note on, E2 key =  40;WhichDrum: S ; velocity: 127
@72360 , @3.815494186046512 Channel: 1 
Note on, E2 key =  40;WhichDrum: S ; velocity: 0
@72360 , @3.815494186046512 Channel: 1 
Note on, E3 key =  52;WhichDrum: S ; velocity: 127
@72420 , @3.8186579457364345 Channel: 1 
Note on, E3 key =  52;WhichDrum: S ; velocity: 0
@72420 , @3.8186579457364345 Channel: 1 
Note on, E2 key =  40;WhichDrum: S ; velocity: 127
@72480 , @3.821821705426357 Channel: 1 
Note on, E2 key =  40;WhichDrum: S ; velocity: 0
@72480 , @3.821821705426357 Channel: 1 
Note on, D3 key =  50;WhichDrum: T2 ; velocity: 127
@72480 , @3.821821705426357 Channel: 1 
Note on, G3 key =  55;WhichDrum: C2 ; velocity: 127
@72540 , @3.8249854651162796 Channel: 1 
Note on, D3 key =  50;WhichDrum: T2 ; velocity: 0
@72540 , @3.8249854651162796 Channel: 1 
Note on, G3 key =  55;WhichDrum: C2 ; velocity: 0
@72540 , @3.8249854651162796 Channel: 1 
Note on, E2 key =  40;WhichDrum: S ; velocity: 127
@72600 , @3.828149224806202 Channel: 1 
Note on, E2 key =  40;WhichDrum: S ; velocity: 0
@72600 , @3.828149224806202 Channel: 1 
Note on, E2 key =  40;WhichDrum: S ; velocity: 127
@72660 , @3.8313129844961247 Channel: 1 
Note on, E2 key =  40;WhichDrum: S ; velocity: 0
@72660 , @3.8313129844961247 Channel: 1 
Note on, E3 key =  52;WhichDrum: S ; velocity: 127
@72720 , @3.834476744186047 Channel: 1 
Note on, E3 key =  52;WhichDrum: S ; velocity: 0
@72720 , @3.834476744186047 Channel: 1 
Note on, E2 key =  40;WhichDrum: S ; velocity: 127
@72780 , @3.8376405038759693 Channel: 1 
Note on, E2 key =  40;WhichDrum: S ; velocity: 0
@72780 , @3.8376405038759693 Channel: 1 
Note on, E2 key =  40;WhichDrum: S ; velocity: 127
@72840 , @3.840804263565892 Channel: 1 
Note on, E2 key =  40;WhichDrum: S ; velocity: 0
@72840 , @3.840804263565892 Channel: 1 
Note on, E3 key =  52;WhichDrum: S ; velocity: 127
@72900 , @3.8439680232558144 Channel: 1 
Note on, E3 key =  52;WhichDrum: S ; velocity: 0
@72900 , @3.8439680232558144 Channel: 1 
Note on, E2 key =  40;WhichDrum: S ; velocity: 127
@72960 , @3.8471317829457368 Channel: 1 
Note on, E2 key =  40;WhichDrum: S ; velocity: 0
@72960 , @3.8471317829457368 Channel: 1 
Note on, F#3 key =  54;WhichDrum: C1 ; velocity: 127
@72960 , @3.8471317829457368 Channel: 1 
Note on, C#3 key =  49;WhichDrum: T3 ; velocity: 127
@73020 , @3.8502955426356595 Channel: 1 
Note on, F#3 key =  54;WhichDrum: C1 ; velocity: 0
@73020 , @3.8502955426356595 Channel: 1 
Note on, C#3 key =  49;WhichDrum: T3 ; velocity: 0
@73020 , @3.8502955426356595 Channel: 1 
Note on, E2 key =  40;WhichDrum: S ; velocity: 127
@73080 , @3.853459302325582 Channel: 1 
Note on, E2 key =  40;WhichDrum: S ; velocity: 0
@73080 , @3.853459302325582 Channel: 1 
Note on, E2 key =  40;WhichDrum: S ; velocity: 127
@73140 , @3.856623062015504 Channel: 1 
Note on, E2 key =  40;WhichDrum: S ; velocity: 0
@73140 , @3.856623062015504 Channel: 1 
Note on, E3 key =  52;WhichDrum: S ; velocity: 127
@73200 , @3.859786821705427 Channel: 1 
Note on, E3 key =  52;WhichDrum: S ; velocity: 0
@73200 , @3.859786821705427 Channel: 1 
Note on, E2 key =  40;WhichDrum: S ; velocity: 127
@73260 , @3.8629505813953493 Channel: 1 
Note on, E2 key =  40;WhichDrum: S ; velocity: 0
@73260 , @3.8629505813953493 Channel: 1 
Note on, E2 key =  40;WhichDrum: S ; velocity: 127
@73320 , @3.8661143410852716 Channel: 1 
Note on, E2 key =  40;WhichDrum: S ; velocity: 0
@73320 , @3.8661143410852716 Channel: 1 
Note on, E3 key =  52;WhichDrum: S ; velocity: 127
@73440 , @3.8724418604651167 Channel: 1 
Note on, E3 key =  52;WhichDrum: S ; velocity: 0
@73440 , @3.8724418604651167 Channel: 1 
Note on, G2 key =  43;WhichDrum: C2 ; velocity: 127
@73500 , @3.875605620155039 Channel: 1 
Note on, G2 key =  43;WhichDrum: C2 ; velocity: 0
@73500 , @3.875605620155039 Channel: 1 
Note on, F#2 key =  42;WhichDrum: C1 ; velocity: 127
@73560 , @3.878769379844961 Channel: 1 
Note on, F#2 key =  42;WhichDrum: C1 ; velocity: 0
@73560 , @3.878769379844961 Channel: 1 
Note on, E2 key =  40;WhichDrum: S ; velocity: 127
@73620 , @3.8819331395348837 Channel: 1 
Note on, E2 key =  40;WhichDrum: S ; velocity: 0
@73620 , @3.8819331395348837 Channel: 1 
Note on, C3 key =  48;WhichDrum: B ; velocity: 127
@73680 , @3.885096899224806 Channel: 1 
Note on, C3 key =  48;WhichDrum: B ; velocity: 0
@73680 , @3.885096899224806 Channel: 1 
Note on, B2 key =  47;WhichDrum: T1 ; velocity: 127
@73740 , @3.8882606589147284 Channel: 1 
Note on, B2 key =  47;WhichDrum: T1 ; velocity: 0
@73740 , @3.8882606589147284 Channel: 1 
Note on, A2 key =  45;WhichDrum: T3 ; velocity: 127
@73800 , @3.891424418604651 Channel: 1 
Note on, A2 key =  45;WhichDrum: T3 ; velocity: 0
@73800 , @3.891424418604651 Channel: 1 
Note on, G2 key =  43;WhichDrum: C2 ; velocity: 127
@73860 , @3.8945881782945735 Channel: 1 
Note on, G2 key =  43;WhichDrum: C2 ; velocity: 0
@73860 , @3.8945881782945735 Channel: 1 
Note on, E2 key =  40;WhichDrum: S ; velocity: 127
@73920 , @3.897751937984496 Channel: 1 
Note on, E2 key =  40;WhichDrum: S ; velocity: 0
@73920 , @3.897751937984496 Channel: 1 
Note on, D3 key =  50;WhichDrum: T2 ; velocity: 127
@73980 , @3.9009156976744186 Channel: 1 
Note on, D3 key =  50;WhichDrum: T2 ; velocity: 0
@73980 , @3.9009156976744186 Channel: 1 
Note on, E3 key =  52;WhichDrum: S ; velocity: 127
@74040 , @3.904079457364341 Channel: 1 
Note on, E3 key =  52;WhichDrum: S ; velocity: 0
@74040 , @3.904079457364341 Channel: 1 
Note on, E2 key =  40;WhichDrum: S ; velocity: 127
@74100 , @3.9072432170542633 Channel: 1 
Note on, E2 key =  40;WhichDrum: S ; velocity: 0
@74100 , @3.9072432170542633 Channel: 1 
Note on, E3 key =  52;WhichDrum: S ; velocity: 127
@74160 , @3.910406976744186 Channel: 1 
Note on, E3 key =  52;WhichDrum: S ; velocity: 0
@74160 , @3.910406976744186 Channel: 1 
Note on, E2 key =  40;WhichDrum: S ; velocity: 127
@74220 , @3.9135707364341084 Channel: 1 
Note on, E2 key =  40;WhichDrum: S ; velocity: 0
@74220 , @3.9135707364341084 Channel: 1 
Note on, E2 key =  40;WhichDrum: S ; velocity: 127
@74280 , @3.9167344961240307 Channel: 1 
Note on, E2 key =  40;WhichDrum: S ; velocity: 0
@74280 , @3.9167344961240307 Channel: 1 
Note on, E3 key =  52;WhichDrum: S ; velocity: 127
@74340 , @3.9198982558139535 Channel: 1 
Note on, E3 key =  52;WhichDrum: S ; velocity: 0
@74340 , @3.9198982558139535 Channel: 1 
Note on, E2 key =  40;WhichDrum: S ; velocity: 127
@74400 , @3.923062015503876 Channel: 1 
Note on, E2 key =  40;WhichDrum: S ; velocity: 0
@74400 , @3.923062015503876 Channel: 1 
Note on, D3 key =  50;WhichDrum: T2 ; velocity: 127
@74400 , @3.923062015503876 Channel: 1 
Note on, G3 key =  55;WhichDrum: C2 ; velocity: 127
@74460 , @3.926225775193798 Channel: 1 
Note on, D3 key =  50;WhichDrum: T2 ; velocity: 0
@74460 , @3.926225775193798 Channel: 1 
Note on, G3 key =  55;WhichDrum: C2 ; velocity: 0
@74460 , @3.926225775193798 Channel: 1 
Note on, E2 key =  40;WhichDrum: S ; velocity: 127
@74520 , @3.929389534883721 Channel: 1 
Note on, E2 key =  40;WhichDrum: S ; velocity: 0
@74520 , @3.929389534883721 Channel: 1 
Note on, E2 key =  40;WhichDrum: S ; velocity: 127
@74580 , @3.932553294573643 Channel: 1 
Note on, E2 key =  40;WhichDrum: S ; velocity: 0
@74580 , @3.932553294573643 Channel: 1 
Note on, E3 key =  52;WhichDrum: S ; velocity: 127
@74640 , @3.935717054263566 Channel: 1 
Note on, E3 key =  52;WhichDrum: S ; velocity: 0
@74640 , @3.935717054263566 Channel: 1 
Note on, E2 key =  40;WhichDrum: S ; velocity: 127
@74700 , @3.9388808139534883 Channel: 1 
Note on, E2 key =  40;WhichDrum: S ; velocity: 0
@74700 , @3.9388808139534883 Channel: 1 
Note on, E2 key =  40;WhichDrum: S ; velocity: 127
@74760 , @3.9420445736434107 Channel: 1 
Note on, E2 key =  40;WhichDrum: S ; velocity: 0
@74760 , @3.9420445736434107 Channel: 1 
Note on, E3 key =  52;WhichDrum: S ; velocity: 127
@74820 , @3.9452083333333334 Channel: 1 
Note on, E3 key =  52;WhichDrum: S ; velocity: 0
@74820 , @3.9452083333333334 Channel: 1 
Note on, E2 key =  40;WhichDrum: S ; velocity: 127
@74880 , @3.9483720930232558 Channel: 1 
Note on, E2 key =  40;WhichDrum: S ; velocity: 0
@74880 , @3.9483720930232558 Channel: 1 
Note on, F#3 key =  54;WhichDrum: C1 ; velocity: 127
@74880 , @3.9483720930232558 Channel: 1 
Note on, C#3 key =  49;WhichDrum: T3 ; velocity: 127
@74940 , @3.951535852713178 Channel: 1 
Note on, F#3 key =  54;WhichDrum: C1 ; velocity: 0
@74940 , @3.951535852713178 Channel: 1 
Note on, C#3 key =  49;WhichDrum: T3 ; velocity: 0
@74940 , @3.951535852713178 Channel: 1 
Note on, E2 key =  40;WhichDrum: S ; velocity: 127
@75000 , @3.954699612403101 Channel: 1 
Note on, E2 key =  40;WhichDrum: S ; velocity: 0
@75000 , @3.954699612403101 Channel: 1 
Note on, E2 key =  40;WhichDrum: S ; velocity: 127
@75060 , @3.957863372093023 Channel: 1 
Note on, E2 key =  40;WhichDrum: S ; velocity: 0
@75060 , @3.957863372093023 Channel: 1 
Note on, E3 key =  52;WhichDrum: S ; velocity: 127
@75120 , @3.9610271317829455 Channel: 1 
Note on, E3 key =  52;WhichDrum: S ; velocity: 0
@75120 , @3.9610271317829455 Channel: 1 
Note on, E2 key =  40;WhichDrum: S ; velocity: 127
@75180 , @3.9641908914728683 Channel: 1 
Note on, E2 key =  40;WhichDrum: S ; velocity: 0
@75180 , @3.9641908914728683 Channel: 1 
Note on, E2 key =  40;WhichDrum: S ; velocity: 127
@75240 , @3.9673546511627906 Channel: 1 
Note on, E2 key =  40;WhichDrum: S ; velocity: 0
@75240 , @3.9673546511627906 Channel: 1 
Note on, E3 key =  52;WhichDrum: S ; velocity: 127
@75360 , @3.9736821705426357 Channel: 1 
Note on, E3 key =  52;WhichDrum: S ; velocity: 0
@75360 , @3.9736821705426357 Channel: 1 
Note on, G2 key =  43;WhichDrum: C2 ; velocity: 127
@75420 , @3.976845930232558 Channel: 1 
Note on, G2 key =  43;WhichDrum: C2 ; velocity: 0
@75420 , @3.976845930232558 Channel: 1 
Note on, F#2 key =  42;WhichDrum: C1 ; velocity: 127
@75480 , @3.9800096899224804 Channel: 1 
Note on, F#2 key =  42;WhichDrum: C1 ; velocity: 0
@75480 , @3.9800096899224804 Channel: 1 
Note on, E2 key =  40;WhichDrum: S ; velocity: 127
@75540 , @3.983173449612403 Channel: 1 
Note on, E2 key =  40;WhichDrum: S ; velocity: 0
@75540 , @3.983173449612403 Channel: 1 
Note on, C3 key =  48;WhichDrum: B ; velocity: 127
@75600 , @3.9863372093023255 Channel: 1 
Note on, C3 key =  48;WhichDrum: B ; velocity: 0
@75600 , @3.9863372093023255 Channel: 1 
Note on, B2 key =  47;WhichDrum: T1 ; velocity: 127
@75660 , @3.9895009689922483 Channel: 1 
Note on, B2 key =  47;WhichDrum: T1 ; velocity: 0
@75660 , @3.9895009689922483 Channel: 1 
Note on, A2 key =  45;WhichDrum: T3 ; velocity: 127
@75720 , @3.9926647286821706 Channel: 1 
Note on, A2 key =  45;WhichDrum: T3 ; velocity: 0
@75720 , @3.9926647286821706 Channel: 1 
Note on, G2 key =  43;WhichDrum: C2 ; velocity: 127
@75780 , @3.995828488372093 Channel: 1 
Note on, G2 key =  43;WhichDrum: C2 ; velocity: 0
@75780 , @3.995828488372093 Channel: 1 
Note on, E2 key =  40;WhichDrum: S ; velocity: 127
@75840 , @3.9989922480620157 Channel: 1 
Note on, E2 key =  40;WhichDrum: S ; velocity: 0
@75840 , @3.9989922480620157 Channel: 1 
Note on, D3 key =  50;WhichDrum: T2 ; velocity: 127
@75900 , @4.002156007751938 Channel: 1 
Note on, D3 key =  50;WhichDrum: T2 ; velocity: 0
@75900 , @4.002156007751938 Channel: 1 
Note on, E3 key =  52;WhichDrum: S ; velocity: 127
@75960 , @4.00531976744186 Channel: 1 
Note on, E3 key =  52;WhichDrum: S ; velocity: 0
@75960 , @4.00531976744186 Channel: 1 
Note on, E2 key =  40;WhichDrum: S ; velocity: 127
@76020 , @4.008483527131783 Channel: 1 
Note on, E2 key =  40;WhichDrum: S ; velocity: 0
@76020 , @4.008483527131783 Channel: 1 
Note on, E3 key =  52;WhichDrum: S ; velocity: 127
@76080 , @4.011647286821705 Channel: 1 
Note on, E3 key =  52;WhichDrum: S ; velocity: 0
@76080 , @4.011647286821705 Channel: 1 
Note on, E2 key =  40;WhichDrum: S ; velocity: 127
@76140 , @4.014811046511628 Channel: 1 
Note on, E2 key =  40;WhichDrum: S ; velocity: 0
@76140 , @4.014811046511628 Channel: 1 
Note on, E2 key =  40;WhichDrum: S ; velocity: 127
@76200 , @4.017974806201551 Channel: 1 
Note on, E2 key =  40;WhichDrum: S ; velocity: 0
@76200 , @4.017974806201551 Channel: 1 
Note on, E3 key =  52;WhichDrum: S ; velocity: 127
@76260 , @4.021138565891473 Channel: 1 
Note on, E3 key =  52;WhichDrum: S ; velocity: 0
@76260 , @4.021138565891473 Channel: 1 
Note on, E2 key =  40;WhichDrum: S ; velocity: 127
@76320 , @4.024302325581395 Channel: 1 
Note on, E2 key =  40;WhichDrum: S ; velocity: 0
@76320 , @4.024302325581395 Channel: 1 
Note on, D3 key =  50;WhichDrum: T2 ; velocity: 127
@76320 , @4.024302325581395 Channel: 1 
Note on, G3 key =  55;WhichDrum: C2 ; velocity: 127
@76380 , @4.0274660852713176 Channel: 1 
Note on, D3 key =  50;WhichDrum: T2 ; velocity: 0
@76380 , @4.0274660852713176 Channel: 1 
Note on, G3 key =  55;WhichDrum: C2 ; velocity: 0
@76380 , @4.0274660852713176 Channel: 1 
Note on, E2 key =  40;WhichDrum: S ; velocity: 127
@76440 , @4.030629844961241 Channel: 1 
Note on, E2 key =  40;WhichDrum: S ; velocity: 0
@76440 , @4.030629844961241 Channel: 1 
Note on, E2 key =  40;WhichDrum: S ; velocity: 127
@76500 , @4.033793604651163 Channel: 1 
Note on, E2 key =  40;WhichDrum: S ; velocity: 0
@76500 , @4.033793604651163 Channel: 1 
Note on, E3 key =  52;WhichDrum: S ; velocity: 127
@76560 , @4.036957364341085 Channel: 1 
Note on, E3 key =  52;WhichDrum: S ; velocity: 0
@76560 , @4.036957364341085 Channel: 1 
Note on, E2 key =  40;WhichDrum: S ; velocity: 127
@76620 , @4.040121124031008 Channel: 1 
Note on, E2 key =  40;WhichDrum: S ; velocity: 0
@76620 , @4.040121124031008 Channel: 1 
Note on, E2 key =  40;WhichDrum: S ; velocity: 127
@76680 , @4.04328488372093 Channel: 1 
Note on, E2 key =  40;WhichDrum: S ; velocity: 0
@76680 , @4.04328488372093 Channel: 1 
Note on, E3 key =  52;WhichDrum: S ; velocity: 127
@76740 , @4.046448643410852 Channel: 1 
Note on, E3 key =  52;WhichDrum: S ; velocity: 0
@76740 , @4.046448643410852 Channel: 1 
Note on, E2 key =  40;WhichDrum: S ; velocity: 127
@76800 , @4.049612403100776 Channel: 1 
Note on, E2 key =  40;WhichDrum: S ; velocity: 0
@76800 , @4.049612403100776 Channel: 1 
Note on, F#3 key =  54;WhichDrum: C1 ; velocity: 127
@76800 , @4.049612403100776 Channel: 1 
Note on, C#3 key =  49;WhichDrum: T3 ; velocity: 127
@76860 , @4.052776162790698 Channel: 1 
Note on, F#3 key =  54;WhichDrum: C1 ; velocity: 0
@76860 , @4.052776162790698 Channel: 1 
Note on, C#3 key =  49;WhichDrum: T3 ; velocity: 0
@76860 , @4.052776162790698 Channel: 1 
Note on, E2 key =  40;WhichDrum: S ; velocity: 127
@76920 , @4.05593992248062 Channel: 1 
Note on, E2 key =  40;WhichDrum: S ; velocity: 0
@76920 , @4.05593992248062 Channel: 1 
Note on, E2 key =  40;WhichDrum: S ; velocity: 127
@76980 , @4.059103682170543 Channel: 1 
Note on, E2 key =  40;WhichDrum: S ; velocity: 0
@76980 , @4.059103682170543 Channel: 1 
Note on, E3 key =  52;WhichDrum: S ; velocity: 127
@77040 , @4.062267441860465 Channel: 1 
Note on, E3 key =  52;WhichDrum: S ; velocity: 0
@77040 , @4.062267441860465 Channel: 1 
Note on, E2 key =  40;WhichDrum: S ; velocity: 127
@77100 , @4.065431201550387 Channel: 1 
Note on, E2 key =  40;WhichDrum: S ; velocity: 0
@77100 , @4.065431201550387 Channel: 1 
Note on, E2 key =  40;WhichDrum: S ; velocity: 127
@77160 , @4.0685949612403105 Channel: 1 
Note on, E2 key =  40;WhichDrum: S ; velocity: 0
@77160 , @4.0685949612403105 Channel: 1 
Note on, E3 key =  52;WhichDrum: S ; velocity: 127
@77280 , @4.074922480620155 Channel: 1 
Note on, E3 key =  52;WhichDrum: S ; velocity: 0
@77280 , @4.074922480620155 Channel: 1 
Note on, G2 key =  43;WhichDrum: C2 ; velocity: 127
@77340 , @4.0780862403100775 Channel: 1 
Note on, G2 key =  43;WhichDrum: C2 ; velocity: 0
@77340 , @4.0780862403100775 Channel: 1 
Note on, F#2 key =  42;WhichDrum: C1 ; velocity: 127
@77400 , @4.08125 Channel: 1 
Note on, F#2 key =  42;WhichDrum: C1 ; velocity: 0
@77400 , @4.08125 Channel: 1 
Note on, E2 key =  40;WhichDrum: S ; velocity: 127
@77460 , @4.084413759689923 Channel: 1 
Note on, E2 key =  40;WhichDrum: S ; velocity: 0
@77460 , @4.084413759689923 Channel: 1 
Note on, C3 key =  48;WhichDrum: B ; velocity: 127
@77520 , @4.087577519379845 Channel: 1 
Note on, C3 key =  48;WhichDrum: B ; velocity: 0
@77520 , @4.087577519379845 Channel: 1 
Note on, B2 key =  47;WhichDrum: T1 ; velocity: 127
@77580 , @4.090741279069768 Channel: 1 
Note on, B2 key =  47;WhichDrum: T1 ; velocity: 0
@77580 , @4.090741279069768 Channel: 1 
Note on, A2 key =  45;WhichDrum: T3 ; velocity: 127
@77640 , @4.09390503875969 Channel: 1 
Note on, A2 key =  45;WhichDrum: T3 ; velocity: 0
@77640 , @4.09390503875969 Channel: 1 
Note on, G2 key =  43;WhichDrum: C2 ; velocity: 127
@77700 , @4.097068798449612 Channel: 1 
Note on, G2 key =  43;WhichDrum: C2 ; velocity: 0
@77700 , @4.097068798449612 Channel: 1 
Note on, F#2 key =  42;WhichDrum: C1 ; velocity: 127
@77760 , @4.100232558139535 Channel: 1 
Note on, F#2 key =  42;WhichDrum: C1 ; velocity: 0
@77760 , @4.100232558139535 Channel: 1 
Note on, G2 key =  43;WhichDrum: C2 ; velocity: 127
@77820 , @4.103396317829458 Channel: 1 
Note on, G2 key =  43;WhichDrum: C2 ; velocity: 0
@77820 , @4.103396317829458 Channel: 1 
Note on, F#2 key =  42;WhichDrum: C1 ; velocity: 127
@77880 , @4.10656007751938 Channel: 1 
Note on, F#2 key =  42;WhichDrum: C1 ; velocity: 0
@77880 , @4.10656007751938 Channel: 1 
Note on, E2 key =  40;WhichDrum: S ; velocity: 127
@77940 , @4.109723837209303 Channel: 1 
Note on, E2 key =  40;WhichDrum: S ; velocity: 0
@77940 , @4.109723837209303 Channel: 1 
Note on, C3 key =  48;WhichDrum: B ; velocity: 127
@78000 , @4.112887596899225 Channel: 1 
Note on, C3 key =  48;WhichDrum: B ; velocity: 0
@78000 , @4.112887596899225 Channel: 1 
Note on, B2 key =  47;WhichDrum: T1 ; velocity: 127
@78060 , @4.116051356589147 Channel: 1 
Note on, B2 key =  47;WhichDrum: T1 ; velocity: 0
@78060 , @4.116051356589147 Channel: 1 
Note on, A2 key =  45;WhichDrum: T3 ; velocity: 127
@78120 , @4.1192151162790696 Channel: 1 
Note on, A2 key =  45;WhichDrum: T3 ; velocity: 0
@78120 , @4.1192151162790696 Channel: 1 
Note on, G2 key =  43;WhichDrum: C2 ; velocity: 127
@78180 , @4.122378875968993 Channel: 1 
Note on, G2 key =  43;WhichDrum: C2 ; velocity: 0
@78180 , @4.122378875968993 Channel: 1 
Note on, F#2 key =  42;WhichDrum: C1 ; velocity: 127
@78240 , @4.125542635658915 Channel: 1 
Note on, F#2 key =  42;WhichDrum: C1 ; velocity: 0
@78240 , @4.125542635658915 Channel: 1 
Note on, A2 key =  45;WhichDrum: T3 ; velocity: 127
@78240 , @4.125542635658915 Channel: 1 
Note on, E3 key =  52;WhichDrum: S ; velocity: 127
@78240 , @4.125542635658915 Channel: 1 
Note on, A3 key =  57;WhichDrum: T3 ; velocity: 127
@78720 , @4.150852713178295 Channel: 1 
Note on, A2 key =  45;WhichDrum: T3 ; velocity: 0
@78720 , @4.150852713178295 Channel: 1 
Note on, E3 key =  52;WhichDrum: S ; velocity: 0
@78720 , @4.150852713178295 Channel: 1 
Note on, A3 key =  57;WhichDrum: T3 ; velocity: 0
@78720 , @4.150852713178295 Channel: 1 
Command: 192

@78720 , @4.150852713178295 Channel: 1 
Command: 176

@78720 , @4.150852713178295 Channel: 1 
Command: 192

@78720 , @4.150852713178295 Channel: 1 
Note on, A2 key =  45;WhichDrum: T3 ; velocity: 127
@78780 , @4.154016472868217 Channel: 1 
Note on, A2 key =  45;WhichDrum: T3 ; velocity: 0
@78780 , @4.154016472868217 Channel: 1 
Note on, A2 key =  45;WhichDrum: T3 ; velocity: 127
@78840 , @4.15718023255814 Channel: 1 
Note on, A2 key =  45;WhichDrum: T3 ; velocity: 0
@78840 , @4.15718023255814 Channel: 1 
Note on, D4 key =  62;WhichDrum: T2 ; velocity: 127
@78870 , @4.1587621124031005 Channel: 1 
Note on, D4 key =  62;WhichDrum: T2 ; velocity: 0
@78870 , @4.1587621124031005 Channel: 1 
Note on, D#4 key =  63;WhichDrum: T1 ; velocity: 127
@78900 , @4.1603439922480625 Channel: 1 
Note on, D#4 key =  63;WhichDrum: T1 ; velocity: 0
@78900 , @4.1603439922480625 Channel: 1 
Note on, D4 key =  62;WhichDrum: T2 ; velocity: 127
@79020 , @4.166671511627907 Channel: 1 
Note on, D4 key =  62;WhichDrum: T2 ; velocity: 0
@79020 , @4.166671511627907 Channel: 1 
Note on, A2 key =  45;WhichDrum: T3 ; velocity: 127
@79080 , @4.1698352713178295 Channel: 1 
Note on, A2 key =  45;WhichDrum: T3 ; velocity: 0
@79080 , @4.1698352713178295 Channel: 1 
Note on, A3 key =  57;WhichDrum: T3 ; velocity: 127
@79110 , @4.171417151162791 Channel: 1 
Note on, A3 key =  57;WhichDrum: T3 ; velocity: 0
@79110 , @4.171417151162791 Channel: 1 
Note on, A#3 key =  58;WhichDrum: T2 ; velocity: 127
@79140 , @4.172999031007752 Channel: 1 
Note on, A#3 key =  58;WhichDrum: T2 ; velocity: 0
@79140 , @4.172999031007752 Channel: 1 
Note on, A3 key =  57;WhichDrum: T3 ; velocity: 127
@79260 , @4.179326550387597 Channel: 1 
Note on, A3 key =  57;WhichDrum: T3 ; velocity: 0
@79260 , @4.179326550387597 Channel: 1 
Note on, A2 key =  45;WhichDrum: T3 ; velocity: 127
@79320 , @4.18249031007752 Channel: 1 
Note on, A2 key =  45;WhichDrum: T3 ; velocity: 0
@79320 , @4.18249031007752 Channel: 1 
Note on, F3 key =  53;WhichDrum: HH ; velocity: 127
@79380 , @4.185654069767442 Channel: 1 
Note on, F3 key =  53;WhichDrum: HH ; velocity: 0
@79380 , @4.185654069767442 Channel: 1 
Note on, E3 key =  52;WhichDrum: S ; velocity: 127
@79440 , @4.188817829457364 Channel: 1 
Note on, E3 key =  52;WhichDrum: S ; velocity: 0
@79440 , @4.188817829457364 Channel: 1 
Note on, G3 key =  55;WhichDrum: C2 ; velocity: 127
@79500 , @4.191981589147288 Channel: 1 
Note on, G3 key =  55;WhichDrum: C2 ; velocity: 0
@79500 , @4.191981589147288 Channel: 1 
Note on, E3 key =  52;WhichDrum: S ; velocity: 127
@79560 , @4.19514534883721 Channel: 1 
Note on, E3 key =  52;WhichDrum: S ; velocity: 0
@79560 , @4.19514534883721 Channel: 1 
Note on, C4 key =  60;WhichDrum: B ; velocity: 127
@79620 , @4.198309108527132 Channel: 1 
Note on, C4 key =  60;WhichDrum: B ; velocity: 0
@79620 , @4.198309108527132 Channel: 1 
Note on, A3 key =  57;WhichDrum: T3 ; velocity: 127
@79680 , @4.201472868217055 Channel: 1 
Note on, A3 key =  57;WhichDrum: T3 ; velocity: 0
@79680 , @4.201472868217055 Channel: 1 
Command: 192

@79680 , @4.201472868217055 Channel: 1 
Command: 176

@79680 , @4.201472868217055 Channel: 1 
Command: 192

@79680 , @4.201472868217055 Channel: 1 
Note on, A2 key =  45;WhichDrum: T3 ; velocity: 127
@79740 , @4.204636627906977 Channel: 1 
Note on, A2 key =  45;WhichDrum: T3 ; velocity: 0
@79740 , @4.204636627906977 Channel: 1 
Note on, A2 key =  45;WhichDrum: T3 ; velocity: 127
@79800 , @4.207800387596899 Channel: 1 
Note on, A2 key =  45;WhichDrum: T3 ; velocity: 0
@79800 , @4.207800387596899 Channel: 1 
Note on, D4 key =  62;WhichDrum: T2 ; velocity: 127
@79830 , @4.20938226744186 Channel: 1 
Note on, D4 key =  62;WhichDrum: T2 ; velocity: 0
@79830 , @4.20938226744186 Channel: 1 
Note on, D#4 key =  63;WhichDrum: T1 ; velocity: 127
@79860 , @4.2109641472868224 Channel: 1 
Note on, D#4 key =  63;WhichDrum: T1 ; velocity: 0
@79860 , @4.2109641472868224 Channel: 1 
Note on, D4 key =  62;WhichDrum: T2 ; velocity: 127
@79980 , @4.217291666666667 Channel: 1 
Note on, D4 key =  62;WhichDrum: T2 ; velocity: 0
@79980 , @4.217291666666667 Channel: 1 
Note on, A2 key =  45;WhichDrum: T3 ; velocity: 127
@80040 , @4.220455426356589 Channel: 1 
Note on, A2 key =  45;WhichDrum: T3 ; velocity: 0
@80040 , @4.220455426356589 Channel: 1 
Note on, A3 key =  57;WhichDrum: T3 ; velocity: 127
@80070 , @4.222037306201551 Channel: 1 
Note on, A3 key =  57;WhichDrum: T3 ; velocity: 0
@80070 , @4.222037306201551 Channel: 1 
Note on, A#3 key =  58;WhichDrum: T2 ; velocity: 127
@80100 , @4.223619186046512 Channel: 1 
Note on, A#3 key =  58;WhichDrum: T2 ; velocity: 0
@80100 , @4.223619186046512 Channel: 1 
Note on, A3 key =  57;WhichDrum: T3 ; velocity: 127
@80220 , @4.229946705426357 Channel: 1 
Note on, A3 key =  57;WhichDrum: T3 ; velocity: 0
@80220 , @4.229946705426357 Channel: 1 
Note on, A2 key =  45;WhichDrum: T3 ; velocity: 127
@80280 , @4.23311046511628 Channel: 1 
Note on, A2 key =  45;WhichDrum: T3 ; velocity: 0
@80280 , @4.23311046511628 Channel: 1 
Note on, F3 key =  53;WhichDrum: HH ; velocity: 127
@80340 , @4.236274224806202 Channel: 1 
Note on, F3 key =  53;WhichDrum: HH ; velocity: 0
@80340 , @4.236274224806202 Channel: 1 
Note on, E3 key =  52;WhichDrum: S ; velocity: 127
@80400 , @4.239437984496124 Channel: 1 
Note on, E3 key =  52;WhichDrum: S ; velocity: 0
@80400 , @4.239437984496124 Channel: 1 
Note on, G3 key =  55;WhichDrum: C2 ; velocity: 127
@80460 , @4.242601744186047 Channel: 1 
Note on, G3 key =  55;WhichDrum: C2 ; velocity: 0
@80460 , @4.242601744186047 Channel: 1 
Note on, E3 key =  52;WhichDrum: S ; velocity: 127
@80520 , @4.24576550387597 Channel: 1 
Note on, E3 key =  52;WhichDrum: S ; velocity: 0
@80520 , @4.24576550387597 Channel: 1 
Note on, C4 key =  60;WhichDrum: B ; velocity: 127
@80580 , @4.248929263565892 Channel: 1 
Note on, C4 key =  60;WhichDrum: B ; velocity: 0
@80580 , @4.248929263565892 Channel: 1 
Note on, A3 key =  57;WhichDrum: T3 ; velocity: 127
@80640 , @4.2520930232558145 Channel: 1 
Note on, A3 key =  57;WhichDrum: T3 ; velocity: 0
@80640 , @4.2520930232558145 Channel: 1 
Command: 192

@80640 , @4.2520930232558145 Channel: 1 
Command: 176

@80640 , @4.2520930232558145 Channel: 1 
Command: 192

@80640 , @4.2520930232558145 Channel: 1 
Note on, A2 key =  45;WhichDrum: T3 ; velocity: 127
@80700 , @4.255256782945737 Channel: 1 
Note on, A2 key =  45;WhichDrum: T3 ; velocity: 0
@80700 , @4.255256782945737 Channel: 1 
Note on, A2 key =  45;WhichDrum: T3 ; velocity: 127
@80760 , @4.258420542635659 Channel: 1 
Note on, A2 key =  45;WhichDrum: T3 ; velocity: 0
@80760 , @4.258420542635659 Channel: 1 
Note on, D4 key =  62;WhichDrum: T2 ; velocity: 127
@80790 , @4.26000242248062 Channel: 1 
Note on, D4 key =  62;WhichDrum: T2 ; velocity: 0
@80790 , @4.26000242248062 Channel: 1 
Note on, D#4 key =  63;WhichDrum: T1 ; velocity: 127
@80820 , @4.2615843023255815 Channel: 1 
Note on, D#4 key =  63;WhichDrum: T1 ; velocity: 0
@80820 , @4.2615843023255815 Channel: 1 
Note on, D4 key =  62;WhichDrum: T2 ; velocity: 127
@80940 , @4.267911821705427 Channel: 1 
Note on, D4 key =  62;WhichDrum: T2 ; velocity: 0
@80940 , @4.267911821705427 Channel: 1 
Note on, A2 key =  45;WhichDrum: T3 ; velocity: 127
@81000 , @4.271075581395349 Channel: 1 
Note on, A2 key =  45;WhichDrum: T3 ; velocity: 0
@81000 , @4.271075581395349 Channel: 1 
Note on, A3 key =  57;WhichDrum: T3 ; velocity: 127
@81030 , @4.2726574612403105 Channel: 1 
Note on, A3 key =  57;WhichDrum: T3 ; velocity: 0
@81030 , @4.2726574612403105 Channel: 1 
Note on, A#3 key =  58;WhichDrum: T2 ; velocity: 127
@81060 , @4.274239341085272 Channel: 1 
Note on, A#3 key =  58;WhichDrum: T2 ; velocity: 0
@81060 , @4.274239341085272 Channel: 1 
Note on, A3 key =  57;WhichDrum: T3 ; velocity: 127
@81180 , @4.280566860465116 Channel: 1 
Note on, A3 key =  57;WhichDrum: T3 ; velocity: 0
@81180 , @4.280566860465116 Channel: 1 
Note on, A2 key =  45;WhichDrum: T3 ; velocity: 127
@81240 , @4.28373062015504 Channel: 1 
Note on, A2 key =  45;WhichDrum: T3 ; velocity: 0
@81240 , @4.28373062015504 Channel: 1 
Note on, F3 key =  53;WhichDrum: HH ; velocity: 127
@81300 , @4.286894379844961 Channel: 1 
Note on, F3 key =  53;WhichDrum: HH ; velocity: 0
@81300 , @4.286894379844961 Channel: 1 
Note on, E3 key =  52;WhichDrum: S ; velocity: 127
@81360 , @4.290058139534883 Channel: 1 
Note on, E3 key =  52;WhichDrum: S ; velocity: 0
@81360 , @4.290058139534883 Channel: 1 
Note on, G3 key =  55;WhichDrum: C2 ; velocity: 127
@81420 , @4.293221899224806 Channel: 1 
Note on, G3 key =  55;WhichDrum: C2 ; velocity: 0
@81420 , @4.293221899224806 Channel: 1 
Note on, E3 key =  52;WhichDrum: S ; velocity: 127
@81480 , @4.296385658914729 Channel: 1 
Note on, E3 key =  52;WhichDrum: S ; velocity: 0
@81480 , @4.296385658914729 Channel: 1 
Note on, C4 key =  60;WhichDrum: B ; velocity: 127
@81540 , @4.299549418604651 Channel: 1 
Note on, C4 key =  60;WhichDrum: B ; velocity: 0
@81540 , @4.299549418604651 Channel: 1 
Note on, A3 key =  57;WhichDrum: T3 ; velocity: 127
@81600 , @4.302713178294574 Channel: 1 
Note on, A3 key =  57;WhichDrum: T3 ; velocity: 0
@81600 , @4.302713178294574 Channel: 1 
Command: 192

@81600 , @4.302713178294574 Channel: 1 
Command: 176

@81600 , @4.302713178294574 Channel: 1 
Command: 192

@81600 , @4.302713178294574 Channel: 1 
Note on, A2 key =  45;WhichDrum: T3 ; velocity: 127
@81660 , @4.305876937984496 Channel: 1 
Note on, A2 key =  45;WhichDrum: T3 ; velocity: 0
@81660 , @4.305876937984496 Channel: 1 
Note on, A2 key =  45;WhichDrum: T3 ; velocity: 127
@81720 , @4.309040697674418 Channel: 1 
Note on, A2 key =  45;WhichDrum: T3 ; velocity: 0
@81720 , @4.309040697674418 Channel: 1 
Note on, D4 key =  62;WhichDrum: T2 ; velocity: 127
@81750 , @4.31062257751938 Channel: 1 
Note on, D4 key =  62;WhichDrum: T2 ; velocity: 0
@81750 , @4.31062257751938 Channel: 1 
Note on, D#4 key =  63;WhichDrum: T1 ; velocity: 127
@81780 , @4.3122044573643405 Channel: 1 
Note on, D#4 key =  63;WhichDrum: T1 ; velocity: 0
@81780 , @4.3122044573643405 Channel: 1 
Note on, D4 key =  62;WhichDrum: T2 ; velocity: 127
@81900 , @4.318531976744186 Channel: 1 
Note on, D4 key =  62;WhichDrum: T2 ; velocity: 0
@81900 , @4.318531976744186 Channel: 1 
Note on, A2 key =  45;WhichDrum: T3 ; velocity: 127
@81960 , @4.321695736434108 Channel: 1 
Note on, A2 key =  45;WhichDrum: T3 ; velocity: 0
@81960 , @4.321695736434108 Channel: 1 
Note on, A3 key =  57;WhichDrum: T3 ; velocity: 127
@81990 , @4.32327761627907 Channel: 1 
Note on, A3 key =  57;WhichDrum: T3 ; velocity: 0
@81990 , @4.32327761627907 Channel: 1 
Note on, A#3 key =  58;WhichDrum: T2 ; velocity: 127
@82020 , @4.324859496124031 Channel: 1 
Note on, A#3 key =  58;WhichDrum: T2 ; velocity: 0
@82020 , @4.324859496124031 Channel: 1 
Note on, A3 key =  57;WhichDrum: T3 ; velocity: 127
@82140 , @4.331187015503875 Channel: 1 
Note on, A3 key =  57;WhichDrum: T3 ; velocity: 0
@82140 , @4.331187015503875 Channel: 1 
Note on, A2 key =  45;WhichDrum: T3 ; velocity: 127
@82200 , @4.334350775193799 Channel: 1 
Note on, A2 key =  45;WhichDrum: T3 ; velocity: 0
@82200 , @4.334350775193799 Channel: 1 
Note on, F3 key =  53;WhichDrum: HH ; velocity: 127
@82260 , @4.337514534883721 Channel: 1 
Note on, F3 key =  53;WhichDrum: HH ; velocity: 0
@82260 , @4.337514534883721 Channel: 1 
Note on, E3 key =  52;WhichDrum: S ; velocity: 127
@82320 , @4.340678294573643 Channel: 1 
Note on, E3 key =  52;WhichDrum: S ; velocity: 0
@82320 , @4.340678294573643 Channel: 1 
Note on, G3 key =  55;WhichDrum: C2 ; velocity: 127
@82380 , @4.343842054263566 Channel: 1 
Note on, G3 key =  55;WhichDrum: C2 ; velocity: 0
@82380 , @4.343842054263566 Channel: 1 
Note on, E3 key =  52;WhichDrum: S ; velocity: 127
@82440 , @4.347005813953488 Channel: 1 
Note on, E3 key =  52;WhichDrum: S ; velocity: 0
@82440 , @4.347005813953488 Channel: 1 
Note on, C4 key =  60;WhichDrum: B ; velocity: 127
@82500 , @4.350169573643411 Channel: 1 
Note on, C4 key =  60;WhichDrum: B ; velocity: 0
@82500 , @4.350169573643411 Channel: 1 
Note on, A3 key =  57;WhichDrum: T3 ; velocity: 127
@82560 , @4.3533333333333335 Channel: 1 
Note on, A3 key =  57;WhichDrum: T3 ; velocity: 0
@82560 , @4.3533333333333335 Channel: 1 
Command: 192

@82560 , @4.3533333333333335 Channel: 1 
Command: 176

@82560 , @4.3533333333333335 Channel: 1 
Command: 192

@82560 , @4.3533333333333335 Channel: 1 
Note on, A2 key =  45;WhichDrum: T3 ; velocity: 127
@82620 , @4.356497093023256 Channel: 1 
Note on, A2 key =  45;WhichDrum: T3 ; velocity: 0
@82620 , @4.356497093023256 Channel: 1 
Note on, A2 key =  45;WhichDrum: T3 ; velocity: 127
@82680 , @4.359660852713178 Channel: 1 
Note on, A2 key =  45;WhichDrum: T3 ; velocity: 0
@82680 , @4.359660852713178 Channel: 1 
Note on, D4 key =  62;WhichDrum: T2 ; velocity: 127
@82710 , @4.36124273255814 Channel: 1 
Note on, D4 key =  62;WhichDrum: T2 ; velocity: 0
@82710 , @4.36124273255814 Channel: 1 
Note on, D#4 key =  63;WhichDrum: T1 ; velocity: 127
@82740 , @4.3628246124031005 Channel: 1 
Note on, D#4 key =  63;WhichDrum: T1 ; velocity: 0
@82740 , @4.3628246124031005 Channel: 1 
Note on, D4 key =  62;WhichDrum: T2 ; velocity: 127
@82860 , @4.369152131782946 Channel: 1 
Note on, D4 key =  62;WhichDrum: T2 ; velocity: 0
@82860 , @4.369152131782946 Channel: 1 
Note on, A2 key =  45;WhichDrum: T3 ; velocity: 127
@82920 , @4.372315891472868 Channel: 1 
Note on, A2 key =  45;WhichDrum: T3 ; velocity: 0
@82920 , @4.372315891472868 Channel: 1 
Note on, A3 key =  57;WhichDrum: T3 ; velocity: 127
@82950 , @4.3738977713178295 Channel: 1 
Note on, A3 key =  57;WhichDrum: T3 ; velocity: 0
@82950 , @4.3738977713178295 Channel: 1 
Note on, A#3 key =  58;WhichDrum: T2 ; velocity: 127
@82980 , @4.375479651162791 Channel: 1 
Note on, A#3 key =  58;WhichDrum: T2 ; velocity: 0
@82980 , @4.375479651162791 Channel: 1 
Note on, A3 key =  57;WhichDrum: T3 ; velocity: 127
@83100 , @4.381807170542635 Channel: 1 
Note on, A3 key =  57;WhichDrum: T3 ; velocity: 0
@83100 , @4.381807170542635 Channel: 1 
Note on, A2 key =  45;WhichDrum: T3 ; velocity: 127
@83160 , @4.384970930232558 Channel: 1 
Note on, A2 key =  45;WhichDrum: T3 ; velocity: 0
@83160 , @4.384970930232558 Channel: 1 
Note on, F3 key =  53;WhichDrum: HH ; velocity: 127
@83220 , @4.388134689922481 Channel: 1 
Note on, F3 key =  53;WhichDrum: HH ; velocity: 0
@83220 , @4.388134689922481 Channel: 1 
Note on, E3 key =  52;WhichDrum: S ; velocity: 127
@83280 , @4.391298449612403 Channel: 1 
Note on, E3 key =  52;WhichDrum: S ; velocity: 0
@83280 , @4.391298449612403 Channel: 1 
Note on, G3 key =  55;WhichDrum: C2 ; velocity: 127
@83340 , @4.394462209302326 Channel: 1 
Note on, G3 key =  55;WhichDrum: C2 ; velocity: 0
@83340 , @4.394462209302326 Channel: 1 
Note on, E3 key =  52;WhichDrum: S ; velocity: 127
@83400 , @4.397625968992248 Channel: 1 
Note on, E3 key =  52;WhichDrum: S ; velocity: 0
@83400 , @4.397625968992248 Channel: 1 
Note on, C4 key =  60;WhichDrum: B ; velocity: 127
@83460 , @4.40078972868217 Channel: 1 
Note on, C4 key =  60;WhichDrum: B ; velocity: 0
@83460 , @4.40078972868217 Channel: 1 
Note on, A3 key =  57;WhichDrum: T3 ; velocity: 127
@83520 , @4.403953488372093 Channel: 1 
Note on, A3 key =  57;WhichDrum: T3 ; velocity: 0
@83520 , @4.403953488372093 Channel: 1 
Command: 192

@83520 , @4.403953488372093 Channel: 1 
Command: 176

@83520 , @4.403953488372093 Channel: 1 
Command: 192

@83520 , @4.403953488372093 Channel: 1 
Note on, A2 key =  45;WhichDrum: T3 ; velocity: 127
@83580 , @4.407117248062016 Channel: 1 
Note on, A2 key =  45;WhichDrum: T3 ; velocity: 0
@83580 , @4.407117248062016 Channel: 1 
Note on, A2 key =  45;WhichDrum: T3 ; velocity: 127
@83640 , @4.410281007751938 Channel: 1 
Note on, A2 key =  45;WhichDrum: T3 ; velocity: 0
@83640 , @4.410281007751938 Channel: 1 
Note on, D4 key =  62;WhichDrum: T2 ; velocity: 127
@83670 , @4.411862887596899 Channel: 1 
Note on, D4 key =  62;WhichDrum: T2 ; velocity: 0
@83670 , @4.411862887596899 Channel: 1 
Note on, D#4 key =  63;WhichDrum: T1 ; velocity: 127
@83700 , @4.41344476744186 Channel: 1 
Note on, D#4 key =  63;WhichDrum: T1 ; velocity: 0
@83700 , @4.41344476744186 Channel: 1 
Note on, D4 key =  62;WhichDrum: T2 ; velocity: 127
@83820 , @4.419772286821705 Channel: 1 
Note on, D4 key =  62;WhichDrum: T2 ; velocity: 0
@83820 , @4.419772286821705 Channel: 1 
Note on, A2 key =  45;WhichDrum: T3 ; velocity: 127
@83880 , @4.422936046511628 Channel: 1 
Note on, A2 key =  45;WhichDrum: T3 ; velocity: 0
@83880 , @4.422936046511628 Channel: 1 
Note on, A3 key =  57;WhichDrum: T3 ; velocity: 127
@83910 , @4.4245179263565895 Channel: 1 
Note on, A3 key =  57;WhichDrum: T3 ; velocity: 0
@83910 , @4.4245179263565895 Channel: 1 
Note on, A#3 key =  58;WhichDrum: T2 ; velocity: 127
@83940 , @4.426099806201551 Channel: 1 
Note on, A#3 key =  58;WhichDrum: T2 ; velocity: 0
@83940 , @4.426099806201551 Channel: 1 
Note on, A3 key =  57;WhichDrum: T3 ; velocity: 127
@84060 , @4.432427325581395 Channel: 1 
Note on, A3 key =  57;WhichDrum: T3 ; velocity: 0
@84060 , @4.432427325581395 Channel: 1 
Note on, A2 key =  45;WhichDrum: T3 ; velocity: 127
@84120 , @4.435591085271318 Channel: 1 
Note on, A2 key =  45;WhichDrum: T3 ; velocity: 0
@84120 , @4.435591085271318 Channel: 1 
Note on, F3 key =  53;WhichDrum: HH ; velocity: 127
@84180 , @4.43875484496124 Channel: 1 
Note on, F3 key =  53;WhichDrum: HH ; velocity: 0
@84180 , @4.43875484496124 Channel: 1 
Note on, E3 key =  52;WhichDrum: S ; velocity: 127
@84240 , @4.441918604651163 Channel: 1 
Note on, E3 key =  52;WhichDrum: S ; velocity: 0
@84240 , @4.441918604651163 Channel: 1 
Note on, G3 key =  55;WhichDrum: C2 ; velocity: 127
@84300 , @4.4450823643410855 Channel: 1 
Note on, G3 key =  55;WhichDrum: C2 ; velocity: 0
@84300 , @4.4450823643410855 Channel: 1 
Note on, E3 key =  52;WhichDrum: S ; velocity: 127
@84360 , @4.448246124031008 Channel: 1 
Note on, E3 key =  52;WhichDrum: S ; velocity: 0
@84360 , @4.448246124031008 Channel: 1 
Note on, C4 key =  60;WhichDrum: B ; velocity: 127
@84420 , @4.45140988372093 Channel: 1 
Note on, C4 key =  60;WhichDrum: B ; velocity: 0
@84420 , @4.45140988372093 Channel: 1 
Note on, A3 key =  57;WhichDrum: T3 ; velocity: 127
@84480 , @4.4545736434108525 Channel: 1 
Note on, A3 key =  57;WhichDrum: T3 ; velocity: 0
@84480 , @4.4545736434108525 Channel: 1 
Command: 192

@84480 , @4.4545736434108525 Channel: 1 
Command: 176

@84480 , @4.4545736434108525 Channel: 1 
Command: 192

@84480 , @4.4545736434108525 Channel: 1 
Note on, A2 key =  45;WhichDrum: T3 ; velocity: 127
@84540 , @4.457737403100776 Channel: 1 
Note on, A2 key =  45;WhichDrum: T3 ; velocity: 0
@84540 , @4.457737403100776 Channel: 1 
Note on, A2 key =  45;WhichDrum: T3 ; velocity: 127
@84600 , @4.460901162790698 Channel: 1 
Note on, A2 key =  45;WhichDrum: T3 ; velocity: 0
@84600 , @4.460901162790698 Channel: 1 
Note on, D4 key =  62;WhichDrum: T2 ; velocity: 127
@84630 , @4.462483042635659 Channel: 1 
Note on, D4 key =  62;WhichDrum: T2 ; velocity: 0
@84630 , @4.462483042635659 Channel: 1 
Note on, D#4 key =  63;WhichDrum: T1 ; velocity: 127
@84660 , @4.46406492248062 Channel: 1 
Note on, D#4 key =  63;WhichDrum: T1 ; velocity: 0
@84660 , @4.46406492248062 Channel: 1 
Note on, D4 key =  62;WhichDrum: T2 ; velocity: 127
@84780 , @4.470392441860465 Channel: 1 
Note on, D4 key =  62;WhichDrum: T2 ; velocity: 0
@84780 , @4.470392441860465 Channel: 1 
Note on, A2 key =  45;WhichDrum: T3 ; velocity: 127
@84840 , @4.473556201550387 Channel: 1 
Note on, A2 key =  45;WhichDrum: T3 ; velocity: 0
@84840 , @4.473556201550387 Channel: 1 
Note on, A3 key =  57;WhichDrum: T3 ; velocity: 127
@84870 , @4.475138081395349 Channel: 1 
Note on, A3 key =  57;WhichDrum: T3 ; velocity: 0
@84870 , @4.475138081395349 Channel: 1 
Note on, A#3 key =  58;WhichDrum: T2 ; velocity: 127
@84900 , @4.476719961240311 Channel: 1 
Note on, A#3 key =  58;WhichDrum: T2 ; velocity: 0
@84900 , @4.476719961240311 Channel: 1 
Note on, A3 key =  57;WhichDrum: T3 ; velocity: 127
@85020 , @4.483047480620155 Channel: 1 
Note on, A3 key =  57;WhichDrum: T3 ; velocity: 0
@85020 , @4.483047480620155 Channel: 1 
Note on, A2 key =  45;WhichDrum: T3 ; velocity: 127
@85080 , @4.486211240310078 Channel: 1 
Note on, A2 key =  45;WhichDrum: T3 ; velocity: 0
@85080 , @4.486211240310078 Channel: 1 
Note on, F3 key =  53;WhichDrum: HH ; velocity: 127
@85140 , @4.489375 Channel: 1 
Note on, F3 key =  53;WhichDrum: HH ; velocity: 0
@85140 , @4.489375 Channel: 1 
Note on, E3 key =  52;WhichDrum: S ; velocity: 127
@85200 , @4.492538759689922 Channel: 1 
Note on, E3 key =  52;WhichDrum: S ; velocity: 0
@85200 , @4.492538759689922 Channel: 1 
Note on, G3 key =  55;WhichDrum: C2 ; velocity: 127
@85260 , @4.495702519379845 Channel: 1 
Note on, G3 key =  55;WhichDrum: C2 ; velocity: 0
@85260 , @4.495702519379845 Channel: 1 
Note on, E3 key =  52;WhichDrum: S ; velocity: 127
@85320 , @4.498866279069768 Channel: 1 
Note on, E3 key =  52;WhichDrum: S ; velocity: 0
@85320 , @4.498866279069768 Channel: 1 
Note on, C4 key =  60;WhichDrum: B ; velocity: 127
@85380 , @4.50203003875969 Channel: 1 
Note on, C4 key =  60;WhichDrum: B ; velocity: 0
@85380 , @4.50203003875969 Channel: 1 
Note on, A3 key =  57;WhichDrum: T3 ; velocity: 127
@85440 , @4.505193798449612 Channel: 1 
Note on, A3 key =  57;WhichDrum: T3 ; velocity: 0
@85440 , @4.505193798449612 Channel: 1 
Command: 192

@85440 , @4.505193798449612 Channel: 1 
Command: 176

@85440 , @4.505193798449612 Channel: 1 
Command: 192

@85440 , @4.505193798449612 Channel: 1 
Note on, A2 key =  45;WhichDrum: T3 ; velocity: 127
@85500 , @4.508357558139535 Channel: 1 
Note on, A2 key =  45;WhichDrum: T3 ; velocity: 0
@85500 , @4.508357558139535 Channel: 1 
Note on, A2 key =  45;WhichDrum: T3 ; velocity: 127
@85560 , @4.511521317829458 Channel: 1 
Note on, A2 key =  45;WhichDrum: T3 ; velocity: 0
@85560 , @4.511521317829458 Channel: 1 
Note on, D4 key =  62;WhichDrum: T2 ; velocity: 127
@85590 , @4.513103197674418 Channel: 1 
Note on, D4 key =  62;WhichDrum: T2 ; velocity: 0
@85590 , @4.513103197674418 Channel: 1 
Note on, D#4 key =  63;WhichDrum: T1 ; velocity: 127
@85620 , @4.51468507751938 Channel: 1 
Note on, D#4 key =  63;WhichDrum: T1 ; velocity: 0
@85620 , @4.51468507751938 Channel: 1 
Note on, D4 key =  62;WhichDrum: T2 ; velocity: 127
@85740 , @4.521012596899225 Channel: 1 
Note on, D4 key =  62;WhichDrum: T2 ; velocity: 0
@85740 , @4.521012596899225 Channel: 1 
Note on, A2 key =  45;WhichDrum: T3 ; velocity: 127
@85800 , @4.524176356589147 Channel: 1 
Note on, A2 key =  45;WhichDrum: T3 ; velocity: 0
@85800 , @4.524176356589147 Channel: 1 
Note on, A3 key =  57;WhichDrum: T3 ; velocity: 127
@85830 , @4.5257582364341085 Channel: 1 
Note on, A3 key =  57;WhichDrum: T3 ; velocity: 0
@85830 , @4.5257582364341085 Channel: 1 
Note on, A#3 key =  58;WhichDrum: T2 ; velocity: 127
@85860 , @4.52734011627907 Channel: 1 
Note on, A#3 key =  58;WhichDrum: T2 ; velocity: 0
@85860 , @4.52734011627907 Channel: 1 
Note on, A3 key =  57;WhichDrum: T3 ; velocity: 127
@85980 , @4.533667635658915 Channel: 1 
Note on, A3 key =  57;WhichDrum: T3 ; velocity: 0
@85980 , @4.533667635658915 Channel: 1 
Note on, A2 key =  45;WhichDrum: T3 ; velocity: 127
@86040 , @4.5368313953488375 Channel: 1 
Note on, A2 key =  45;WhichDrum: T3 ; velocity: 0
@86040 , @4.5368313953488375 Channel: 1 
Note on, F3 key =  53;WhichDrum: HH ; velocity: 127
@86100 , @4.53999515503876 Channel: 1 
Note on, F3 key =  53;WhichDrum: HH ; velocity: 0
@86100 , @4.53999515503876 Channel: 1 
Note on, E3 key =  52;WhichDrum: S ; velocity: 127
@86160 , @4.543158914728682 Channel: 1 
Note on, E3 key =  52;WhichDrum: S ; velocity: 0
@86160 , @4.543158914728682 Channel: 1 
Note on, G3 key =  55;WhichDrum: C2 ; velocity: 127
@86220 , @4.5463226744186045 Channel: 1 
Note on, G3 key =  55;WhichDrum: C2 ; velocity: 0
@86220 , @4.5463226744186045 Channel: 1 
Note on, E3 key =  52;WhichDrum: S ; velocity: 127
@86280 , @4.549486434108528 Channel: 1 
Note on, E3 key =  52;WhichDrum: S ; velocity: 0
@86280 , @4.549486434108528 Channel: 1 
Note on, C4 key =  60;WhichDrum: B ; velocity: 127
@86340 , @4.55265019379845 Channel: 1 
Note on, C4 key =  60;WhichDrum: B ; velocity: 0
@86340 , @4.55265019379845 Channel: 1 
Note on, A3 key =  57;WhichDrum: T3 ; velocity: 127
@86400 , @4.555813953488372 Channel: 1 
Note on, A3 key =  57;WhichDrum: T3 ; velocity: 0
@86400 , @4.555813953488372 Channel: 1 
Note on, E4 key =  64;WhichDrum: S ; velocity: 127
@86460 , @4.558977713178295 Channel: 1 
Note on, E4 key =  64;WhichDrum: S ; velocity: 0
@86460 , @4.558977713178295 Channel: 1 
Note on, D4 key =  62;WhichDrum: T2 ; velocity: 127
@86520 , @4.562141472868217 Channel: 1 
Note on, D4 key =  62;WhichDrum: T2 ; velocity: 0
@86520 , @4.562141472868217 Channel: 1 
Note on, B3 key =  59;WhichDrum: T1 ; velocity: 127
@86580 , @4.56530523255814 Channel: 1 
Note on, B3 key =  59;WhichDrum: T1 ; velocity: 0
@86580 , @4.56530523255814 Channel: 1 
Note on, D4 key =  62;WhichDrum: T2 ; velocity: 127
@86640 , @4.568468992248063 Channel: 1 
Note on, D4 key =  62;WhichDrum: T2 ; velocity: 0
@86640 , @4.568468992248063 Channel: 1 
Note on, B3 key =  59;WhichDrum: T1 ; velocity: 127
@86700 , @4.571632751937985 Channel: 1 
Note on, B3 key =  59;WhichDrum: T1 ; velocity: 0
@86700 , @4.571632751937985 Channel: 1 
Note on, A#3 key =  58;WhichDrum: T2 ; velocity: 127
@86760 , @4.574796511627907 Channel: 1 
Note on, A#3 key =  58;WhichDrum: T2 ; velocity: 0
@86760 , @4.574796511627907 Channel: 1 
Note on, A3 key =  57;WhichDrum: T3 ; velocity: 127
@86820 , @4.57796027131783 Channel: 1 
Note on, A3 key =  57;WhichDrum: T3 ; velocity: 0
@86820 , @4.57796027131783 Channel: 1 
Note on, G3 key =  55;WhichDrum: C2 ; velocity: 127
@86880 , @4.581124031007752 Channel: 1 
Note on, G3 key =  55;WhichDrum: C2 ; velocity: 0
@86880 , @4.581124031007752 Channel: 1 
Note on, E2 key =  40;WhichDrum: S ; velocity: 127
@86940 , @4.584287790697675 Channel: 1 
Note on, E2 key =  40;WhichDrum: S ; velocity: 0
@86940 , @4.584287790697675 Channel: 1 
Note on, E2 key =  40;WhichDrum: S ; velocity: 127
@87000 , @4.587451550387597 Channel: 1 
Note on, E2 key =  40;WhichDrum: S ; velocity: 0
@87000 , @4.587451550387597 Channel: 1 
Note on, E2 key =  40;WhichDrum: S ; velocity: 127
@87060 , @4.59061531007752 Channel: 1 
Note on, E2 key =  40;WhichDrum: S ; velocity: 0
@87060 , @4.59061531007752 Channel: 1 
Note on, E2 key =  40;WhichDrum: S ; velocity: 127
@87120 , @4.593779069767442 Channel: 1 
Note on, E2 key =  40;WhichDrum: S ; velocity: 0
@87120 , @4.593779069767442 Channel: 1 
Note on, G3 key =  55;WhichDrum: C2 ; velocity: 127
@87120 , @4.593779069767442 Channel: 1 
Note on, D3 key =  50;WhichDrum: T2 ; velocity: 127
@87180 , @4.596942829457364 Channel: 1 
Note on, G3 key =  55;WhichDrum: C2 ; velocity: 0
@87180 , @4.596942829457364 Channel: 1 
Note on, D3 key =  50;WhichDrum: T2 ; velocity: 0
@87180 , @4.596942829457364 Channel: 1 
Note on, E3 key =  52;WhichDrum: S ; velocity: 127
@87180 , @4.596942829457364 Channel: 1 
Note on, A3 key =  57;WhichDrum: T3 ; velocity: 127
@87240 , @4.600106589147287 Channel: 1 
Note on, E3 key =  52;WhichDrum: S ; velocity: 0
@87240 , @4.600106589147287 Channel: 1 
Note on, A3 key =  57;WhichDrum: T3 ; velocity: 0
@87240 , @4.600106589147287 Channel: 1 
Note on, D3 key =  50;WhichDrum: T2 ; velocity: 127
@87240 , @4.600106589147287 Channel: 1 
Note on, G3 key =  55;WhichDrum: C2 ; velocity: 127
@87300 , @4.60327034883721 Channel: 1 
Note on, D3 key =  50;WhichDrum: T2 ; velocity: 0
@87300 , @4.60327034883721 Channel: 1 
Note on, G3 key =  55;WhichDrum: C2 ; velocity: 0
@87300 , @4.60327034883721 Channel: 1 
Note on, A3 key =  57;WhichDrum: T3 ; velocity: 127
@87300 , @4.60327034883721 Channel: 1 
Note on, E3 key =  52;WhichDrum: S ; velocity: 127
@87360 , @4.606434108527132 Channel: 1 
Note on, A3 key =  57;WhichDrum: T3 ; velocity: 0
@87360 , @4.606434108527132 Channel: 1 
Note on, E3 key =  52;WhichDrum: S ; velocity: 0
@87360 , @4.606434108527132 Channel: 1 
Note on, E2 key =  40;WhichDrum: S ; velocity: 127
@87420 , @4.609597868217055 Channel: 1 
Note on, E2 key =  40;WhichDrum: S ; velocity: 0
@87420 , @4.609597868217055 Channel: 1 
Note on, E2 key =  40;WhichDrum: S ; velocity: 127
@87480 , @4.612761627906977 Channel: 1 
Note on, E2 key =  40;WhichDrum: S ; velocity: 0
@87480 , @4.612761627906977 Channel: 1 
Note on, E2 key =  40;WhichDrum: S ; velocity: 127
@87540 , @4.615925387596899 Channel: 1 
Note on, E2 key =  40;WhichDrum: S ; velocity: 0
@87540 , @4.615925387596899 Channel: 1 
Note on, E2 key =  40;WhichDrum: S ; velocity: 127
@87600 , @4.6190891472868225 Channel: 1 
Note on, E2 key =  40;WhichDrum: S ; velocity: 0
@87600 , @4.6190891472868225 Channel: 1 
Note on, E3 key =  52;WhichDrum: S ; velocity: 127
@87660 , @4.622252906976745 Channel: 1 
Note on, E3 key =  52;WhichDrum: S ; velocity: 0
@87660 , @4.622252906976745 Channel: 1 
Note on, D3 key =  50;WhichDrum: T2 ; velocity: 127
@87720 , @4.625416666666667 Channel: 1 
Note on, D3 key =  50;WhichDrum: T2 ; velocity: 0
@87720 , @4.625416666666667 Channel: 1 
Note on, B2 key =  47;WhichDrum: T1 ; velocity: 127
@87780 , @4.6285804263565895 Channel: 1 
Note on, B2 key =  47;WhichDrum: T1 ; velocity: 0
@87780 , @4.6285804263565895 Channel: 1 
Note on, A#2 key =  46;WhichDrum: T2 ; velocity: 127
@87840 , @4.631744186046512 Channel: 1 
Note on, A#2 key =  46;WhichDrum: T2 ; velocity: 0
@87840 , @4.631744186046512 Channel: 1 
Note on, E2 key =  40;WhichDrum: S ; velocity: 127
@87900 , @4.634907945736434 Channel: 1 
Note on, E2 key =  40;WhichDrum: S ; velocity: 0
@87900 , @4.634907945736434 Channel: 1 
Note on, E2 key =  40;WhichDrum: S ; velocity: 127
@87960 , @4.638071705426357 Channel: 1 
Note on, E2 key =  40;WhichDrum: S ; velocity: 0
@87960 , @4.638071705426357 Channel: 1 
Note on, E2 key =  40;WhichDrum: S ; velocity: 127
@88020 , @4.64123546511628 Channel: 1 
Note on, E2 key =  40;WhichDrum: S ; velocity: 0
@88020 , @4.64123546511628 Channel: 1 
Note on, E2 key =  40;WhichDrum: S ; velocity: 127
@88080 , @4.644399224806202 Channel: 1 
Note on, E2 key =  40;WhichDrum: S ; velocity: 0
@88080 , @4.644399224806202 Channel: 1 
Note on, G3 key =  55;WhichDrum: C2 ; velocity: 127
@88080 , @4.644399224806202 Channel: 1 
Note on, D3 key =  50;WhichDrum: T2 ; velocity: 127
@88140 , @4.647562984496124 Channel: 1 
Note on, G3 key =  55;WhichDrum: C2 ; velocity: 0
@88140 , @4.647562984496124 Channel: 1 
Note on, D3 key =  50;WhichDrum: T2 ; velocity: 0
@88140 , @4.647562984496124 Channel: 1 
Note on, E3 key =  52;WhichDrum: S ; velocity: 127
@88140 , @4.647562984496124 Channel: 1 
Note on, A3 key =  57;WhichDrum: T3 ; velocity: 127
@88200 , @4.650726744186047 Channel: 1 
Note on, E3 key =  52;WhichDrum: S ; velocity: 0
@88200 , @4.650726744186047 Channel: 1 
Note on, A3 key =  57;WhichDrum: T3 ; velocity: 0
@88200 , @4.650726744186047 Channel: 1 
Note on, D3 key =  50;WhichDrum: T2 ; velocity: 127
@88200 , @4.650726744186047 Channel: 1 
Note on, G3 key =  55;WhichDrum: C2 ; velocity: 127
@88260 , @4.653890503875969 Channel: 1 
Note on, D3 key =  50;WhichDrum: T2 ; velocity: 0
@88260 , @4.653890503875969 Channel: 1 
Note on, G3 key =  55;WhichDrum: C2 ; velocity: 0
@88260 , @4.653890503875969 Channel: 1 
Note on, A3 key =  57;WhichDrum: T3 ; velocity: 127
@88260 , @4.653890503875969 Channel: 1 
Note on, E3 key =  52;WhichDrum: S ; velocity: 127
@88320 , @4.657054263565892 Channel: 1 
Note on, A3 key =  57;WhichDrum: T3 ; velocity: 0
@88320 , @4.657054263565892 Channel: 1 
Note on, E3 key =  52;WhichDrum: S ; velocity: 0
@88320 , @4.657054263565892 Channel: 1 
Note on, E2 key =  40;WhichDrum: S ; velocity: 127
@88380 , @4.660218023255815 Channel: 1 
Note on, E2 key =  40;WhichDrum: S ; velocity: 0
@88380 , @4.660218023255815 Channel: 1 
Note on, E2 key =  40;WhichDrum: S ; velocity: 127
@88440 , @4.663381782945737 Channel: 1 
Note on, E2 key =  40;WhichDrum: S ; velocity: 0
@88440 , @4.663381782945737 Channel: 1 
Note on, E2 key =  40;WhichDrum: S ; velocity: 127
@88500 , @4.666545542635659 Channel: 1 
Note on, E2 key =  40;WhichDrum: S ; velocity: 0
@88500 , @4.666545542635659 Channel: 1 
Note on, E2 key =  40;WhichDrum: S ; velocity: 127
@88560 , @4.669709302325582 Channel: 1 
Note on, E2 key =  40;WhichDrum: S ; velocity: 0
@88560 , @4.669709302325582 Channel: 1 
Note on, E3 key =  52;WhichDrum: S ; velocity: 127
@88620 , @4.672873062015505 Channel: 1 
Note on, E3 key =  52;WhichDrum: S ; velocity: 0
@88620 , @4.672873062015505 Channel: 1 
Note on, D3 key =  50;WhichDrum: T2 ; velocity: 127
@88680 , @4.676036821705427 Channel: 1 
Note on, D3 key =  50;WhichDrum: T2 ; velocity: 0
@88680 , @4.676036821705427 Channel: 1 
Note on, B2 key =  47;WhichDrum: T1 ; velocity: 127
@88740 , @4.6792005813953494 Channel: 1 
Note on, B2 key =  47;WhichDrum: T1 ; velocity: 0
@88740 , @4.6792005813953494 Channel: 1 
Note on, A#2 key =  46;WhichDrum: T2 ; velocity: 127
@88800 , @4.682364341085272 Channel: 1 
Note on, A#2 key =  46;WhichDrum: T2 ; velocity: 0
@88800 , @4.682364341085272 Channel: 1 
Note on, E2 key =  40;WhichDrum: S ; velocity: 127
@88860 , @4.685528100775194 Channel: 1 
Note on, E2 key =  40;WhichDrum: S ; velocity: 0
@88860 , @4.685528100775194 Channel: 1 
Note on, E2 key =  40;WhichDrum: S ; velocity: 127
@88920 , @4.688691860465116 Channel: 1 
Note on, E2 key =  40;WhichDrum: S ; velocity: 0
@88920 , @4.688691860465116 Channel: 1 
Note on, E2 key =  40;WhichDrum: S ; velocity: 127
@88980 , @4.69185562015504 Channel: 1 
Note on, E2 key =  40;WhichDrum: S ; velocity: 0
@88980 , @4.69185562015504 Channel: 1 
Note on, E2 key =  40;WhichDrum: S ; velocity: 127
@89040 , @4.695019379844961 Channel: 1 
Note on, E2 key =  40;WhichDrum: S ; velocity: 0
@89040 , @4.695019379844961 Channel: 1 
Note on, G3 key =  55;WhichDrum: C2 ; velocity: 127
@89040 , @4.695019379844961 Channel: 1 
Note on, D3 key =  50;WhichDrum: T2 ; velocity: 127
@89100 , @4.698183139534883 Channel: 1 
Note on, G3 key =  55;WhichDrum: C2 ; velocity: 0
@89100 , @4.698183139534883 Channel: 1 
Note on, D3 key =  50;WhichDrum: T2 ; velocity: 0
@89100 , @4.698183139534883 Channel: 1 
Note on, E3 key =  52;WhichDrum: S ; velocity: 127
@89100 , @4.698183139534883 Channel: 1 
Note on, A3 key =  57;WhichDrum: T3 ; velocity: 127
@89160 , @4.701346899224806 Channel: 1 
Note on, E3 key =  52;WhichDrum: S ; velocity: 0
@89160 , @4.701346899224806 Channel: 1 
Note on, A3 key =  57;WhichDrum: T3 ; velocity: 0
@89160 , @4.701346899224806 Channel: 1 
Note on, D3 key =  50;WhichDrum: T2 ; velocity: 127
@89160 , @4.701346899224806 Channel: 1 
Note on, G3 key =  55;WhichDrum: C2 ; velocity: 127
@89220 , @4.704510658914728 Channel: 1 
Note on, D3 key =  50;WhichDrum: T2 ; velocity: 0
@89220 , @4.704510658914728 Channel: 1 
Note on, G3 key =  55;WhichDrum: C2 ; velocity: 0
@89220 , @4.704510658914728 Channel: 1 
Note on, A3 key =  57;WhichDrum: T3 ; velocity: 127
@89220 , @4.704510658914728 Channel: 1 
Note on, E3 key =  52;WhichDrum: S ; velocity: 127
@89280 , @4.707674418604651 Channel: 1 
Note on, A3 key =  57;WhichDrum: T3 ; velocity: 0
@89280 , @4.707674418604651 Channel: 1 
Note on, E3 key =  52;WhichDrum: S ; velocity: 0
@89280 , @4.707674418604651 Channel: 1 
Note on, E2 key =  40;WhichDrum: S ; velocity: 127
@89340 , @4.710838178294574 Channel: 1 
Note on, E2 key =  40;WhichDrum: S ; velocity: 0
@89340 , @4.710838178294574 Channel: 1 
Note on, E2 key =  40;WhichDrum: S ; velocity: 127
@89400 , @4.714001937984496 Channel: 1 
Note on, E2 key =  40;WhichDrum: S ; velocity: 0
@89400 , @4.714001937984496 Channel: 1 
Note on, E2 key =  40;WhichDrum: S ; velocity: 127
@89460 , @4.717165697674418 Channel: 1 
Note on, E2 key =  40;WhichDrum: S ; velocity: 0
@89460 , @4.717165697674418 Channel: 1 
Note on, E2 key =  40;WhichDrum: S ; velocity: 127
@89520 , @4.720329457364341 Channel: 1 
Note on, E2 key =  40;WhichDrum: S ; velocity: 0
@89520 , @4.720329457364341 Channel: 1 
Note on, E3 key =  52;WhichDrum: S ; velocity: 127
@89580 , @4.723493217054264 Channel: 1 
Note on, E3 key =  52;WhichDrum: S ; velocity: 0
@89580 , @4.723493217054264 Channel: 1 
Note on, D3 key =  50;WhichDrum: T2 ; velocity: 127
@89640 , @4.726656976744186 Channel: 1 
Note on, D3 key =  50;WhichDrum: T2 ; velocity: 0
@89640 , @4.726656976744186 Channel: 1 
Note on, B2 key =  47;WhichDrum: T1 ; velocity: 127
@89700 , @4.7298207364341085 Channel: 1 
Note on, B2 key =  47;WhichDrum: T1 ; velocity: 0
@89700 , @4.7298207364341085 Channel: 1 
Note on, A#2 key =  46;WhichDrum: T2 ; velocity: 127
@89760 , @4.732984496124031 Channel: 1 
Note on, A#2 key =  46;WhichDrum: T2 ; velocity: 0
@89760 , @4.732984496124031 Channel: 1 
Note on, E2 key =  40;WhichDrum: S ; velocity: 127
@89820 , @4.736148255813953 Channel: 1 
Note on, E2 key =  40;WhichDrum: S ; velocity: 0
@89820 , @4.736148255813953 Channel: 1 
Note on, E2 key =  40;WhichDrum: S ; velocity: 127
@89880 , @4.7393120155038755 Channel: 1 
Note on, E2 key =  40;WhichDrum: S ; velocity: 0
@89880 , @4.7393120155038755 Channel: 1 
Note on, E2 key =  40;WhichDrum: S ; velocity: 127
@89940 , @4.742475775193799 Channel: 1 
Note on, E2 key =  40;WhichDrum: S ; velocity: 0
@89940 , @4.742475775193799 Channel: 1 
Note on, E2 key =  40;WhichDrum: S ; velocity: 127
@90000 , @4.745639534883721 Channel: 1 
Note on, E2 key =  40;WhichDrum: S ; velocity: 0
@90000 , @4.745639534883721 Channel: 1 
Note on, G3 key =  55;WhichDrum: C2 ; velocity: 127
@90000 , @4.745639534883721 Channel: 1 
Note on, D3 key =  50;WhichDrum: T2 ; velocity: 127
@90060 , @4.748803294573643 Channel: 1 
Note on, G3 key =  55;WhichDrum: C2 ; velocity: 0
@90060 , @4.748803294573643 Channel: 1 
Note on, D3 key =  50;WhichDrum: T2 ; velocity: 0
@90060 , @4.748803294573643 Channel: 1 
Note on, E3 key =  52;WhichDrum: S ; velocity: 127
@90060 , @4.748803294573643 Channel: 1 
Note on, A3 key =  57;WhichDrum: T3 ; velocity: 127
@90120 , @4.751967054263566 Channel: 1 
Note on, E3 key =  52;WhichDrum: S ; velocity: 0
@90120 , @4.751967054263566 Channel: 1 
Note on, A3 key =  57;WhichDrum: T3 ; velocity: 0
@90120 , @4.751967054263566 Channel: 1 
Note on, D3 key =  50;WhichDrum: T2 ; velocity: 127
@90120 , @4.751967054263566 Channel: 1 
Note on, G3 key =  55;WhichDrum: C2 ; velocity: 127
@90180 , @4.755130813953488 Channel: 1 
Note on, D3 key =  50;WhichDrum: T2 ; velocity: 0
@90180 , @4.755130813953488 Channel: 1 
Note on, G3 key =  55;WhichDrum: C2 ; velocity: 0
@90180 , @4.755130813953488 Channel: 1 
Note on, A3 key =  57;WhichDrum: T3 ; velocity: 127
@90180 , @4.755130813953488 Channel: 1 
Note on, E3 key =  52;WhichDrum: S ; velocity: 127
@90240 , @4.75829457364341 Channel: 1 
Note on, A3 key =  57;WhichDrum: T3 ; velocity: 0
@90240 , @4.75829457364341 Channel: 1 
Note on, E3 key =  52;WhichDrum: S ; velocity: 0
@90240 , @4.75829457364341 Channel: 1 
Note on, E2 key =  40;WhichDrum: S ; velocity: 127
@90300 , @4.761458333333334 Channel: 1 
Note on, E2 key =  40;WhichDrum: S ; velocity: 0
@90300 , @4.761458333333334 Channel: 1 
Note on, E2 key =  40;WhichDrum: S ; velocity: 127
@90360 , @4.764622093023256 Channel: 1 
Note on, E2 key =  40;WhichDrum: S ; velocity: 0
@90360 , @4.764622093023256 Channel: 1 
Note on, E2 key =  40;WhichDrum: S ; velocity: 127
@90420 , @4.767785852713178 Channel: 1 
Note on, E2 key =  40;WhichDrum: S ; velocity: 0
@90420 , @4.767785852713178 Channel: 1 
Note on, E2 key =  40;WhichDrum: S ; velocity: 127
@90480 , @4.770949612403101 Channel: 1 
Note on, E2 key =  40;WhichDrum: S ; velocity: 0
@90480 , @4.770949612403101 Channel: 1 
Note on, E3 key =  52;WhichDrum: S ; velocity: 127
@90540 , @4.774113372093023 Channel: 1 
Note on, E3 key =  52;WhichDrum: S ; velocity: 0
@90540 , @4.774113372093023 Channel: 1 
Note on, D3 key =  50;WhichDrum: T2 ; velocity: 127
@90600 , @4.777277131782946 Channel: 1 
Note on, D3 key =  50;WhichDrum: T2 ; velocity: 0
@90600 , @4.777277131782946 Channel: 1 
Note on, B2 key =  47;WhichDrum: T1 ; velocity: 127
@90660 , @4.780440891472868 Channel: 1 
Note on, B2 key =  47;WhichDrum: T1 ; velocity: 0
@90660 , @4.780440891472868 Channel: 1 
Note on, A#2 key =  46;WhichDrum: T2 ; velocity: 127
@90720 , @4.783604651162791 Channel: 1 
Note on, A#2 key =  46;WhichDrum: T2 ; velocity: 0
@90720 , @4.783604651162791 Channel: 1 
Note on, E2 key =  40;WhichDrum: S ; velocity: 127
@90780 , @4.786768410852713 Channel: 1 
Note on, E2 key =  40;WhichDrum: S ; velocity: 0
@90780 , @4.786768410852713 Channel: 1 
Note on, E2 key =  40;WhichDrum: S ; velocity: 127
@90840 , @4.789932170542635 Channel: 1 
Note on, E2 key =  40;WhichDrum: S ; velocity: 0
@90840 , @4.789932170542635 Channel: 1 
Note on, E2 key =  40;WhichDrum: S ; velocity: 127
@90900 , @4.793095930232558 Channel: 1 
Note on, E2 key =  40;WhichDrum: S ; velocity: 0
@90900 , @4.793095930232558 Channel: 1 
Note on, E2 key =  40;WhichDrum: S ; velocity: 127
@90960 , @4.796259689922481 Channel: 1 
Note on, E2 key =  40;WhichDrum: S ; velocity: 0
@90960 , @4.796259689922481 Channel: 1 
Note on, E2 key =  40;WhichDrum: S ; velocity: 127
@91020 , @4.799423449612403 Channel: 1 
Note on, E2 key =  40;WhichDrum: S ; velocity: 0
@91020 , @4.799423449612403 Channel: 1 
Note on, E2 key =  40;WhichDrum: S ; velocity: 127
@91080 , @4.802587209302326 Channel: 1 
Note on, E2 key =  40;WhichDrum: S ; velocity: 0
@91080 , @4.802587209302326 Channel: 1 
Note on, E2 key =  40;WhichDrum: S ; velocity: 127
@91140 , @4.805750968992248 Channel: 1 
Note on, E2 key =  40;WhichDrum: S ; velocity: 0
@91140 , @4.805750968992248 Channel: 1 
Note on, E2 key =  40;WhichDrum: S ; velocity: 127
@91200 , @4.80891472868217 Channel: 1 
Note on, E2 key =  40;WhichDrum: S ; velocity: 0
@91200 , @4.80891472868217 Channel: 1 
Note on, E2 key =  40;WhichDrum: S ; velocity: 127
@91260 , @4.812078488372093 Channel: 1 
Note on, E2 key =  40;WhichDrum: S ; velocity: 0
@91260 , @4.812078488372093 Channel: 1 
Note on, E2 key =  40;WhichDrum: S ; velocity: 127
@91320 , @4.815242248062016 Channel: 1 
Note on, E2 key =  40;WhichDrum: S ; velocity: 0
@91320 , @4.815242248062016 Channel: 1 
Note on, E2 key =  40;WhichDrum: S ; velocity: 127
@91380 , @4.818406007751938 Channel: 1 
Note on, E2 key =  40;WhichDrum: S ; velocity: 0
@91380 , @4.818406007751938 Channel: 1 
Note on, E2 key =  40;WhichDrum: S ; velocity: 127
@91440 , @4.8215697674418605 Channel: 1 
Note on, E2 key =  40;WhichDrum: S ; velocity: 0
@91440 , @4.8215697674418605 Channel: 1 
Note on, B2 key =  47;WhichDrum: T1 ; velocity: 127
@91500 , @4.824733527131783 Channel: 1 
Note on, B2 key =  47;WhichDrum: T1 ; velocity: 0
@91500 , @4.824733527131783 Channel: 1 
Note on, A#2 key =  46;WhichDrum: T2 ; velocity: 127
@91560 , @4.827897286821705 Channel: 1 
Note on, A#2 key =  46;WhichDrum: T2 ; velocity: 0
@91560 , @4.827897286821705 Channel: 1 
Note on, G3 key =  55;WhichDrum: C2 ; velocity: 127
@91620 , @4.831061046511628 Channel: 1 
Note on, G3 key =  55;WhichDrum: C2 ; velocity: 0
@91620 , @4.831061046511628 Channel: 1 
Note on, E3 key =  52;WhichDrum: S ; velocity: 127
@91680 , @4.834224806201551 Channel: 1 
Note on, E3 key =  52;WhichDrum: S ; velocity: 0
@91680 , @4.834224806201551 Channel: 1 
Note on, E2 key =  40;WhichDrum: S ; velocity: 127
@91740 , @4.837388565891473 Channel: 1 
Note on, E2 key =  40;WhichDrum: S ; velocity: 0
@91740 , @4.837388565891473 Channel: 1 
Note on, E2 key =  40;WhichDrum: S ; velocity: 127
@91800 , @4.840552325581395 Channel: 1 
Note on, E2 key =  40;WhichDrum: S ; velocity: 0
@91800 , @4.840552325581395 Channel: 1 
Note on, E2 key =  40;WhichDrum: S ; velocity: 127
@91860 , @4.843716085271318 Channel: 1 
Note on, E2 key =  40;WhichDrum: S ; velocity: 0
@91860 , @4.843716085271318 Channel: 1 
Note on, E2 key =  40;WhichDrum: S ; velocity: 127
@91920 , @4.84687984496124 Channel: 1 
Note on, E2 key =  40;WhichDrum: S ; velocity: 0
@91920 , @4.84687984496124 Channel: 1 
Note on, E2 key =  40;WhichDrum: S ; velocity: 127
@91980 , @4.850043604651163 Channel: 1 
Note on, E2 key =  40;WhichDrum: S ; velocity: 0
@91980 , @4.850043604651163 Channel: 1 
Note on, E2 key =  40;WhichDrum: S ; velocity: 127
@92040 , @4.853207364341086 Channel: 1 
Note on, E2 key =  40;WhichDrum: S ; velocity: 0
@92040 , @4.853207364341086 Channel: 1 
Note on, E2 key =  40;WhichDrum: S ; velocity: 127
@92100 , @4.856371124031008 Channel: 1 
Note on, E2 key =  40;WhichDrum: S ; velocity: 0
@92100 , @4.856371124031008 Channel: 1 
Note on, E2 key =  40;WhichDrum: S ; velocity: 127
@92160 , @4.85953488372093 Channel: 1 
Note on, E2 key =  40;WhichDrum: S ; velocity: 0
@92160 , @4.85953488372093 Channel: 1 
Note on, E2 key =  40;WhichDrum: S ; velocity: 127
@92220 , @4.862698643410853 Channel: 1 
Note on, E2 key =  40;WhichDrum: S ; velocity: 0
@92220 , @4.862698643410853 Channel: 1 
Note on, E2 key =  40;WhichDrum: S ; velocity: 127
@92280 , @4.865862403100775 Channel: 1 
Note on, E2 key =  40;WhichDrum: S ; velocity: 0
@92280 , @4.865862403100775 Channel: 1 
Note on, E2 key =  40;WhichDrum: S ; velocity: 127
@92340 , @4.869026162790698 Channel: 1 
Note on, E2 key =  40;WhichDrum: S ; velocity: 0
@92340 , @4.869026162790698 Channel: 1 
Note on, E2 key =  40;WhichDrum: S ; velocity: 127
@92400 , @4.87218992248062 Channel: 1 
Note on, E2 key =  40;WhichDrum: S ; velocity: 0
@92400 , @4.87218992248062 Channel: 1 
Note on, B2 key =  47;WhichDrum: T1 ; velocity: 127
@92460 , @4.875353682170543 Channel: 1 
Note on, B2 key =  47;WhichDrum: T1 ; velocity: 0
@92460 , @4.875353682170543 Channel: 1 
Note on, A#2 key =  46;WhichDrum: T2 ; velocity: 127
@92520 , @4.878517441860465 Channel: 1 
Note on, A#2 key =  46;WhichDrum: T2 ; velocity: 0
@92520 , @4.878517441860465 Channel: 1 
Note on, G3 key =  55;WhichDrum: C2 ; velocity: 127
@92580 , @4.881681201550387 Channel: 1 
Note on, G3 key =  55;WhichDrum: C2 ; velocity: 0
@92580 , @4.881681201550387 Channel: 1 
Note on, E3 key =  52;WhichDrum: S ; velocity: 127
@92640 , @4.884844961240311 Channel: 1 
Note on, E3 key =  52;WhichDrum: S ; velocity: 0
@92640 , @4.884844961240311 Channel: 1 
Note on, E2 key =  40;WhichDrum: S ; velocity: 127
@92700 , @4.888008720930233 Channel: 1 
Note on, E2 key =  40;WhichDrum: S ; velocity: 0
@92700 , @4.888008720930233 Channel: 1 
Note on, E2 key =  40;WhichDrum: S ; velocity: 127
@92760 , @4.891172480620155 Channel: 1 
Note on, E2 key =  40;WhichDrum: S ; velocity: 0
@92760 , @4.891172480620155 Channel: 1 
Note on, E2 key =  40;WhichDrum: S ; velocity: 127
@92820 , @4.894336240310078 Channel: 1 
Note on, E2 key =  40;WhichDrum: S ; velocity: 0
@92820 , @4.894336240310078 Channel: 1 
Note on, E2 key =  40;WhichDrum: S ; velocity: 127
@92880 , @4.8975 Channel: 1 
Note on, E2 key =  40;WhichDrum: S ; velocity: 0
@92880 , @4.8975 Channel: 1 
Note on, E2 key =  40;WhichDrum: S ; velocity: 127
@92940 , @4.900663759689922 Channel: 1 
Note on, E2 key =  40;WhichDrum: S ; velocity: 0
@92940 , @4.900663759689922 Channel: 1 
Note on, E2 key =  40;WhichDrum: S ; velocity: 127
@93000 , @4.9038275193798455 Channel: 1 
Note on, E2 key =  40;WhichDrum: S ; velocity: 0
@93000 , @4.9038275193798455 Channel: 1 
Note on, E2 key =  40;WhichDrum: S ; velocity: 127
@93060 , @4.906991279069768 Channel: 1 
Note on, E2 key =  40;WhichDrum: S ; velocity: 0
@93060 , @4.906991279069768 Channel: 1 
Note on, E2 key =  40;WhichDrum: S ; velocity: 127
@93120 , @4.91015503875969 Channel: 1 
Note on, E2 key =  40;WhichDrum: S ; velocity: 0
@93120 , @4.91015503875969 Channel: 1 
Note on, E2 key =  40;WhichDrum: S ; velocity: 127
@93180 , @4.9133187984496125 Channel: 1 
Note on, E2 key =  40;WhichDrum: S ; velocity: 0
@93180 , @4.9133187984496125 Channel: 1 
Note on, E2 key =  40;WhichDrum: S ; velocity: 127
@93240 , @4.916482558139535 Channel: 1 
Note on, E2 key =  40;WhichDrum: S ; velocity: 0
@93240 , @4.916482558139535 Channel: 1 
Note on, E2 key =  40;WhichDrum: S ; velocity: 127
@93300 , @4.919646317829457 Channel: 1 
Note on, E2 key =  40;WhichDrum: S ; velocity: 0
@93300 , @4.919646317829457 Channel: 1 
Note on, E2 key =  40;WhichDrum: S ; velocity: 127
@93360 , @4.92281007751938 Channel: 1 
Note on, E2 key =  40;WhichDrum: S ; velocity: 0
@93360 , @4.92281007751938 Channel: 1 
Note on, B2 key =  47;WhichDrum: T1 ; velocity: 127
@93420 , @4.925973837209303 Channel: 1 
Note on, B2 key =  47;WhichDrum: T1 ; velocity: 0
@93420 , @4.925973837209303 Channel: 1 
Note on, A#2 key =  46;WhichDrum: T2 ; velocity: 127
@93480 , @4.929137596899225 Channel: 1 
Note on, A#2 key =  46;WhichDrum: T2 ; velocity: 0
@93480 , @4.929137596899225 Channel: 1 
Note on, G3 key =  55;WhichDrum: C2 ; velocity: 127
@93540 , @4.932301356589147 Channel: 1 
Note on, G3 key =  55;WhichDrum: C2 ; velocity: 0
@93540 , @4.932301356589147 Channel: 1 
Note on, E3 key =  52;WhichDrum: S ; velocity: 127
@93600 , @4.93546511627907 Channel: 1 
Note on, E3 key =  52;WhichDrum: S ; velocity: 0
@93600 , @4.93546511627907 Channel: 1 
Note on, E2 key =  40;WhichDrum: S ; velocity: 127
@93660 , @4.938628875968993 Channel: 1 
Note on, E2 key =  40;WhichDrum: S ; velocity: 0
@93660 , @4.938628875968993 Channel: 1 
Note on, E2 key =  40;WhichDrum: S ; velocity: 127
@93720 , @4.941792635658915 Channel: 1 
Note on, E2 key =  40;WhichDrum: S ; velocity: 0
@93720 , @4.941792635658915 Channel: 1 
Note on, E2 key =  40;WhichDrum: S ; velocity: 127
@93780 , @4.944956395348838 Channel: 1 
Note on, E2 key =  40;WhichDrum: S ; velocity: 0
@93780 , @4.944956395348838 Channel: 1 
Note on, E2 key =  40;WhichDrum: S ; velocity: 127
@93840 , @4.94812015503876 Channel: 1 
Note on, E2 key =  40;WhichDrum: S ; velocity: 0
@93840 , @4.94812015503876 Channel: 1 
Note on, E2 key =  40;WhichDrum: S ; velocity: 127
@93900 , @4.951283914728682 Channel: 1 
Note on, E2 key =  40;WhichDrum: S ; velocity: 0
@93900 , @4.951283914728682 Channel: 1 
Note on, E2 key =  40;WhichDrum: S ; velocity: 127
@93960 , @4.954447674418605 Channel: 1 
Note on, E2 key =  40;WhichDrum: S ; velocity: 0
@93960 , @4.954447674418605 Channel: 1 
Note on, E2 key =  40;WhichDrum: S ; velocity: 127
@94020 , @4.957611434108528 Channel: 1 
Note on, E2 key =  40;WhichDrum: S ; velocity: 0
@94020 , @4.957611434108528 Channel: 1 
Note on, E2 key =  40;WhichDrum: S ; velocity: 127
@94080 , @4.96077519379845 Channel: 1 
Note on, E2 key =  40;WhichDrum: S ; velocity: 0
@94080 , @4.96077519379845 Channel: 1 
Note on, E2 key =  40;WhichDrum: S ; velocity: 127
@94140 , @4.963938953488372 Channel: 1 
Note on, E2 key =  40;WhichDrum: S ; velocity: 0
@94140 , @4.963938953488372 Channel: 1 
Note on, E2 key =  40;WhichDrum: S ; velocity: 127
@94200 , @4.967102713178295 Channel: 1 
Note on, E2 key =  40;WhichDrum: S ; velocity: 0
@94200 , @4.967102713178295 Channel: 1 
Note on, E2 key =  40;WhichDrum: S ; velocity: 127
@94260 , @4.970266472868217 Channel: 1 
Note on, E2 key =  40;WhichDrum: S ; velocity: 0
@94260 , @4.970266472868217 Channel: 1 
Note on, E2 key =  40;WhichDrum: S ; velocity: 127
@94320 , @4.973430232558139 Channel: 1 
Note on, E2 key =  40;WhichDrum: S ; velocity: 0
@94320 , @4.973430232558139 Channel: 1 
Note on, B2 key =  47;WhichDrum: T1 ; velocity: 127
@94380 , @4.976593992248063 Channel: 1 
Note on, B2 key =  47;WhichDrum: T1 ; velocity: 0
@94380 , @4.976593992248063 Channel: 1 
Note on, A#2 key =  46;WhichDrum: T2 ; velocity: 127
@94440 , @4.979757751937985 Channel: 1 
Note on, A#2 key =  46;WhichDrum: T2 ; velocity: 0
@94440 , @4.979757751937985 Channel: 1 
Note on, G3 key =  55;WhichDrum: C2 ; velocity: 127
@94500 , @4.982921511627907 Channel: 1 
Note on, G3 key =  55;WhichDrum: C2 ; velocity: 0
@94500 , @4.982921511627907 Channel: 1 
Note on, E3 key =  52;WhichDrum: S ; velocity: 127
@94560 , @4.98608527131783 Channel: 1 
Note on, E3 key =  52;WhichDrum: S ; velocity: 0
@94560 , @4.98608527131783 Channel: 1 
Note on, C4 key =  60;WhichDrum: B ; velocity: 127
@94560 , @4.98608527131783 Channel: 1 
Note on, G3 key =  55;WhichDrum: C2 ; velocity: 127
@94620 , @4.989249031007752 Channel: 1 
Note on, C4 key =  60;WhichDrum: B ; velocity: 0
@94620 , @4.989249031007752 Channel: 1 
Note on, G3 key =  55;WhichDrum: C2 ; velocity: 0
@94620 , @4.989249031007752 Channel: 1 
Note on, E2 key =  40;WhichDrum: S ; velocity: 127
@94680 , @4.992412790697675 Channel: 1 
Note on, E2 key =  40;WhichDrum: S ; velocity: 0
@94680 , @4.992412790697675 Channel: 1 
Note on, E2 key =  40;WhichDrum: S ; velocity: 127
@94740 , @4.9955765503875975 Channel: 1 
Note on, E2 key =  40;WhichDrum: S ; velocity: 0
@94740 , @4.9955765503875975 Channel: 1 
Note on, E2 key =  40;WhichDrum: S ; velocity: 127
@94800 , @4.99874031007752 Channel: 1 
Note on, E2 key =  40;WhichDrum: S ; velocity: 0
@94800 , @4.99874031007752 Channel: 1 
Note on, G3 key =  55;WhichDrum: C2 ; velocity: 127
@94800 , @4.99874031007752 Channel: 1 
Note on, C4 key =  60;WhichDrum: B ; velocity: 127
@94860 , @5.001904069767442 Channel: 1 
Note on, G3 key =  55;WhichDrum: C2 ; velocity: 0
@94860 , @5.001904069767442 Channel: 1 
Note on, C4 key =  60;WhichDrum: B ; velocity: 0
@94860 , @5.001904069767442 Channel: 1 
Note on, D4 key =  62;WhichDrum: T2 ; velocity: 127
@94860 , @5.001904069767442 Channel: 1 
Note on, A3 key =  57;WhichDrum: T3 ; velocity: 127
@94920 , @5.0050678294573645 Channel: 1 
Note on, D4 key =  62;WhichDrum: T2 ; velocity: 0
@94920 , @5.0050678294573645 Channel: 1 
Note on, A3 key =  57;WhichDrum: T3 ; velocity: 0
@94920 , @5.0050678294573645 Channel: 1 
Note on, G3 key =  55;WhichDrum: C2 ; velocity: 127
@94920 , @5.0050678294573645 Channel: 1 
Note on, C4 key =  60;WhichDrum: B ; velocity: 127
@95040 , @5.01139534883721 Channel: 1 
Note on, G3 key =  55;WhichDrum: C2 ; velocity: 0
@95040 , @5.01139534883721 Channel: 1 
Note on, C4 key =  60;WhichDrum: B ; velocity: 0
@95040 , @5.01139534883721 Channel: 1 
Note on, C4 key =  60;WhichDrum: B ; velocity: 127
@95040 , @5.01139534883721 Channel: 1 
Note on, G3 key =  55;WhichDrum: C2 ; velocity: 127
@95100 , @5.014559108527132 Channel: 1 
Note on, C4 key =  60;WhichDrum: B ; velocity: 0
@95100 , @5.014559108527132 Channel: 1 
Note on, G3 key =  55;WhichDrum: C2 ; velocity: 0
@95100 , @5.014559108527132 Channel: 1 
Note on, E2 key =  40;WhichDrum: S ; velocity: 127
@95160 , @5.017722868217055 Channel: 1 
Note on, E2 key =  40;WhichDrum: S ; velocity: 0
@95160 , @5.017722868217055 Channel: 1 
Note on, E2 key =  40;WhichDrum: S ; velocity: 127
@95220 , @5.020886627906977 Channel: 1 
Note on, E2 key =  40;WhichDrum: S ; velocity: 0
@95220 , @5.020886627906977 Channel: 1 
Note on, E2 key =  40;WhichDrum: S ; velocity: 127
@95280 , @5.024050387596899 Channel: 1 
Note on, E2 key =  40;WhichDrum: S ; velocity: 0
@95280 , @5.024050387596899 Channel: 1 
Note on, G3 key =  55;WhichDrum: C2 ; velocity: 127
@95280 , @5.024050387596899 Channel: 1 
Note on, C4 key =  60;WhichDrum: B ; velocity: 127
@95340 , @5.027214147286822 Channel: 1 
Note on, G3 key =  55;WhichDrum: C2 ; velocity: 0
@95340 , @5.027214147286822 Channel: 1 
Note on, C4 key =  60;WhichDrum: B ; velocity: 0
@95340 , @5.027214147286822 Channel: 1 
Note on, D4 key =  62;WhichDrum: T2 ; velocity: 127
@95340 , @5.027214147286822 Channel: 1 
Note on, A3 key =  57;WhichDrum: T3 ; velocity: 127
@95400 , @5.030377906976745 Channel: 1 
Note on, D4 key =  62;WhichDrum: T2 ; velocity: 0
@95400 , @5.030377906976745 Channel: 1 
Note on, A3 key =  57;WhichDrum: T3 ; velocity: 0
@95400 , @5.030377906976745 Channel: 1 
Note on, G3 key =  55;WhichDrum: C2 ; velocity: 127
@95400 , @5.030377906976745 Channel: 1 
Note on, C4 key =  60;WhichDrum: B ; velocity: 127
@95520 , @5.03670542635659 Channel: 1 
Note on, G3 key =  55;WhichDrum: C2 ; velocity: 0
@95520 , @5.03670542635659 Channel: 1 
Note on, C4 key =  60;WhichDrum: B ; velocity: 0
@95520 , @5.03670542635659 Channel: 1 
Note on, C4 key =  60;WhichDrum: B ; velocity: 127
@95520 , @5.03670542635659 Channel: 1 
Note on, G3 key =  55;WhichDrum: C2 ; velocity: 127
@95580 , @5.039869186046512 Channel: 1 
Note on, C4 key =  60;WhichDrum: B ; velocity: 0
@95580 , @5.039869186046512 Channel: 1 
Note on, G3 key =  55;WhichDrum: C2 ; velocity: 0
@95580 , @5.039869186046512 Channel: 1 
Note on, E2 key =  40;WhichDrum: S ; velocity: 127
@95640 , @5.043032945736434 Channel: 1 
Note on, E2 key =  40;WhichDrum: S ; velocity: 0
@95640 , @5.043032945736434 Channel: 1 
Note on, E2 key =  40;WhichDrum: S ; velocity: 127
@95700 , @5.0461967054263575 Channel: 1 
Note on, E2 key =  40;WhichDrum: S ; velocity: 0
@95700 , @5.0461967054263575 Channel: 1 
Note on, E2 key =  40;WhichDrum: S ; velocity: 127
@95760 , @5.04936046511628 Channel: 1 
Note on, E2 key =  40;WhichDrum: S ; velocity: 0
@95760 , @5.04936046511628 Channel: 1 
Note on, G3 key =  55;WhichDrum: C2 ; velocity: 127
@95760 , @5.04936046511628 Channel: 1 
Note on, C4 key =  60;WhichDrum: B ; velocity: 127
@95820 , @5.052524224806202 Channel: 1 
Note on, G3 key =  55;WhichDrum: C2 ; velocity: 0
@95820 , @5.052524224806202 Channel: 1 
Note on, C4 key =  60;WhichDrum: B ; velocity: 0
@95820 , @5.052524224806202 Channel: 1 
Note on, D4 key =  62;WhichDrum: T2 ; velocity: 127
@95820 , @5.052524224806202 Channel: 1 
Note on, A3 key =  57;WhichDrum: T3 ; velocity: 127
@95880 , @5.055687984496124 Channel: 1 
Note on, D4 key =  62;WhichDrum: T2 ; velocity: 0
@95880 , @5.055687984496124 Channel: 1 
Note on, A3 key =  57;WhichDrum: T3 ; velocity: 0
@95880 , @5.055687984496124 Channel: 1 
Note on, G3 key =  55;WhichDrum: C2 ; velocity: 127
@95880 , @5.055687984496124 Channel: 1 
Note on, C4 key =  60;WhichDrum: B ; velocity: 127
@96000 , @5.062015503875969 Channel: 1 
Note on, G3 key =  55;WhichDrum: C2 ; velocity: 0
@96000 , @5.062015503875969 Channel: 1 
Note on, C4 key =  60;WhichDrum: B ; velocity: 0
@96000 , @5.062015503875969 Channel: 1 
Note on, D4 key =  62;WhichDrum: T2 ; velocity: 127
@96060 , @5.065179263565892 Channel: 1 
Note on, D4 key =  62;WhichDrum: T2 ; velocity: 0
@96060 , @5.065179263565892 Channel: 1 
Note on, C4 key =  60;WhichDrum: B ; velocity: 127
@96120 , @5.068343023255815 Channel: 1 
Note on, C4 key =  60;WhichDrum: B ; velocity: 0
@96120 , @5.068343023255815 Channel: 1 
Note on, A3 key =  57;WhichDrum: T3 ; velocity: 127
@96180 , @5.071506782945737 Channel: 1 
Note on, A3 key =  57;WhichDrum: T3 ; velocity: 0
@96180 , @5.071506782945737 Channel: 1 
Note on, G#3 key =  56;WhichDrum: B ; velocity: 127
@96240 , @5.074670542635659 Channel: 1 
Note on, G#3 key =  56;WhichDrum: B ; velocity: 0
@96240 , @5.074670542635659 Channel: 1 
Note on, G3 key =  55;WhichDrum: C2 ; velocity: 127
@96300 , @5.077834302325582 Channel: 1 
Note on, G3 key =  55;WhichDrum: C2 ; velocity: 0
@96300 , @5.077834302325582 Channel: 1 
Note on, E3 key =  52;WhichDrum: S ; velocity: 127
@96360 , @5.080998062015504 Channel: 1 
Note on, E3 key =  52;WhichDrum: S ; velocity: 0
@96360 , @5.080998062015504 Channel: 1 
Note on, D#3 key =  51;WhichDrum: T1 ; velocity: 127
@96420 , @5.084161821705427 Channel: 1 
Note on, D#3 key =  51;WhichDrum: T1 ; velocity: 0
@96420 , @5.084161821705427 Channel: 1 
Note on, D3 key =  50;WhichDrum: T2 ; velocity: 127
@96480 , @5.0873255813953495 Channel: 1 
Note on, D3 key =  50;WhichDrum: T2 ; velocity: 0
@96480 , @5.0873255813953495 Channel: 1 
Note on, C4 key =  60;WhichDrum: B ; velocity: 127
@96480 , @5.0873255813953495 Channel: 1 
Note on, G3 key =  55;WhichDrum: C2 ; velocity: 127
@96540 , @5.090489341085272 Channel: 1 
Note on, C4 key =  60;WhichDrum: B ; velocity: 0
@96540 , @5.090489341085272 Channel: 1 
Note on, G3 key =  55;WhichDrum: C2 ; velocity: 0
@96540 , @5.090489341085272 Channel: 1 
Note on, E2 key =  40;WhichDrum: S ; velocity: 127
@96600 , @5.093653100775194 Channel: 1 
Note on, E2 key =  40;WhichDrum: S ; velocity: 0
@96600 , @5.093653100775194 Channel: 1 
Note on, E2 key =  40;WhichDrum: S ; velocity: 127
@96660 , @5.0968168604651165 Channel: 1 
Note on, E2 key =  40;WhichDrum: S ; velocity: 0
@96660 , @5.0968168604651165 Channel: 1 
Note on, E2 key =  40;WhichDrum: S ; velocity: 127
@96720 , @5.09998062015504 Channel: 1 
Note on, E2 key =  40;WhichDrum: S ; velocity: 0
@96720 , @5.09998062015504 Channel: 1 
Note on, G3 key =  55;WhichDrum: C2 ; velocity: 127
@96720 , @5.09998062015504 Channel: 1 
Note on, C4 key =  60;WhichDrum: B ; velocity: 127
@96780 , @5.103144379844961 Channel: 1 
Note on, G3 key =  55;WhichDrum: C2 ; velocity: 0
@96780 , @5.103144379844961 Channel: 1 
Note on, C4 key =  60;WhichDrum: B ; velocity: 0
@96780 , @5.103144379844961 Channel: 1 
Note on, D4 key =  62;WhichDrum: T2 ; velocity: 127
@96780 , @5.103144379844961 Channel: 1 
Note on, A3 key =  57;WhichDrum: T3 ; velocity: 127
@96840 , @5.1063081395348835 Channel: 1 
Note on, D4 key =  62;WhichDrum: T2 ; velocity: 0
@96840 , @5.1063081395348835 Channel: 1 
Note on, A3 key =  57;WhichDrum: T3 ; velocity: 0
@96840 , @5.1063081395348835 Channel: 1 
Note on, G3 key =  55;WhichDrum: C2 ; velocity: 127
@96840 , @5.1063081395348835 Channel: 1 
Note on, C4 key =  60;WhichDrum: B ; velocity: 127
@96960 , @5.112635658914728 Channel: 1 
Note on, G3 key =  55;WhichDrum: C2 ; velocity: 0
@96960 , @5.112635658914728 Channel: 1 
Note on, C4 key =  60;WhichDrum: B ; velocity: 0
@96960 , @5.112635658914728 Channel: 1 
Note on, C4 key =  60;WhichDrum: B ; velocity: 127
@96960 , @5.112635658914728 Channel: 1 
Note on, G3 key =  55;WhichDrum: C2 ; velocity: 127
@97020 , @5.115799418604651 Channel: 1 
Note on, C4 key =  60;WhichDrum: B ; velocity: 0
@97020 , @5.115799418604651 Channel: 1 
Note on, G3 key =  55;WhichDrum: C2 ; velocity: 0
@97020 , @5.115799418604651 Channel: 1 
Note on, E2 key =  40;WhichDrum: S ; velocity: 127
@97080 , @5.118963178294574 Channel: 1 
Note on, E2 key =  40;WhichDrum: S ; velocity: 0
@97080 , @5.118963178294574 Channel: 1 
Note on, E2 key =  40;WhichDrum: S ; velocity: 127
@97140 , @5.122126937984496 Channel: 1 
Note on, E2 key =  40;WhichDrum: S ; velocity: 0
@97140 , @5.122126937984496 Channel: 1 
Note on, E2 key =  40;WhichDrum: S ; velocity: 127
@97200 , @5.125290697674418 Channel: 1 
Note on, E2 key =  40;WhichDrum: S ; velocity: 0
@97200 , @5.125290697674418 Channel: 1 
Note on, G3 key =  55;WhichDrum: C2 ; velocity: 127
@97200 , @5.125290697674418 Channel: 1 
Note on, C4 key =  60;WhichDrum: B ; velocity: 127
@97260 , @5.128454457364341 Channel: 1 
Note on, G3 key =  55;WhichDrum: C2 ; velocity: 0
@97260 , @5.128454457364341 Channel: 1 
Note on, C4 key =  60;WhichDrum: B ; velocity: 0
@97260 , @5.128454457364341 Channel: 1 
Note on, D4 key =  62;WhichDrum: T2 ; velocity: 127
@97260 , @5.128454457364341 Channel: 1 
Note on, A3 key =  57;WhichDrum: T3 ; velocity: 127
@97320 , @5.131618217054263 Channel: 1 
Note on, D4 key =  62;WhichDrum: T2 ; velocity: 0
@97320 , @5.131618217054263 Channel: 1 
Note on, A3 key =  57;WhichDrum: T3 ; velocity: 0
@97320 , @5.131618217054263 Channel: 1 
Note on, G3 key =  55;WhichDrum: C2 ; velocity: 127
@97320 , @5.131618217054263 Channel: 1 
Note on, C4 key =  60;WhichDrum: B ; velocity: 127
@97440 , @5.137945736434109 Channel: 1 
Note on, G3 key =  55;WhichDrum: C2 ; velocity: 0
@97440 , @5.137945736434109 Channel: 1 
Note on, C4 key =  60;WhichDrum: B ; velocity: 0
@97440 , @5.137945736434109 Channel: 1 
Note on, C4 key =  60;WhichDrum: B ; velocity: 127
@97440 , @5.137945736434109 Channel: 1 
Note on, G3 key =  55;WhichDrum: C2 ; velocity: 127
@97500 , @5.141109496124031 Channel: 1 
Note on, C4 key =  60;WhichDrum: B ; velocity: 0
@97500 , @5.141109496124031 Channel: 1 
Note on, G3 key =  55;WhichDrum: C2 ; velocity: 0
@97500 , @5.141109496124031 Channel: 1 
Note on, E2 key =  40;WhichDrum: S ; velocity: 127
@97560 , @5.144273255813953 Channel: 1 
Note on, E2 key =  40;WhichDrum: S ; velocity: 0
@97560 , @5.144273255813953 Channel: 1 
Note on, E2 key =  40;WhichDrum: S ; velocity: 127
@97620 , @5.147437015503876 Channel: 1 
Note on, E2 key =  40;WhichDrum: S ; velocity: 0
@97620 , @5.147437015503876 Channel: 1 
Note on, E2 key =  40;WhichDrum: S ; velocity: 127
@97680 , @5.150600775193799 Channel: 1 
Note on, E2 key =  40;WhichDrum: S ; velocity: 0
@97680 , @5.150600775193799 Channel: 1 
Note on, G3 key =  55;WhichDrum: C2 ; velocity: 127
@97680 , @5.150600775193799 Channel: 1 
Note on, C4 key =  60;WhichDrum: B ; velocity: 127
@97740 , @5.153764534883721 Channel: 1 
Note on, G3 key =  55;WhichDrum: C2 ; velocity: 0
@97740 , @5.153764534883721 Channel: 1 
Note on, C4 key =  60;WhichDrum: B ; velocity: 0
@97740 , @5.153764534883721 Channel: 1 
Note on, D4 key =  62;WhichDrum: T2 ; velocity: 127
@97740 , @5.153764534883721 Channel: 1 
Note on, A3 key =  57;WhichDrum: T3 ; velocity: 127
@97800 , @5.156928294573643 Channel: 1 
Note on, D4 key =  62;WhichDrum: T2 ; velocity: 0
@97800 , @5.156928294573643 Channel: 1 
Note on, A3 key =  57;WhichDrum: T3 ; velocity: 0
@97800 , @5.156928294573643 Channel: 1 
Note on, G3 key =  55;WhichDrum: C2 ; velocity: 127
@97800 , @5.156928294573643 Channel: 1 
Note on, C4 key =  60;WhichDrum: B ; velocity: 127
@97920 , @5.163255813953488 Channel: 1 
Note on, G3 key =  55;WhichDrum: C2 ; velocity: 0
@97920 , @5.163255813953488 Channel: 1 
Note on, C4 key =  60;WhichDrum: B ; velocity: 0
@97920 , @5.163255813953488 Channel: 1 
Note on, E4 key =  64;WhichDrum: S ; velocity: 127
@97980 , @5.16641957364341 Channel: 1 
Note on, E4 key =  64;WhichDrum: S ; velocity: 0
@97980 , @5.16641957364341 Channel: 1 
Note on, D4 key =  62;WhichDrum: T2 ; velocity: 127
@98040 , @5.169583333333334 Channel: 1 
Note on, D4 key =  62;WhichDrum: T2 ; velocity: 0
@98040 , @5.169583333333334 Channel: 1 
Note on, B3 key =  59;WhichDrum: T1 ; velocity: 127
@98100 , @5.172747093023256 Channel: 1 
Note on, B3 key =  59;WhichDrum: T1 ; velocity: 0
@98100 , @5.172747093023256 Channel: 1 
Note on, D4 key =  62;WhichDrum: T2 ; velocity: 127
@98160 , @5.175910852713178 Channel: 1 
Note on, D4 key =  62;WhichDrum: T2 ; velocity: 0
@98160 , @5.175910852713178 Channel: 1 
Note on, B3 key =  59;WhichDrum: T1 ; velocity: 127
@98220 , @5.179074612403101 Channel: 1 
Note on, B3 key =  59;WhichDrum: T1 ; velocity: 0
@98220 , @5.179074612403101 Channel: 1 
Note on, A#3 key =  58;WhichDrum: T2 ; velocity: 127
@98280 , @5.182238372093023 Channel: 1 
Note on, A#3 key =  58;WhichDrum: T2 ; velocity: 0
@98280 , @5.182238372093023 Channel: 1 
Note on, A3 key =  57;WhichDrum: T3 ; velocity: 127
@98340 , @5.185402131782945 Channel: 1 
Note on, A3 key =  57;WhichDrum: T3 ; velocity: 0
@98340 , @5.185402131782945 Channel: 1 
Note on, G3 key =  55;WhichDrum: C2 ; velocity: 127
@98400 , @5.1885658914728685 Channel: 1 
Note on, G3 key =  55;WhichDrum: C2 ; velocity: 0
@98400 , @5.1885658914728685 Channel: 1 
Note on, E4 key =  64;WhichDrum: S ; velocity: 127
@98460 , @5.191729651162791 Channel: 1 
Note on, E4 key =  64;WhichDrum: S ; velocity: 0
@98460 , @5.191729651162791 Channel: 1 
Note on, D4 key =  62;WhichDrum: T2 ; velocity: 127
@98520 , @5.194893410852713 Channel: 1 
Note on, D4 key =  62;WhichDrum: T2 ; velocity: 0
@98520 , @5.194893410852713 Channel: 1 
Note on, B3 key =  59;WhichDrum: T1 ; velocity: 127
@98580 , @5.1980571705426355 Channel: 1 
Note on, B3 key =  59;WhichDrum: T1 ; velocity: 0
@98580 , @5.1980571705426355 Channel: 1 
Note on, D4 key =  62;WhichDrum: T2 ; velocity: 127
@98640 , @5.201220930232558 Channel: 1 
Note on, D4 key =  62;WhichDrum: T2 ; velocity: 0
@98640 , @5.201220930232558 Channel: 1 
Note on, B3 key =  59;WhichDrum: T1 ; velocity: 127
@98700 , @5.204384689922481 Channel: 1 
Note on, B3 key =  59;WhichDrum: T1 ; velocity: 0
@98700 , @5.204384689922481 Channel: 1 
Note on, A#3 key =  58;WhichDrum: T2 ; velocity: 127
@98760 , @5.207548449612403 Channel: 1 
Note on, A#3 key =  58;WhichDrum: T2 ; velocity: 0
@98760 , @5.207548449612403 Channel: 1 
Note on, A3 key =  57;WhichDrum: T3 ; velocity: 127
@98820 , @5.210712209302326 Channel: 1 
Note on, A3 key =  57;WhichDrum: T3 ; velocity: 0
@98820 , @5.210712209302326 Channel: 1 
Note on, G3 key =  55;WhichDrum: C2 ; velocity: 127
@98880 , @5.213875968992248 Channel: 1 
Note on, G3 key =  55;WhichDrum: C2 ; velocity: 0
@98880 , @5.213875968992248 Channel: 1 
Note on, D4 key =  62;WhichDrum: T2 ; velocity: 127
@98880 , @5.213875968992248 Channel: 1 
Note on, G3 key =  55;WhichDrum: C2 ; velocity: 127
@99360 , @5.239186046511628 Channel: 1 
Note on, D4 key =  62;WhichDrum: T2 ; velocity: 0
@99360 , @5.239186046511628 Channel: 1 
Note on, G3 key =  55;WhichDrum: C2 ; velocity: 0
@99360 , @5.239186046511628 Channel: 1 
Note on, C#4 key =  61;WhichDrum: T3 ; velocity: 127
@99360 , @5.239186046511628 Channel: 1 
Note on, F#3 key =  54;WhichDrum: C1 ; velocity: 127
@99600 , @5.251841085271318 Channel: 1 
Note on, C#4 key =  61;WhichDrum: T3 ; velocity: 0
@99600 , @5.251841085271318 Channel: 1 
Note on, F#3 key =  54;WhichDrum: C1 ; velocity: 0
@99600 , @5.251841085271318 Channel: 1 
Note on, C4 key =  60;WhichDrum: B ; velocity: 127
@99600 , @5.251841085271318 Channel: 1 
Note on, F3 key =  53;WhichDrum: HH ; velocity: 127
@99840 , @5.264496124031008 Channel: 1 
Note on, C4 key =  60;WhichDrum: B ; velocity: 0
@99840 , @5.264496124031008 Channel: 1 
Note on, F3 key =  53;WhichDrum: HH ; velocity: 0
@99840 , @5.264496124031008 Channel: 1 
Note on, E2 key =  40;WhichDrum: S ; velocity: 127
@99900 , @5.26765988372093 Channel: 1 
Note on, E2 key =  40;WhichDrum: S ; velocity: 0
@99900 , @5.26765988372093 Channel: 1 
Note on, E2 key =  40;WhichDrum: S ; velocity: 127
@99960 , @5.270823643410853 Channel: 1 
Note on, E2 key =  40;WhichDrum: S ; velocity: 0
@99960 , @5.270823643410853 Channel: 1 
Note on, E2 key =  40;WhichDrum: S ; velocity: 127
@100020 , @5.273987403100775 Channel: 1 
Note on, E2 key =  40;WhichDrum: S ; velocity: 0
@100020 , @5.273987403100775 Channel: 1 
Note on, E2 key =  40;WhichDrum: S ; velocity: 127
@100080 , @5.277151162790698 Channel: 1 
Note on, E2 key =  40;WhichDrum: S ; velocity: 0
@100080 , @5.277151162790698 Channel: 1 
Note on, E2 key =  40;WhichDrum: S ; velocity: 127
@100140 , @5.2803149224806205 Channel: 1 
Note on, E2 key =  40;WhichDrum: S ; velocity: 0
@100140 , @5.2803149224806205 Channel: 1 
Note on, E2 key =  40;WhichDrum: S ; velocity: 127
@100200 , @5.283478682170543 Channel: 1 
Note on, E2 key =  40;WhichDrum: S ; velocity: 0
@100200 , @5.283478682170543 Channel: 1 
Note on, E2 key =  40;WhichDrum: S ; velocity: 127
@100260 , @5.286642441860465 Channel: 1 
Note on, E2 key =  40;WhichDrum: S ; velocity: 0
@100260 , @5.286642441860465 Channel: 1 
Note on, E2 key =  40;WhichDrum: S ; velocity: 127
@100320 , @5.2898062015503875 Channel: 1 
Note on, E2 key =  40;WhichDrum: S ; velocity: 0
@100320 , @5.2898062015503875 Channel: 1 
Note on, E2 key =  40;WhichDrum: S ; velocity: 127
@100380 , @5.29296996124031 Channel: 1 
Note on, E2 key =  40;WhichDrum: S ; velocity: 0
@100380 , @5.29296996124031 Channel: 1 
Note on, E2 key =  40;WhichDrum: S ; velocity: 127
@100440 , @5.296133720930233 Channel: 1 
Note on, E2 key =  40;WhichDrum: S ; velocity: 0
@100440 , @5.296133720930233 Channel: 1 
Note on, E2 key =  40;WhichDrum: S ; velocity: 127
@100500 , @5.299297480620155 Channel: 1 
Note on, E2 key =  40;WhichDrum: S ; velocity: 0
@100500 , @5.299297480620155 Channel: 1 
Note on, E2 key =  40;WhichDrum: S ; velocity: 127
@100560 , @5.302461240310078 Channel: 1 
Note on, E2 key =  40;WhichDrum: S ; velocity: 0
@100560 , @5.302461240310078 Channel: 1 
Note on, E2 key =  40;WhichDrum: S ; velocity: 127
@100620 , @5.305625 Channel: 1 
Note on, E2 key =  40;WhichDrum: S ; velocity: 0
@100620 , @5.305625 Channel: 1 
Note on, E2 key =  40;WhichDrum: S ; velocity: 127
@100680 , @5.308788759689922 Channel: 1 
Note on, E2 key =  40;WhichDrum: S ; velocity: 0
@100680 , @5.308788759689922 Channel: 1 
Note on, E2 key =  40;WhichDrum: S ; velocity: 127
@100740 , @5.311952519379846 Channel: 1 
Note on, E2 key =  40;WhichDrum: S ; velocity: 0
@100740 , @5.311952519379846 Channel: 1 
Note on, E2 key =  40;WhichDrum: S ; velocity: 127
@100800 , @5.315116279069768 Channel: 1 
Note on, E2 key =  40;WhichDrum: S ; velocity: 0
@100800 , @5.315116279069768 Channel: 1 
Note on, D4 key =  62;WhichDrum: T2 ; velocity: 127
@100800 , @5.315116279069768 Channel: 1 
Note on, G3 key =  55;WhichDrum: C2 ; velocity: 127
@101280 , @5.340426356589147 Channel: 1 
Note on, D4 key =  62;WhichDrum: T2 ; velocity: 0
@101280 , @5.340426356589147 Channel: 1 
Note on, G3 key =  55;WhichDrum: C2 ; velocity: 0
@101280 , @5.340426356589147 Channel: 1 
Note on, C#4 key =  61;WhichDrum: T3 ; velocity: 127
@101280 , @5.340426356589147 Channel: 1 
Note on, F#3 key =  54;WhichDrum: C1 ; velocity: 127
@101520 , @5.353081395348838 Channel: 1 
Note on, C#4 key =  61;WhichDrum: T3 ; velocity: 0
@101520 , @5.353081395348838 Channel: 1 
Note on, F#3 key =  54;WhichDrum: C1 ; velocity: 0
@101520 , @5.353081395348838 Channel: 1 
Note on, C4 key =  60;WhichDrum: B ; velocity: 127
@101520 , @5.353081395348838 Channel: 1 
Note on, F3 key =  53;WhichDrum: HH ; velocity: 127
@101760 , @5.365736434108528 Channel: 1 
Note on, C4 key =  60;WhichDrum: B ; velocity: 0
@101760 , @5.365736434108528 Channel: 1 
Note on, F3 key =  53;WhichDrum: HH ; velocity: 0
@101760 , @5.365736434108528 Channel: 1 
Note on, E2 key =  40;WhichDrum: S ; velocity: 127
@101820 , @5.36890019379845 Channel: 1 
Note on, E2 key =  40;WhichDrum: S ; velocity: 0
@101820 , @5.36890019379845 Channel: 1 
Note on, E2 key =  40;WhichDrum: S ; velocity: 127
@101880 , @5.3720639534883725 Channel: 1 
Note on, E2 key =  40;WhichDrum: S ; velocity: 0
@101880 , @5.3720639534883725 Channel: 1 
Note on, E2 key =  40;WhichDrum: S ; velocity: 127
@101940 , @5.375227713178295 Channel: 1 
Note on, E2 key =  40;WhichDrum: S ; velocity: 0
@101940 , @5.375227713178295 Channel: 1 
Note on, E2 key =  40;WhichDrum: S ; velocity: 127
@102000 , @5.378391472868217 Channel: 1 
Note on, E2 key =  40;WhichDrum: S ; velocity: 0
@102000 , @5.378391472868217 Channel: 1 
Note on, E2 key =  40;WhichDrum: S ; velocity: 127
@102060 , @5.3815552325581395 Channel: 1 
Note on, E2 key =  40;WhichDrum: S ; velocity: 0
@102060 , @5.3815552325581395 Channel: 1 
Note on, E2 key =  40;WhichDrum: S ; velocity: 127
@102120 , @5.384718992248063 Channel: 1 
Note on, E2 key =  40;WhichDrum: S ; velocity: 0
@102120 , @5.384718992248063 Channel: 1 
Note on, E2 key =  40;WhichDrum: S ; velocity: 127
@102180 , @5.387882751937985 Channel: 1 
Note on, E2 key =  40;WhichDrum: S ; velocity: 0
@102180 , @5.387882751937985 Channel: 1 
Note on, E2 key =  40;WhichDrum: S ; velocity: 127
@102240 , @5.391046511627907 Channel: 1 
Note on, E2 key =  40;WhichDrum: S ; velocity: 0
@102240 , @5.391046511627907 Channel: 1 
Note on, E2 key =  40;WhichDrum: S ; velocity: 127
@102300 , @5.39421027131783 Channel: 1 
Note on, E2 key =  40;WhichDrum: S ; velocity: 0
@102300 , @5.39421027131783 Channel: 1 
Note on, E2 key =  40;WhichDrum: S ; velocity: 127
@102360 , @5.397374031007752 Channel: 1 
Note on, E2 key =  40;WhichDrum: S ; velocity: 0
@102360 , @5.397374031007752 Channel: 1 
Note on, E2 key =  40;WhichDrum: S ; velocity: 127
@102420 , @5.400537790697674 Channel: 1 
Note on, E2 key =  40;WhichDrum: S ; velocity: 0
@102420 , @5.400537790697674 Channel: 1 
Note on, E2 key =  40;WhichDrum: S ; velocity: 127
@102480 , @5.403701550387598 Channel: 1 
Note on, E2 key =  40;WhichDrum: S ; velocity: 0
@102480 , @5.403701550387598 Channel: 1 
Note on, E2 key =  40;WhichDrum: S ; velocity: 127
@102540 , @5.40686531007752 Channel: 1 
Note on, E2 key =  40;WhichDrum: S ; velocity: 0
@102540 , @5.40686531007752 Channel: 1 
Note on, E2 key =  40;WhichDrum: S ; velocity: 127
@102600 , @5.410029069767442 Channel: 1 
Note on, E2 key =  40;WhichDrum: S ; velocity: 0
@102600 , @5.410029069767442 Channel: 1 
Note on, E2 key =  40;WhichDrum: S ; velocity: 127
@102660 , @5.413192829457365 Channel: 1 
Note on, E2 key =  40;WhichDrum: S ; velocity: 0
@102660 , @5.413192829457365 Channel: 1 
Note on, E2 key =  40;WhichDrum: S ; velocity: 127
@102720 , @5.416356589147287 Channel: 1 
Note on, E2 key =  40;WhichDrum: S ; velocity: 0
@102720 , @5.416356589147287 Channel: 1 
Note on, D4 key =  62;WhichDrum: T2 ; velocity: 127
@102720 , @5.416356589147287 Channel: 1 
Note on, G3 key =  55;WhichDrum: C2 ; velocity: 127
@103200 , @5.441666666666667 Channel: 1 
Note on, D4 key =  62;WhichDrum: T2 ; velocity: 0
@103200 , @5.441666666666667 Channel: 1 
Note on, G3 key =  55;WhichDrum: C2 ; velocity: 0
@103200 , @5.441666666666667 Channel: 1 
Note on, C#4 key =  61;WhichDrum: T3 ; velocity: 127
@103200 , @5.441666666666667 Channel: 1 
Note on, F#3 key =  54;WhichDrum: C1 ; velocity: 127
@103440 , @5.454321705426357 Channel: 1 
Note on, C#4 key =  61;WhichDrum: T3 ; velocity: 0
@103440 , @5.454321705426357 Channel: 1 
Note on, F#3 key =  54;WhichDrum: C1 ; velocity: 0
@103440 , @5.454321705426357 Channel: 1 
Note on, C4 key =  60;WhichDrum: B ; velocity: 127
@103440 , @5.454321705426357 Channel: 1 
Note on, F3 key =  53;WhichDrum: HH ; velocity: 127
@103680 , @5.466976744186047 Channel: 1 
Note on, C4 key =  60;WhichDrum: B ; velocity: 0
@103680 , @5.466976744186047 Channel: 1 
Note on, F3 key =  53;WhichDrum: HH ; velocity: 0
@103680 , @5.466976744186047 Channel: 1 
Note on, E2 key =  40;WhichDrum: S ; velocity: 127
@103740 , @5.470140503875969 Channel: 1 
Note on, E2 key =  40;WhichDrum: S ; velocity: 0
@103740 , @5.470140503875969 Channel: 1 
Note on, E2 key =  40;WhichDrum: S ; velocity: 127
@103800 , @5.473304263565892 Channel: 1 
Note on, E2 key =  40;WhichDrum: S ; velocity: 0
@103800 , @5.473304263565892 Channel: 1 
Note on, E2 key =  40;WhichDrum: S ; velocity: 127
@103860 , @5.476468023255815 Channel: 1 
Note on, E2 key =  40;WhichDrum: S ; velocity: 0
@103860 , @5.476468023255815 Channel: 1 
Note on, E2 key =  40;WhichDrum: S ; velocity: 127
@103920 , @5.479631782945737 Channel: 1 
Note on, E2 key =  40;WhichDrum: S ; velocity: 0
@103920 , @5.479631782945737 Channel: 1 
Note on, E2 key =  40;WhichDrum: S ; velocity: 127
@103980 , @5.482795542635659 Channel: 1 
Note on, E2 key =  40;WhichDrum: S ; velocity: 0
@103980 , @5.482795542635659 Channel: 1 
Note on, E2 key =  40;WhichDrum: S ; velocity: 127
@104040 , @5.485959302325582 Channel: 1 
Note on, E2 key =  40;WhichDrum: S ; velocity: 0
@104040 , @5.485959302325582 Channel: 1 
Note on, E2 key =  40;WhichDrum: S ; velocity: 127
@104100 , @5.489123062015504 Channel: 1 
Note on, E2 key =  40;WhichDrum: S ; velocity: 0
@104100 , @5.489123062015504 Channel: 1 
Note on, E2 key =  40;WhichDrum: S ; velocity: 127
@104160 , @5.492286821705427 Channel: 1 
Note on, E2 key =  40;WhichDrum: S ; velocity: 0
@104160 , @5.492286821705427 Channel: 1 
Note on, E2 key =  40;WhichDrum: S ; velocity: 127
@104220 , @5.49545058139535 Channel: 1 
Note on, E2 key =  40;WhichDrum: S ; velocity: 0
@104220 , @5.49545058139535 Channel: 1 
Note on, E2 key =  40;WhichDrum: S ; velocity: 127
@104280 , @5.498614341085272 Channel: 1 
Note on, E2 key =  40;WhichDrum: S ; velocity: 0
@104280 , @5.498614341085272 Channel: 1 
Note on, E2 key =  40;WhichDrum: S ; velocity: 127
@104340 , @5.501778100775194 Channel: 1 
Note on, E2 key =  40;WhichDrum: S ; velocity: 0
@104340 , @5.501778100775194 Channel: 1 
Note on, E2 key =  40;WhichDrum: S ; velocity: 127
@104400 , @5.504941860465117 Channel: 1 
Note on, E2 key =  40;WhichDrum: S ; velocity: 0
@104400 , @5.504941860465117 Channel: 1 
Note on, E2 key =  40;WhichDrum: S ; velocity: 127
@104460 , @5.508105620155039 Channel: 1 
Note on, E2 key =  40;WhichDrum: S ; velocity: 0
@104460 , @5.508105620155039 Channel: 1 
Note on, E2 key =  40;WhichDrum: S ; velocity: 127
@104520 , @5.511269379844961 Channel: 1 
Note on, E2 key =  40;WhichDrum: S ; velocity: 0
@104520 , @5.511269379844961 Channel: 1 
Note on, E2 key =  40;WhichDrum: S ; velocity: 127
@104580 , @5.514433139534884 Channel: 1 
Note on, E2 key =  40;WhichDrum: S ; velocity: 0
@104580 , @5.514433139534884 Channel: 1 
Note on, E2 key =  40;WhichDrum: S ; velocity: 127
@104640 , @5.517596899224806 Channel: 1 
Note on, E2 key =  40;WhichDrum: S ; velocity: 0
@104640 , @5.517596899224806 Channel: 1 
Note on, D4 key =  62;WhichDrum: T2 ; velocity: 127
@104640 , @5.517596899224806 Channel: 1 
Note on, G3 key =  55;WhichDrum: C2 ; velocity: 127
@105120 , @5.542906976744186 Channel: 1 
Note on, D4 key =  62;WhichDrum: T2 ; velocity: 0
@105120 , @5.542906976744186 Channel: 1 
Note on, G3 key =  55;WhichDrum: C2 ; velocity: 0
@105120 , @5.542906976744186 Channel: 1 
Note on, C#4 key =  61;WhichDrum: T3 ; velocity: 127
@105120 , @5.542906976744186 Channel: 1 
Note on, F#3 key =  54;WhichDrum: C1 ; velocity: 127
@105360 , @5.555562015503876 Channel: 1 
Note on, C#4 key =  61;WhichDrum: T3 ; velocity: 0
@105360 , @5.555562015503876 Channel: 1 
Note on, F#3 key =  54;WhichDrum: C1 ; velocity: 0
@105360 , @5.555562015503876 Channel: 1 
Note on, C4 key =  60;WhichDrum: B ; velocity: 127
@105360 , @5.555562015503876 Channel: 1 
Note on, F3 key =  53;WhichDrum: HH ; velocity: 127
@105600 , @5.568217054263566 Channel: 1 
Note on, C4 key =  60;WhichDrum: B ; velocity: 0
@105600 , @5.568217054263566 Channel: 1 
Note on, F3 key =  53;WhichDrum: HH ; velocity: 0
@105600 , @5.568217054263566 Channel: 1 
Note on, B3 key =  59;WhichDrum: T1 ; velocity: 127
@105600 , @5.568217054263566 Channel: 1 
Note on, E3 key =  52;WhichDrum: S ; velocity: 127
@105660 , @5.571380813953488 Channel: 1 
Note on, B3 key =  59;WhichDrum: T1 ; velocity: 0
@105660 , @5.571380813953488 Channel: 1 
Note on, E3 key =  52;WhichDrum: S ; velocity: 0
@105660 , @5.571380813953488 Channel: 1 
Note on, E2 key =  40;WhichDrum: S ; velocity: 127
@105720 , @5.5745445736434105 Channel: 1 
Note on, E2 key =  40;WhichDrum: S ; velocity: 0
@105720 , @5.5745445736434105 Channel: 1 
Note on, E2 key =  40;WhichDrum: S ; velocity: 127
@105780 , @5.577708333333334 Channel: 1 
Note on, E2 key =  40;WhichDrum: S ; velocity: 0
@105780 , @5.577708333333334 Channel: 1 
Note on, E2 key =  40;WhichDrum: S ; velocity: 127
@105840 , @5.580872093023256 Channel: 1 
Note on, E2 key =  40;WhichDrum: S ; velocity: 0
@105840 , @5.580872093023256 Channel: 1 
Note on, E2 key =  40;WhichDrum: S ; velocity: 127
@105900 , @5.584035852713178 Channel: 1 
Note on, E2 key =  40;WhichDrum: S ; velocity: 0
@105900 , @5.584035852713178 Channel: 1 
Note on, E2 key =  40;WhichDrum: S ; velocity: 127
@105960 , @5.587199612403101 Channel: 1 
Note on, E2 key =  40;WhichDrum: S ; velocity: 0
@105960 , @5.587199612403101 Channel: 1 
Note on, E2 key =  40;WhichDrum: S ; velocity: 127
@106020 , @5.590363372093023 Channel: 1 
Note on, E2 key =  40;WhichDrum: S ; velocity: 0
@106020 , @5.590363372093023 Channel: 1 
Note on, E2 key =  40;WhichDrum: S ; velocity: 127
@106080 , @5.593527131782945 Channel: 1 
Note on, E2 key =  40;WhichDrum: S ; velocity: 0
@106080 , @5.593527131782945 Channel: 1 
Note on, E2 key =  40;WhichDrum: S ; velocity: 127
@106140 , @5.596690891472869 Channel: 1 
Note on, E2 key =  40;WhichDrum: S ; velocity: 0
@106140 , @5.596690891472869 Channel: 1 
Note on, E2 key =  40;WhichDrum: S ; velocity: 127
@106200 , @5.599854651162791 Channel: 1 
Note on, E2 key =  40;WhichDrum: S ; velocity: 0
@106200 , @5.599854651162791 Channel: 1 
Note on, E2 key =  40;WhichDrum: S ; velocity: 127
@106260 , @5.603018410852713 Channel: 1 
Note on, E2 key =  40;WhichDrum: S ; velocity: 0
@106260 , @5.603018410852713 Channel: 1 
Note on, E2 key =  40;WhichDrum: S ; velocity: 127
@106320 , @5.606182170542636 Channel: 1 
Note on, E2 key =  40;WhichDrum: S ; velocity: 0
@106320 , @5.606182170542636 Channel: 1 
Note on, E2 key =  40;WhichDrum: S ; velocity: 127
@106380 , @5.609345930232558 Channel: 1 
Note on, E2 key =  40;WhichDrum: S ; velocity: 0
@106380 , @5.609345930232558 Channel: 1 
Note on, E2 key =  40;WhichDrum: S ; velocity: 127
@106440 , @5.61250968992248 Channel: 1 
Note on, E2 key =  40;WhichDrum: S ; velocity: 0
@106440 , @5.61250968992248 Channel: 1 
Note on, E2 key =  40;WhichDrum: S ; velocity: 127
@106500 , @5.6156734496124034 Channel: 1 
Note on, E2 key =  40;WhichDrum: S ; velocity: 0
@106500 , @5.6156734496124034 Channel: 1 
Note on, D4 key =  62;WhichDrum: T2 ; velocity: 127
@106500 , @5.6156734496124034 Channel: 1 
Note on, G3 key =  55;WhichDrum: C2 ; velocity: 127
@106560 , @5.618837209302326 Channel: 1 
Note on, D4 key =  62;WhichDrum: T2 ; velocity: 0
@106560 , @5.618837209302326 Channel: 1 
Note on, G3 key =  55;WhichDrum: C2 ; velocity: 0
@106560 , @5.618837209302326 Channel: 1 
Note on, C#4 key =  61;WhichDrum: T3 ; velocity: 127
@106560 , @5.618837209302326 Channel: 1 
Note on, F#3 key =  54;WhichDrum: C1 ; velocity: 127
@106620 , @5.622000968992248 Channel: 1 
Note on, C#4 key =  61;WhichDrum: T3 ; velocity: 0
@106620 , @5.622000968992248 Channel: 1 
Note on, F#3 key =  54;WhichDrum: C1 ; velocity: 0
@106620 , @5.622000968992248 Channel: 1 
Note on, E2 key =  40;WhichDrum: S ; velocity: 127
@106680 , @5.62516472868217 Channel: 1 
Note on, E2 key =  40;WhichDrum: S ; velocity: 0
@106680 , @5.62516472868217 Channel: 1 
Note on, E2 key =  40;WhichDrum: S ; velocity: 127
@106740 , @5.628328488372093 Channel: 1 
Note on, E2 key =  40;WhichDrum: S ; velocity: 0
@106740 , @5.628328488372093 Channel: 1 
Note on, F#3 key =  54;WhichDrum: C1 ; velocity: 127
@106740 , @5.628328488372093 Channel: 1 
Note on, C#4 key =  61;WhichDrum: T3 ; velocity: 127
@106800 , @5.631492248062016 Channel: 1 
Note on, F#3 key =  54;WhichDrum: C1 ; velocity: 0
@106800 , @5.631492248062016 Channel: 1 
Note on, C#4 key =  61;WhichDrum: T3 ; velocity: 0
@106800 , @5.631492248062016 Channel: 1 
Note on, F3 key =  53;WhichDrum: HH ; velocity: 127
@106800 , @5.631492248062016 Channel: 1 
Note on, C4 key =  60;WhichDrum: B ; velocity: 127
@106860 , @5.634656007751938 Channel: 1 
Note on, F3 key =  53;WhichDrum: HH ; velocity: 0
@106860 , @5.634656007751938 Channel: 1 
Note on, C4 key =  60;WhichDrum: B ; velocity: 0
@106860 , @5.634656007751938 Channel: 1 
Note on, E2 key =  40;WhichDrum: S ; velocity: 127
@106920 , @5.637819767441861 Channel: 1 
Note on, E2 key =  40;WhichDrum: S ; velocity: 0
@106920 , @5.637819767441861 Channel: 1 
Note on, E2 key =  40;WhichDrum: S ; velocity: 127
@106980 , @5.640983527131783 Channel: 1 
Note on, E2 key =  40;WhichDrum: S ; velocity: 0
@106980 , @5.640983527131783 Channel: 1 
Note on, C4 key =  60;WhichDrum: B ; velocity: 127
@106980 , @5.640983527131783 Channel: 1 
Note on, F3 key =  53;WhichDrum: HH ; velocity: 127
@107040 , @5.644147286821705 Channel: 1 
Note on, C4 key =  60;WhichDrum: B ; velocity: 0
@107040 , @5.644147286821705 Channel: 1 
Note on, F3 key =  53;WhichDrum: HH ; velocity: 0
@107040 , @5.644147286821705 Channel: 1 
Note on, B2 key =  47;WhichDrum: T1 ; velocity: 127
@107040 , @5.644147286821705 Channel: 1 
Note on, E2 key =  40;WhichDrum: S ; velocity: 127
@107100 , @5.647311046511628 Channel: 1 
Note on, B2 key =  47;WhichDrum: T1 ; velocity: 0
@107100 , @5.647311046511628 Channel: 1 
Note on, E2 key =  40;WhichDrum: S ; velocity: 0
@107100 , @5.647311046511628 Channel: 1 
Note on, E2 key =  40;WhichDrum: S ; velocity: 127
@107160 , @5.650474806201551 Channel: 1 
Note on, E2 key =  40;WhichDrum: S ; velocity: 0
@107160 , @5.650474806201551 Channel: 1 
Note on, E2 key =  40;WhichDrum: S ; velocity: 127
@107220 , @5.653638565891473 Channel: 1 
Note on, E2 key =  40;WhichDrum: S ; velocity: 0
@107220 , @5.653638565891473 Channel: 1 
Note on, E2 key =  40;WhichDrum: S ; velocity: 127
@107280 , @5.6568023255813955 Channel: 1 
Note on, E2 key =  40;WhichDrum: S ; velocity: 0
@107280 , @5.6568023255813955 Channel: 1 
Note on, E2 key =  40;WhichDrum: S ; velocity: 127
@107340 , @5.659966085271318 Channel: 1 
Note on, E2 key =  40;WhichDrum: S ; velocity: 0
@107340 , @5.659966085271318 Channel: 1 
Note on, E2 key =  40;WhichDrum: S ; velocity: 127
@107400 , @5.66312984496124 Channel: 1 
Note on, E2 key =  40;WhichDrum: S ; velocity: 0
@107400 , @5.66312984496124 Channel: 1 
Note on, E2 key =  40;WhichDrum: S ; velocity: 127
@107460 , @5.6662936046511625 Channel: 1 
Note on, E2 key =  40;WhichDrum: S ; velocity: 0
@107460 , @5.6662936046511625 Channel: 1 
Note on, G3 key =  55;WhichDrum: C2 ; velocity: 127
@107460 , @5.6662936046511625 Channel: 1 
Note on, D4 key =  62;WhichDrum: T2 ; velocity: 127
@107520 , @5.669457364341086 Channel: 1 
Note on, G3 key =  55;WhichDrum: C2 ; velocity: 0
@107520 , @5.669457364341086 Channel: 1 
Note on, D4 key =  62;WhichDrum: T2 ; velocity: 0
@107520 , @5.669457364341086 Channel: 1 
Note on, C#4 key =  61;WhichDrum: T3 ; velocity: 127
@107520 , @5.669457364341086 Channel: 1 
Note on, F#3 key =  54;WhichDrum: C1 ; velocity: 127
@107580 , @5.672621124031008 Channel: 1 
Note on, C#4 key =  61;WhichDrum: T3 ; velocity: 0
@107580 , @5.672621124031008 Channel: 1 
Note on, F#3 key =  54;WhichDrum: C1 ; velocity: 0
@107580 , @5.672621124031008 Channel: 1 
Note on, E2 key =  40;WhichDrum: S ; velocity: 127
@107640 , @5.67578488372093 Channel: 1 
Note on, E2 key =  40;WhichDrum: S ; velocity: 0
@107640 , @5.67578488372093 Channel: 1 
Note on, E2 key =  40;WhichDrum: S ; velocity: 127
@107700 , @5.678948643410853 Channel: 1 
Note on, E2 key =  40;WhichDrum: S ; velocity: 0
@107700 , @5.678948643410853 Channel: 1 
Note on, F#3 key =  54;WhichDrum: C1 ; velocity: 127
@107700 , @5.678948643410853 Channel: 1 
Note on, C#4 key =  61;WhichDrum: T3 ; velocity: 127
@107760 , @5.682112403100775 Channel: 1 
Note on, F#3 key =  54;WhichDrum: C1 ; velocity: 0
@107760 , @5.682112403100775 Channel: 1 
Note on, C#4 key =  61;WhichDrum: T3 ; velocity: 0
@107760 , @5.682112403100775 Channel: 1 
Note on, A3 key =  57;WhichDrum: T3 ; velocity: 127
@107760 , @5.682112403100775 Channel: 1 
Note on, D3 key =  50;WhichDrum: T2 ; velocity: 127
@107820 , @5.685276162790698 Channel: 1 
Note on, A3 key =  57;WhichDrum: T3 ; velocity: 0
@107820 , @5.685276162790698 Channel: 1 
Note on, D3 key =  50;WhichDrum: T2 ; velocity: 0
@107820 , @5.685276162790698 Channel: 1 
Note on, E2 key =  40;WhichDrum: S ; velocity: 127
@107880 , @5.688439922480621 Channel: 1 
Note on, E2 key =  40;WhichDrum: S ; velocity: 0
@107880 , @5.688439922480621 Channel: 1 
Note on, E2 key =  40;WhichDrum: S ; velocity: 127
@107940 , @5.691603682170543 Channel: 1 
Note on, E2 key =  40;WhichDrum: S ; velocity: 0
@107940 , @5.691603682170543 Channel: 1 
Note on, D3 key =  50;WhichDrum: T2 ; velocity: 127
@107940 , @5.691603682170543 Channel: 1 
Note on, A3 key =  57;WhichDrum: T3 ; velocity: 127
@108000 , @5.694767441860465 Channel: 1 
Note on, D3 key =  50;WhichDrum: T2 ; velocity: 0
@108000 , @5.694767441860465 Channel: 1 
Note on, A3 key =  57;WhichDrum: T3 ; velocity: 0
@108000 , @5.694767441860465 Channel: 1 
Note on, B2 key =  47;WhichDrum: T1 ; velocity: 127
@108000 , @5.694767441860465 Channel: 1 
Note on, E2 key =  40;WhichDrum: S ; velocity: 127
@108060 , @5.697931201550388 Channel: 1 
Note on, B2 key =  47;WhichDrum: T1 ; velocity: 0
@108060 , @5.697931201550388 Channel: 1 
Note on, E2 key =  40;WhichDrum: S ; velocity: 0
@108060 , @5.697931201550388 Channel: 1 
Note on, E2 key =  40;WhichDrum: S ; velocity: 127
@108120 , @5.70109496124031 Channel: 1 
Note on, E2 key =  40;WhichDrum: S ; velocity: 0
@108120 , @5.70109496124031 Channel: 1 
Note on, E2 key =  40;WhichDrum: S ; velocity: 127
@108180 , @5.704258720930233 Channel: 1 
Note on, E2 key =  40;WhichDrum: S ; velocity: 0
@108180 , @5.704258720930233 Channel: 1 
Note on, E2 key =  40;WhichDrum: S ; velocity: 127
@108240 , @5.7074224806201554 Channel: 1 
Note on, E2 key =  40;WhichDrum: S ; velocity: 0
@108240 , @5.7074224806201554 Channel: 1 
Note on, E2 key =  40;WhichDrum: S ; velocity: 127
@108300 , @5.710586240310078 Channel: 1 
Note on, E2 key =  40;WhichDrum: S ; velocity: 0
@108300 , @5.710586240310078 Channel: 1 
Note on, E2 key =  40;WhichDrum: S ; velocity: 127
@108360 , @5.71375 Channel: 1 
Note on, E2 key =  40;WhichDrum: S ; velocity: 0
@108360 , @5.71375 Channel: 1 
Note on, E2 key =  40;WhichDrum: S ; velocity: 127
@108420 , @5.716913759689922 Channel: 1 
Note on, E2 key =  40;WhichDrum: S ; velocity: 0
@108420 , @5.716913759689922 Channel: 1 
Note on, G3 key =  55;WhichDrum: C2 ; velocity: 127
@108420 , @5.716913759689922 Channel: 1 
Note on, D4 key =  62;WhichDrum: T2 ; velocity: 127
@108480 , @5.720077519379845 Channel: 1 
Note on, G3 key =  55;WhichDrum: C2 ; velocity: 0
@108480 , @5.720077519379845 Channel: 1 
Note on, D4 key =  62;WhichDrum: T2 ; velocity: 0
@108480 , @5.720077519379845 Channel: 1 
Note on, C#4 key =  61;WhichDrum: T3 ; velocity: 127
@108480 , @5.720077519379845 Channel: 1 
Note on, F#3 key =  54;WhichDrum: C1 ; velocity: 127
@108540 , @5.723241279069768 Channel: 1 
Note on, C#4 key =  61;WhichDrum: T3 ; velocity: 0
@108540 , @5.723241279069768 Channel: 1 
Note on, F#3 key =  54;WhichDrum: C1 ; velocity: 0
@108540 , @5.723241279069768 Channel: 1 
Note on, E2 key =  40;WhichDrum: S ; velocity: 127
@108600 , @5.72640503875969 Channel: 1 
Note on, E2 key =  40;WhichDrum: S ; velocity: 0
@108600 , @5.72640503875969 Channel: 1 
Note on, E2 key =  40;WhichDrum: S ; velocity: 127
@108660 , @5.729568798449613 Channel: 1 
Note on, E2 key =  40;WhichDrum: S ; velocity: 0
@108660 , @5.729568798449613 Channel: 1 
Note on, F#3 key =  54;WhichDrum: C1 ; velocity: 127
@108660 , @5.729568798449613 Channel: 1 
Note on, C#4 key =  61;WhichDrum: T3 ; velocity: 127
@108720 , @5.732732558139535 Channel: 1 
Note on, F#3 key =  54;WhichDrum: C1 ; velocity: 0
@108720 , @5.732732558139535 Channel: 1 
Note on, C#4 key =  61;WhichDrum: T3 ; velocity: 0
@108720 , @5.732732558139535 Channel: 1 
Note on, F3 key =  53;WhichDrum: HH ; velocity: 127
@108720 , @5.732732558139535 Channel: 1 
Note on, C4 key =  60;WhichDrum: B ; velocity: 127
@108780 , @5.735896317829457 Channel: 1 
Note on, F3 key =  53;WhichDrum: HH ; velocity: 0
@108780 , @5.735896317829457 Channel: 1 
Note on, C4 key =  60;WhichDrum: B ; velocity: 0
@108780 , @5.735896317829457 Channel: 1 
Note on, E2 key =  40;WhichDrum: S ; velocity: 127
@108840 , @5.7390600775193805 Channel: 1 
Note on, E2 key =  40;WhichDrum: S ; velocity: 0
@108840 , @5.7390600775193805 Channel: 1 
Note on, E2 key =  40;WhichDrum: S ; velocity: 127
@108900 , @5.742223837209303 Channel: 1 
Note on, E2 key =  40;WhichDrum: S ; velocity: 0
@108900 , @5.742223837209303 Channel: 1 
Note on, C4 key =  60;WhichDrum: B ; velocity: 127
@108900 , @5.742223837209303 Channel: 1 
Note on, F3 key =  53;WhichDrum: HH ; velocity: 127
@108960 , @5.745387596899225 Channel: 1 
Note on, C4 key =  60;WhichDrum: B ; velocity: 0
@108960 , @5.745387596899225 Channel: 1 
Note on, F3 key =  53;WhichDrum: HH ; velocity: 0
@108960 , @5.745387596899225 Channel: 1 
Note on, B2 key =  47;WhichDrum: T1 ; velocity: 127
@108960 , @5.745387596899225 Channel: 1 
Note on, E2 key =  40;WhichDrum: S ; velocity: 127
@109020 , @5.7485513565891475 Channel: 1 
Note on, B2 key =  47;WhichDrum: T1 ; velocity: 0
@109020 , @5.7485513565891475 Channel: 1 
Note on, E2 key =  40;WhichDrum: S ; velocity: 0
@109020 , @5.7485513565891475 Channel: 1 
Note on, E2 key =  40;WhichDrum: S ; velocity: 127
@109080 , @5.75171511627907 Channel: 1 
Note on, E2 key =  40;WhichDrum: S ; velocity: 0
@109080 , @5.75171511627907 Channel: 1 
Note on, E2 key =  40;WhichDrum: S ; velocity: 127
@109140 , @5.754878875968992 Channel: 1 
Note on, E2 key =  40;WhichDrum: S ; velocity: 0
@109140 , @5.754878875968992 Channel: 1 
Note on, E2 key =  40;WhichDrum: S ; velocity: 127
@109200 , @5.758042635658915 Channel: 1 
Note on, E2 key =  40;WhichDrum: S ; velocity: 0
@109200 , @5.758042635658915 Channel: 1 
Note on, E2 key =  40;WhichDrum: S ; velocity: 127
@109260 , @5.761206395348838 Channel: 1 
Note on, E2 key =  40;WhichDrum: S ; velocity: 0
@109260 , @5.761206395348838 Channel: 1 
Note on, E2 key =  40;WhichDrum: S ; velocity: 127
@109320 , @5.76437015503876 Channel: 1 
Note on, E2 key =  40;WhichDrum: S ; velocity: 0
@109320 , @5.76437015503876 Channel: 1 
Note on, E2 key =  40;WhichDrum: S ; velocity: 127
@109380 , @5.767533914728682 Channel: 1 
Note on, E2 key =  40;WhichDrum: S ; velocity: 0
@109380 , @5.767533914728682 Channel: 1 
Note on, G3 key =  55;WhichDrum: C2 ; velocity: 127
@109380 , @5.767533914728682 Channel: 1 
Note on, D4 key =  62;WhichDrum: T2 ; velocity: 127
@109440 , @5.770697674418605 Channel: 1 
Note on, G3 key =  55;WhichDrum: C2 ; velocity: 0
@109440 , @5.770697674418605 Channel: 1 
Note on, D4 key =  62;WhichDrum: T2 ; velocity: 0
@109440 , @5.770697674418605 Channel: 1 
Note on, C#4 key =  61;WhichDrum: T3 ; velocity: 127
@109440 , @5.770697674418605 Channel: 1 
Note on, F#3 key =  54;WhichDrum: C1 ; velocity: 127
@109500 , @5.773861434108527 Channel: 1 
Note on, C#4 key =  61;WhichDrum: T3 ; velocity: 0
@109500 , @5.773861434108527 Channel: 1 
Note on, F#3 key =  54;WhichDrum: C1 ; velocity: 0
@109500 , @5.773861434108527 Channel: 1 
Note on, E2 key =  40;WhichDrum: S ; velocity: 127
@109560 , @5.77702519379845 Channel: 1 
Note on, E2 key =  40;WhichDrum: S ; velocity: 0
@109560 , @5.77702519379845 Channel: 1 
Note on, E2 key =  40;WhichDrum: S ; velocity: 127
@109620 , @5.780188953488373 Channel: 1 
Note on, E2 key =  40;WhichDrum: S ; velocity: 0
@109620 , @5.780188953488373 Channel: 1 
Note on, F#3 key =  54;WhichDrum: C1 ; velocity: 127
@109620 , @5.780188953488373 Channel: 1 
Note on, C#4 key =  61;WhichDrum: T3 ; velocity: 127
@109680 , @5.783352713178295 Channel: 1 
Note on, F#3 key =  54;WhichDrum: C1 ; velocity: 0
@109680 , @5.783352713178295 Channel: 1 
Note on, C#4 key =  61;WhichDrum: T3 ; velocity: 0
@109680 , @5.783352713178295 Channel: 1 
Note on, A3 key =  57;WhichDrum: T3 ; velocity: 127
@109680 , @5.783352713178295 Channel: 1 
Note on, D3 key =  50;WhichDrum: T2 ; velocity: 127
@109740 , @5.786516472868217 Channel: 1 
Note on, A3 key =  57;WhichDrum: T3 ; velocity: 0
@109740 , @5.786516472868217 Channel: 1 
Note on, D3 key =  50;WhichDrum: T2 ; velocity: 0
@109740 , @5.786516472868217 Channel: 1 
Note on, E2 key =  40;WhichDrum: S ; velocity: 127
@109800 , @5.78968023255814 Channel: 1 
Note on, E2 key =  40;WhichDrum: S ; velocity: 0
@109800 , @5.78968023255814 Channel: 1 
Note on, E2 key =  40;WhichDrum: S ; velocity: 127
@109860 , @5.792843992248063 Channel: 1 
Note on, E2 key =  40;WhichDrum: S ; velocity: 0
@109860 , @5.792843992248063 Channel: 1 
Note on, D3 key =  50;WhichDrum: T2 ; velocity: 127
@109860 , @5.792843992248063 Channel: 1 
Note on, A3 key =  57;WhichDrum: T3 ; velocity: 127
@109920 , @5.796007751937985 Channel: 1 
Note on, D3 key =  50;WhichDrum: T2 ; velocity: 0
@109920 , @5.796007751937985 Channel: 1 
Note on, A3 key =  57;WhichDrum: T3 ; velocity: 0
@109920 , @5.796007751937985 Channel: 1 
Note on, B2 key =  47;WhichDrum: T1 ; velocity: 127
@109920 , @5.796007751937985 Channel: 1 
Note on, E2 key =  40;WhichDrum: S ; velocity: 127
@109980 , @5.7991715116279074 Channel: 1 
Note on, B2 key =  47;WhichDrum: T1 ; velocity: 0
@109980 , @5.7991715116279074 Channel: 1 
Note on, E2 key =  40;WhichDrum: S ; velocity: 0
@109980 , @5.7991715116279074 Channel: 1 
Note on, E2 key =  40;WhichDrum: S ; velocity: 127
@110040 , @5.80233527131783 Channel: 1 
Note on, E2 key =  40;WhichDrum: S ; velocity: 0
@110040 , @5.80233527131783 Channel: 1 
Note on, E2 key =  40;WhichDrum: S ; velocity: 127
@110100 , @5.805499031007752 Channel: 1 
Note on, E2 key =  40;WhichDrum: S ; velocity: 0
@110100 , @5.805499031007752 Channel: 1 
Note on, E2 key =  40;WhichDrum: S ; velocity: 127
@110160 , @5.808662790697674 Channel: 1 
Note on, E2 key =  40;WhichDrum: S ; velocity: 0
@110160 , @5.808662790697674 Channel: 1 
Note on, E2 key =  40;WhichDrum: S ; velocity: 127
@110220 , @5.811826550387598 Channel: 1 
Note on, E2 key =  40;WhichDrum: S ; velocity: 0
@110220 , @5.811826550387598 Channel: 1 
Note on, E2 key =  40;WhichDrum: S ; velocity: 127
@110280 , @5.81499031007752 Channel: 1 
Note on, E2 key =  40;WhichDrum: S ; velocity: 0
@110280 , @5.81499031007752 Channel: 1 
Note on, E2 key =  40;WhichDrum: S ; velocity: 127
@110340 , @5.818154069767442 Channel: 1 
Note on, E2 key =  40;WhichDrum: S ; velocity: 0
@110340 , @5.818154069767442 Channel: 1 
Note on, G3 key =  55;WhichDrum: C2 ; velocity: 127
@110340 , @5.818154069767442 Channel: 1 
Note on, D4 key =  62;WhichDrum: T2 ; velocity: 127
@110400 , @5.821317829457365 Channel: 1 
Note on, G3 key =  55;WhichDrum: C2 ; velocity: 0
@110400 , @5.821317829457365 Channel: 1 
Note on, D4 key =  62;WhichDrum: T2 ; velocity: 0
@110400 , @5.821317829457365 Channel: 1 
Note on, C#4 key =  61;WhichDrum: T3 ; velocity: 127
@110400 , @5.821317829457365 Channel: 1 
Note on, F#3 key =  54;WhichDrum: C1 ; velocity: 127
@110460 , @5.824481589147287 Channel: 1 
Note on, C#4 key =  61;WhichDrum: T3 ; velocity: 0
@110460 , @5.824481589147287 Channel: 1 
Note on, F#3 key =  54;WhichDrum: C1 ; velocity: 0
@110460 , @5.824481589147287 Channel: 1 
Note on, E2 key =  40;WhichDrum: S ; velocity: 127
@110520 , @5.827645348837209 Channel: 1 
Note on, E2 key =  40;WhichDrum: S ; velocity: 0
@110520 , @5.827645348837209 Channel: 1 
Note on, E2 key =  40;WhichDrum: S ; velocity: 127
@110580 , @5.8308091085271325 Channel: 1 
Note on, E2 key =  40;WhichDrum: S ; velocity: 0
@110580 , @5.8308091085271325 Channel: 1 
Note on, F#3 key =  54;WhichDrum: C1 ; velocity: 127
@110580 , @5.8308091085271325 Channel: 1 
Note on, C#4 key =  61;WhichDrum: T3 ; velocity: 127
@110640 , @5.833972868217055 Channel: 1 
Note on, F#3 key =  54;WhichDrum: C1 ; velocity: 0
@110640 , @5.833972868217055 Channel: 1 
Note on, C#4 key =  61;WhichDrum: T3 ; velocity: 0
@110640 , @5.833972868217055 Channel: 1 
Note on, F3 key =  53;WhichDrum: HH ; velocity: 127
@110640 , @5.833972868217055 Channel: 1 
Note on, C4 key =  60;WhichDrum: B ; velocity: 127
@110700 , @5.837136627906977 Channel: 1 
Note on, F3 key =  53;WhichDrum: HH ; velocity: 0
@110700 , @5.837136627906977 Channel: 1 
Note on, C4 key =  60;WhichDrum: B ; velocity: 0
@110700 , @5.837136627906977 Channel: 1 
Note on, E2 key =  40;WhichDrum: S ; velocity: 127
@110760 , @5.8403003875968995 Channel: 1 
Note on, E2 key =  40;WhichDrum: S ; velocity: 0
@110760 , @5.8403003875968995 Channel: 1 
Note on, E2 key =  40;WhichDrum: S ; velocity: 127
@110820 , @5.843464147286822 Channel: 1 
Note on, E2 key =  40;WhichDrum: S ; velocity: 0
@110820 , @5.843464147286822 Channel: 1 
Note on, C4 key =  60;WhichDrum: B ; velocity: 127
@110820 , @5.843464147286822 Channel: 1 
Note on, F3 key =  53;WhichDrum: HH ; velocity: 127
@110880 , @5.846627906976745 Channel: 1 
Note on, C4 key =  60;WhichDrum: B ; velocity: 0
@110880 , @5.846627906976745 Channel: 1 
Note on, F3 key =  53;WhichDrum: HH ; velocity: 0
@110880 , @5.846627906976745 Channel: 1 
Note on, B2 key =  47;WhichDrum: T1 ; velocity: 127
@110880 , @5.846627906976745 Channel: 1 
Note on, E2 key =  40;WhichDrum: S ; velocity: 127
@110940 , @5.849791666666667 Channel: 1 
Note on, B2 key =  47;WhichDrum: T1 ; velocity: 0
@110940 , @5.849791666666667 Channel: 1 
Note on, E2 key =  40;WhichDrum: S ; velocity: 0
@110940 , @5.849791666666667 Channel: 1 
Note on, E2 key =  40;WhichDrum: S ; velocity: 127
@111000 , @5.85295542635659 Channel: 1 
Note on, E2 key =  40;WhichDrum: S ; velocity: 0
@111000 , @5.85295542635659 Channel: 1 
Note on, E2 key =  40;WhichDrum: S ; velocity: 127
@111060 , @5.856119186046512 Channel: 1 
Note on, E2 key =  40;WhichDrum: S ; velocity: 0
@111060 , @5.856119186046512 Channel: 1 
Note on, E2 key =  40;WhichDrum: S ; velocity: 127
@111120 , @5.859282945736434 Channel: 1 
Note on, E2 key =  40;WhichDrum: S ; velocity: 0
@111120 , @5.859282945736434 Channel: 1 
Note on, E2 key =  40;WhichDrum: S ; velocity: 127
@111180 , @5.862446705426357 Channel: 1 
Note on, E2 key =  40;WhichDrum: S ; velocity: 0
@111180 , @5.862446705426357 Channel: 1 
Note on, E2 key =  40;WhichDrum: S ; velocity: 127
@111240 , @5.86561046511628 Channel: 1 
Note on, E2 key =  40;WhichDrum: S ; velocity: 0
@111240 , @5.86561046511628 Channel: 1 
Note on, E2 key =  40;WhichDrum: S ; velocity: 127
@111300 , @5.868774224806202 Channel: 1 
Note on, E2 key =  40;WhichDrum: S ; velocity: 0
@111300 , @5.868774224806202 Channel: 1 
Note on, G3 key =  55;WhichDrum: C2 ; velocity: 127
@111300 , @5.868774224806202 Channel: 1 
Note on, D4 key =  62;WhichDrum: T2 ; velocity: 127
@111360 , @5.871937984496125 Channel: 1 
Note on, G3 key =  55;WhichDrum: C2 ; velocity: 0
@111360 , @5.871937984496125 Channel: 1 
Note on, D4 key =  62;WhichDrum: T2 ; velocity: 0
@111360 , @5.871937984496125 Channel: 1 
Note on, C#4 key =  61;WhichDrum: T3 ; velocity: 127
@111360 , @5.871937984496125 Channel: 1 
Note on, F#3 key =  54;WhichDrum: C1 ; velocity: 127
@111420 , @5.875101744186047 Channel: 1 
Note on, C#4 key =  61;WhichDrum: T3 ; velocity: 0
@111420 , @5.875101744186047 Channel: 1 
Note on, F#3 key =  54;WhichDrum: C1 ; velocity: 0
@111420 , @5.875101744186047 Channel: 1 
Note on, E2 key =  40;WhichDrum: S ; velocity: 127
@111480 , @5.878265503875969 Channel: 1 
Note on, E2 key =  40;WhichDrum: S ; velocity: 0
@111480 , @5.878265503875969 Channel: 1 
Note on, E2 key =  40;WhichDrum: S ; velocity: 127
@111540 , @5.881429263565892 Channel: 1 
Note on, E2 key =  40;WhichDrum: S ; velocity: 0
@111540 , @5.881429263565892 Channel: 1 
Note on, F#3 key =  54;WhichDrum: C1 ; velocity: 127
@111540 , @5.881429263565892 Channel: 1 
Note on, C#4 key =  61;WhichDrum: T3 ; velocity: 127
@111600 , @5.884593023255815 Channel: 1 
Note on, F#3 key =  54;WhichDrum: C1 ; velocity: 0
@111600 , @5.884593023255815 Channel: 1 
Note on, C#4 key =  61;WhichDrum: T3 ; velocity: 0
@111600 , @5.884593023255815 Channel: 1 
Note on, A3 key =  57;WhichDrum: T3 ; velocity: 127
@111600 , @5.884593023255815 Channel: 1 
Note on, D3 key =  50;WhichDrum: T2 ; velocity: 127
@111660 , @5.887756782945737 Channel: 1 
Note on, A3 key =  57;WhichDrum: T3 ; velocity: 0
@111660 , @5.887756782945737 Channel: 1 
Note on, D3 key =  50;WhichDrum: T2 ; velocity: 0
@111660 , @5.887756782945737 Channel: 1 
Note on, E2 key =  40;WhichDrum: S ; velocity: 127
@111720 , @5.8909205426356595 Channel: 1 
Note on, E2 key =  40;WhichDrum: S ; velocity: 0
@111720 , @5.8909205426356595 Channel: 1 
Note on, E2 key =  40;WhichDrum: S ; velocity: 127
@111780 , @5.894084302325582 Channel: 1 
Note on, E2 key =  40;WhichDrum: S ; velocity: 0
@111780 , @5.894084302325582 Channel: 1 
Note on, D3 key =  50;WhichDrum: T2 ; velocity: 127
@111780 , @5.894084302325582 Channel: 1 
Note on, A3 key =  57;WhichDrum: T3 ; velocity: 127
@111840 , @5.897248062015504 Channel: 1 
Note on, D3 key =  50;WhichDrum: T2 ; velocity: 0
@111840 , @5.897248062015504 Channel: 1 
Note on, A3 key =  57;WhichDrum: T3 ; velocity: 0
@111840 , @5.897248062015504 Channel: 1 
Note on, B2 key =  47;WhichDrum: T1 ; velocity: 127
@111840 , @5.897248062015504 Channel: 1 
Note on, E2 key =  40;WhichDrum: S ; velocity: 127
@111900 , @5.900411821705427 Channel: 1 
Note on, B2 key =  47;WhichDrum: T1 ; velocity: 0
@111900 , @5.900411821705427 Channel: 1 
Note on, E2 key =  40;WhichDrum: S ; velocity: 0
@111900 , @5.900411821705427 Channel: 1 
Note on, E2 key =  40;WhichDrum: S ; velocity: 127
@111960 , @5.90357558139535 Channel: 1 
Note on, E2 key =  40;WhichDrum: S ; velocity: 0
@111960 , @5.90357558139535 Channel: 1 
Note on, E2 key =  40;WhichDrum: S ; velocity: 127
@112020 , @5.906739341085272 Channel: 1 
Note on, E2 key =  40;WhichDrum: S ; velocity: 0
@112020 , @5.906739341085272 Channel: 1 
Note on, E2 key =  40;WhichDrum: S ; velocity: 127
@112080 , @5.909903100775194 Channel: 1 
Note on, E2 key =  40;WhichDrum: S ; velocity: 0
@112080 , @5.909903100775194 Channel: 1 
Note on, E2 key =  40;WhichDrum: S ; velocity: 127
@112140 , @5.913066860465117 Channel: 1 
Note on, E2 key =  40;WhichDrum: S ; velocity: 0
@112140 , @5.913066860465117 Channel: 1 
Note on, E2 key =  40;WhichDrum: S ; velocity: 127
@112200 , @5.916230620155039 Channel: 1 
Note on, E2 key =  40;WhichDrum: S ; velocity: 0
@112200 , @5.916230620155039 Channel: 1 
Note on, E2 key =  40;WhichDrum: S ; velocity: 127
@112260 , @5.919394379844961 Channel: 1 
Note on, E2 key =  40;WhichDrum: S ; velocity: 0
@112260 , @5.919394379844961 Channel: 1 
Note on, G3 key =  55;WhichDrum: C2 ; velocity: 127
@112260 , @5.919394379844961 Channel: 1 
Note on, D4 key =  62;WhichDrum: T2 ; velocity: 127
@112320 , @5.922558139534884 Channel: 1 
Note on, G3 key =  55;WhichDrum: C2 ; velocity: 0
@112320 , @5.922558139534884 Channel: 1 
Note on, D4 key =  62;WhichDrum: T2 ; velocity: 0
@112320 , @5.922558139534884 Channel: 1 
Note on, C#4 key =  61;WhichDrum: T3 ; velocity: 127
@112320 , @5.922558139534884 Channel: 1 
Note on, F#3 key =  54;WhichDrum: C1 ; velocity: 127
@112380 , @5.925721899224806 Channel: 1 
Note on, C#4 key =  61;WhichDrum: T3 ; velocity: 0
@112380 , @5.925721899224806 Channel: 1 
Note on, F#3 key =  54;WhichDrum: C1 ; velocity: 0
@112380 , @5.925721899224806 Channel: 1 
Note on, E2 key =  40;WhichDrum: S ; velocity: 127
@112440 , @5.928885658914728 Channel: 1 
Note on, E2 key =  40;WhichDrum: S ; velocity: 0
@112440 , @5.928885658914728 Channel: 1 
Note on, E2 key =  40;WhichDrum: S ; velocity: 127
@112500 , @5.932049418604651 Channel: 1 
Note on, E2 key =  40;WhichDrum: S ; velocity: 0
@112500 , @5.932049418604651 Channel: 1 
Note on, F#3 key =  54;WhichDrum: C1 ; velocity: 127
@112500 , @5.932049418604651 Channel: 1 
Note on, C#4 key =  61;WhichDrum: T3 ; velocity: 127
@112560 , @5.935213178294574 Channel: 1 
Note on, F#3 key =  54;WhichDrum: C1 ; velocity: 0
@112560 , @5.935213178294574 Channel: 1 
Note on, C#4 key =  61;WhichDrum: T3 ; velocity: 0
@112560 , @5.935213178294574 Channel: 1 
Note on, F3 key =  53;WhichDrum: HH ; velocity: 127
@112560 , @5.935213178294574 Channel: 1 
Note on, C4 key =  60;WhichDrum: B ; velocity: 127
@112620 , @5.938376937984496 Channel: 1 
Note on, F3 key =  53;WhichDrum: HH ; velocity: 0
@112620 , @5.938376937984496 Channel: 1 
Note on, C4 key =  60;WhichDrum: B ; velocity: 0
@112620 , @5.938376937984496 Channel: 1 
Note on, E2 key =  40;WhichDrum: S ; velocity: 127
@112680 , @5.9415406976744185 Channel: 1 
Note on, E2 key =  40;WhichDrum: S ; velocity: 0
@112680 , @5.9415406976744185 Channel: 1 
Note on, E2 key =  40;WhichDrum: S ; velocity: 127
@112740 , @5.944704457364341 Channel: 1 
Note on, E2 key =  40;WhichDrum: S ; velocity: 0
@112740 , @5.944704457364341 Channel: 1 
Note on, C4 key =  60;WhichDrum: B ; velocity: 127
@112740 , @5.944704457364341 Channel: 1 
Note on, F3 key =  53;WhichDrum: HH ; velocity: 127
@112800 , @5.947868217054263 Channel: 1 
Note on, C4 key =  60;WhichDrum: B ; velocity: 0
@112800 , @5.947868217054263 Channel: 1 
Note on, F3 key =  53;WhichDrum: HH ; velocity: 0
@112800 , @5.947868217054263 Channel: 1 
Note on, B2 key =  47;WhichDrum: T1 ; velocity: 127
@112800 , @5.947868217054263 Channel: 1 
Note on, E2 key =  40;WhichDrum: S ; velocity: 127
@112860 , @5.951031976744186 Channel: 1 
Note on, B2 key =  47;WhichDrum: T1 ; velocity: 0
@112860 , @5.951031976744186 Channel: 1 
Note on, E2 key =  40;WhichDrum: S ; velocity: 0
@112860 , @5.951031976744186 Channel: 1 
Note on, E2 key =  40;WhichDrum: S ; velocity: 127
@112920 , @5.954195736434109 Channel: 1 
Note on, E2 key =  40;WhichDrum: S ; velocity: 0
@112920 , @5.954195736434109 Channel: 1 
Note on, E2 key =  40;WhichDrum: S ; velocity: 127
@112980 , @5.957359496124031 Channel: 1 
Note on, E2 key =  40;WhichDrum: S ; velocity: 0
@112980 , @5.957359496124031 Channel: 1 
Note on, E2 key =  40;WhichDrum: S ; velocity: 127
@113040 , @5.960523255813953 Channel: 1 
Note on, E2 key =  40;WhichDrum: S ; velocity: 0
@113040 , @5.960523255813953 Channel: 1 
Note on, E2 key =  40;WhichDrum: S ; velocity: 127
@113100 , @5.963687015503876 Channel: 1 
Note on, E2 key =  40;WhichDrum: S ; velocity: 0
@113100 , @5.963687015503876 Channel: 1 
Note on, E2 key =  40;WhichDrum: S ; velocity: 127
@113160 , @5.966850775193798 Channel: 1 
Note on, E2 key =  40;WhichDrum: S ; velocity: 0
@113160 , @5.966850775193798 Channel: 1 
Note on, E2 key =  40;WhichDrum: S ; velocity: 127
@113220 , @5.970014534883721 Channel: 1 
Note on, E2 key =  40;WhichDrum: S ; velocity: 0
@113220 , @5.970014534883721 Channel: 1 
Note on, G3 key =  55;WhichDrum: C2 ; velocity: 127
@113220 , @5.970014534883721 Channel: 1 
Note on, D4 key =  62;WhichDrum: T2 ; velocity: 127
@113280 , @5.973178294573644 Channel: 1 
Note on, G3 key =  55;WhichDrum: C2 ; velocity: 0
@113280 , @5.973178294573644 Channel: 1 
Note on, D4 key =  62;WhichDrum: T2 ; velocity: 0
@113280 , @5.973178294573644 Channel: 1 
Note on, C#4 key =  61;WhichDrum: T3 ; velocity: 127
@113280 , @5.973178294573644 Channel: 1 
Note on, F#3 key =  54;WhichDrum: C1 ; velocity: 127
@113340 , @5.976342054263566 Channel: 1 
Note on, C#4 key =  61;WhichDrum: T3 ; velocity: 0
@113340 , @5.976342054263566 Channel: 1 
Note on, F#3 key =  54;WhichDrum: C1 ; velocity: 0
@113340 , @5.976342054263566 Channel: 1 
Note on, E2 key =  40;WhichDrum: S ; velocity: 127
@113400 , @5.979505813953488 Channel: 1 
Note on, E2 key =  40;WhichDrum: S ; velocity: 0
@113400 , @5.979505813953488 Channel: 1 
Note on, E2 key =  40;WhichDrum: S ; velocity: 127
@113460 , @5.982669573643411 Channel: 1 
Note on, E2 key =  40;WhichDrum: S ; velocity: 0
@113460 , @5.982669573643411 Channel: 1 
Note on, F#3 key =  54;WhichDrum: C1 ; velocity: 127
@113460 , @5.982669573643411 Channel: 1 
Note on, C#4 key =  61;WhichDrum: T3 ; velocity: 127
@113520 , @5.985833333333333 Channel: 1 
Note on, F#3 key =  54;WhichDrum: C1 ; velocity: 0
@113520 , @5.985833333333333 Channel: 1 
Note on, C#4 key =  61;WhichDrum: T3 ; velocity: 0
@113520 , @5.985833333333333 Channel: 1 
Note on, A3 key =  57;WhichDrum: T3 ; velocity: 127
@113520 , @5.985833333333333 Channel: 1 
Note on, D3 key =  50;WhichDrum: T2 ; velocity: 127
@113580 , @5.988997093023256 Channel: 1 
Note on, A3 key =  57;WhichDrum: T3 ; velocity: 0
@113580 , @5.988997093023256 Channel: 1 
Note on, D3 key =  50;WhichDrum: T2 ; velocity: 0
@113580 , @5.988997093023256 Channel: 1 
Note on, E2 key =  40;WhichDrum: S ; velocity: 127
@113640 , @5.992160852713178 Channel: 1 
Note on, E2 key =  40;WhichDrum: S ; velocity: 0
@113640 , @5.992160852713178 Channel: 1 
Note on, E2 key =  40;WhichDrum: S ; velocity: 127
@113700 , @5.995324612403101 Channel: 1 
Note on, E2 key =  40;WhichDrum: S ; velocity: 0
@113700 , @5.995324612403101 Channel: 1 
Note on, D3 key =  50;WhichDrum: T2 ; velocity: 127
@113700 , @5.995324612403101 Channel: 1 
Note on, A3 key =  57;WhichDrum: T3 ; velocity: 127
@113760 , @5.998488372093023 Channel: 1 
Note on, D3 key =  50;WhichDrum: T2 ; velocity: 0
@113760 , @5.998488372093023 Channel: 1 
Note on, A3 key =  57;WhichDrum: T3 ; velocity: 0
@113760 , @5.998488372093023 Channel: 1 
Note on, E3 key =  52;WhichDrum: S ; velocity: 127
@113760 , @5.998488372093023 Channel: 1 
Note on, B3 key =  59;WhichDrum: T1 ; velocity: 127
@113820 , @6.001652131782945 Channel: 1 
Note on, E3 key =  52;WhichDrum: S ; velocity: 0
@113820 , @6.001652131782945 Channel: 1 
Note on, B3 key =  59;WhichDrum: T1 ; velocity: 0
@113820 , @6.001652131782945 Channel: 1 
Note on, E2 key =  40;WhichDrum: S ; velocity: 127
@113880 , @6.004815891472869 Channel: 1 
Note on, E2 key =  40;WhichDrum: S ; velocity: 0
@113880 , @6.004815891472869 Channel: 1 
Note on, E2 key =  40;WhichDrum: S ; velocity: 127
@113940 , @6.007979651162791 Channel: 1 
Note on, E2 key =  40;WhichDrum: S ; velocity: 0
@113940 , @6.007979651162791 Channel: 1 
Note on, E2 key =  40;WhichDrum: S ; velocity: 127
@114000 , @6.011143410852713 Channel: 1 
Note on, E2 key =  40;WhichDrum: S ; velocity: 0
@114000 , @6.011143410852713 Channel: 1 
Note on, E2 key =  40;WhichDrum: S ; velocity: 127
@114060 , @6.014307170542636 Channel: 1 
Note on, E2 key =  40;WhichDrum: S ; velocity: 0
@114060 , @6.014307170542636 Channel: 1 
Note on, E2 key =  40;WhichDrum: S ; velocity: 127
@114120 , @6.017470930232558 Channel: 1 
Note on, E2 key =  40;WhichDrum: S ; velocity: 0
@114120 , @6.017470930232558 Channel: 1 
Note on, E3 key =  52;WhichDrum: S ; velocity: 127
@114240 , @6.0237984496124035 Channel: 1 
Note on, E3 key =  52;WhichDrum: S ; velocity: 0
@114240 , @6.0237984496124035 Channel: 1 
Note on, E2 key =  40;WhichDrum: S ; velocity: 127
@114300 , @6.026962209302326 Channel: 1 
Note on, E2 key =  40;WhichDrum: S ; velocity: 0
@114300 , @6.026962209302326 Channel: 1 
Note on, E2 key =  40;WhichDrum: S ; velocity: 127
@114360 , @6.030125968992248 Channel: 1 
Note on, E2 key =  40;WhichDrum: S ; velocity: 0
@114360 , @6.030125968992248 Channel: 1 
Note on, B2 key =  47;WhichDrum: T1 ; velocity: 127
@114360 , @6.030125968992248 Channel: 1 
Note on, E2 key =  40;WhichDrum: S ; velocity: 127
@114420 , @6.0332897286821705 Channel: 1 
Note on, B2 key =  47;WhichDrum: T1 ; velocity: 0
@114420 , @6.0332897286821705 Channel: 1 
Note on, E2 key =  40;WhichDrum: S ; velocity: 0
@114420 , @6.0332897286821705 Channel: 1 
Note on, E2 key =  40;WhichDrum: S ; velocity: 127
@114480 , @6.036453488372093 Channel: 1 
Note on, E2 key =  40;WhichDrum: S ; velocity: 0
@114480 , @6.036453488372093 Channel: 1 
Note on, E2 key =  40;WhichDrum: S ; velocity: 127
@114540 , @6.039617248062015 Channel: 1 
Note on, E2 key =  40;WhichDrum: S ; velocity: 0
@114540 , @6.039617248062015 Channel: 1 
Note on, D3 key =  50;WhichDrum: T2 ; velocity: 127
@114540 , @6.039617248062015 Channel: 1 
Note on, G2 key =  43;WhichDrum: C2 ; velocity: 127
@114600 , @6.042781007751938 Channel: 1 
Note on, D3 key =  50;WhichDrum: T2 ; velocity: 0
@114600 , @6.042781007751938 Channel: 1 
Note on, G2 key =  43;WhichDrum: C2 ; velocity: 0
@114600 , @6.042781007751938 Channel: 1 
Note on, E2 key =  40;WhichDrum: S ; velocity: 127
@114660 , @6.045944767441861 Channel: 1 
Note on, E2 key =  40;WhichDrum: S ; velocity: 0
@114660 , @6.045944767441861 Channel: 1 
Note on, E2 key =  40;WhichDrum: S ; velocity: 127
@114720 , @6.049108527131783 Channel: 1 
Note on, E2 key =  40;WhichDrum: S ; velocity: 0
@114720 , @6.049108527131783 Channel: 1 
Note on, C#3 key =  49;WhichDrum: T3 ; velocity: 127
@114720 , @6.049108527131783 Channel: 1 
Note on, F#2 key =  42;WhichDrum: C1 ; velocity: 127
@114780 , @6.052272286821705 Channel: 1 
Note on, C#3 key =  49;WhichDrum: T3 ; velocity: 0
@114780 , @6.052272286821705 Channel: 1 
Note on, F#2 key =  42;WhichDrum: C1 ; velocity: 0
@114780 , @6.052272286821705 Channel: 1 
Note on, E2 key =  40;WhichDrum: S ; velocity: 127
@114840 , @6.055436046511628 Channel: 1 
Note on, E2 key =  40;WhichDrum: S ; velocity: 0
@114840 , @6.055436046511628 Channel: 1 
Note on, E2 key =  40;WhichDrum: S ; velocity: 127
@114900 , @6.058599806201551 Channel: 1 
Note on, E2 key =  40;WhichDrum: S ; velocity: 0
@114900 , @6.058599806201551 Channel: 1 
Note on, D3 key =  50;WhichDrum: T2 ; velocity: 127
@114900 , @6.058599806201551 Channel: 1 
Note on, G2 key =  43;WhichDrum: C2 ; velocity: 127
@114960 , @6.061763565891473 Channel: 1 
Note on, D3 key =  50;WhichDrum: T2 ; velocity: 0
@114960 , @6.061763565891473 Channel: 1 
Note on, G2 key =  43;WhichDrum: C2 ; velocity: 0
@114960 , @6.061763565891473 Channel: 1 
Note on, E2 key =  40;WhichDrum: S ; velocity: 127
@115020 , @6.064927325581396 Channel: 1 
Note on, E2 key =  40;WhichDrum: S ; velocity: 0
@115020 , @6.064927325581396 Channel: 1 
Note on, E2 key =  40;WhichDrum: S ; velocity: 127
@115080 , @6.068091085271318 Channel: 1 
Note on, E2 key =  40;WhichDrum: S ; velocity: 0
@115080 , @6.068091085271318 Channel: 1 
Note on, E3 key =  52;WhichDrum: S ; velocity: 127
@115080 , @6.068091085271318 Channel: 1 
Note on, A2 key =  45;WhichDrum: T3 ; velocity: 127
@115140 , @6.07125484496124 Channel: 1 
Note on, E3 key =  52;WhichDrum: S ; velocity: 0
@115140 , @6.07125484496124 Channel: 1 
Note on, A2 key =  45;WhichDrum: T3 ; velocity: 0
@115140 , @6.07125484496124 Channel: 1 
Note on, G2 key =  43;WhichDrum: C2 ; velocity: 127
@115140 , @6.07125484496124 Channel: 1 
Note on, D3 key =  50;WhichDrum: T2 ; velocity: 127
@115200 , @6.074418604651163 Channel: 1 
Note on, G2 key =  43;WhichDrum: C2 ; velocity: 0
@115200 , @6.074418604651163 Channel: 1 
Note on, D3 key =  50;WhichDrum: T2 ; velocity: 0
@115200 , @6.074418604651163 Channel: 1 
Note on, E2 key =  40;WhichDrum: S ; velocity: 127
@115260 , @6.077582364341086 Channel: 1 
Note on, E2 key =  40;WhichDrum: S ; velocity: 0
@115260 , @6.077582364341086 Channel: 1 
Note on, E2 key =  40;WhichDrum: S ; velocity: 127
@115320 , @6.080746124031008 Channel: 1 
Note on, E2 key =  40;WhichDrum: S ; velocity: 0
@115320 , @6.080746124031008 Channel: 1 
Note on, B2 key =  47;WhichDrum: T1 ; velocity: 127
@115320 , @6.080746124031008 Channel: 1 
Note on, E2 key =  40;WhichDrum: S ; velocity: 127
@115380 , @6.0839098837209304 Channel: 1 
Note on, B2 key =  47;WhichDrum: T1 ; velocity: 0
@115380 , @6.0839098837209304 Channel: 1 
Note on, E2 key =  40;WhichDrum: S ; velocity: 0
@115380 , @6.0839098837209304 Channel: 1 
Note on, E2 key =  40;WhichDrum: S ; velocity: 127
@115440 , @6.087073643410853 Channel: 1 
Note on, E2 key =  40;WhichDrum: S ; velocity: 0
@115440 , @6.087073643410853 Channel: 1 
Note on, E2 key =  40;WhichDrum: S ; velocity: 127
@115500 , @6.090237403100775 Channel: 1 
Note on, E2 key =  40;WhichDrum: S ; velocity: 0
@115500 , @6.090237403100775 Channel: 1 
Note on, D3 key =  50;WhichDrum: T2 ; velocity: 127
@115500 , @6.090237403100775 Channel: 1 
Note on, G2 key =  43;WhichDrum: C2 ; velocity: 127
@115560 , @6.093401162790697 Channel: 1 
Note on, D3 key =  50;WhichDrum: T2 ; velocity: 0
@115560 , @6.093401162790697 Channel: 1 
Note on, G2 key =  43;WhichDrum: C2 ; velocity: 0
@115560 , @6.093401162790697 Channel: 1 
Note on, E2 key =  40;WhichDrum: S ; velocity: 127
@115620 , @6.096564922480621 Channel: 1 
Note on, E2 key =  40;WhichDrum: S ; velocity: 0
@115620 , @6.096564922480621 Channel: 1 
Note on, E2 key =  40;WhichDrum: S ; velocity: 127
@115680 , @6.099728682170543 Channel: 1 
Note on, E2 key =  40;WhichDrum: S ; velocity: 0
@115680 , @6.099728682170543 Channel: 1 
Note on, C#3 key =  49;WhichDrum: T3 ; velocity: 127
@115680 , @6.099728682170543 Channel: 1 
Note on, F#2 key =  42;WhichDrum: C1 ; velocity: 127
@115740 , @6.102892441860465 Channel: 1 
Note on, C#3 key =  49;WhichDrum: T3 ; velocity: 0
@115740 , @6.102892441860465 Channel: 1 
Note on, F#2 key =  42;WhichDrum: C1 ; velocity: 0
@115740 , @6.102892441860465 Channel: 1 
Note on, E2 key =  40;WhichDrum: S ; velocity: 127
@115800 , @6.106056201550388 Channel: 1 
Note on, E2 key =  40;WhichDrum: S ; velocity: 0
@115800 , @6.106056201550388 Channel: 1 
Note on, E2 key =  40;WhichDrum: S ; velocity: 127
@115860 , @6.10921996124031 Channel: 1 
Note on, E2 key =  40;WhichDrum: S ; velocity: 0
@115860 , @6.10921996124031 Channel: 1 
Note on, D3 key =  50;WhichDrum: T2 ; velocity: 127
@115860 , @6.10921996124031 Channel: 1 
Note on, G2 key =  43;WhichDrum: C2 ; velocity: 127
@115920 , @6.112383720930233 Channel: 1 
Note on, D3 key =  50;WhichDrum: T2 ; velocity: 0
@115920 , @6.112383720930233 Channel: 1 
Note on, G2 key =  43;WhichDrum: C2 ; velocity: 0
@115920 , @6.112383720930233 Channel: 1 
Note on, E2 key =  40;WhichDrum: S ; velocity: 127
@115980 , @6.1155474806201555 Channel: 1 
Note on, E2 key =  40;WhichDrum: S ; velocity: 0
@115980 , @6.1155474806201555 Channel: 1 
Note on, E2 key =  40;WhichDrum: S ; velocity: 127
@116040 , @6.118711240310078 Channel: 1 
Note on, E2 key =  40;WhichDrum: S ; velocity: 0
@116040 , @6.118711240310078 Channel: 1 
Note on, E3 key =  52;WhichDrum: S ; velocity: 127
@116040 , @6.118711240310078 Channel: 1 
Note on, A2 key =  45;WhichDrum: T3 ; velocity: 127
@116100 , @6.121875 Channel: 1 
Note on, E3 key =  52;WhichDrum: S ; velocity: 0
@116100 , @6.121875 Channel: 1 
Note on, A2 key =  45;WhichDrum: T3 ; velocity: 0
@116100 , @6.121875 Channel: 1 
Note on, G2 key =  43;WhichDrum: C2 ; velocity: 127
@116100 , @6.121875 Channel: 1 
Note on, D3 key =  50;WhichDrum: T2 ; velocity: 127
@116160 , @6.1250387596899225 Channel: 1 
Note on, G2 key =  43;WhichDrum: C2 ; velocity: 0
@116160 , @6.1250387596899225 Channel: 1 
Note on, D3 key =  50;WhichDrum: T2 ; velocity: 0
@116160 , @6.1250387596899225 Channel: 1 
Note on, E2 key =  40;WhichDrum: S ; velocity: 127
@116220 , @6.128202519379845 Channel: 1 
Note on, E2 key =  40;WhichDrum: S ; velocity: 0
@116220 , @6.128202519379845 Channel: 1 
Note on, E2 key =  40;WhichDrum: S ; velocity: 127
@116280 , @6.131366279069768 Channel: 1 
Note on, E2 key =  40;WhichDrum: S ; velocity: 0
@116280 , @6.131366279069768 Channel: 1 
Note on, B2 key =  47;WhichDrum: T1 ; velocity: 127
@116280 , @6.131366279069768 Channel: 1 
Note on, E2 key =  40;WhichDrum: S ; velocity: 127
@116340 , @6.13453003875969 Channel: 1 
Note on, B2 key =  47;WhichDrum: T1 ; velocity: 0
@116340 , @6.13453003875969 Channel: 1 
Note on, E2 key =  40;WhichDrum: S ; velocity: 0
@116340 , @6.13453003875969 Channel: 1 
Note on, E2 key =  40;WhichDrum: S ; velocity: 127
@116400 , @6.137693798449613 Channel: 1 
Note on, E2 key =  40;WhichDrum: S ; velocity: 0
@116400 , @6.137693798449613 Channel: 1 
Note on, E2 key =  40;WhichDrum: S ; velocity: 127
@116460 , @6.140857558139535 Channel: 1 
Note on, E2 key =  40;WhichDrum: S ; velocity: 0
@116460 , @6.140857558139535 Channel: 1 
Note on, D3 key =  50;WhichDrum: T2 ; velocity: 127
@116460 , @6.140857558139535 Channel: 1 
Note on, G2 key =  43;WhichDrum: C2 ; velocity: 127
@116520 , @6.144021317829457 Channel: 1 
Note on, D3 key =  50;WhichDrum: T2 ; velocity: 0
@116520 , @6.144021317829457 Channel: 1 
Note on, G2 key =  43;WhichDrum: C2 ; velocity: 0
@116520 , @6.144021317829457 Channel: 1 
Note on, E2 key =  40;WhichDrum: S ; velocity: 127
@116580 , @6.14718507751938 Channel: 1 
Note on, E2 key =  40;WhichDrum: S ; velocity: 0
@116580 , @6.14718507751938 Channel: 1 
Note on, E2 key =  40;WhichDrum: S ; velocity: 127
@116640 , @6.150348837209303 Channel: 1 
Note on, E2 key =  40;WhichDrum: S ; velocity: 0
@116640 , @6.150348837209303 Channel: 1 
Note on, C#3 key =  49;WhichDrum: T3 ; velocity: 127
@116640 , @6.150348837209303 Channel: 1 
Note on, F#2 key =  42;WhichDrum: C1 ; velocity: 127
@116700 , @6.153512596899225 Channel: 1 
Note on, C#3 key =  49;WhichDrum: T3 ; velocity: 0
@116700 , @6.153512596899225 Channel: 1 
Note on, F#2 key =  42;WhichDrum: C1 ; velocity: 0
@116700 , @6.153512596899225 Channel: 1 
Note on, E2 key =  40;WhichDrum: S ; velocity: 127
@116760 , @6.156676356589148 Channel: 1 
Note on, E2 key =  40;WhichDrum: S ; velocity: 0
@116760 , @6.156676356589148 Channel: 1 
Note on, E2 key =  40;WhichDrum: S ; velocity: 127
@116820 , @6.15984011627907 Channel: 1 
Note on, E2 key =  40;WhichDrum: S ; velocity: 0
@116820 , @6.15984011627907 Channel: 1 
Note on, D3 key =  50;WhichDrum: T2 ; velocity: 127
@116820 , @6.15984011627907 Channel: 1 
Note on, G2 key =  43;WhichDrum: C2 ; velocity: 127
@116880 , @6.163003875968992 Channel: 1 
Note on, D3 key =  50;WhichDrum: T2 ; velocity: 0
@116880 , @6.163003875968992 Channel: 1 
Note on, G2 key =  43;WhichDrum: C2 ; velocity: 0
@116880 , @6.163003875968992 Channel: 1 
Note on, E2 key =  40;WhichDrum: S ; velocity: 127
@116940 , @6.1661676356589155 Channel: 1 
Note on, E2 key =  40;WhichDrum: S ; velocity: 0
@116940 , @6.1661676356589155 Channel: 1 
Note on, E2 key =  40;WhichDrum: S ; velocity: 127
@117000 , @6.169331395348838 Channel: 1 
Note on, E2 key =  40;WhichDrum: S ; velocity: 0
@117000 , @6.169331395348838 Channel: 1 
Note on, E3 key =  52;WhichDrum: S ; velocity: 127
@117000 , @6.169331395348838 Channel: 1 
Note on, A2 key =  45;WhichDrum: T3 ; velocity: 127
@117060 , @6.17249515503876 Channel: 1 
Note on, E3 key =  52;WhichDrum: S ; velocity: 0
@117060 , @6.17249515503876 Channel: 1 
Note on, A2 key =  45;WhichDrum: T3 ; velocity: 0
@117060 , @6.17249515503876 Channel: 1 
Note on, G2 key =  43;WhichDrum: C2 ; velocity: 127
@117060 , @6.17249515503876 Channel: 1 
Note on, D3 key =  50;WhichDrum: T2 ; velocity: 127
@117120 , @6.1756589147286824 Channel: 1 
Note on, G2 key =  43;WhichDrum: C2 ; velocity: 0
@117120 , @6.1756589147286824 Channel: 1 
Note on, D3 key =  50;WhichDrum: T2 ; velocity: 0
@117120 , @6.1756589147286824 Channel: 1 
Note on, E2 key =  40;WhichDrum: S ; velocity: 127
@117180 , @6.178822674418605 Channel: 1 
Note on, E2 key =  40;WhichDrum: S ; velocity: 0
@117180 , @6.178822674418605 Channel: 1 
Note on, E2 key =  40;WhichDrum: S ; velocity: 127
@117240 , @6.181986434108527 Channel: 1 
Note on, E2 key =  40;WhichDrum: S ; velocity: 0
@117240 , @6.181986434108527 Channel: 1 
Note on, B2 key =  47;WhichDrum: T1 ; velocity: 127
@117240 , @6.181986434108527 Channel: 1 
Note on, E2 key =  40;WhichDrum: S ; velocity: 127
@117300 , @6.18515019379845 Channel: 1 
Note on, B2 key =  47;WhichDrum: T1 ; velocity: 0
@117300 , @6.18515019379845 Channel: 1 
Note on, E2 key =  40;WhichDrum: S ; velocity: 0
@117300 , @6.18515019379845 Channel: 1 
Note on, E2 key =  40;WhichDrum: S ; velocity: 127
@117360 , @6.188313953488373 Channel: 1 
Note on, E2 key =  40;WhichDrum: S ; velocity: 0
@117360 , @6.188313953488373 Channel: 1 
Note on, E2 key =  40;WhichDrum: S ; velocity: 127
@117420 , @6.191477713178295 Channel: 1 
Note on, E2 key =  40;WhichDrum: S ; velocity: 0
@117420 , @6.191477713178295 Channel: 1 
Note on, D3 key =  50;WhichDrum: T2 ; velocity: 127
@117420 , @6.191477713178295 Channel: 1 
Note on, G2 key =  43;WhichDrum: C2 ; velocity: 127
@117480 , @6.194641472868217 Channel: 1 
Note on, D3 key =  50;WhichDrum: T2 ; velocity: 0
@117480 , @6.194641472868217 Channel: 1 
Note on, G2 key =  43;WhichDrum: C2 ; velocity: 0
@117480 , @6.194641472868217 Channel: 1 
Note on, E2 key =  40;WhichDrum: S ; velocity: 127
@117540 , @6.19780523255814 Channel: 1 
Note on, E2 key =  40;WhichDrum: S ; velocity: 0
@117540 , @6.19780523255814 Channel: 1 
Note on, E2 key =  40;WhichDrum: S ; velocity: 127
@117600 , @6.200968992248062 Channel: 1 
Note on, E2 key =  40;WhichDrum: S ; velocity: 0
@117600 , @6.200968992248062 Channel: 1 
Note on, C#3 key =  49;WhichDrum: T3 ; velocity: 127
@117600 , @6.200968992248062 Channel: 1 
Note on, F#2 key =  42;WhichDrum: C1 ; velocity: 127
@117660 , @6.204132751937985 Channel: 1 
Note on, C#3 key =  49;WhichDrum: T3 ; velocity: 0
@117660 , @6.204132751937985 Channel: 1 
Note on, F#2 key =  42;WhichDrum: C1 ; velocity: 0
@117660 , @6.204132751937985 Channel: 1 
Note on, E2 key =  40;WhichDrum: S ; velocity: 127
@117720 , @6.2072965116279075 Channel: 1 
Note on, E2 key =  40;WhichDrum: S ; velocity: 0
@117720 , @6.2072965116279075 Channel: 1 
Note on, E2 key =  40;WhichDrum: S ; velocity: 127
@117780 , @6.21046027131783 Channel: 1 
Note on, E2 key =  40;WhichDrum: S ; velocity: 0
@117780 , @6.21046027131783 Channel: 1 
Note on, D3 key =  50;WhichDrum: T2 ; velocity: 127
@117780 , @6.21046027131783 Channel: 1 
Note on, G2 key =  43;WhichDrum: C2 ; velocity: 127
@117840 , @6.213624031007752 Channel: 1 
Note on, D3 key =  50;WhichDrum: T2 ; velocity: 0
@117840 , @6.213624031007752 Channel: 1 
Note on, G2 key =  43;WhichDrum: C2 ; velocity: 0
@117840 , @6.213624031007752 Channel: 1 
Note on, E2 key =  40;WhichDrum: S ; velocity: 127
@117900 , @6.2167877906976745 Channel: 1 
Note on, E2 key =  40;WhichDrum: S ; velocity: 0
@117900 , @6.2167877906976745 Channel: 1 
Note on, E2 key =  40;WhichDrum: S ; velocity: 127
@117960 , @6.219951550387598 Channel: 1 
Note on, E2 key =  40;WhichDrum: S ; velocity: 0
@117960 , @6.219951550387598 Channel: 1 
Note on, E3 key =  52;WhichDrum: S ; velocity: 127
@117960 , @6.219951550387598 Channel: 1 
Note on, A2 key =  45;WhichDrum: T3 ; velocity: 127
@118020 , @6.22311531007752 Channel: 1 
Note on, E3 key =  52;WhichDrum: S ; velocity: 0
@118020 , @6.22311531007752 Channel: 1 
Note on, A2 key =  45;WhichDrum: T3 ; velocity: 0
@118020 , @6.22311531007752 Channel: 1 
Note on, G2 key =  43;WhichDrum: C2 ; velocity: 127
@118020 , @6.22311531007752 Channel: 1 
Note on, D3 key =  50;WhichDrum: T2 ; velocity: 127
@118080 , @6.226279069767442 Channel: 1 
Note on, G2 key =  43;WhichDrum: C2 ; velocity: 0
@118080 , @6.226279069767442 Channel: 1 
Note on, D3 key =  50;WhichDrum: T2 ; velocity: 0
@118080 , @6.226279069767442 Channel: 1 
Note on, E2 key =  40;WhichDrum: S ; velocity: 127
@118140 , @6.229442829457365 Channel: 1 
Note on, E2 key =  40;WhichDrum: S ; velocity: 0
@118140 , @6.229442829457365 Channel: 1 
Note on, E2 key =  40;WhichDrum: S ; velocity: 127
@118200 , @6.232606589147287 Channel: 1 
Note on, E2 key =  40;WhichDrum: S ; velocity: 0
@118200 , @6.232606589147287 Channel: 1 
Note on, B2 key =  47;WhichDrum: T1 ; velocity: 127
@118200 , @6.232606589147287 Channel: 1 
Note on, E2 key =  40;WhichDrum: S ; velocity: 127
@118260 , @6.235770348837209 Channel: 1 
Note on, B2 key =  47;WhichDrum: T1 ; velocity: 0
@118260 , @6.235770348837209 Channel: 1 
Note on, E2 key =  40;WhichDrum: S ; velocity: 0
@118260 , @6.235770348837209 Channel: 1 
Note on, E2 key =  40;WhichDrum: S ; velocity: 127
@118320 , @6.238934108527133 Channel: 1 
Note on, E2 key =  40;WhichDrum: S ; velocity: 0
@118320 , @6.238934108527133 Channel: 1 
Note on, E2 key =  40;WhichDrum: S ; velocity: 127
@118380 , @6.242097868217055 Channel: 1 
Note on, E2 key =  40;WhichDrum: S ; velocity: 0
@118380 , @6.242097868217055 Channel: 1 
Note on, D3 key =  50;WhichDrum: T2 ; velocity: 127
@118380 , @6.242097868217055 Channel: 1 
Note on, G2 key =  43;WhichDrum: C2 ; velocity: 127
@118440 , @6.245261627906977 Channel: 1 
Note on, D3 key =  50;WhichDrum: T2 ; velocity: 0
@118440 , @6.245261627906977 Channel: 1 
Note on, G2 key =  43;WhichDrum: C2 ; velocity: 0
@118440 , @6.245261627906977 Channel: 1 
Note on, E2 key =  40;WhichDrum: S ; velocity: 127
@118500 , @6.2484253875969 Channel: 1 
Note on, E2 key =  40;WhichDrum: S ; velocity: 0
@118500 , @6.2484253875969 Channel: 1 
Note on, E2 key =  40;WhichDrum: S ; velocity: 127
@118560 , @6.251589147286822 Channel: 1 
Note on, E2 key =  40;WhichDrum: S ; velocity: 0
@118560 , @6.251589147286822 Channel: 1 
Note on, C#3 key =  49;WhichDrum: T3 ; velocity: 127
@118560 , @6.251589147286822 Channel: 1 
Note on, F#2 key =  42;WhichDrum: C1 ; velocity: 127
@118620 , @6.254752906976744 Channel: 1 
Note on, C#3 key =  49;WhichDrum: T3 ; velocity: 0
@118620 , @6.254752906976744 Channel: 1 
Note on, F#2 key =  42;WhichDrum: C1 ; velocity: 0
@118620 , @6.254752906976744 Channel: 1 
Note on, E2 key =  40;WhichDrum: S ; velocity: 127
@118680 , @6.2579166666666675 Channel: 1 
Note on, E2 key =  40;WhichDrum: S ; velocity: 0
@118680 , @6.2579166666666675 Channel: 1 
Note on, E2 key =  40;WhichDrum: S ; velocity: 127
@118740 , @6.26108042635659 Channel: 1 
Note on, E2 key =  40;WhichDrum: S ; velocity: 0
@118740 , @6.26108042635659 Channel: 1 
Note on, D3 key =  50;WhichDrum: T2 ; velocity: 127
@118740 , @6.26108042635659 Channel: 1 
Note on, G2 key =  43;WhichDrum: C2 ; velocity: 127
@118800 , @6.264244186046512 Channel: 1 
Note on, D3 key =  50;WhichDrum: T2 ; velocity: 0
@118800 , @6.264244186046512 Channel: 1 
Note on, G2 key =  43;WhichDrum: C2 ; velocity: 0
@118800 , @6.264244186046512 Channel: 1 
Note on, E2 key =  40;WhichDrum: S ; velocity: 127
@118860 , @6.2674079457364344 Channel: 1 
Note on, E2 key =  40;WhichDrum: S ; velocity: 0
@118860 , @6.2674079457364344 Channel: 1 
Note on, E2 key =  40;WhichDrum: S ; velocity: 127
@118920 , @6.270571705426357 Channel: 1 
Note on, E2 key =  40;WhichDrum: S ; velocity: 0
@118920 , @6.270571705426357 Channel: 1 
Note on, E3 key =  52;WhichDrum: S ; velocity: 127
@118920 , @6.270571705426357 Channel: 1 
Note on, A2 key =  45;WhichDrum: T3 ; velocity: 127
@118980 , @6.27373546511628 Channel: 1 
Note on, E3 key =  52;WhichDrum: S ; velocity: 0
@118980 , @6.27373546511628 Channel: 1 
Note on, A2 key =  45;WhichDrum: T3 ; velocity: 0
@118980 , @6.27373546511628 Channel: 1 
Note on, G2 key =  43;WhichDrum: C2 ; velocity: 127
@118980 , @6.27373546511628 Channel: 1 
Note on, D3 key =  50;WhichDrum: T2 ; velocity: 127
@119040 , @6.276899224806202 Channel: 1 
Note on, G2 key =  43;WhichDrum: C2 ; velocity: 0
@119040 , @6.276899224806202 Channel: 1 
Note on, D3 key =  50;WhichDrum: T2 ; velocity: 0
@119040 , @6.276899224806202 Channel: 1 
Note on, E2 key =  40;WhichDrum: S ; velocity: 127
@119100 , @6.280062984496125 Channel: 1 
Note on, E2 key =  40;WhichDrum: S ; velocity: 0
@119100 , @6.280062984496125 Channel: 1 
Note on, E2 key =  40;WhichDrum: S ; velocity: 127
@119160 , @6.283226744186047 Channel: 1 
Note on, E2 key =  40;WhichDrum: S ; velocity: 0
@119160 , @6.283226744186047 Channel: 1 
Note on, B2 key =  47;WhichDrum: T1 ; velocity: 127
@119160 , @6.283226744186047 Channel: 1 
Note on, E2 key =  40;WhichDrum: S ; velocity: 127
@119220 , @6.286390503875969 Channel: 1 
Note on, B2 key =  47;WhichDrum: T1 ; velocity: 0
@119220 , @6.286390503875969 Channel: 1 
Note on, E2 key =  40;WhichDrum: S ; velocity: 0
@119220 , @6.286390503875969 Channel: 1 
Note on, E2 key =  40;WhichDrum: S ; velocity: 127
@119280 , @6.289554263565892 Channel: 1 
Note on, E2 key =  40;WhichDrum: S ; velocity: 0
@119280 , @6.289554263565892 Channel: 1 
Note on, E2 key =  40;WhichDrum: S ; velocity: 127
@119340 , @6.292718023255815 Channel: 1 
Note on, E2 key =  40;WhichDrum: S ; velocity: 0
@119340 , @6.292718023255815 Channel: 1 
Note on, D3 key =  50;WhichDrum: T2 ; velocity: 127
@119340 , @6.292718023255815 Channel: 1 
Note on, G2 key =  43;WhichDrum: C2 ; velocity: 127
@119400 , @6.295881782945737 Channel: 1 
Note on, D3 key =  50;WhichDrum: T2 ; velocity: 0
@119400 , @6.295881782945737 Channel: 1 
Note on, G2 key =  43;WhichDrum: C2 ; velocity: 0
@119400 , @6.295881782945737 Channel: 1 
Note on, E2 key =  40;WhichDrum: S ; velocity: 127
@119460 , @6.2990455426356595 Channel: 1 
Note on, E2 key =  40;WhichDrum: S ; velocity: 0
@119460 , @6.2990455426356595 Channel: 1 
Note on, E2 key =  40;WhichDrum: S ; velocity: 127
@119520 , @6.302209302325582 Channel: 1 
Note on, E2 key =  40;WhichDrum: S ; velocity: 0
@119520 , @6.302209302325582 Channel: 1 
Note on, C#3 key =  49;WhichDrum: T3 ; velocity: 127
@119520 , @6.302209302325582 Channel: 1 
Note on, F#2 key =  42;WhichDrum: C1 ; velocity: 127
@119580 , @6.305373062015504 Channel: 1 
Note on, C#3 key =  49;WhichDrum: T3 ; velocity: 0
@119580 , @6.305373062015504 Channel: 1 
Note on, F#2 key =  42;WhichDrum: C1 ; velocity: 0
@119580 , @6.305373062015504 Channel: 1 
Note on, E2 key =  40;WhichDrum: S ; velocity: 127
@119640 , @6.3085368217054265 Channel: 1 
Note on, E2 key =  40;WhichDrum: S ; velocity: 0
@119640 , @6.3085368217054265 Channel: 1 
Note on, E2 key =  40;WhichDrum: S ; velocity: 127
@119700 , @6.31170058139535 Channel: 1 
Note on, E2 key =  40;WhichDrum: S ; velocity: 0
@119700 , @6.31170058139535 Channel: 1 
Note on, D3 key =  50;WhichDrum: T2 ; velocity: 127
@119700 , @6.31170058139535 Channel: 1 
Note on, G2 key =  43;WhichDrum: C2 ; velocity: 127
@119760 , @6.314864341085272 Channel: 1 
Note on, D3 key =  50;WhichDrum: T2 ; velocity: 0
@119760 , @6.314864341085272 Channel: 1 
Note on, G2 key =  43;WhichDrum: C2 ; velocity: 0
@119760 , @6.314864341085272 Channel: 1 
Note on, E2 key =  40;WhichDrum: S ; velocity: 127
@119820 , @6.318028100775194 Channel: 1 
Note on, E2 key =  40;WhichDrum: S ; velocity: 0
@119820 , @6.318028100775194 Channel: 1 
Note on, E2 key =  40;WhichDrum: S ; velocity: 127
@119880 , @6.321191860465117 Channel: 1 
Note on, E2 key =  40;WhichDrum: S ; velocity: 0
@119880 , @6.321191860465117 Channel: 1 
Note on, E3 key =  52;WhichDrum: S ; velocity: 127
@119880 , @6.321191860465117 Channel: 1 
Note on, A2 key =  45;WhichDrum: T3 ; velocity: 127
@119940 , @6.324355620155039 Channel: 1 
Note on, E3 key =  52;WhichDrum: S ; velocity: 0
@119940 , @6.324355620155039 Channel: 1 
Note on, A2 key =  45;WhichDrum: T3 ; velocity: 0
@119940 , @6.324355620155039 Channel: 1 
Note on, G2 key =  43;WhichDrum: C2 ; velocity: 127
@119940 , @6.324355620155039 Channel: 1 
Note on, D3 key =  50;WhichDrum: T2 ; velocity: 127
@120000 , @6.327519379844961 Channel: 1 
Note on, G2 key =  43;WhichDrum: C2 ; velocity: 0
@120000 , @6.327519379844961 Channel: 1 
Note on, D3 key =  50;WhichDrum: T2 ; velocity: 0
@120000 , @6.327519379844961 Channel: 1 
Note on, E2 key =  40;WhichDrum: S ; velocity: 127
@120060 , @6.330683139534884 Channel: 1 
Note on, E2 key =  40;WhichDrum: S ; velocity: 0
@120060 , @6.330683139534884 Channel: 1 
Note on, E2 key =  40;WhichDrum: S ; velocity: 127
@120120 , @6.333846899224806 Channel: 1 
Note on, E2 key =  40;WhichDrum: S ; velocity: 0
@120120 , @6.333846899224806 Channel: 1 
Note on, B2 key =  47;WhichDrum: T1 ; velocity: 127
@120120 , @6.333846899224806 Channel: 1 
Note on, E2 key =  40;WhichDrum: S ; velocity: 127
@120180 , @6.337010658914728 Channel: 1 
Note on, B2 key =  47;WhichDrum: T1 ; velocity: 0
@120180 , @6.337010658914728 Channel: 1 
Note on, E2 key =  40;WhichDrum: S ; velocity: 0
@120180 , @6.337010658914728 Channel: 1 
Note on, E2 key =  40;WhichDrum: S ; velocity: 127
@120240 , @6.340174418604651 Channel: 1 
Note on, E2 key =  40;WhichDrum: S ; velocity: 0
@120240 , @6.340174418604651 Channel: 1 
Note on, E2 key =  40;WhichDrum: S ; velocity: 127
@120300 , @6.343338178294574 Channel: 1 
Note on, E2 key =  40;WhichDrum: S ; velocity: 0
@120300 , @6.343338178294574 Channel: 1 
Note on, D3 key =  50;WhichDrum: T2 ; velocity: 127
@120300 , @6.343338178294574 Channel: 1 
Note on, G2 key =  43;WhichDrum: C2 ; velocity: 127
@120360 , @6.346501937984496 Channel: 1 
Note on, D3 key =  50;WhichDrum: T2 ; velocity: 0
@120360 , @6.346501937984496 Channel: 1 
Note on, G2 key =  43;WhichDrum: C2 ; velocity: 0
@120360 , @6.346501937984496 Channel: 1 
Note on, E2 key =  40;WhichDrum: S ; velocity: 127
@120420 , @6.349665697674419 Channel: 1 
Note on, E2 key =  40;WhichDrum: S ; velocity: 0
@120420 , @6.349665697674419 Channel: 1 
Note on, E2 key =  40;WhichDrum: S ; velocity: 127
@120480 , @6.352829457364341 Channel: 1 
Note on, E2 key =  40;WhichDrum: S ; velocity: 0
@120480 , @6.352829457364341 Channel: 1 
Note on, C#3 key =  49;WhichDrum: T3 ; velocity: 127
@120480 , @6.352829457364341 Channel: 1 
Note on, F#2 key =  42;WhichDrum: C1 ; velocity: 127
@120540 , @6.355993217054263 Channel: 1 
Note on, C#3 key =  49;WhichDrum: T3 ; velocity: 0
@120540 , @6.355993217054263 Channel: 1 
Note on, F#2 key =  42;WhichDrum: C1 ; velocity: 0
@120540 , @6.355993217054263 Channel: 1 
Note on, E2 key =  40;WhichDrum: S ; velocity: 127
@120600 , @6.359156976744186 Channel: 1 
Note on, E2 key =  40;WhichDrum: S ; velocity: 0
@120600 , @6.359156976744186 Channel: 1 
Note on, E2 key =  40;WhichDrum: S ; velocity: 127
@120660 , @6.362320736434109 Channel: 1 
Note on, E2 key =  40;WhichDrum: S ; velocity: 0
@120660 , @6.362320736434109 Channel: 1 
Note on, D3 key =  50;WhichDrum: T2 ; velocity: 127
@120660 , @6.362320736434109 Channel: 1 
Note on, G2 key =  43;WhichDrum: C2 ; velocity: 127
@120720 , @6.365484496124031 Channel: 1 
Note on, D3 key =  50;WhichDrum: T2 ; velocity: 0
@120720 , @6.365484496124031 Channel: 1 
Note on, G2 key =  43;WhichDrum: C2 ; velocity: 0
@120720 , @6.365484496124031 Channel: 1 
Note on, E2 key =  40;WhichDrum: S ; velocity: 127
@120780 , @6.368648255813953 Channel: 1 
Note on, E2 key =  40;WhichDrum: S ; velocity: 0
@120780 , @6.368648255813953 Channel: 1 
Note on, E2 key =  40;WhichDrum: S ; velocity: 127
@120840 , @6.371812015503876 Channel: 1 
Note on, E2 key =  40;WhichDrum: S ; velocity: 0
@120840 , @6.371812015503876 Channel: 1 
Note on, E3 key =  52;WhichDrum: S ; velocity: 127
@120840 , @6.371812015503876 Channel: 1 
Note on, A2 key =  45;WhichDrum: T3 ; velocity: 127
@120900 , @6.374975775193798 Channel: 1 
Note on, E3 key =  52;WhichDrum: S ; velocity: 0
@120900 , @6.374975775193798 Channel: 1 
Note on, A2 key =  45;WhichDrum: T3 ; velocity: 0
@120900 , @6.374975775193798 Channel: 1 
Note on, G2 key =  43;WhichDrum: C2 ; velocity: 127
@120900 , @6.374975775193798 Channel: 1 
Note on, D3 key =  50;WhichDrum: T2 ; velocity: 127
@120960 , @6.378139534883721 Channel: 1 
Note on, G2 key =  43;WhichDrum: C2 ; velocity: 0
@120960 , @6.378139534883721 Channel: 1 
Note on, D3 key =  50;WhichDrum: T2 ; velocity: 0
@120960 , @6.378139534883721 Channel: 1 
Note on, E2 key =  40;WhichDrum: S ; velocity: 127
@121020 , @6.381303294573644 Channel: 1 
Note on, E2 key =  40;WhichDrum: S ; velocity: 0
@121020 , @6.381303294573644 Channel: 1 
Note on, E2 key =  40;WhichDrum: S ; velocity: 127
@121080 , @6.384467054263566 Channel: 1 
Note on, E2 key =  40;WhichDrum: S ; velocity: 0
@121080 , @6.384467054263566 Channel: 1 
Note on, B2 key =  47;WhichDrum: T1 ; velocity: 127
@121080 , @6.384467054263566 Channel: 1 
Note on, E2 key =  40;WhichDrum: S ; velocity: 127
@121140 , @6.387630813953488 Channel: 1 
Note on, B2 key =  47;WhichDrum: T1 ; velocity: 0
@121140 , @6.387630813953488 Channel: 1 
Note on, E2 key =  40;WhichDrum: S ; velocity: 0
@121140 , @6.387630813953488 Channel: 1 
Note on, E2 key =  40;WhichDrum: S ; velocity: 127
@121200 , @6.390794573643411 Channel: 1 
Note on, E2 key =  40;WhichDrum: S ; velocity: 0
@121200 , @6.390794573643411 Channel: 1 
Note on, E2 key =  40;WhichDrum: S ; velocity: 127
@121260 , @6.393958333333333 Channel: 1 
Note on, E2 key =  40;WhichDrum: S ; velocity: 0
@121260 , @6.393958333333333 Channel: 1 
Note on, D3 key =  50;WhichDrum: T2 ; velocity: 127
@121260 , @6.393958333333333 Channel: 1 
Note on, G2 key =  43;WhichDrum: C2 ; velocity: 127
@121320 , @6.397122093023256 Channel: 1 
Note on, D3 key =  50;WhichDrum: T2 ; velocity: 0
@121320 , @6.397122093023256 Channel: 1 
Note on, G2 key =  43;WhichDrum: C2 ; velocity: 0
@121320 , @6.397122093023256 Channel: 1 
Note on, E2 key =  40;WhichDrum: S ; velocity: 127
@121380 , @6.4002858527131785 Channel: 1 
Note on, E2 key =  40;WhichDrum: S ; velocity: 0
@121380 , @6.4002858527131785 Channel: 1 
Note on, E2 key =  40;WhichDrum: S ; velocity: 127
@121440 , @6.403449612403101 Channel: 1 
Note on, E2 key =  40;WhichDrum: S ; velocity: 0
@121440 , @6.403449612403101 Channel: 1 
Note on, F#2 key =  42;WhichDrum: C1 ; velocity: 127
@121440 , @6.403449612403101 Channel: 1 
Note on, C#3 key =  49;WhichDrum: T3 ; velocity: 127
@121440 , @6.403449612403101 Channel: 1 
Note on, F#3 key =  54;WhichDrum: C1 ; velocity: 127
@121500 , @6.406613372093023 Channel: 1 
Note on, F#2 key =  42;WhichDrum: C1 ; velocity: 0
@121500 , @6.406613372093023 Channel: 1 
Note on, C#3 key =  49;WhichDrum: T3 ; velocity: 0
@121500 , @6.406613372093023 Channel: 1 
Note on, F#3 key =  54;WhichDrum: C1 ; velocity: 0
@121500 , @6.406613372093023 Channel: 1 
Note on, E2 key =  40;WhichDrum: S ; velocity: 127
@121560 , @6.4097771317829455 Channel: 1 
Note on, E2 key =  40;WhichDrum: S ; velocity: 0
@121560 , @6.4097771317829455 Channel: 1 
Note on, E2 key =  40;WhichDrum: S ; velocity: 127
@121620 , @6.412940891472868 Channel: 1 
Note on, E2 key =  40;WhichDrum: S ; velocity: 0
@121620 , @6.412940891472868 Channel: 1 
Note on, E2 key =  40;WhichDrum: S ; velocity: 127
@121680 , @6.416104651162791 Channel: 1 
Note on, E2 key =  40;WhichDrum: S ; velocity: 0
@121680 , @6.416104651162791 Channel: 1 
Note on, E2 key =  40;WhichDrum: S ; velocity: 127
@121740 , @6.419268410852713 Channel: 1 
Note on, E2 key =  40;WhichDrum: S ; velocity: 0
@121740 , @6.419268410852713 Channel: 1 
Note on, E2 key =  40;WhichDrum: S ; velocity: 127
@121800 , @6.422432170542636 Channel: 1 
Note on, E2 key =  40;WhichDrum: S ; velocity: 0
@121800 , @6.422432170542636 Channel: 1 
Note on, A2 key =  45;WhichDrum: T3 ; velocity: 127
@121800 , @6.422432170542636 Channel: 1 
Note on, E3 key =  52;WhichDrum: S ; velocity: 127
@121800 , @6.422432170542636 Channel: 1 
Note on, A3 key =  57;WhichDrum: T3 ; velocity: 127
@121860 , @6.425595930232558 Channel: 1 
Note on, A2 key =  45;WhichDrum: T3 ; velocity: 0
@121860 , @6.425595930232558 Channel: 1 
Note on, E3 key =  52;WhichDrum: S ; velocity: 0
@121860 , @6.425595930232558 Channel: 1 
Note on, A3 key =  57;WhichDrum: T3 ; velocity: 0
@121860 , @6.425595930232558 Channel: 1 
Note on, G3 key =  55;WhichDrum: C2 ; velocity: 127
@121860 , @6.425595930232558 Channel: 1 
Note on, D3 key =  50;WhichDrum: T2 ; velocity: 127
@121860 , @6.425595930232558 Channel: 1 
Note on, G2 key =  43;WhichDrum: C2 ; velocity: 127
@121920 , @6.42875968992248 Channel: 1 
Note on, G3 key =  55;WhichDrum: C2 ; velocity: 0
@121920 , @6.42875968992248 Channel: 1 
Note on, D3 key =  50;WhichDrum: T2 ; velocity: 0
@121920 , @6.42875968992248 Channel: 1 
Note on, G2 key =  43;WhichDrum: C2 ; velocity: 0
@121920 , @6.42875968992248 Channel: 1 
Note on, E2 key =  40;WhichDrum: S ; velocity: 127
@121980 , @6.431923449612404 Channel: 1 
Note on, E2 key =  40;WhichDrum: S ; velocity: 0
@121980 , @6.431923449612404 Channel: 1 
Note on, E2 key =  40;WhichDrum: S ; velocity: 127
@122040 , @6.435087209302326 Channel: 1 
Note on, E2 key =  40;WhichDrum: S ; velocity: 0
@122040 , @6.435087209302326 Channel: 1 
Note on, E4 key =  64;WhichDrum: S ; velocity: 127
@122100 , @6.438250968992248 Channel: 1 
Note on, E4 key =  64;WhichDrum: S ; velocity: 0
@122100 , @6.438250968992248 Channel: 1 
Note on, D4 key =  62;WhichDrum: T2 ; velocity: 127
@122160 , @6.441414728682171 Channel: 1 
Note on, D4 key =  62;WhichDrum: T2 ; velocity: 0
@122160 , @6.441414728682171 Channel: 1 
Note on, B3 key =  59;WhichDrum: T1 ; velocity: 127
@122220 , @6.444578488372093 Channel: 1 
Note on, B3 key =  59;WhichDrum: T1 ; velocity: 0
@122220 , @6.444578488372093 Channel: 1 
Note on, D4 key =  62;WhichDrum: T2 ; velocity: 127
@122280 , @6.447742248062015 Channel: 1 
Note on, D4 key =  62;WhichDrum: T2 ; velocity: 0
@122280 , @6.447742248062015 Channel: 1 
Note on, B3 key =  59;WhichDrum: T1 ; velocity: 127
@122340 , @6.4509060077519385 Channel: 1 
Note on, B3 key =  59;WhichDrum: T1 ; velocity: 0
@122340 , @6.4509060077519385 Channel: 1 
Note on, A#3 key =  58;WhichDrum: T2 ; velocity: 127
@122400 , @6.454069767441861 Channel: 1 
Note on, A#3 key =  58;WhichDrum: T2 ; velocity: 0
@122400 , @6.454069767441861 Channel: 1 
Note on, A3 key =  57;WhichDrum: T3 ; velocity: 127
@122460 , @6.457233527131783 Channel: 1 
Note on, A3 key =  57;WhichDrum: T3 ; velocity: 0
@122460 , @6.457233527131783 Channel: 1 
Note on, G3 key =  55;WhichDrum: C2 ; velocity: 127
@122520 , @6.460397286821705 Channel: 1 
Note on, G3 key =  55;WhichDrum: C2 ; velocity: 0
@122520 , @6.460397286821705 Channel: 1 
Note on, E4 key =  64;WhichDrum: S ; velocity: 127
@122580 , @6.463561046511628 Channel: 1 
Note on, E4 key =  64;WhichDrum: S ; velocity: 0
@122580 , @6.463561046511628 Channel: 1 
Note on, D4 key =  62;WhichDrum: T2 ; velocity: 127
@122640 , @6.46672480620155 Channel: 1 
Note on, D4 key =  62;WhichDrum: T2 ; velocity: 0
@122640 , @6.46672480620155 Channel: 1 
Note on, B3 key =  59;WhichDrum: T1 ; velocity: 127
@122700 , @6.469888565891473 Channel: 1 
Note on, B3 key =  59;WhichDrum: T1 ; velocity: 0
@122700 , @6.469888565891473 Channel: 1 
Note on, D4 key =  62;WhichDrum: T2 ; velocity: 127
@122760 , @6.473052325581396 Channel: 1 
Note on, D4 key =  62;WhichDrum: T2 ; velocity: 0
@122760 , @6.473052325581396 Channel: 1 
Note on, B3 key =  59;WhichDrum: T1 ; velocity: 127
@122820 , @6.476216085271318 Channel: 1 
Note on, B3 key =  59;WhichDrum: T1 ; velocity: 0
@122820 , @6.476216085271318 Channel: 1 
Note on, A#3 key =  58;WhichDrum: T2 ; velocity: 127
@122880 , @6.47937984496124 Channel: 1 
Note on, A#3 key =  58;WhichDrum: T2 ; velocity: 0
@122880 , @6.47937984496124 Channel: 1 
Note on, A3 key =  57;WhichDrum: T3 ; velocity: 127
@122940 , @6.482543604651163 Channel: 1 
Note on, A3 key =  57;WhichDrum: T3 ; velocity: 0
@122940 , @6.482543604651163 Channel: 1 
Note on, G3 key =  55;WhichDrum: C2 ; velocity: 127
@123000 , @6.485707364341086 Channel: 1 
Note on, G3 key =  55;WhichDrum: C2 ; velocity: 0
@123000 , @6.485707364341086 Channel: 1 
Note on, E4 key =  64;WhichDrum: S ; velocity: 127
@123060 , @6.488871124031008 Channel: 1 
Note on, E4 key =  64;WhichDrum: S ; velocity: 0
@123060 , @6.488871124031008 Channel: 1 
Note on, D4 key =  62;WhichDrum: T2 ; velocity: 127
@123120 , @6.4920348837209305 Channel: 1 
Note on, D4 key =  62;WhichDrum: T2 ; velocity: 0
@123120 , @6.4920348837209305 Channel: 1 
Note on, B3 key =  59;WhichDrum: T1 ; velocity: 127
@123180 , @6.495198643410853 Channel: 1 
Note on, B3 key =  59;WhichDrum: T1 ; velocity: 0
@123180 , @6.495198643410853 Channel: 1 
Note on, D4 key =  62;WhichDrum: T2 ; velocity: 127
@123240 , @6.498362403100775 Channel: 1 
Note on, D4 key =  62;WhichDrum: T2 ; velocity: 0
@123240 , @6.498362403100775 Channel: 1 
Note on, B3 key =  59;WhichDrum: T1 ; velocity: 127
@123300 , @6.5015261627906975 Channel: 1 
Note on, B3 key =  59;WhichDrum: T1 ; velocity: 0
@123300 , @6.5015261627906975 Channel: 1 
Note on, A#3 key =  58;WhichDrum: T2 ; velocity: 127
@123360 , @6.504689922480621 Channel: 1 
Note on, A#3 key =  58;WhichDrum: T2 ; velocity: 0
@123360 , @6.504689922480621 Channel: 1 
Note on, A3 key =  57;WhichDrum: T3 ; velocity: 127
@123420 , @6.507853682170543 Channel: 1 
Note on, A3 key =  57;WhichDrum: T3 ; velocity: 0
@123420 , @6.507853682170543 Channel: 1 
Note on, G3 key =  55;WhichDrum: C2 ; velocity: 127
@123480 , @6.511017441860465 Channel: 1 
Note on, G3 key =  55;WhichDrum: C2 ; velocity: 0
@123480 , @6.511017441860465 Channel: 1 
Note on, E2 key =  40;WhichDrum: S ; velocity: 127
@123540 , @6.514181201550388 Channel: 1 
Note on, E2 key =  40;WhichDrum: S ; velocity: 0
@123540 , @6.514181201550388 Channel: 1 
Note on, E2 key =  40;WhichDrum: S ; velocity: 127
@123600 , @6.51734496124031 Channel: 1 
Note on, E2 key =  40;WhichDrum: S ; velocity: 0
@123600 , @6.51734496124031 Channel: 1 
Note on, E2 key =  40;WhichDrum: S ; velocity: 127
@123660 , @6.520508720930232 Channel: 1 
Note on, E2 key =  40;WhichDrum: S ; velocity: 0
@123660 , @6.520508720930232 Channel: 1 
Note on, E2 key =  40;WhichDrum: S ; velocity: 127
@123720 , @6.523672480620156 Channel: 1 
Note on, E2 key =  40;WhichDrum: S ; velocity: 0
@123720 , @6.523672480620156 Channel: 1 
Note on, G4 key =  67;WhichDrum: C2 ; velocity: 127
@123720 , @6.523672480620156 Channel: 1 
Note on, D4 key =  62;WhichDrum: T2 ; velocity: 127
@123720 , @6.523672480620156 Channel: 1 
Note on, G3 key =  55;WhichDrum: C2 ; velocity: 127
@123720 , @6.523672480620156 Channel: 1 
Note on, E2 key =  40;WhichDrum: S ; velocity: 127
@123720 , @6.523672480620156 Channel: 1 
Command: 176

@123840 , @6.53 Channel: 1 
Note on, G4 key =  67;WhichDrum: C2 ; velocity: 0
@123840 , @6.53 Channel: 1 
Note on, D4 key =  62;WhichDrum: T2 ; velocity: 0
@123840 , @6.53 Channel: 1 
Note on, G3 key =  55;WhichDrum: C2 ; velocity: 0
@123840 , @6.53 Channel: 1 
Note on, E2 key =  40;WhichDrum: S ; velocity: 0
@123840 , @6.53 Other Message: class javax.sound.midi.Track$ImmutableEndOfTrack

Track 4: size = 4133
@0 , @0.0 Other Message: class javax.sound.midi.MetaMessage

@0 , @0.0 Other Message: class javax.sound.midi.MetaMessage

@0 , @0.0 Channel: 2 
Command: 192

@0 , @0.0 Channel: 2 
Command: 176

@0 , @0.0 Channel: 2 
Command: 176

@0 , @0.0 Channel: 2 
Note on, A2 key =  45;WhichDrum: T3 ; velocity: 127
@60 , @0.0031637596899224806 Channel: 2 
Note on, A2 key =  45;WhichDrum: T3 ; velocity: 0
@60 , @0.0031637596899224806 Channel: 2 
Note on, A2 key =  45;WhichDrum: T3 ; velocity: 127
@120 , @0.006327519379844961 Channel: 2 
Note on, A2 key =  45;WhichDrum: T3 ; velocity: 0
@120 , @0.006327519379844961 Channel: 2 
Note on, D4 key =  62;WhichDrum: T2 ; velocity: 127
@150 , @0.007909399224806202 Channel: 2 
Note on, D4 key =  62;WhichDrum: T2 ; velocity: 0
@150 , @0.007909399224806202 Channel: 2 
Note on, D#4 key =  63;WhichDrum: T1 ; velocity: 127
@180 , @0.009491279069767442 Channel: 2 
Note on, D#4 key =  63;WhichDrum: T1 ; velocity: 0
@180 , @0.009491279069767442 Channel: 2 
Note on, D4 key =  62;WhichDrum: T2 ; velocity: 127
@300 , @0.015818798449612405 Channel: 2 
Note on, D4 key =  62;WhichDrum: T2 ; velocity: 0
@300 , @0.015818798449612405 Channel: 2 
Note on, A2 key =  45;WhichDrum: T3 ; velocity: 127
@360 , @0.018982558139534884 Channel: 2 
Note on, A2 key =  45;WhichDrum: T3 ; velocity: 0
@360 , @0.018982558139534884 Channel: 2 
Note on, A3 key =  57;WhichDrum: T3 ; velocity: 127
@390 , @0.020564437984496125 Channel: 2 
Note on, A3 key =  57;WhichDrum: T3 ; velocity: 0
@390 , @0.020564437984496125 Channel: 2 
Note on, A#3 key =  58;WhichDrum: T2 ; velocity: 127
@420 , @0.022146317829457366 Channel: 2 
Note on, A#3 key =  58;WhichDrum: T2 ; velocity: 0
@420 , @0.022146317829457366 Channel: 2 
Note on, A3 key =  57;WhichDrum: T3 ; velocity: 127
@540 , @0.028473837209302327 Channel: 2 
Note on, A3 key =  57;WhichDrum: T3 ; velocity: 0
@540 , @0.028473837209302327 Channel: 2 
Note on, A2 key =  45;WhichDrum: T3 ; velocity: 127
@600 , @0.03163759689922481 Channel: 2 
Note on, A2 key =  45;WhichDrum: T3 ; velocity: 0
@600 , @0.03163759689922481 Channel: 2 
Note on, F3 key =  53;WhichDrum: HH ; velocity: 127
@660 , @0.034801356589147285 Channel: 2 
Note on, F3 key =  53;WhichDrum: HH ; velocity: 0
@660 , @0.034801356589147285 Channel: 2 
Note on, E3 key =  52;WhichDrum: S ; velocity: 127
@720 , @0.03796511627906977 Channel: 2 
Note on, E3 key =  52;WhichDrum: S ; velocity: 0
@720 , @0.03796511627906977 Channel: 2 
Note on, G3 key =  55;WhichDrum: C2 ; velocity: 127
@780 , @0.04112887596899225 Channel: 2 
Note on, G3 key =  55;WhichDrum: C2 ; velocity: 0
@780 , @0.04112887596899225 Channel: 2 
Note on, E3 key =  52;WhichDrum: S ; velocity: 127
@840 , @0.04429263565891473 Channel: 2 
Note on, E3 key =  52;WhichDrum: S ; velocity: 0
@840 , @0.04429263565891473 Channel: 2 
Note on, C4 key =  60;WhichDrum: B ; velocity: 127
@900 , @0.04745639534883721 Channel: 2 
Note on, C4 key =  60;WhichDrum: B ; velocity: 0
@900 , @0.04745639534883721 Channel: 2 
Note on, A3 key =  57;WhichDrum: T3 ; velocity: 127
@960 , @0.05062015503875969 Channel: 2 
Note on, A3 key =  57;WhichDrum: T3 ; velocity: 0
@960 , @0.05062015503875969 Channel: 2 
Note on, A2 key =  45;WhichDrum: T3 ; velocity: 127
@1020 , @0.05378391472868218 Channel: 2 
Note on, A2 key =  45;WhichDrum: T3 ; velocity: 0
@1020 , @0.05378391472868218 Channel: 2 
Note on, A2 key =  45;WhichDrum: T3 ; velocity: 127
@1080 , @0.056947674418604655 Channel: 2 
Note on, A2 key =  45;WhichDrum: T3 ; velocity: 0
@1080 , @0.056947674418604655 Channel: 2 
Note on, D4 key =  62;WhichDrum: T2 ; velocity: 127
@1110 , @0.058529554263565896 Channel: 2 
Note on, D4 key =  62;WhichDrum: T2 ; velocity: 0
@1110 , @0.058529554263565896 Channel: 2 
Note on, D#4 key =  63;WhichDrum: T1 ; velocity: 127
@1140 , @0.06011143410852714 Channel: 2 
Note on, D#4 key =  63;WhichDrum: T1 ; velocity: 0
@1140 , @0.06011143410852714 Channel: 2 
Note on, D4 key =  62;WhichDrum: T2 ; velocity: 127
@1260 , @0.0664389534883721 Channel: 2 
Note on, D4 key =  62;WhichDrum: T2 ; velocity: 0
@1260 , @0.0664389534883721 Channel: 2 
Note on, A2 key =  45;WhichDrum: T3 ; velocity: 127
@1320 , @0.06960271317829457 Channel: 2 
Note on, A2 key =  45;WhichDrum: T3 ; velocity: 0
@1320 , @0.06960271317829457 Channel: 2 
Note on, A3 key =  57;WhichDrum: T3 ; velocity: 127
@1350 , @0.07118459302325582 Channel: 2 
Note on, A3 key =  57;WhichDrum: T3 ; velocity: 0
@1350 , @0.07118459302325582 Channel: 2 
Note on, A#3 key =  58;WhichDrum: T2 ; velocity: 127
@1380 , @0.07276647286821707 Channel: 2 
Note on, A#3 key =  58;WhichDrum: T2 ; velocity: 0
@1380 , @0.07276647286821707 Channel: 2 
Note on, A3 key =  57;WhichDrum: T3 ; velocity: 127
@1500 , @0.07909399224806202 Channel: 2 
Note on, A3 key =  57;WhichDrum: T3 ; velocity: 0
@1500 , @0.07909399224806202 Channel: 2 
Note on, A2 key =  45;WhichDrum: T3 ; velocity: 127
@1560 , @0.0822577519379845 Channel: 2 
Note on, A2 key =  45;WhichDrum: T3 ; velocity: 0
@1560 , @0.0822577519379845 Channel: 2 
Note on, F3 key =  53;WhichDrum: HH ; velocity: 127
@1620 , @0.08542151162790698 Channel: 2 
Note on, F3 key =  53;WhichDrum: HH ; velocity: 0
@1620 , @0.08542151162790698 Channel: 2 
Note on, E3 key =  52;WhichDrum: S ; velocity: 127
@1680 , @0.08858527131782946 Channel: 2 
Note on, E3 key =  52;WhichDrum: S ; velocity: 0
@1680 , @0.08858527131782946 Channel: 2 
Note on, G3 key =  55;WhichDrum: C2 ; velocity: 127
@1740 , @0.09174903100775195 Channel: 2 
Note on, G3 key =  55;WhichDrum: C2 ; velocity: 0
@1740 , @0.09174903100775195 Channel: 2 
Note on, E3 key =  52;WhichDrum: S ; velocity: 127
@1800 , @0.09491279069767442 Channel: 2 
Note on, E3 key =  52;WhichDrum: S ; velocity: 0
@1800 , @0.09491279069767442 Channel: 2 
Note on, C4 key =  60;WhichDrum: B ; velocity: 127
@1860 , @0.09807655038759691 Channel: 2 
Note on, C4 key =  60;WhichDrum: B ; velocity: 0
@1860 , @0.09807655038759691 Channel: 2 
Note on, A3 key =  57;WhichDrum: T3 ; velocity: 127
@1920 , @0.10124031007751938 Channel: 2 
Note on, A3 key =  57;WhichDrum: T3 ; velocity: 0
@1920 , @0.10124031007751938 Channel: 2 
Note on, A2 key =  45;WhichDrum: T3 ; velocity: 127
@1980 , @0.10440406976744186 Channel: 2 
Note on, A2 key =  45;WhichDrum: T3 ; velocity: 0
@1980 , @0.10440406976744186 Channel: 2 
Note on, A2 key =  45;WhichDrum: T3 ; velocity: 127
@2040 , @0.10756782945736436 Channel: 2 
Note on, A2 key =  45;WhichDrum: T3 ; velocity: 0
@2040 , @0.10756782945736436 Channel: 2 
Note on, D4 key =  62;WhichDrum: T2 ; velocity: 127
@2070 , @0.10914970930232558 Channel: 2 
Note on, D4 key =  62;WhichDrum: T2 ; velocity: 0
@2070 , @0.10914970930232558 Channel: 2 
Note on, D#4 key =  63;WhichDrum: T1 ; velocity: 127
@2100 , @0.11073158914728681 Channel: 2 
Note on, D#4 key =  63;WhichDrum: T1 ; velocity: 0
@2100 , @0.11073158914728681 Channel: 2 
Note on, D4 key =  62;WhichDrum: T2 ; velocity: 127
@2220 , @0.11705910852713179 Channel: 2 
Note on, D4 key =  62;WhichDrum: T2 ; velocity: 0
@2220 , @0.11705910852713179 Channel: 2 
Note on, A2 key =  45;WhichDrum: T3 ; velocity: 127
@2280 , @0.12022286821705427 Channel: 2 
Note on, A2 key =  45;WhichDrum: T3 ; velocity: 0
@2280 , @0.12022286821705427 Channel: 2 
Note on, A3 key =  57;WhichDrum: T3 ; velocity: 127
@2310 , @0.1218047480620155 Channel: 2 
Note on, A3 key =  57;WhichDrum: T3 ; velocity: 0
@2310 , @0.1218047480620155 Channel: 2 
Note on, A#3 key =  58;WhichDrum: T2 ; velocity: 127
@2340 , @0.12338662790697674 Channel: 2 
Note on, A#3 key =  58;WhichDrum: T2 ; velocity: 0
@2340 , @0.12338662790697674 Channel: 2 
Note on, A3 key =  57;WhichDrum: T3 ; velocity: 127
@2460 , @0.1297141472868217 Channel: 2 
Note on, A3 key =  57;WhichDrum: T3 ; velocity: 0
@2460 , @0.1297141472868217 Channel: 2 
Note on, A2 key =  45;WhichDrum: T3 ; velocity: 127
@2520 , @0.1328779069767442 Channel: 2 
Note on, A2 key =  45;WhichDrum: T3 ; velocity: 0
@2520 , @0.1328779069767442 Channel: 2 
Note on, F3 key =  53;WhichDrum: HH ; velocity: 127
@2580 , @0.13604166666666667 Channel: 2 
Note on, F3 key =  53;WhichDrum: HH ; velocity: 0
@2580 , @0.13604166666666667 Channel: 2 
Note on, E3 key =  52;WhichDrum: S ; velocity: 127
@2640 , @0.13920542635658914 Channel: 2 
Note on, E3 key =  52;WhichDrum: S ; velocity: 0
@2640 , @0.13920542635658914 Channel: 2 
Note on, G3 key =  55;WhichDrum: C2 ; velocity: 127
@2700 , @0.14236918604651164 Channel: 2 
Note on, G3 key =  55;WhichDrum: C2 ; velocity: 0
@2700 , @0.14236918604651164 Channel: 2 
Note on, E3 key =  52;WhichDrum: S ; velocity: 127
@2760 , @0.14553294573643413 Channel: 2 
Note on, E3 key =  52;WhichDrum: S ; velocity: 0
@2760 , @0.14553294573643413 Channel: 2 
Note on, C4 key =  60;WhichDrum: B ; velocity: 127
@2820 , @0.14869670542635657 Channel: 2 
Note on, C4 key =  60;WhichDrum: B ; velocity: 0
@2820 , @0.14869670542635657 Channel: 2 
Note on, A3 key =  57;WhichDrum: T3 ; velocity: 127
@2880 , @0.15186046511627907 Channel: 2 
Note on, A3 key =  57;WhichDrum: T3 ; velocity: 0
@2880 , @0.15186046511627907 Channel: 2 
Note on, A2 key =  45;WhichDrum: T3 ; velocity: 127
@2940 , @0.15502422480620157 Channel: 2 
Note on, A2 key =  45;WhichDrum: T3 ; velocity: 0
@2940 , @0.15502422480620157 Channel: 2 
Note on, A2 key =  45;WhichDrum: T3 ; velocity: 127
@3000 , @0.15818798449612403 Channel: 2 
Note on, A2 key =  45;WhichDrum: T3 ; velocity: 0
@3000 , @0.15818798449612403 Channel: 2 
Note on, D4 key =  62;WhichDrum: T2 ; velocity: 127
@3030 , @0.15976986434108525 Channel: 2 
Note on, D4 key =  62;WhichDrum: T2 ; velocity: 0
@3030 , @0.15976986434108525 Channel: 2 
Note on, D#4 key =  63;WhichDrum: T1 ; velocity: 127
@3060 , @0.1613517441860465 Channel: 2 
Note on, D#4 key =  63;WhichDrum: T1 ; velocity: 0
@3060 , @0.1613517441860465 Channel: 2 
Note on, D4 key =  62;WhichDrum: T2 ; velocity: 127
@3180 , @0.1676792635658915 Channel: 2 
Note on, D4 key =  62;WhichDrum: T2 ; velocity: 0
@3180 , @0.1676792635658915 Channel: 2 
Note on, A2 key =  45;WhichDrum: T3 ; velocity: 127
@3240 , @0.17084302325581396 Channel: 2 
Note on, A2 key =  45;WhichDrum: T3 ; velocity: 0
@3240 , @0.17084302325581396 Channel: 2 
Note on, A3 key =  57;WhichDrum: T3 ; velocity: 127
@3270 , @0.17242490310077518 Channel: 2 
Note on, A3 key =  57;WhichDrum: T3 ; velocity: 0
@3270 , @0.17242490310077518 Channel: 2 
Note on, A#3 key =  58;WhichDrum: T2 ; velocity: 127
@3300 , @0.17400678294573643 Channel: 2 
Note on, A#3 key =  58;WhichDrum: T2 ; velocity: 0
@3300 , @0.17400678294573643 Channel: 2 
Note on, A3 key =  57;WhichDrum: T3 ; velocity: 127
@3420 , @0.1803343023255814 Channel: 2 
Note on, A3 key =  57;WhichDrum: T3 ; velocity: 0
@3420 , @0.1803343023255814 Channel: 2 
Note on, A2 key =  45;WhichDrum: T3 ; velocity: 127
@3480 , @0.1834980620155039 Channel: 2 
Note on, A2 key =  45;WhichDrum: T3 ; velocity: 0
@3480 , @0.1834980620155039 Channel: 2 
Note on, F3 key =  53;WhichDrum: HH ; velocity: 127
@3540 , @0.18666182170542636 Channel: 2 
Note on, F3 key =  53;WhichDrum: HH ; velocity: 0
@3540 , @0.18666182170542636 Channel: 2 
Note on, E3 key =  52;WhichDrum: S ; velocity: 127
@3600 , @0.18982558139534883 Channel: 2 
Note on, E3 key =  52;WhichDrum: S ; velocity: 0
@3600 , @0.18982558139534883 Channel: 2 
Note on, G3 key =  55;WhichDrum: C2 ; velocity: 127
@3660 , @0.19298934108527133 Channel: 2 
Note on, G3 key =  55;WhichDrum: C2 ; velocity: 0
@3660 , @0.19298934108527133 Channel: 2 
Note on, E3 key =  52;WhichDrum: S ; velocity: 127
@3720 , @0.19615310077519382 Channel: 2 
Note on, E3 key =  52;WhichDrum: S ; velocity: 0
@3720 , @0.19615310077519382 Channel: 2 
Note on, C4 key =  60;WhichDrum: B ; velocity: 127
@3780 , @0.1993168604651163 Channel: 2 
Note on, C4 key =  60;WhichDrum: B ; velocity: 0
@3780 , @0.1993168604651163 Channel: 2 
Note on, A3 key =  57;WhichDrum: T3 ; velocity: 127
@3840 , @0.20248062015503876 Channel: 2 
Note on, A3 key =  57;WhichDrum: T3 ; velocity: 0
@3840 , @0.20248062015503876 Channel: 2 
Note on, A2 key =  45;WhichDrum: T3 ; velocity: 127
@3900 , @0.20564437984496126 Channel: 2 
Note on, A2 key =  45;WhichDrum: T3 ; velocity: 0
@3900 , @0.20564437984496126 Channel: 2 
Note on, A2 key =  45;WhichDrum: T3 ; velocity: 127
@3960 , @0.20880813953488372 Channel: 2 
Note on, A2 key =  45;WhichDrum: T3 ; velocity: 0
@3960 , @0.20880813953488372 Channel: 2 
Note on, D4 key =  62;WhichDrum: T2 ; velocity: 127
@3990 , @0.21039001937984497 Channel: 2 
Note on, D4 key =  62;WhichDrum: T2 ; velocity: 0
@3990 , @0.21039001937984497 Channel: 2 
Note on, D#4 key =  63;WhichDrum: T1 ; velocity: 127
@4020 , @0.21197189922480622 Channel: 2 
Note on, D#4 key =  63;WhichDrum: T1 ; velocity: 0
@4020 , @0.21197189922480622 Channel: 2 
Note on, D4 key =  62;WhichDrum: T2 ; velocity: 127
@4140 , @0.21829941860465116 Channel: 2 
Note on, D4 key =  62;WhichDrum: T2 ; velocity: 0
@4140 , @0.21829941860465116 Channel: 2 
Note on, A2 key =  45;WhichDrum: T3 ; velocity: 127
@4200 , @0.22146317829457363 Channel: 2 
Note on, A2 key =  45;WhichDrum: T3 ; velocity: 0
@4200 , @0.22146317829457363 Channel: 2 
Note on, A3 key =  57;WhichDrum: T3 ; velocity: 127
@4230 , @0.22304505813953487 Channel: 2 
Note on, A3 key =  57;WhichDrum: T3 ; velocity: 0
@4230 , @0.22304505813953487 Channel: 2 
Note on, A#3 key =  58;WhichDrum: T2 ; velocity: 127
@4260 , @0.22462693798449612 Channel: 2 
Note on, A#3 key =  58;WhichDrum: T2 ; velocity: 0
@4260 , @0.22462693798449612 Channel: 2 
Note on, A3 key =  57;WhichDrum: T3 ; velocity: 127
@4380 , @0.2309544573643411 Channel: 2 
Note on, A3 key =  57;WhichDrum: T3 ; velocity: 0
@4380 , @0.2309544573643411 Channel: 2 
Note on, A2 key =  45;WhichDrum: T3 ; velocity: 127
@4440 , @0.23411821705426358 Channel: 2 
Note on, A2 key =  45;WhichDrum: T3 ; velocity: 0
@4440 , @0.23411821705426358 Channel: 2 
Note on, F3 key =  53;WhichDrum: HH ; velocity: 127
@4500 , @0.23728197674418608 Channel: 2 
Note on, F3 key =  53;WhichDrum: HH ; velocity: 0
@4500 , @0.23728197674418608 Channel: 2 
Note on, E3 key =  52;WhichDrum: S ; velocity: 127
@4560 , @0.24044573643410855 Channel: 2 
Note on, E3 key =  52;WhichDrum: S ; velocity: 0
@4560 , @0.24044573643410855 Channel: 2 
Note on, G3 key =  55;WhichDrum: C2 ; velocity: 127
@4620 , @0.243609496124031 Channel: 2 
Note on, G3 key =  55;WhichDrum: C2 ; velocity: 0
@4620 , @0.243609496124031 Channel: 2 
Note on, E3 key =  52;WhichDrum: S ; velocity: 127
@4680 , @0.24677325581395348 Channel: 2 
Note on, E3 key =  52;WhichDrum: S ; velocity: 0
@4680 , @0.24677325581395348 Channel: 2 
Note on, C4 key =  60;WhichDrum: B ; velocity: 127
@4740 , @0.24993701550387598 Channel: 2 
Note on, C4 key =  60;WhichDrum: B ; velocity: 0
@4740 , @0.24993701550387598 Channel: 2 
Note on, A3 key =  57;WhichDrum: T3 ; velocity: 127
@4800 , @0.2531007751937985 Channel: 2 
Note on, A3 key =  57;WhichDrum: T3 ; velocity: 0
@4800 , @0.2531007751937985 Channel: 2 
Note on, A2 key =  45;WhichDrum: T3 ; velocity: 127
@4860 , @0.2562645348837209 Channel: 2 
Note on, A2 key =  45;WhichDrum: T3 ; velocity: 0
@4860 , @0.2562645348837209 Channel: 2 
Note on, A2 key =  45;WhichDrum: T3 ; velocity: 127
@4920 , @0.2594282945736434 Channel: 2 
Note on, A2 key =  45;WhichDrum: T3 ; velocity: 0
@4920 , @0.2594282945736434 Channel: 2 
Note on, D4 key =  62;WhichDrum: T2 ; velocity: 127
@4950 , @0.2610101744186047 Channel: 2 
Note on, D4 key =  62;WhichDrum: T2 ; velocity: 0
@4950 , @0.2610101744186047 Channel: 2 
Note on, D#4 key =  63;WhichDrum: T1 ; velocity: 127
@4980 , @0.2625920542635659 Channel: 2 
Note on, D#4 key =  63;WhichDrum: T1 ; velocity: 0
@4980 , @0.2625920542635659 Channel: 2 
Note on, D4 key =  62;WhichDrum: T2 ; velocity: 127
@5100 , @0.26891957364341085 Channel: 2 
Note on, D4 key =  62;WhichDrum: T2 ; velocity: 0
@5100 , @0.26891957364341085 Channel: 2 
Note on, A2 key =  45;WhichDrum: T3 ; velocity: 127
@5160 , @0.27208333333333334 Channel: 2 
Note on, A2 key =  45;WhichDrum: T3 ; velocity: 0
@5160 , @0.27208333333333334 Channel: 2 
Note on, A3 key =  57;WhichDrum: T3 ; velocity: 127
@5190 , @0.27366521317829456 Channel: 2 
Note on, A3 key =  57;WhichDrum: T3 ; velocity: 0
@5190 , @0.27366521317829456 Channel: 2 
Note on, A#3 key =  58;WhichDrum: T2 ; velocity: 127
@5220 , @0.27524709302325584 Channel: 2 
Note on, A#3 key =  58;WhichDrum: T2 ; velocity: 0
@5220 , @0.27524709302325584 Channel: 2 
Note on, A3 key =  57;WhichDrum: T3 ; velocity: 127
@5340 , @0.2815746124031008 Channel: 2 
Note on, A3 key =  57;WhichDrum: T3 ; velocity: 0
@5340 , @0.2815746124031008 Channel: 2 
Note on, A2 key =  45;WhichDrum: T3 ; velocity: 127
@5400 , @0.2847383720930233 Channel: 2 
Note on, A2 key =  45;WhichDrum: T3 ; velocity: 0
@5400 , @0.2847383720930233 Channel: 2 
Note on, F3 key =  53;WhichDrum: HH ; velocity: 127
@5460 , @0.28790213178294577 Channel: 2 
Note on, F3 key =  53;WhichDrum: HH ; velocity: 0
@5460 , @0.28790213178294577 Channel: 2 
Note on, E3 key =  52;WhichDrum: S ; velocity: 127
@5520 , @0.29106589147286827 Channel: 2 
Note on, E3 key =  52;WhichDrum: S ; velocity: 0
@5520 , @0.29106589147286827 Channel: 2 
Note on, G3 key =  55;WhichDrum: C2 ; velocity: 127
@5580 , @0.2942296511627907 Channel: 2 
Note on, G3 key =  55;WhichDrum: C2 ; velocity: 0
@5580 , @0.2942296511627907 Channel: 2 
Note on, E3 key =  52;WhichDrum: S ; velocity: 127
@5640 , @0.29739341085271315 Channel: 2 
Note on, E3 key =  52;WhichDrum: S ; velocity: 0
@5640 , @0.29739341085271315 Channel: 2 
Note on, C4 key =  60;WhichDrum: B ; velocity: 127
@5700 , @0.30055717054263564 Channel: 2 
Note on, C4 key =  60;WhichDrum: B ; velocity: 0
@5700 , @0.30055717054263564 Channel: 2 
Note on, A3 key =  57;WhichDrum: T3 ; velocity: 127
@5760 , @0.30372093023255814 Channel: 2 
Note on, A3 key =  57;WhichDrum: T3 ; velocity: 0
@5760 , @0.30372093023255814 Channel: 2 
Note on, A2 key =  45;WhichDrum: T3 ; velocity: 127
@5820 , @0.30688468992248064 Channel: 2 
Note on, A2 key =  45;WhichDrum: T3 ; velocity: 0
@5820 , @0.30688468992248064 Channel: 2 
Note on, A2 key =  45;WhichDrum: T3 ; velocity: 127
@5880 , @0.31004844961240313 Channel: 2 
Note on, A2 key =  45;WhichDrum: T3 ; velocity: 0
@5880 , @0.31004844961240313 Channel: 2 
Note on, D4 key =  62;WhichDrum: T2 ; velocity: 127
@5910 , @0.31163032945736435 Channel: 2 
Note on, D4 key =  62;WhichDrum: T2 ; velocity: 0
@5910 , @0.31163032945736435 Channel: 2 
Note on, D#4 key =  63;WhichDrum: T1 ; velocity: 127
@5940 , @0.31321220930232563 Channel: 2 
Note on, D#4 key =  63;WhichDrum: T1 ; velocity: 0
@5940 , @0.31321220930232563 Channel: 2 
Note on, D4 key =  62;WhichDrum: T2 ; velocity: 127
@6060 , @0.3195397286821705 Channel: 2 
Note on, D4 key =  62;WhichDrum: T2 ; velocity: 0
@6060 , @0.3195397286821705 Channel: 2 
Note on, A2 key =  45;WhichDrum: T3 ; velocity: 127
@6120 , @0.322703488372093 Channel: 2 
Note on, A2 key =  45;WhichDrum: T3 ; velocity: 0
@6120 , @0.322703488372093 Channel: 2 
Note on, A3 key =  57;WhichDrum: T3 ; velocity: 127
@6150 , @0.3242853682170543 Channel: 2 
Note on, A3 key =  57;WhichDrum: T3 ; velocity: 0
@6150 , @0.3242853682170543 Channel: 2 
Note on, A#3 key =  58;WhichDrum: T2 ; velocity: 127
@6180 , @0.3258672480620155 Channel: 2 
Note on, A#3 key =  58;WhichDrum: T2 ; velocity: 0
@6180 , @0.3258672480620155 Channel: 2 
Note on, A3 key =  57;WhichDrum: T3 ; velocity: 127
@6300 , @0.3321947674418605 Channel: 2 
Note on, A3 key =  57;WhichDrum: T3 ; velocity: 0
@6300 , @0.3321947674418605 Channel: 2 
Note on, A2 key =  45;WhichDrum: T3 ; velocity: 127
@6360 , @0.335358527131783 Channel: 2 
Note on, A2 key =  45;WhichDrum: T3 ; velocity: 0
@6360 , @0.335358527131783 Channel: 2 
Note on, F3 key =  53;WhichDrum: HH ; velocity: 127
@6420 , @0.33852228682170543 Channel: 2 
Note on, F3 key =  53;WhichDrum: HH ; velocity: 0
@6420 , @0.33852228682170543 Channel: 2 
Note on, E3 key =  52;WhichDrum: S ; velocity: 127
@6480 , @0.3416860465116279 Channel: 2 
Note on, E3 key =  52;WhichDrum: S ; velocity: 0
@6480 , @0.3416860465116279 Channel: 2 
Note on, G3 key =  55;WhichDrum: C2 ; velocity: 127
@6540 , @0.34484980620155037 Channel: 2 
Note on, G3 key =  55;WhichDrum: C2 ; velocity: 0
@6540 , @0.34484980620155037 Channel: 2 
Note on, E3 key =  52;WhichDrum: S ; velocity: 127
@6600 , @0.34801356589147286 Channel: 2 
Note on, E3 key =  52;WhichDrum: S ; velocity: 0
@6600 , @0.34801356589147286 Channel: 2 
Note on, C4 key =  60;WhichDrum: B ; velocity: 127
@6660 , @0.35117732558139536 Channel: 2 
Note on, C4 key =  60;WhichDrum: B ; velocity: 0
@6660 , @0.35117732558139536 Channel: 2 
Note on, A3 key =  57;WhichDrum: T3 ; velocity: 127
@6720 , @0.35434108527131786 Channel: 2 
Note on, A3 key =  57;WhichDrum: T3 ; velocity: 0
@6720 , @0.35434108527131786 Channel: 2 
Note on, A2 key =  45;WhichDrum: T3 ; velocity: 127
@6780 , @0.3575048449612403 Channel: 2 
Note on, A2 key =  45;WhichDrum: T3 ; velocity: 0
@6780 , @0.3575048449612403 Channel: 2 
Note on, A2 key =  45;WhichDrum: T3 ; velocity: 127
@6840 , @0.3606686046511628 Channel: 2 
Note on, A2 key =  45;WhichDrum: T3 ; velocity: 0
@6840 , @0.3606686046511628 Channel: 2 
Note on, D4 key =  62;WhichDrum: T2 ; velocity: 127
@6870 , @0.36225048449612407 Channel: 2 
Note on, D4 key =  62;WhichDrum: T2 ; velocity: 0
@6870 , @0.36225048449612407 Channel: 2 
Note on, D#4 key =  63;WhichDrum: T1 ; velocity: 127
@6900 , @0.3638323643410853 Channel: 2 
Note on, D#4 key =  63;WhichDrum: T1 ; velocity: 0
@6900 , @0.3638323643410853 Channel: 2 
Note on, D4 key =  62;WhichDrum: T2 ; velocity: 127
@7020 , @0.3701598837209302 Channel: 2 
Note on, D4 key =  62;WhichDrum: T2 ; velocity: 0
@7020 , @0.3701598837209302 Channel: 2 
Note on, A2 key =  45;WhichDrum: T3 ; velocity: 127
@7080 , @0.3733236434108527 Channel: 2 
Note on, A2 key =  45;WhichDrum: T3 ; velocity: 0
@7080 , @0.3733236434108527 Channel: 2 
Note on, A3 key =  57;WhichDrum: T3 ; velocity: 127
@7110 , @0.37490552325581394 Channel: 2 
Note on, A3 key =  57;WhichDrum: T3 ; velocity: 0
@7110 , @0.37490552325581394 Channel: 2 
Note on, A#3 key =  58;WhichDrum: T2 ; velocity: 127
@7140 , @0.3764874031007752 Channel: 2 
Note on, A#3 key =  58;WhichDrum: T2 ; velocity: 0
@7140 , @0.3764874031007752 Channel: 2 
Note on, A3 key =  57;WhichDrum: T3 ; velocity: 127
@7260 , @0.38281492248062016 Channel: 2 
Note on, A3 key =  57;WhichDrum: T3 ; velocity: 0
@7260 , @0.38281492248062016 Channel: 2 
Note on, A2 key =  45;WhichDrum: T3 ; velocity: 127
@7320 , @0.38597868217054265 Channel: 2 
Note on, A2 key =  45;WhichDrum: T3 ; velocity: 0
@7320 , @0.38597868217054265 Channel: 2 
Note on, F3 key =  53;WhichDrum: HH ; velocity: 127
@7380 , @0.38914244186046515 Channel: 2 
Note on, F3 key =  53;WhichDrum: HH ; velocity: 0
@7380 , @0.38914244186046515 Channel: 2 
Note on, E3 key =  52;WhichDrum: S ; velocity: 127
@7440 , @0.39230620155038765 Channel: 2 
Note on, E3 key =  52;WhichDrum: S ; velocity: 0
@7440 , @0.39230620155038765 Channel: 2 
Note on, G3 key =  55;WhichDrum: C2 ; velocity: 127
@7500 , @0.3954699612403101 Channel: 2 
Note on, G3 key =  55;WhichDrum: C2 ; velocity: 0
@7500 , @0.3954699612403101 Channel: 2 
Note on, E3 key =  52;WhichDrum: S ; velocity: 127
@7560 , @0.3986337209302326 Channel: 2 
Note on, E3 key =  52;WhichDrum: S ; velocity: 0
@7560 , @0.3986337209302326 Channel: 2 
Note on, C4 key =  60;WhichDrum: B ; velocity: 127
@7620 , @0.401797480620155 Channel: 2 
Note on, C4 key =  60;WhichDrum: B ; velocity: 0
@7620 , @0.401797480620155 Channel: 2 
Note on, A3 key =  57;WhichDrum: T3 ; velocity: 127
@7680 , @0.4049612403100775 Channel: 2 
Note on, A3 key =  57;WhichDrum: T3 ; velocity: 0
@7680 , @0.4049612403100775 Channel: 2 
Note on, E4 key =  64;WhichDrum: S ; velocity: 127
@7740 , @0.408125 Channel: 2 
Note on, E4 key =  64;WhichDrum: S ; velocity: 0
@7740 , @0.408125 Channel: 2 
Note on, D4 key =  62;WhichDrum: T2 ; velocity: 127
@7800 , @0.4112887596899225 Channel: 2 
Note on, D4 key =  62;WhichDrum: T2 ; velocity: 0
@7800 , @0.4112887596899225 Channel: 2 
Note on, B3 key =  59;WhichDrum: T1 ; velocity: 127
@7860 , @0.414452519379845 Channel: 2 
Note on, B3 key =  59;WhichDrum: T1 ; velocity: 0
@7860 , @0.414452519379845 Channel: 2 
Note on, D4 key =  62;WhichDrum: T2 ; velocity: 127
@7920 , @0.41761627906976745 Channel: 2 
Note on, D4 key =  62;WhichDrum: T2 ; velocity: 0
@7920 , @0.41761627906976745 Channel: 2 
Note on, B3 key =  59;WhichDrum: T1 ; velocity: 127
@7980 , @0.42078003875968994 Channel: 2 
Note on, B3 key =  59;WhichDrum: T1 ; velocity: 0
@7980 , @0.42078003875968994 Channel: 2 
Note on, A#3 key =  58;WhichDrum: T2 ; velocity: 127
@8040 , @0.42394379844961244 Channel: 2 
Note on, A#3 key =  58;WhichDrum: T2 ; velocity: 0
@8040 , @0.42394379844961244 Channel: 2 
Note on, A3 key =  57;WhichDrum: T3 ; velocity: 127
@8100 , @0.42710755813953494 Channel: 2 
Note on, A3 key =  57;WhichDrum: T3 ; velocity: 0
@8100 , @0.42710755813953494 Channel: 2 
Note on, G3 key =  55;WhichDrum: C2 ; velocity: 127
@8160 , @0.43027131782945743 Channel: 2 
Note on, G3 key =  55;WhichDrum: C2 ; velocity: 0
@10320 , @0.5441666666666667 Channel: 2 
Note on, G3 key =  55;WhichDrum: C2 ; velocity: 127
@10320 , @0.5441666666666667 Channel: 2 
Note on, D3 key =  50;WhichDrum: T2 ; velocity: 127
@10380 , @0.5473304263565891 Channel: 2 
Note on, G3 key =  55;WhichDrum: C2 ; velocity: 0
@10380 , @0.5473304263565891 Channel: 2 
Note on, D3 key =  50;WhichDrum: T2 ; velocity: 0
@10380 , @0.5473304263565891 Channel: 2 
Note on, E3 key =  52;WhichDrum: S ; velocity: 127
@10380 , @0.5473304263565891 Channel: 2 
Note on, A3 key =  57;WhichDrum: T3 ; velocity: 127
@10440 , @0.5504941860465117 Channel: 2 
Note on, E3 key =  52;WhichDrum: S ; velocity: 0
@10440 , @0.5504941860465117 Channel: 2 
Note on, A3 key =  57;WhichDrum: T3 ; velocity: 0
@10440 , @0.5504941860465117 Channel: 2 
Note on, D3 key =  50;WhichDrum: T2 ; velocity: 127
@10440 , @0.5504941860465117 Channel: 2 
Note on, G3 key =  55;WhichDrum: C2 ; velocity: 127
@10500 , @0.5536579457364341 Channel: 2 
Note on, D3 key =  50;WhichDrum: T2 ; velocity: 0
@10500 , @0.5536579457364341 Channel: 2 
Note on, G3 key =  55;WhichDrum: C2 ; velocity: 0
@10500 , @0.5536579457364341 Channel: 2 
Note on, E3 key =  52;WhichDrum: S ; velocity: 127
@10500 , @0.5536579457364341 Channel: 2 
Note on, A3 key =  57;WhichDrum: T3 ; velocity: 127
@10560 , @0.5568217054263566 Channel: 2 
Note on, E3 key =  52;WhichDrum: S ; velocity: 0
@10560 , @0.5568217054263566 Channel: 2 
Note on, A3 key =  57;WhichDrum: T3 ; velocity: 0
@10560 , @0.5568217054263566 Channel: 2 
Note on, E2 key =  40;WhichDrum: S ; velocity: 127
@10620 , @0.5599854651162791 Channel: 2 
Note on, E2 key =  40;WhichDrum: S ; velocity: 0
@10620 , @0.5599854651162791 Channel: 2 
Note on, E2 key =  40;WhichDrum: S ; velocity: 127
@10680 , @0.5631492248062016 Channel: 2 
Note on, E2 key =  40;WhichDrum: S ; velocity: 0
@10680 , @0.5631492248062016 Channel: 2 
Note on, E2 key =  40;WhichDrum: S ; velocity: 127
@10740 , @0.5663129844961241 Channel: 2 
Note on, E2 key =  40;WhichDrum: S ; velocity: 0
@10740 , @0.5663129844961241 Channel: 2 
Note on, E2 key =  40;WhichDrum: S ; velocity: 127
@10800 , @0.5694767441860465 Channel: 2 
Note on, E2 key =  40;WhichDrum: S ; velocity: 0
@10800 , @0.5694767441860465 Channel: 2 
Note on, E3 key =  52;WhichDrum: S ; velocity: 127
@10860 , @0.572640503875969 Channel: 2 
Note on, E3 key =  52;WhichDrum: S ; velocity: 0
@10860 , @0.572640503875969 Channel: 2 
Note on, D3 key =  50;WhichDrum: T2 ; velocity: 127
@10920 , @0.5758042635658915 Channel: 2 
Note on, D3 key =  50;WhichDrum: T2 ; velocity: 0
@10920 , @0.5758042635658915 Channel: 2 
Note on, B2 key =  47;WhichDrum: T1 ; velocity: 127
@10980 , @0.578968023255814 Channel: 2 
Note on, B2 key =  47;WhichDrum: T1 ; velocity: 0
@10980 , @0.578968023255814 Channel: 2 
Note on, A#2 key =  46;WhichDrum: T2 ; velocity: 127
@11040 , @0.5821317829457365 Channel: 2 
Note on, A#2 key =  46;WhichDrum: T2 ; velocity: 0
@11040 , @0.5821317829457365 Channel: 2 
Note on, E2 key =  40;WhichDrum: S ; velocity: 127
@11100 , @0.585295542635659 Channel: 2 
Note on, E2 key =  40;WhichDrum: S ; velocity: 0
@11100 , @0.585295542635659 Channel: 2 
Note on, E2 key =  40;WhichDrum: S ; velocity: 127
@11160 , @0.5884593023255814 Channel: 2 
Note on, E2 key =  40;WhichDrum: S ; velocity: 0
@11160 , @0.5884593023255814 Channel: 2 
Note on, E2 key =  40;WhichDrum: S ; velocity: 127
@11220 , @0.5916230620155039 Channel: 2 
Note on, E2 key =  40;WhichDrum: S ; velocity: 0
@11220 , @0.5916230620155039 Channel: 2 
Note on, E2 key =  40;WhichDrum: S ; velocity: 127
@11280 , @0.5947868217054263 Channel: 2 
Note on, E2 key =  40;WhichDrum: S ; velocity: 0
@11280 , @0.5947868217054263 Channel: 2 
Note on, G3 key =  55;WhichDrum: C2 ; velocity: 127
@11280 , @0.5947868217054263 Channel: 2 
Note on, D3 key =  50;WhichDrum: T2 ; velocity: 127
@11340 , @0.5979505813953488 Channel: 2 
Note on, G3 key =  55;WhichDrum: C2 ; velocity: 0
@11340 , @0.5979505813953488 Channel: 2 
Note on, D3 key =  50;WhichDrum: T2 ; velocity: 0
@11340 , @0.5979505813953488 Channel: 2 
Note on, E3 key =  52;WhichDrum: S ; velocity: 127
@11340 , @0.5979505813953488 Channel: 2 
Note on, A3 key =  57;WhichDrum: T3 ; velocity: 127
@11400 , @0.6011143410852713 Channel: 2 
Note on, E3 key =  52;WhichDrum: S ; velocity: 0
@11400 , @0.6011143410852713 Channel: 2 
Note on, A3 key =  57;WhichDrum: T3 ; velocity: 0
@11400 , @0.6011143410852713 Channel: 2 
Note on, D3 key =  50;WhichDrum: T2 ; velocity: 127
@11400 , @0.6011143410852713 Channel: 2 
Note on, G3 key =  55;WhichDrum: C2 ; velocity: 127
@11460 , @0.6042781007751938 Channel: 2 
Note on, D3 key =  50;WhichDrum: T2 ; velocity: 0
@11460 , @0.6042781007751938 Channel: 2 
Note on, G3 key =  55;WhichDrum: C2 ; velocity: 0
@11460 , @0.6042781007751938 Channel: 2 
Note on, A3 key =  57;WhichDrum: T3 ; velocity: 127
@11460 , @0.6042781007751938 Channel: 2 
Note on, E3 key =  52;WhichDrum: S ; velocity: 127
@11520 , @0.6074418604651163 Channel: 2 
Note on, A3 key =  57;WhichDrum: T3 ; velocity: 0
@11520 , @0.6074418604651163 Channel: 2 
Note on, E3 key =  52;WhichDrum: S ; velocity: 0
@11520 , @0.6074418604651163 Channel: 2 
Note on, E2 key =  40;WhichDrum: S ; velocity: 127
@11580 , @0.6106056201550388 Channel: 2 
Note on, E2 key =  40;WhichDrum: S ; velocity: 0
@11580 , @0.6106056201550388 Channel: 2 
Note on, E2 key =  40;WhichDrum: S ; velocity: 127
@11640 , @0.6137693798449613 Channel: 2 
Note on, E2 key =  40;WhichDrum: S ; velocity: 0
@11640 , @0.6137693798449613 Channel: 2 
Note on, E2 key =  40;WhichDrum: S ; velocity: 127
@11700 , @0.6169331395348837 Channel: 2 
Note on, E2 key =  40;WhichDrum: S ; velocity: 0
@11700 , @0.6169331395348837 Channel: 2 
Note on, E2 key =  40;WhichDrum: S ; velocity: 127
@11760 , @0.6200968992248063 Channel: 2 
Note on, E2 key =  40;WhichDrum: S ; velocity: 0
@11760 , @0.6200968992248063 Channel: 2 
Note on, E3 key =  52;WhichDrum: S ; velocity: 127
@11820 , @0.6232606589147287 Channel: 2 
Note on, E3 key =  52;WhichDrum: S ; velocity: 0
@11820 , @0.6232606589147287 Channel: 2 
Note on, D3 key =  50;WhichDrum: T2 ; velocity: 127
@11880 , @0.6264244186046513 Channel: 2 
Note on, D3 key =  50;WhichDrum: T2 ; velocity: 0
@11880 , @0.6264244186046513 Channel: 2 
Note on, B2 key =  47;WhichDrum: T1 ; velocity: 127
@11940 , @0.6295881782945737 Channel: 2 
Note on, B2 key =  47;WhichDrum: T1 ; velocity: 0
@11940 , @0.6295881782945737 Channel: 2 
Note on, A#2 key =  46;WhichDrum: T2 ; velocity: 127
@12000 , @0.6327519379844961 Channel: 2 
Note on, A#2 key =  46;WhichDrum: T2 ; velocity: 0
@12000 , @0.6327519379844961 Channel: 2 
Note on, E2 key =  40;WhichDrum: S ; velocity: 127
@12060 , @0.6359156976744187 Channel: 2 
Note on, E2 key =  40;WhichDrum: S ; velocity: 0
@12060 , @0.6359156976744187 Channel: 2 
Note on, E2 key =  40;WhichDrum: S ; velocity: 127
@12120 , @0.639079457364341 Channel: 2 
Note on, E2 key =  40;WhichDrum: S ; velocity: 0
@12120 , @0.639079457364341 Channel: 2 
Note on, E2 key =  40;WhichDrum: S ; velocity: 127
@12180 , @0.6422432170542636 Channel: 2 
Note on, E2 key =  40;WhichDrum: S ; velocity: 0
@12180 , @0.6422432170542636 Channel: 2 
Note on, E2 key =  40;WhichDrum: S ; velocity: 127
@12240 , @0.645406976744186 Channel: 2 
Note on, E2 key =  40;WhichDrum: S ; velocity: 0
@12240 , @0.645406976744186 Channel: 2 
Note on, G3 key =  55;WhichDrum: C2 ; velocity: 127
@12240 , @0.645406976744186 Channel: 2 
Note on, D3 key =  50;WhichDrum: T2 ; velocity: 127
@12300 , @0.6485707364341086 Channel: 2 
Note on, G3 key =  55;WhichDrum: C2 ; velocity: 0
@12300 , @0.6485707364341086 Channel: 2 
Note on, D3 key =  50;WhichDrum: T2 ; velocity: 0
@12300 , @0.6485707364341086 Channel: 2 
Note on, E3 key =  52;WhichDrum: S ; velocity: 127
@12300 , @0.6485707364341086 Channel: 2 
Note on, A3 key =  57;WhichDrum: T3 ; velocity: 127
@12360 , @0.651734496124031 Channel: 2 
Note on, E3 key =  52;WhichDrum: S ; velocity: 0
@12360 , @0.651734496124031 Channel: 2 
Note on, A3 key =  57;WhichDrum: T3 ; velocity: 0
@12360 , @0.651734496124031 Channel: 2 
Note on, D3 key =  50;WhichDrum: T2 ; velocity: 127
@12360 , @0.651734496124031 Channel: 2 
Note on, G3 key =  55;WhichDrum: C2 ; velocity: 127
@12420 , @0.6548982558139534 Channel: 2 
Note on, D3 key =  50;WhichDrum: T2 ; velocity: 0
@12420 , @0.6548982558139534 Channel: 2 
Note on, G3 key =  55;WhichDrum: C2 ; velocity: 0
@12420 , @0.6548982558139534 Channel: 2 
Note on, A3 key =  57;WhichDrum: T3 ; velocity: 127
@12420 , @0.6548982558139534 Channel: 2 
Note on, E3 key =  52;WhichDrum: S ; velocity: 127
@12480 , @0.658062015503876 Channel: 2 
Note on, A3 key =  57;WhichDrum: T3 ; velocity: 0
@12480 , @0.658062015503876 Channel: 2 
Note on, E3 key =  52;WhichDrum: S ; velocity: 0
@12480 , @0.658062015503876 Channel: 2 
Note on, E2 key =  40;WhichDrum: S ; velocity: 127
@12540 , @0.6612257751937984 Channel: 2 
Note on, E2 key =  40;WhichDrum: S ; velocity: 0
@12540 , @0.6612257751937984 Channel: 2 
Note on, E2 key =  40;WhichDrum: S ; velocity: 127
@12600 , @0.664389534883721 Channel: 2 
Note on, E2 key =  40;WhichDrum: S ; velocity: 0
@12600 , @0.664389534883721 Channel: 2 
Note on, E2 key =  40;WhichDrum: S ; velocity: 127
@12660 , @0.6675532945736434 Channel: 2 
Note on, E2 key =  40;WhichDrum: S ; velocity: 0
@12660 , @0.6675532945736434 Channel: 2 
Note on, E2 key =  40;WhichDrum: S ; velocity: 127
@12720 , @0.670717054263566 Channel: 2 
Note on, E2 key =  40;WhichDrum: S ; velocity: 0
@12720 , @0.670717054263566 Channel: 2 
Note on, E3 key =  52;WhichDrum: S ; velocity: 127
@12780 , @0.6738808139534884 Channel: 2 
Note on, E3 key =  52;WhichDrum: S ; velocity: 0
@12780 , @0.6738808139534884 Channel: 2 
Note on, D3 key =  50;WhichDrum: T2 ; velocity: 127
@12840 , @0.6770445736434109 Channel: 2 
Note on, D3 key =  50;WhichDrum: T2 ; velocity: 0
@12840 , @0.6770445736434109 Channel: 2 
Note on, B2 key =  47;WhichDrum: T1 ; velocity: 127
@12900 , @0.6802083333333334 Channel: 2 
Note on, B2 key =  47;WhichDrum: T1 ; velocity: 0
@12900 , @0.6802083333333334 Channel: 2 
Note on, A#2 key =  46;WhichDrum: T2 ; velocity: 127
@12960 , @0.6833720930232559 Channel: 2 
Note on, A#2 key =  46;WhichDrum: T2 ; velocity: 0
@12960 , @0.6833720930232559 Channel: 2 
Note on, E2 key =  40;WhichDrum: S ; velocity: 127
@13020 , @0.6865358527131784 Channel: 2 
Note on, E2 key =  40;WhichDrum: S ; velocity: 0
@13020 , @0.6865358527131784 Channel: 2 
Note on, E2 key =  40;WhichDrum: S ; velocity: 127
@13080 , @0.6896996124031007 Channel: 2 
Note on, E2 key =  40;WhichDrum: S ; velocity: 0
@13080 , @0.6896996124031007 Channel: 2 
Note on, E2 key =  40;WhichDrum: S ; velocity: 127
@13140 , @0.6928633720930233 Channel: 2 
Note on, E2 key =  40;WhichDrum: S ; velocity: 0
@13140 , @0.6928633720930233 Channel: 2 
Note on, E2 key =  40;WhichDrum: S ; velocity: 127
@13200 , @0.6960271317829457 Channel: 2 
Note on, E2 key =  40;WhichDrum: S ; velocity: 0
@13200 , @0.6960271317829457 Channel: 2 
Note on, G3 key =  55;WhichDrum: C2 ; velocity: 127
@13200 , @0.6960271317829457 Channel: 2 
Note on, D3 key =  50;WhichDrum: T2 ; velocity: 127
@13260 , @0.6991908914728682 Channel: 2 
Note on, G3 key =  55;WhichDrum: C2 ; velocity: 0
@13260 , @0.6991908914728682 Channel: 2 
Note on, D3 key =  50;WhichDrum: T2 ; velocity: 0
@13260 , @0.6991908914728682 Channel: 2 
Note on, E3 key =  52;WhichDrum: S ; velocity: 127
@13260 , @0.6991908914728682 Channel: 2 
Note on, A3 key =  57;WhichDrum: T3 ; velocity: 127
@13320 , @0.7023546511627907 Channel: 2 
Note on, E3 key =  52;WhichDrum: S ; velocity: 0
@13320 , @0.7023546511627907 Channel: 2 
Note on, A3 key =  57;WhichDrum: T3 ; velocity: 0
@13320 , @0.7023546511627907 Channel: 2 
Note on, D3 key =  50;WhichDrum: T2 ; velocity: 127
@13320 , @0.7023546511627907 Channel: 2 
Note on, G3 key =  55;WhichDrum: C2 ; velocity: 127
@13380 , @0.7055184108527132 Channel: 2 
Note on, D3 key =  50;WhichDrum: T2 ; velocity: 0
@13380 , @0.7055184108527132 Channel: 2 
Note on, G3 key =  55;WhichDrum: C2 ; velocity: 0
@13380 , @0.7055184108527132 Channel: 2 
Note on, A3 key =  57;WhichDrum: T3 ; velocity: 127
@13380 , @0.7055184108527132 Channel: 2 
Note on, E3 key =  52;WhichDrum: S ; velocity: 127
@13440 , @0.7086821705426357 Channel: 2 
Note on, A3 key =  57;WhichDrum: T3 ; velocity: 0
@13440 , @0.7086821705426357 Channel: 2 
Note on, E3 key =  52;WhichDrum: S ; velocity: 0
@13440 , @0.7086821705426357 Channel: 2 
Note on, E2 key =  40;WhichDrum: S ; velocity: 127
@13500 , @0.7118459302325582 Channel: 2 
Note on, E2 key =  40;WhichDrum: S ; velocity: 0
@13500 , @0.7118459302325582 Channel: 2 
Note on, E2 key =  40;WhichDrum: S ; velocity: 127
@13560 , @0.7150096899224806 Channel: 2 
Note on, E2 key =  40;WhichDrum: S ; velocity: 0
@13560 , @0.7150096899224806 Channel: 2 
Note on, E2 key =  40;WhichDrum: S ; velocity: 127
@13620 , @0.7181734496124031 Channel: 2 
Note on, E2 key =  40;WhichDrum: S ; velocity: 0
@13620 , @0.7181734496124031 Channel: 2 
Note on, E2 key =  40;WhichDrum: S ; velocity: 127
@13680 , @0.7213372093023256 Channel: 2 
Note on, E2 key =  40;WhichDrum: S ; velocity: 0
@13680 , @0.7213372093023256 Channel: 2 
Note on, E3 key =  52;WhichDrum: S ; velocity: 127
@13740 , @0.7245009689922481 Channel: 2 
Note on, E3 key =  52;WhichDrum: S ; velocity: 0
@13740 , @0.7245009689922481 Channel: 2 
Note on, D3 key =  50;WhichDrum: T2 ; velocity: 127
@13800 , @0.7276647286821706 Channel: 2 
Note on, D3 key =  50;WhichDrum: T2 ; velocity: 0
@13800 , @0.7276647286821706 Channel: 2 
Note on, B2 key =  47;WhichDrum: T1 ; velocity: 127
@13860 , @0.7308284883720931 Channel: 2 
Note on, B2 key =  47;WhichDrum: T1 ; velocity: 0
@13860 , @0.7308284883720931 Channel: 2 
Note on, A#2 key =  46;WhichDrum: T2 ; velocity: 127
@13920 , @0.7339922480620156 Channel: 2 
Note on, A#2 key =  46;WhichDrum: T2 ; velocity: 0
@13920 , @0.7339922480620156 Channel: 2 
Note on, E2 key =  40;WhichDrum: S ; velocity: 127
@13980 , @0.737156007751938 Channel: 2 
Note on, E2 key =  40;WhichDrum: S ; velocity: 0
@13980 , @0.737156007751938 Channel: 2 
Note on, E2 key =  40;WhichDrum: S ; velocity: 127
@14040 , @0.7403197674418605 Channel: 2 
Note on, E2 key =  40;WhichDrum: S ; velocity: 0
@14040 , @0.7403197674418605 Channel: 2 
Note on, E2 key =  40;WhichDrum: S ; velocity: 127
@14100 , @0.7434835271317829 Channel: 2 
Note on, E2 key =  40;WhichDrum: S ; velocity: 0
@14100 , @0.7434835271317829 Channel: 2 
Note on, E2 key =  40;WhichDrum: S ; velocity: 127
@14160 , @0.7466472868217054 Channel: 2 
Note on, E2 key =  40;WhichDrum: S ; velocity: 0
@14160 , @0.7466472868217054 Channel: 2 
Note on, G3 key =  55;WhichDrum: C2 ; velocity: 127
@14160 , @0.7466472868217054 Channel: 2 
Note on, D3 key =  50;WhichDrum: T2 ; velocity: 127
@14220 , @0.7498110465116279 Channel: 2 
Note on, G3 key =  55;WhichDrum: C2 ; velocity: 0
@14220 , @0.7498110465116279 Channel: 2 
Note on, D3 key =  50;WhichDrum: T2 ; velocity: 0
@14220 , @0.7498110465116279 Channel: 2 
Note on, E3 key =  52;WhichDrum: S ; velocity: 127
@14220 , @0.7498110465116279 Channel: 2 
Note on, A3 key =  57;WhichDrum: T3 ; velocity: 127
@14280 , @0.7529748062015504 Channel: 2 
Note on, E3 key =  52;WhichDrum: S ; velocity: 0
@14280 , @0.7529748062015504 Channel: 2 
Note on, A3 key =  57;WhichDrum: T3 ; velocity: 0
@14280 , @0.7529748062015504 Channel: 2 
Note on, D3 key =  50;WhichDrum: T2 ; velocity: 127
@14280 , @0.7529748062015504 Channel: 2 
Note on, G3 key =  55;WhichDrum: C2 ; velocity: 127
@14340 , @0.7561385658914729 Channel: 2 
Note on, D3 key =  50;WhichDrum: T2 ; velocity: 0
@14340 , @0.7561385658914729 Channel: 2 
Note on, G3 key =  55;WhichDrum: C2 ; velocity: 0
@14340 , @0.7561385658914729 Channel: 2 
Note on, A3 key =  57;WhichDrum: T3 ; velocity: 127
@14340 , @0.7561385658914729 Channel: 2 
Note on, E3 key =  52;WhichDrum: S ; velocity: 127
@14400 , @0.7593023255813953 Channel: 2 
Note on, A3 key =  57;WhichDrum: T3 ; velocity: 0
@14400 , @0.7593023255813953 Channel: 2 
Note on, E3 key =  52;WhichDrum: S ; velocity: 0
@14400 , @0.7593023255813953 Channel: 2 
Note on, E2 key =  40;WhichDrum: S ; velocity: 127
@14460 , @0.7624660852713179 Channel: 2 
Note on, E2 key =  40;WhichDrum: S ; velocity: 0
@14460 , @0.7624660852713179 Channel: 2 
Note on, E2 key =  40;WhichDrum: S ; velocity: 127
@14520 , @0.7656298449612403 Channel: 2 
Note on, E2 key =  40;WhichDrum: S ; velocity: 0
@14520 , @0.7656298449612403 Channel: 2 
Note on, E2 key =  40;WhichDrum: S ; velocity: 127
@14580 , @0.7687936046511629 Channel: 2 
Note on, E2 key =  40;WhichDrum: S ; velocity: 0
@14580 , @0.7687936046511629 Channel: 2 
Note on, E2 key =  40;WhichDrum: S ; velocity: 127
@14640 , @0.7719573643410853 Channel: 2 
Note on, E2 key =  40;WhichDrum: S ; velocity: 0
@14640 , @0.7719573643410853 Channel: 2 
Note on, E3 key =  52;WhichDrum: S ; velocity: 127
@14700 , @0.7751211240310077 Channel: 2 
Note on, E3 key =  52;WhichDrum: S ; velocity: 0
@14700 , @0.7751211240310077 Channel: 2 
Note on, D3 key =  50;WhichDrum: T2 ; velocity: 127
@14760 , @0.7782848837209303 Channel: 2 
Note on, D3 key =  50;WhichDrum: T2 ; velocity: 0
@14760 , @0.7782848837209303 Channel: 2 
Note on, B2 key =  47;WhichDrum: T1 ; velocity: 127
@14820 , @0.7814486434108527 Channel: 2 
Note on, B2 key =  47;WhichDrum: T1 ; velocity: 0
@14820 , @0.7814486434108527 Channel: 2 
Note on, A#2 key =  46;WhichDrum: T2 ; velocity: 127
@14880 , @0.7846124031007753 Channel: 2 
Note on, A#2 key =  46;WhichDrum: T2 ; velocity: 0
@14880 , @0.7846124031007753 Channel: 2 
Note on, E2 key =  40;WhichDrum: S ; velocity: 127
@14940 , @0.7877761627906977 Channel: 2 
Note on, E2 key =  40;WhichDrum: S ; velocity: 0
@14940 , @0.7877761627906977 Channel: 2 
Note on, E2 key =  40;WhichDrum: S ; velocity: 127
@15000 , @0.7909399224806202 Channel: 2 
Note on, E2 key =  40;WhichDrum: S ; velocity: 0
@15000 , @0.7909399224806202 Channel: 2 
Note on, E2 key =  40;WhichDrum: S ; velocity: 127
@15060 , @0.7941036821705426 Channel: 2 
Note on, E2 key =  40;WhichDrum: S ; velocity: 0
@15060 , @0.7941036821705426 Channel: 2 
Note on, E2 key =  40;WhichDrum: S ; velocity: 127
@15120 , @0.7972674418604652 Channel: 2 
Note on, E2 key =  40;WhichDrum: S ; velocity: 0
@15120 , @0.7972674418604652 Channel: 2 
Note on, G3 key =  55;WhichDrum: C2 ; velocity: 127
@15120 , @0.7972674418604652 Channel: 2 
Note on, D3 key =  50;WhichDrum: T2 ; velocity: 127
@15180 , @0.8004312015503876 Channel: 2 
Note on, G3 key =  55;WhichDrum: C2 ; velocity: 0
@15180 , @0.8004312015503876 Channel: 2 
Note on, D3 key =  50;WhichDrum: T2 ; velocity: 0
@15180 , @0.8004312015503876 Channel: 2 
Note on, E3 key =  52;WhichDrum: S ; velocity: 127
@15180 , @0.8004312015503876 Channel: 2 
Note on, A3 key =  57;WhichDrum: T3 ; velocity: 127
@15240 , @0.80359496124031 Channel: 2 
Note on, E3 key =  52;WhichDrum: S ; velocity: 0
@15240 , @0.80359496124031 Channel: 2 
Note on, A3 key =  57;WhichDrum: T3 ; velocity: 0
@15240 , @0.80359496124031 Channel: 2 
Note on, D3 key =  50;WhichDrum: T2 ; velocity: 127
@15240 , @0.80359496124031 Channel: 2 
Note on, G3 key =  55;WhichDrum: C2 ; velocity: 127
@15300 , @0.8067587209302326 Channel: 2 
Note on, D3 key =  50;WhichDrum: T2 ; velocity: 0
@15300 , @0.8067587209302326 Channel: 2 
Note on, G3 key =  55;WhichDrum: C2 ; velocity: 0
@15300 , @0.8067587209302326 Channel: 2 
Note on, A3 key =  57;WhichDrum: T3 ; velocity: 127
@15300 , @0.8067587209302326 Channel: 2 
Note on, E3 key =  52;WhichDrum: S ; velocity: 127
@15360 , @0.809922480620155 Channel: 2 
Note on, A3 key =  57;WhichDrum: T3 ; velocity: 0
@15360 , @0.809922480620155 Channel: 2 
Note on, E3 key =  52;WhichDrum: S ; velocity: 0
@15360 , @0.809922480620155 Channel: 2 
Note on, E2 key =  40;WhichDrum: S ; velocity: 127
@15420 , @0.8130862403100776 Channel: 2 
Note on, E2 key =  40;WhichDrum: S ; velocity: 0
@15420 , @0.8130862403100776 Channel: 2 
Note on, E2 key =  40;WhichDrum: S ; velocity: 127
@15480 , @0.81625 Channel: 2 
Note on, E2 key =  40;WhichDrum: S ; velocity: 0
@15480 , @0.81625 Channel: 2 
Note on, E2 key =  40;WhichDrum: S ; velocity: 127
@15540 , @0.8194137596899225 Channel: 2 
Note on, E2 key =  40;WhichDrum: S ; velocity: 0
@15540 , @0.8194137596899225 Channel: 2 
Note on, E2 key =  40;WhichDrum: S ; velocity: 127
@15600 , @0.822577519379845 Channel: 2 
Note on, E2 key =  40;WhichDrum: S ; velocity: 0
@15600 , @0.822577519379845 Channel: 2 
Note on, E3 key =  52;WhichDrum: S ; velocity: 127
@15660 , @0.8257412790697675 Channel: 2 
Note on, E3 key =  52;WhichDrum: S ; velocity: 0
@15660 , @0.8257412790697675 Channel: 2 
Note on, D3 key =  50;WhichDrum: T2 ; velocity: 127
@15720 , @0.82890503875969 Channel: 2 
Note on, D3 key =  50;WhichDrum: T2 ; velocity: 0
@15720 , @0.82890503875969 Channel: 2 
Note on, B2 key =  47;WhichDrum: T1 ; velocity: 127
@15780 , @0.8320687984496125 Channel: 2 
Note on, B2 key =  47;WhichDrum: T1 ; velocity: 0
@15780 , @0.8320687984496125 Channel: 2 
Note on, A#2 key =  46;WhichDrum: T2 ; velocity: 127
@15840 , @0.8352325581395349 Channel: 2 
Note on, A#2 key =  46;WhichDrum: T2 ; velocity: 0
@15840 , @0.8352325581395349 Channel: 2 
Note on, E2 key =  40;WhichDrum: S ; velocity: 127
@15900 , @0.8383963178294574 Channel: 2 
Note on, E2 key =  40;WhichDrum: S ; velocity: 0
@15900 , @0.8383963178294574 Channel: 2 
Note on, E2 key =  40;WhichDrum: S ; velocity: 127
@15960 , @0.8415600775193799 Channel: 2 
Note on, E2 key =  40;WhichDrum: S ; velocity: 0
@15960 , @0.8415600775193799 Channel: 2 
Note on, E2 key =  40;WhichDrum: S ; velocity: 127
@16020 , @0.8447238372093024 Channel: 2 
Note on, E2 key =  40;WhichDrum: S ; velocity: 0
@16020 , @0.8447238372093024 Channel: 2 
Note on, E2 key =  40;WhichDrum: S ; velocity: 127
@16080 , @0.8478875968992249 Channel: 2 
Note on, E2 key =  40;WhichDrum: S ; velocity: 0
@16080 , @0.8478875968992249 Channel: 2 
Note on, E2 key =  40;WhichDrum: S ; velocity: 127
@16140 , @0.8510513565891474 Channel: 2 
Note on, E2 key =  40;WhichDrum: S ; velocity: 0
@16140 , @0.8510513565891474 Channel: 2 
Note on, E2 key =  40;WhichDrum: S ; velocity: 127
@16200 , @0.8542151162790699 Channel: 2 
Note on, E2 key =  40;WhichDrum: S ; velocity: 0
@16200 , @0.8542151162790699 Channel: 2 
Note on, E2 key =  40;WhichDrum: S ; velocity: 127
@16260 , @0.8573788759689923 Channel: 2 
Note on, E2 key =  40;WhichDrum: S ; velocity: 0
@16260 , @0.8573788759689923 Channel: 2 
Note on, E2 key =  40;WhichDrum: S ; velocity: 127
@16320 , @0.8605426356589149 Channel: 2 
Note on, E2 key =  40;WhichDrum: S ; velocity: 0
@16320 , @0.8605426356589149 Channel: 2 
Note on, E2 key =  40;WhichDrum: S ; velocity: 127
@16380 , @0.8637063953488373 Channel: 2 
Note on, E2 key =  40;WhichDrum: S ; velocity: 0
@16380 , @0.8637063953488373 Channel: 2 
Note on, E2 key =  40;WhichDrum: S ; velocity: 127
@16440 , @0.8668701550387599 Channel: 2 
Note on, E2 key =  40;WhichDrum: S ; velocity: 0
@16440 , @0.8668701550387599 Channel: 2 
Note on, E2 key =  40;WhichDrum: S ; velocity: 127
@16500 , @0.8700339147286821 Channel: 2 
Note on, E2 key =  40;WhichDrum: S ; velocity: 0
@16500 , @0.8700339147286821 Channel: 2 
Note on, E2 key =  40;WhichDrum: S ; velocity: 127
@16560 , @0.8731976744186046 Channel: 2 
Note on, E2 key =  40;WhichDrum: S ; velocity: 0
@16560 , @0.8731976744186046 Channel: 2 
Note on, B2 key =  47;WhichDrum: T1 ; velocity: 127
@16620 , @0.8763614341085271 Channel: 2 
Note on, B2 key =  47;WhichDrum: T1 ; velocity: 0
@16620 , @0.8763614341085271 Channel: 2 
Note on, A#2 key =  46;WhichDrum: T2 ; velocity: 127
@16680 , @0.8795251937984496 Channel: 2 
Note on, A#2 key =  46;WhichDrum: T2 ; velocity: 0
@16680 , @0.8795251937984496 Channel: 2 
Note on, G3 key =  55;WhichDrum: C2 ; velocity: 127
@16740 , @0.8826889534883721 Channel: 2 
Note on, G3 key =  55;WhichDrum: C2 ; velocity: 0
@16740 , @0.8826889534883721 Channel: 2 
Note on, E3 key =  52;WhichDrum: S ; velocity: 127
@16800 , @0.8858527131782945 Channel: 2 
Note on, E3 key =  52;WhichDrum: S ; velocity: 0
@16800 , @0.8858527131782945 Channel: 2 
Note on, E2 key =  40;WhichDrum: S ; velocity: 127
@16860 , @0.8890164728682171 Channel: 2 
Note on, E2 key =  40;WhichDrum: S ; velocity: 0
@16860 , @0.8890164728682171 Channel: 2 
Note on, E2 key =  40;WhichDrum: S ; velocity: 127
@16920 , @0.8921802325581395 Channel: 2 
Note on, E2 key =  40;WhichDrum: S ; velocity: 0
@16920 , @0.8921802325581395 Channel: 2 
Note on, E2 key =  40;WhichDrum: S ; velocity: 127
@16980 , @0.895343992248062 Channel: 2 
Note on, E2 key =  40;WhichDrum: S ; velocity: 0
@16980 , @0.895343992248062 Channel: 2 
Note on, E2 key =  40;WhichDrum: S ; velocity: 127
@17040 , @0.8985077519379845 Channel: 2 
Note on, E2 key =  40;WhichDrum: S ; velocity: 0
@17040 , @0.8985077519379845 Channel: 2 
Note on, E2 key =  40;WhichDrum: S ; velocity: 127
@17100 , @0.9016715116279069 Channel: 2 
Note on, E2 key =  40;WhichDrum: S ; velocity: 0
@17100 , @0.9016715116279069 Channel: 2 
Note on, E2 key =  40;WhichDrum: S ; velocity: 127
@17160 , @0.9048352713178295 Channel: 2 
Note on, E2 key =  40;WhichDrum: S ; velocity: 0
@17160 , @0.9048352713178295 Channel: 2 
Note on, E2 key =  40;WhichDrum: S ; velocity: 127
@17220 , @0.9079990310077519 Channel: 2 
Note on, E2 key =  40;WhichDrum: S ; velocity: 0
@17220 , @0.9079990310077519 Channel: 2 
Note on, E2 key =  40;WhichDrum: S ; velocity: 127
@17280 , @0.9111627906976745 Channel: 2 
Note on, E2 key =  40;WhichDrum: S ; velocity: 0
@17280 , @0.9111627906976745 Channel: 2 
Note on, E2 key =  40;WhichDrum: S ; velocity: 127
@17340 , @0.9143265503875969 Channel: 2 
Note on, E2 key =  40;WhichDrum: S ; velocity: 0
@17340 , @0.9143265503875969 Channel: 2 
Note on, E2 key =  40;WhichDrum: S ; velocity: 127
@17400 , @0.9174903100775195 Channel: 2 
Note on, E2 key =  40;WhichDrum: S ; velocity: 0
@17400 , @0.9174903100775195 Channel: 2 
Note on, E2 key =  40;WhichDrum: S ; velocity: 127
@17460 , @0.9206540697674419 Channel: 2 
Note on, E2 key =  40;WhichDrum: S ; velocity: 0
@17460 , @0.9206540697674419 Channel: 2 
Note on, E2 key =  40;WhichDrum: S ; velocity: 127
@17520 , @0.9238178294573643 Channel: 2 
Note on, E2 key =  40;WhichDrum: S ; velocity: 0
@17520 , @0.9238178294573643 Channel: 2 
Note on, B2 key =  47;WhichDrum: T1 ; velocity: 127
@17580 , @0.9269815891472869 Channel: 2 
Note on, B2 key =  47;WhichDrum: T1 ; velocity: 0
@17580 , @0.9269815891472869 Channel: 2 
Note on, A#2 key =  46;WhichDrum: T2 ; velocity: 127
@17640 , @0.9301453488372093 Channel: 2 
Note on, A#2 key =  46;WhichDrum: T2 ; velocity: 0
@17640 , @0.9301453488372093 Channel: 2 
Note on, G3 key =  55;WhichDrum: C2 ; velocity: 127
@17700 , @0.9333091085271319 Channel: 2 
Note on, G3 key =  55;WhichDrum: C2 ; velocity: 0
@17700 , @0.9333091085271319 Channel: 2 
Note on, E3 key =  52;WhichDrum: S ; velocity: 127
@17760 , @0.9364728682170543 Channel: 2 
Note on, E3 key =  52;WhichDrum: S ; velocity: 0
@17760 , @0.9364728682170543 Channel: 2 
Note on, E2 key =  40;WhichDrum: S ; velocity: 127
@17820 , @0.9396366279069768 Channel: 2 
Note on, E2 key =  40;WhichDrum: S ; velocity: 0
@17820 , @0.9396366279069768 Channel: 2 
Note on, E2 key =  40;WhichDrum: S ; velocity: 127
@17880 , @0.9428003875968993 Channel: 2 
Note on, E2 key =  40;WhichDrum: S ; velocity: 0
@17880 , @0.9428003875968993 Channel: 2 
Note on, E2 key =  40;WhichDrum: S ; velocity: 127
@17940 , @0.9459641472868218 Channel: 2 
Note on, E2 key =  40;WhichDrum: S ; velocity: 0
@17940 , @0.9459641472868218 Channel: 2 
Note on, E2 key =  40;WhichDrum: S ; velocity: 127
@18000 , @0.9491279069767443 Channel: 2 
Note on, E2 key =  40;WhichDrum: S ; velocity: 0
@18000 , @0.9491279069767443 Channel: 2 
Note on, E2 key =  40;WhichDrum: S ; velocity: 127
@18060 , @0.9522916666666668 Channel: 2 
Note on, E2 key =  40;WhichDrum: S ; velocity: 0
@18060 , @0.9522916666666668 Channel: 2 
Note on, E2 key =  40;WhichDrum: S ; velocity: 127
@18120 , @0.9554554263565892 Channel: 2 
Note on, E2 key =  40;WhichDrum: S ; velocity: 0
@18120 , @0.9554554263565892 Channel: 2 
Note on, E2 key =  40;WhichDrum: S ; velocity: 127
@18180 , @0.9586191860465118 Channel: 2 
Note on, E2 key =  40;WhichDrum: S ; velocity: 0
@18180 , @0.9586191860465118 Channel: 2 
Note on, E2 key =  40;WhichDrum: S ; velocity: 127
@18240 , @0.9617829457364342 Channel: 2 
Note on, E2 key =  40;WhichDrum: S ; velocity: 0
@18240 , @0.9617829457364342 Channel: 2 
Note on, E2 key =  40;WhichDrum: S ; velocity: 127
@18300 , @0.9649467054263567 Channel: 2 
Note on, E2 key =  40;WhichDrum: S ; velocity: 0
@18300 , @0.9649467054263567 Channel: 2 
Note on, E2 key =  40;WhichDrum: S ; velocity: 127
@18360 , @0.9681104651162792 Channel: 2 
Note on, E2 key =  40;WhichDrum: S ; velocity: 0
@18360 , @0.9681104651162792 Channel: 2 
Note on, E2 key =  40;WhichDrum: S ; velocity: 127
@18420 , @0.9712742248062015 Channel: 2 
Note on, E2 key =  40;WhichDrum: S ; velocity: 0
@18420 , @0.9712742248062015 Channel: 2 
Note on, E2 key =  40;WhichDrum: S ; velocity: 127
@18480 , @0.974437984496124 Channel: 2 
Note on, E2 key =  40;WhichDrum: S ; velocity: 0
@18480 , @0.974437984496124 Channel: 2 
Note on, B2 key =  47;WhichDrum: T1 ; velocity: 127
@18540 , @0.9776017441860465 Channel: 2 
Note on, B2 key =  47;WhichDrum: T1 ; velocity: 0
@18540 , @0.9776017441860465 Channel: 2 
Note on, A#2 key =  46;WhichDrum: T2 ; velocity: 127
@18600 , @0.980765503875969 Channel: 2 
Note on, A#2 key =  46;WhichDrum: T2 ; velocity: 0
@18600 , @0.980765503875969 Channel: 2 
Note on, G3 key =  55;WhichDrum: C2 ; velocity: 127
@18660 , @0.9839292635658915 Channel: 2 
Note on, G3 key =  55;WhichDrum: C2 ; velocity: 0
@18660 , @0.9839292635658915 Channel: 2 
Note on, E3 key =  52;WhichDrum: S ; velocity: 127
@18720 , @0.9870930232558139 Channel: 2 
Note on, E3 key =  52;WhichDrum: S ; velocity: 0
@18720 , @0.9870930232558139 Channel: 2 
Note on, E2 key =  40;WhichDrum: S ; velocity: 127
@18780 , @0.9902567829457364 Channel: 2 
Note on, E2 key =  40;WhichDrum: S ; velocity: 0
@18780 , @0.9902567829457364 Channel: 2 
Note on, E2 key =  40;WhichDrum: S ; velocity: 127
@18840 , @0.9934205426356589 Channel: 2 
Note on, E2 key =  40;WhichDrum: S ; velocity: 0
@18840 , @0.9934205426356589 Channel: 2 
Note on, E2 key =  40;WhichDrum: S ; velocity: 127
@18900 , @0.9965843023255814 Channel: 2 
Note on, E2 key =  40;WhichDrum: S ; velocity: 0
@18900 , @0.9965843023255814 Channel: 2 
Note on, E2 key =  40;WhichDrum: S ; velocity: 127
@18960 , @0.9997480620155039 Channel: 2 
Note on, E2 key =  40;WhichDrum: S ; velocity: 0
@18960 , @0.9997480620155039 Channel: 2 
Note on, E2 key =  40;WhichDrum: S ; velocity: 127
@19020 , @1.0029118217054263 Channel: 2 
Note on, E2 key =  40;WhichDrum: S ; velocity: 0
@19020 , @1.0029118217054263 Channel: 2 
Note on, E2 key =  40;WhichDrum: S ; velocity: 127
@19080 , @1.0060755813953488 Channel: 2 
Note on, E2 key =  40;WhichDrum: S ; velocity: 0
@19080 , @1.0060755813953488 Channel: 2 
Note on, E2 key =  40;WhichDrum: S ; velocity: 127
@19140 , @1.0092393410852714 Channel: 2 
Note on, E2 key =  40;WhichDrum: S ; velocity: 0
@19140 , @1.0092393410852714 Channel: 2 
Note on, E2 key =  40;WhichDrum: S ; velocity: 127
@19200 , @1.012403100775194 Channel: 2 
Note on, E2 key =  40;WhichDrum: S ; velocity: 0
@19200 , @1.012403100775194 Channel: 2 
Note on, E2 key =  40;WhichDrum: S ; velocity: 127
@19260 , @1.0155668604651162 Channel: 2 
Note on, E2 key =  40;WhichDrum: S ; velocity: 0
@19260 , @1.0155668604651162 Channel: 2 
Note on, E2 key =  40;WhichDrum: S ; velocity: 127
@19320 , @1.0187306201550388 Channel: 2 
Note on, E2 key =  40;WhichDrum: S ; velocity: 0
@19320 , @1.0187306201550388 Channel: 2 
Note on, E2 key =  40;WhichDrum: S ; velocity: 127
@19380 , @1.0218943798449613 Channel: 2 
Note on, E2 key =  40;WhichDrum: S ; velocity: 0
@19380 , @1.0218943798449613 Channel: 2 
Note on, E2 key =  40;WhichDrum: S ; velocity: 127
@19440 , @1.0250581395348837 Channel: 2 
Note on, E2 key =  40;WhichDrum: S ; velocity: 0
@19440 , @1.0250581395348837 Channel: 2 
Note on, B2 key =  47;WhichDrum: T1 ; velocity: 127
@19500 , @1.0282218992248062 Channel: 2 
Note on, B2 key =  47;WhichDrum: T1 ; velocity: 0
@19500 , @1.0282218992248062 Channel: 2 
Note on, A#2 key =  46;WhichDrum: T2 ; velocity: 127
@19560 , @1.0313856589147288 Channel: 2 
Note on, A#2 key =  46;WhichDrum: T2 ; velocity: 0
@19560 , @1.0313856589147288 Channel: 2 
Note on, G3 key =  55;WhichDrum: C2 ; velocity: 127
@19620 , @1.0345494186046513 Channel: 2 
Note on, G3 key =  55;WhichDrum: C2 ; velocity: 0
@19620 , @1.0345494186046513 Channel: 2 
Note on, E3 key =  52;WhichDrum: S ; velocity: 127
@19680 , @1.0377131782945737 Channel: 2 
Note on, E3 key =  52;WhichDrum: S ; velocity: 0
@19680 , @1.0377131782945737 Channel: 2 
Note on, E2 key =  40;WhichDrum: S ; velocity: 127
@19740 , @1.0408769379844962 Channel: 2 
Note on, E2 key =  40;WhichDrum: S ; velocity: 0
@19740 , @1.0408769379844962 Channel: 2 
Note on, E2 key =  40;WhichDrum: S ; velocity: 127
@19800 , @1.0440406976744188 Channel: 2 
Note on, E2 key =  40;WhichDrum: S ; velocity: 0
@19800 , @1.0440406976744188 Channel: 2 
Note on, E2 key =  40;WhichDrum: S ; velocity: 127
@19860 , @1.047204457364341 Channel: 2 
Note on, E2 key =  40;WhichDrum: S ; velocity: 0
@19860 , @1.047204457364341 Channel: 2 
Note on, E2 key =  40;WhichDrum: S ; velocity: 127
@19920 , @1.0503682170542636 Channel: 2 
Note on, E2 key =  40;WhichDrum: S ; velocity: 0
@19920 , @1.0503682170542636 Channel: 2 
Note on, E2 key =  40;WhichDrum: S ; velocity: 127
@19980 , @1.0535319767441862 Channel: 2 
Note on, E2 key =  40;WhichDrum: S ; velocity: 0
@19980 , @1.0535319767441862 Channel: 2 
Note on, E2 key =  40;WhichDrum: S ; velocity: 127
@20040 , @1.0566957364341085 Channel: 2 
Note on, E2 key =  40;WhichDrum: S ; velocity: 0
@20040 , @1.0566957364341085 Channel: 2 
Note on, E2 key =  40;WhichDrum: S ; velocity: 127
@20100 , @1.059859496124031 Channel: 2 
Note on, E2 key =  40;WhichDrum: S ; velocity: 0
@20100 , @1.059859496124031 Channel: 2 
Note on, E2 key =  40;WhichDrum: S ; velocity: 127
@20160 , @1.0630232558139536 Channel: 2 
Note on, E2 key =  40;WhichDrum: S ; velocity: 0
@20160 , @1.0630232558139536 Channel: 2 
Note on, E2 key =  40;WhichDrum: S ; velocity: 127
@20220 , @1.0661870155038762 Channel: 2 
Note on, E2 key =  40;WhichDrum: S ; velocity: 0
@20220 , @1.0661870155038762 Channel: 2 
Note on, E2 key =  40;WhichDrum: S ; velocity: 127
@20280 , @1.0693507751937985 Channel: 2 
Note on, E2 key =  40;WhichDrum: S ; velocity: 0
@20280 , @1.0693507751937985 Channel: 2 
Note on, E2 key =  40;WhichDrum: S ; velocity: 127
@20340 , @1.0725145348837208 Channel: 2 
Note on, E2 key =  40;WhichDrum: S ; velocity: 0
@20340 , @1.0725145348837208 Channel: 2 
Note on, E2 key =  40;WhichDrum: S ; velocity: 127
@20400 , @1.0756782945736434 Channel: 2 
Note on, E2 key =  40;WhichDrum: S ; velocity: 0
@20400 , @1.0756782945736434 Channel: 2 
Note on, B2 key =  47;WhichDrum: T1 ; velocity: 127
@20460 , @1.078842054263566 Channel: 2 
Note on, B2 key =  47;WhichDrum: T1 ; velocity: 0
@20460 , @1.078842054263566 Channel: 2 
Note on, A#2 key =  46;WhichDrum: T2 ; velocity: 127
@20520 , @1.0820058139534883 Channel: 2 
Note on, A#2 key =  46;WhichDrum: T2 ; velocity: 0
@20520 , @1.0820058139534883 Channel: 2 
Note on, G3 key =  55;WhichDrum: C2 ; velocity: 127
@20580 , @1.0851695736434108 Channel: 2 
Note on, G3 key =  55;WhichDrum: C2 ; velocity: 0
@20580 , @1.0851695736434108 Channel: 2 
Note on, E3 key =  52;WhichDrum: S ; velocity: 127
@20640 , @1.0883333333333334 Channel: 2 
Note on, E3 key =  52;WhichDrum: S ; velocity: 0
@20640 , @1.0883333333333334 Channel: 2 
Note on, E2 key =  40;WhichDrum: S ; velocity: 127
@20700 , @1.0914970930232557 Channel: 2 
Note on, E2 key =  40;WhichDrum: S ; velocity: 0
@20700 , @1.0914970930232557 Channel: 2 
Note on, E2 key =  40;WhichDrum: S ; velocity: 127
@20760 , @1.0946608527131783 Channel: 2 
Note on, E2 key =  40;WhichDrum: S ; velocity: 0
@20760 , @1.0946608527131783 Channel: 2 
Note on, E2 key =  40;WhichDrum: S ; velocity: 127
@20820 , @1.0978246124031008 Channel: 2 
Note on, E2 key =  40;WhichDrum: S ; velocity: 0
@20820 , @1.0978246124031008 Channel: 2 
Note on, E2 key =  40;WhichDrum: S ; velocity: 127
@20880 , @1.1009883720930234 Channel: 2 
Note on, E2 key =  40;WhichDrum: S ; velocity: 0
@20880 , @1.1009883720930234 Channel: 2 
Note on, E2 key =  40;WhichDrum: S ; velocity: 127
@20940 , @1.1041521317829457 Channel: 2 
Note on, E2 key =  40;WhichDrum: S ; velocity: 0
@20940 , @1.1041521317829457 Channel: 2 
Note on, E2 key =  40;WhichDrum: S ; velocity: 127
@21000 , @1.1073158914728682 Channel: 2 
Note on, E2 key =  40;WhichDrum: S ; velocity: 0
@21000 , @1.1073158914728682 Channel: 2 
Note on, E2 key =  40;WhichDrum: S ; velocity: 127
@21060 , @1.1104796511627908 Channel: 2 
Note on, E2 key =  40;WhichDrum: S ; velocity: 0
@21060 , @1.1104796511627908 Channel: 2 
Note on, E2 key =  40;WhichDrum: S ; velocity: 127
@21120 , @1.1136434108527131 Channel: 2 
Note on, E2 key =  40;WhichDrum: S ; velocity: 0
@21120 , @1.1136434108527131 Channel: 2 
Note on, E2 key =  40;WhichDrum: S ; velocity: 127
@21180 , @1.1168071705426357 Channel: 2 
Note on, E2 key =  40;WhichDrum: S ; velocity: 0
@21180 , @1.1168071705426357 Channel: 2 
Note on, E2 key =  40;WhichDrum: S ; velocity: 127
@21240 , @1.1199709302325582 Channel: 2 
Note on, E2 key =  40;WhichDrum: S ; velocity: 0
@21240 , @1.1199709302325582 Channel: 2 
Note on, E2 key =  40;WhichDrum: S ; velocity: 127
@21300 , @1.1231346899224806 Channel: 2 
Note on, E2 key =  40;WhichDrum: S ; velocity: 0
@21300 , @1.1231346899224806 Channel: 2 
Note on, E2 key =  40;WhichDrum: S ; velocity: 127
@21360 , @1.126298449612403 Channel: 2 
Note on, E2 key =  40;WhichDrum: S ; velocity: 0
@21360 , @1.126298449612403 Channel: 2 
Note on, B2 key =  47;WhichDrum: T1 ; velocity: 127
@21420 , @1.1294622093023257 Channel: 2 
Note on, B2 key =  47;WhichDrum: T1 ; velocity: 0
@21420 , @1.1294622093023257 Channel: 2 
Note on, A#2 key =  46;WhichDrum: T2 ; velocity: 127
@21480 , @1.1326259689922482 Channel: 2 
Note on, A#2 key =  46;WhichDrum: T2 ; velocity: 0
@21480 , @1.1326259689922482 Channel: 2 
Note on, G3 key =  55;WhichDrum: C2 ; velocity: 127
@21540 , @1.1357897286821705 Channel: 2 
Note on, G3 key =  55;WhichDrum: C2 ; velocity: 0
@21540 , @1.1357897286821705 Channel: 2 
Note on, E3 key =  52;WhichDrum: S ; velocity: 127
@21600 , @1.138953488372093 Channel: 2 
Note on, E3 key =  52;WhichDrum: S ; velocity: 0
@21600 , @1.138953488372093 Channel: 2 
Note on, E2 key =  40;WhichDrum: S ; velocity: 127
@21660 , @1.1421172480620156 Channel: 2 
Note on, E2 key =  40;WhichDrum: S ; velocity: 0
@21660 , @1.1421172480620156 Channel: 2 
Note on, E2 key =  40;WhichDrum: S ; velocity: 127
@21720 , @1.145281007751938 Channel: 2 
Note on, E2 key =  40;WhichDrum: S ; velocity: 0
@21720 , @1.145281007751938 Channel: 2 
Note on, E2 key =  40;WhichDrum: S ; velocity: 127
@21780 , @1.1484447674418605 Channel: 2 
Note on, E2 key =  40;WhichDrum: S ; velocity: 0
@21780 , @1.1484447674418605 Channel: 2 
Note on, E2 key =  40;WhichDrum: S ; velocity: 127
@21840 , @1.151608527131783 Channel: 2 
Note on, E2 key =  40;WhichDrum: S ; velocity: 0
@21840 , @1.151608527131783 Channel: 2 
Note on, E2 key =  40;WhichDrum: S ; velocity: 127
@21900 , @1.1547722868217056 Channel: 2 
Note on, E2 key =  40;WhichDrum: S ; velocity: 0
@21900 , @1.1547722868217056 Channel: 2 
Note on, E2 key =  40;WhichDrum: S ; velocity: 127
@21960 , @1.157936046511628 Channel: 2 
Note on, E2 key =  40;WhichDrum: S ; velocity: 0
@21960 , @1.157936046511628 Channel: 2 
Note on, E2 key =  40;WhichDrum: S ; velocity: 127
@22020 , @1.1610998062015505 Channel: 2 
Note on, E2 key =  40;WhichDrum: S ; velocity: 0
@22020 , @1.1610998062015505 Channel: 2 
Note on, E2 key =  40;WhichDrum: S ; velocity: 127
@22080 , @1.164263565891473 Channel: 2 
Note on, E2 key =  40;WhichDrum: S ; velocity: 0
@22080 , @1.164263565891473 Channel: 2 
Note on, E2 key =  40;WhichDrum: S ; velocity: 127
@22140 , @1.1674273255813954 Channel: 2 
Note on, E2 key =  40;WhichDrum: S ; velocity: 0
@22140 , @1.1674273255813954 Channel: 2 
Note on, E2 key =  40;WhichDrum: S ; velocity: 127
@22200 , @1.170591085271318 Channel: 2 
Note on, E2 key =  40;WhichDrum: S ; velocity: 0
@22200 , @1.170591085271318 Channel: 2 
Note on, E2 key =  40;WhichDrum: S ; velocity: 127
@22260 , @1.1737548449612403 Channel: 2 
Note on, E2 key =  40;WhichDrum: S ; velocity: 0
@22260 , @1.1737548449612403 Channel: 2 
Note on, E2 key =  40;WhichDrum: S ; velocity: 127
@22320 , @1.1769186046511628 Channel: 2 
Note on, E2 key =  40;WhichDrum: S ; velocity: 0
@22320 , @1.1769186046511628 Channel: 2 
Note on, B2 key =  47;WhichDrum: T1 ; velocity: 127
@22380 , @1.1800823643410852 Channel: 2 
Note on, B2 key =  47;WhichDrum: T1 ; velocity: 0
@22380 , @1.1800823643410852 Channel: 2 
Note on, A#2 key =  46;WhichDrum: T2 ; velocity: 127
@22440 , @1.1832461240310077 Channel: 2 
Note on, A#2 key =  46;WhichDrum: T2 ; velocity: 0
@22440 , @1.1832461240310077 Channel: 2 
Note on, G3 key =  55;WhichDrum: C2 ; velocity: 127
@22500 , @1.1864098837209303 Channel: 2 
Note on, G3 key =  55;WhichDrum: C2 ; velocity: 0
@22500 , @1.1864098837209303 Channel: 2 
Note on, E3 key =  52;WhichDrum: S ; velocity: 127
@22560 , @1.1895736434108526 Channel: 2 
Note on, E3 key =  52;WhichDrum: S ; velocity: 0
@22560 , @1.1895736434108526 Channel: 2 
Note on, E2 key =  40;WhichDrum: S ; velocity: 127
@22620 , @1.1927374031007751 Channel: 2 
Note on, E2 key =  40;WhichDrum: S ; velocity: 0
@22620 , @1.1927374031007751 Channel: 2 
Note on, E2 key =  40;WhichDrum: S ; velocity: 127
@22680 , @1.1959011627906977 Channel: 2 
Note on, E2 key =  40;WhichDrum: S ; velocity: 0
@22680 , @1.1959011627906977 Channel: 2 
Note on, E2 key =  40;WhichDrum: S ; velocity: 127
@22740 , @1.1990649224806202 Channel: 2 
Note on, E2 key =  40;WhichDrum: S ; velocity: 0
@22740 , @1.1990649224806202 Channel: 2 
Note on, E2 key =  40;WhichDrum: S ; velocity: 127
@22800 , @1.2022286821705426 Channel: 2 
Note on, E2 key =  40;WhichDrum: S ; velocity: 0
@22800 , @1.2022286821705426 Channel: 2 
Note on, E2 key =  40;WhichDrum: S ; velocity: 127
@22860 , @1.2053924418604651 Channel: 2 
Note on, E2 key =  40;WhichDrum: S ; velocity: 0
@22860 , @1.2053924418604651 Channel: 2 
Note on, E2 key =  40;WhichDrum: S ; velocity: 127
@22920 , @1.2085562015503877 Channel: 2 
Note on, E2 key =  40;WhichDrum: S ; velocity: 0
@22920 , @1.2085562015503877 Channel: 2 
Note on, E2 key =  40;WhichDrum: S ; velocity: 127
@22980 , @1.21171996124031 Channel: 2 
Note on, E2 key =  40;WhichDrum: S ; velocity: 0
@22980 , @1.21171996124031 Channel: 2 
Note on, E2 key =  40;WhichDrum: S ; velocity: 127
@23040 , @1.2148837209302326 Channel: 2 
Note on, E2 key =  40;WhichDrum: S ; velocity: 0
@23040 , @1.2148837209302326 Channel: 2 
Note on, E2 key =  40;WhichDrum: S ; velocity: 127
@23100 , @1.218047480620155 Channel: 2 
Note on, E2 key =  40;WhichDrum: S ; velocity: 0
@23100 , @1.218047480620155 Channel: 2 
Note on, E2 key =  40;WhichDrum: S ; velocity: 127
@23160 , @1.2212112403100777 Channel: 2 
Note on, E2 key =  40;WhichDrum: S ; velocity: 0
@23160 , @1.2212112403100777 Channel: 2 
Note on, E2 key =  40;WhichDrum: S ; velocity: 127
@23220 , @1.224375 Channel: 2 
Note on, E2 key =  40;WhichDrum: S ; velocity: 0
@23220 , @1.224375 Channel: 2 
Note on, E2 key =  40;WhichDrum: S ; velocity: 127
@23280 , @1.2275387596899225 Channel: 2 
Note on, E2 key =  40;WhichDrum: S ; velocity: 0
@23280 , @1.2275387596899225 Channel: 2 
Note on, B2 key =  47;WhichDrum: T1 ; velocity: 127
@23340 , @1.230702519379845 Channel: 2 
Note on, B2 key =  47;WhichDrum: T1 ; velocity: 0
@23340 , @1.230702519379845 Channel: 2 
Note on, A#2 key =  46;WhichDrum: T2 ; velocity: 127
@23400 , @1.2338662790697674 Channel: 2 
Note on, A#2 key =  46;WhichDrum: T2 ; velocity: 0
@23400 , @1.2338662790697674 Channel: 2 
Note on, G3 key =  55;WhichDrum: C2 ; velocity: 127
@23460 , @1.23703003875969 Channel: 2 
Note on, G3 key =  55;WhichDrum: C2 ; velocity: 0
@23460 , @1.23703003875969 Channel: 2 
Note on, E3 key =  52;WhichDrum: S ; velocity: 127
@23520 , @1.2401937984496125 Channel: 2 
Note on, E3 key =  52;WhichDrum: S ; velocity: 0
@23520 , @1.2401937984496125 Channel: 2 
Note on, C4 key =  60;WhichDrum: B ; velocity: 127
@23520 , @1.2401937984496125 Channel: 2 
Note on, G3 key =  55;WhichDrum: C2 ; velocity: 127
@23580 , @1.2433575581395349 Channel: 2 
Note on, C4 key =  60;WhichDrum: B ; velocity: 0
@23580 , @1.2433575581395349 Channel: 2 
Note on, G3 key =  55;WhichDrum: C2 ; velocity: 0
@23580 , @1.2433575581395349 Channel: 2 
Note on, E2 key =  40;WhichDrum: S ; velocity: 127
@23640 , @1.2465213178294574 Channel: 2 
Note on, E2 key =  40;WhichDrum: S ; velocity: 0
@23640 , @1.2465213178294574 Channel: 2 
Note on, E2 key =  40;WhichDrum: S ; velocity: 127
@23700 , @1.24968507751938 Channel: 2 
Note on, E2 key =  40;WhichDrum: S ; velocity: 0
@23700 , @1.24968507751938 Channel: 2 
Note on, E2 key =  40;WhichDrum: S ; velocity: 127
@23760 , @1.2528488372093025 Channel: 2 
Note on, E2 key =  40;WhichDrum: S ; velocity: 0
@23760 , @1.2528488372093025 Channel: 2 
Note on, G3 key =  55;WhichDrum: C2 ; velocity: 127
@23760 , @1.2528488372093025 Channel: 2 
Note on, C4 key =  60;WhichDrum: B ; velocity: 127
@23820 , @1.2560125968992248 Channel: 2 
Note on, G3 key =  55;WhichDrum: C2 ; velocity: 0
@23820 , @1.2560125968992248 Channel: 2 
Note on, C4 key =  60;WhichDrum: B ; velocity: 0
@23820 , @1.2560125968992248 Channel: 2 
Note on, D4 key =  62;WhichDrum: T2 ; velocity: 127
@23820 , @1.2560125968992248 Channel: 2 
Note on, A3 key =  57;WhichDrum: T3 ; velocity: 127
@23880 , @1.2591763565891474 Channel: 2 
Note on, D4 key =  62;WhichDrum: T2 ; velocity: 0
@23880 , @1.2591763565891474 Channel: 2 
Note on, A3 key =  57;WhichDrum: T3 ; velocity: 0
@23880 , @1.2591763565891474 Channel: 2 
Note on, G3 key =  55;WhichDrum: C2 ; velocity: 127
@23880 , @1.2591763565891474 Channel: 2 
Note on, C4 key =  60;WhichDrum: B ; velocity: 127
@24000 , @1.2655038759689923 Channel: 2 
Note on, G3 key =  55;WhichDrum: C2 ; velocity: 0
@24000 , @1.2655038759689923 Channel: 2 
Note on, C4 key =  60;WhichDrum: B ; velocity: 0
@24000 , @1.2655038759689923 Channel: 2 
Note on, C4 key =  60;WhichDrum: B ; velocity: 127
@24000 , @1.2655038759689923 Channel: 2 
Note on, G3 key =  55;WhichDrum: C2 ; velocity: 127
@24060 , @1.2686676356589148 Channel: 2 
Note on, C4 key =  60;WhichDrum: B ; velocity: 0
@24060 , @1.2686676356589148 Channel: 2 
Note on, G3 key =  55;WhichDrum: C2 ; velocity: 0
@24060 , @1.2686676356589148 Channel: 2 
Note on, E2 key =  40;WhichDrum: S ; velocity: 127
@24120 , @1.2718313953488374 Channel: 2 
Note on, E2 key =  40;WhichDrum: S ; velocity: 0
@24120 , @1.2718313953488374 Channel: 2 
Note on, E2 key =  40;WhichDrum: S ; velocity: 127
@24180 , @1.27499515503876 Channel: 2 
Note on, E2 key =  40;WhichDrum: S ; velocity: 0
@24180 , @1.27499515503876 Channel: 2 
Note on, E2 key =  40;WhichDrum: S ; velocity: 127
@24240 , @1.278158914728682 Channel: 2 
Note on, E2 key =  40;WhichDrum: S ; velocity: 0
@24240 , @1.278158914728682 Channel: 2 
Note on, G3 key =  55;WhichDrum: C2 ; velocity: 127
@24240 , @1.278158914728682 Channel: 2 
Note on, C4 key =  60;WhichDrum: B ; velocity: 127
@24300 , @1.2813226744186046 Channel: 2 
Note on, G3 key =  55;WhichDrum: C2 ; velocity: 0
@24300 , @1.2813226744186046 Channel: 2 
Note on, C4 key =  60;WhichDrum: B ; velocity: 0
@24300 , @1.2813226744186046 Channel: 2 
Note on, D4 key =  62;WhichDrum: T2 ; velocity: 127
@24300 , @1.2813226744186046 Channel: 2 
Note on, A3 key =  57;WhichDrum: T3 ; velocity: 127
@24360 , @1.2844864341085271 Channel: 2 
Note on, D4 key =  62;WhichDrum: T2 ; velocity: 0
@24360 , @1.2844864341085271 Channel: 2 
Note on, A3 key =  57;WhichDrum: T3 ; velocity: 0
@24360 , @1.2844864341085271 Channel: 2 
Note on, G3 key =  55;WhichDrum: C2 ; velocity: 127
@24360 , @1.2844864341085271 Channel: 2 
Note on, C4 key =  60;WhichDrum: B ; velocity: 127
@24480 , @1.290813953488372 Channel: 2 
Note on, G3 key =  55;WhichDrum: C2 ; velocity: 0
@24480 , @1.290813953488372 Channel: 2 
Note on, C4 key =  60;WhichDrum: B ; velocity: 0
@24480 , @1.290813953488372 Channel: 2 
Note on, C4 key =  60;WhichDrum: B ; velocity: 127
@24480 , @1.290813953488372 Channel: 2 
Note on, G3 key =  55;WhichDrum: C2 ; velocity: 127
@24540 , @1.2939777131782946 Channel: 2 
Note on, C4 key =  60;WhichDrum: B ; velocity: 0
@24540 , @1.2939777131782946 Channel: 2 
Note on, G3 key =  55;WhichDrum: C2 ; velocity: 0
@24540 , @1.2939777131782946 Channel: 2 
Note on, E2 key =  40;WhichDrum: S ; velocity: 127
@24600 , @1.2971414728682171 Channel: 2 
Note on, E2 key =  40;WhichDrum: S ; velocity: 0
@24600 , @1.2971414728682171 Channel: 2 
Note on, E2 key =  40;WhichDrum: S ; velocity: 127
@24660 , @1.3003052325581395 Channel: 2 
Note on, E2 key =  40;WhichDrum: S ; velocity: 0
@24660 , @1.3003052325581395 Channel: 2 
Note on, E2 key =  40;WhichDrum: S ; velocity: 127
@24720 , @1.303468992248062 Channel: 2 
Note on, E2 key =  40;WhichDrum: S ; velocity: 0
@24720 , @1.303468992248062 Channel: 2 
Note on, G3 key =  55;WhichDrum: C2 ; velocity: 127
@24720 , @1.303468992248062 Channel: 2 
Note on, C4 key =  60;WhichDrum: B ; velocity: 127
@24780 , @1.3066327519379846 Channel: 2 
Note on, G3 key =  55;WhichDrum: C2 ; velocity: 0
@24780 , @1.3066327519379846 Channel: 2 
Note on, C4 key =  60;WhichDrum: B ; velocity: 0
@24780 , @1.3066327519379846 Channel: 2 
Note on, D4 key =  62;WhichDrum: T2 ; velocity: 127
@24780 , @1.3066327519379846 Channel: 2 
Note on, A3 key =  57;WhichDrum: T3 ; velocity: 127
@24840 , @1.309796511627907 Channel: 2 
Note on, D4 key =  62;WhichDrum: T2 ; velocity: 0
@24840 , @1.309796511627907 Channel: 2 
Note on, A3 key =  57;WhichDrum: T3 ; velocity: 0
@24840 , @1.309796511627907 Channel: 2 
Note on, G3 key =  55;WhichDrum: C2 ; velocity: 127
@24840 , @1.309796511627907 Channel: 2 
Note on, C4 key =  60;WhichDrum: B ; velocity: 127
@24960 , @1.316124031007752 Channel: 2 
Note on, G3 key =  55;WhichDrum: C2 ; velocity: 0
@24960 , @1.316124031007752 Channel: 2 
Note on, C4 key =  60;WhichDrum: B ; velocity: 0
@24960 , @1.316124031007752 Channel: 2 
Note on, D4 key =  62;WhichDrum: T2 ; velocity: 127
@25020 , @1.3192877906976745 Channel: 2 
Note on, D4 key =  62;WhichDrum: T2 ; velocity: 0
@25020 , @1.3192877906976745 Channel: 2 
Note on, C4 key =  60;WhichDrum: B ; velocity: 127
@25080 , @1.3224515503875969 Channel: 2 
Note on, C4 key =  60;WhichDrum: B ; velocity: 0
@25080 , @1.3224515503875969 Channel: 2 
Note on, A3 key =  57;WhichDrum: T3 ; velocity: 127
@25140 , @1.3256153100775194 Channel: 2 
Note on, A3 key =  57;WhichDrum: T3 ; velocity: 0
@25140 , @1.3256153100775194 Channel: 2 
Note on, G#3 key =  56;WhichDrum: B ; velocity: 127
@25200 , @1.328779069767442 Channel: 2 
Note on, G#3 key =  56;WhichDrum: B ; velocity: 0
@25200 , @1.328779069767442 Channel: 2 
Note on, G3 key =  55;WhichDrum: C2 ; velocity: 127
@25260 , @1.3319428294573643 Channel: 2 
Note on, G3 key =  55;WhichDrum: C2 ; velocity: 0
@25260 , @1.3319428294573643 Channel: 2 
Note on, E3 key =  52;WhichDrum: S ; velocity: 127
@25320 , @1.3351065891472869 Channel: 2 
Note on, E3 key =  52;WhichDrum: S ; velocity: 0
@25320 , @1.3351065891472869 Channel: 2 
Note on, D#3 key =  51;WhichDrum: T1 ; velocity: 127
@25380 , @1.3382703488372094 Channel: 2 
Note on, D#3 key =  51;WhichDrum: T1 ; velocity: 0
@25380 , @1.3382703488372094 Channel: 2 
Note on, D3 key =  50;WhichDrum: T2 ; velocity: 127
@25440 , @1.341434108527132 Channel: 2 
Note on, D3 key =  50;WhichDrum: T2 ; velocity: 0
@25440 , @1.341434108527132 Channel: 2 
Note on, C4 key =  60;WhichDrum: B ; velocity: 127
@25440 , @1.341434108527132 Channel: 2 
Note on, G3 key =  55;WhichDrum: C2 ; velocity: 127
@25500 , @1.3445978682170543 Channel: 2 
Note on, C4 key =  60;WhichDrum: B ; velocity: 0
@25500 , @1.3445978682170543 Channel: 2 
Note on, G3 key =  55;WhichDrum: C2 ; velocity: 0
@25500 , @1.3445978682170543 Channel: 2 
Note on, E2 key =  40;WhichDrum: S ; velocity: 127
@25560 , @1.3477616279069768 Channel: 2 
Note on, E2 key =  40;WhichDrum: S ; velocity: 0
@25560 , @1.3477616279069768 Channel: 2 
Note on, E2 key =  40;WhichDrum: S ; velocity: 127
@25620 , @1.3509253875968994 Channel: 2 
Note on, E2 key =  40;WhichDrum: S ; velocity: 0
@25620 , @1.3509253875968994 Channel: 2 
Note on, E2 key =  40;WhichDrum: S ; velocity: 127
@25680 , @1.3540891472868217 Channel: 2 
Note on, E2 key =  40;WhichDrum: S ; velocity: 0
@25680 , @1.3540891472868217 Channel: 2 
Note on, G3 key =  55;WhichDrum: C2 ; velocity: 127
@25680 , @1.3540891472868217 Channel: 2 
Note on, C4 key =  60;WhichDrum: B ; velocity: 127
@25740 , @1.3572529069767443 Channel: 2 
Note on, G3 key =  55;WhichDrum: C2 ; velocity: 0
@25740 , @1.3572529069767443 Channel: 2 
Note on, C4 key =  60;WhichDrum: B ; velocity: 0
@25740 , @1.3572529069767443 Channel: 2 
Note on, D4 key =  62;WhichDrum: T2 ; velocity: 127
@25740 , @1.3572529069767443 Channel: 2 
Note on, A3 key =  57;WhichDrum: T3 ; velocity: 127
@25800 , @1.3604166666666668 Channel: 2 
Note on, D4 key =  62;WhichDrum: T2 ; velocity: 0
@25800 , @1.3604166666666668 Channel: 2 
Note on, A3 key =  57;WhichDrum: T3 ; velocity: 0
@25800 , @1.3604166666666668 Channel: 2 
Note on, G3 key =  55;WhichDrum: C2 ; velocity: 127
@25800 , @1.3604166666666668 Channel: 2 
Note on, C4 key =  60;WhichDrum: B ; velocity: 127
@25920 , @1.3667441860465117 Channel: 2 
Note on, G3 key =  55;WhichDrum: C2 ; velocity: 0
@25920 , @1.3667441860465117 Channel: 2 
Note on, C4 key =  60;WhichDrum: B ; velocity: 0
@25920 , @1.3667441860465117 Channel: 2 
Note on, C4 key =  60;WhichDrum: B ; velocity: 127
@25920 , @1.3667441860465117 Channel: 2 
Note on, G3 key =  55;WhichDrum: C2 ; velocity: 127
@25980 , @1.3699079457364343 Channel: 2 
Note on, C4 key =  60;WhichDrum: B ; velocity: 0
@25980 , @1.3699079457364343 Channel: 2 
Note on, G3 key =  55;WhichDrum: C2 ; velocity: 0
@25980 , @1.3699079457364343 Channel: 2 
Note on, E2 key =  40;WhichDrum: S ; velocity: 127
@26040 , @1.3730717054263568 Channel: 2 
Note on, E2 key =  40;WhichDrum: S ; velocity: 0
@26040 , @1.3730717054263568 Channel: 2 
Note on, E2 key =  40;WhichDrum: S ; velocity: 127
@26100 , @1.3762354651162791 Channel: 2 
Note on, E2 key =  40;WhichDrum: S ; velocity: 0
@26100 , @1.3762354651162791 Channel: 2 
Note on, E2 key =  40;WhichDrum: S ; velocity: 127
@26160 , @1.3793992248062015 Channel: 2 
Note on, E2 key =  40;WhichDrum: S ; velocity: 0
@26160 , @1.3793992248062015 Channel: 2 
Note on, G3 key =  55;WhichDrum: C2 ; velocity: 127
@26160 , @1.3793992248062015 Channel: 2 
Note on, C4 key =  60;WhichDrum: B ; velocity: 127
@26220 , @1.382562984496124 Channel: 2 
Note on, G3 key =  55;WhichDrum: C2 ; velocity: 0
@26220 , @1.382562984496124 Channel: 2 
Note on, C4 key =  60;WhichDrum: B ; velocity: 0
@26220 , @1.382562984496124 Channel: 2 
Note on, D4 key =  62;WhichDrum: T2 ; velocity: 127
@26220 , @1.382562984496124 Channel: 2 
Note on, A3 key =  57;WhichDrum: T3 ; velocity: 127
@26280 , @1.3857267441860466 Channel: 2 
Note on, D4 key =  62;WhichDrum: T2 ; velocity: 0
@26280 , @1.3857267441860466 Channel: 2 
Note on, A3 key =  57;WhichDrum: T3 ; velocity: 0
@26280 , @1.3857267441860466 Channel: 2 
Note on, G3 key =  55;WhichDrum: C2 ; velocity: 127
@26280 , @1.3857267441860466 Channel: 2 
Note on, C4 key =  60;WhichDrum: B ; velocity: 127
@26400 , @1.3920542635658915 Channel: 2 
Note on, G3 key =  55;WhichDrum: C2 ; velocity: 0
@26400 , @1.3920542635658915 Channel: 2 
Note on, C4 key =  60;WhichDrum: B ; velocity: 0
@26400 , @1.3920542635658915 Channel: 2 
Note on, C4 key =  60;WhichDrum: B ; velocity: 127
@26400 , @1.3920542635658915 Channel: 2 
Note on, G3 key =  55;WhichDrum: C2 ; velocity: 127
@26460 , @1.395218023255814 Channel: 2 
Note on, C4 key =  60;WhichDrum: B ; velocity: 0
@26460 , @1.395218023255814 Channel: 2 
Note on, G3 key =  55;WhichDrum: C2 ; velocity: 0
@26460 , @1.395218023255814 Channel: 2 
Note on, E2 key =  40;WhichDrum: S ; velocity: 127
@26520 , @1.3983817829457363 Channel: 2 
Note on, E2 key =  40;WhichDrum: S ; velocity: 0
@26520 , @1.3983817829457363 Channel: 2 
Note on, E2 key =  40;WhichDrum: S ; velocity: 127
@26580 , @1.401545542635659 Channel: 2 
Note on, E2 key =  40;WhichDrum: S ; velocity: 0
@26580 , @1.401545542635659 Channel: 2 
Note on, E2 key =  40;WhichDrum: S ; velocity: 127
@26640 , @1.4047093023255814 Channel: 2 
Note on, E2 key =  40;WhichDrum: S ; velocity: 0
@26640 , @1.4047093023255814 Channel: 2 
Note on, G3 key =  55;WhichDrum: C2 ; velocity: 127
@26640 , @1.4047093023255814 Channel: 2 
Note on, C4 key =  60;WhichDrum: B ; velocity: 127
@26700 , @1.407873062015504 Channel: 2 
Note on, G3 key =  55;WhichDrum: C2 ; velocity: 0
@26700 , @1.407873062015504 Channel: 2 
Note on, C4 key =  60;WhichDrum: B ; velocity: 0
@26700 , @1.407873062015504 Channel: 2 
Note on, D4 key =  62;WhichDrum: T2 ; velocity: 127
@26700 , @1.407873062015504 Channel: 2 
Note on, A3 key =  57;WhichDrum: T3 ; velocity: 127
@26760 , @1.4110368217054263 Channel: 2 
Note on, D4 key =  62;WhichDrum: T2 ; velocity: 0
@26760 , @1.4110368217054263 Channel: 2 
Note on, A3 key =  57;WhichDrum: T3 ; velocity: 0
@26760 , @1.4110368217054263 Channel: 2 
Note on, G3 key =  55;WhichDrum: C2 ; velocity: 127
@26760 , @1.4110368217054263 Channel: 2 
Note on, C4 key =  60;WhichDrum: B ; velocity: 127
@26880 , @1.4173643410852714 Channel: 2 
Note on, G3 key =  55;WhichDrum: C2 ; velocity: 0
@26880 , @1.4173643410852714 Channel: 2 
Note on, C4 key =  60;WhichDrum: B ; velocity: 0
@26880 , @1.4173643410852714 Channel: 2 
Note on, E4 key =  64;WhichDrum: S ; velocity: 127
@26940 , @1.4205281007751938 Channel: 2 
Note on, E4 key =  64;WhichDrum: S ; velocity: 0
@26940 , @1.4205281007751938 Channel: 2 
Note on, D4 key =  62;WhichDrum: T2 ; velocity: 127
@27000 , @1.4236918604651163 Channel: 2 
Note on, D4 key =  62;WhichDrum: T2 ; velocity: 0
@27000 , @1.4236918604651163 Channel: 2 
Note on, B3 key =  59;WhichDrum: T1 ; velocity: 127
@27060 , @1.4268556201550389 Channel: 2 
Note on, B3 key =  59;WhichDrum: T1 ; velocity: 0
@27060 , @1.4268556201550389 Channel: 2 
Note on, D4 key =  62;WhichDrum: T2 ; velocity: 127
@27120 , @1.4300193798449612 Channel: 2 
Note on, D4 key =  62;WhichDrum: T2 ; velocity: 0
@27120 , @1.4300193798449612 Channel: 2 
Note on, B3 key =  59;WhichDrum: T1 ; velocity: 127
@27180 , @1.4331831395348837 Channel: 2 
Note on, B3 key =  59;WhichDrum: T1 ; velocity: 0
@27180 , @1.4331831395348837 Channel: 2 
Note on, A#3 key =  58;WhichDrum: T2 ; velocity: 127
@27240 , @1.4363468992248063 Channel: 2 
Note on, A#3 key =  58;WhichDrum: T2 ; velocity: 0
@27240 , @1.4363468992248063 Channel: 2 
Note on, A3 key =  57;WhichDrum: T3 ; velocity: 127
@27300 , @1.4395106589147288 Channel: 2 
Note on, A3 key =  57;WhichDrum: T3 ; velocity: 0
@27300 , @1.4395106589147288 Channel: 2 
Note on, G3 key =  55;WhichDrum: C2 ; velocity: 127
@27360 , @1.4426744186046512 Channel: 2 
Note on, G3 key =  55;WhichDrum: C2 ; velocity: 0
@27360 , @1.4426744186046512 Channel: 2 
Note on, E4 key =  64;WhichDrum: S ; velocity: 127
@27420 , @1.4458381782945737 Channel: 2 
Note on, E4 key =  64;WhichDrum: S ; velocity: 0
@27420 , @1.4458381782945737 Channel: 2 
Note on, D4 key =  62;WhichDrum: T2 ; velocity: 127
@27480 , @1.4490019379844963 Channel: 2 
Note on, D4 key =  62;WhichDrum: T2 ; velocity: 0
@27480 , @1.4490019379844963 Channel: 2 
Note on, B3 key =  59;WhichDrum: T1 ; velocity: 127
@27540 , @1.4521656976744186 Channel: 2 
Note on, B3 key =  59;WhichDrum: T1 ; velocity: 0
@27540 , @1.4521656976744186 Channel: 2 
Note on, D4 key =  62;WhichDrum: T2 ; velocity: 127
@27600 , @1.4553294573643412 Channel: 2 
Note on, D4 key =  62;WhichDrum: T2 ; velocity: 0
@27600 , @1.4553294573643412 Channel: 2 
Note on, B3 key =  59;WhichDrum: T1 ; velocity: 127
@27660 , @1.4584932170542637 Channel: 2 
Note on, B3 key =  59;WhichDrum: T1 ; velocity: 0
@27660 , @1.4584932170542637 Channel: 2 
Note on, A#3 key =  58;WhichDrum: T2 ; velocity: 127
@27720 , @1.4616569767441863 Channel: 2 
Note on, A#3 key =  58;WhichDrum: T2 ; velocity: 0
@27720 , @1.4616569767441863 Channel: 2 
Note on, A3 key =  57;WhichDrum: T3 ; velocity: 127
@27780 , @1.4648207364341086 Channel: 2 
Note on, A3 key =  57;WhichDrum: T3 ; velocity: 0
@27780 , @1.4648207364341086 Channel: 2 
Note on, G3 key =  55;WhichDrum: C2 ; velocity: 127
@27840 , @1.4679844961240311 Channel: 2 
Note on, G3 key =  55;WhichDrum: C2 ; velocity: 0
@27840 , @1.4679844961240311 Channel: 2 
Note on, D4 key =  62;WhichDrum: T2 ; velocity: 127
@27840 , @1.4679844961240311 Channel: 2 
Note on, G3 key =  55;WhichDrum: C2 ; velocity: 127
@28320 , @1.493294573643411 Channel: 2 
Note on, D4 key =  62;WhichDrum: T2 ; velocity: 0
@28320 , @1.493294573643411 Channel: 2 
Note on, G3 key =  55;WhichDrum: C2 ; velocity: 0
@28320 , @1.493294573643411 Channel: 2 
Note on, C#4 key =  61;WhichDrum: T3 ; velocity: 127
@28320 , @1.493294573643411 Channel: 2 
Note on, F#3 key =  54;WhichDrum: C1 ; velocity: 127
@28560 , @1.5059496124031009 Channel: 2 
Note on, C#4 key =  61;WhichDrum: T3 ; velocity: 0
@28560 , @1.5059496124031009 Channel: 2 
Note on, F#3 key =  54;WhichDrum: C1 ; velocity: 0
@28560 , @1.5059496124031009 Channel: 2 
Note on, C4 key =  60;WhichDrum: B ; velocity: 127
@28560 , @1.5059496124031009 Channel: 2 
Note on, F3 key =  53;WhichDrum: HH ; velocity: 127
@28800 , @1.5186046511627906 Channel: 2 
Note on, C4 key =  60;WhichDrum: B ; velocity: 0
@28800 , @1.5186046511627906 Channel: 2 
Note on, F3 key =  53;WhichDrum: HH ; velocity: 0
@28800 , @1.5186046511627906 Channel: 2 
Note on, E2 key =  40;WhichDrum: S ; velocity: 127
@28860 , @1.5217684108527132 Channel: 2 
Note on, E2 key =  40;WhichDrum: S ; velocity: 0
@28860 , @1.5217684108527132 Channel: 2 
Note on, E2 key =  40;WhichDrum: S ; velocity: 127
@28920 , @1.5249321705426357 Channel: 2 
Note on, E2 key =  40;WhichDrum: S ; velocity: 0
@28920 , @1.5249321705426357 Channel: 2 
Note on, E2 key =  40;WhichDrum: S ; velocity: 127
@28980 , @1.5280959302325583 Channel: 2 
Note on, E2 key =  40;WhichDrum: S ; velocity: 0
@28980 , @1.5280959302325583 Channel: 2 
Note on, E2 key =  40;WhichDrum: S ; velocity: 127
@29040 , @1.5312596899224806 Channel: 2 
Note on, E2 key =  40;WhichDrum: S ; velocity: 0
@29040 , @1.5312596899224806 Channel: 2 
Note on, E2 key =  40;WhichDrum: S ; velocity: 127
@29100 , @1.5344234496124032 Channel: 2 
Note on, E2 key =  40;WhichDrum: S ; velocity: 0
@29100 , @1.5344234496124032 Channel: 2 
Note on, E2 key =  40;WhichDrum: S ; velocity: 127
@29160 , @1.5375872093023257 Channel: 2 
Note on, E2 key =  40;WhichDrum: S ; velocity: 0
@29160 , @1.5375872093023257 Channel: 2 
Note on, E2 key =  40;WhichDrum: S ; velocity: 127
@29220 , @1.540750968992248 Channel: 2 
Note on, E2 key =  40;WhichDrum: S ; velocity: 0
@29220 , @1.540750968992248 Channel: 2 
Note on, E2 key =  40;WhichDrum: S ; velocity: 127
@29280 , @1.5439147286821706 Channel: 2 
Note on, E2 key =  40;WhichDrum: S ; velocity: 0
@29280 , @1.5439147286821706 Channel: 2 
Note on, E2 key =  40;WhichDrum: S ; velocity: 127
@29340 , @1.5470784883720932 Channel: 2 
Note on, E2 key =  40;WhichDrum: S ; velocity: 0
@29340 , @1.5470784883720932 Channel: 2 
Note on, E2 key =  40;WhichDrum: S ; velocity: 127
@29400 , @1.5502422480620155 Channel: 2 
Note on, E2 key =  40;WhichDrum: S ; velocity: 0
@29400 , @1.5502422480620155 Channel: 2 
Note on, E2 key =  40;WhichDrum: S ; velocity: 127
@29460 , @1.553406007751938 Channel: 2 
Note on, E2 key =  40;WhichDrum: S ; velocity: 0
@29460 , @1.553406007751938 Channel: 2 
Note on, E2 key =  40;WhichDrum: S ; velocity: 127
@29520 , @1.5565697674418606 Channel: 2 
Note on, E2 key =  40;WhichDrum: S ; velocity: 0
@29520 , @1.5565697674418606 Channel: 2 
Note on, E2 key =  40;WhichDrum: S ; velocity: 127
@29580 , @1.5597335271317831 Channel: 2 
Note on, E2 key =  40;WhichDrum: S ; velocity: 0
@29580 , @1.5597335271317831 Channel: 2 
Note on, E2 key =  40;WhichDrum: S ; velocity: 127
@29640 , @1.5628972868217055 Channel: 2 
Note on, E2 key =  40;WhichDrum: S ; velocity: 0
@29640 , @1.5628972868217055 Channel: 2 
Note on, E2 key =  40;WhichDrum: S ; velocity: 127
@29700 , @1.566061046511628 Channel: 2 
Note on, E2 key =  40;WhichDrum: S ; velocity: 0
@29700 , @1.566061046511628 Channel: 2 
Note on, E2 key =  40;WhichDrum: S ; velocity: 127
@29760 , @1.5692248062015506 Channel: 2 
Note on, E2 key =  40;WhichDrum: S ; velocity: 0
@29760 , @1.5692248062015506 Channel: 2 
Note on, D4 key =  62;WhichDrum: T2 ; velocity: 127
@29760 , @1.5692248062015506 Channel: 2 
Note on, G3 key =  55;WhichDrum: C2 ; velocity: 127
@30240 , @1.5945348837209303 Channel: 2 
Note on, D4 key =  62;WhichDrum: T2 ; velocity: 0
@30240 , @1.5945348837209303 Channel: 2 
Note on, G3 key =  55;WhichDrum: C2 ; velocity: 0
@30240 , @1.5945348837209303 Channel: 2 
Note on, C#4 key =  61;WhichDrum: T3 ; velocity: 127
@30240 , @1.5945348837209303 Channel: 2 
Note on, F#3 key =  54;WhichDrum: C1 ; velocity: 127
@30480 , @1.60718992248062 Channel: 2 
Note on, C#4 key =  61;WhichDrum: T3 ; velocity: 0
@30480 , @1.60718992248062 Channel: 2 
Note on, F#3 key =  54;WhichDrum: C1 ; velocity: 0
@30480 , @1.60718992248062 Channel: 2 
Note on, C4 key =  60;WhichDrum: B ; velocity: 127
@30480 , @1.60718992248062 Channel: 2 
Note on, F3 key =  53;WhichDrum: HH ; velocity: 127
@30720 , @1.61984496124031 Channel: 2 
Note on, C4 key =  60;WhichDrum: B ; velocity: 0
@30720 , @1.61984496124031 Channel: 2 
Note on, F3 key =  53;WhichDrum: HH ; velocity: 0
@30720 , @1.61984496124031 Channel: 2 
Note on, E2 key =  40;WhichDrum: S ; velocity: 127
@30780 , @1.6230087209302326 Channel: 2 
Note on, E2 key =  40;WhichDrum: S ; velocity: 0
@30780 , @1.6230087209302326 Channel: 2 
Note on, E2 key =  40;WhichDrum: S ; velocity: 127
@30840 , @1.6261724806201552 Channel: 2 
Note on, E2 key =  40;WhichDrum: S ; velocity: 0
@30840 , @1.6261724806201552 Channel: 2 
Note on, E2 key =  40;WhichDrum: S ; velocity: 127
@30900 , @1.6293362403100775 Channel: 2 
Note on, E2 key =  40;WhichDrum: S ; velocity: 0
@30900 , @1.6293362403100775 Channel: 2 
Note on, E2 key =  40;WhichDrum: S ; velocity: 127
@30960 , @1.6325 Channel: 2 
Note on, E2 key =  40;WhichDrum: S ; velocity: 0
@30960 , @1.6325 Channel: 2 
Note on, E2 key =  40;WhichDrum: S ; velocity: 127
@31020 , @1.6356637596899226 Channel: 2 
Note on, E2 key =  40;WhichDrum: S ; velocity: 0
@31020 , @1.6356637596899226 Channel: 2 
Note on, E2 key =  40;WhichDrum: S ; velocity: 127
@31080 , @1.638827519379845 Channel: 2 
Note on, E2 key =  40;WhichDrum: S ; velocity: 0
@31080 , @1.638827519379845 Channel: 2 
Note on, E2 key =  40;WhichDrum: S ; velocity: 127
@31140 , @1.6419912790697675 Channel: 2 
Note on, E2 key =  40;WhichDrum: S ; velocity: 0
@31140 , @1.6419912790697675 Channel: 2 
Note on, E2 key =  40;WhichDrum: S ; velocity: 127
@31200 , @1.64515503875969 Channel: 2 
Note on, E2 key =  40;WhichDrum: S ; velocity: 0
@31200 , @1.64515503875969 Channel: 2 
Note on, E2 key =  40;WhichDrum: S ; velocity: 127
@31260 , @1.6483187984496126 Channel: 2 
Note on, E2 key =  40;WhichDrum: S ; velocity: 0
@31260 , @1.6483187984496126 Channel: 2 
Note on, E2 key =  40;WhichDrum: S ; velocity: 127
@31320 , @1.651482558139535 Channel: 2 
Note on, E2 key =  40;WhichDrum: S ; velocity: 0
@31320 , @1.651482558139535 Channel: 2 
Note on, E2 key =  40;WhichDrum: S ; velocity: 127
@31380 , @1.6546463178294575 Channel: 2 
Note on, E2 key =  40;WhichDrum: S ; velocity: 0
@31380 , @1.6546463178294575 Channel: 2 
Note on, E2 key =  40;WhichDrum: S ; velocity: 127
@31440 , @1.65781007751938 Channel: 2 
Note on, E2 key =  40;WhichDrum: S ; velocity: 0
@31440 , @1.65781007751938 Channel: 2 
Note on, E2 key =  40;WhichDrum: S ; velocity: 127
@31500 , @1.6609738372093024 Channel: 2 
Note on, E2 key =  40;WhichDrum: S ; velocity: 0
@31500 , @1.6609738372093024 Channel: 2 
Note on, E2 key =  40;WhichDrum: S ; velocity: 127
@31560 , @1.664137596899225 Channel: 2 
Note on, E2 key =  40;WhichDrum: S ; velocity: 0
@31560 , @1.664137596899225 Channel: 2 
Note on, E2 key =  40;WhichDrum: S ; velocity: 127
@31620 , @1.6673013565891475 Channel: 2 
Note on, E2 key =  40;WhichDrum: S ; velocity: 0
@31620 , @1.6673013565891475 Channel: 2 
Note on, E2 key =  40;WhichDrum: S ; velocity: 127
@31680 , @1.6704651162790698 Channel: 2 
Note on, E2 key =  40;WhichDrum: S ; velocity: 0
@31680 , @1.6704651162790698 Channel: 2 
Note on, D4 key =  62;WhichDrum: T2 ; velocity: 127
@31680 , @1.6704651162790698 Channel: 2 
Note on, G3 key =  55;WhichDrum: C2 ; velocity: 127
@32160 , @1.6957751937984498 Channel: 2 
Note on, D4 key =  62;WhichDrum: T2 ; velocity: 0
@32160 , @1.6957751937984498 Channel: 2 
Note on, G3 key =  55;WhichDrum: C2 ; velocity: 0
@32160 , @1.6957751937984498 Channel: 2 
Note on, C#4 key =  61;WhichDrum: T3 ; velocity: 127
@32160 , @1.6957751937984498 Channel: 2 
Note on, F#3 key =  54;WhichDrum: C1 ; velocity: 127
@32400 , @1.7084302325581397 Channel: 2 
Note on, C#4 key =  61;WhichDrum: T3 ; velocity: 0
@32400 , @1.7084302325581397 Channel: 2 
Note on, F#3 key =  54;WhichDrum: C1 ; velocity: 0
@32400 , @1.7084302325581397 Channel: 2 
Note on, C4 key =  60;WhichDrum: B ; velocity: 127
@32400 , @1.7084302325581397 Channel: 2 
Note on, F3 key =  53;WhichDrum: HH ; velocity: 127
@32640 , @1.7210852713178297 Channel: 2 
Note on, C4 key =  60;WhichDrum: B ; velocity: 0
@32640 , @1.7210852713178297 Channel: 2 
Note on, F3 key =  53;WhichDrum: HH ; velocity: 0
@32640 , @1.7210852713178297 Channel: 2 
Note on, E2 key =  40;WhichDrum: S ; velocity: 127
@32700 , @1.724249031007752 Channel: 2 
Note on, E2 key =  40;WhichDrum: S ; velocity: 0
@32700 , @1.724249031007752 Channel: 2 
Note on, E2 key =  40;WhichDrum: S ; velocity: 127
@32760 , @1.7274127906976746 Channel: 2 
Note on, E2 key =  40;WhichDrum: S ; velocity: 0
@32760 , @1.7274127906976746 Channel: 2 
Note on, E2 key =  40;WhichDrum: S ; velocity: 127
@32820 , @1.7305765503875972 Channel: 2 
Note on, E2 key =  40;WhichDrum: S ; velocity: 0
@32820 , @1.7305765503875972 Channel: 2 
Note on, E2 key =  40;WhichDrum: S ; velocity: 127
@32880 , @1.7337403100775197 Channel: 2 
Note on, E2 key =  40;WhichDrum: S ; velocity: 0
@32880 , @1.7337403100775197 Channel: 2 
Note on, E2 key =  40;WhichDrum: S ; velocity: 127
@32940 , @1.7369040697674418 Channel: 2 
Note on, E2 key =  40;WhichDrum: S ; velocity: 0
@32940 , @1.7369040697674418 Channel: 2 
Note on, E2 key =  40;WhichDrum: S ; velocity: 127
@33000 , @1.7400678294573642 Channel: 2 
Note on, E2 key =  40;WhichDrum: S ; velocity: 0
@33000 , @1.7400678294573642 Channel: 2 
Note on, E2 key =  40;WhichDrum: S ; velocity: 127
@33060 , @1.7432315891472867 Channel: 2 
Note on, E2 key =  40;WhichDrum: S ; velocity: 0
@33060 , @1.7432315891472867 Channel: 2 
Note on, E2 key =  40;WhichDrum: S ; velocity: 127
@33120 , @1.7463953488372093 Channel: 2 
Note on, E2 key =  40;WhichDrum: S ; velocity: 0
@33120 , @1.7463953488372093 Channel: 2 
Note on, E2 key =  40;WhichDrum: S ; velocity: 127
@33180 , @1.7495591085271316 Channel: 2 
Note on, E2 key =  40;WhichDrum: S ; velocity: 0
@33180 , @1.7495591085271316 Channel: 2 
Note on, E2 key =  40;WhichDrum: S ; velocity: 127
@33240 , @1.7527228682170541 Channel: 2 
Note on, E2 key =  40;WhichDrum: S ; velocity: 0
@33240 , @1.7527228682170541 Channel: 2 
Note on, E2 key =  40;WhichDrum: S ; velocity: 127
@33300 , @1.7558866279069767 Channel: 2 
Note on, E2 key =  40;WhichDrum: S ; velocity: 0
@33300 , @1.7558866279069767 Channel: 2 
Note on, E2 key =  40;WhichDrum: S ; velocity: 127
@33360 , @1.7590503875968992 Channel: 2 
Note on, E2 key =  40;WhichDrum: S ; velocity: 0
@33360 , @1.7590503875968992 Channel: 2 
Note on, E2 key =  40;WhichDrum: S ; velocity: 127
@33420 , @1.7622141472868216 Channel: 2 
Note on, E2 key =  40;WhichDrum: S ; velocity: 0
@33420 , @1.7622141472868216 Channel: 2 
Note on, E2 key =  40;WhichDrum: S ; velocity: 127
@33480 , @1.7653779069767441 Channel: 2 
Note on, E2 key =  40;WhichDrum: S ; velocity: 0
@33480 , @1.7653779069767441 Channel: 2 
Note on, E2 key =  40;WhichDrum: S ; velocity: 127
@33540 , @1.7685416666666667 Channel: 2 
Note on, E2 key =  40;WhichDrum: S ; velocity: 0
@33540 , @1.7685416666666667 Channel: 2 
Note on, E2 key =  40;WhichDrum: S ; velocity: 127
@33600 , @1.771705426356589 Channel: 2 
Note on, E2 key =  40;WhichDrum: S ; velocity: 0
@33600 , @1.771705426356589 Channel: 2 
Note on, D4 key =  62;WhichDrum: T2 ; velocity: 127
@33600 , @1.771705426356589 Channel: 2 
Note on, G3 key =  55;WhichDrum: C2 ; velocity: 127
@34080 , @1.797015503875969 Channel: 2 
Note on, D4 key =  62;WhichDrum: T2 ; velocity: 0
@34080 , @1.797015503875969 Channel: 2 
Note on, G3 key =  55;WhichDrum: C2 ; velocity: 0
@34080 , @1.797015503875969 Channel: 2 
Note on, C#4 key =  61;WhichDrum: T3 ; velocity: 127
@34080 , @1.797015503875969 Channel: 2 
Note on, F#3 key =  54;WhichDrum: C1 ; velocity: 127
@34320 , @1.809670542635659 Channel: 2 
Note on, C#4 key =  61;WhichDrum: T3 ; velocity: 0
@34320 , @1.809670542635659 Channel: 2 
Note on, F#3 key =  54;WhichDrum: C1 ; velocity: 0
@34320 , @1.809670542635659 Channel: 2 
Note on, C4 key =  60;WhichDrum: B ; velocity: 127
@34320 , @1.809670542635659 Channel: 2 
Note on, F3 key =  53;WhichDrum: HH ; velocity: 127
@34560 , @1.822325581395349 Channel: 2 
Note on, C4 key =  60;WhichDrum: B ; velocity: 0
@34560 , @1.822325581395349 Channel: 2 
Note on, F3 key =  53;WhichDrum: HH ; velocity: 0
@34560 , @1.822325581395349 Channel: 2 
Note on, E2 key =  40;WhichDrum: S ; velocity: 127
@34620 , @1.8254893410852713 Channel: 2 
Note on, E2 key =  40;WhichDrum: S ; velocity: 0
@34620 , @1.8254893410852713 Channel: 2 
Note on, E2 key =  40;WhichDrum: S ; velocity: 127
@34680 , @1.8286531007751938 Channel: 2 
Note on, E2 key =  40;WhichDrum: S ; velocity: 0
@34680 , @1.8286531007751938 Channel: 2 
Note on, E2 key =  40;WhichDrum: S ; velocity: 127
@34740 , @1.8318168604651164 Channel: 2 
Note on, E2 key =  40;WhichDrum: S ; velocity: 0
@34740 , @1.8318168604651164 Channel: 2 
Note on, E2 key =  40;WhichDrum: S ; velocity: 127
@34800 , @1.834980620155039 Channel: 2 
Note on, E2 key =  40;WhichDrum: S ; velocity: 0
@34800 , @1.834980620155039 Channel: 2 
Note on, G3 key =  55;WhichDrum: C2 ; velocity: 127
@34800 , @1.834980620155039 Channel: 2 
Note on, D3 key =  50;WhichDrum: T2 ; velocity: 127
@34860 , @1.8381443798449613 Channel: 2 
Note on, G3 key =  55;WhichDrum: C2 ; velocity: 0
@34860 , @1.8381443798449613 Channel: 2 
Note on, D3 key =  50;WhichDrum: T2 ; velocity: 0
@34860 , @1.8381443798449613 Channel: 2 
Note on, E3 key =  52;WhichDrum: S ; velocity: 127
@34860 , @1.8381443798449613 Channel: 2 
Note on, A3 key =  57;WhichDrum: T3 ; velocity: 127
@34920 , @1.8413081395348838 Channel: 2 
Note on, E3 key =  52;WhichDrum: S ; velocity: 0
@34920 , @1.8413081395348838 Channel: 2 
Note on, A3 key =  57;WhichDrum: T3 ; velocity: 0
@34920 , @1.8413081395348838 Channel: 2 
Note on, D3 key =  50;WhichDrum: T2 ; velocity: 127
@34920 , @1.8413081395348838 Channel: 2 
Note on, G3 key =  55;WhichDrum: C2 ; velocity: 127
@34980 , @1.8444718992248064 Channel: 2 
Note on, D3 key =  50;WhichDrum: T2 ; velocity: 0
@34980 , @1.8444718992248064 Channel: 2 
Note on, G3 key =  55;WhichDrum: C2 ; velocity: 0
@34980 , @1.8444718992248064 Channel: 2 
Note on, A3 key =  57;WhichDrum: T3 ; velocity: 127
@34980 , @1.8444718992248064 Channel: 2 
Note on, E3 key =  52;WhichDrum: S ; velocity: 127
@35040 , @1.8476356589147287 Channel: 2 
Note on, A3 key =  57;WhichDrum: T3 ; velocity: 0
@35040 , @1.8476356589147287 Channel: 2 
Note on, E3 key =  52;WhichDrum: S ; velocity: 0
@35040 , @1.8476356589147287 Channel: 2 
Note on, E2 key =  40;WhichDrum: S ; velocity: 127
@35100 , @1.8507994186046512 Channel: 2 
Note on, E2 key =  40;WhichDrum: S ; velocity: 0
@35100 , @1.8507994186046512 Channel: 2 
Note on, E2 key =  40;WhichDrum: S ; velocity: 127
@35160 , @1.8539631782945738 Channel: 2 
Note on, E2 key =  40;WhichDrum: S ; velocity: 0
@35160 , @1.8539631782945738 Channel: 2 
Note on, E2 key =  40;WhichDrum: S ; velocity: 127
@35220 , @1.8571269379844961 Channel: 2 
Note on, E2 key =  40;WhichDrum: S ; velocity: 0
@35220 , @1.8571269379844961 Channel: 2 
Note on, E2 key =  40;WhichDrum: S ; velocity: 127
@35280 , @1.8602906976744187 Channel: 2 
Note on, E2 key =  40;WhichDrum: S ; velocity: 0
@35280 , @1.8602906976744187 Channel: 2 
Note on, E3 key =  52;WhichDrum: S ; velocity: 127
@35340 , @1.8634544573643412 Channel: 2 
Note on, E3 key =  52;WhichDrum: S ; velocity: 0
@35340 , @1.8634544573643412 Channel: 2 
Note on, D3 key =  50;WhichDrum: T2 ; velocity: 127
@35400 , @1.8666182170542638 Channel: 2 
Note on, D3 key =  50;WhichDrum: T2 ; velocity: 0
@35400 , @1.8666182170542638 Channel: 2 
Note on, B2 key =  47;WhichDrum: T1 ; velocity: 127
@35460 , @1.8697819767441861 Channel: 2 
Note on, B2 key =  47;WhichDrum: T1 ; velocity: 0
@35460 , @1.8697819767441861 Channel: 2 
Note on, A#2 key =  46;WhichDrum: T2 ; velocity: 127
@35520 , @1.8729457364341087 Channel: 2 
Note on, A#2 key =  46;WhichDrum: T2 ; velocity: 0
@35520 , @1.8729457364341087 Channel: 2 
Note on, E2 key =  40;WhichDrum: S ; velocity: 127
@35580 , @1.8761094961240312 Channel: 2 
Note on, E2 key =  40;WhichDrum: S ; velocity: 0
@35580 , @1.8761094961240312 Channel: 2 
Note on, E2 key =  40;WhichDrum: S ; velocity: 127
@35640 , @1.8792732558139535 Channel: 2 
Note on, E2 key =  40;WhichDrum: S ; velocity: 0
@35640 , @1.8792732558139535 Channel: 2 
Note on, E2 key =  40;WhichDrum: S ; velocity: 127
@35700 , @1.882437015503876 Channel: 2 
Note on, E2 key =  40;WhichDrum: S ; velocity: 0
@35700 , @1.882437015503876 Channel: 2 
Note on, E2 key =  40;WhichDrum: S ; velocity: 127
@35760 , @1.8856007751937987 Channel: 2 
Note on, E2 key =  40;WhichDrum: S ; velocity: 0
@35760 , @1.8856007751937987 Channel: 2 
Note on, G3 key =  55;WhichDrum: C2 ; velocity: 127
@35760 , @1.8856007751937987 Channel: 2 
Note on, D3 key =  50;WhichDrum: T2 ; velocity: 127
@35820 , @1.8887645348837212 Channel: 2 
Note on, G3 key =  55;WhichDrum: C2 ; velocity: 0
@35820 , @1.8887645348837212 Channel: 2 
Note on, D3 key =  50;WhichDrum: T2 ; velocity: 0
@35820 , @1.8887645348837212 Channel: 2 
Note on, E3 key =  52;WhichDrum: S ; velocity: 127
@35820 , @1.8887645348837212 Channel: 2 
Note on, A3 key =  57;WhichDrum: T3 ; velocity: 127
@35880 , @1.8919282945736435 Channel: 2 
Note on, E3 key =  52;WhichDrum: S ; velocity: 0
@35880 , @1.8919282945736435 Channel: 2 
Note on, A3 key =  57;WhichDrum: T3 ; velocity: 0
@35880 , @1.8919282945736435 Channel: 2 
Note on, D3 key =  50;WhichDrum: T2 ; velocity: 127
@35880 , @1.8919282945736435 Channel: 2 
Note on, G3 key =  55;WhichDrum: C2 ; velocity: 127
@35940 , @1.895092054263566 Channel: 2 
Note on, D3 key =  50;WhichDrum: T2 ; velocity: 0
@35940 , @1.895092054263566 Channel: 2 
Note on, G3 key =  55;WhichDrum: C2 ; velocity: 0
@35940 , @1.895092054263566 Channel: 2 
Note on, A3 key =  57;WhichDrum: T3 ; velocity: 127
@35940 , @1.895092054263566 Channel: 2 
Note on, E3 key =  52;WhichDrum: S ; velocity: 127
@36000 , @1.8982558139534886 Channel: 2 
Note on, A3 key =  57;WhichDrum: T3 ; velocity: 0
@36000 , @1.8982558139534886 Channel: 2 
Note on, E3 key =  52;WhichDrum: S ; velocity: 0
@36000 , @1.8982558139534886 Channel: 2 
Note on, E2 key =  40;WhichDrum: S ; velocity: 127
@36060 , @1.901419573643411 Channel: 2 
Note on, E2 key =  40;WhichDrum: S ; velocity: 0
@36060 , @1.901419573643411 Channel: 2 
Note on, E2 key =  40;WhichDrum: S ; velocity: 127
@36120 , @1.9045833333333335 Channel: 2 
Note on, E2 key =  40;WhichDrum: S ; velocity: 0
@36120 , @1.9045833333333335 Channel: 2 
Note on, E2 key =  40;WhichDrum: S ; velocity: 127
@36180 , @1.907747093023256 Channel: 2 
Note on, E2 key =  40;WhichDrum: S ; velocity: 0
@36180 , @1.907747093023256 Channel: 2 
Note on, E2 key =  40;WhichDrum: S ; velocity: 127
@36240 , @1.9109108527131784 Channel: 2 
Note on, E2 key =  40;WhichDrum: S ; velocity: 0
@36240 , @1.9109108527131784 Channel: 2 
Note on, E3 key =  52;WhichDrum: S ; velocity: 127
@36300 , @1.914074612403101 Channel: 2 
Note on, E3 key =  52;WhichDrum: S ; velocity: 0
@36300 , @1.914074612403101 Channel: 2 
Note on, D3 key =  50;WhichDrum: T2 ; velocity: 127
@36360 , @1.9172383720930235 Channel: 2 
Note on, D3 key =  50;WhichDrum: T2 ; velocity: 0
@36360 , @1.9172383720930235 Channel: 2 
Note on, B2 key =  47;WhichDrum: T1 ; velocity: 127
@36420 , @1.920402131782946 Channel: 2 
Note on, B2 key =  47;WhichDrum: T1 ; velocity: 0
@36420 , @1.920402131782946 Channel: 2 
Note on, A#2 key =  46;WhichDrum: T2 ; velocity: 127
@36480 , @1.9235658914728684 Channel: 2 
Note on, A#2 key =  46;WhichDrum: T2 ; velocity: 0
@36480 , @1.9235658914728684 Channel: 2 
Note on, E2 key =  40;WhichDrum: S ; velocity: 127
@36540 , @1.926729651162791 Channel: 2 
Note on, E2 key =  40;WhichDrum: S ; velocity: 0
@36540 , @1.926729651162791 Channel: 2 
Note on, E2 key =  40;WhichDrum: S ; velocity: 127
@36600 , @1.9298934108527135 Channel: 2 
Note on, E2 key =  40;WhichDrum: S ; velocity: 0
@36600 , @1.9298934108527135 Channel: 2 
Note on, E2 key =  40;WhichDrum: S ; velocity: 127
@36660 , @1.9330571705426358 Channel: 2 
Note on, E2 key =  40;WhichDrum: S ; velocity: 0
@36660 , @1.9330571705426358 Channel: 2 
Note on, E2 key =  40;WhichDrum: S ; velocity: 127
@36720 , @1.9362209302325584 Channel: 2 
Note on, E2 key =  40;WhichDrum: S ; velocity: 0
@36720 , @1.9362209302325584 Channel: 2 
Note on, G3 key =  55;WhichDrum: C2 ; velocity: 127
@36720 , @1.9362209302325584 Channel: 2 
Note on, D3 key =  50;WhichDrum: T2 ; velocity: 127
@36780 , @1.9393846899224805 Channel: 2 
Note on, G3 key =  55;WhichDrum: C2 ; velocity: 0
@36780 , @1.9393846899224805 Channel: 2 
Note on, D3 key =  50;WhichDrum: T2 ; velocity: 0
@36780 , @1.9393846899224805 Channel: 2 
Note on, E3 key =  52;WhichDrum: S ; velocity: 127
@36780 , @1.9393846899224805 Channel: 2 
Note on, A3 key =  57;WhichDrum: T3 ; velocity: 127
@36840 , @1.942548449612403 Channel: 2 
Note on, E3 key =  52;WhichDrum: S ; velocity: 0
@36840 , @1.942548449612403 Channel: 2 
Note on, A3 key =  57;WhichDrum: T3 ; velocity: 0
@36840 , @1.942548449612403 Channel: 2 
Note on, D3 key =  50;WhichDrum: T2 ; velocity: 127
@36840 , @1.942548449612403 Channel: 2 
Note on, G3 key =  55;WhichDrum: C2 ; velocity: 127
@36900 , @1.9457122093023256 Channel: 2 
Note on, D3 key =  50;WhichDrum: T2 ; velocity: 0
@36900 , @1.9457122093023256 Channel: 2 
Note on, G3 key =  55;WhichDrum: C2 ; velocity: 0
@36900 , @1.9457122093023256 Channel: 2 
Note on, A3 key =  57;WhichDrum: T3 ; velocity: 127
@36900 , @1.9457122093023256 Channel: 2 
Note on, E3 key =  52;WhichDrum: S ; velocity: 127
@36960 , @1.948875968992248 Channel: 2 
Note on, A3 key =  57;WhichDrum: T3 ; velocity: 0
@36960 , @1.948875968992248 Channel: 2 
Note on, E3 key =  52;WhichDrum: S ; velocity: 0
@36960 , @1.948875968992248 Channel: 2 
Note on, E2 key =  40;WhichDrum: S ; velocity: 127
@37020 , @1.9520397286821705 Channel: 2 
Note on, E2 key =  40;WhichDrum: S ; velocity: 0
@37020 , @1.9520397286821705 Channel: 2 
Note on, E2 key =  40;WhichDrum: S ; velocity: 127
@37080 , @1.955203488372093 Channel: 2 
Note on, E2 key =  40;WhichDrum: S ; velocity: 0
@37080 , @1.955203488372093 Channel: 2 
Note on, E2 key =  40;WhichDrum: S ; velocity: 127
@37140 , @1.9583672480620153 Channel: 2 
Note on, E2 key =  40;WhichDrum: S ; velocity: 0
@37140 , @1.9583672480620153 Channel: 2 
Note on, E2 key =  40;WhichDrum: S ; velocity: 127
@37200 , @1.961531007751938 Channel: 2 
Note on, E2 key =  40;WhichDrum: S ; velocity: 0
@37200 , @1.961531007751938 Channel: 2 
Note on, E3 key =  52;WhichDrum: S ; velocity: 127
@37260 , @1.9646947674418604 Channel: 2 
Note on, E3 key =  52;WhichDrum: S ; velocity: 0
@37260 , @1.9646947674418604 Channel: 2 
Note on, D3 key =  50;WhichDrum: T2 ; velocity: 127
@37320 , @1.967858527131783 Channel: 2 
Note on, D3 key =  50;WhichDrum: T2 ; velocity: 0
@37320 , @1.967858527131783 Channel: 2 
Note on, B2 key =  47;WhichDrum: T1 ; velocity: 127
@37380 , @1.9710222868217053 Channel: 2 
Note on, B2 key =  47;WhichDrum: T1 ; velocity: 0
@37380 , @1.9710222868217053 Channel: 2 
Note on, A#2 key =  46;WhichDrum: T2 ; velocity: 127
@37440 , @1.9741860465116279 Channel: 2 
Note on, A#2 key =  46;WhichDrum: T2 ; velocity: 0
@37440 , @1.9741860465116279 Channel: 2 
Note on, E2 key =  40;WhichDrum: S ; velocity: 127
@37500 , @1.9773498062015504 Channel: 2 
Note on, E2 key =  40;WhichDrum: S ; velocity: 0
@37500 , @1.9773498062015504 Channel: 2 
Note on, E2 key =  40;WhichDrum: S ; velocity: 127
@37560 , @1.9805135658914728 Channel: 2 
Note on, E2 key =  40;WhichDrum: S ; velocity: 0
@37560 , @1.9805135658914728 Channel: 2 
Note on, E2 key =  40;WhichDrum: S ; velocity: 127
@37620 , @1.9836773255813953 Channel: 2 
Note on, E2 key =  40;WhichDrum: S ; velocity: 0
@37620 , @1.9836773255813953 Channel: 2 
Note on, E2 key =  40;WhichDrum: S ; velocity: 127
@37680 , @1.9868410852713179 Channel: 2 
Note on, E2 key =  40;WhichDrum: S ; velocity: 0
@37680 , @1.9868410852713179 Channel: 2 
Note on, G3 key =  55;WhichDrum: C2 ; velocity: 127
@37680 , @1.9868410852713179 Channel: 2 
Note on, D3 key =  50;WhichDrum: T2 ; velocity: 127
@37740 , @1.9900048449612402 Channel: 2 
Note on, G3 key =  55;WhichDrum: C2 ; velocity: 0
@37740 , @1.9900048449612402 Channel: 2 
Note on, D3 key =  50;WhichDrum: T2 ; velocity: 0
@37740 , @1.9900048449612402 Channel: 2 
Note on, E3 key =  52;WhichDrum: S ; velocity: 127
@37740 , @1.9900048449612402 Channel: 2 
Note on, A3 key =  57;WhichDrum: T3 ; velocity: 127
@37800 , @1.9931686046511627 Channel: 2 
Note on, E3 key =  52;WhichDrum: S ; velocity: 0
@37800 , @1.9931686046511627 Channel: 2 
Note on, A3 key =  57;WhichDrum: T3 ; velocity: 0
@37800 , @1.9931686046511627 Channel: 2 
Note on, D3 key =  50;WhichDrum: T2 ; velocity: 127
@37800 , @1.9931686046511627 Channel: 2 
Note on, G3 key =  55;WhichDrum: C2 ; velocity: 127
@37860 , @1.9963323643410853 Channel: 2 
Note on, D3 key =  50;WhichDrum: T2 ; velocity: 0
@37860 , @1.9963323643410853 Channel: 2 
Note on, G3 key =  55;WhichDrum: C2 ; velocity: 0
@37860 , @1.9963323643410853 Channel: 2 
Note on, A3 key =  57;WhichDrum: T3 ; velocity: 127
@37860 , @1.9963323643410853 Channel: 2 
Note on, E3 key =  52;WhichDrum: S ; velocity: 127
@37920 , @1.9994961240310078 Channel: 2 
Note on, A3 key =  57;WhichDrum: T3 ; velocity: 0
@37920 , @1.9994961240310078 Channel: 2 
Note on, E3 key =  52;WhichDrum: S ; velocity: 0
@37920 , @1.9994961240310078 Channel: 2 
Note on, E2 key =  40;WhichDrum: S ; velocity: 127
@37980 , @2.00265988372093 Channel: 2 
Note on, E2 key =  40;WhichDrum: S ; velocity: 0
@37980 , @2.00265988372093 Channel: 2 
Note on, E2 key =  40;WhichDrum: S ; velocity: 127
@38040 , @2.0058236434108525 Channel: 2 
Note on, E2 key =  40;WhichDrum: S ; velocity: 0
@38040 , @2.0058236434108525 Channel: 2 
Note on, E2 key =  40;WhichDrum: S ; velocity: 127
@38100 , @2.0089874031007753 Channel: 2 
Note on, E2 key =  40;WhichDrum: S ; velocity: 0
@38100 , @2.0089874031007753 Channel: 2 
Note on, E2 key =  40;WhichDrum: S ; velocity: 127
@38160 , @2.0121511627906976 Channel: 2 
Note on, E2 key =  40;WhichDrum: S ; velocity: 0
@38160 , @2.0121511627906976 Channel: 2 
Note on, E3 key =  52;WhichDrum: S ; velocity: 127
@38220 , @2.0153149224806204 Channel: 2 
Note on, E3 key =  52;WhichDrum: S ; velocity: 0
@38220 , @2.0153149224806204 Channel: 2 
Note on, D3 key =  50;WhichDrum: T2 ; velocity: 127
@38280 , @2.0184786821705427 Channel: 2 
Note on, D3 key =  50;WhichDrum: T2 ; velocity: 0
@38280 , @2.0184786821705427 Channel: 2 
Note on, B2 key =  47;WhichDrum: T1 ; velocity: 127
@38340 , @2.021642441860465 Channel: 2 
Note on, B2 key =  47;WhichDrum: T1 ; velocity: 0
@38340 , @2.021642441860465 Channel: 2 
Note on, A#2 key =  46;WhichDrum: T2 ; velocity: 127
@38400 , @2.024806201550388 Channel: 2 
Note on, A#2 key =  46;WhichDrum: T2 ; velocity: 0
@38400 , @2.024806201550388 Channel: 2 
Note on, E2 key =  40;WhichDrum: S ; velocity: 127
@38460 , @2.02796996124031 Channel: 2 
Note on, E2 key =  40;WhichDrum: S ; velocity: 0
@38460 , @2.02796996124031 Channel: 2 
Note on, E2 key =  40;WhichDrum: S ; velocity: 127
@38520 , @2.0311337209302325 Channel: 2 
Note on, E2 key =  40;WhichDrum: S ; velocity: 0
@38520 , @2.0311337209302325 Channel: 2 
Note on, E2 key =  40;WhichDrum: S ; velocity: 127
@38580 , @2.0342974806201553 Channel: 2 
Note on, E2 key =  40;WhichDrum: S ; velocity: 0
@38580 , @2.0342974806201553 Channel: 2 
Note on, E2 key =  40;WhichDrum: S ; velocity: 127
@38640 , @2.0374612403100776 Channel: 2 
Note on, E2 key =  40;WhichDrum: S ; velocity: 0
@38640 , @2.0374612403100776 Channel: 2 
Note on, E2 key =  40;WhichDrum: S ; velocity: 127
@38700 , @2.040625 Channel: 2 
Note on, E2 key =  40;WhichDrum: S ; velocity: 0
@38700 , @2.040625 Channel: 2 
Note on, E2 key =  40;WhichDrum: S ; velocity: 127
@38760 , @2.0437887596899227 Channel: 2 
Note on, E2 key =  40;WhichDrum: S ; velocity: 0
@38760 , @2.0437887596899227 Channel: 2 
Note on, E2 key =  40;WhichDrum: S ; velocity: 127
@38820 , @2.046952519379845 Channel: 2 
Note on, E2 key =  40;WhichDrum: S ; velocity: 0
@38820 , @2.046952519379845 Channel: 2 
Note on, E2 key =  40;WhichDrum: S ; velocity: 127
@38880 , @2.0501162790697673 Channel: 2 
Note on, E2 key =  40;WhichDrum: S ; velocity: 0
@38880 , @2.0501162790697673 Channel: 2 
Note on, E2 key =  40;WhichDrum: S ; velocity: 127
@38940 , @2.05328003875969 Channel: 2 
Note on, E2 key =  40;WhichDrum: S ; velocity: 0
@38940 , @2.05328003875969 Channel: 2 
Note on, E2 key =  40;WhichDrum: S ; velocity: 127
@39000 , @2.0564437984496124 Channel: 2 
Note on, E2 key =  40;WhichDrum: S ; velocity: 0
@39000 , @2.0564437984496124 Channel: 2 
Note on, E2 key =  40;WhichDrum: S ; velocity: 127
@39060 , @2.0596075581395348 Channel: 2 
Note on, E2 key =  40;WhichDrum: S ; velocity: 0
@39060 , @2.0596075581395348 Channel: 2 
Note on, E2 key =  40;WhichDrum: S ; velocity: 127
@39120 , @2.0627713178294576 Channel: 2 
Note on, E2 key =  40;WhichDrum: S ; velocity: 0
@39120 , @2.0627713178294576 Channel: 2 
Note on, B2 key =  47;WhichDrum: T1 ; velocity: 127
@39180 , @2.06593507751938 Channel: 2 
Note on, B2 key =  47;WhichDrum: T1 ; velocity: 0
@39180 , @2.06593507751938 Channel: 2 
Note on, A#2 key =  46;WhichDrum: T2 ; velocity: 127
@39240 , @2.0690988372093027 Channel: 2 
Note on, A#2 key =  46;WhichDrum: T2 ; velocity: 0
@39240 , @2.0690988372093027 Channel: 2 
Note on, G3 key =  55;WhichDrum: C2 ; velocity: 127
@39300 , @2.072262596899225 Channel: 2 
Note on, G3 key =  55;WhichDrum: C2 ; velocity: 0
@39300 , @2.072262596899225 Channel: 2 
Note on, E3 key =  52;WhichDrum: S ; velocity: 127
@39360 , @2.0754263565891473 Channel: 2 
Note on, E3 key =  52;WhichDrum: S ; velocity: 0
@39360 , @2.0754263565891473 Channel: 2 
Note on, E2 key =  40;WhichDrum: S ; velocity: 127
@39420 , @2.07859011627907 Channel: 2 
Note on, E2 key =  40;WhichDrum: S ; velocity: 0
@39420 , @2.07859011627907 Channel: 2 
Note on, E2 key =  40;WhichDrum: S ; velocity: 127
@39480 , @2.0817538759689924 Channel: 2 
Note on, E2 key =  40;WhichDrum: S ; velocity: 0
@39480 , @2.0817538759689924 Channel: 2 
Note on, E2 key =  40;WhichDrum: S ; velocity: 127
@39540 , @2.0849176356589147 Channel: 2 
Note on, E2 key =  40;WhichDrum: S ; velocity: 0
@39540 , @2.0849176356589147 Channel: 2 
Note on, E2 key =  40;WhichDrum: S ; velocity: 127
@39600 , @2.0880813953488375 Channel: 2 
Note on, E2 key =  40;WhichDrum: S ; velocity: 0
@39600 , @2.0880813953488375 Channel: 2 
Note on, E2 key =  40;WhichDrum: S ; velocity: 127
@39660 , @2.09124515503876 Channel: 2 
Note on, E2 key =  40;WhichDrum: S ; velocity: 0
@39660 , @2.09124515503876 Channel: 2 
Note on, E2 key =  40;WhichDrum: S ; velocity: 127
@39720 , @2.094408914728682 Channel: 2 
Note on, E2 key =  40;WhichDrum: S ; velocity: 0
@39720 , @2.094408914728682 Channel: 2 
Note on, E2 key =  40;WhichDrum: S ; velocity: 127
@39780 , @2.097572674418605 Channel: 2 
Note on, E2 key =  40;WhichDrum: S ; velocity: 0
@39780 , @2.097572674418605 Channel: 2 
Note on, E2 key =  40;WhichDrum: S ; velocity: 127
@39840 , @2.1007364341085273 Channel: 2 
Note on, E2 key =  40;WhichDrum: S ; velocity: 0
@39840 , @2.1007364341085273 Channel: 2 
Note on, E2 key =  40;WhichDrum: S ; velocity: 127
@39900 , @2.1039001937984496 Channel: 2 
Note on, E2 key =  40;WhichDrum: S ; velocity: 0
@39900 , @2.1039001937984496 Channel: 2 
Note on, E2 key =  40;WhichDrum: S ; velocity: 127
@39960 , @2.1070639534883724 Channel: 2 
Note on, E2 key =  40;WhichDrum: S ; velocity: 0
@39960 , @2.1070639534883724 Channel: 2 
Note on, E2 key =  40;WhichDrum: S ; velocity: 127
@40020 , @2.1102277131782947 Channel: 2 
Note on, E2 key =  40;WhichDrum: S ; velocity: 0
@40020 , @2.1102277131782947 Channel: 2 
Note on, E2 key =  40;WhichDrum: S ; velocity: 127
@40080 , @2.113391472868217 Channel: 2 
Note on, E2 key =  40;WhichDrum: S ; velocity: 0
@40080 , @2.113391472868217 Channel: 2 
Note on, B2 key =  47;WhichDrum: T1 ; velocity: 127
@40140 , @2.11655523255814 Channel: 2 
Note on, B2 key =  47;WhichDrum: T1 ; velocity: 0
@40140 , @2.11655523255814 Channel: 2 
Note on, A#2 key =  46;WhichDrum: T2 ; velocity: 127
@40200 , @2.119718992248062 Channel: 2 
Note on, A#2 key =  46;WhichDrum: T2 ; velocity: 0
@40200 , @2.119718992248062 Channel: 2 
Note on, G3 key =  55;WhichDrum: C2 ; velocity: 127
@40260 , @2.122882751937985 Channel: 2 
Note on, G3 key =  55;WhichDrum: C2 ; velocity: 0
@40260 , @2.122882751937985 Channel: 2 
Note on, E3 key =  52;WhichDrum: S ; velocity: 127
@40320 , @2.1260465116279073 Channel: 2 
Note on, E3 key =  52;WhichDrum: S ; velocity: 0
@40320 , @2.1260465116279073 Channel: 2 
Note on, E2 key =  40;WhichDrum: S ; velocity: 127
@40380 , @2.1292102713178296 Channel: 2 
Note on, E2 key =  40;WhichDrum: S ; velocity: 0
@40380 , @2.1292102713178296 Channel: 2 
Note on, E2 key =  40;WhichDrum: S ; velocity: 127
@40440 , @2.1323740310077524 Channel: 2 
Note on, E2 key =  40;WhichDrum: S ; velocity: 0
@40440 , @2.1323740310077524 Channel: 2 
Note on, E2 key =  40;WhichDrum: S ; velocity: 127
@40500 , @2.1355377906976747 Channel: 2 
Note on, E2 key =  40;WhichDrum: S ; velocity: 0
@40500 , @2.1355377906976747 Channel: 2 
Note on, E2 key =  40;WhichDrum: S ; velocity: 127
@40560 , @2.138701550387597 Channel: 2 
Note on, E2 key =  40;WhichDrum: S ; velocity: 0
@40560 , @2.138701550387597 Channel: 2 
Note on, E2 key =  40;WhichDrum: S ; velocity: 127
@40620 , @2.14186531007752 Channel: 2 
Note on, E2 key =  40;WhichDrum: S ; velocity: 0
@40620 , @2.14186531007752 Channel: 2 
Note on, E2 key =  40;WhichDrum: S ; velocity: 127
@40680 , @2.1450290697674417 Channel: 2 
Note on, E2 key =  40;WhichDrum: S ; velocity: 0
@40680 , @2.1450290697674417 Channel: 2 
Note on, E2 key =  40;WhichDrum: S ; velocity: 127
@40740 , @2.1481928294573645 Channel: 2 
Note on, E2 key =  40;WhichDrum: S ; velocity: 0
@40740 , @2.1481928294573645 Channel: 2 
Note on, E2 key =  40;WhichDrum: S ; velocity: 127
@40800 , @2.151356589147287 Channel: 2 
Note on, E2 key =  40;WhichDrum: S ; velocity: 0
@40800 , @2.151356589147287 Channel: 2 
Note on, E2 key =  40;WhichDrum: S ; velocity: 127
@40860 , @2.154520348837209 Channel: 2 
Note on, E2 key =  40;WhichDrum: S ; velocity: 0
@40860 , @2.154520348837209 Channel: 2 
Note on, E2 key =  40;WhichDrum: S ; velocity: 127
@40920 , @2.157684108527132 Channel: 2 
Note on, E2 key =  40;WhichDrum: S ; velocity: 0
@40920 , @2.157684108527132 Channel: 2 
Note on, E2 key =  40;WhichDrum: S ; velocity: 127
@40980 , @2.160847868217054 Channel: 2 
Note on, E2 key =  40;WhichDrum: S ; velocity: 0
@40980 , @2.160847868217054 Channel: 2 
Note on, E2 key =  40;WhichDrum: S ; velocity: 127
@41040 , @2.1640116279069765 Channel: 2 
Note on, E2 key =  40;WhichDrum: S ; velocity: 0
@41040 , @2.1640116279069765 Channel: 2 
Note on, B2 key =  47;WhichDrum: T1 ; velocity: 127
@41100 , @2.1671753875968993 Channel: 2 
Note on, B2 key =  47;WhichDrum: T1 ; velocity: 0
@41100 , @2.1671753875968993 Channel: 2 
Note on, A#2 key =  46;WhichDrum: T2 ; velocity: 127
@41160 , @2.1703391472868216 Channel: 2 
Note on, A#2 key =  46;WhichDrum: T2 ; velocity: 0
@41160 , @2.1703391472868216 Channel: 2 
Note on, G3 key =  55;WhichDrum: C2 ; velocity: 127
@41220 , @2.173502906976744 Channel: 2 
Note on, G3 key =  55;WhichDrum: C2 ; velocity: 0
@41220 , @2.173502906976744 Channel: 2 
Note on, E3 key =  52;WhichDrum: S ; velocity: 127
@41280 , @2.1766666666666667 Channel: 2 
Note on, E3 key =  52;WhichDrum: S ; velocity: 0
@41280 , @2.1766666666666667 Channel: 2 
Note on, E2 key =  40;WhichDrum: S ; velocity: 127
@41340 , @2.179830426356589 Channel: 2 
Note on, E2 key =  40;WhichDrum: S ; velocity: 0
@41340 , @2.179830426356589 Channel: 2 
Note on, E2 key =  40;WhichDrum: S ; velocity: 127
@41400 , @2.1829941860465114 Channel: 2 
Note on, E2 key =  40;WhichDrum: S ; velocity: 0
@41400 , @2.1829941860465114 Channel: 2 
Note on, E2 key =  40;WhichDrum: S ; velocity: 127
@41460 , @2.186157945736434 Channel: 2 
Note on, E2 key =  40;WhichDrum: S ; velocity: 0
@41460 , @2.186157945736434 Channel: 2 
Note on, E2 key =  40;WhichDrum: S ; velocity: 127
@41520 , @2.1893217054263565 Channel: 2 
Note on, E2 key =  40;WhichDrum: S ; velocity: 0
@41520 , @2.1893217054263565 Channel: 2 
Note on, E2 key =  40;WhichDrum: S ; velocity: 127
@41580 , @2.192485465116279 Channel: 2 
Note on, E2 key =  40;WhichDrum: S ; velocity: 0
@41580 , @2.192485465116279 Channel: 2 
Note on, E2 key =  40;WhichDrum: S ; velocity: 127
@41640 , @2.1956492248062016 Channel: 2 
Note on, E2 key =  40;WhichDrum: S ; velocity: 0
@41640 , @2.1956492248062016 Channel: 2 
Note on, E2 key =  40;WhichDrum: S ; velocity: 127
@41700 , @2.198812984496124 Channel: 2 
Note on, E2 key =  40;WhichDrum: S ; velocity: 0
@41700 , @2.198812984496124 Channel: 2 
Note on, E2 key =  40;WhichDrum: S ; velocity: 127
@41760 , @2.2019767441860467 Channel: 2 
Note on, E2 key =  40;WhichDrum: S ; velocity: 0
@41760 , @2.2019767441860467 Channel: 2 
Note on, E2 key =  40;WhichDrum: S ; velocity: 127
@41820 , @2.205140503875969 Channel: 2 
Note on, E2 key =  40;WhichDrum: S ; velocity: 0
@41820 , @2.205140503875969 Channel: 2 
Note on, E2 key =  40;WhichDrum: S ; velocity: 127
@41880 , @2.2083042635658914 Channel: 2 
Note on, E2 key =  40;WhichDrum: S ; velocity: 0
@41880 , @2.2083042635658914 Channel: 2 
Note on, E2 key =  40;WhichDrum: S ; velocity: 127
@41940 , @2.211468023255814 Channel: 2 
Note on, E2 key =  40;WhichDrum: S ; velocity: 0
@41940 , @2.211468023255814 Channel: 2 
Note on, E2 key =  40;WhichDrum: S ; velocity: 127
@42000 , @2.2146317829457365 Channel: 2 
Note on, E2 key =  40;WhichDrum: S ; velocity: 0
@42000 , @2.2146317829457365 Channel: 2 
Note on, B2 key =  47;WhichDrum: T1 ; velocity: 127
@42060 , @2.217795542635659 Channel: 2 
Note on, B2 key =  47;WhichDrum: T1 ; velocity: 0
@42060 , @2.217795542635659 Channel: 2 
Note on, A#2 key =  46;WhichDrum: T2 ; velocity: 127
@42120 , @2.2209593023255816 Channel: 2 
Note on, A#2 key =  46;WhichDrum: T2 ; velocity: 0
@42120 , @2.2209593023255816 Channel: 2 
Note on, G3 key =  55;WhichDrum: C2 ; velocity: 127
@42180 , @2.224123062015504 Channel: 2 
Note on, G3 key =  55;WhichDrum: C2 ; velocity: 0
@42180 , @2.224123062015504 Channel: 2 
Note on, E3 key =  52;WhichDrum: S ; velocity: 127
@42240 , @2.2272868217054262 Channel: 2 
Note on, E3 key =  52;WhichDrum: S ; velocity: 0
@42240 , @2.2272868217054262 Channel: 2 
Note on, C4 key =  60;WhichDrum: B ; velocity: 127
@42240 , @2.2272868217054262 Channel: 2 
Note on, G3 key =  55;WhichDrum: C2 ; velocity: 127
@42300 , @2.230450581395349 Channel: 2 
Note on, C4 key =  60;WhichDrum: B ; velocity: 0
@42300 , @2.230450581395349 Channel: 2 
Note on, G3 key =  55;WhichDrum: C2 ; velocity: 0
@42300 , @2.230450581395349 Channel: 2 
Note on, E2 key =  40;WhichDrum: S ; velocity: 127
@42360 , @2.2336143410852713 Channel: 2 
Note on, E2 key =  40;WhichDrum: S ; velocity: 0
@42360 , @2.2336143410852713 Channel: 2 
Note on, E2 key =  40;WhichDrum: S ; velocity: 127
@42420 , @2.2367781007751937 Channel: 2 
Note on, E2 key =  40;WhichDrum: S ; velocity: 0
@42420 , @2.2367781007751937 Channel: 2 
Note on, E2 key =  40;WhichDrum: S ; velocity: 127
@42480 , @2.2399418604651165 Channel: 2 
Note on, E2 key =  40;WhichDrum: S ; velocity: 0
@42480 , @2.2399418604651165 Channel: 2 
Note on, G3 key =  55;WhichDrum: C2 ; velocity: 127
@42480 , @2.2399418604651165 Channel: 2 
Note on, C4 key =  60;WhichDrum: B ; velocity: 127
@42540 , @2.243105620155039 Channel: 2 
Note on, G3 key =  55;WhichDrum: C2 ; velocity: 0
@42540 , @2.243105620155039 Channel: 2 
Note on, C4 key =  60;WhichDrum: B ; velocity: 0
@42540 , @2.243105620155039 Channel: 2 
Note on, D4 key =  62;WhichDrum: T2 ; velocity: 127
@42540 , @2.243105620155039 Channel: 2 
Note on, A3 key =  57;WhichDrum: T3 ; velocity: 127
@42600 , @2.246269379844961 Channel: 2 
Note on, D4 key =  62;WhichDrum: T2 ; velocity: 0
@42600 , @2.246269379844961 Channel: 2 
Note on, A3 key =  57;WhichDrum: T3 ; velocity: 0
@42600 , @2.246269379844961 Channel: 2 
Note on, G3 key =  55;WhichDrum: C2 ; velocity: 127
@42600 , @2.246269379844961 Channel: 2 
Note on, C4 key =  60;WhichDrum: B ; velocity: 127
@42720 , @2.252596899224806 Channel: 2 
Note on, G3 key =  55;WhichDrum: C2 ; velocity: 0
@42720 , @2.252596899224806 Channel: 2 
Note on, C4 key =  60;WhichDrum: B ; velocity: 0
@42720 , @2.252596899224806 Channel: 2 
Note on, C4 key =  60;WhichDrum: B ; velocity: 127
@42720 , @2.252596899224806 Channel: 2 
Note on, G3 key =  55;WhichDrum: C2 ; velocity: 127
@42780 , @2.255760658914729 Channel: 2 
Note on, C4 key =  60;WhichDrum: B ; velocity: 0
@42780 , @2.255760658914729 Channel: 2 
Note on, G3 key =  55;WhichDrum: C2 ; velocity: 0
@42780 , @2.255760658914729 Channel: 2 
Note on, E2 key =  40;WhichDrum: S ; velocity: 127
@42840 , @2.2589244186046513 Channel: 2 
Note on, E2 key =  40;WhichDrum: S ; velocity: 0
@42840 , @2.2589244186046513 Channel: 2 
Note on, E2 key =  40;WhichDrum: S ; velocity: 127
@42900 , @2.2620881782945736 Channel: 2 
Note on, E2 key =  40;WhichDrum: S ; velocity: 0
@42900 , @2.2620881782945736 Channel: 2 
Note on, E2 key =  40;WhichDrum: S ; velocity: 127
@42960 , @2.2652519379844964 Channel: 2 
Note on, E2 key =  40;WhichDrum: S ; velocity: 0
@42960 , @2.2652519379844964 Channel: 2 
Note on, G3 key =  55;WhichDrum: C2 ; velocity: 127
@42960 , @2.2652519379844964 Channel: 2 
Note on, C4 key =  60;WhichDrum: B ; velocity: 127
@43020 , @2.2684156976744188 Channel: 2 
Note on, G3 key =  55;WhichDrum: C2 ; velocity: 0
@43020 , @2.2684156976744188 Channel: 2 
Note on, C4 key =  60;WhichDrum: B ; velocity: 0
@43020 , @2.2684156976744188 Channel: 2 
Note on, D4 key =  62;WhichDrum: T2 ; velocity: 127
@43020 , @2.2684156976744188 Channel: 2 
Note on, A3 key =  57;WhichDrum: T3 ; velocity: 127
@43080 , @2.271579457364341 Channel: 2 
Note on, D4 key =  62;WhichDrum: T2 ; velocity: 0
@43080 , @2.271579457364341 Channel: 2 
Note on, A3 key =  57;WhichDrum: T3 ; velocity: 0
@43080 , @2.271579457364341 Channel: 2 
Note on, G3 key =  55;WhichDrum: C2 ; velocity: 127
@43080 , @2.271579457364341 Channel: 2 
Note on, C4 key =  60;WhichDrum: B ; velocity: 127
@43200 , @2.277906976744186 Channel: 2 
Note on, G3 key =  55;WhichDrum: C2 ; velocity: 0
@43200 , @2.277906976744186 Channel: 2 
Note on, C4 key =  60;WhichDrum: B ; velocity: 0
@43200 , @2.277906976744186 Channel: 2 
Note on, C4 key =  60;WhichDrum: B ; velocity: 127
@43200 , @2.277906976744186 Channel: 2 
Note on, G3 key =  55;WhichDrum: C2 ; velocity: 127
@43260 , @2.2810707364341085 Channel: 2 
Note on, C4 key =  60;WhichDrum: B ; velocity: 0
@43260 , @2.2810707364341085 Channel: 2 
Note on, G3 key =  55;WhichDrum: C2 ; velocity: 0
@43260 , @2.2810707364341085 Channel: 2 
Note on, E2 key =  40;WhichDrum: S ; velocity: 127
@43320 , @2.2842344961240313 Channel: 2 
Note on, E2 key =  40;WhichDrum: S ; velocity: 0
@43320 , @2.2842344961240313 Channel: 2 
Note on, E2 key =  40;WhichDrum: S ; velocity: 127
@43380 , @2.2873982558139536 Channel: 2 
Note on, E2 key =  40;WhichDrum: S ; velocity: 0
@43380 , @2.2873982558139536 Channel: 2 
Note on, E2 key =  40;WhichDrum: S ; velocity: 127
@43440 , @2.290562015503876 Channel: 2 
Note on, E2 key =  40;WhichDrum: S ; velocity: 0
@43440 , @2.290562015503876 Channel: 2 
Note on, G3 key =  55;WhichDrum: C2 ; velocity: 127
@43440 , @2.290562015503876 Channel: 2 
Note on, C4 key =  60;WhichDrum: B ; velocity: 127
@43500 , @2.2937257751937987 Channel: 2 
Note on, G3 key =  55;WhichDrum: C2 ; velocity: 0
@43500 , @2.2937257751937987 Channel: 2 
Note on, C4 key =  60;WhichDrum: B ; velocity: 0
@43500 , @2.2937257751937987 Channel: 2 
Note on, D4 key =  62;WhichDrum: T2 ; velocity: 127
@43500 , @2.2937257751937987 Channel: 2 
Note on, A3 key =  57;WhichDrum: T3 ; velocity: 127
@43560 , @2.296889534883721 Channel: 2 
Note on, D4 key =  62;WhichDrum: T2 ; velocity: 0
@43560 , @2.296889534883721 Channel: 2 
Note on, A3 key =  57;WhichDrum: T3 ; velocity: 0
@43560 , @2.296889534883721 Channel: 2 
Note on, G3 key =  55;WhichDrum: C2 ; velocity: 127
@43560 , @2.296889534883721 Channel: 2 
Note on, C4 key =  60;WhichDrum: B ; velocity: 127
@43680 , @2.303217054263566 Channel: 2 
Note on, G3 key =  55;WhichDrum: C2 ; velocity: 0
@43680 , @2.303217054263566 Channel: 2 
Note on, C4 key =  60;WhichDrum: B ; velocity: 0
@43680 , @2.303217054263566 Channel: 2 
Note on, D4 key =  62;WhichDrum: T2 ; velocity: 127
@43740 , @2.3063808139534885 Channel: 2 
Note on, D4 key =  62;WhichDrum: T2 ; velocity: 0
@43740 , @2.3063808139534885 Channel: 2 
Note on, C4 key =  60;WhichDrum: B ; velocity: 127
@43800 , @2.3095445736434113 Channel: 2 
Note on, C4 key =  60;WhichDrum: B ; velocity: 0
@43800 , @2.3095445736434113 Channel: 2 
Note on, A3 key =  57;WhichDrum: T3 ; velocity: 127
@43860 , @2.3127083333333336 Channel: 2 
Note on, A3 key =  57;WhichDrum: T3 ; velocity: 0
@43860 , @2.3127083333333336 Channel: 2 
Note on, G#3 key =  56;WhichDrum: B ; velocity: 127
@43920 , @2.315872093023256 Channel: 2 
Note on, G#3 key =  56;WhichDrum: B ; velocity: 0
@43920 , @2.315872093023256 Channel: 2 
Note on, G3 key =  55;WhichDrum: C2 ; velocity: 127
@43980 , @2.3190358527131787 Channel: 2 
Note on, G3 key =  55;WhichDrum: C2 ; velocity: 0
@43980 , @2.3190358527131787 Channel: 2 
Note on, E3 key =  52;WhichDrum: S ; velocity: 127
@44040 , @2.322199612403101 Channel: 2 
Note on, E3 key =  52;WhichDrum: S ; velocity: 0
@44040 , @2.322199612403101 Channel: 2 
Note on, D#3 key =  51;WhichDrum: T1 ; velocity: 127
@44100 , @2.3253633720930234 Channel: 2 
Note on, D#3 key =  51;WhichDrum: T1 ; velocity: 0
@44100 , @2.3253633720930234 Channel: 2 
Note on, D3 key =  50;WhichDrum: T2 ; velocity: 127
@44160 , @2.328527131782946 Channel: 2 
Note on, D3 key =  50;WhichDrum: T2 ; velocity: 0
@44160 , @2.328527131782946 Channel: 2 
Note on, C4 key =  60;WhichDrum: B ; velocity: 127
@44160 , @2.328527131782946 Channel: 2 
Note on, G3 key =  55;WhichDrum: C2 ; velocity: 127
@44220 , @2.3316908914728685 Channel: 2 
Note on, C4 key =  60;WhichDrum: B ; velocity: 0
@44220 , @2.3316908914728685 Channel: 2 
Note on, G3 key =  55;WhichDrum: C2 ; velocity: 0
@44220 , @2.3316908914728685 Channel: 2 
Note on, E2 key =  40;WhichDrum: S ; velocity: 127
@44280 , @2.334854651162791 Channel: 2 
Note on, E2 key =  40;WhichDrum: S ; velocity: 0
@44280 , @2.334854651162791 Channel: 2 
Note on, E2 key =  40;WhichDrum: S ; velocity: 127
@44340 , @2.3380184108527136 Channel: 2 
Note on, E2 key =  40;WhichDrum: S ; velocity: 0
@44340 , @2.3380184108527136 Channel: 2 
Note on, E2 key =  40;WhichDrum: S ; velocity: 127
@44400 , @2.341182170542636 Channel: 2 
Note on, E2 key =  40;WhichDrum: S ; velocity: 0
@44400 , @2.341182170542636 Channel: 2 
Note on, G3 key =  55;WhichDrum: C2 ; velocity: 127
@44400 , @2.341182170542636 Channel: 2 
Note on, C4 key =  60;WhichDrum: B ; velocity: 127
@44460 , @2.344345930232558 Channel: 2 
Note on, G3 key =  55;WhichDrum: C2 ; velocity: 0
@44460 , @2.344345930232558 Channel: 2 
Note on, C4 key =  60;WhichDrum: B ; velocity: 0
@44460 , @2.344345930232558 Channel: 2 
Note on, D4 key =  62;WhichDrum: T2 ; velocity: 127
@44460 , @2.344345930232558 Channel: 2 
Note on, A3 key =  57;WhichDrum: T3 ; velocity: 127
@44520 , @2.3475096899224805 Channel: 2 
Note on, D4 key =  62;WhichDrum: T2 ; velocity: 0
@44520 , @2.3475096899224805 Channel: 2 
Note on, A3 key =  57;WhichDrum: T3 ; velocity: 0
@44520 , @2.3475096899224805 Channel: 2 
Note on, G3 key =  55;WhichDrum: C2 ; velocity: 127
@44520 , @2.3475096899224805 Channel: 2 
Note on, C4 key =  60;WhichDrum: B ; velocity: 127
@44640 , @2.3538372093023257 Channel: 2 
Note on, G3 key =  55;WhichDrum: C2 ; velocity: 0
@44640 , @2.3538372093023257 Channel: 2 
Note on, C4 key =  60;WhichDrum: B ; velocity: 0
@44640 , @2.3538372093023257 Channel: 2 
Note on, C4 key =  60;WhichDrum: B ; velocity: 127
@44640 , @2.3538372093023257 Channel: 2 
Note on, G3 key =  55;WhichDrum: C2 ; velocity: 127
@44700 , @2.357000968992248 Channel: 2 
Note on, C4 key =  60;WhichDrum: B ; velocity: 0
@44700 , @2.357000968992248 Channel: 2 
Note on, G3 key =  55;WhichDrum: C2 ; velocity: 0
@44700 , @2.357000968992248 Channel: 2 
Note on, E2 key =  40;WhichDrum: S ; velocity: 127
@44760 , @2.3601647286821703 Channel: 2 
Note on, E2 key =  40;WhichDrum: S ; velocity: 0
@44760 , @2.3601647286821703 Channel: 2 
Note on, E2 key =  40;WhichDrum: S ; velocity: 127
@44820 , @2.363328488372093 Channel: 2 
Note on, E2 key =  40;WhichDrum: S ; velocity: 0
@44820 , @2.363328488372093 Channel: 2 
Note on, E2 key =  40;WhichDrum: S ; velocity: 127
@44880 , @2.3664922480620154 Channel: 2 
Note on, E2 key =  40;WhichDrum: S ; velocity: 0
@44880 , @2.3664922480620154 Channel: 2 
Note on, G3 key =  55;WhichDrum: C2 ; velocity: 127
@44880 , @2.3664922480620154 Channel: 2 
Note on, C4 key =  60;WhichDrum: B ; velocity: 127
@44940 , @2.3696560077519377 Channel: 2 
Note on, G3 key =  55;WhichDrum: C2 ; velocity: 0
@44940 , @2.3696560077519377 Channel: 2 
Note on, C4 key =  60;WhichDrum: B ; velocity: 0
@44940 , @2.3696560077519377 Channel: 2 
Note on, D4 key =  62;WhichDrum: T2 ; velocity: 127
@44940 , @2.3696560077519377 Channel: 2 
Note on, A3 key =  57;WhichDrum: T3 ; velocity: 127
@45000 , @2.3728197674418605 Channel: 2 
Note on, D4 key =  62;WhichDrum: T2 ; velocity: 0
@45000 , @2.3728197674418605 Channel: 2 
Note on, A3 key =  57;WhichDrum: T3 ; velocity: 0
@45000 , @2.3728197674418605 Channel: 2 
Note on, G3 key =  55;WhichDrum: C2 ; velocity: 127
@45000 , @2.3728197674418605 Channel: 2 
Note on, C4 key =  60;WhichDrum: B ; velocity: 127
@45120 , @2.379147286821705 Channel: 2 
Note on, G3 key =  55;WhichDrum: C2 ; velocity: 0
@45120 , @2.379147286821705 Channel: 2 
Note on, C4 key =  60;WhichDrum: B ; velocity: 0
@45120 , @2.379147286821705 Channel: 2 
Note on, C4 key =  60;WhichDrum: B ; velocity: 127
@45120 , @2.379147286821705 Channel: 2 
Note on, G3 key =  55;WhichDrum: C2 ; velocity: 127
@45180 , @2.382311046511628 Channel: 2 
Note on, C4 key =  60;WhichDrum: B ; velocity: 0
@45180 , @2.382311046511628 Channel: 2 
Note on, G3 key =  55;WhichDrum: C2 ; velocity: 0
@45180 , @2.382311046511628 Channel: 2 
Note on, E2 key =  40;WhichDrum: S ; velocity: 127
@45240 , @2.3854748062015503 Channel: 2 
Note on, E2 key =  40;WhichDrum: S ; velocity: 0
@45240 , @2.3854748062015503 Channel: 2 
Note on, E2 key =  40;WhichDrum: S ; velocity: 127
@45300 , @2.388638565891473 Channel: 2 
Note on, E2 key =  40;WhichDrum: S ; velocity: 0
@45300 , @2.388638565891473 Channel: 2 
Note on, E2 key =  40;WhichDrum: S ; velocity: 127
@45360 , @2.3918023255813954 Channel: 2 
Note on, E2 key =  40;WhichDrum: S ; velocity: 0
@45360 , @2.3918023255813954 Channel: 2 
Note on, G3 key =  55;WhichDrum: C2 ; velocity: 127
@45360 , @2.3918023255813954 Channel: 2 
Note on, C4 key =  60;WhichDrum: B ; velocity: 127
@45420 , @2.3949660852713177 Channel: 2 
Note on, G3 key =  55;WhichDrum: C2 ; velocity: 0
@45420 , @2.3949660852713177 Channel: 2 
Note on, C4 key =  60;WhichDrum: B ; velocity: 0
@45420 , @2.3949660852713177 Channel: 2 
Note on, D4 key =  62;WhichDrum: T2 ; velocity: 127
@45420 , @2.3949660852713177 Channel: 2 
Note on, A3 key =  57;WhichDrum: T3 ; velocity: 127
@45480 , @2.3981298449612405 Channel: 2 
Note on, D4 key =  62;WhichDrum: T2 ; velocity: 0
@45480 , @2.3981298449612405 Channel: 2 
Note on, A3 key =  57;WhichDrum: T3 ; velocity: 0
@45480 , @2.3981298449612405 Channel: 2 
Note on, G3 key =  55;WhichDrum: C2 ; velocity: 127
@45480 , @2.3981298449612405 Channel: 2 
Note on, C4 key =  60;WhichDrum: B ; velocity: 127
@45600 , @2.404457364341085 Channel: 2 
Note on, G3 key =  55;WhichDrum: C2 ; velocity: 0
@45600 , @2.404457364341085 Channel: 2 
Note on, C4 key =  60;WhichDrum: B ; velocity: 0
@45600 , @2.404457364341085 Channel: 2 
Note on, E4 key =  64;WhichDrum: S ; velocity: 127
@45660 , @2.407621124031008 Channel: 2 
Note on, E4 key =  64;WhichDrum: S ; velocity: 0
@45660 , @2.407621124031008 Channel: 2 
Note on, D4 key =  62;WhichDrum: T2 ; velocity: 127
@45720 , @2.4107848837209302 Channel: 2 
Note on, D4 key =  62;WhichDrum: T2 ; velocity: 0
@45720 , @2.4107848837209302 Channel: 2 
Note on, B3 key =  59;WhichDrum: T1 ; velocity: 127
@45780 , @2.4139486434108526 Channel: 2 
Note on, B3 key =  59;WhichDrum: T1 ; velocity: 0
@45780 , @2.4139486434108526 Channel: 2 
Note on, D4 key =  62;WhichDrum: T2 ; velocity: 127
@45840 , @2.4171124031007754 Channel: 2 
Note on, D4 key =  62;WhichDrum: T2 ; velocity: 0
@45840 , @2.4171124031007754 Channel: 2 
Note on, B3 key =  59;WhichDrum: T1 ; velocity: 127
@45900 , @2.4202761627906977 Channel: 2 
Note on, B3 key =  59;WhichDrum: T1 ; velocity: 0
@45900 , @2.4202761627906977 Channel: 2 
Note on, A#3 key =  58;WhichDrum: T2 ; velocity: 127
@45960 , @2.42343992248062 Channel: 2 
Note on, A#3 key =  58;WhichDrum: T2 ; velocity: 0
@45960 , @2.42343992248062 Channel: 2 
Note on, A3 key =  57;WhichDrum: T3 ; velocity: 127
@46020 , @2.426603682170543 Channel: 2 
Note on, A3 key =  57;WhichDrum: T3 ; velocity: 0
@46020 , @2.426603682170543 Channel: 2 
Note on, G3 key =  55;WhichDrum: C2 ; velocity: 127
@46080 , @2.429767441860465 Channel: 2 
Note on, G3 key =  55;WhichDrum: C2 ; velocity: 0
@46080 , @2.429767441860465 Channel: 2 
Note on, E4 key =  64;WhichDrum: S ; velocity: 127
@46140 , @2.4329312015503874 Channel: 2 
Note on, E4 key =  64;WhichDrum: S ; velocity: 0
@46140 , @2.4329312015503874 Channel: 2 
Note on, D4 key =  62;WhichDrum: T2 ; velocity: 127
@46200 , @2.43609496124031 Channel: 2 
Note on, D4 key =  62;WhichDrum: T2 ; velocity: 0
@46200 , @2.43609496124031 Channel: 2 
Note on, B3 key =  59;WhichDrum: T1 ; velocity: 127
@46260 , @2.4392587209302325 Channel: 2 
Note on, B3 key =  59;WhichDrum: T1 ; velocity: 0
@46260 , @2.4392587209302325 Channel: 2 
Note on, D4 key =  62;WhichDrum: T2 ; velocity: 127
@46320 , @2.4424224806201553 Channel: 2 
Note on, D4 key =  62;WhichDrum: T2 ; velocity: 0
@46320 , @2.4424224806201553 Channel: 2 
Note on, B3 key =  59;WhichDrum: T1 ; velocity: 127
@46380 , @2.4455862403100777 Channel: 2 
Note on, B3 key =  59;WhichDrum: T1 ; velocity: 0
@46380 , @2.4455862403100777 Channel: 2 
Note on, A#3 key =  58;WhichDrum: T2 ; velocity: 127
@46440 , @2.44875 Channel: 2 
Note on, A#3 key =  58;WhichDrum: T2 ; velocity: 0
@46440 , @2.44875 Channel: 2 
Note on, A3 key =  57;WhichDrum: T3 ; velocity: 127
@46500 , @2.4519137596899228 Channel: 2 
Note on, A3 key =  57;WhichDrum: T3 ; velocity: 0
@46500 , @2.4519137596899228 Channel: 2 
Note on, G3 key =  55;WhichDrum: C2 ; velocity: 127
@46560 , @2.455077519379845 Channel: 2 
Note on, G3 key =  55;WhichDrum: C2 ; velocity: 0
@46560 , @2.455077519379845 Channel: 2 
Note on, D4 key =  62;WhichDrum: T2 ; velocity: 127
@46560 , @2.455077519379845 Channel: 2 
Note on, G3 key =  55;WhichDrum: C2 ; velocity: 127
@47040 , @2.480387596899225 Channel: 2 
Note on, D4 key =  62;WhichDrum: T2 ; velocity: 0
@47040 , @2.480387596899225 Channel: 2 
Note on, G3 key =  55;WhichDrum: C2 ; velocity: 0
@47040 , @2.480387596899225 Channel: 2 
Note on, C#4 key =  61;WhichDrum: T3 ; velocity: 127
@47040 , @2.480387596899225 Channel: 2 
Note on, F#3 key =  54;WhichDrum: C1 ; velocity: 127
@47280 , @2.493042635658915 Channel: 2 
Note on, C#4 key =  61;WhichDrum: T3 ; velocity: 0
@47280 , @2.493042635658915 Channel: 2 
Note on, F#3 key =  54;WhichDrum: C1 ; velocity: 0
@47280 , @2.493042635658915 Channel: 2 
Note on, C4 key =  60;WhichDrum: B ; velocity: 127
@47280 , @2.493042635658915 Channel: 2 
Note on, F3 key =  53;WhichDrum: HH ; velocity: 127
@47520 , @2.505697674418605 Channel: 2 
Note on, C4 key =  60;WhichDrum: B ; velocity: 0
@47520 , @2.505697674418605 Channel: 2 
Note on, F3 key =  53;WhichDrum: HH ; velocity: 0
@47520 , @2.505697674418605 Channel: 2 
Note on, E2 key =  40;WhichDrum: S ; velocity: 127
@47580 , @2.5088614341085274 Channel: 2 
Note on, E2 key =  40;WhichDrum: S ; velocity: 0
@47580 , @2.5088614341085274 Channel: 2 
Note on, E2 key =  40;WhichDrum: S ; velocity: 127
@47640 , @2.5120251937984497 Channel: 2 
Note on, E2 key =  40;WhichDrum: S ; velocity: 0
@47640 , @2.5120251937984497 Channel: 2 
Note on, E2 key =  40;WhichDrum: S ; velocity: 127
@47700 , @2.5151889534883725 Channel: 2 
Note on, E2 key =  40;WhichDrum: S ; velocity: 0
@47700 , @2.5151889534883725 Channel: 2 
Note on, E2 key =  40;WhichDrum: S ; velocity: 127
@47760 , @2.518352713178295 Channel: 2 
Note on, E2 key =  40;WhichDrum: S ; velocity: 0
@47760 , @2.518352713178295 Channel: 2 
Note on, E2 key =  40;WhichDrum: S ; velocity: 127
@47820 , @2.521516472868217 Channel: 2 
Note on, E2 key =  40;WhichDrum: S ; velocity: 0
@47820 , @2.521516472868217 Channel: 2 
Note on, E2 key =  40;WhichDrum: S ; velocity: 127
@47880 , @2.52468023255814 Channel: 2 
Note on, E2 key =  40;WhichDrum: S ; velocity: 0
@47880 , @2.52468023255814 Channel: 2 
Note on, E2 key =  40;WhichDrum: S ; velocity: 127
@47940 , @2.527843992248062 Channel: 2 
Note on, E2 key =  40;WhichDrum: S ; velocity: 0
@47940 , @2.527843992248062 Channel: 2 
Note on, E2 key =  40;WhichDrum: S ; velocity: 127
@48000 , @2.5310077519379846 Channel: 2 
Note on, E2 key =  40;WhichDrum: S ; velocity: 0
@48000 , @2.5310077519379846 Channel: 2 
Note on, E2 key =  40;WhichDrum: S ; velocity: 127
@48060 , @2.5341715116279073 Channel: 2 
Note on, E2 key =  40;WhichDrum: S ; velocity: 0
@48060 , @2.5341715116279073 Channel: 2 
Note on, E2 key =  40;WhichDrum: S ; velocity: 127
@48120 , @2.5373352713178297 Channel: 2 
Note on, E2 key =  40;WhichDrum: S ; velocity: 0
@48120 , @2.5373352713178297 Channel: 2 
Note on, E2 key =  40;WhichDrum: S ; velocity: 127
@48180 , @2.540499031007752 Channel: 2 
Note on, E2 key =  40;WhichDrum: S ; velocity: 0
@48180 , @2.540499031007752 Channel: 2 
Note on, E2 key =  40;WhichDrum: S ; velocity: 127
@48240 , @2.5436627906976748 Channel: 2 
Note on, E2 key =  40;WhichDrum: S ; velocity: 0
@48240 , @2.5436627906976748 Channel: 2 
Note on, E2 key =  40;WhichDrum: S ; velocity: 127
@48300 , @2.546826550387597 Channel: 2 
Note on, E2 key =  40;WhichDrum: S ; velocity: 0
@48300 , @2.546826550387597 Channel: 2 
Note on, E2 key =  40;WhichDrum: S ; velocity: 127
@48360 , @2.54999031007752 Channel: 2 
Note on, E2 key =  40;WhichDrum: S ; velocity: 0
@48360 , @2.54999031007752 Channel: 2 
Note on, E2 key =  40;WhichDrum: S ; velocity: 127
@48420 , @2.5531540697674417 Channel: 2 
Note on, E2 key =  40;WhichDrum: S ; velocity: 0
@48420 , @2.5531540697674417 Channel: 2 
Note on, E2 key =  40;WhichDrum: S ; velocity: 127
@48480 , @2.556317829457364 Channel: 2 
Note on, E2 key =  40;WhichDrum: S ; velocity: 0
@48480 , @2.556317829457364 Channel: 2 
Note on, D4 key =  62;WhichDrum: T2 ; velocity: 127
@48480 , @2.556317829457364 Channel: 2 
Note on, G3 key =  55;WhichDrum: C2 ; velocity: 127
@48960 , @2.581627906976744 Channel: 2 
Note on, D4 key =  62;WhichDrum: T2 ; velocity: 0
@48960 , @2.581627906976744 Channel: 2 
Note on, G3 key =  55;WhichDrum: C2 ; velocity: 0
@48960 , @2.581627906976744 Channel: 2 
Note on, C#4 key =  61;WhichDrum: T3 ; velocity: 127
@48960 , @2.581627906976744 Channel: 2 
Note on, F#3 key =  54;WhichDrum: C1 ; velocity: 127
@49200 , @2.5942829457364343 Channel: 2 
Note on, C#4 key =  61;WhichDrum: T3 ; velocity: 0
@49200 , @2.5942829457364343 Channel: 2 
Note on, F#3 key =  54;WhichDrum: C1 ; velocity: 0
@49200 , @2.5942829457364343 Channel: 2 
Note on, C4 key =  60;WhichDrum: B ; velocity: 127
@49200 , @2.5942829457364343 Channel: 2 
Note on, F3 key =  53;WhichDrum: HH ; velocity: 127
@49440 , @2.606937984496124 Channel: 2 
Note on, C4 key =  60;WhichDrum: B ; velocity: 0
@49440 , @2.606937984496124 Channel: 2 
Note on, F3 key =  53;WhichDrum: HH ; velocity: 0
@49440 , @2.606937984496124 Channel: 2 
Note on, E2 key =  40;WhichDrum: S ; velocity: 127
@49500 , @2.6101017441860463 Channel: 2 
Note on, E2 key =  40;WhichDrum: S ; velocity: 0
@49500 , @2.6101017441860463 Channel: 2 
Note on, E2 key =  40;WhichDrum: S ; velocity: 127
@49560 , @2.613265503875969 Channel: 2 
Note on, E2 key =  40;WhichDrum: S ; velocity: 0
@49560 , @2.613265503875969 Channel: 2 
Note on, E2 key =  40;WhichDrum: S ; velocity: 127
@49620 , @2.6164292635658914 Channel: 2 
Note on, E2 key =  40;WhichDrum: S ; velocity: 0
@49620 , @2.6164292635658914 Channel: 2 
Note on, E2 key =  40;WhichDrum: S ; velocity: 127
@49680 , @2.619593023255814 Channel: 2 
Note on, E2 key =  40;WhichDrum: S ; velocity: 0
@49680 , @2.619593023255814 Channel: 2 
Note on, E2 key =  40;WhichDrum: S ; velocity: 127
@49740 , @2.6227567829457366 Channel: 2 
Note on, E2 key =  40;WhichDrum: S ; velocity: 0
@49740 , @2.6227567829457366 Channel: 2 
Note on, E2 key =  40;WhichDrum: S ; velocity: 127
@49800 , @2.625920542635659 Channel: 2 
Note on, E2 key =  40;WhichDrum: S ; velocity: 0
@49800 , @2.625920542635659 Channel: 2 
Note on, E2 key =  40;WhichDrum: S ; velocity: 127
@49860 , @2.6290843023255817 Channel: 2 
Note on, E2 key =  40;WhichDrum: S ; velocity: 0
@49860 , @2.6290843023255817 Channel: 2 
Note on, E2 key =  40;WhichDrum: S ; velocity: 127
@49920 , @2.632248062015504 Channel: 2 
Note on, E2 key =  40;WhichDrum: S ; velocity: 0
@49920 , @2.632248062015504 Channel: 2 
Note on, E2 key =  40;WhichDrum: S ; velocity: 127
@49980 , @2.6354118217054263 Channel: 2 
Note on, E2 key =  40;WhichDrum: S ; velocity: 0
@49980 , @2.6354118217054263 Channel: 2 
Note on, E2 key =  40;WhichDrum: S ; velocity: 127
@50040 , @2.638575581395349 Channel: 2 
Note on, E2 key =  40;WhichDrum: S ; velocity: 0
@50040 , @2.638575581395349 Channel: 2 
Note on, E2 key =  40;WhichDrum: S ; velocity: 127
@50100 , @2.6417393410852714 Channel: 2 
Note on, E2 key =  40;WhichDrum: S ; velocity: 0
@50100 , @2.6417393410852714 Channel: 2 
Note on, E2 key =  40;WhichDrum: S ; velocity: 127
@50160 , @2.6449031007751937 Channel: 2 
Note on, E2 key =  40;WhichDrum: S ; velocity: 0
@50160 , @2.6449031007751937 Channel: 2 
Note on, E2 key =  40;WhichDrum: S ; velocity: 127
@50220 , @2.6480668604651165 Channel: 2 
Note on, E2 key =  40;WhichDrum: S ; velocity: 0
@50220 , @2.6480668604651165 Channel: 2 
Note on, E2 key =  40;WhichDrum: S ; velocity: 127
@50280 , @2.651230620155039 Channel: 2 
Note on, E2 key =  40;WhichDrum: S ; velocity: 0
@50280 , @2.651230620155039 Channel: 2 
Note on, E2 key =  40;WhichDrum: S ; velocity: 127
@50340 , @2.654394379844961 Channel: 2 
Note on, E2 key =  40;WhichDrum: S ; velocity: 0
@50340 , @2.654394379844961 Channel: 2 
Note on, E2 key =  40;WhichDrum: S ; velocity: 127
@50400 , @2.657558139534884 Channel: 2 
Note on, E2 key =  40;WhichDrum: S ; velocity: 0
@50400 , @2.657558139534884 Channel: 2 
Note on, D4 key =  62;WhichDrum: T2 ; velocity: 127
@50400 , @2.657558139534884 Channel: 2 
Note on, G3 key =  55;WhichDrum: C2 ; velocity: 127
@50880 , @2.682868217054264 Channel: 2 
Note on, D4 key =  62;WhichDrum: T2 ; velocity: 0
@50880 , @2.682868217054264 Channel: 2 
Note on, G3 key =  55;WhichDrum: C2 ; velocity: 0
@50880 , @2.682868217054264 Channel: 2 
Note on, C#4 key =  61;WhichDrum: T3 ; velocity: 127
@50880 , @2.682868217054264 Channel: 2 
Note on, F#3 key =  54;WhichDrum: C1 ; velocity: 127
@51120 , @2.6955232558139537 Channel: 2 
Note on, C#4 key =  61;WhichDrum: T3 ; velocity: 0
@51120 , @2.6955232558139537 Channel: 2 
Note on, F#3 key =  54;WhichDrum: C1 ; velocity: 0
@51120 , @2.6955232558139537 Channel: 2 
Note on, C4 key =  60;WhichDrum: B ; velocity: 127
@51120 , @2.6955232558139537 Channel: 2 
Note on, F3 key =  53;WhichDrum: HH ; velocity: 127
@51360 , @2.7081782945736435 Channel: 2 
Note on, C4 key =  60;WhichDrum: B ; velocity: 0
@51360 , @2.7081782945736435 Channel: 2 
Note on, F3 key =  53;WhichDrum: HH ; velocity: 0
@51360 , @2.7081782945736435 Channel: 2 
Note on, E2 key =  40;WhichDrum: S ; velocity: 127
@51420 , @2.7113420542635662 Channel: 2 
Note on, E2 key =  40;WhichDrum: S ; velocity: 0
@51420 , @2.7113420542635662 Channel: 2 
Note on, E2 key =  40;WhichDrum: S ; velocity: 127
@51480 , @2.7145058139534886 Channel: 2 
Note on, E2 key =  40;WhichDrum: S ; velocity: 0
@51480 , @2.7145058139534886 Channel: 2 
Note on, E2 key =  40;WhichDrum: S ; velocity: 127
@51540 , @2.717669573643411 Channel: 2 
Note on, E2 key =  40;WhichDrum: S ; velocity: 0
@51540 , @2.717669573643411 Channel: 2 
Note on, E2 key =  40;WhichDrum: S ; velocity: 127
@51600 , @2.7208333333333337 Channel: 2 
Note on, E2 key =  40;WhichDrum: S ; velocity: 0
@51600 , @2.7208333333333337 Channel: 2 
Note on, E2 key =  40;WhichDrum: S ; velocity: 127
@51660 , @2.723997093023256 Channel: 2 
Note on, E2 key =  40;WhichDrum: S ; velocity: 0
@51660 , @2.723997093023256 Channel: 2 
Note on, E2 key =  40;WhichDrum: S ; velocity: 127
@51720 , @2.7271608527131783 Channel: 2 
Note on, E2 key =  40;WhichDrum: S ; velocity: 0
@51720 , @2.7271608527131783 Channel: 2 
Note on, E2 key =  40;WhichDrum: S ; velocity: 127
@51780 , @2.730324612403101 Channel: 2 
Note on, E2 key =  40;WhichDrum: S ; velocity: 0
@51780 , @2.730324612403101 Channel: 2 
Note on, E2 key =  40;WhichDrum: S ; velocity: 127
@51840 , @2.7334883720930234 Channel: 2 
Note on, E2 key =  40;WhichDrum: S ; velocity: 0
@51840 , @2.7334883720930234 Channel: 2 
Note on, E2 key =  40;WhichDrum: S ; velocity: 127
@51900 , @2.736652131782946 Channel: 2 
Note on, E2 key =  40;WhichDrum: S ; velocity: 0
@51900 , @2.736652131782946 Channel: 2 
Note on, E2 key =  40;WhichDrum: S ; velocity: 127
@51960 , @2.7398158914728685 Channel: 2 
Note on, E2 key =  40;WhichDrum: S ; velocity: 0
@51960 , @2.7398158914728685 Channel: 2 
Note on, E2 key =  40;WhichDrum: S ; velocity: 127
@52020 , @2.742979651162791 Channel: 2 
Note on, E2 key =  40;WhichDrum: S ; velocity: 0
@52020 , @2.742979651162791 Channel: 2 
Note on, E2 key =  40;WhichDrum: S ; velocity: 127
@52080 , @2.7461434108527136 Channel: 2 
Note on, E2 key =  40;WhichDrum: S ; velocity: 0
@52080 , @2.7461434108527136 Channel: 2 
Note on, E2 key =  40;WhichDrum: S ; velocity: 127
@52140 , @2.749307170542636 Channel: 2 
Note on, E2 key =  40;WhichDrum: S ; velocity: 0
@52140 , @2.749307170542636 Channel: 2 
Note on, E2 key =  40;WhichDrum: S ; velocity: 127
@52200 , @2.7524709302325583 Channel: 2 
Note on, E2 key =  40;WhichDrum: S ; velocity: 0
@52200 , @2.7524709302325583 Channel: 2 
Note on, E2 key =  40;WhichDrum: S ; velocity: 127
@52260 , @2.7556346899224806 Channel: 2 
Note on, E2 key =  40;WhichDrum: S ; velocity: 0
@52260 , @2.7556346899224806 Channel: 2 
Note on, E2 key =  40;WhichDrum: S ; velocity: 127
@52320 , @2.758798449612403 Channel: 2 
Note on, E2 key =  40;WhichDrum: S ; velocity: 0
@52320 , @2.758798449612403 Channel: 2 
Note on, D4 key =  62;WhichDrum: T2 ; velocity: 127
@52320 , @2.758798449612403 Channel: 2 
Note on, G3 key =  55;WhichDrum: C2 ; velocity: 127
@52800 , @2.784108527131783 Channel: 2 
Note on, D4 key =  62;WhichDrum: T2 ; velocity: 0
@52800 , @2.784108527131783 Channel: 2 
Note on, G3 key =  55;WhichDrum: C2 ; velocity: 0
@52800 , @2.784108527131783 Channel: 2 
Note on, C#4 key =  61;WhichDrum: T3 ; velocity: 127
@52800 , @2.784108527131783 Channel: 2 
Note on, F#3 key =  54;WhichDrum: C1 ; velocity: 127
@53040 , @2.7967635658914727 Channel: 2 
Note on, C#4 key =  61;WhichDrum: T3 ; velocity: 0
@53040 , @2.7967635658914727 Channel: 2 
Note on, F#3 key =  54;WhichDrum: C1 ; velocity: 0
@53040 , @2.7967635658914727 Channel: 2 
Note on, C4 key =  60;WhichDrum: B ; velocity: 127
@53040 , @2.7967635658914727 Channel: 2 
Note on, F3 key =  53;WhichDrum: HH ; velocity: 127
@53280 , @2.809418604651163 Channel: 2 
Note on, C4 key =  60;WhichDrum: B ; velocity: 0
@53280 , @2.809418604651163 Channel: 2 
Note on, F3 key =  53;WhichDrum: HH ; velocity: 0
@53280 , @2.809418604651163 Channel: 2 
Note on, E4 key =  64;WhichDrum: S ; velocity: 127
@53280 , @2.809418604651163 Channel: 2 
Note on, B3 key =  59;WhichDrum: T1 ; velocity: 127
@53280 , @2.809418604651163 Channel: 2 
Note on, E3 key =  52;WhichDrum: S ; velocity: 127
@53280 , @2.809418604651163 Channel: 2 
Note on, E2 key =  40;WhichDrum: S ; velocity: 127
@53760 , @2.834728682170543 Channel: 2 
Note on, E4 key =  64;WhichDrum: S ; velocity: 0
@53760 , @2.834728682170543 Channel: 2 
Note on, B3 key =  59;WhichDrum: T1 ; velocity: 0
@53760 , @2.834728682170543 Channel: 2 
Note on, E3 key =  52;WhichDrum: S ; velocity: 0
@53760 , @2.834728682170543 Channel: 2 
Note on, E2 key =  40;WhichDrum: S ; velocity: 0
@53760 , @2.834728682170543 Channel: 2 
Note on, G#4 key =  68;WhichDrum: B ; velocity: 127
@53760 , @2.834728682170543 Channel: 2 
Note on, E4 key =  64;WhichDrum: S ; velocity: 127
@53760 , @2.834728682170543 Channel: 2 
Note on, B3 key =  59;WhichDrum: T1 ; velocity: 127
@53760 , @2.834728682170543 Channel: 2 
Note on, E3 key =  52;WhichDrum: S ; velocity: 127
@53880 , @2.8410562015503875 Channel: 2 
Note on, G#4 key =  68;WhichDrum: B ; velocity: 0
@53880 , @2.8410562015503875 Channel: 2 
Note on, E4 key =  64;WhichDrum: S ; velocity: 0
@53880 , @2.8410562015503875 Channel: 2 
Note on, B3 key =  59;WhichDrum: T1 ; velocity: 0
@53880 , @2.8410562015503875 Channel: 2 
Note on, E3 key =  52;WhichDrum: S ; velocity: 0
@55680 , @2.9359689922480623 Channel: 2 
Note on, A2 key =  45;WhichDrum: T3 ; velocity: 127
@55680 , @2.9359689922480623 Channel: 2 
Note on, G3 key =  55;WhichDrum: C2 ; velocity: 127
@55740 , @2.9391327519379846 Channel: 2 
Note on, A2 key =  45;WhichDrum: T3 ; velocity: 0
@55740 , @2.9391327519379846 Channel: 2 
Note on, G3 key =  55;WhichDrum: C2 ; velocity: 0
@55740 , @2.9391327519379846 Channel: 2 
Note on, A3 key =  57;WhichDrum: T3 ; velocity: 127
@55740 , @2.9391327519379846 Channel: 2 
Note on, A2 key =  45;WhichDrum: T3 ; velocity: 127
@55800 , @2.9422965116279074 Channel: 2 
Note on, A3 key =  57;WhichDrum: T3 ; velocity: 0
@55800 , @2.9422965116279074 Channel: 2 
Note on, A2 key =  45;WhichDrum: T3 ; velocity: 0
@55800 , @2.9422965116279074 Channel: 2 
Note on, A2 key =  45;WhichDrum: T3 ; velocity: 127
@55860 , @2.9454602713178297 Channel: 2 
Note on, A2 key =  45;WhichDrum: T3 ; velocity: 0
@55860 , @2.9454602713178297 Channel: 2 
Note on, A3 key =  57;WhichDrum: T3 ; velocity: 127
@55920 , @2.948624031007752 Channel: 2 
Note on, A3 key =  57;WhichDrum: T3 ; velocity: 0
@55920 , @2.948624031007752 Channel: 2 
Note on, A2 key =  45;WhichDrum: T3 ; velocity: 127
@55980 , @2.951787790697675 Channel: 2 
Note on, A2 key =  45;WhichDrum: T3 ; velocity: 0
@55980 , @2.951787790697675 Channel: 2 
Note on, A2 key =  45;WhichDrum: T3 ; velocity: 127
@56040 , @2.954951550387597 Channel: 2 
Note on, A2 key =  45;WhichDrum: T3 ; velocity: 0
@56040 , @2.954951550387597 Channel: 2 
Note on, A3 key =  57;WhichDrum: T3 ; velocity: 127
@56100 , @2.9581153100775195 Channel: 2 
Note on, A3 key =  57;WhichDrum: T3 ; velocity: 0
@56100 , @2.9581153100775195 Channel: 2 
Note on, A2 key =  45;WhichDrum: T3 ; velocity: 127
@56160 , @2.961279069767442 Channel: 2 
Note on, A2 key =  45;WhichDrum: T3 ; velocity: 0
@56160 , @2.961279069767442 Channel: 2 
Note on, C4 key =  60;WhichDrum: B ; velocity: 127
@56160 , @2.961279069767442 Channel: 2 
Note on, G3 key =  55;WhichDrum: C2 ; velocity: 127
@56220 , @2.964442829457364 Channel: 2 
Note on, C4 key =  60;WhichDrum: B ; velocity: 0
@56220 , @2.964442829457364 Channel: 2 
Note on, G3 key =  55;WhichDrum: C2 ; velocity: 0
@56220 , @2.964442829457364 Channel: 2 
Note on, A2 key =  45;WhichDrum: T3 ; velocity: 127
@56280 , @2.967606589147287 Channel: 2 
Note on, A2 key =  45;WhichDrum: T3 ; velocity: 0
@56280 , @2.967606589147287 Channel: 2 
Note on, A2 key =  45;WhichDrum: T3 ; velocity: 127
@56340 , @2.9707703488372093 Channel: 2 
Note on, A2 key =  45;WhichDrum: T3 ; velocity: 0
@56340 , @2.9707703488372093 Channel: 2 
Note on, A3 key =  57;WhichDrum: T3 ; velocity: 127
@56400 , @2.9739341085271316 Channel: 2 
Note on, A3 key =  57;WhichDrum: T3 ; velocity: 0
@56400 , @2.9739341085271316 Channel: 2 
Note on, A2 key =  45;WhichDrum: T3 ; velocity: 127
@56460 , @2.9770978682170544 Channel: 2 
Note on, A2 key =  45;WhichDrum: T3 ; velocity: 0
@56460 , @2.9770978682170544 Channel: 2 
Note on, A2 key =  45;WhichDrum: T3 ; velocity: 127
@56520 , @2.9802616279069767 Channel: 2 
Note on, A2 key =  45;WhichDrum: T3 ; velocity: 0
@56520 , @2.9802616279069767 Channel: 2 
Note on, A3 key =  57;WhichDrum: T3 ; velocity: 127
@56580 , @2.983425387596899 Channel: 2 
Note on, A3 key =  57;WhichDrum: T3 ; velocity: 0
@56580 , @2.983425387596899 Channel: 2 
Note on, A2 key =  45;WhichDrum: T3 ; velocity: 127
@56640 , @2.986589147286822 Channel: 2 
Note on, A2 key =  45;WhichDrum: T3 ; velocity: 0
@56640 , @2.986589147286822 Channel: 2 
Note on, B3 key =  59;WhichDrum: T1 ; velocity: 127
@56640 , @2.986589147286822 Channel: 2 
Note on, F#3 key =  54;WhichDrum: C1 ; velocity: 127
@56700 , @2.989752906976744 Channel: 2 
Note on, B3 key =  59;WhichDrum: T1 ; velocity: 0
@56700 , @2.989752906976744 Channel: 2 
Note on, F#3 key =  54;WhichDrum: C1 ; velocity: 0
@56700 , @2.989752906976744 Channel: 2 
Note on, A2 key =  45;WhichDrum: T3 ; velocity: 127
@56760 , @2.9929166666666664 Channel: 2 
Note on, A2 key =  45;WhichDrum: T3 ; velocity: 0
@56760 , @2.9929166666666664 Channel: 2 
Note on, A2 key =  45;WhichDrum: T3 ; velocity: 127
@56820 , @2.996080426356589 Channel: 2 
Note on, A2 key =  45;WhichDrum: T3 ; velocity: 0
@56820 , @2.996080426356589 Channel: 2 
Note on, A3 key =  57;WhichDrum: T3 ; velocity: 127
@56880 , @2.9992441860465116 Channel: 2 
Note on, A3 key =  57;WhichDrum: T3 ; velocity: 0
@56880 , @2.9992441860465116 Channel: 2 
Note on, A2 key =  45;WhichDrum: T3 ; velocity: 127
@56940 , @3.0024079457364343 Channel: 2 
Note on, A2 key =  45;WhichDrum: T3 ; velocity: 0
@56940 , @3.0024079457364343 Channel: 2 
Note on, A2 key =  45;WhichDrum: T3 ; velocity: 127
@57000 , @3.0055717054263567 Channel: 2 
Note on, A2 key =  45;WhichDrum: T3 ; velocity: 0
@57000 , @3.0055717054263567 Channel: 2 
Note on, A3 key =  57;WhichDrum: T3 ; velocity: 127
@57120 , @3.0118992248062018 Channel: 2 
Note on, A3 key =  57;WhichDrum: T3 ; velocity: 0
@57120 , @3.0118992248062018 Channel: 2 
Note on, C3 key =  48;WhichDrum: B ; velocity: 127
@57180 , @3.015062984496124 Channel: 2 
Note on, C3 key =  48;WhichDrum: B ; velocity: 0
@57180 , @3.015062984496124 Channel: 2 
Note on, B2 key =  47;WhichDrum: T1 ; velocity: 127
@57240 , @3.0182267441860464 Channel: 2 
Note on, B2 key =  47;WhichDrum: T1 ; velocity: 0
@57240 , @3.0182267441860464 Channel: 2 
Note on, A2 key =  45;WhichDrum: T3 ; velocity: 127
@57300 , @3.021390503875969 Channel: 2 
Note on, A2 key =  45;WhichDrum: T3 ; velocity: 0
@57300 , @3.021390503875969 Channel: 2 
Note on, F3 key =  53;WhichDrum: HH ; velocity: 127
@57360 , @3.0245542635658915 Channel: 2 
Note on, F3 key =  53;WhichDrum: HH ; velocity: 0
@57360 , @3.0245542635658915 Channel: 2 
Note on, E3 key =  52;WhichDrum: S ; velocity: 127
@57420 , @3.027718023255814 Channel: 2 
Note on, E3 key =  52;WhichDrum: S ; velocity: 0
@57420 , @3.027718023255814 Channel: 2 
Note on, D3 key =  50;WhichDrum: T2 ; velocity: 127
@57480 , @3.0308817829457366 Channel: 2 
Note on, D3 key =  50;WhichDrum: T2 ; velocity: 0
@57480 , @3.0308817829457366 Channel: 2 
Note on, C3 key =  48;WhichDrum: B ; velocity: 127
@57540 , @3.034045542635659 Channel: 2 
Note on, C3 key =  48;WhichDrum: B ; velocity: 0
@57540 , @3.034045542635659 Channel: 2 
Note on, A2 key =  45;WhichDrum: T3 ; velocity: 127
@57600 , @3.0372093023255813 Channel: 2 
Note on, A2 key =  45;WhichDrum: T3 ; velocity: 0
@57600 , @3.0372093023255813 Channel: 2 
Note on, G3 key =  55;WhichDrum: C2 ; velocity: 127
@57660 , @3.040373062015504 Channel: 2 
Note on, G3 key =  55;WhichDrum: C2 ; velocity: 0
@57660 , @3.040373062015504 Channel: 2 
Note on, A2 key =  45;WhichDrum: T3 ; velocity: 127
@57720 , @3.0435368217054264 Channel: 2 
Note on, A2 key =  45;WhichDrum: T3 ; velocity: 0
@57720 , @3.0435368217054264 Channel: 2 
Note on, A2 key =  45;WhichDrum: T3 ; velocity: 127
@57780 , @3.0467005813953487 Channel: 2 
Note on, A2 key =  45;WhichDrum: T3 ; velocity: 0
@57780 , @3.0467005813953487 Channel: 2 
Note on, A3 key =  57;WhichDrum: T3 ; velocity: 127
@57840 , @3.0498643410852715 Channel: 2 
Note on, A3 key =  57;WhichDrum: T3 ; velocity: 0
@57840 , @3.0498643410852715 Channel: 2 
Note on, A2 key =  45;WhichDrum: T3 ; velocity: 127
@57900 , @3.053028100775194 Channel: 2 
Note on, A2 key =  45;WhichDrum: T3 ; velocity: 0
@57900 , @3.053028100775194 Channel: 2 
Note on, A2 key =  45;WhichDrum: T3 ; velocity: 127
@57960 , @3.0561918604651166 Channel: 2 
Note on, A2 key =  45;WhichDrum: T3 ; velocity: 0
@57960 , @3.0561918604651166 Channel: 2 
Note on, A3 key =  57;WhichDrum: T3 ; velocity: 127
@58020 , @3.059355620155039 Channel: 2 
Note on, A3 key =  57;WhichDrum: T3 ; velocity: 0
@58020 , @3.059355620155039 Channel: 2 
Note on, A2 key =  45;WhichDrum: T3 ; velocity: 127
@58080 , @3.0625193798449613 Channel: 2 
Note on, A2 key =  45;WhichDrum: T3 ; velocity: 0
@58080 , @3.0625193798449613 Channel: 2 
Note on, C4 key =  60;WhichDrum: B ; velocity: 127
@58080 , @3.0625193798449613 Channel: 2 
Note on, G3 key =  55;WhichDrum: C2 ; velocity: 127
@58140 , @3.065683139534884 Channel: 2 
Note on, C4 key =  60;WhichDrum: B ; velocity: 0
@58140 , @3.065683139534884 Channel: 2 
Note on, G3 key =  55;WhichDrum: C2 ; velocity: 0
@58140 , @3.065683139534884 Channel: 2 
Note on, A2 key =  45;WhichDrum: T3 ; velocity: 127
@58200 , @3.0688468992248064 Channel: 2 
Note on, A2 key =  45;WhichDrum: T3 ; velocity: 0
@58200 , @3.0688468992248064 Channel: 2 
Note on, A2 key =  45;WhichDrum: T3 ; velocity: 127
@58260 , @3.0720106589147287 Channel: 2 
Note on, A2 key =  45;WhichDrum: T3 ; velocity: 0
@58260 , @3.0720106589147287 Channel: 2 
Note on, A3 key =  57;WhichDrum: T3 ; velocity: 127
@58320 , @3.0751744186046515 Channel: 2 
Note on, A3 key =  57;WhichDrum: T3 ; velocity: 0
@58320 , @3.0751744186046515 Channel: 2 
Note on, A2 key =  45;WhichDrum: T3 ; velocity: 127
@58380 , @3.078338178294574 Channel: 2 
Note on, A2 key =  45;WhichDrum: T3 ; velocity: 0
@58380 , @3.078338178294574 Channel: 2 
Note on, A2 key =  45;WhichDrum: T3 ; velocity: 127
@58440 , @3.081501937984496 Channel: 2 
Note on, A2 key =  45;WhichDrum: T3 ; velocity: 0
@58440 , @3.081501937984496 Channel: 2 
Note on, A3 key =  57;WhichDrum: T3 ; velocity: 127
@58500 , @3.084665697674419 Channel: 2 
Note on, A3 key =  57;WhichDrum: T3 ; velocity: 0
@58500 , @3.084665697674419 Channel: 2 
Note on, A2 key =  45;WhichDrum: T3 ; velocity: 127
@58560 , @3.0878294573643412 Channel: 2 
Note on, A2 key =  45;WhichDrum: T3 ; velocity: 0
@58560 , @3.0878294573643412 Channel: 2 
Note on, B3 key =  59;WhichDrum: T1 ; velocity: 127
@58560 , @3.0878294573643412 Channel: 2 
Note on, F#3 key =  54;WhichDrum: C1 ; velocity: 127
@58620 , @3.0909932170542636 Channel: 2 
Note on, B3 key =  59;WhichDrum: T1 ; velocity: 0
@58620 , @3.0909932170542636 Channel: 2 
Note on, F#3 key =  54;WhichDrum: C1 ; velocity: 0
@58620 , @3.0909932170542636 Channel: 2 
Note on, A2 key =  45;WhichDrum: T3 ; velocity: 127
@58680 , @3.0941569767441863 Channel: 2 
Note on, A2 key =  45;WhichDrum: T3 ; velocity: 0
@58680 , @3.0941569767441863 Channel: 2 
Note on, A2 key =  45;WhichDrum: T3 ; velocity: 127
@58740 , @3.0973207364341087 Channel: 2 
Note on, A2 key =  45;WhichDrum: T3 ; velocity: 0
@58740 , @3.0973207364341087 Channel: 2 
Note on, A3 key =  57;WhichDrum: T3 ; velocity: 127
@58800 , @3.100484496124031 Channel: 2 
Note on, A3 key =  57;WhichDrum: T3 ; velocity: 0
@58800 , @3.100484496124031 Channel: 2 
Note on, A2 key =  45;WhichDrum: T3 ; velocity: 127
@58860 , @3.1036482558139538 Channel: 2 
Note on, A2 key =  45;WhichDrum: T3 ; velocity: 0
@58860 , @3.1036482558139538 Channel: 2 
Note on, A2 key =  45;WhichDrum: T3 ; velocity: 127
@58920 , @3.106812015503876 Channel: 2 
Note on, A2 key =  45;WhichDrum: T3 ; velocity: 0
@58920 , @3.106812015503876 Channel: 2 
Note on, A3 key =  57;WhichDrum: T3 ; velocity: 127
@59040 , @3.113139534883721 Channel: 2 
Note on, A3 key =  57;WhichDrum: T3 ; velocity: 0
@59040 , @3.113139534883721 Channel: 2 
Note on, C3 key =  48;WhichDrum: B ; velocity: 127
@59100 , @3.1163032945736435 Channel: 2 
Note on, C3 key =  48;WhichDrum: B ; velocity: 0
@59100 , @3.1163032945736435 Channel: 2 
Note on, B2 key =  47;WhichDrum: T1 ; velocity: 127
@59160 , @3.1194670542635663 Channel: 2 
Note on, B2 key =  47;WhichDrum: T1 ; velocity: 0
@59160 , @3.1194670542635663 Channel: 2 
Note on, A2 key =  45;WhichDrum: T3 ; velocity: 127
@59220 , @3.1226308139534886 Channel: 2 
Note on, A2 key =  45;WhichDrum: T3 ; velocity: 0
@59220 , @3.1226308139534886 Channel: 2 
Note on, F3 key =  53;WhichDrum: HH ; velocity: 127
@59280 , @3.125794573643411 Channel: 2 
Note on, F3 key =  53;WhichDrum: HH ; velocity: 0
@59280 , @3.125794573643411 Channel: 2 
Note on, E3 key =  52;WhichDrum: S ; velocity: 127
@59340 , @3.1289583333333337 Channel: 2 
Note on, E3 key =  52;WhichDrum: S ; velocity: 0
@59340 , @3.1289583333333337 Channel: 2 
Note on, D3 key =  50;WhichDrum: T2 ; velocity: 127
@59400 , @3.132122093023256 Channel: 2 
Note on, D3 key =  50;WhichDrum: T2 ; velocity: 0
@59400 , @3.132122093023256 Channel: 2 
Note on, C3 key =  48;WhichDrum: B ; velocity: 127
@59460 , @3.1352858527131784 Channel: 2 
Note on, C3 key =  48;WhichDrum: B ; velocity: 0
@59460 , @3.1352858527131784 Channel: 2 
Note on, A2 key =  45;WhichDrum: T3 ; velocity: 127
@59520 , @3.138449612403101 Channel: 2 
Note on, A2 key =  45;WhichDrum: T3 ; velocity: 0
@59520 , @3.138449612403101 Channel: 2 
Note on, G3 key =  55;WhichDrum: C2 ; velocity: 127
@59580 , @3.1416133720930235 Channel: 2 
Note on, G3 key =  55;WhichDrum: C2 ; velocity: 0
@59580 , @3.1416133720930235 Channel: 2 
Note on, A2 key =  45;WhichDrum: T3 ; velocity: 127
@59640 , @3.144777131782946 Channel: 2 
Note on, A2 key =  45;WhichDrum: T3 ; velocity: 0
@59640 , @3.144777131782946 Channel: 2 
Note on, A2 key =  45;WhichDrum: T3 ; velocity: 127
@59700 , @3.1479408914728686 Channel: 2 
Note on, A2 key =  45;WhichDrum: T3 ; velocity: 0
@59700 , @3.1479408914728686 Channel: 2 
Note on, A3 key =  57;WhichDrum: T3 ; velocity: 127
@59760 , @3.151104651162791 Channel: 2 
Note on, A3 key =  57;WhichDrum: T3 ; velocity: 0
@59760 , @3.151104651162791 Channel: 2 
Note on, A2 key =  45;WhichDrum: T3 ; velocity: 127
@59820 , @3.1542684108527133 Channel: 2 
Note on, A2 key =  45;WhichDrum: T3 ; velocity: 0
@59820 , @3.1542684108527133 Channel: 2 
Note on, A2 key =  45;WhichDrum: T3 ; velocity: 127
@59880 , @3.157432170542636 Channel: 2 
Note on, A2 key =  45;WhichDrum: T3 ; velocity: 0
@59880 , @3.157432170542636 Channel: 2 
Note on, A3 key =  57;WhichDrum: T3 ; velocity: 127
@59940 , @3.1605959302325584 Channel: 2 
Note on, A3 key =  57;WhichDrum: T3 ; velocity: 0
@59940 , @3.1605959302325584 Channel: 2 
Note on, A2 key =  45;WhichDrum: T3 ; velocity: 127
@60000 , @3.1637596899224807 Channel: 2 
Note on, A2 key =  45;WhichDrum: T3 ; velocity: 0
@60000 , @3.1637596899224807 Channel: 2 
Note on, C4 key =  60;WhichDrum: B ; velocity: 127
@60000 , @3.1637596899224807 Channel: 2 
Note on, G3 key =  55;WhichDrum: C2 ; velocity: 127
@60060 , @3.166923449612403 Channel: 2 
Note on, C4 key =  60;WhichDrum: B ; velocity: 0
@60060 , @3.166923449612403 Channel: 2 
Note on, G3 key =  55;WhichDrum: C2 ; velocity: 0
@60060 , @3.166923449612403 Channel: 2 
Note on, A2 key =  45;WhichDrum: T3 ; velocity: 127
@60120 , @3.1700872093023253 Channel: 2 
Note on, A2 key =  45;WhichDrum: T3 ; velocity: 0
@60120 , @3.1700872093023253 Channel: 2 
Note on, A2 key =  45;WhichDrum: T3 ; velocity: 127
@60180 , @3.173250968992248 Channel: 2 
Note on, A2 key =  45;WhichDrum: T3 ; velocity: 0
@60180 , @3.173250968992248 Channel: 2 
Note on, A3 key =  57;WhichDrum: T3 ; velocity: 127
@60240 , @3.1764147286821705 Channel: 2 
Note on, A3 key =  57;WhichDrum: T3 ; velocity: 0
@60240 , @3.1764147286821705 Channel: 2 
Note on, A2 key =  45;WhichDrum: T3 ; velocity: 127
@60300 , @3.179578488372093 Channel: 2 
Note on, A2 key =  45;WhichDrum: T3 ; velocity: 0
@60300 , @3.179578488372093 Channel: 2 
Note on, A2 key =  45;WhichDrum: T3 ; velocity: 127
@60360 , @3.1827422480620156 Channel: 2 
Note on, A2 key =  45;WhichDrum: T3 ; velocity: 0
@60360 , @3.1827422480620156 Channel: 2 
Note on, A3 key =  57;WhichDrum: T3 ; velocity: 127
@60420 , @3.185906007751938 Channel: 2 
Note on, A3 key =  57;WhichDrum: T3 ; velocity: 0
@60420 , @3.185906007751938 Channel: 2 
Note on, A2 key =  45;WhichDrum: T3 ; velocity: 127
@60480 , @3.1890697674418607 Channel: 2 
Note on, A2 key =  45;WhichDrum: T3 ; velocity: 0
@60480 , @3.1890697674418607 Channel: 2 
Note on, B3 key =  59;WhichDrum: T1 ; velocity: 127
@60480 , @3.1890697674418607 Channel: 2 
Note on, F#3 key =  54;WhichDrum: C1 ; velocity: 127
@60540 , @3.192233527131783 Channel: 2 
Note on, B3 key =  59;WhichDrum: T1 ; velocity: 0
@60540 , @3.192233527131783 Channel: 2 
Note on, F#3 key =  54;WhichDrum: C1 ; velocity: 0
@60540 , @3.192233527131783 Channel: 2 
Note on, A2 key =  45;WhichDrum: T3 ; velocity: 127
@60600 , @3.1953972868217053 Channel: 2 
Note on, A2 key =  45;WhichDrum: T3 ; velocity: 0
@60600 , @3.1953972868217053 Channel: 2 
Note on, A2 key =  45;WhichDrum: T3 ; velocity: 127
@60660 , @3.198561046511628 Channel: 2 
Note on, A2 key =  45;WhichDrum: T3 ; velocity: 0
@60660 , @3.198561046511628 Channel: 2 
Note on, A3 key =  57;WhichDrum: T3 ; velocity: 127
@60720 , @3.2017248062015504 Channel: 2 
Note on, A3 key =  57;WhichDrum: T3 ; velocity: 0
@60720 , @3.2017248062015504 Channel: 2 
Note on, A2 key =  45;WhichDrum: T3 ; velocity: 127
@60780 , @3.2048885658914728 Channel: 2 
Note on, A2 key =  45;WhichDrum: T3 ; velocity: 0
@60780 , @3.2048885658914728 Channel: 2 
Note on, A2 key =  45;WhichDrum: T3 ; velocity: 127
@60840 , @3.2080523255813955 Channel: 2 
Note on, A2 key =  45;WhichDrum: T3 ; velocity: 0
@60840 , @3.2080523255813955 Channel: 2 
Note on, A3 key =  57;WhichDrum: T3 ; velocity: 127
@60960 , @3.21437984496124 Channel: 2 
Note on, A3 key =  57;WhichDrum: T3 ; velocity: 0
@60960 , @3.21437984496124 Channel: 2 
Note on, C3 key =  48;WhichDrum: B ; velocity: 127
@61020 , @3.217543604651163 Channel: 2 
Note on, C3 key =  48;WhichDrum: B ; velocity: 0
@61020 , @3.217543604651163 Channel: 2 
Note on, B2 key =  47;WhichDrum: T1 ; velocity: 127
@61080 , @3.2207073643410853 Channel: 2 
Note on, B2 key =  47;WhichDrum: T1 ; velocity: 0
@61080 , @3.2207073643410853 Channel: 2 
Note on, A2 key =  45;WhichDrum: T3 ; velocity: 127
@61140 , @3.2238711240310076 Channel: 2 
Note on, A2 key =  45;WhichDrum: T3 ; velocity: 0
@61140 , @3.2238711240310076 Channel: 2 
Note on, F3 key =  53;WhichDrum: HH ; velocity: 127
@61200 , @3.2270348837209304 Channel: 2 
Note on, F3 key =  53;WhichDrum: HH ; velocity: 0
@61200 , @3.2270348837209304 Channel: 2 
Note on, E3 key =  52;WhichDrum: S ; velocity: 127
@61260 , @3.2301986434108527 Channel: 2 
Note on, E3 key =  52;WhichDrum: S ; velocity: 0
@61260 , @3.2301986434108527 Channel: 2 
Note on, D3 key =  50;WhichDrum: T2 ; velocity: 127
@61320 , @3.233362403100775 Channel: 2 
Note on, D3 key =  50;WhichDrum: T2 ; velocity: 0
@61320 , @3.233362403100775 Channel: 2 
Note on, C3 key =  48;WhichDrum: B ; velocity: 127
@61380 , @3.236526162790698 Channel: 2 
Note on, C3 key =  48;WhichDrum: B ; velocity: 0
@61380 , @3.236526162790698 Channel: 2 
Note on, A2 key =  45;WhichDrum: T3 ; velocity: 127
@61440 , @3.23968992248062 Channel: 2 
Note on, A2 key =  45;WhichDrum: T3 ; velocity: 0
@61440 , @3.23968992248062 Channel: 2 
Note on, G3 key =  55;WhichDrum: C2 ; velocity: 127
@61500 , @3.242853682170543 Channel: 2 
Note on, G3 key =  55;WhichDrum: C2 ; velocity: 0
@61500 , @3.242853682170543 Channel: 2 
Note on, A2 key =  45;WhichDrum: T3 ; velocity: 127
@61560 , @3.2460174418604653 Channel: 2 
Note on, A2 key =  45;WhichDrum: T3 ; velocity: 0
@61560 , @3.2460174418604653 Channel: 2 
Note on, A2 key =  45;WhichDrum: T3 ; velocity: 127
@61620 , @3.2491812015503876 Channel: 2 
Note on, A2 key =  45;WhichDrum: T3 ; velocity: 0
@61620 , @3.2491812015503876 Channel: 2 
Note on, A3 key =  57;WhichDrum: T3 ; velocity: 127
@61680 , @3.2523449612403104 Channel: 2 
Note on, A3 key =  57;WhichDrum: T3 ; velocity: 0
@61680 , @3.2523449612403104 Channel: 2 
Note on, A2 key =  45;WhichDrum: T3 ; velocity: 127
@61740 , @3.2555087209302327 Channel: 2 
Note on, A2 key =  45;WhichDrum: T3 ; velocity: 0
@61740 , @3.2555087209302327 Channel: 2 
Note on, A2 key =  45;WhichDrum: T3 ; velocity: 127
@61800 , @3.258672480620155 Channel: 2 
Note on, A2 key =  45;WhichDrum: T3 ; velocity: 0
@61800 , @3.258672480620155 Channel: 2 
Note on, A3 key =  57;WhichDrum: T3 ; velocity: 127
@61860 , @3.261836240310078 Channel: 2 
Note on, A3 key =  57;WhichDrum: T3 ; velocity: 0
@61860 , @3.261836240310078 Channel: 2 
Note on, A2 key =  45;WhichDrum: T3 ; velocity: 127
@61920 , @3.265 Channel: 2 
Note on, A2 key =  45;WhichDrum: T3 ; velocity: 0
@61920 , @3.265 Channel: 2 
Note on, C4 key =  60;WhichDrum: B ; velocity: 127
@61920 , @3.265 Channel: 2 
Note on, G3 key =  55;WhichDrum: C2 ; velocity: 127
@61980 , @3.2681637596899225 Channel: 2 
Note on, C4 key =  60;WhichDrum: B ; velocity: 0
@61980 , @3.2681637596899225 Channel: 2 
Note on, G3 key =  55;WhichDrum: C2 ; velocity: 0
@61980 , @3.2681637596899225 Channel: 2 
Note on, A2 key =  45;WhichDrum: T3 ; velocity: 127
@62040 , @3.2713275193798452 Channel: 2 
Note on, A2 key =  45;WhichDrum: T3 ; velocity: 0
@62040 , @3.2713275193798452 Channel: 2 
Note on, A2 key =  45;WhichDrum: T3 ; velocity: 127
@62100 , @3.2744912790697676 Channel: 2 
Note on, A2 key =  45;WhichDrum: T3 ; velocity: 0
@62100 , @3.2744912790697676 Channel: 2 
Note on, A3 key =  57;WhichDrum: T3 ; velocity: 127
@62160 , @3.27765503875969 Channel: 2 
Note on, A3 key =  57;WhichDrum: T3 ; velocity: 0
@62160 , @3.27765503875969 Channel: 2 
Note on, A2 key =  45;WhichDrum: T3 ; velocity: 127
@62220 , @3.2808187984496127 Channel: 2 
Note on, A2 key =  45;WhichDrum: T3 ; velocity: 0
@62220 , @3.2808187984496127 Channel: 2 
Note on, A2 key =  45;WhichDrum: T3 ; velocity: 127
@62280 , @3.283982558139535 Channel: 2 
Note on, A2 key =  45;WhichDrum: T3 ; velocity: 0
@62280 , @3.283982558139535 Channel: 2 
Note on, A3 key =  57;WhichDrum: T3 ; velocity: 127
@62340 , @3.2871463178294573 Channel: 2 
Note on, A3 key =  57;WhichDrum: T3 ; velocity: 0
@62340 , @3.2871463178294573 Channel: 2 
Note on, A2 key =  45;WhichDrum: T3 ; velocity: 127
@62400 , @3.29031007751938 Channel: 2 
Note on, A2 key =  45;WhichDrum: T3 ; velocity: 0
@62400 , @3.29031007751938 Channel: 2 
Note on, B3 key =  59;WhichDrum: T1 ; velocity: 127
@62400 , @3.29031007751938 Channel: 2 
Note on, F#3 key =  54;WhichDrum: C1 ; velocity: 127
@62460 , @3.2934738372093024 Channel: 2 
Note on, B3 key =  59;WhichDrum: T1 ; velocity: 0
@62460 , @3.2934738372093024 Channel: 2 
Note on, F#3 key =  54;WhichDrum: C1 ; velocity: 0
@62460 , @3.2934738372093024 Channel: 2 
Note on, A2 key =  45;WhichDrum: T3 ; velocity: 127
@62520 , @3.296637596899225 Channel: 2 
Note on, A2 key =  45;WhichDrum: T3 ; velocity: 0
@62520 , @3.296637596899225 Channel: 2 
Note on, A2 key =  45;WhichDrum: T3 ; velocity: 127
@62580 , @3.2998013565891475 Channel: 2 
Note on, A2 key =  45;WhichDrum: T3 ; velocity: 0
@62580 , @3.2998013565891475 Channel: 2 
Note on, A3 key =  57;WhichDrum: T3 ; velocity: 127
@62640 , @3.30296511627907 Channel: 2 
Note on, A3 key =  57;WhichDrum: T3 ; velocity: 0
@62640 , @3.30296511627907 Channel: 2 
Note on, A2 key =  45;WhichDrum: T3 ; velocity: 127
@62700 , @3.3061288759689926 Channel: 2 
Note on, A2 key =  45;WhichDrum: T3 ; velocity: 0
@62700 , @3.3061288759689926 Channel: 2 
Note on, A2 key =  45;WhichDrum: T3 ; velocity: 127
@62760 , @3.309292635658915 Channel: 2 
Note on, A2 key =  45;WhichDrum: T3 ; velocity: 0
@62760 , @3.309292635658915 Channel: 2 
Note on, A3 key =  57;WhichDrum: T3 ; velocity: 127
@62880 , @3.31562015503876 Channel: 2 
Note on, A3 key =  57;WhichDrum: T3 ; velocity: 0
@62880 , @3.31562015503876 Channel: 2 
Note on, C3 key =  48;WhichDrum: B ; velocity: 127
@62940 , @3.3187839147286824 Channel: 2 
Note on, C3 key =  48;WhichDrum: B ; velocity: 0
@62940 , @3.3187839147286824 Channel: 2 
Note on, B2 key =  47;WhichDrum: T1 ; velocity: 127
@63000 , @3.3219476744186047 Channel: 2 
Note on, B2 key =  47;WhichDrum: T1 ; velocity: 0
@63000 , @3.3219476744186047 Channel: 2 
Note on, A2 key =  45;WhichDrum: T3 ; velocity: 127
@63060 , @3.3251114341085275 Channel: 2 
Note on, A2 key =  45;WhichDrum: T3 ; velocity: 0
@63060 , @3.3251114341085275 Channel: 2 
Note on, F3 key =  53;WhichDrum: HH ; velocity: 127
@63120 , @3.32827519379845 Channel: 2 
Note on, F3 key =  53;WhichDrum: HH ; velocity: 0
@63120 , @3.32827519379845 Channel: 2 
Note on, E3 key =  52;WhichDrum: S ; velocity: 127
@63180 , @3.331438953488372 Channel: 2 
Note on, E3 key =  52;WhichDrum: S ; velocity: 0
@63180 , @3.331438953488372 Channel: 2 
Note on, D3 key =  50;WhichDrum: T2 ; velocity: 127
@63240 , @3.334602713178295 Channel: 2 
Note on, D3 key =  50;WhichDrum: T2 ; velocity: 0
@63240 , @3.334602713178295 Channel: 2 
Note on, C3 key =  48;WhichDrum: B ; velocity: 127
@63300 , @3.3377664728682173 Channel: 2 
Note on, C3 key =  48;WhichDrum: B ; velocity: 0
@63300 , @3.3377664728682173 Channel: 2 
Note on, A2 key =  45;WhichDrum: T3 ; velocity: 127
@63360 , @3.3409302325581396 Channel: 2 
Note on, A2 key =  45;WhichDrum: T3 ; velocity: 0
@63360 , @3.3409302325581396 Channel: 2 
Note on, D4 key =  62;WhichDrum: T2 ; velocity: 127
@63360 , @3.3409302325581396 Channel: 2 
Note on, G3 key =  55;WhichDrum: C2 ; velocity: 127
@63840 , @3.3662403100775196 Channel: 2 
Note on, D4 key =  62;WhichDrum: T2 ; velocity: 0
@63840 , @3.3662403100775196 Channel: 2 
Note on, G3 key =  55;WhichDrum: C2 ; velocity: 0
@63840 , @3.3662403100775196 Channel: 2 
Note on, C#4 key =  61;WhichDrum: T3 ; velocity: 127
@63840 , @3.3662403100775196 Channel: 2 
Note on, F#3 key =  54;WhichDrum: C1 ; velocity: 127
@64080 , @3.3788953488372098 Channel: 2 
Note on, C#4 key =  61;WhichDrum: T3 ; velocity: 0
@64080 , @3.3788953488372098 Channel: 2 
Note on, F#3 key =  54;WhichDrum: C1 ; velocity: 0
@64080 , @3.3788953488372098 Channel: 2 
Note on, C4 key =  60;WhichDrum: B ; velocity: 127
@64080 , @3.3788953488372098 Channel: 2 
Note on, F3 key =  53;WhichDrum: HH ; velocity: 127
@64320 , @3.3915503875968995 Channel: 2 
Note on, C4 key =  60;WhichDrum: B ; velocity: 0
@64320 , @3.3915503875968995 Channel: 2 
Note on, F3 key =  53;WhichDrum: HH ; velocity: 0
@64320 , @3.3915503875968995 Channel: 2 
Note on, E2 key =  40;WhichDrum: S ; velocity: 127
@64380 , @3.394714147286822 Channel: 2 
Note on, E2 key =  40;WhichDrum: S ; velocity: 0
@64380 , @3.394714147286822 Channel: 2 
Note on, E2 key =  40;WhichDrum: S ; velocity: 127
@64440 , @3.3978779069767446 Channel: 2 
Note on, E2 key =  40;WhichDrum: S ; velocity: 0
@64440 , @3.3978779069767446 Channel: 2 
Note on, E2 key =  40;WhichDrum: S ; velocity: 127
@64500 , @3.401041666666667 Channel: 2 
Note on, E2 key =  40;WhichDrum: S ; velocity: 0
@64500 , @3.401041666666667 Channel: 2 
Note on, E2 key =  40;WhichDrum: S ; velocity: 127
@64560 , @3.4042054263565897 Channel: 2 
Note on, E2 key =  40;WhichDrum: S ; velocity: 0
@64560 , @3.4042054263565897 Channel: 2 
Note on, E2 key =  40;WhichDrum: S ; velocity: 127
@64620 , @3.407369186046512 Channel: 2 
Note on, E2 key =  40;WhichDrum: S ; velocity: 0
@64620 , @3.407369186046512 Channel: 2 
Note on, E2 key =  40;WhichDrum: S ; velocity: 127
@64680 , @3.4105329457364344 Channel: 2 
Note on, E2 key =  40;WhichDrum: S ; velocity: 0
@64680 , @3.4105329457364344 Channel: 2 
Note on, E2 key =  40;WhichDrum: S ; velocity: 127
@64740 , @3.413696705426357 Channel: 2 
Note on, E2 key =  40;WhichDrum: S ; velocity: 0
@64740 , @3.413696705426357 Channel: 2 
Note on, E2 key =  40;WhichDrum: S ; velocity: 127
@64800 , @3.4168604651162795 Channel: 2 
Note on, E2 key =  40;WhichDrum: S ; velocity: 0
@64800 , @3.4168604651162795 Channel: 2 
Note on, E2 key =  40;WhichDrum: S ; velocity: 127
@64860 , @3.420024224806202 Channel: 2 
Note on, E2 key =  40;WhichDrum: S ; velocity: 0
@64860 , @3.420024224806202 Channel: 2 
Note on, E2 key =  40;WhichDrum: S ; velocity: 127
@64920 , @3.4231879844961246 Channel: 2 
Note on, E2 key =  40;WhichDrum: S ; velocity: 0
@64920 , @3.4231879844961246 Channel: 2 
Note on, E2 key =  40;WhichDrum: S ; velocity: 127
@64980 , @3.426351744186047 Channel: 2 
Note on, E2 key =  40;WhichDrum: S ; velocity: 0
@64980 , @3.426351744186047 Channel: 2 
Note on, E2 key =  40;WhichDrum: S ; velocity: 127
@65040 , @3.4295155038759693 Channel: 2 
Note on, E2 key =  40;WhichDrum: S ; velocity: 0
@65040 , @3.4295155038759693 Channel: 2 
Note on, E2 key =  40;WhichDrum: S ; velocity: 127
@65100 , @3.432679263565892 Channel: 2 
Note on, E2 key =  40;WhichDrum: S ; velocity: 0
@65100 , @3.432679263565892 Channel: 2 
Note on, E2 key =  40;WhichDrum: S ; velocity: 127
@65160 , @3.4358430232558144 Channel: 2 
Note on, E2 key =  40;WhichDrum: S ; velocity: 0
@65160 , @3.4358430232558144 Channel: 2 
Note on, E2 key =  40;WhichDrum: S ; velocity: 127
@65220 , @3.4390067829457367 Channel: 2 
Note on, E2 key =  40;WhichDrum: S ; velocity: 0
@65220 , @3.4390067829457367 Channel: 2 
Note on, E2 key =  40;WhichDrum: S ; velocity: 127
@65280 , @3.4421705426356595 Channel: 2 
Note on, E2 key =  40;WhichDrum: S ; velocity: 0
@65280 , @3.4421705426356595 Channel: 2 
Note on, D4 key =  62;WhichDrum: T2 ; velocity: 127
@65280 , @3.4421705426356595 Channel: 2 
Note on, G3 key =  55;WhichDrum: C2 ; velocity: 127
@65760 , @3.4674806201550394 Channel: 2 
Note on, D4 key =  62;WhichDrum: T2 ; velocity: 0
@65760 , @3.4674806201550394 Channel: 2 
Note on, G3 key =  55;WhichDrum: C2 ; velocity: 0
@65760 , @3.4674806201550394 Channel: 2 
Note on, C#4 key =  61;WhichDrum: T3 ; velocity: 127
@65760 , @3.4674806201550394 Channel: 2 
Note on, F#3 key =  54;WhichDrum: C1 ; velocity: 127
@66000 , @3.4801356589147283 Channel: 2 
Note on, C#4 key =  61;WhichDrum: T3 ; velocity: 0
@66000 , @3.4801356589147283 Channel: 2 
Note on, F#3 key =  54;WhichDrum: C1 ; velocity: 0
@66000 , @3.4801356589147283 Channel: 2 
Note on, C4 key =  60;WhichDrum: B ; velocity: 127
@66000 , @3.4801356589147283 Channel: 2 
Note on, F3 key =  53;WhichDrum: HH ; velocity: 127
@66240 , @3.4927906976744185 Channel: 2 
Note on, C4 key =  60;WhichDrum: B ; velocity: 0
@66240 , @3.4927906976744185 Channel: 2 
Note on, F3 key =  53;WhichDrum: HH ; velocity: 0
@66240 , @3.4927906976744185 Channel: 2 
Note on, E2 key =  40;WhichDrum: S ; velocity: 127
@66300 , @3.495954457364341 Channel: 2 
Note on, E2 key =  40;WhichDrum: S ; velocity: 0
@66300 , @3.495954457364341 Channel: 2 
Note on, E2 key =  40;WhichDrum: S ; velocity: 127
@66360 , @3.499118217054263 Channel: 2 
Note on, E2 key =  40;WhichDrum: S ; velocity: 0
@66360 , @3.499118217054263 Channel: 2 
Note on, E2 key =  40;WhichDrum: S ; velocity: 127
@66420 , @3.502281976744186 Channel: 2 
Note on, E2 key =  40;WhichDrum: S ; velocity: 0
@66420 , @3.502281976744186 Channel: 2 
Note on, E2 key =  40;WhichDrum: S ; velocity: 127
@66480 , @3.5054457364341083 Channel: 2 
Note on, E2 key =  40;WhichDrum: S ; velocity: 0
@66480 , @3.5054457364341083 Channel: 2 
Note on, E2 key =  40;WhichDrum: S ; velocity: 127
@66540 , @3.508609496124031 Channel: 2 
Note on, E2 key =  40;WhichDrum: S ; velocity: 0
@66540 , @3.508609496124031 Channel: 2 
Note on, E2 key =  40;WhichDrum: S ; velocity: 127
@66600 , @3.5117732558139534 Channel: 2 
Note on, E2 key =  40;WhichDrum: S ; velocity: 0
@66600 , @3.5117732558139534 Channel: 2 
Note on, E2 key =  40;WhichDrum: S ; velocity: 127
@66660 , @3.5149370155038757 Channel: 2 
Note on, E2 key =  40;WhichDrum: S ; velocity: 0
@66660 , @3.5149370155038757 Channel: 2 
Note on, E2 key =  40;WhichDrum: S ; velocity: 127
@66720 , @3.5181007751937985 Channel: 2 
Note on, E2 key =  40;WhichDrum: S ; velocity: 0
@66720 , @3.5181007751937985 Channel: 2 
Note on, E2 key =  40;WhichDrum: S ; velocity: 127
@66780 , @3.521264534883721 Channel: 2 
Note on, E2 key =  40;WhichDrum: S ; velocity: 0
@66780 , @3.521264534883721 Channel: 2 
Note on, E2 key =  40;WhichDrum: S ; velocity: 127
@66840 , @3.524428294573643 Channel: 2 
Note on, E2 key =  40;WhichDrum: S ; velocity: 0
@66840 , @3.524428294573643 Channel: 2 
Note on, E2 key =  40;WhichDrum: S ; velocity: 127
@66900 , @3.527592054263566 Channel: 2 
Note on, E2 key =  40;WhichDrum: S ; velocity: 0
@66900 , @3.527592054263566 Channel: 2 
Note on, E2 key =  40;WhichDrum: S ; velocity: 127
@66960 , @3.5307558139534883 Channel: 2 
Note on, E2 key =  40;WhichDrum: S ; velocity: 0
@66960 , @3.5307558139534883 Channel: 2 
Note on, E2 key =  40;WhichDrum: S ; velocity: 127
@67020 , @3.5339195736434106 Channel: 2 
Note on, E2 key =  40;WhichDrum: S ; velocity: 0
@67020 , @3.5339195736434106 Channel: 2 
Note on, E2 key =  40;WhichDrum: S ; velocity: 127
@67080 , @3.5370833333333334 Channel: 2 
Note on, E2 key =  40;WhichDrum: S ; velocity: 0
@67080 , @3.5370833333333334 Channel: 2 
Note on, E2 key =  40;WhichDrum: S ; velocity: 127
@67140 , @3.5402470930232557 Channel: 2 
Note on, E2 key =  40;WhichDrum: S ; velocity: 0
@67140 , @3.5402470930232557 Channel: 2 
Note on, E2 key =  40;WhichDrum: S ; velocity: 127
@67200 , @3.543410852713178 Channel: 2 
Note on, E2 key =  40;WhichDrum: S ; velocity: 0
@67200 , @3.543410852713178 Channel: 2 
Note on, D4 key =  62;WhichDrum: T2 ; velocity: 127
@67200 , @3.543410852713178 Channel: 2 
Note on, G3 key =  55;WhichDrum: C2 ; velocity: 127
@67680 , @3.568720930232558 Channel: 2 
Note on, D4 key =  62;WhichDrum: T2 ; velocity: 0
@67680 , @3.568720930232558 Channel: 2 
Note on, G3 key =  55;WhichDrum: C2 ; velocity: 0
@67680 , @3.568720930232558 Channel: 2 
Note on, C#4 key =  61;WhichDrum: T3 ; velocity: 127
@67680 , @3.568720930232558 Channel: 2 
Note on, F#3 key =  54;WhichDrum: C1 ; velocity: 127
@67920 , @3.581375968992248 Channel: 2 
Note on, C#4 key =  61;WhichDrum: T3 ; velocity: 0
@67920 , @3.581375968992248 Channel: 2 
Note on, F#3 key =  54;WhichDrum: C1 ; velocity: 0
@67920 , @3.581375968992248 Channel: 2 
Note on, C4 key =  60;WhichDrum: B ; velocity: 127
@67920 , @3.581375968992248 Channel: 2 
Note on, F3 key =  53;WhichDrum: HH ; velocity: 127
@68160 , @3.594031007751938 Channel: 2 
Note on, C4 key =  60;WhichDrum: B ; velocity: 0
@68160 , @3.594031007751938 Channel: 2 
Note on, F3 key =  53;WhichDrum: HH ; velocity: 0
@68160 , @3.594031007751938 Channel: 2 
Note on, E2 key =  40;WhichDrum: S ; velocity: 127
@68220 , @3.5971947674418603 Channel: 2 
Note on, E2 key =  40;WhichDrum: S ; velocity: 0
@68220 , @3.5971947674418603 Channel: 2 
Note on, E2 key =  40;WhichDrum: S ; velocity: 127
@68280 , @3.600358527131783 Channel: 2 
Note on, E2 key =  40;WhichDrum: S ; velocity: 0
@68280 , @3.600358527131783 Channel: 2 
Note on, E2 key =  40;WhichDrum: S ; velocity: 127
@68340 , @3.6035222868217054 Channel: 2 
Note on, E2 key =  40;WhichDrum: S ; velocity: 0
@68340 , @3.6035222868217054 Channel: 2 
Note on, E2 key =  40;WhichDrum: S ; velocity: 127
@68400 , @3.6066860465116277 Channel: 2 
Note on, E2 key =  40;WhichDrum: S ; velocity: 0
@68400 , @3.6066860465116277 Channel: 2 
Note on, E2 key =  40;WhichDrum: S ; velocity: 127
@68460 , @3.6098498062015505 Channel: 2 
Note on, E2 key =  40;WhichDrum: S ; velocity: 0
@68460 , @3.6098498062015505 Channel: 2 
Note on, E2 key =  40;WhichDrum: S ; velocity: 127
@68520 , @3.613013565891473 Channel: 2 
Note on, E2 key =  40;WhichDrum: S ; velocity: 0
@68520 , @3.613013565891473 Channel: 2 
Note on, E2 key =  40;WhichDrum: S ; velocity: 127
@68580 , @3.6161773255813956 Channel: 2 
Note on, E2 key =  40;WhichDrum: S ; velocity: 0
@68580 , @3.6161773255813956 Channel: 2 
Note on, E2 key =  40;WhichDrum: S ; velocity: 127
@68640 , @3.619341085271318 Channel: 2 
Note on, E2 key =  40;WhichDrum: S ; velocity: 0
@68640 , @3.619341085271318 Channel: 2 
Note on, E2 key =  40;WhichDrum: S ; velocity: 127
@68700 , @3.6225048449612403 Channel: 2 
Note on, E2 key =  40;WhichDrum: S ; velocity: 0
@68700 , @3.6225048449612403 Channel: 2 
Note on, E2 key =  40;WhichDrum: S ; velocity: 127
@68760 , @3.625668604651163 Channel: 2 
Note on, E2 key =  40;WhichDrum: S ; velocity: 0
@68760 , @3.625668604651163 Channel: 2 
Note on, E2 key =  40;WhichDrum: S ; velocity: 127
@68820 , @3.6288323643410854 Channel: 2 
Note on, E2 key =  40;WhichDrum: S ; velocity: 0
@68820 , @3.6288323643410854 Channel: 2 
Note on, E2 key =  40;WhichDrum: S ; velocity: 127
@68880 , @3.6319961240310077 Channel: 2 
Note on, E2 key =  40;WhichDrum: S ; velocity: 0
@68880 , @3.6319961240310077 Channel: 2 
Note on, E2 key =  40;WhichDrum: S ; velocity: 127
@68940 , @3.6351598837209305 Channel: 2 
Note on, E2 key =  40;WhichDrum: S ; velocity: 0
@68940 , @3.6351598837209305 Channel: 2 
Note on, E2 key =  40;WhichDrum: S ; velocity: 127
@69000 , @3.638323643410853 Channel: 2 
Note on, E2 key =  40;WhichDrum: S ; velocity: 0
@69000 , @3.638323643410853 Channel: 2 
Note on, E2 key =  40;WhichDrum: S ; velocity: 127
@69060 , @3.641487403100775 Channel: 2 
Note on, E2 key =  40;WhichDrum: S ; velocity: 0
@69060 , @3.641487403100775 Channel: 2 
Note on, E2 key =  40;WhichDrum: S ; velocity: 127
@69120 , @3.644651162790698 Channel: 2 
Note on, E2 key =  40;WhichDrum: S ; velocity: 0
@69120 , @3.644651162790698 Channel: 2 
Note on, D4 key =  62;WhichDrum: T2 ; velocity: 127
@69120 , @3.644651162790698 Channel: 2 
Note on, G3 key =  55;WhichDrum: C2 ; velocity: 127
@69600 , @3.669961240310078 Channel: 2 
Note on, D4 key =  62;WhichDrum: T2 ; velocity: 0
@69600 , @3.669961240310078 Channel: 2 
Note on, G3 key =  55;WhichDrum: C2 ; velocity: 0
@69600 , @3.669961240310078 Channel: 2 
Note on, C#4 key =  61;WhichDrum: T3 ; velocity: 127
@69600 , @3.669961240310078 Channel: 2 
Note on, F#3 key =  54;WhichDrum: C1 ; velocity: 127
@69840 , @3.6826162790697676 Channel: 2 
Note on, C#4 key =  61;WhichDrum: T3 ; velocity: 0
@69840 , @3.6826162790697676 Channel: 2 
Note on, F#3 key =  54;WhichDrum: C1 ; velocity: 0
@69840 , @3.6826162790697676 Channel: 2 
Note on, C4 key =  60;WhichDrum: B ; velocity: 127
@69840 , @3.6826162790697676 Channel: 2 
Note on, F3 key =  53;WhichDrum: HH ; velocity: 127
@70080 , @3.6952713178294574 Channel: 2 
Note on, C4 key =  60;WhichDrum: B ; velocity: 0
@70080 , @3.6952713178294574 Channel: 2 
Note on, F3 key =  53;WhichDrum: HH ; velocity: 0
@70080 , @3.6952713178294574 Channel: 2 
Note on, D3 key =  50;WhichDrum: T2 ; velocity: 127
@70140 , @3.69843507751938 Channel: 2 
Note on, D3 key =  50;WhichDrum: T2 ; velocity: 0
@70140 , @3.69843507751938 Channel: 2 
Note on, E3 key =  52;WhichDrum: S ; velocity: 127
@70200 , @3.7015988372093025 Channel: 2 
Note on, E3 key =  52;WhichDrum: S ; velocity: 0
@70200 , @3.7015988372093025 Channel: 2 
Note on, E2 key =  40;WhichDrum: S ; velocity: 127
@70260 , @3.704762596899225 Channel: 2 
Note on, E2 key =  40;WhichDrum: S ; velocity: 0
@70260 , @3.704762596899225 Channel: 2 
Note on, E3 key =  52;WhichDrum: S ; velocity: 127
@70320 , @3.7079263565891476 Channel: 2 
Note on, E3 key =  52;WhichDrum: S ; velocity: 0
@70320 , @3.7079263565891476 Channel: 2 
Note on, E2 key =  40;WhichDrum: S ; velocity: 127
@70380 , @3.71109011627907 Channel: 2 
Note on, E2 key =  40;WhichDrum: S ; velocity: 0
@70380 , @3.71109011627907 Channel: 2 
Note on, E2 key =  40;WhichDrum: S ; velocity: 127
@70440 , @3.7142538759689923 Channel: 2 
Note on, E2 key =  40;WhichDrum: S ; velocity: 0
@70440 , @3.7142538759689923 Channel: 2 
Note on, E3 key =  52;WhichDrum: S ; velocity: 127
@70500 , @3.717417635658915 Channel: 2 
Note on, E3 key =  52;WhichDrum: S ; velocity: 0
@70500 , @3.717417635658915 Channel: 2 
Note on, E2 key =  40;WhichDrum: S ; velocity: 127
@70560 , @3.7205813953488374 Channel: 2 
Note on, E2 key =  40;WhichDrum: S ; velocity: 0
@70560 , @3.7205813953488374 Channel: 2 
Note on, D3 key =  50;WhichDrum: T2 ; velocity: 127
@70560 , @3.7205813953488374 Channel: 2 
Note on, G3 key =  55;WhichDrum: C2 ; velocity: 127
@70620 , @3.72374515503876 Channel: 2 
Note on, D3 key =  50;WhichDrum: T2 ; velocity: 0
@70620 , @3.72374515503876 Channel: 2 
Note on, G3 key =  55;WhichDrum: C2 ; velocity: 0
@70620 , @3.72374515503876 Channel: 2 
Note on, E2 key =  40;WhichDrum: S ; velocity: 127
@70680 , @3.7269089147286825 Channel: 2 
Note on, E2 key =  40;WhichDrum: S ; velocity: 0
@70680 , @3.7269089147286825 Channel: 2 
Note on, E2 key =  40;WhichDrum: S ; velocity: 127
@70740 , @3.730072674418605 Channel: 2 
Note on, E2 key =  40;WhichDrum: S ; velocity: 0
@70740 , @3.730072674418605 Channel: 2 
Note on, E3 key =  52;WhichDrum: S ; velocity: 127
@70800 , @3.7332364341085276 Channel: 2 
Note on, E3 key =  52;WhichDrum: S ; velocity: 0
@70800 , @3.7332364341085276 Channel: 2 
Note on, E2 key =  40;WhichDrum: S ; velocity: 127
@70860 , @3.73640019379845 Channel: 2 
Note on, E2 key =  40;WhichDrum: S ; velocity: 0
@70860 , @3.73640019379845 Channel: 2 
Note on, E2 key =  40;WhichDrum: S ; velocity: 127
@70920 , @3.7395639534883722 Channel: 2 
Note on, E2 key =  40;WhichDrum: S ; velocity: 0
@70920 , @3.7395639534883722 Channel: 2 
Note on, E3 key =  52;WhichDrum: S ; velocity: 127
@70980 , @3.742727713178295 Channel: 2 
Note on, E3 key =  52;WhichDrum: S ; velocity: 0
@70980 , @3.742727713178295 Channel: 2 
Note on, E2 key =  40;WhichDrum: S ; velocity: 127
@71040 , @3.7458914728682173 Channel: 2 
Note on, E2 key =  40;WhichDrum: S ; velocity: 0
@71040 , @3.7458914728682173 Channel: 2 
Note on, F#3 key =  54;WhichDrum: C1 ; velocity: 127
@71040 , @3.7458914728682173 Channel: 2 
Note on, C#3 key =  49;WhichDrum: T3 ; velocity: 127
@71100 , @3.7490552325581397 Channel: 2 
Note on, F#3 key =  54;WhichDrum: C1 ; velocity: 0
@71100 , @3.7490552325581397 Channel: 2 
Note on, C#3 key =  49;WhichDrum: T3 ; velocity: 0
@71100 , @3.7490552325581397 Channel: 2 
Note on, E2 key =  40;WhichDrum: S ; velocity: 127
@71160 , @3.7522189922480624 Channel: 2 
Note on, E2 key =  40;WhichDrum: S ; velocity: 0
@71160 , @3.7522189922480624 Channel: 2 
Note on, E2 key =  40;WhichDrum: S ; velocity: 127
@71220 , @3.7553827519379848 Channel: 2 
Note on, E2 key =  40;WhichDrum: S ; velocity: 0
@71220 , @3.7553827519379848 Channel: 2 
Note on, E3 key =  52;WhichDrum: S ; velocity: 127
@71280 , @3.758546511627907 Channel: 2 
Note on, E3 key =  52;WhichDrum: S ; velocity: 0
@71280 , @3.758546511627907 Channel: 2 
Note on, E2 key =  40;WhichDrum: S ; velocity: 127
@71340 , @3.76171027131783 Channel: 2 
Note on, E2 key =  40;WhichDrum: S ; velocity: 0
@71340 , @3.76171027131783 Channel: 2 
Note on, E2 key =  40;WhichDrum: S ; velocity: 127
@71400 , @3.764874031007752 Channel: 2 
Note on, E2 key =  40;WhichDrum: S ; velocity: 0
@71400 , @3.764874031007752 Channel: 2 
Note on, E3 key =  52;WhichDrum: S ; velocity: 127
@71520 , @3.7712015503875973 Channel: 2 
Note on, E3 key =  52;WhichDrum: S ; velocity: 0
@71520 , @3.7712015503875973 Channel: 2 
Note on, G2 key =  43;WhichDrum: C2 ; velocity: 127
@71580 , @3.7743653100775196 Channel: 2 
Note on, G2 key =  43;WhichDrum: C2 ; velocity: 0
@71580 , @3.7743653100775196 Channel: 2 
Note on, F#2 key =  42;WhichDrum: C1 ; velocity: 127
@71640 , @3.7775290697674424 Channel: 2 
Note on, F#2 key =  42;WhichDrum: C1 ; velocity: 0
@71640 , @3.7775290697674424 Channel: 2 
Note on, E2 key =  40;WhichDrum: S ; velocity: 127
@71700 , @3.7806928294573647 Channel: 2 
Note on, E2 key =  40;WhichDrum: S ; velocity: 0
@71700 , @3.7806928294573647 Channel: 2 
Note on, C3 key =  48;WhichDrum: B ; velocity: 127
@71760 , @3.783856589147287 Channel: 2 
Note on, C3 key =  48;WhichDrum: B ; velocity: 0
@71760 , @3.783856589147287 Channel: 2 
Note on, B2 key =  47;WhichDrum: T1 ; velocity: 127
@71820 , @3.78702034883721 Channel: 2 
Note on, B2 key =  47;WhichDrum: T1 ; velocity: 0
@71820 , @3.78702034883721 Channel: 2 
Note on, A2 key =  45;WhichDrum: T3 ; velocity: 127
@71880 , @3.790184108527132 Channel: 2 
Note on, A2 key =  45;WhichDrum: T3 ; velocity: 0
@71880 , @3.790184108527132 Channel: 2 
Note on, G2 key =  43;WhichDrum: C2 ; velocity: 127
@71940 , @3.7933478682170545 Channel: 2 
Note on, G2 key =  43;WhichDrum: C2 ; velocity: 0
@71940 , @3.7933478682170545 Channel: 2 
Note on, E2 key =  40;WhichDrum: S ; velocity: 127
@72000 , @3.7965116279069773 Channel: 2 
Note on, E2 key =  40;WhichDrum: S ; velocity: 0
@72000 , @3.7965116279069773 Channel: 2 
Note on, D3 key =  50;WhichDrum: T2 ; velocity: 127
@72060 , @3.7996753875968996 Channel: 2 
Note on, D3 key =  50;WhichDrum: T2 ; velocity: 0
@72060 , @3.7996753875968996 Channel: 2 
Note on, E3 key =  52;WhichDrum: S ; velocity: 127
@72120 , @3.802839147286822 Channel: 2 
Note on, E3 key =  52;WhichDrum: S ; velocity: 0
@72120 , @3.802839147286822 Channel: 2 
Note on, E2 key =  40;WhichDrum: S ; velocity: 127
@72180 , @3.8060029069767447 Channel: 2 
Note on, E2 key =  40;WhichDrum: S ; velocity: 0
@72180 , @3.8060029069767447 Channel: 2 
Note on, E3 key =  52;WhichDrum: S ; velocity: 127
@72240 , @3.809166666666667 Channel: 2 
Note on, E3 key =  52;WhichDrum: S ; velocity: 0
@72240 , @3.809166666666667 Channel: 2 
Note on, E2 key =  40;WhichDrum: S ; velocity: 127
@72300 , @3.8123304263565894 Channel: 2 
Note on, E2 key =  40;WhichDrum: S ; velocity: 0
@72300 , @3.8123304263565894 Channel: 2 
Note on, E2 key =  40;WhichDrum: S ; velocity: 127
@72360 , @3.815494186046512 Channel: 2 
Note on, E2 key =  40;WhichDrum: S ; velocity: 0
@72360 , @3.815494186046512 Channel: 2 
Note on, E3 key =  52;WhichDrum: S ; velocity: 127
@72420 , @3.8186579457364345 Channel: 2 
Note on, E3 key =  52;WhichDrum: S ; velocity: 0
@72420 , @3.8186579457364345 Channel: 2 
Note on, E2 key =  40;WhichDrum: S ; velocity: 127
@72480 , @3.821821705426357 Channel: 2 
Note on, E2 key =  40;WhichDrum: S ; velocity: 0
@72480 , @3.821821705426357 Channel: 2 
Note on, D3 key =  50;WhichDrum: T2 ; velocity: 127
@72480 , @3.821821705426357 Channel: 2 
Note on, G3 key =  55;WhichDrum: C2 ; velocity: 127
@72540 , @3.8249854651162796 Channel: 2 
Note on, D3 key =  50;WhichDrum: T2 ; velocity: 0
@72540 , @3.8249854651162796 Channel: 2 
Note on, G3 key =  55;WhichDrum: C2 ; velocity: 0
@72540 , @3.8249854651162796 Channel: 2 
Note on, E2 key =  40;WhichDrum: S ; velocity: 127
@72600 , @3.828149224806202 Channel: 2 
Note on, E2 key =  40;WhichDrum: S ; velocity: 0
@72600 , @3.828149224806202 Channel: 2 
Note on, E2 key =  40;WhichDrum: S ; velocity: 127
@72660 , @3.8313129844961247 Channel: 2 
Note on, E2 key =  40;WhichDrum: S ; velocity: 0
@72660 , @3.8313129844961247 Channel: 2 
Note on, E3 key =  52;WhichDrum: S ; velocity: 127
@72720 , @3.834476744186047 Channel: 2 
Note on, E3 key =  52;WhichDrum: S ; velocity: 0
@72720 , @3.834476744186047 Channel: 2 
Note on, E2 key =  40;WhichDrum: S ; velocity: 127
@72780 , @3.8376405038759693 Channel: 2 
Note on, E2 key =  40;WhichDrum: S ; velocity: 0
@72780 , @3.8376405038759693 Channel: 2 
Note on, E2 key =  40;WhichDrum: S ; velocity: 127
@72840 , @3.840804263565892 Channel: 2 
Note on, E2 key =  40;WhichDrum: S ; velocity: 0
@72840 , @3.840804263565892 Channel: 2 
Note on, E3 key =  52;WhichDrum: S ; velocity: 127
@72900 , @3.8439680232558144 Channel: 2 
Note on, E3 key =  52;WhichDrum: S ; velocity: 0
@72900 , @3.8439680232558144 Channel: 2 
Note on, E2 key =  40;WhichDrum: S ; velocity: 127
@72960 , @3.8471317829457368 Channel: 2 
Note on, E2 key =  40;WhichDrum: S ; velocity: 0
@72960 , @3.8471317829457368 Channel: 2 
Note on, F#3 key =  54;WhichDrum: C1 ; velocity: 127
@72960 , @3.8471317829457368 Channel: 2 
Note on, C#3 key =  49;WhichDrum: T3 ; velocity: 127
@73020 , @3.8502955426356595 Channel: 2 
Note on, F#3 key =  54;WhichDrum: C1 ; velocity: 0
@73020 , @3.8502955426356595 Channel: 2 
Note on, C#3 key =  49;WhichDrum: T3 ; velocity: 0
@73020 , @3.8502955426356595 Channel: 2 
Note on, E2 key =  40;WhichDrum: S ; velocity: 127
@73080 , @3.853459302325582 Channel: 2 
Note on, E2 key =  40;WhichDrum: S ; velocity: 0
@73080 , @3.853459302325582 Channel: 2 
Note on, E2 key =  40;WhichDrum: S ; velocity: 127
@73140 , @3.856623062015504 Channel: 2 
Note on, E2 key =  40;WhichDrum: S ; velocity: 0
@73140 , @3.856623062015504 Channel: 2 
Note on, E3 key =  52;WhichDrum: S ; velocity: 127
@73200 , @3.859786821705427 Channel: 2 
Note on, E3 key =  52;WhichDrum: S ; velocity: 0
@73200 , @3.859786821705427 Channel: 2 
Note on, E2 key =  40;WhichDrum: S ; velocity: 127
@73260 , @3.8629505813953493 Channel: 2 
Note on, E2 key =  40;WhichDrum: S ; velocity: 0
@73260 , @3.8629505813953493 Channel: 2 
Note on, E2 key =  40;WhichDrum: S ; velocity: 127
@73320 , @3.8661143410852716 Channel: 2 
Note on, E2 key =  40;WhichDrum: S ; velocity: 0
@73320 , @3.8661143410852716 Channel: 2 
Note on, E3 key =  52;WhichDrum: S ; velocity: 127
@73440 , @3.8724418604651167 Channel: 2 
Note on, E3 key =  52;WhichDrum: S ; velocity: 0
@73440 , @3.8724418604651167 Channel: 2 
Note on, G2 key =  43;WhichDrum: C2 ; velocity: 127
@73500 , @3.875605620155039 Channel: 2 
Note on, G2 key =  43;WhichDrum: C2 ; velocity: 0
@73500 , @3.875605620155039 Channel: 2 
Note on, F#2 key =  42;WhichDrum: C1 ; velocity: 127
@73560 , @3.878769379844961 Channel: 2 
Note on, F#2 key =  42;WhichDrum: C1 ; velocity: 0
@73560 , @3.878769379844961 Channel: 2 
Note on, E2 key =  40;WhichDrum: S ; velocity: 127
@73620 , @3.8819331395348837 Channel: 2 
Note on, E2 key =  40;WhichDrum: S ; velocity: 0
@73620 , @3.8819331395348837 Channel: 2 
Note on, C3 key =  48;WhichDrum: B ; velocity: 127
@73680 , @3.885096899224806 Channel: 2 
Note on, C3 key =  48;WhichDrum: B ; velocity: 0
@73680 , @3.885096899224806 Channel: 2 
Note on, B2 key =  47;WhichDrum: T1 ; velocity: 127
@73740 , @3.8882606589147284 Channel: 2 
Note on, B2 key =  47;WhichDrum: T1 ; velocity: 0
@73740 , @3.8882606589147284 Channel: 2 
Note on, A2 key =  45;WhichDrum: T3 ; velocity: 127
@73800 , @3.891424418604651 Channel: 2 
Note on, A2 key =  45;WhichDrum: T3 ; velocity: 0
@73800 , @3.891424418604651 Channel: 2 
Note on, G2 key =  43;WhichDrum: C2 ; velocity: 127
@73860 , @3.8945881782945735 Channel: 2 
Note on, G2 key =  43;WhichDrum: C2 ; velocity: 0
@73860 , @3.8945881782945735 Channel: 2 
Note on, E2 key =  40;WhichDrum: S ; velocity: 127
@73920 , @3.897751937984496 Channel: 2 
Note on, E2 key =  40;WhichDrum: S ; velocity: 0
@73920 , @3.897751937984496 Channel: 2 
Note on, D3 key =  50;WhichDrum: T2 ; velocity: 127
@73980 , @3.9009156976744186 Channel: 2 
Note on, D3 key =  50;WhichDrum: T2 ; velocity: 0
@73980 , @3.9009156976744186 Channel: 2 
Note on, E3 key =  52;WhichDrum: S ; velocity: 127
@74040 , @3.904079457364341 Channel: 2 
Note on, E3 key =  52;WhichDrum: S ; velocity: 0
@74040 , @3.904079457364341 Channel: 2 
Note on, E2 key =  40;WhichDrum: S ; velocity: 127
@74100 , @3.9072432170542633 Channel: 2 
Note on, E2 key =  40;WhichDrum: S ; velocity: 0
@74100 , @3.9072432170542633 Channel: 2 
Note on, E3 key =  52;WhichDrum: S ; velocity: 127
@74160 , @3.910406976744186 Channel: 2 
Note on, E3 key =  52;WhichDrum: S ; velocity: 0
@74160 , @3.910406976744186 Channel: 2 
Note on, E2 key =  40;WhichDrum: S ; velocity: 127
@74220 , @3.9135707364341084 Channel: 2 
Note on, E2 key =  40;WhichDrum: S ; velocity: 0
@74220 , @3.9135707364341084 Channel: 2 
Note on, E2 key =  40;WhichDrum: S ; velocity: 127
@74280 , @3.9167344961240307 Channel: 2 
Note on, E2 key =  40;WhichDrum: S ; velocity: 0
@74280 , @3.9167344961240307 Channel: 2 
Note on, E3 key =  52;WhichDrum: S ; velocity: 127
@74340 , @3.9198982558139535 Channel: 2 
Note on, E3 key =  52;WhichDrum: S ; velocity: 0
@74340 , @3.9198982558139535 Channel: 2 
Note on, E2 key =  40;WhichDrum: S ; velocity: 127
@74400 , @3.923062015503876 Channel: 2 
Note on, E2 key =  40;WhichDrum: S ; velocity: 0
@74400 , @3.923062015503876 Channel: 2 
Note on, D3 key =  50;WhichDrum: T2 ; velocity: 127
@74400 , @3.923062015503876 Channel: 2 
Note on, G3 key =  55;WhichDrum: C2 ; velocity: 127
@74460 , @3.926225775193798 Channel: 2 
Note on, D3 key =  50;WhichDrum: T2 ; velocity: 0
@74460 , @3.926225775193798 Channel: 2 
Note on, G3 key =  55;WhichDrum: C2 ; velocity: 0
@74460 , @3.926225775193798 Channel: 2 
Note on, E2 key =  40;WhichDrum: S ; velocity: 127
@74520 , @3.929389534883721 Channel: 2 
Note on, E2 key =  40;WhichDrum: S ; velocity: 0
@74520 , @3.929389534883721 Channel: 2 
Note on, E2 key =  40;WhichDrum: S ; velocity: 127
@74580 , @3.932553294573643 Channel: 2 
Note on, E2 key =  40;WhichDrum: S ; velocity: 0
@74580 , @3.932553294573643 Channel: 2 
Note on, E3 key =  52;WhichDrum: S ; velocity: 127
@74640 , @3.935717054263566 Channel: 2 
Note on, E3 key =  52;WhichDrum: S ; velocity: 0
@74640 , @3.935717054263566 Channel: 2 
Note on, E2 key =  40;WhichDrum: S ; velocity: 127
@74700 , @3.9388808139534883 Channel: 2 
Note on, E2 key =  40;WhichDrum: S ; velocity: 0
@74700 , @3.9388808139534883 Channel: 2 
Note on, E2 key =  40;WhichDrum: S ; velocity: 127
@74760 , @3.9420445736434107 Channel: 2 
Note on, E2 key =  40;WhichDrum: S ; velocity: 0
@74760 , @3.9420445736434107 Channel: 2 
Note on, E3 key =  52;WhichDrum: S ; velocity: 127
@74820 , @3.9452083333333334 Channel: 2 
Note on, E3 key =  52;WhichDrum: S ; velocity: 0
@74820 , @3.9452083333333334 Channel: 2 
Note on, E2 key =  40;WhichDrum: S ; velocity: 127
@74880 , @3.9483720930232558 Channel: 2 
Note on, E2 key =  40;WhichDrum: S ; velocity: 0
@74880 , @3.9483720930232558 Channel: 2 
Note on, F#3 key =  54;WhichDrum: C1 ; velocity: 127
@74880 , @3.9483720930232558 Channel: 2 
Note on, C#3 key =  49;WhichDrum: T3 ; velocity: 127
@74940 , @3.951535852713178 Channel: 2 
Note on, F#3 key =  54;WhichDrum: C1 ; velocity: 0
@74940 , @3.951535852713178 Channel: 2 
Note on, C#3 key =  49;WhichDrum: T3 ; velocity: 0
@74940 , @3.951535852713178 Channel: 2 
Note on, E2 key =  40;WhichDrum: S ; velocity: 127
@75000 , @3.954699612403101 Channel: 2 
Note on, E2 key =  40;WhichDrum: S ; velocity: 0
@75000 , @3.954699612403101 Channel: 2 
Note on, E2 key =  40;WhichDrum: S ; velocity: 127
@75060 , @3.957863372093023 Channel: 2 
Note on, E2 key =  40;WhichDrum: S ; velocity: 0
@75060 , @3.957863372093023 Channel: 2 
Note on, E3 key =  52;WhichDrum: S ; velocity: 127
@75120 , @3.9610271317829455 Channel: 2 
Note on, E3 key =  52;WhichDrum: S ; velocity: 0
@75120 , @3.9610271317829455 Channel: 2 
Note on, E2 key =  40;WhichDrum: S ; velocity: 127
@75180 , @3.9641908914728683 Channel: 2 
Note on, E2 key =  40;WhichDrum: S ; velocity: 0
@75180 , @3.9641908914728683 Channel: 2 
Note on, E2 key =  40;WhichDrum: S ; velocity: 127
@75240 , @3.9673546511627906 Channel: 2 
Note on, E2 key =  40;WhichDrum: S ; velocity: 0
@75240 , @3.9673546511627906 Channel: 2 
Note on, E3 key =  52;WhichDrum: S ; velocity: 127
@75360 , @3.9736821705426357 Channel: 2 
Note on, E3 key =  52;WhichDrum: S ; velocity: 0
@75360 , @3.9736821705426357 Channel: 2 
Note on, G2 key =  43;WhichDrum: C2 ; velocity: 127
@75420 , @3.976845930232558 Channel: 2 
Note on, G2 key =  43;WhichDrum: C2 ; velocity: 0
@75420 , @3.976845930232558 Channel: 2 
Note on, F#2 key =  42;WhichDrum: C1 ; velocity: 127
@75480 , @3.9800096899224804 Channel: 2 
Note on, F#2 key =  42;WhichDrum: C1 ; velocity: 0
@75480 , @3.9800096899224804 Channel: 2 
Note on, E2 key =  40;WhichDrum: S ; velocity: 127
@75540 , @3.983173449612403 Channel: 2 
Note on, E2 key =  40;WhichDrum: S ; velocity: 0
@75540 , @3.983173449612403 Channel: 2 
Note on, C3 key =  48;WhichDrum: B ; velocity: 127
@75600 , @3.9863372093023255 Channel: 2 
Note on, C3 key =  48;WhichDrum: B ; velocity: 0
@75600 , @3.9863372093023255 Channel: 2 
Note on, B2 key =  47;WhichDrum: T1 ; velocity: 127
@75660 , @3.9895009689922483 Channel: 2 
Note on, B2 key =  47;WhichDrum: T1 ; velocity: 0
@75660 , @3.9895009689922483 Channel: 2 
Note on, A2 key =  45;WhichDrum: T3 ; velocity: 127
@75720 , @3.9926647286821706 Channel: 2 
Note on, A2 key =  45;WhichDrum: T3 ; velocity: 0
@75720 , @3.9926647286821706 Channel: 2 
Note on, G2 key =  43;WhichDrum: C2 ; velocity: 127
@75780 , @3.995828488372093 Channel: 2 
Note on, G2 key =  43;WhichDrum: C2 ; velocity: 0
@75780 , @3.995828488372093 Channel: 2 
Note on, E2 key =  40;WhichDrum: S ; velocity: 127
@75840 , @3.9989922480620157 Channel: 2 
Note on, E2 key =  40;WhichDrum: S ; velocity: 0
@75840 , @3.9989922480620157 Channel: 2 
Note on, D3 key =  50;WhichDrum: T2 ; velocity: 127
@75900 , @4.002156007751938 Channel: 2 
Note on, D3 key =  50;WhichDrum: T2 ; velocity: 0
@75900 , @4.002156007751938 Channel: 2 
Note on, E3 key =  52;WhichDrum: S ; velocity: 127
@75960 , @4.00531976744186 Channel: 2 
Note on, E3 key =  52;WhichDrum: S ; velocity: 0
@75960 , @4.00531976744186 Channel: 2 
Note on, E2 key =  40;WhichDrum: S ; velocity: 127
@76020 , @4.008483527131783 Channel: 2 
Note on, E2 key =  40;WhichDrum: S ; velocity: 0
@76020 , @4.008483527131783 Channel: 2 
Note on, E3 key =  52;WhichDrum: S ; velocity: 127
@76080 , @4.011647286821705 Channel: 2 
Note on, E3 key =  52;WhichDrum: S ; velocity: 0
@76080 , @4.011647286821705 Channel: 2 
Note on, E2 key =  40;WhichDrum: S ; velocity: 127
@76140 , @4.014811046511628 Channel: 2 
Note on, E2 key =  40;WhichDrum: S ; velocity: 0
@76140 , @4.014811046511628 Channel: 2 
Note on, E2 key =  40;WhichDrum: S ; velocity: 127
@76200 , @4.017974806201551 Channel: 2 
Note on, E2 key =  40;WhichDrum: S ; velocity: 0
@76200 , @4.017974806201551 Channel: 2 
Note on, E3 key =  52;WhichDrum: S ; velocity: 127
@76260 , @4.021138565891473 Channel: 2 
Note on, E3 key =  52;WhichDrum: S ; velocity: 0
@76260 , @4.021138565891473 Channel: 2 
Note on, E2 key =  40;WhichDrum: S ; velocity: 127
@76320 , @4.024302325581395 Channel: 2 
Note on, E2 key =  40;WhichDrum: S ; velocity: 0
@76320 , @4.024302325581395 Channel: 2 
Note on, D3 key =  50;WhichDrum: T2 ; velocity: 127
@76320 , @4.024302325581395 Channel: 2 
Note on, G3 key =  55;WhichDrum: C2 ; velocity: 127
@76380 , @4.0274660852713176 Channel: 2 
Note on, D3 key =  50;WhichDrum: T2 ; velocity: 0
@76380 , @4.0274660852713176 Channel: 2 
Note on, G3 key =  55;WhichDrum: C2 ; velocity: 0
@76380 , @4.0274660852713176 Channel: 2 
Note on, E2 key =  40;WhichDrum: S ; velocity: 127
@76440 , @4.030629844961241 Channel: 2 
Note on, E2 key =  40;WhichDrum: S ; velocity: 0
@76440 , @4.030629844961241 Channel: 2 
Note on, E2 key =  40;WhichDrum: S ; velocity: 127
@76500 , @4.033793604651163 Channel: 2 
Note on, E2 key =  40;WhichDrum: S ; velocity: 0
@76500 , @4.033793604651163 Channel: 2 
Note on, E3 key =  52;WhichDrum: S ; velocity: 127
@76560 , @4.036957364341085 Channel: 2 
Note on, E3 key =  52;WhichDrum: S ; velocity: 0
@76560 , @4.036957364341085 Channel: 2 
Note on, E2 key =  40;WhichDrum: S ; velocity: 127
@76620 , @4.040121124031008 Channel: 2 
Note on, E2 key =  40;WhichDrum: S ; velocity: 0
@76620 , @4.040121124031008 Channel: 2 
Note on, E2 key =  40;WhichDrum: S ; velocity: 127
@76680 , @4.04328488372093 Channel: 2 
Note on, E2 key =  40;WhichDrum: S ; velocity: 0
@76680 , @4.04328488372093 Channel: 2 
Note on, E3 key =  52;WhichDrum: S ; velocity: 127
@76740 , @4.046448643410852 Channel: 2 
Note on, E3 key =  52;WhichDrum: S ; velocity: 0
@76740 , @4.046448643410852 Channel: 2 
Note on, E2 key =  40;WhichDrum: S ; velocity: 127
@76800 , @4.049612403100776 Channel: 2 
Note on, E2 key =  40;WhichDrum: S ; velocity: 0
@76800 , @4.049612403100776 Channel: 2 
Note on, F#3 key =  54;WhichDrum: C1 ; velocity: 127
@76800 , @4.049612403100776 Channel: 2 
Note on, C#3 key =  49;WhichDrum: T3 ; velocity: 127
@76860 , @4.052776162790698 Channel: 2 
Note on, F#3 key =  54;WhichDrum: C1 ; velocity: 0
@76860 , @4.052776162790698 Channel: 2 
Note on, C#3 key =  49;WhichDrum: T3 ; velocity: 0
@76860 , @4.052776162790698 Channel: 2 
Note on, E2 key =  40;WhichDrum: S ; velocity: 127
@76920 , @4.05593992248062 Channel: 2 
Note on, E2 key =  40;WhichDrum: S ; velocity: 0
@76920 , @4.05593992248062 Channel: 2 
Note on, E2 key =  40;WhichDrum: S ; velocity: 127
@76980 , @4.059103682170543 Channel: 2 
Note on, E2 key =  40;WhichDrum: S ; velocity: 0
@76980 , @4.059103682170543 Channel: 2 
Note on, E3 key =  52;WhichDrum: S ; velocity: 127
@77040 , @4.062267441860465 Channel: 2 
Note on, E3 key =  52;WhichDrum: S ; velocity: 0
@77040 , @4.062267441860465 Channel: 2 
Note on, E2 key =  40;WhichDrum: S ; velocity: 127
@77100 , @4.065431201550387 Channel: 2 
Note on, E2 key =  40;WhichDrum: S ; velocity: 0
@77100 , @4.065431201550387 Channel: 2 
Note on, E2 key =  40;WhichDrum: S ; velocity: 127
@77160 , @4.0685949612403105 Channel: 2 
Note on, E2 key =  40;WhichDrum: S ; velocity: 0
@77160 , @4.0685949612403105 Channel: 2 
Note on, E3 key =  52;WhichDrum: S ; velocity: 127
@77280 , @4.074922480620155 Channel: 2 
Note on, E3 key =  52;WhichDrum: S ; velocity: 0
@77280 , @4.074922480620155 Channel: 2 
Note on, G2 key =  43;WhichDrum: C2 ; velocity: 127
@77340 , @4.0780862403100775 Channel: 2 
Note on, G2 key =  43;WhichDrum: C2 ; velocity: 0
@77340 , @4.0780862403100775 Channel: 2 
Note on, F#2 key =  42;WhichDrum: C1 ; velocity: 127
@77400 , @4.08125 Channel: 2 
Note on, F#2 key =  42;WhichDrum: C1 ; velocity: 0
@77400 , @4.08125 Channel: 2 
Note on, E2 key =  40;WhichDrum: S ; velocity: 127
@77460 , @4.084413759689923 Channel: 2 
Note on, E2 key =  40;WhichDrum: S ; velocity: 0
@77460 , @4.084413759689923 Channel: 2 
Note on, C3 key =  48;WhichDrum: B ; velocity: 127
@77520 , @4.087577519379845 Channel: 2 
Note on, C3 key =  48;WhichDrum: B ; velocity: 0
@77520 , @4.087577519379845 Channel: 2 
Note on, B2 key =  47;WhichDrum: T1 ; velocity: 127
@77580 , @4.090741279069768 Channel: 2 
Note on, B2 key =  47;WhichDrum: T1 ; velocity: 0
@77580 , @4.090741279069768 Channel: 2 
Note on, A2 key =  45;WhichDrum: T3 ; velocity: 127
@77640 , @4.09390503875969 Channel: 2 
Note on, A2 key =  45;WhichDrum: T3 ; velocity: 0
@77640 , @4.09390503875969 Channel: 2 
Note on, G2 key =  43;WhichDrum: C2 ; velocity: 127
@77700 , @4.097068798449612 Channel: 2 
Note on, G2 key =  43;WhichDrum: C2 ; velocity: 0
@77700 , @4.097068798449612 Channel: 2 
Note on, F#2 key =  42;WhichDrum: C1 ; velocity: 127
@77760 , @4.100232558139535 Channel: 2 
Note on, F#2 key =  42;WhichDrum: C1 ; velocity: 0
@77760 , @4.100232558139535 Channel: 2 
Note on, G2 key =  43;WhichDrum: C2 ; velocity: 127
@77820 , @4.103396317829458 Channel: 2 
Note on, G2 key =  43;WhichDrum: C2 ; velocity: 0
@77820 , @4.103396317829458 Channel: 2 
Note on, F#2 key =  42;WhichDrum: C1 ; velocity: 127
@77880 , @4.10656007751938 Channel: 2 
Note on, F#2 key =  42;WhichDrum: C1 ; velocity: 0
@77880 , @4.10656007751938 Channel: 2 
Note on, E2 key =  40;WhichDrum: S ; velocity: 127
@77940 , @4.109723837209303 Channel: 2 
Note on, E2 key =  40;WhichDrum: S ; velocity: 0
@77940 , @4.109723837209303 Channel: 2 
Note on, C3 key =  48;WhichDrum: B ; velocity: 127
@78000 , @4.112887596899225 Channel: 2 
Note on, C3 key =  48;WhichDrum: B ; velocity: 0
@78000 , @4.112887596899225 Channel: 2 
Note on, B2 key =  47;WhichDrum: T1 ; velocity: 127
@78060 , @4.116051356589147 Channel: 2 
Note on, B2 key =  47;WhichDrum: T1 ; velocity: 0
@78060 , @4.116051356589147 Channel: 2 
Note on, A2 key =  45;WhichDrum: T3 ; velocity: 127
@78120 , @4.1192151162790696 Channel: 2 
Note on, A2 key =  45;WhichDrum: T3 ; velocity: 0
@78120 , @4.1192151162790696 Channel: 2 
Note on, G2 key =  43;WhichDrum: C2 ; velocity: 127
@78180 , @4.122378875968993 Channel: 2 
Note on, G2 key =  43;WhichDrum: C2 ; velocity: 0
@78180 , @4.122378875968993 Channel: 2 
Note on, F#2 key =  42;WhichDrum: C1 ; velocity: 127
@78240 , @4.125542635658915 Channel: 2 
Note on, F#2 key =  42;WhichDrum: C1 ; velocity: 0
@78240 , @4.125542635658915 Channel: 2 
Note on, A2 key =  45;WhichDrum: T3 ; velocity: 127
@78240 , @4.125542635658915 Channel: 2 
Note on, E3 key =  52;WhichDrum: S ; velocity: 127
@78240 , @4.125542635658915 Channel: 2 
Note on, A3 key =  57;WhichDrum: T3 ; velocity: 127
@78720 , @4.150852713178295 Channel: 2 
Note on, A2 key =  45;WhichDrum: T3 ; velocity: 0
@78720 , @4.150852713178295 Channel: 2 
Note on, E3 key =  52;WhichDrum: S ; velocity: 0
@78720 , @4.150852713178295 Channel: 2 
Note on, A3 key =  57;WhichDrum: T3 ; velocity: 0
@78720 , @4.150852713178295 Channel: 2 
Command: 192

@78720 , @4.150852713178295 Channel: 2 
Command: 176

@78720 , @4.150852713178295 Channel: 2 
Command: 192

@78720 , @4.150852713178295 Channel: 2 
Note on, A2 key =  45;WhichDrum: T3 ; velocity: 127
@78780 , @4.154016472868217 Channel: 2 
Note on, A2 key =  45;WhichDrum: T3 ; velocity: 0
@78780 , @4.154016472868217 Channel: 2 
Note on, A2 key =  45;WhichDrum: T3 ; velocity: 127
@78840 , @4.15718023255814 Channel: 2 
Note on, A2 key =  45;WhichDrum: T3 ; velocity: 0
@78840 , @4.15718023255814 Channel: 2 
Note on, D4 key =  62;WhichDrum: T2 ; velocity: 127
@78870 , @4.1587621124031005 Channel: 2 
Note on, D4 key =  62;WhichDrum: T2 ; velocity: 0
@78870 , @4.1587621124031005 Channel: 2 
Note on, D#4 key =  63;WhichDrum: T1 ; velocity: 127
@78900 , @4.1603439922480625 Channel: 2 
Note on, D#4 key =  63;WhichDrum: T1 ; velocity: 0
@78900 , @4.1603439922480625 Channel: 2 
Note on, D4 key =  62;WhichDrum: T2 ; velocity: 127
@79020 , @4.166671511627907 Channel: 2 
Note on, D4 key =  62;WhichDrum: T2 ; velocity: 0
@79020 , @4.166671511627907 Channel: 2 
Note on, A2 key =  45;WhichDrum: T3 ; velocity: 127
@79080 , @4.1698352713178295 Channel: 2 
Note on, A2 key =  45;WhichDrum: T3 ; velocity: 0
@79080 , @4.1698352713178295 Channel: 2 
Note on, A3 key =  57;WhichDrum: T3 ; velocity: 127
@79110 , @4.171417151162791 Channel: 2 
Note on, A3 key =  57;WhichDrum: T3 ; velocity: 0
@79110 , @4.171417151162791 Channel: 2 
Note on, A#3 key =  58;WhichDrum: T2 ; velocity: 127
@79140 , @4.172999031007752 Channel: 2 
Note on, A#3 key =  58;WhichDrum: T2 ; velocity: 0
@79140 , @4.172999031007752 Channel: 2 
Note on, A3 key =  57;WhichDrum: T3 ; velocity: 127
@79260 , @4.179326550387597 Channel: 2 
Note on, A3 key =  57;WhichDrum: T3 ; velocity: 0
@79260 , @4.179326550387597 Channel: 2 
Note on, A2 key =  45;WhichDrum: T3 ; velocity: 127
@79320 , @4.18249031007752 Channel: 2 
Note on, A2 key =  45;WhichDrum: T3 ; velocity: 0
@79320 , @4.18249031007752 Channel: 2 
Note on, F3 key =  53;WhichDrum: HH ; velocity: 127
@79380 , @4.185654069767442 Channel: 2 
Note on, F3 key =  53;WhichDrum: HH ; velocity: 0
@79380 , @4.185654069767442 Channel: 2 
Note on, E3 key =  52;WhichDrum: S ; velocity: 127
@79440 , @4.188817829457364 Channel: 2 
Note on, E3 key =  52;WhichDrum: S ; velocity: 0
@79440 , @4.188817829457364 Channel: 2 
Note on, G3 key =  55;WhichDrum: C2 ; velocity: 127
@79500 , @4.191981589147288 Channel: 2 
Note on, G3 key =  55;WhichDrum: C2 ; velocity: 0
@79500 , @4.191981589147288 Channel: 2 
Note on, E3 key =  52;WhichDrum: S ; velocity: 127
@79560 , @4.19514534883721 Channel: 2 
Note on, E3 key =  52;WhichDrum: S ; velocity: 0
@79560 , @4.19514534883721 Channel: 2 
Note on, C4 key =  60;WhichDrum: B ; velocity: 127
@79620 , @4.198309108527132 Channel: 2 
Note on, C4 key =  60;WhichDrum: B ; velocity: 0
@79620 , @4.198309108527132 Channel: 2 
Note on, A3 key =  57;WhichDrum: T3 ; velocity: 127
@79680 , @4.201472868217055 Channel: 2 
Note on, A3 key =  57;WhichDrum: T3 ; velocity: 0
@79680 , @4.201472868217055 Channel: 2 
Command: 192

@79680 , @4.201472868217055 Channel: 2 
Command: 176

@79680 , @4.201472868217055 Channel: 2 
Command: 192

@79680 , @4.201472868217055 Channel: 2 
Note on, A2 key =  45;WhichDrum: T3 ; velocity: 127
@79740 , @4.204636627906977 Channel: 2 
Note on, A2 key =  45;WhichDrum: T3 ; velocity: 0
@79740 , @4.204636627906977 Channel: 2 
Note on, A2 key =  45;WhichDrum: T3 ; velocity: 127
@79800 , @4.207800387596899 Channel: 2 
Note on, A2 key =  45;WhichDrum: T3 ; velocity: 0
@79800 , @4.207800387596899 Channel: 2 
Note on, D4 key =  62;WhichDrum: T2 ; velocity: 127
@79830 , @4.20938226744186 Channel: 2 
Note on, D4 key =  62;WhichDrum: T2 ; velocity: 0
@79830 , @4.20938226744186 Channel: 2 
Note on, D#4 key =  63;WhichDrum: T1 ; velocity: 127
@79860 , @4.2109641472868224 Channel: 2 
Note on, D#4 key =  63;WhichDrum: T1 ; velocity: 0
@79860 , @4.2109641472868224 Channel: 2 
Note on, D4 key =  62;WhichDrum: T2 ; velocity: 127
@79980 , @4.217291666666667 Channel: 2 
Note on, D4 key =  62;WhichDrum: T2 ; velocity: 0
@79980 , @4.217291666666667 Channel: 2 
Note on, A2 key =  45;WhichDrum: T3 ; velocity: 127
@80040 , @4.220455426356589 Channel: 2 
Note on, A2 key =  45;WhichDrum: T3 ; velocity: 0
@80040 , @4.220455426356589 Channel: 2 
Note on, A3 key =  57;WhichDrum: T3 ; velocity: 127
@80070 , @4.222037306201551 Channel: 2 
Note on, A3 key =  57;WhichDrum: T3 ; velocity: 0
@80070 , @4.222037306201551 Channel: 2 
Note on, A#3 key =  58;WhichDrum: T2 ; velocity: 127
@80100 , @4.223619186046512 Channel: 2 
Note on, A#3 key =  58;WhichDrum: T2 ; velocity: 0
@80100 , @4.223619186046512 Channel: 2 
Note on, A3 key =  57;WhichDrum: T3 ; velocity: 127
@80220 , @4.229946705426357 Channel: 2 
Note on, A3 key =  57;WhichDrum: T3 ; velocity: 0
@80220 , @4.229946705426357 Channel: 2 
Note on, A2 key =  45;WhichDrum: T3 ; velocity: 127
@80280 , @4.23311046511628 Channel: 2 
Note on, A2 key =  45;WhichDrum: T3 ; velocity: 0
@80280 , @4.23311046511628 Channel: 2 
Note on, F3 key =  53;WhichDrum: HH ; velocity: 127
@80340 , @4.236274224806202 Channel: 2 
Note on, F3 key =  53;WhichDrum: HH ; velocity: 0
@80340 , @4.236274224806202 Channel: 2 
Note on, E3 key =  52;WhichDrum: S ; velocity: 127
@80400 , @4.239437984496124 Channel: 2 
Note on, E3 key =  52;WhichDrum: S ; velocity: 0
@80400 , @4.239437984496124 Channel: 2 
Note on, G3 key =  55;WhichDrum: C2 ; velocity: 127
@80460 , @4.242601744186047 Channel: 2 
Note on, G3 key =  55;WhichDrum: C2 ; velocity: 0
@80460 , @4.242601744186047 Channel: 2 
Note on, E3 key =  52;WhichDrum: S ; velocity: 127
@80520 , @4.24576550387597 Channel: 2 
Note on, E3 key =  52;WhichDrum: S ; velocity: 0
@80520 , @4.24576550387597 Channel: 2 
Note on, C4 key =  60;WhichDrum: B ; velocity: 127
@80580 , @4.248929263565892 Channel: 2 
Note on, C4 key =  60;WhichDrum: B ; velocity: 0
@80580 , @4.248929263565892 Channel: 2 
Note on, A3 key =  57;WhichDrum: T3 ; velocity: 127
@80640 , @4.2520930232558145 Channel: 2 
Note on, A3 key =  57;WhichDrum: T3 ; velocity: 0
@80640 , @4.2520930232558145 Channel: 2 
Command: 192

@80640 , @4.2520930232558145 Channel: 2 
Command: 176

@80640 , @4.2520930232558145 Channel: 2 
Command: 192

@80640 , @4.2520930232558145 Channel: 2 
Note on, A2 key =  45;WhichDrum: T3 ; velocity: 127
@80700 , @4.255256782945737 Channel: 2 
Note on, A2 key =  45;WhichDrum: T3 ; velocity: 0
@80700 , @4.255256782945737 Channel: 2 
Note on, A2 key =  45;WhichDrum: T3 ; velocity: 127
@80760 , @4.258420542635659 Channel: 2 
Note on, A2 key =  45;WhichDrum: T3 ; velocity: 0
@80760 , @4.258420542635659 Channel: 2 
Note on, D4 key =  62;WhichDrum: T2 ; velocity: 127
@80790 , @4.26000242248062 Channel: 2 
Note on, D4 key =  62;WhichDrum: T2 ; velocity: 0
@80790 , @4.26000242248062 Channel: 2 
Note on, D#4 key =  63;WhichDrum: T1 ; velocity: 127
@80820 , @4.2615843023255815 Channel: 2 
Note on, D#4 key =  63;WhichDrum: T1 ; velocity: 0
@80820 , @4.2615843023255815 Channel: 2 
Note on, D4 key =  62;WhichDrum: T2 ; velocity: 127
@80940 , @4.267911821705427 Channel: 2 
Note on, D4 key =  62;WhichDrum: T2 ; velocity: 0
@80940 , @4.267911821705427 Channel: 2 
Note on, A2 key =  45;WhichDrum: T3 ; velocity: 127
@81000 , @4.271075581395349 Channel: 2 
Note on, A2 key =  45;WhichDrum: T3 ; velocity: 0
@81000 , @4.271075581395349 Channel: 2 
Note on, A3 key =  57;WhichDrum: T3 ; velocity: 127
@81030 , @4.2726574612403105 Channel: 2 
Note on, A3 key =  57;WhichDrum: T3 ; velocity: 0
@81030 , @4.2726574612403105 Channel: 2 
Note on, A#3 key =  58;WhichDrum: T2 ; velocity: 127
@81060 , @4.274239341085272 Channel: 2 
Note on, A#3 key =  58;WhichDrum: T2 ; velocity: 0
@81060 , @4.274239341085272 Channel: 2 
Note on, A3 key =  57;WhichDrum: T3 ; velocity: 127
@81180 , @4.280566860465116 Channel: 2 
Note on, A3 key =  57;WhichDrum: T3 ; velocity: 0
@81180 , @4.280566860465116 Channel: 2 
Note on, A2 key =  45;WhichDrum: T3 ; velocity: 127
@81240 , @4.28373062015504 Channel: 2 
Note on, A2 key =  45;WhichDrum: T3 ; velocity: 0
@81240 , @4.28373062015504 Channel: 2 
Note on, F3 key =  53;WhichDrum: HH ; velocity: 127
@81300 , @4.286894379844961 Channel: 2 
Note on, F3 key =  53;WhichDrum: HH ; velocity: 0
@81300 , @4.286894379844961 Channel: 2 
Note on, E3 key =  52;WhichDrum: S ; velocity: 127
@81360 , @4.290058139534883 Channel: 2 
Note on, E3 key =  52;WhichDrum: S ; velocity: 0
@81360 , @4.290058139534883 Channel: 2 
Note on, G3 key =  55;WhichDrum: C2 ; velocity: 127
@81420 , @4.293221899224806 Channel: 2 
Note on, G3 key =  55;WhichDrum: C2 ; velocity: 0
@81420 , @4.293221899224806 Channel: 2 
Note on, E3 key =  52;WhichDrum: S ; velocity: 127
@81480 , @4.296385658914729 Channel: 2 
Note on, E3 key =  52;WhichDrum: S ; velocity: 0
@81480 , @4.296385658914729 Channel: 2 
Note on, C4 key =  60;WhichDrum: B ; velocity: 127
@81540 , @4.299549418604651 Channel: 2 
Note on, C4 key =  60;WhichDrum: B ; velocity: 0
@81540 , @4.299549418604651 Channel: 2 
Note on, A3 key =  57;WhichDrum: T3 ; velocity: 127
@81600 , @4.302713178294574 Channel: 2 
Note on, A3 key =  57;WhichDrum: T3 ; velocity: 0
@81600 , @4.302713178294574 Channel: 2 
Command: 192

@81600 , @4.302713178294574 Channel: 2 
Command: 176

@81600 , @4.302713178294574 Channel: 2 
Command: 192

@81600 , @4.302713178294574 Channel: 2 
Note on, A2 key =  45;WhichDrum: T3 ; velocity: 127
@81660 , @4.305876937984496 Channel: 2 
Note on, A2 key =  45;WhichDrum: T3 ; velocity: 0
@81660 , @4.305876937984496 Channel: 2 
Note on, A2 key =  45;WhichDrum: T3 ; velocity: 127
@81720 , @4.309040697674418 Channel: 2 
Note on, A2 key =  45;WhichDrum: T3 ; velocity: 0
@81720 , @4.309040697674418 Channel: 2 
Note on, D4 key =  62;WhichDrum: T2 ; velocity: 127
@81750 , @4.31062257751938 Channel: 2 
Note on, D4 key =  62;WhichDrum: T2 ; velocity: 0
@81750 , @4.31062257751938 Channel: 2 
Note on, D#4 key =  63;WhichDrum: T1 ; velocity: 127
@81780 , @4.3122044573643405 Channel: 2 
Note on, D#4 key =  63;WhichDrum: T1 ; velocity: 0
@81780 , @4.3122044573643405 Channel: 2 
Note on, D4 key =  62;WhichDrum: T2 ; velocity: 127
@81900 , @4.318531976744186 Channel: 2 
Note on, D4 key =  62;WhichDrum: T2 ; velocity: 0
@81900 , @4.318531976744186 Channel: 2 
Note on, A2 key =  45;WhichDrum: T3 ; velocity: 127
@81960 , @4.321695736434108 Channel: 2 
Note on, A2 key =  45;WhichDrum: T3 ; velocity: 0
@81960 , @4.321695736434108 Channel: 2 
Note on, A3 key =  57;WhichDrum: T3 ; velocity: 127
@81990 , @4.32327761627907 Channel: 2 
Note on, A3 key =  57;WhichDrum: T3 ; velocity: 0
@81990 , @4.32327761627907 Channel: 2 
Note on, A#3 key =  58;WhichDrum: T2 ; velocity: 127
@82020 , @4.324859496124031 Channel: 2 
Note on, A#3 key =  58;WhichDrum: T2 ; velocity: 0
@82020 , @4.324859496124031 Channel: 2 
Note on, A3 key =  57;WhichDrum: T3 ; velocity: 127
@82140 , @4.331187015503875 Channel: 2 
Note on, A3 key =  57;WhichDrum: T3 ; velocity: 0
@82140 , @4.331187015503875 Channel: 2 
Note on, A2 key =  45;WhichDrum: T3 ; velocity: 127
@82200 , @4.334350775193799 Channel: 2 
Note on, A2 key =  45;WhichDrum: T3 ; velocity: 0
@82200 , @4.334350775193799 Channel: 2 
Note on, F3 key =  53;WhichDrum: HH ; velocity: 127
@82260 , @4.337514534883721 Channel: 2 
Note on, F3 key =  53;WhichDrum: HH ; velocity: 0
@82260 , @4.337514534883721 Channel: 2 
Note on, E3 key =  52;WhichDrum: S ; velocity: 127
@82320 , @4.340678294573643 Channel: 2 
Note on, E3 key =  52;WhichDrum: S ; velocity: 0
@82320 , @4.340678294573643 Channel: 2 
Note on, G3 key =  55;WhichDrum: C2 ; velocity: 127
@82380 , @4.343842054263566 Channel: 2 
Note on, G3 key =  55;WhichDrum: C2 ; velocity: 0
@82380 , @4.343842054263566 Channel: 2 
Note on, E3 key =  52;WhichDrum: S ; velocity: 127
@82440 , @4.347005813953488 Channel: 2 
Note on, E3 key =  52;WhichDrum: S ; velocity: 0
@82440 , @4.347005813953488 Channel: 2 
Note on, C4 key =  60;WhichDrum: B ; velocity: 127
@82500 , @4.350169573643411 Channel: 2 
Note on, C4 key =  60;WhichDrum: B ; velocity: 0
@82500 , @4.350169573643411 Channel: 2 
Note on, A3 key =  57;WhichDrum: T3 ; velocity: 127
@82560 , @4.3533333333333335 Channel: 2 
Note on, A3 key =  57;WhichDrum: T3 ; velocity: 0
@82560 , @4.3533333333333335 Channel: 2 
Command: 192

@82560 , @4.3533333333333335 Channel: 2 
Command: 176

@82560 , @4.3533333333333335 Channel: 2 
Command: 192

@82560 , @4.3533333333333335 Channel: 2 
Note on, A2 key =  45;WhichDrum: T3 ; velocity: 127
@82620 , @4.356497093023256 Channel: 2 
Note on, A2 key =  45;WhichDrum: T3 ; velocity: 0
@82620 , @4.356497093023256 Channel: 2 
Note on, A2 key =  45;WhichDrum: T3 ; velocity: 127
@82680 , @4.359660852713178 Channel: 2 
Note on, A2 key =  45;WhichDrum: T3 ; velocity: 0
@82680 , @4.359660852713178 Channel: 2 
Note on, D4 key =  62;WhichDrum: T2 ; velocity: 127
@82710 , @4.36124273255814 Channel: 2 
Note on, D4 key =  62;WhichDrum: T2 ; velocity: 0
@82710 , @4.36124273255814 Channel: 2 
Note on, D#4 key =  63;WhichDrum: T1 ; velocity: 127
@82740 , @4.3628246124031005 Channel: 2 
Note on, D#4 key =  63;WhichDrum: T1 ; velocity: 0
@82740 , @4.3628246124031005 Channel: 2 
Note on, D4 key =  62;WhichDrum: T2 ; velocity: 127
@82860 , @4.369152131782946 Channel: 2 
Note on, D4 key =  62;WhichDrum: T2 ; velocity: 0
@82860 , @4.369152131782946 Channel: 2 
Note on, A2 key =  45;WhichDrum: T3 ; velocity: 127
@82920 , @4.372315891472868 Channel: 2 
Note on, A2 key =  45;WhichDrum: T3 ; velocity: 0
@82920 , @4.372315891472868 Channel: 2 
Note on, A3 key =  57;WhichDrum: T3 ; velocity: 127
@82950 , @4.3738977713178295 Channel: 2 
Note on, A3 key =  57;WhichDrum: T3 ; velocity: 0
@82950 , @4.3738977713178295 Channel: 2 
Note on, A#3 key =  58;WhichDrum: T2 ; velocity: 127
@82980 , @4.375479651162791 Channel: 2 
Note on, A#3 key =  58;WhichDrum: T2 ; velocity: 0
@82980 , @4.375479651162791 Channel: 2 
Note on, A3 key =  57;WhichDrum: T3 ; velocity: 127
@83100 , @4.381807170542635 Channel: 2 
Note on, A3 key =  57;WhichDrum: T3 ; velocity: 0
@83100 , @4.381807170542635 Channel: 2 
Note on, A2 key =  45;WhichDrum: T3 ; velocity: 127
@83160 , @4.384970930232558 Channel: 2 
Note on, A2 key =  45;WhichDrum: T3 ; velocity: 0
@83160 , @4.384970930232558 Channel: 2 
Note on, F3 key =  53;WhichDrum: HH ; velocity: 127
@83220 , @4.388134689922481 Channel: 2 
Note on, F3 key =  53;WhichDrum: HH ; velocity: 0
@83220 , @4.388134689922481 Channel: 2 
Note on, E3 key =  52;WhichDrum: S ; velocity: 127
@83280 , @4.391298449612403 Channel: 2 
Note on, E3 key =  52;WhichDrum: S ; velocity: 0
@83280 , @4.391298449612403 Channel: 2 
Note on, G3 key =  55;WhichDrum: C2 ; velocity: 127
@83340 , @4.394462209302326 Channel: 2 
Note on, G3 key =  55;WhichDrum: C2 ; velocity: 0
@83340 , @4.394462209302326 Channel: 2 
Note on, E3 key =  52;WhichDrum: S ; velocity: 127
@83400 , @4.397625968992248 Channel: 2 
Note on, E3 key =  52;WhichDrum: S ; velocity: 0
@83400 , @4.397625968992248 Channel: 2 
Note on, C4 key =  60;WhichDrum: B ; velocity: 127
@83460 , @4.40078972868217 Channel: 2 
Note on, C4 key =  60;WhichDrum: B ; velocity: 0
@83460 , @4.40078972868217 Channel: 2 
Note on, A3 key =  57;WhichDrum: T3 ; velocity: 127
@83520 , @4.403953488372093 Channel: 2 
Note on, A3 key =  57;WhichDrum: T3 ; velocity: 0
@83520 , @4.403953488372093 Channel: 2 
Command: 192

@83520 , @4.403953488372093 Channel: 2 
Command: 176

@83520 , @4.403953488372093 Channel: 2 
Command: 192

@83520 , @4.403953488372093 Channel: 2 
Note on, A2 key =  45;WhichDrum: T3 ; velocity: 127
@83580 , @4.407117248062016 Channel: 2 
Note on, A2 key =  45;WhichDrum: T3 ; velocity: 0
@83580 , @4.407117248062016 Channel: 2 
Note on, A2 key =  45;WhichDrum: T3 ; velocity: 127
@83640 , @4.410281007751938 Channel: 2 
Note on, A2 key =  45;WhichDrum: T3 ; velocity: 0
@83640 , @4.410281007751938 Channel: 2 
Note on, D4 key =  62;WhichDrum: T2 ; velocity: 127
@83670 , @4.411862887596899 Channel: 2 
Note on, D4 key =  62;WhichDrum: T2 ; velocity: 0
@83670 , @4.411862887596899 Channel: 2 
Note on, D#4 key =  63;WhichDrum: T1 ; velocity: 127
@83700 , @4.41344476744186 Channel: 2 
Note on, D#4 key =  63;WhichDrum: T1 ; velocity: 0
@83700 , @4.41344476744186 Channel: 2 
Note on, D4 key =  62;WhichDrum: T2 ; velocity: 127
@83820 , @4.419772286821705 Channel: 2 
Note on, D4 key =  62;WhichDrum: T2 ; velocity: 0
@83820 , @4.419772286821705 Channel: 2 
Note on, A2 key =  45;WhichDrum: T3 ; velocity: 127
@83880 , @4.422936046511628 Channel: 2 
Note on, A2 key =  45;WhichDrum: T3 ; velocity: 0
@83880 , @4.422936046511628 Channel: 2 
Note on, A3 key =  57;WhichDrum: T3 ; velocity: 127
@83910 , @4.4245179263565895 Channel: 2 
Note on, A3 key =  57;WhichDrum: T3 ; velocity: 0
@83910 , @4.4245179263565895 Channel: 2 
Note on, A#3 key =  58;WhichDrum: T2 ; velocity: 127
@83940 , @4.426099806201551 Channel: 2 
Note on, A#3 key =  58;WhichDrum: T2 ; velocity: 0
@83940 , @4.426099806201551 Channel: 2 
Note on, A3 key =  57;WhichDrum: T3 ; velocity: 127
@84060 , @4.432427325581395 Channel: 2 
Note on, A3 key =  57;WhichDrum: T3 ; velocity: 0
@84060 , @4.432427325581395 Channel: 2 
Note on, A2 key =  45;WhichDrum: T3 ; velocity: 127
@84120 , @4.435591085271318 Channel: 2 
Note on, A2 key =  45;WhichDrum: T3 ; velocity: 0
@84120 , @4.435591085271318 Channel: 2 
Note on, F3 key =  53;WhichDrum: HH ; velocity: 127
@84180 , @4.43875484496124 Channel: 2 
Note on, F3 key =  53;WhichDrum: HH ; velocity: 0
@84180 , @4.43875484496124 Channel: 2 
Note on, E3 key =  52;WhichDrum: S ; velocity: 127
@84240 , @4.441918604651163 Channel: 2 
Note on, E3 key =  52;WhichDrum: S ; velocity: 0
@84240 , @4.441918604651163 Channel: 2 
Note on, G3 key =  55;WhichDrum: C2 ; velocity: 127
@84300 , @4.4450823643410855 Channel: 2 
Note on, G3 key =  55;WhichDrum: C2 ; velocity: 0
@84300 , @4.4450823643410855 Channel: 2 
Note on, E3 key =  52;WhichDrum: S ; velocity: 127
@84360 , @4.448246124031008 Channel: 2 
Note on, E3 key =  52;WhichDrum: S ; velocity: 0
@84360 , @4.448246124031008 Channel: 2 
Note on, C4 key =  60;WhichDrum: B ; velocity: 127
@84420 , @4.45140988372093 Channel: 2 
Note on, C4 key =  60;WhichDrum: B ; velocity: 0
@84420 , @4.45140988372093 Channel: 2 
Note on, A3 key =  57;WhichDrum: T3 ; velocity: 127
@84480 , @4.4545736434108525 Channel: 2 
Note on, A3 key =  57;WhichDrum: T3 ; velocity: 0
@84480 , @4.4545736434108525 Channel: 2 
Command: 192

@84480 , @4.4545736434108525 Channel: 2 
Command: 176

@84480 , @4.4545736434108525 Channel: 2 
Command: 192

@84480 , @4.4545736434108525 Channel: 2 
Note on, A2 key =  45;WhichDrum: T3 ; velocity: 127
@84540 , @4.457737403100776 Channel: 2 
Note on, A2 key =  45;WhichDrum: T3 ; velocity: 0
@84540 , @4.457737403100776 Channel: 2 
Note on, A2 key =  45;WhichDrum: T3 ; velocity: 127
@84600 , @4.460901162790698 Channel: 2 
Note on, A2 key =  45;WhichDrum: T3 ; velocity: 0
@84600 , @4.460901162790698 Channel: 2 
Note on, D4 key =  62;WhichDrum: T2 ; velocity: 127
@84630 , @4.462483042635659 Channel: 2 
Note on, D4 key =  62;WhichDrum: T2 ; velocity: 0
@84630 , @4.462483042635659 Channel: 2 
Note on, D#4 key =  63;WhichDrum: T1 ; velocity: 127
@84660 , @4.46406492248062 Channel: 2 
Note on, D#4 key =  63;WhichDrum: T1 ; velocity: 0
@84660 , @4.46406492248062 Channel: 2 
Note on, D4 key =  62;WhichDrum: T2 ; velocity: 127
@84780 , @4.470392441860465 Channel: 2 
Note on, D4 key =  62;WhichDrum: T2 ; velocity: 0
@84780 , @4.470392441860465 Channel: 2 
Note on, A2 key =  45;WhichDrum: T3 ; velocity: 127
@84840 , @4.473556201550387 Channel: 2 
Note on, A2 key =  45;WhichDrum: T3 ; velocity: 0
@84840 , @4.473556201550387 Channel: 2 
Note on, A3 key =  57;WhichDrum: T3 ; velocity: 127
@84870 , @4.475138081395349 Channel: 2 
Note on, A3 key =  57;WhichDrum: T3 ; velocity: 0
@84870 , @4.475138081395349 Channel: 2 
Note on, A#3 key =  58;WhichDrum: T2 ; velocity: 127
@84900 , @4.476719961240311 Channel: 2 
Note on, A#3 key =  58;WhichDrum: T2 ; velocity: 0
@84900 , @4.476719961240311 Channel: 2 
Note on, A3 key =  57;WhichDrum: T3 ; velocity: 127
@85020 , @4.483047480620155 Channel: 2 
Note on, A3 key =  57;WhichDrum: T3 ; velocity: 0
@85020 , @4.483047480620155 Channel: 2 
Note on, A2 key =  45;WhichDrum: T3 ; velocity: 127
@85080 , @4.486211240310078 Channel: 2 
Note on, A2 key =  45;WhichDrum: T3 ; velocity: 0
@85080 , @4.486211240310078 Channel: 2 
Note on, F3 key =  53;WhichDrum: HH ; velocity: 127
@85140 , @4.489375 Channel: 2 
Note on, F3 key =  53;WhichDrum: HH ; velocity: 0
@85140 , @4.489375 Channel: 2 
Note on, E3 key =  52;WhichDrum: S ; velocity: 127
@85200 , @4.492538759689922 Channel: 2 
Note on, E3 key =  52;WhichDrum: S ; velocity: 0
@85200 , @4.492538759689922 Channel: 2 
Note on, G3 key =  55;WhichDrum: C2 ; velocity: 127
@85260 , @4.495702519379845 Channel: 2 
Note on, G3 key =  55;WhichDrum: C2 ; velocity: 0
@85260 , @4.495702519379845 Channel: 2 
Note on, E3 key =  52;WhichDrum: S ; velocity: 127
@85320 , @4.498866279069768 Channel: 2 
Note on, E3 key =  52;WhichDrum: S ; velocity: 0
@85320 , @4.498866279069768 Channel: 2 
Note on, C4 key =  60;WhichDrum: B ; velocity: 127
@85380 , @4.50203003875969 Channel: 2 
Note on, C4 key =  60;WhichDrum: B ; velocity: 0
@85380 , @4.50203003875969 Channel: 2 
Note on, A3 key =  57;WhichDrum: T3 ; velocity: 127
@85440 , @4.505193798449612 Channel: 2 
Note on, A3 key =  57;WhichDrum: T3 ; velocity: 0
@85440 , @4.505193798449612 Channel: 2 
Command: 192

@85440 , @4.505193798449612 Channel: 2 
Command: 176

@85440 , @4.505193798449612 Channel: 2 
Command: 192

@85440 , @4.505193798449612 Channel: 2 
Note on, A2 key =  45;WhichDrum: T3 ; velocity: 127
@85500 , @4.508357558139535 Channel: 2 
Note on, A2 key =  45;WhichDrum: T3 ; velocity: 0
@85500 , @4.508357558139535 Channel: 2 
Note on, A2 key =  45;WhichDrum: T3 ; velocity: 127
@85560 , @4.511521317829458 Channel: 2 
Note on, A2 key =  45;WhichDrum: T3 ; velocity: 0
@85560 , @4.511521317829458 Channel: 2 
Note on, D4 key =  62;WhichDrum: T2 ; velocity: 127
@85590 , @4.513103197674418 Channel: 2 
Note on, D4 key =  62;WhichDrum: T2 ; velocity: 0
@85590 , @4.513103197674418 Channel: 2 
Note on, D#4 key =  63;WhichDrum: T1 ; velocity: 127
@85620 , @4.51468507751938 Channel: 2 
Note on, D#4 key =  63;WhichDrum: T1 ; velocity: 0
@85620 , @4.51468507751938 Channel: 2 
Note on, D4 key =  62;WhichDrum: T2 ; velocity: 127
@85740 , @4.521012596899225 Channel: 2 
Note on, D4 key =  62;WhichDrum: T2 ; velocity: 0
@85740 , @4.521012596899225 Channel: 2 
Note on, A2 key =  45;WhichDrum: T3 ; velocity: 127
@85800 , @4.524176356589147 Channel: 2 
Note on, A2 key =  45;WhichDrum: T3 ; velocity: 0
@85800 , @4.524176356589147 Channel: 2 
Note on, A3 key =  57;WhichDrum: T3 ; velocity: 127
@85830 , @4.5257582364341085 Channel: 2 
Note on, A3 key =  57;WhichDrum: T3 ; velocity: 0
@85830 , @4.5257582364341085 Channel: 2 
Note on, A#3 key =  58;WhichDrum: T2 ; velocity: 127
@85860 , @4.52734011627907 Channel: 2 
Note on, A#3 key =  58;WhichDrum: T2 ; velocity: 0
@85860 , @4.52734011627907 Channel: 2 
Note on, A3 key =  57;WhichDrum: T3 ; velocity: 127
@85980 , @4.533667635658915 Channel: 2 
Note on, A3 key =  57;WhichDrum: T3 ; velocity: 0
@85980 , @4.533667635658915 Channel: 2 
Note on, A2 key =  45;WhichDrum: T3 ; velocity: 127
@86040 , @4.5368313953488375 Channel: 2 
Note on, A2 key =  45;WhichDrum: T3 ; velocity: 0
@86040 , @4.5368313953488375 Channel: 2 
Note on, F3 key =  53;WhichDrum: HH ; velocity: 127
@86100 , @4.53999515503876 Channel: 2 
Note on, F3 key =  53;WhichDrum: HH ; velocity: 0
@86100 , @4.53999515503876 Channel: 2 
Note on, E3 key =  52;WhichDrum: S ; velocity: 127
@86160 , @4.543158914728682 Channel: 2 
Note on, E3 key =  52;WhichDrum: S ; velocity: 0
@86160 , @4.543158914728682 Channel: 2 
Note on, G3 key =  55;WhichDrum: C2 ; velocity: 127
@86220 , @4.5463226744186045 Channel: 2 
Note on, G3 key =  55;WhichDrum: C2 ; velocity: 0
@86220 , @4.5463226744186045 Channel: 2 
Note on, E3 key =  52;WhichDrum: S ; velocity: 127
@86280 , @4.549486434108528 Channel: 2 
Note on, E3 key =  52;WhichDrum: S ; velocity: 0
@86280 , @4.549486434108528 Channel: 2 
Note on, C4 key =  60;WhichDrum: B ; velocity: 127
@86340 , @4.55265019379845 Channel: 2 
Note on, C4 key =  60;WhichDrum: B ; velocity: 0
@86340 , @4.55265019379845 Channel: 2 
Note on, A3 key =  57;WhichDrum: T3 ; velocity: 127
@86400 , @4.555813953488372 Channel: 2 
Note on, A3 key =  57;WhichDrum: T3 ; velocity: 0
@86400 , @4.555813953488372 Channel: 2 
Note on, E4 key =  64;WhichDrum: S ; velocity: 127
@86460 , @4.558977713178295 Channel: 2 
Note on, E4 key =  64;WhichDrum: S ; velocity: 0
@86460 , @4.558977713178295 Channel: 2 
Note on, D4 key =  62;WhichDrum: T2 ; velocity: 127
@86520 , @4.562141472868217 Channel: 2 
Note on, D4 key =  62;WhichDrum: T2 ; velocity: 0
@86520 , @4.562141472868217 Channel: 2 
Note on, B3 key =  59;WhichDrum: T1 ; velocity: 127
@86580 , @4.56530523255814 Channel: 2 
Note on, B3 key =  59;WhichDrum: T1 ; velocity: 0
@86580 , @4.56530523255814 Channel: 2 
Note on, D4 key =  62;WhichDrum: T2 ; velocity: 127
@86640 , @4.568468992248063 Channel: 2 
Note on, D4 key =  62;WhichDrum: T2 ; velocity: 0
@86640 , @4.568468992248063 Channel: 2 
Note on, B3 key =  59;WhichDrum: T1 ; velocity: 127
@86700 , @4.571632751937985 Channel: 2 
Note on, B3 key =  59;WhichDrum: T1 ; velocity: 0
@86700 , @4.571632751937985 Channel: 2 
Note on, A#3 key =  58;WhichDrum: T2 ; velocity: 127
@86760 , @4.574796511627907 Channel: 2 
Note on, A#3 key =  58;WhichDrum: T2 ; velocity: 0
@86760 , @4.574796511627907 Channel: 2 
Note on, A3 key =  57;WhichDrum: T3 ; velocity: 127
@86820 , @4.57796027131783 Channel: 2 
Note on, A3 key =  57;WhichDrum: T3 ; velocity: 0
@86820 , @4.57796027131783 Channel: 2 
Note on, G3 key =  55;WhichDrum: C2 ; velocity: 127
@86880 , @4.581124031007752 Channel: 2 
Note on, G3 key =  55;WhichDrum: C2 ; velocity: 0
@86880 , @4.581124031007752 Channel: 2 
Note on, E2 key =  40;WhichDrum: S ; velocity: 127
@86940 , @4.584287790697675 Channel: 2 
Note on, E2 key =  40;WhichDrum: S ; velocity: 0
@86940 , @4.584287790697675 Channel: 2 
Note on, E2 key =  40;WhichDrum: S ; velocity: 127
@87000 , @4.587451550387597 Channel: 2 
Note on, E2 key =  40;WhichDrum: S ; velocity: 0
@87000 , @4.587451550387597 Channel: 2 
Note on, E2 key =  40;WhichDrum: S ; velocity: 127
@87060 , @4.59061531007752 Channel: 2 
Note on, E2 key =  40;WhichDrum: S ; velocity: 0
@87060 , @4.59061531007752 Channel: 2 
Note on, E2 key =  40;WhichDrum: S ; velocity: 127
@87120 , @4.593779069767442 Channel: 2 
Note on, E2 key =  40;WhichDrum: S ; velocity: 0
@87120 , @4.593779069767442 Channel: 2 
Note on, G3 key =  55;WhichDrum: C2 ; velocity: 127
@87120 , @4.593779069767442 Channel: 2 
Note on, D3 key =  50;WhichDrum: T2 ; velocity: 127
@87180 , @4.596942829457364 Channel: 2 
Note on, G3 key =  55;WhichDrum: C2 ; velocity: 0
@87180 , @4.596942829457364 Channel: 2 
Note on, D3 key =  50;WhichDrum: T2 ; velocity: 0
@87180 , @4.596942829457364 Channel: 2 
Note on, E3 key =  52;WhichDrum: S ; velocity: 127
@87180 , @4.596942829457364 Channel: 2 
Note on, A3 key =  57;WhichDrum: T3 ; velocity: 127
@87240 , @4.600106589147287 Channel: 2 
Note on, E3 key =  52;WhichDrum: S ; velocity: 0
@87240 , @4.600106589147287 Channel: 2 
Note on, A3 key =  57;WhichDrum: T3 ; velocity: 0
@87240 , @4.600106589147287 Channel: 2 
Note on, D3 key =  50;WhichDrum: T2 ; velocity: 127
@87240 , @4.600106589147287 Channel: 2 
Note on, G3 key =  55;WhichDrum: C2 ; velocity: 127
@87300 , @4.60327034883721 Channel: 2 
Note on, D3 key =  50;WhichDrum: T2 ; velocity: 0
@87300 , @4.60327034883721 Channel: 2 
Note on, G3 key =  55;WhichDrum: C2 ; velocity: 0
@87300 , @4.60327034883721 Channel: 2 
Note on, A3 key =  57;WhichDrum: T3 ; velocity: 127
@87300 , @4.60327034883721 Channel: 2 
Note on, E3 key =  52;WhichDrum: S ; velocity: 127
@87360 , @4.606434108527132 Channel: 2 
Note on, A3 key =  57;WhichDrum: T3 ; velocity: 0
@87360 , @4.606434108527132 Channel: 2 
Note on, E3 key =  52;WhichDrum: S ; velocity: 0
@87360 , @4.606434108527132 Channel: 2 
Note on, E2 key =  40;WhichDrum: S ; velocity: 127
@87420 , @4.609597868217055 Channel: 2 
Note on, E2 key =  40;WhichDrum: S ; velocity: 0
@87420 , @4.609597868217055 Channel: 2 
Note on, E2 key =  40;WhichDrum: S ; velocity: 127
@87480 , @4.612761627906977 Channel: 2 
Note on, E2 key =  40;WhichDrum: S ; velocity: 0
@87480 , @4.612761627906977 Channel: 2 
Note on, E2 key =  40;WhichDrum: S ; velocity: 127
@87540 , @4.615925387596899 Channel: 2 
Note on, E2 key =  40;WhichDrum: S ; velocity: 0
@87540 , @4.615925387596899 Channel: 2 
Note on, E2 key =  40;WhichDrum: S ; velocity: 127
@87600 , @4.6190891472868225 Channel: 2 
Note on, E2 key =  40;WhichDrum: S ; velocity: 0
@87600 , @4.6190891472868225 Channel: 2 
Note on, E3 key =  52;WhichDrum: S ; velocity: 127
@87660 , @4.622252906976745 Channel: 2 
Note on, E3 key =  52;WhichDrum: S ; velocity: 0
@87660 , @4.622252906976745 Channel: 2 
Note on, D3 key =  50;WhichDrum: T2 ; velocity: 127
@87720 , @4.625416666666667 Channel: 2 
Note on, D3 key =  50;WhichDrum: T2 ; velocity: 0
@87720 , @4.625416666666667 Channel: 2 
Note on, B2 key =  47;WhichDrum: T1 ; velocity: 127
@87780 , @4.6285804263565895 Channel: 2 
Note on, B2 key =  47;WhichDrum: T1 ; velocity: 0
@87780 , @4.6285804263565895 Channel: 2 
Note on, A#2 key =  46;WhichDrum: T2 ; velocity: 127
@87840 , @4.631744186046512 Channel: 2 
Note on, A#2 key =  46;WhichDrum: T2 ; velocity: 0
@87840 , @4.631744186046512 Channel: 2 
Note on, E2 key =  40;WhichDrum: S ; velocity: 127
@87900 , @4.634907945736434 Channel: 2 
Note on, E2 key =  40;WhichDrum: S ; velocity: 0
@87900 , @4.634907945736434 Channel: 2 
Note on, E2 key =  40;WhichDrum: S ; velocity: 127
@87960 , @4.638071705426357 Channel: 2 
Note on, E2 key =  40;WhichDrum: S ; velocity: 0
@87960 , @4.638071705426357 Channel: 2 
Note on, E2 key =  40;WhichDrum: S ; velocity: 127
@88020 , @4.64123546511628 Channel: 2 
Note on, E2 key =  40;WhichDrum: S ; velocity: 0
@88020 , @4.64123546511628 Channel: 2 
Note on, E2 key =  40;WhichDrum: S ; velocity: 127
@88080 , @4.644399224806202 Channel: 2 
Note on, E2 key =  40;WhichDrum: S ; velocity: 0
@88080 , @4.644399224806202 Channel: 2 
Note on, G3 key =  55;WhichDrum: C2 ; velocity: 127
@88080 , @4.644399224806202 Channel: 2 
Note on, D3 key =  50;WhichDrum: T2 ; velocity: 127
@88140 , @4.647562984496124 Channel: 2 
Note on, G3 key =  55;WhichDrum: C2 ; velocity: 0
@88140 , @4.647562984496124 Channel: 2 
Note on, D3 key =  50;WhichDrum: T2 ; velocity: 0
@88140 , @4.647562984496124 Channel: 2 
Note on, E3 key =  52;WhichDrum: S ; velocity: 127
@88140 , @4.647562984496124 Channel: 2 
Note on, A3 key =  57;WhichDrum: T3 ; velocity: 127
@88200 , @4.650726744186047 Channel: 2 
Note on, E3 key =  52;WhichDrum: S ; velocity: 0
@88200 , @4.650726744186047 Channel: 2 
Note on, A3 key =  57;WhichDrum: T3 ; velocity: 0
@88200 , @4.650726744186047 Channel: 2 
Note on, D3 key =  50;WhichDrum: T2 ; velocity: 127
@88200 , @4.650726744186047 Channel: 2 
Note on, G3 key =  55;WhichDrum: C2 ; velocity: 127
@88260 , @4.653890503875969 Channel: 2 
Note on, D3 key =  50;WhichDrum: T2 ; velocity: 0
@88260 , @4.653890503875969 Channel: 2 
Note on, G3 key =  55;WhichDrum: C2 ; velocity: 0
@88260 , @4.653890503875969 Channel: 2 
Note on, A3 key =  57;WhichDrum: T3 ; velocity: 127
@88260 , @4.653890503875969 Channel: 2 
Note on, E3 key =  52;WhichDrum: S ; velocity: 127
@88320 , @4.657054263565892 Channel: 2 
Note on, A3 key =  57;WhichDrum: T3 ; velocity: 0
@88320 , @4.657054263565892 Channel: 2 
Note on, E3 key =  52;WhichDrum: S ; velocity: 0
@88320 , @4.657054263565892 Channel: 2 
Note on, E2 key =  40;WhichDrum: S ; velocity: 127
@88380 , @4.660218023255815 Channel: 2 
Note on, E2 key =  40;WhichDrum: S ; velocity: 0
@88380 , @4.660218023255815 Channel: 2 
Note on, E2 key =  40;WhichDrum: S ; velocity: 127
@88440 , @4.663381782945737 Channel: 2 
Note on, E2 key =  40;WhichDrum: S ; velocity: 0
@88440 , @4.663381782945737 Channel: 2 
Note on, E2 key =  40;WhichDrum: S ; velocity: 127
@88500 , @4.666545542635659 Channel: 2 
Note on, E2 key =  40;WhichDrum: S ; velocity: 0
@88500 , @4.666545542635659 Channel: 2 
Note on, E2 key =  40;WhichDrum: S ; velocity: 127
@88560 , @4.669709302325582 Channel: 2 
Note on, E2 key =  40;WhichDrum: S ; velocity: 0
@88560 , @4.669709302325582 Channel: 2 
Note on, E3 key =  52;WhichDrum: S ; velocity: 127
@88620 , @4.672873062015505 Channel: 2 
Note on, E3 key =  52;WhichDrum: S ; velocity: 0
@88620 , @4.672873062015505 Channel: 2 
Note on, D3 key =  50;WhichDrum: T2 ; velocity: 127
@88680 , @4.676036821705427 Channel: 2 
Note on, D3 key =  50;WhichDrum: T2 ; velocity: 0
@88680 , @4.676036821705427 Channel: 2 
Note on, B2 key =  47;WhichDrum: T1 ; velocity: 127
@88740 , @4.6792005813953494 Channel: 2 
Note on, B2 key =  47;WhichDrum: T1 ; velocity: 0
@88740 , @4.6792005813953494 Channel: 2 
Note on, A#2 key =  46;WhichDrum: T2 ; velocity: 127
@88800 , @4.682364341085272 Channel: 2 
Note on, A#2 key =  46;WhichDrum: T2 ; velocity: 0
@88800 , @4.682364341085272 Channel: 2 
Note on, E2 key =  40;WhichDrum: S ; velocity: 127
@88860 , @4.685528100775194 Channel: 2 
Note on, E2 key =  40;WhichDrum: S ; velocity: 0
@88860 , @4.685528100775194 Channel: 2 
Note on, E2 key =  40;WhichDrum: S ; velocity: 127
@88920 , @4.688691860465116 Channel: 2 
Note on, E2 key =  40;WhichDrum: S ; velocity: 0
@88920 , @4.688691860465116 Channel: 2 
Note on, E2 key =  40;WhichDrum: S ; velocity: 127
@88980 , @4.69185562015504 Channel: 2 
Note on, E2 key =  40;WhichDrum: S ; velocity: 0
@88980 , @4.69185562015504 Channel: 2 
Note on, E2 key =  40;WhichDrum: S ; velocity: 127
@89040 , @4.695019379844961 Channel: 2 
Note on, E2 key =  40;WhichDrum: S ; velocity: 0
@89040 , @4.695019379844961 Channel: 2 
Note on, G3 key =  55;WhichDrum: C2 ; velocity: 127
@89040 , @4.695019379844961 Channel: 2 
Note on, D3 key =  50;WhichDrum: T2 ; velocity: 127
@89100 , @4.698183139534883 Channel: 2 
Note on, G3 key =  55;WhichDrum: C2 ; velocity: 0
@89100 , @4.698183139534883 Channel: 2 
Note on, D3 key =  50;WhichDrum: T2 ; velocity: 0
@89100 , @4.698183139534883 Channel: 2 
Note on, E3 key =  52;WhichDrum: S ; velocity: 127
@89100 , @4.698183139534883 Channel: 2 
Note on, A3 key =  57;WhichDrum: T3 ; velocity: 127
@89160 , @4.701346899224806 Channel: 2 
Note on, E3 key =  52;WhichDrum: S ; velocity: 0
@89160 , @4.701346899224806 Channel: 2 
Note on, A3 key =  57;WhichDrum: T3 ; velocity: 0
@89160 , @4.701346899224806 Channel: 2 
Note on, D3 key =  50;WhichDrum: T2 ; velocity: 127
@89160 , @4.701346899224806 Channel: 2 
Note on, G3 key =  55;WhichDrum: C2 ; velocity: 127
@89220 , @4.704510658914728 Channel: 2 
Note on, D3 key =  50;WhichDrum: T2 ; velocity: 0
@89220 , @4.704510658914728 Channel: 2 
Note on, G3 key =  55;WhichDrum: C2 ; velocity: 0
@89220 , @4.704510658914728 Channel: 2 
Note on, A3 key =  57;WhichDrum: T3 ; velocity: 127
@89220 , @4.704510658914728 Channel: 2 
Note on, E3 key =  52;WhichDrum: S ; velocity: 127
@89280 , @4.707674418604651 Channel: 2 
Note on, A3 key =  57;WhichDrum: T3 ; velocity: 0
@89280 , @4.707674418604651 Channel: 2 
Note on, E3 key =  52;WhichDrum: S ; velocity: 0
@89280 , @4.707674418604651 Channel: 2 
Note on, E2 key =  40;WhichDrum: S ; velocity: 127
@89340 , @4.710838178294574 Channel: 2 
Note on, E2 key =  40;WhichDrum: S ; velocity: 0
@89340 , @4.710838178294574 Channel: 2 
Note on, E2 key =  40;WhichDrum: S ; velocity: 127
@89400 , @4.714001937984496 Channel: 2 
Note on, E2 key =  40;WhichDrum: S ; velocity: 0
@89400 , @4.714001937984496 Channel: 2 
Note on, E2 key =  40;WhichDrum: S ; velocity: 127
@89460 , @4.717165697674418 Channel: 2 
Note on, E2 key =  40;WhichDrum: S ; velocity: 0
@89460 , @4.717165697674418 Channel: 2 
Note on, E2 key =  40;WhichDrum: S ; velocity: 127
@89520 , @4.720329457364341 Channel: 2 
Note on, E2 key =  40;WhichDrum: S ; velocity: 0
@89520 , @4.720329457364341 Channel: 2 
Note on, E3 key =  52;WhichDrum: S ; velocity: 127
@89580 , @4.723493217054264 Channel: 2 
Note on, E3 key =  52;WhichDrum: S ; velocity: 0
@89580 , @4.723493217054264 Channel: 2 
Note on, D3 key =  50;WhichDrum: T2 ; velocity: 127
@89640 , @4.726656976744186 Channel: 2 
Note on, D3 key =  50;WhichDrum: T2 ; velocity: 0
@89640 , @4.726656976744186 Channel: 2 
Note on, B2 key =  47;WhichDrum: T1 ; velocity: 127
@89700 , @4.7298207364341085 Channel: 2 
Note on, B2 key =  47;WhichDrum: T1 ; velocity: 0
@89700 , @4.7298207364341085 Channel: 2 
Note on, A#2 key =  46;WhichDrum: T2 ; velocity: 127
@89760 , @4.732984496124031 Channel: 2 
Note on, A#2 key =  46;WhichDrum: T2 ; velocity: 0
@89760 , @4.732984496124031 Channel: 2 
Note on, E2 key =  40;WhichDrum: S ; velocity: 127
@89820 , @4.736148255813953 Channel: 2 
Note on, E2 key =  40;WhichDrum: S ; velocity: 0
@89820 , @4.736148255813953 Channel: 2 
Note on, E2 key =  40;WhichDrum: S ; velocity: 127
@89880 , @4.7393120155038755 Channel: 2 
Note on, E2 key =  40;WhichDrum: S ; velocity: 0
@89880 , @4.7393120155038755 Channel: 2 
Note on, E2 key =  40;WhichDrum: S ; velocity: 127
@89940 , @4.742475775193799 Channel: 2 
Note on, E2 key =  40;WhichDrum: S ; velocity: 0
@89940 , @4.742475775193799 Channel: 2 
Note on, E2 key =  40;WhichDrum: S ; velocity: 127
@90000 , @4.745639534883721 Channel: 2 
Note on, E2 key =  40;WhichDrum: S ; velocity: 0
@90000 , @4.745639534883721 Channel: 2 
Note on, G3 key =  55;WhichDrum: C2 ; velocity: 127
@90000 , @4.745639534883721 Channel: 2 
Note on, D3 key =  50;WhichDrum: T2 ; velocity: 127
@90060 , @4.748803294573643 Channel: 2 
Note on, G3 key =  55;WhichDrum: C2 ; velocity: 0
@90060 , @4.748803294573643 Channel: 2 
Note on, D3 key =  50;WhichDrum: T2 ; velocity: 0
@90060 , @4.748803294573643 Channel: 2 
Note on, E3 key =  52;WhichDrum: S ; velocity: 127
@90060 , @4.748803294573643 Channel: 2 
Note on, A3 key =  57;WhichDrum: T3 ; velocity: 127
@90120 , @4.751967054263566 Channel: 2 
Note on, E3 key =  52;WhichDrum: S ; velocity: 0
@90120 , @4.751967054263566 Channel: 2 
Note on, A3 key =  57;WhichDrum: T3 ; velocity: 0
@90120 , @4.751967054263566 Channel: 2 
Note on, D3 key =  50;WhichDrum: T2 ; velocity: 127
@90120 , @4.751967054263566 Channel: 2 
Note on, G3 key =  55;WhichDrum: C2 ; velocity: 127
@90180 , @4.755130813953488 Channel: 2 
Note on, D3 key =  50;WhichDrum: T2 ; velocity: 0
@90180 , @4.755130813953488 Channel: 2 
Note on, G3 key =  55;WhichDrum: C2 ; velocity: 0
@90180 , @4.755130813953488 Channel: 2 
Note on, A3 key =  57;WhichDrum: T3 ; velocity: 127
@90180 , @4.755130813953488 Channel: 2 
Note on, E3 key =  52;WhichDrum: S ; velocity: 127
@90240 , @4.75829457364341 Channel: 2 
Note on, A3 key =  57;WhichDrum: T3 ; velocity: 0
@90240 , @4.75829457364341 Channel: 2 
Note on, E3 key =  52;WhichDrum: S ; velocity: 0
@90240 , @4.75829457364341 Channel: 2 
Note on, E2 key =  40;WhichDrum: S ; velocity: 127
@90300 , @4.761458333333334 Channel: 2 
Note on, E2 key =  40;WhichDrum: S ; velocity: 0
@90300 , @4.761458333333334 Channel: 2 
Note on, E2 key =  40;WhichDrum: S ; velocity: 127
@90360 , @4.764622093023256 Channel: 2 
Note on, E2 key =  40;WhichDrum: S ; velocity: 0
@90360 , @4.764622093023256 Channel: 2 
Note on, E2 key =  40;WhichDrum: S ; velocity: 127
@90420 , @4.767785852713178 Channel: 2 
Note on, E2 key =  40;WhichDrum: S ; velocity: 0
@90420 , @4.767785852713178 Channel: 2 
Note on, E2 key =  40;WhichDrum: S ; velocity: 127
@90480 , @4.770949612403101 Channel: 2 
Note on, E2 key =  40;WhichDrum: S ; velocity: 0
@90480 , @4.770949612403101 Channel: 2 
Note on, E3 key =  52;WhichDrum: S ; velocity: 127
@90540 , @4.774113372093023 Channel: 2 
Note on, E3 key =  52;WhichDrum: S ; velocity: 0
@90540 , @4.774113372093023 Channel: 2 
Note on, D3 key =  50;WhichDrum: T2 ; velocity: 127
@90600 , @4.777277131782946 Channel: 2 
Note on, D3 key =  50;WhichDrum: T2 ; velocity: 0
@90600 , @4.777277131782946 Channel: 2 
Note on, B2 key =  47;WhichDrum: T1 ; velocity: 127
@90660 , @4.780440891472868 Channel: 2 
Note on, B2 key =  47;WhichDrum: T1 ; velocity: 0
@90660 , @4.780440891472868 Channel: 2 
Note on, A#2 key =  46;WhichDrum: T2 ; velocity: 127
@90720 , @4.783604651162791 Channel: 2 
Note on, A#2 key =  46;WhichDrum: T2 ; velocity: 0
@90720 , @4.783604651162791 Channel: 2 
Note on, E2 key =  40;WhichDrum: S ; velocity: 127
@90780 , @4.786768410852713 Channel: 2 
Note on, E2 key =  40;WhichDrum: S ; velocity: 0
@90780 , @4.786768410852713 Channel: 2 
Note on, E2 key =  40;WhichDrum: S ; velocity: 127
@90840 , @4.789932170542635 Channel: 2 
Note on, E2 key =  40;WhichDrum: S ; velocity: 0
@90840 , @4.789932170542635 Channel: 2 
Note on, E2 key =  40;WhichDrum: S ; velocity: 127
@90900 , @4.793095930232558 Channel: 2 
Note on, E2 key =  40;WhichDrum: S ; velocity: 0
@90900 , @4.793095930232558 Channel: 2 
Note on, E2 key =  40;WhichDrum: S ; velocity: 127
@90960 , @4.796259689922481 Channel: 2 
Note on, E2 key =  40;WhichDrum: S ; velocity: 0
@90960 , @4.796259689922481 Channel: 2 
Note on, E2 key =  40;WhichDrum: S ; velocity: 127
@91020 , @4.799423449612403 Channel: 2 
Note on, E2 key =  40;WhichDrum: S ; velocity: 0
@91020 , @4.799423449612403 Channel: 2 
Note on, E2 key =  40;WhichDrum: S ; velocity: 127
@91080 , @4.802587209302326 Channel: 2 
Note on, E2 key =  40;WhichDrum: S ; velocity: 0
@91080 , @4.802587209302326 Channel: 2 
Note on, E2 key =  40;WhichDrum: S ; velocity: 127
@91140 , @4.805750968992248 Channel: 2 
Note on, E2 key =  40;WhichDrum: S ; velocity: 0
@91140 , @4.805750968992248 Channel: 2 
Note on, E2 key =  40;WhichDrum: S ; velocity: 127
@91200 , @4.80891472868217 Channel: 2 
Note on, E2 key =  40;WhichDrum: S ; velocity: 0
@91200 , @4.80891472868217 Channel: 2 
Note on, E2 key =  40;WhichDrum: S ; velocity: 127
@91260 , @4.812078488372093 Channel: 2 
Note on, E2 key =  40;WhichDrum: S ; velocity: 0
@91260 , @4.812078488372093 Channel: 2 
Note on, E2 key =  40;WhichDrum: S ; velocity: 127
@91320 , @4.815242248062016 Channel: 2 
Note on, E2 key =  40;WhichDrum: S ; velocity: 0
@91320 , @4.815242248062016 Channel: 2 
Note on, E2 key =  40;WhichDrum: S ; velocity: 127
@91380 , @4.818406007751938 Channel: 2 
Note on, E2 key =  40;WhichDrum: S ; velocity: 0
@91380 , @4.818406007751938 Channel: 2 
Note on, E2 key =  40;WhichDrum: S ; velocity: 127
@91440 , @4.8215697674418605 Channel: 2 
Note on, E2 key =  40;WhichDrum: S ; velocity: 0
@91440 , @4.8215697674418605 Channel: 2 
Note on, B2 key =  47;WhichDrum: T1 ; velocity: 127
@91500 , @4.824733527131783 Channel: 2 
Note on, B2 key =  47;WhichDrum: T1 ; velocity: 0
@91500 , @4.824733527131783 Channel: 2 
Note on, A#2 key =  46;WhichDrum: T2 ; velocity: 127
@91560 , @4.827897286821705 Channel: 2 
Note on, A#2 key =  46;WhichDrum: T2 ; velocity: 0
@91560 , @4.827897286821705 Channel: 2 
Note on, G3 key =  55;WhichDrum: C2 ; velocity: 127
@91620 , @4.831061046511628 Channel: 2 
Note on, G3 key =  55;WhichDrum: C2 ; velocity: 0
@91620 , @4.831061046511628 Channel: 2 
Note on, E3 key =  52;WhichDrum: S ; velocity: 127
@91680 , @4.834224806201551 Channel: 2 
Note on, E3 key =  52;WhichDrum: S ; velocity: 0
@91680 , @4.834224806201551 Channel: 2 
Note on, E2 key =  40;WhichDrum: S ; velocity: 127
@91740 , @4.837388565891473 Channel: 2 
Note on, E2 key =  40;WhichDrum: S ; velocity: 0
@91740 , @4.837388565891473 Channel: 2 
Note on, E2 key =  40;WhichDrum: S ; velocity: 127
@91800 , @4.840552325581395 Channel: 2 
Note on, E2 key =  40;WhichDrum: S ; velocity: 0
@91800 , @4.840552325581395 Channel: 2 
Note on, E2 key =  40;WhichDrum: S ; velocity: 127
@91860 , @4.843716085271318 Channel: 2 
Note on, E2 key =  40;WhichDrum: S ; velocity: 0
@91860 , @4.843716085271318 Channel: 2 
Note on, E2 key =  40;WhichDrum: S ; velocity: 127
@91920 , @4.84687984496124 Channel: 2 
Note on, E2 key =  40;WhichDrum: S ; velocity: 0
@91920 , @4.84687984496124 Channel: 2 
Note on, E2 key =  40;WhichDrum: S ; velocity: 127
@91980 , @4.850043604651163 Channel: 2 
Note on, E2 key =  40;WhichDrum: S ; velocity: 0
@91980 , @4.850043604651163 Channel: 2 
Note on, E2 key =  40;WhichDrum: S ; velocity: 127
@92040 , @4.853207364341086 Channel: 2 
Note on, E2 key =  40;WhichDrum: S ; velocity: 0
@92040 , @4.853207364341086 Channel: 2 
Note on, E2 key =  40;WhichDrum: S ; velocity: 127
@92100 , @4.856371124031008 Channel: 2 
Note on, E2 key =  40;WhichDrum: S ; velocity: 0
@92100 , @4.856371124031008 Channel: 2 
Note on, E2 key =  40;WhichDrum: S ; velocity: 127
@92160 , @4.85953488372093 Channel: 2 
Note on, E2 key =  40;WhichDrum: S ; velocity: 0
@92160 , @4.85953488372093 Channel: 2 
Note on, E2 key =  40;WhichDrum: S ; velocity: 127
@92220 , @4.862698643410853 Channel: 2 
Note on, E2 key =  40;WhichDrum: S ; velocity: 0
@92220 , @4.862698643410853 Channel: 2 
Note on, E2 key =  40;WhichDrum: S ; velocity: 127
@92280 , @4.865862403100775 Channel: 2 
Note on, E2 key =  40;WhichDrum: S ; velocity: 0
@92280 , @4.865862403100775 Channel: 2 
Note on, E2 key =  40;WhichDrum: S ; velocity: 127
@92340 , @4.869026162790698 Channel: 2 
Note on, E2 key =  40;WhichDrum: S ; velocity: 0
@92340 , @4.869026162790698 Channel: 2 
Note on, E2 key =  40;WhichDrum: S ; velocity: 127
@92400 , @4.87218992248062 Channel: 2 
Note on, E2 key =  40;WhichDrum: S ; velocity: 0
@92400 , @4.87218992248062 Channel: 2 
Note on, B2 key =  47;WhichDrum: T1 ; velocity: 127
@92460 , @4.875353682170543 Channel: 2 
Note on, B2 key =  47;WhichDrum: T1 ; velocity: 0
@92460 , @4.875353682170543 Channel: 2 
Note on, A#2 key =  46;WhichDrum: T2 ; velocity: 127
@92520 , @4.878517441860465 Channel: 2 
Note on, A#2 key =  46;WhichDrum: T2 ; velocity: 0
@92520 , @4.878517441860465 Channel: 2 
Note on, G3 key =  55;WhichDrum: C2 ; velocity: 127
@92580 , @4.881681201550387 Channel: 2 
Note on, G3 key =  55;WhichDrum: C2 ; velocity: 0
@92580 , @4.881681201550387 Channel: 2 
Note on, E3 key =  52;WhichDrum: S ; velocity: 127
@92640 , @4.884844961240311 Channel: 2 
Note on, E3 key =  52;WhichDrum: S ; velocity: 0
@92640 , @4.884844961240311 Channel: 2 
Note on, E2 key =  40;WhichDrum: S ; velocity: 127
@92700 , @4.888008720930233 Channel: 2 
Note on, E2 key =  40;WhichDrum: S ; velocity: 0
@92700 , @4.888008720930233 Channel: 2 
Note on, E2 key =  40;WhichDrum: S ; velocity: 127
@92760 , @4.891172480620155 Channel: 2 
Note on, E2 key =  40;WhichDrum: S ; velocity: 0
@92760 , @4.891172480620155 Channel: 2 
Note on, E2 key =  40;WhichDrum: S ; velocity: 127
@92820 , @4.894336240310078 Channel: 2 
Note on, E2 key =  40;WhichDrum: S ; velocity: 0
@92820 , @4.894336240310078 Channel: 2 
Note on, E2 key =  40;WhichDrum: S ; velocity: 127
@92880 , @4.8975 Channel: 2 
Note on, E2 key =  40;WhichDrum: S ; velocity: 0
@92880 , @4.8975 Channel: 2 
Note on, E2 key =  40;WhichDrum: S ; velocity: 127
@92940 , @4.900663759689922 Channel: 2 
Note on, E2 key =  40;WhichDrum: S ; velocity: 0
@92940 , @4.900663759689922 Channel: 2 
Note on, E2 key =  40;WhichDrum: S ; velocity: 127
@93000 , @4.9038275193798455 Channel: 2 
Note on, E2 key =  40;WhichDrum: S ; velocity: 0
@93000 , @4.9038275193798455 Channel: 2 
Note on, E2 key =  40;WhichDrum: S ; velocity: 127
@93060 , @4.906991279069768 Channel: 2 
Note on, E2 key =  40;WhichDrum: S ; velocity: 0
@93060 , @4.906991279069768 Channel: 2 
Note on, E2 key =  40;WhichDrum: S ; velocity: 127
@93120 , @4.91015503875969 Channel: 2 
Note on, E2 key =  40;WhichDrum: S ; velocity: 0
@93120 , @4.91015503875969 Channel: 2 
Note on, E2 key =  40;WhichDrum: S ; velocity: 127
@93180 , @4.9133187984496125 Channel: 2 
Note on, E2 key =  40;WhichDrum: S ; velocity: 0
@93180 , @4.9133187984496125 Channel: 2 
Note on, E2 key =  40;WhichDrum: S ; velocity: 127
@93240 , @4.916482558139535 Channel: 2 
Note on, E2 key =  40;WhichDrum: S ; velocity: 0
@93240 , @4.916482558139535 Channel: 2 
Note on, E2 key =  40;WhichDrum: S ; velocity: 127
@93300 , @4.919646317829457 Channel: 2 
Note on, E2 key =  40;WhichDrum: S ; velocity: 0
@93300 , @4.919646317829457 Channel: 2 
Note on, E2 key =  40;WhichDrum: S ; velocity: 127
@93360 , @4.92281007751938 Channel: 2 
Note on, E2 key =  40;WhichDrum: S ; velocity: 0
@93360 , @4.92281007751938 Channel: 2 
Note on, B2 key =  47;WhichDrum: T1 ; velocity: 127
@93420 , @4.925973837209303 Channel: 2 
Note on, B2 key =  47;WhichDrum: T1 ; velocity: 0
@93420 , @4.925973837209303 Channel: 2 
Note on, A#2 key =  46;WhichDrum: T2 ; velocity: 127
@93480 , @4.929137596899225 Channel: 2 
Note on, A#2 key =  46;WhichDrum: T2 ; velocity: 0
@93480 , @4.929137596899225 Channel: 2 
Note on, G3 key =  55;WhichDrum: C2 ; velocity: 127
@93540 , @4.932301356589147 Channel: 2 
Note on, G3 key =  55;WhichDrum: C2 ; velocity: 0
@93540 , @4.932301356589147 Channel: 2 
Note on, E3 key =  52;WhichDrum: S ; velocity: 127
@93600 , @4.93546511627907 Channel: 2 
Note on, E3 key =  52;WhichDrum: S ; velocity: 0
@93600 , @4.93546511627907 Channel: 2 
Note on, E2 key =  40;WhichDrum: S ; velocity: 127
@93660 , @4.938628875968993 Channel: 2 
Note on, E2 key =  40;WhichDrum: S ; velocity: 0
@93660 , @4.938628875968993 Channel: 2 
Note on, E2 key =  40;WhichDrum: S ; velocity: 127
@93720 , @4.941792635658915 Channel: 2 
Note on, E2 key =  40;WhichDrum: S ; velocity: 0
@93720 , @4.941792635658915 Channel: 2 
Note on, E2 key =  40;WhichDrum: S ; velocity: 127
@93780 , @4.944956395348838 Channel: 2 
Note on, E2 key =  40;WhichDrum: S ; velocity: 0
@93780 , @4.944956395348838 Channel: 2 
Note on, E2 key =  40;WhichDrum: S ; velocity: 127
@93840 , @4.94812015503876 Channel: 2 
Note on, E2 key =  40;WhichDrum: S ; velocity: 0
@93840 , @4.94812015503876 Channel: 2 
Note on, E2 key =  40;WhichDrum: S ; velocity: 127
@93900 , @4.951283914728682 Channel: 2 
Note on, E2 key =  40;WhichDrum: S ; velocity: 0
@93900 , @4.951283914728682 Channel: 2 
Note on, E2 key =  40;WhichDrum: S ; velocity: 127
@93960 , @4.954447674418605 Channel: 2 
Note on, E2 key =  40;WhichDrum: S ; velocity: 0
@93960 , @4.954447674418605 Channel: 2 
Note on, E2 key =  40;WhichDrum: S ; velocity: 127
@94020 , @4.957611434108528 Channel: 2 
Note on, E2 key =  40;WhichDrum: S ; velocity: 0
@94020 , @4.957611434108528 Channel: 2 
Note on, E2 key =  40;WhichDrum: S ; velocity: 127
@94080 , @4.96077519379845 Channel: 2 
Note on, E2 key =  40;WhichDrum: S ; velocity: 0
@94080 , @4.96077519379845 Channel: 2 
Note on, E2 key =  40;WhichDrum: S ; velocity: 127
@94140 , @4.963938953488372 Channel: 2 
Note on, E2 key =  40;WhichDrum: S ; velocity: 0
@94140 , @4.963938953488372 Channel: 2 
Note on, E2 key =  40;WhichDrum: S ; velocity: 127
@94200 , @4.967102713178295 Channel: 2 
Note on, E2 key =  40;WhichDrum: S ; velocity: 0
@94200 , @4.967102713178295 Channel: 2 
Note on, E2 key =  40;WhichDrum: S ; velocity: 127
@94260 , @4.970266472868217 Channel: 2 
Note on, E2 key =  40;WhichDrum: S ; velocity: 0
@94260 , @4.970266472868217 Channel: 2 
Note on, E2 key =  40;WhichDrum: S ; velocity: 127
@94320 , @4.973430232558139 Channel: 2 
Note on, E2 key =  40;WhichDrum: S ; velocity: 0
@94320 , @4.973430232558139 Channel: 2 
Note on, B2 key =  47;WhichDrum: T1 ; velocity: 127
@94380 , @4.976593992248063 Channel: 2 
Note on, B2 key =  47;WhichDrum: T1 ; velocity: 0
@94380 , @4.976593992248063 Channel: 2 
Note on, A#2 key =  46;WhichDrum: T2 ; velocity: 127
@94440 , @4.979757751937985 Channel: 2 
Note on, A#2 key =  46;WhichDrum: T2 ; velocity: 0
@94440 , @4.979757751937985 Channel: 2 
Note on, G3 key =  55;WhichDrum: C2 ; velocity: 127
@94500 , @4.982921511627907 Channel: 2 
Note on, G3 key =  55;WhichDrum: C2 ; velocity: 0
@94500 , @4.982921511627907 Channel: 2 
Note on, E3 key =  52;WhichDrum: S ; velocity: 127
@94560 , @4.98608527131783 Channel: 2 
Note on, E3 key =  52;WhichDrum: S ; velocity: 0
@94560 , @4.98608527131783 Channel: 2 
Note on, C4 key =  60;WhichDrum: B ; velocity: 127
@94560 , @4.98608527131783 Channel: 2 
Note on, G3 key =  55;WhichDrum: C2 ; velocity: 127
@94620 , @4.989249031007752 Channel: 2 
Note on, C4 key =  60;WhichDrum: B ; velocity: 0
@94620 , @4.989249031007752 Channel: 2 
Note on, G3 key =  55;WhichDrum: C2 ; velocity: 0
@94620 , @4.989249031007752 Channel: 2 
Note on, E2 key =  40;WhichDrum: S ; velocity: 127
@94680 , @4.992412790697675 Channel: 2 
Note on, E2 key =  40;WhichDrum: S ; velocity: 0
@94680 , @4.992412790697675 Channel: 2 
Note on, E2 key =  40;WhichDrum: S ; velocity: 127
@94740 , @4.9955765503875975 Channel: 2 
Note on, E2 key =  40;WhichDrum: S ; velocity: 0
@94740 , @4.9955765503875975 Channel: 2 
Note on, E2 key =  40;WhichDrum: S ; velocity: 127
@94800 , @4.99874031007752 Channel: 2 
Note on, E2 key =  40;WhichDrum: S ; velocity: 0
@94800 , @4.99874031007752 Channel: 2 
Note on, G3 key =  55;WhichDrum: C2 ; velocity: 127
@94800 , @4.99874031007752 Channel: 2 
Note on, C4 key =  60;WhichDrum: B ; velocity: 127
@94860 , @5.001904069767442 Channel: 2 
Note on, G3 key =  55;WhichDrum: C2 ; velocity: 0
@94860 , @5.001904069767442 Channel: 2 
Note on, C4 key =  60;WhichDrum: B ; velocity: 0
@94860 , @5.001904069767442 Channel: 2 
Note on, D4 key =  62;WhichDrum: T2 ; velocity: 127
@94860 , @5.001904069767442 Channel: 2 
Note on, A3 key =  57;WhichDrum: T3 ; velocity: 127
@94920 , @5.0050678294573645 Channel: 2 
Note on, D4 key =  62;WhichDrum: T2 ; velocity: 0
@94920 , @5.0050678294573645 Channel: 2 
Note on, A3 key =  57;WhichDrum: T3 ; velocity: 0
@94920 , @5.0050678294573645 Channel: 2 
Note on, G3 key =  55;WhichDrum: C2 ; velocity: 127
@94920 , @5.0050678294573645 Channel: 2 
Note on, C4 key =  60;WhichDrum: B ; velocity: 127
@95040 , @5.01139534883721 Channel: 2 
Note on, G3 key =  55;WhichDrum: C2 ; velocity: 0
@95040 , @5.01139534883721 Channel: 2 
Note on, C4 key =  60;WhichDrum: B ; velocity: 0
@95040 , @5.01139534883721 Channel: 2 
Note on, C4 key =  60;WhichDrum: B ; velocity: 127
@95040 , @5.01139534883721 Channel: 2 
Note on, G3 key =  55;WhichDrum: C2 ; velocity: 127
@95100 , @5.014559108527132 Channel: 2 
Note on, C4 key =  60;WhichDrum: B ; velocity: 0
@95100 , @5.014559108527132 Channel: 2 
Note on, G3 key =  55;WhichDrum: C2 ; velocity: 0
@95100 , @5.014559108527132 Channel: 2 
Note on, E2 key =  40;WhichDrum: S ; velocity: 127
@95160 , @5.017722868217055 Channel: 2 
Note on, E2 key =  40;WhichDrum: S ; velocity: 0
@95160 , @5.017722868217055 Channel: 2 
Note on, E2 key =  40;WhichDrum: S ; velocity: 127
@95220 , @5.020886627906977 Channel: 2 
Note on, E2 key =  40;WhichDrum: S ; velocity: 0
@95220 , @5.020886627906977 Channel: 2 
Note on, E2 key =  40;WhichDrum: S ; velocity: 127
@95280 , @5.024050387596899 Channel: 2 
Note on, E2 key =  40;WhichDrum: S ; velocity: 0
@95280 , @5.024050387596899 Channel: 2 
Note on, G3 key =  55;WhichDrum: C2 ; velocity: 127
@95280 , @5.024050387596899 Channel: 2 
Note on, C4 key =  60;WhichDrum: B ; velocity: 127
@95340 , @5.027214147286822 Channel: 2 
Note on, G3 key =  55;WhichDrum: C2 ; velocity: 0
@95340 , @5.027214147286822 Channel: 2 
Note on, C4 key =  60;WhichDrum: B ; velocity: 0
@95340 , @5.027214147286822 Channel: 2 
Note on, D4 key =  62;WhichDrum: T2 ; velocity: 127
@95340 , @5.027214147286822 Channel: 2 
Note on, A3 key =  57;WhichDrum: T3 ; velocity: 127
@95400 , @5.030377906976745 Channel: 2 
Note on, D4 key =  62;WhichDrum: T2 ; velocity: 0
@95400 , @5.030377906976745 Channel: 2 
Note on, A3 key =  57;WhichDrum: T3 ; velocity: 0
@95400 , @5.030377906976745 Channel: 2 
Note on, G3 key =  55;WhichDrum: C2 ; velocity: 127
@95400 , @5.030377906976745 Channel: 2 
Note on, C4 key =  60;WhichDrum: B ; velocity: 127
@95520 , @5.03670542635659 Channel: 2 
Note on, G3 key =  55;WhichDrum: C2 ; velocity: 0
@95520 , @5.03670542635659 Channel: 2 
Note on, C4 key =  60;WhichDrum: B ; velocity: 0
@95520 , @5.03670542635659 Channel: 2 
Note on, C4 key =  60;WhichDrum: B ; velocity: 127
@95520 , @5.03670542635659 Channel: 2 
Note on, G3 key =  55;WhichDrum: C2 ; velocity: 127
@95580 , @5.039869186046512 Channel: 2 
Note on, C4 key =  60;WhichDrum: B ; velocity: 0
@95580 , @5.039869186046512 Channel: 2 
Note on, G3 key =  55;WhichDrum: C2 ; velocity: 0
@95580 , @5.039869186046512 Channel: 2 
Note on, E2 key =  40;WhichDrum: S ; velocity: 127
@95640 , @5.043032945736434 Channel: 2 
Note on, E2 key =  40;WhichDrum: S ; velocity: 0
@95640 , @5.043032945736434 Channel: 2 
Note on, E2 key =  40;WhichDrum: S ; velocity: 127
@95700 , @5.0461967054263575 Channel: 2 
Note on, E2 key =  40;WhichDrum: S ; velocity: 0
@95700 , @5.0461967054263575 Channel: 2 
Note on, E2 key =  40;WhichDrum: S ; velocity: 127
@95760 , @5.04936046511628 Channel: 2 
Note on, E2 key =  40;WhichDrum: S ; velocity: 0
@95760 , @5.04936046511628 Channel: 2 
Note on, G3 key =  55;WhichDrum: C2 ; velocity: 127
@95760 , @5.04936046511628 Channel: 2 
Note on, C4 key =  60;WhichDrum: B ; velocity: 127
@95820 , @5.052524224806202 Channel: 2 
Note on, G3 key =  55;WhichDrum: C2 ; velocity: 0
@95820 , @5.052524224806202 Channel: 2 
Note on, C4 key =  60;WhichDrum: B ; velocity: 0
@95820 , @5.052524224806202 Channel: 2 
Note on, D4 key =  62;WhichDrum: T2 ; velocity: 127
@95820 , @5.052524224806202 Channel: 2 
Note on, A3 key =  57;WhichDrum: T3 ; velocity: 127
@95880 , @5.055687984496124 Channel: 2 
Note on, D4 key =  62;WhichDrum: T2 ; velocity: 0
@95880 , @5.055687984496124 Channel: 2 
Note on, A3 key =  57;WhichDrum: T3 ; velocity: 0
@95880 , @5.055687984496124 Channel: 2 
Note on, G3 key =  55;WhichDrum: C2 ; velocity: 127
@95880 , @5.055687984496124 Channel: 2 
Note on, C4 key =  60;WhichDrum: B ; velocity: 127
@96000 , @5.062015503875969 Channel: 2 
Note on, G3 key =  55;WhichDrum: C2 ; velocity: 0
@96000 , @5.062015503875969 Channel: 2 
Note on, C4 key =  60;WhichDrum: B ; velocity: 0
@96000 , @5.062015503875969 Channel: 2 
Note on, D4 key =  62;WhichDrum: T2 ; velocity: 127
@96060 , @5.065179263565892 Channel: 2 
Note on, D4 key =  62;WhichDrum: T2 ; velocity: 0
@96060 , @5.065179263565892 Channel: 2 
Note on, C4 key =  60;WhichDrum: B ; velocity: 127
@96120 , @5.068343023255815 Channel: 2 
Note on, C4 key =  60;WhichDrum: B ; velocity: 0
@96120 , @5.068343023255815 Channel: 2 
Note on, A3 key =  57;WhichDrum: T3 ; velocity: 127
@96180 , @5.071506782945737 Channel: 2 
Note on, A3 key =  57;WhichDrum: T3 ; velocity: 0
@96180 , @5.071506782945737 Channel: 2 
Note on, G#3 key =  56;WhichDrum: B ; velocity: 127
@96240 , @5.074670542635659 Channel: 2 
Note on, G#3 key =  56;WhichDrum: B ; velocity: 0
@96240 , @5.074670542635659 Channel: 2 
Note on, G3 key =  55;WhichDrum: C2 ; velocity: 127
@96300 , @5.077834302325582 Channel: 2 
Note on, G3 key =  55;WhichDrum: C2 ; velocity: 0
@96300 , @5.077834302325582 Channel: 2 
Note on, E3 key =  52;WhichDrum: S ; velocity: 127
@96360 , @5.080998062015504 Channel: 2 
Note on, E3 key =  52;WhichDrum: S ; velocity: 0
@96360 , @5.080998062015504 Channel: 2 
Note on, D#3 key =  51;WhichDrum: T1 ; velocity: 127
@96420 , @5.084161821705427 Channel: 2 
Note on, D#3 key =  51;WhichDrum: T1 ; velocity: 0
@96420 , @5.084161821705427 Channel: 2 
Note on, D3 key =  50;WhichDrum: T2 ; velocity: 127
@96480 , @5.0873255813953495 Channel: 2 
Note on, D3 key =  50;WhichDrum: T2 ; velocity: 0
@96480 , @5.0873255813953495 Channel: 2 
Note on, C4 key =  60;WhichDrum: B ; velocity: 127
@96480 , @5.0873255813953495 Channel: 2 
Note on, G3 key =  55;WhichDrum: C2 ; velocity: 127
@96540 , @5.090489341085272 Channel: 2 
Note on, C4 key =  60;WhichDrum: B ; velocity: 0
@96540 , @5.090489341085272 Channel: 2 
Note on, G3 key =  55;WhichDrum: C2 ; velocity: 0
@96540 , @5.090489341085272 Channel: 2 
Note on, E2 key =  40;WhichDrum: S ; velocity: 127
@96600 , @5.093653100775194 Channel: 2 
Note on, E2 key =  40;WhichDrum: S ; velocity: 0
@96600 , @5.093653100775194 Channel: 2 
Note on, E2 key =  40;WhichDrum: S ; velocity: 127
@96660 , @5.0968168604651165 Channel: 2 
Note on, E2 key =  40;WhichDrum: S ; velocity: 0
@96660 , @5.0968168604651165 Channel: 2 
Note on, E2 key =  40;WhichDrum: S ; velocity: 127
@96720 , @5.09998062015504 Channel: 2 
Note on, E2 key =  40;WhichDrum: S ; velocity: 0
@96720 , @5.09998062015504 Channel: 2 
Note on, G3 key =  55;WhichDrum: C2 ; velocity: 127
@96720 , @5.09998062015504 Channel: 2 
Note on, C4 key =  60;WhichDrum: B ; velocity: 127
@96780 , @5.103144379844961 Channel: 2 
Note on, G3 key =  55;WhichDrum: C2 ; velocity: 0
@96780 , @5.103144379844961 Channel: 2 
Note on, C4 key =  60;WhichDrum: B ; velocity: 0
@96780 , @5.103144379844961 Channel: 2 
Note on, D4 key =  62;WhichDrum: T2 ; velocity: 127
@96780 , @5.103144379844961 Channel: 2 
Note on, A3 key =  57;WhichDrum: T3 ; velocity: 127
@96840 , @5.1063081395348835 Channel: 2 
Note on, D4 key =  62;WhichDrum: T2 ; velocity: 0
@96840 , @5.1063081395348835 Channel: 2 
Note on, A3 key =  57;WhichDrum: T3 ; velocity: 0
@96840 , @5.1063081395348835 Channel: 2 
Note on, G3 key =  55;WhichDrum: C2 ; velocity: 127
@96840 , @5.1063081395348835 Channel: 2 
Note on, C4 key =  60;WhichDrum: B ; velocity: 127
@96960 , @5.112635658914728 Channel: 2 
Note on, G3 key =  55;WhichDrum: C2 ; velocity: 0
@96960 , @5.112635658914728 Channel: 2 
Note on, C4 key =  60;WhichDrum: B ; velocity: 0
@96960 , @5.112635658914728 Channel: 2 
Note on, C4 key =  60;WhichDrum: B ; velocity: 127
@96960 , @5.112635658914728 Channel: 2 
Note on, G3 key =  55;WhichDrum: C2 ; velocity: 127
@97020 , @5.115799418604651 Channel: 2 
Note on, C4 key =  60;WhichDrum: B ; velocity: 0
@97020 , @5.115799418604651 Channel: 2 
Note on, G3 key =  55;WhichDrum: C2 ; velocity: 0
@97020 , @5.115799418604651 Channel: 2 
Note on, E2 key =  40;WhichDrum: S ; velocity: 127
@97080 , @5.118963178294574 Channel: 2 
Note on, E2 key =  40;WhichDrum: S ; velocity: 0
@97080 , @5.118963178294574 Channel: 2 
Note on, E2 key =  40;WhichDrum: S ; velocity: 127
@97140 , @5.122126937984496 Channel: 2 
Note on, E2 key =  40;WhichDrum: S ; velocity: 0
@97140 , @5.122126937984496 Channel: 2 
Note on, E2 key =  40;WhichDrum: S ; velocity: 127
@97200 , @5.125290697674418 Channel: 2 
Note on, E2 key =  40;WhichDrum: S ; velocity: 0
@97200 , @5.125290697674418 Channel: 2 
Note on, G3 key =  55;WhichDrum: C2 ; velocity: 127
@97200 , @5.125290697674418 Channel: 2 
Note on, C4 key =  60;WhichDrum: B ; velocity: 127
@97260 , @5.128454457364341 Channel: 2 
Note on, G3 key =  55;WhichDrum: C2 ; velocity: 0
@97260 , @5.128454457364341 Channel: 2 
Note on, C4 key =  60;WhichDrum: B ; velocity: 0
@97260 , @5.128454457364341 Channel: 2 
Note on, D4 key =  62;WhichDrum: T2 ; velocity: 127
@97260 , @5.128454457364341 Channel: 2 
Note on, A3 key =  57;WhichDrum: T3 ; velocity: 127
@97320 , @5.131618217054263 Channel: 2 
Note on, D4 key =  62;WhichDrum: T2 ; velocity: 0
@97320 , @5.131618217054263 Channel: 2 
Note on, A3 key =  57;WhichDrum: T3 ; velocity: 0
@97320 , @5.131618217054263 Channel: 2 
Note on, G3 key =  55;WhichDrum: C2 ; velocity: 127
@97320 , @5.131618217054263 Channel: 2 
Note on, C4 key =  60;WhichDrum: B ; velocity: 127
@97440 , @5.137945736434109 Channel: 2 
Note on, G3 key =  55;WhichDrum: C2 ; velocity: 0
@97440 , @5.137945736434109 Channel: 2 
Note on, C4 key =  60;WhichDrum: B ; velocity: 0
@97440 , @5.137945736434109 Channel: 2 
Note on, C4 key =  60;WhichDrum: B ; velocity: 127
@97440 , @5.137945736434109 Channel: 2 
Note on, G3 key =  55;WhichDrum: C2 ; velocity: 127
@97500 , @5.141109496124031 Channel: 2 
Note on, C4 key =  60;WhichDrum: B ; velocity: 0
@97500 , @5.141109496124031 Channel: 2 
Note on, G3 key =  55;WhichDrum: C2 ; velocity: 0
@97500 , @5.141109496124031 Channel: 2 
Note on, E2 key =  40;WhichDrum: S ; velocity: 127
@97560 , @5.144273255813953 Channel: 2 
Note on, E2 key =  40;WhichDrum: S ; velocity: 0
@97560 , @5.144273255813953 Channel: 2 
Note on, E2 key =  40;WhichDrum: S ; velocity: 127
@97620 , @5.147437015503876 Channel: 2 
Note on, E2 key =  40;WhichDrum: S ; velocity: 0
@97620 , @5.147437015503876 Channel: 2 
Note on, E2 key =  40;WhichDrum: S ; velocity: 127
@97680 , @5.150600775193799 Channel: 2 
Note on, E2 key =  40;WhichDrum: S ; velocity: 0
@97680 , @5.150600775193799 Channel: 2 
Note on, G3 key =  55;WhichDrum: C2 ; velocity: 127
@97680 , @5.150600775193799 Channel: 2 
Note on, C4 key =  60;WhichDrum: B ; velocity: 127
@97740 , @5.153764534883721 Channel: 2 
Note on, G3 key =  55;WhichDrum: C2 ; velocity: 0
@97740 , @5.153764534883721 Channel: 2 
Note on, C4 key =  60;WhichDrum: B ; velocity: 0
@97740 , @5.153764534883721 Channel: 2 
Note on, D4 key =  62;WhichDrum: T2 ; velocity: 127
@97740 , @5.153764534883721 Channel: 2 
Note on, A3 key =  57;WhichDrum: T3 ; velocity: 127
@97800 , @5.156928294573643 Channel: 2 
Note on, D4 key =  62;WhichDrum: T2 ; velocity: 0
@97800 , @5.156928294573643 Channel: 2 
Note on, A3 key =  57;WhichDrum: T3 ; velocity: 0
@97800 , @5.156928294573643 Channel: 2 
Note on, G3 key =  55;WhichDrum: C2 ; velocity: 127
@97800 , @5.156928294573643 Channel: 2 
Note on, C4 key =  60;WhichDrum: B ; velocity: 127
@97920 , @5.163255813953488 Channel: 2 
Note on, G3 key =  55;WhichDrum: C2 ; velocity: 0
@97920 , @5.163255813953488 Channel: 2 
Note on, C4 key =  60;WhichDrum: B ; velocity: 0
@97920 , @5.163255813953488 Channel: 2 
Note on, E4 key =  64;WhichDrum: S ; velocity: 127
@97980 , @5.16641957364341 Channel: 2 
Note on, E4 key =  64;WhichDrum: S ; velocity: 0
@97980 , @5.16641957364341 Channel: 2 
Note on, D4 key =  62;WhichDrum: T2 ; velocity: 127
@98040 , @5.169583333333334 Channel: 2 
Note on, D4 key =  62;WhichDrum: T2 ; velocity: 0
@98040 , @5.169583333333334 Channel: 2 
Note on, B3 key =  59;WhichDrum: T1 ; velocity: 127
@98100 , @5.172747093023256 Channel: 2 
Note on, B3 key =  59;WhichDrum: T1 ; velocity: 0
@98100 , @5.172747093023256 Channel: 2 
Note on, D4 key =  62;WhichDrum: T2 ; velocity: 127
@98160 , @5.175910852713178 Channel: 2 
Note on, D4 key =  62;WhichDrum: T2 ; velocity: 0
@98160 , @5.175910852713178 Channel: 2 
Note on, B3 key =  59;WhichDrum: T1 ; velocity: 127
@98220 , @5.179074612403101 Channel: 2 
Note on, B3 key =  59;WhichDrum: T1 ; velocity: 0
@98220 , @5.179074612403101 Channel: 2 
Note on, A#3 key =  58;WhichDrum: T2 ; velocity: 127
@98280 , @5.182238372093023 Channel: 2 
Note on, A#3 key =  58;WhichDrum: T2 ; velocity: 0
@98280 , @5.182238372093023 Channel: 2 
Note on, A3 key =  57;WhichDrum: T3 ; velocity: 127
@98340 , @5.185402131782945 Channel: 2 
Note on, A3 key =  57;WhichDrum: T3 ; velocity: 0
@98340 , @5.185402131782945 Channel: 2 
Note on, G3 key =  55;WhichDrum: C2 ; velocity: 127
@98400 , @5.1885658914728685 Channel: 2 
Note on, G3 key =  55;WhichDrum: C2 ; velocity: 0
@98400 , @5.1885658914728685 Channel: 2 
Note on, E4 key =  64;WhichDrum: S ; velocity: 127
@98460 , @5.191729651162791 Channel: 2 
Note on, E4 key =  64;WhichDrum: S ; velocity: 0
@98460 , @5.191729651162791 Channel: 2 
Note on, D4 key =  62;WhichDrum: T2 ; velocity: 127
@98520 , @5.194893410852713 Channel: 2 
Note on, D4 key =  62;WhichDrum: T2 ; velocity: 0
@98520 , @5.194893410852713 Channel: 2 
Note on, B3 key =  59;WhichDrum: T1 ; velocity: 127
@98580 , @5.1980571705426355 Channel: 2 
Note on, B3 key =  59;WhichDrum: T1 ; velocity: 0
@98580 , @5.1980571705426355 Channel: 2 
Note on, D4 key =  62;WhichDrum: T2 ; velocity: 127
@98640 , @5.201220930232558 Channel: 2 
Note on, D4 key =  62;WhichDrum: T2 ; velocity: 0
@98640 , @5.201220930232558 Channel: 2 
Note on, B3 key =  59;WhichDrum: T1 ; velocity: 127
@98700 , @5.204384689922481 Channel: 2 
Note on, B3 key =  59;WhichDrum: T1 ; velocity: 0
@98700 , @5.204384689922481 Channel: 2 
Note on, A#3 key =  58;WhichDrum: T2 ; velocity: 127
@98760 , @5.207548449612403 Channel: 2 
Note on, A#3 key =  58;WhichDrum: T2 ; velocity: 0
@98760 , @5.207548449612403 Channel: 2 
Note on, A3 key =  57;WhichDrum: T3 ; velocity: 127
@98820 , @5.210712209302326 Channel: 2 
Note on, A3 key =  57;WhichDrum: T3 ; velocity: 0
@98820 , @5.210712209302326 Channel: 2 
Note on, G3 key =  55;WhichDrum: C2 ; velocity: 127
@98880 , @5.213875968992248 Channel: 2 
Note on, G3 key =  55;WhichDrum: C2 ; velocity: 0
@98880 , @5.213875968992248 Channel: 2 
Note on, D4 key =  62;WhichDrum: T2 ; velocity: 127
@98880 , @5.213875968992248 Channel: 2 
Note on, G3 key =  55;WhichDrum: C2 ; velocity: 127
@99360 , @5.239186046511628 Channel: 2 
Note on, D4 key =  62;WhichDrum: T2 ; velocity: 0
@99360 , @5.239186046511628 Channel: 2 
Note on, G3 key =  55;WhichDrum: C2 ; velocity: 0
@99360 , @5.239186046511628 Channel: 2 
Note on, C#4 key =  61;WhichDrum: T3 ; velocity: 127
@99360 , @5.239186046511628 Channel: 2 
Note on, F#3 key =  54;WhichDrum: C1 ; velocity: 127
@99600 , @5.251841085271318 Channel: 2 
Note on, C#4 key =  61;WhichDrum: T3 ; velocity: 0
@99600 , @5.251841085271318 Channel: 2 
Note on, F#3 key =  54;WhichDrum: C1 ; velocity: 0
@99600 , @5.251841085271318 Channel: 2 
Note on, C4 key =  60;WhichDrum: B ; velocity: 127
@99600 , @5.251841085271318 Channel: 2 
Note on, F3 key =  53;WhichDrum: HH ; velocity: 127
@99840 , @5.264496124031008 Channel: 2 
Note on, C4 key =  60;WhichDrum: B ; velocity: 0
@99840 , @5.264496124031008 Channel: 2 
Note on, F3 key =  53;WhichDrum: HH ; velocity: 0
@99840 , @5.264496124031008 Channel: 2 
Note on, E2 key =  40;WhichDrum: S ; velocity: 127
@99900 , @5.26765988372093 Channel: 2 
Note on, E2 key =  40;WhichDrum: S ; velocity: 0
@99900 , @5.26765988372093 Channel: 2 
Note on, E2 key =  40;WhichDrum: S ; velocity: 127
@99960 , @5.270823643410853 Channel: 2 
Note on, E2 key =  40;WhichDrum: S ; velocity: 0
@99960 , @5.270823643410853 Channel: 2 
Note on, E2 key =  40;WhichDrum: S ; velocity: 127
@100020 , @5.273987403100775 Channel: 2 
Note on, E2 key =  40;WhichDrum: S ; velocity: 0
@100020 , @5.273987403100775 Channel: 2 
Note on, E2 key =  40;WhichDrum: S ; velocity: 127
@100080 , @5.277151162790698 Channel: 2 
Note on, E2 key =  40;WhichDrum: S ; velocity: 0
@100080 , @5.277151162790698 Channel: 2 
Note on, E2 key =  40;WhichDrum: S ; velocity: 127
@100140 , @5.2803149224806205 Channel: 2 
Note on, E2 key =  40;WhichDrum: S ; velocity: 0
@100140 , @5.2803149224806205 Channel: 2 
Note on, E2 key =  40;WhichDrum: S ; velocity: 127
@100200 , @5.283478682170543 Channel: 2 
Note on, E2 key =  40;WhichDrum: S ; velocity: 0
@100200 , @5.283478682170543 Channel: 2 
Note on, E2 key =  40;WhichDrum: S ; velocity: 127
@100260 , @5.286642441860465 Channel: 2 
Note on, E2 key =  40;WhichDrum: S ; velocity: 0
@100260 , @5.286642441860465 Channel: 2 
Note on, E2 key =  40;WhichDrum: S ; velocity: 127
@100320 , @5.2898062015503875 Channel: 2 
Note on, E2 key =  40;WhichDrum: S ; velocity: 0
@100320 , @5.2898062015503875 Channel: 2 
Note on, E2 key =  40;WhichDrum: S ; velocity: 127
@100380 , @5.29296996124031 Channel: 2 
Note on, E2 key =  40;WhichDrum: S ; velocity: 0
@100380 , @5.29296996124031 Channel: 2 
Note on, E2 key =  40;WhichDrum: S ; velocity: 127
@100440 , @5.296133720930233 Channel: 2 
Note on, E2 key =  40;WhichDrum: S ; velocity: 0
@100440 , @5.296133720930233 Channel: 2 
Note on, E2 key =  40;WhichDrum: S ; velocity: 127
@100500 , @5.299297480620155 Channel: 2 
Note on, E2 key =  40;WhichDrum: S ; velocity: 0
@100500 , @5.299297480620155 Channel: 2 
Note on, E2 key =  40;WhichDrum: S ; velocity: 127
@100560 , @5.302461240310078 Channel: 2 
Note on, E2 key =  40;WhichDrum: S ; velocity: 0
@100560 , @5.302461240310078 Channel: 2 
Note on, E2 key =  40;WhichDrum: S ; velocity: 127
@100620 , @5.305625 Channel: 2 
Note on, E2 key =  40;WhichDrum: S ; velocity: 0
@100620 , @5.305625 Channel: 2 
Note on, E2 key =  40;WhichDrum: S ; velocity: 127
@100680 , @5.308788759689922 Channel: 2 
Note on, E2 key =  40;WhichDrum: S ; velocity: 0
@100680 , @5.308788759689922 Channel: 2 
Note on, E2 key =  40;WhichDrum: S ; velocity: 127
@100740 , @5.311952519379846 Channel: 2 
Note on, E2 key =  40;WhichDrum: S ; velocity: 0
@100740 , @5.311952519379846 Channel: 2 
Note on, E2 key =  40;WhichDrum: S ; velocity: 127
@100800 , @5.315116279069768 Channel: 2 
Note on, E2 key =  40;WhichDrum: S ; velocity: 0
@100800 , @5.315116279069768 Channel: 2 
Note on, D4 key =  62;WhichDrum: T2 ; velocity: 127
@100800 , @5.315116279069768 Channel: 2 
Note on, G3 key =  55;WhichDrum: C2 ; velocity: 127
@101280 , @5.340426356589147 Channel: 2 
Note on, D4 key =  62;WhichDrum: T2 ; velocity: 0
@101280 , @5.340426356589147 Channel: 2 
Note on, G3 key =  55;WhichDrum: C2 ; velocity: 0
@101280 , @5.340426356589147 Channel: 2 
Note on, C#4 key =  61;WhichDrum: T3 ; velocity: 127
@101280 , @5.340426356589147 Channel: 2 
Note on, F#3 key =  54;WhichDrum: C1 ; velocity: 127
@101520 , @5.353081395348838 Channel: 2 
Note on, C#4 key =  61;WhichDrum: T3 ; velocity: 0
@101520 , @5.353081395348838 Channel: 2 
Note on, F#3 key =  54;WhichDrum: C1 ; velocity: 0
@101520 , @5.353081395348838 Channel: 2 
Note on, C4 key =  60;WhichDrum: B ; velocity: 127
@101520 , @5.353081395348838 Channel: 2 
Note on, F3 key =  53;WhichDrum: HH ; velocity: 127
@101760 , @5.365736434108528 Channel: 2 
Note on, C4 key =  60;WhichDrum: B ; velocity: 0
@101760 , @5.365736434108528 Channel: 2 
Note on, F3 key =  53;WhichDrum: HH ; velocity: 0
@101760 , @5.365736434108528 Channel: 2 
Note on, E2 key =  40;WhichDrum: S ; velocity: 127
@101820 , @5.36890019379845 Channel: 2 
Note on, E2 key =  40;WhichDrum: S ; velocity: 0
@101820 , @5.36890019379845 Channel: 2 
Note on, E2 key =  40;WhichDrum: S ; velocity: 127
@101880 , @5.3720639534883725 Channel: 2 
Note on, E2 key =  40;WhichDrum: S ; velocity: 0
@101880 , @5.3720639534883725 Channel: 2 
Note on, E2 key =  40;WhichDrum: S ; velocity: 127
@101940 , @5.375227713178295 Channel: 2 
Note on, E2 key =  40;WhichDrum: S ; velocity: 0
@101940 , @5.375227713178295 Channel: 2 
Note on, E2 key =  40;WhichDrum: S ; velocity: 127
@102000 , @5.378391472868217 Channel: 2 
Note on, E2 key =  40;WhichDrum: S ; velocity: 0
@102000 , @5.378391472868217 Channel: 2 
Note on, E2 key =  40;WhichDrum: S ; velocity: 127
@102060 , @5.3815552325581395 Channel: 2 
Note on, E2 key =  40;WhichDrum: S ; velocity: 0
@102060 , @5.3815552325581395 Channel: 2 
Note on, E2 key =  40;WhichDrum: S ; velocity: 127
@102120 , @5.384718992248063 Channel: 2 
Note on, E2 key =  40;WhichDrum: S ; velocity: 0
@102120 , @5.384718992248063 Channel: 2 
Note on, E2 key =  40;WhichDrum: S ; velocity: 127
@102180 , @5.387882751937985 Channel: 2 
Note on, E2 key =  40;WhichDrum: S ; velocity: 0
@102180 , @5.387882751937985 Channel: 2 
Note on, E2 key =  40;WhichDrum: S ; velocity: 127
@102240 , @5.391046511627907 Channel: 2 
Note on, E2 key =  40;WhichDrum: S ; velocity: 0
@102240 , @5.391046511627907 Channel: 2 
Note on, E2 key =  40;WhichDrum: S ; velocity: 127
@102300 , @5.39421027131783 Channel: 2 
Note on, E2 key =  40;WhichDrum: S ; velocity: 0
@102300 , @5.39421027131783 Channel: 2 
Note on, E2 key =  40;WhichDrum: S ; velocity: 127
@102360 , @5.397374031007752 Channel: 2 
Note on, E2 key =  40;WhichDrum: S ; velocity: 0
@102360 , @5.397374031007752 Channel: 2 
Note on, E2 key =  40;WhichDrum: S ; velocity: 127
@102420 , @5.400537790697674 Channel: 2 
Note on, E2 key =  40;WhichDrum: S ; velocity: 0
@102420 , @5.400537790697674 Channel: 2 
Note on, E2 key =  40;WhichDrum: S ; velocity: 127
@102480 , @5.403701550387598 Channel: 2 
Note on, E2 key =  40;WhichDrum: S ; velocity: 0
@102480 , @5.403701550387598 Channel: 2 
Note on, E2 key =  40;WhichDrum: S ; velocity: 127
@102540 , @5.40686531007752 Channel: 2 
Note on, E2 key =  40;WhichDrum: S ; velocity: 0
@102540 , @5.40686531007752 Channel: 2 
Note on, E2 key =  40;WhichDrum: S ; velocity: 127
@102600 , @5.410029069767442 Channel: 2 
Note on, E2 key =  40;WhichDrum: S ; velocity: 0
@102600 , @5.410029069767442 Channel: 2 
Note on, E2 key =  40;WhichDrum: S ; velocity: 127
@102660 , @5.413192829457365 Channel: 2 
Note on, E2 key =  40;WhichDrum: S ; velocity: 0
@102660 , @5.413192829457365 Channel: 2 
Note on, E2 key =  40;WhichDrum: S ; velocity: 127
@102720 , @5.416356589147287 Channel: 2 
Note on, E2 key =  40;WhichDrum: S ; velocity: 0
@102720 , @5.416356589147287 Channel: 2 
Note on, D4 key =  62;WhichDrum: T2 ; velocity: 127
@102720 , @5.416356589147287 Channel: 2 
Note on, G3 key =  55;WhichDrum: C2 ; velocity: 127
@103200 , @5.441666666666667 Channel: 2 
Note on, D4 key =  62;WhichDrum: T2 ; velocity: 0
@103200 , @5.441666666666667 Channel: 2 
Note on, G3 key =  55;WhichDrum: C2 ; velocity: 0
@103200 , @5.441666666666667 Channel: 2 
Note on, C#4 key =  61;WhichDrum: T3 ; velocity: 127
@103200 , @5.441666666666667 Channel: 2 
Note on, F#3 key =  54;WhichDrum: C1 ; velocity: 127
@103440 , @5.454321705426357 Channel: 2 
Note on, C#4 key =  61;WhichDrum: T3 ; velocity: 0
@103440 , @5.454321705426357 Channel: 2 
Note on, F#3 key =  54;WhichDrum: C1 ; velocity: 0
@103440 , @5.454321705426357 Channel: 2 
Note on, C4 key =  60;WhichDrum: B ; velocity: 127
@103440 , @5.454321705426357 Channel: 2 
Note on, F3 key =  53;WhichDrum: HH ; velocity: 127
@103680 , @5.466976744186047 Channel: 2 
Note on, C4 key =  60;WhichDrum: B ; velocity: 0
@103680 , @5.466976744186047 Channel: 2 
Note on, F3 key =  53;WhichDrum: HH ; velocity: 0
@103680 , @5.466976744186047 Channel: 2 
Note on, E2 key =  40;WhichDrum: S ; velocity: 127
@103740 , @5.470140503875969 Channel: 2 
Note on, E2 key =  40;WhichDrum: S ; velocity: 0
@103740 , @5.470140503875969 Channel: 2 
Note on, E2 key =  40;WhichDrum: S ; velocity: 127
@103800 , @5.473304263565892 Channel: 2 
Note on, E2 key =  40;WhichDrum: S ; velocity: 0
@103800 , @5.473304263565892 Channel: 2 
Note on, E2 key =  40;WhichDrum: S ; velocity: 127
@103860 , @5.476468023255815 Channel: 2 
Note on, E2 key =  40;WhichDrum: S ; velocity: 0
@103860 , @5.476468023255815 Channel: 2 
Note on, E2 key =  40;WhichDrum: S ; velocity: 127
@103920 , @5.479631782945737 Channel: 2 
Note on, E2 key =  40;WhichDrum: S ; velocity: 0
@103920 , @5.479631782945737 Channel: 2 
Note on, E2 key =  40;WhichDrum: S ; velocity: 127
@103980 , @5.482795542635659 Channel: 2 
Note on, E2 key =  40;WhichDrum: S ; velocity: 0
@103980 , @5.482795542635659 Channel: 2 
Note on, E2 key =  40;WhichDrum: S ; velocity: 127
@104040 , @5.485959302325582 Channel: 2 
Note on, E2 key =  40;WhichDrum: S ; velocity: 0
@104040 , @5.485959302325582 Channel: 2 
Note on, E2 key =  40;WhichDrum: S ; velocity: 127
@104100 , @5.489123062015504 Channel: 2 
Note on, E2 key =  40;WhichDrum: S ; velocity: 0
@104100 , @5.489123062015504 Channel: 2 
Note on, E2 key =  40;WhichDrum: S ; velocity: 127
@104160 , @5.492286821705427 Channel: 2 
Note on, E2 key =  40;WhichDrum: S ; velocity: 0
@104160 , @5.492286821705427 Channel: 2 
Note on, E2 key =  40;WhichDrum: S ; velocity: 127
@104220 , @5.49545058139535 Channel: 2 
Note on, E2 key =  40;WhichDrum: S ; velocity: 0
@104220 , @5.49545058139535 Channel: 2 
Note on, E2 key =  40;WhichDrum: S ; velocity: 127
@104280 , @5.498614341085272 Channel: 2 
Note on, E2 key =  40;WhichDrum: S ; velocity: 0
@104280 , @5.498614341085272 Channel: 2 
Note on, E2 key =  40;WhichDrum: S ; velocity: 127
@104340 , @5.501778100775194 Channel: 2 
Note on, E2 key =  40;WhichDrum: S ; velocity: 0
@104340 , @5.501778100775194 Channel: 2 
Note on, E2 key =  40;WhichDrum: S ; velocity: 127
@104400 , @5.504941860465117 Channel: 2 
Note on, E2 key =  40;WhichDrum: S ; velocity: 0
@104400 , @5.504941860465117 Channel: 2 
Note on, E2 key =  40;WhichDrum: S ; velocity: 127
@104460 , @5.508105620155039 Channel: 2 
Note on, E2 key =  40;WhichDrum: S ; velocity: 0
@104460 , @5.508105620155039 Channel: 2 
Note on, E2 key =  40;WhichDrum: S ; velocity: 127
@104520 , @5.511269379844961 Channel: 2 
Note on, E2 key =  40;WhichDrum: S ; velocity: 0
@104520 , @5.511269379844961 Channel: 2 
Note on, E2 key =  40;WhichDrum: S ; velocity: 127
@104580 , @5.514433139534884 Channel: 2 
Note on, E2 key =  40;WhichDrum: S ; velocity: 0
@104580 , @5.514433139534884 Channel: 2 
Note on, E2 key =  40;WhichDrum: S ; velocity: 127
@104640 , @5.517596899224806 Channel: 2 
Note on, E2 key =  40;WhichDrum: S ; velocity: 0
@104640 , @5.517596899224806 Channel: 2 
Note on, D4 key =  62;WhichDrum: T2 ; velocity: 127
@104640 , @5.517596899224806 Channel: 2 
Note on, G3 key =  55;WhichDrum: C2 ; velocity: 127
@105120 , @5.542906976744186 Channel: 2 
Note on, D4 key =  62;WhichDrum: T2 ; velocity: 0
@105120 , @5.542906976744186 Channel: 2 
Note on, G3 key =  55;WhichDrum: C2 ; velocity: 0
@105120 , @5.542906976744186 Channel: 2 
Note on, C#4 key =  61;WhichDrum: T3 ; velocity: 127
@105120 , @5.542906976744186 Channel: 2 
Note on, F#3 key =  54;WhichDrum: C1 ; velocity: 127
@105360 , @5.555562015503876 Channel: 2 
Note on, C#4 key =  61;WhichDrum: T3 ; velocity: 0
@105360 , @5.555562015503876 Channel: 2 
Note on, F#3 key =  54;WhichDrum: C1 ; velocity: 0
@105360 , @5.555562015503876 Channel: 2 
Note on, C4 key =  60;WhichDrum: B ; velocity: 127
@105360 , @5.555562015503876 Channel: 2 
Note on, F3 key =  53;WhichDrum: HH ; velocity: 127
@105600 , @5.568217054263566 Channel: 2 
Note on, C4 key =  60;WhichDrum: B ; velocity: 0
@105600 , @5.568217054263566 Channel: 2 
Note on, F3 key =  53;WhichDrum: HH ; velocity: 0
@105600 , @5.568217054263566 Channel: 2 
Note on, B3 key =  59;WhichDrum: T1 ; velocity: 127
@105600 , @5.568217054263566 Channel: 2 
Note on, E3 key =  52;WhichDrum: S ; velocity: 127
@105660 , @5.571380813953488 Channel: 2 
Note on, B3 key =  59;WhichDrum: T1 ; velocity: 0
@105660 , @5.571380813953488 Channel: 2 
Note on, E3 key =  52;WhichDrum: S ; velocity: 0
@105660 , @5.571380813953488 Channel: 2 
Note on, E2 key =  40;WhichDrum: S ; velocity: 127
@105720 , @5.5745445736434105 Channel: 2 
Note on, E2 key =  40;WhichDrum: S ; velocity: 0
@105720 , @5.5745445736434105 Channel: 2 
Note on, E2 key =  40;WhichDrum: S ; velocity: 127
@105780 , @5.577708333333334 Channel: 2 
Note on, E2 key =  40;WhichDrum: S ; velocity: 0
@105780 , @5.577708333333334 Channel: 2 
Note on, E2 key =  40;WhichDrum: S ; velocity: 127
@105840 , @5.580872093023256 Channel: 2 
Note on, E2 key =  40;WhichDrum: S ; velocity: 0
@105840 , @5.580872093023256 Channel: 2 
Note on, E2 key =  40;WhichDrum: S ; velocity: 127
@105900 , @5.584035852713178 Channel: 2 
Note on, E2 key =  40;WhichDrum: S ; velocity: 0
@105900 , @5.584035852713178 Channel: 2 
Note on, E2 key =  40;WhichDrum: S ; velocity: 127
@105960 , @5.587199612403101 Channel: 2 
Note on, E2 key =  40;WhichDrum: S ; velocity: 0
@105960 , @5.587199612403101 Channel: 2 
Note on, E2 key =  40;WhichDrum: S ; velocity: 127
@106020 , @5.590363372093023 Channel: 2 
Note on, E2 key =  40;WhichDrum: S ; velocity: 0
@106020 , @5.590363372093023 Channel: 2 
Note on, E2 key =  40;WhichDrum: S ; velocity: 127
@106080 , @5.593527131782945 Channel: 2 
Note on, E2 key =  40;WhichDrum: S ; velocity: 0
@106080 , @5.593527131782945 Channel: 2 
Note on, E2 key =  40;WhichDrum: S ; velocity: 127
@106140 , @5.596690891472869 Channel: 2 
Note on, E2 key =  40;WhichDrum: S ; velocity: 0
@106140 , @5.596690891472869 Channel: 2 
Note on, E2 key =  40;WhichDrum: S ; velocity: 127
@106200 , @5.599854651162791 Channel: 2 
Note on, E2 key =  40;WhichDrum: S ; velocity: 0
@106200 , @5.599854651162791 Channel: 2 
Note on, E2 key =  40;WhichDrum: S ; velocity: 127
@106260 , @5.603018410852713 Channel: 2 
Note on, E2 key =  40;WhichDrum: S ; velocity: 0
@106260 , @5.603018410852713 Channel: 2 
Note on, E2 key =  40;WhichDrum: S ; velocity: 127
@106320 , @5.606182170542636 Channel: 2 
Note on, E2 key =  40;WhichDrum: S ; velocity: 0
@106320 , @5.606182170542636 Channel: 2 
Note on, E2 key =  40;WhichDrum: S ; velocity: 127
@106380 , @5.609345930232558 Channel: 2 
Note on, E2 key =  40;WhichDrum: S ; velocity: 0
@106380 , @5.609345930232558 Channel: 2 
Note on, E2 key =  40;WhichDrum: S ; velocity: 127
@106440 , @5.61250968992248 Channel: 2 
Note on, E2 key =  40;WhichDrum: S ; velocity: 0
@106440 , @5.61250968992248 Channel: 2 
Note on, E2 key =  40;WhichDrum: S ; velocity: 127
@106500 , @5.6156734496124034 Channel: 2 
Note on, E2 key =  40;WhichDrum: S ; velocity: 0
@106500 , @5.6156734496124034 Channel: 2 
Note on, D4 key =  62;WhichDrum: T2 ; velocity: 127
@106500 , @5.6156734496124034 Channel: 2 
Note on, G3 key =  55;WhichDrum: C2 ; velocity: 127
@106560 , @5.618837209302326 Channel: 2 
Note on, D4 key =  62;WhichDrum: T2 ; velocity: 0
@106560 , @5.618837209302326 Channel: 2 
Note on, G3 key =  55;WhichDrum: C2 ; velocity: 0
@106560 , @5.618837209302326 Channel: 2 
Note on, C#4 key =  61;WhichDrum: T3 ; velocity: 127
@106560 , @5.618837209302326 Channel: 2 
Note on, F#3 key =  54;WhichDrum: C1 ; velocity: 127
@106620 , @5.622000968992248 Channel: 2 
Note on, C#4 key =  61;WhichDrum: T3 ; velocity: 0
@106620 , @5.622000968992248 Channel: 2 
Note on, F#3 key =  54;WhichDrum: C1 ; velocity: 0
@106620 , @5.622000968992248 Channel: 2 
Note on, E2 key =  40;WhichDrum: S ; velocity: 127
@106680 , @5.62516472868217 Channel: 2 
Note on, E2 key =  40;WhichDrum: S ; velocity: 0
@106680 , @5.62516472868217 Channel: 2 
Note on, E2 key =  40;WhichDrum: S ; velocity: 127
@106740 , @5.628328488372093 Channel: 2 
Note on, E2 key =  40;WhichDrum: S ; velocity: 0
@106740 , @5.628328488372093 Channel: 2 
Note on, F#3 key =  54;WhichDrum: C1 ; velocity: 127
@106740 , @5.628328488372093 Channel: 2 
Note on, C#4 key =  61;WhichDrum: T3 ; velocity: 127
@106800 , @5.631492248062016 Channel: 2 
Note on, F#3 key =  54;WhichDrum: C1 ; velocity: 0
@106800 , @5.631492248062016 Channel: 2 
Note on, C#4 key =  61;WhichDrum: T3 ; velocity: 0
@106800 , @5.631492248062016 Channel: 2 
Note on, F3 key =  53;WhichDrum: HH ; velocity: 127
@106800 , @5.631492248062016 Channel: 2 
Note on, C4 key =  60;WhichDrum: B ; velocity: 127
@106860 , @5.634656007751938 Channel: 2 
Note on, F3 key =  53;WhichDrum: HH ; velocity: 0
@106860 , @5.634656007751938 Channel: 2 
Note on, C4 key =  60;WhichDrum: B ; velocity: 0
@106860 , @5.634656007751938 Channel: 2 
Note on, E2 key =  40;WhichDrum: S ; velocity: 127
@106920 , @5.637819767441861 Channel: 2 
Note on, E2 key =  40;WhichDrum: S ; velocity: 0
@106920 , @5.637819767441861 Channel: 2 
Note on, E2 key =  40;WhichDrum: S ; velocity: 127
@106980 , @5.640983527131783 Channel: 2 
Note on, E2 key =  40;WhichDrum: S ; velocity: 0
@106980 , @5.640983527131783 Channel: 2 
Note on, C4 key =  60;WhichDrum: B ; velocity: 127
@106980 , @5.640983527131783 Channel: 2 
Note on, F3 key =  53;WhichDrum: HH ; velocity: 127
@107040 , @5.644147286821705 Channel: 2 
Note on, C4 key =  60;WhichDrum: B ; velocity: 0
@107040 , @5.644147286821705 Channel: 2 
Note on, F3 key =  53;WhichDrum: HH ; velocity: 0
@107040 , @5.644147286821705 Channel: 2 
Note on, B2 key =  47;WhichDrum: T1 ; velocity: 127
@107040 , @5.644147286821705 Channel: 2 
Note on, E2 key =  40;WhichDrum: S ; velocity: 127
@107100 , @5.647311046511628 Channel: 2 
Note on, B2 key =  47;WhichDrum: T1 ; velocity: 0
@107100 , @5.647311046511628 Channel: 2 
Note on, E2 key =  40;WhichDrum: S ; velocity: 0
@107100 , @5.647311046511628 Channel: 2 
Note on, E2 key =  40;WhichDrum: S ; velocity: 127
@107160 , @5.650474806201551 Channel: 2 
Note on, E2 key =  40;WhichDrum: S ; velocity: 0
@107160 , @5.650474806201551 Channel: 2 
Note on, E2 key =  40;WhichDrum: S ; velocity: 127
@107220 , @5.653638565891473 Channel: 2 
Note on, E2 key =  40;WhichDrum: S ; velocity: 0
@107220 , @5.653638565891473 Channel: 2 
Note on, E2 key =  40;WhichDrum: S ; velocity: 127
@107280 , @5.6568023255813955 Channel: 2 
Note on, E2 key =  40;WhichDrum: S ; velocity: 0
@107280 , @5.6568023255813955 Channel: 2 
Note on, E2 key =  40;WhichDrum: S ; velocity: 127
@107340 , @5.659966085271318 Channel: 2 
Note on, E2 key =  40;WhichDrum: S ; velocity: 0
@107340 , @5.659966085271318 Channel: 2 
Note on, E2 key =  40;WhichDrum: S ; velocity: 127
@107400 , @5.66312984496124 Channel: 2 
Note on, E2 key =  40;WhichDrum: S ; velocity: 0
@107400 , @5.66312984496124 Channel: 2 
Note on, E2 key =  40;WhichDrum: S ; velocity: 127
@107460 , @5.6662936046511625 Channel: 2 
Note on, E2 key =  40;WhichDrum: S ; velocity: 0
@107460 , @5.6662936046511625 Channel: 2 
Note on, G3 key =  55;WhichDrum: C2 ; velocity: 127
@107460 , @5.6662936046511625 Channel: 2 
Note on, D4 key =  62;WhichDrum: T2 ; velocity: 127
@107520 , @5.669457364341086 Channel: 2 
Note on, G3 key =  55;WhichDrum: C2 ; velocity: 0
@107520 , @5.669457364341086 Channel: 2 
Note on, D4 key =  62;WhichDrum: T2 ; velocity: 0
@107520 , @5.669457364341086 Channel: 2 
Note on, C#4 key =  61;WhichDrum: T3 ; velocity: 127
@107520 , @5.669457364341086 Channel: 2 
Note on, F#3 key =  54;WhichDrum: C1 ; velocity: 127
@107580 , @5.672621124031008 Channel: 2 
Note on, C#4 key =  61;WhichDrum: T3 ; velocity: 0
@107580 , @5.672621124031008 Channel: 2 
Note on, F#3 key =  54;WhichDrum: C1 ; velocity: 0
@107580 , @5.672621124031008 Channel: 2 
Note on, E2 key =  40;WhichDrum: S ; velocity: 127
@107640 , @5.67578488372093 Channel: 2 
Note on, E2 key =  40;WhichDrum: S ; velocity: 0
@107640 , @5.67578488372093 Channel: 2 
Note on, E2 key =  40;WhichDrum: S ; velocity: 127
@107700 , @5.678948643410853 Channel: 2 
Note on, E2 key =  40;WhichDrum: S ; velocity: 0
@107700 , @5.678948643410853 Channel: 2 
Note on, F#3 key =  54;WhichDrum: C1 ; velocity: 127
@107700 , @5.678948643410853 Channel: 2 
Note on, C#4 key =  61;WhichDrum: T3 ; velocity: 127
@107760 , @5.682112403100775 Channel: 2 
Note on, F#3 key =  54;WhichDrum: C1 ; velocity: 0
@107760 , @5.682112403100775 Channel: 2 
Note on, C#4 key =  61;WhichDrum: T3 ; velocity: 0
@107760 , @5.682112403100775 Channel: 2 
Note on, A3 key =  57;WhichDrum: T3 ; velocity: 127
@107760 , @5.682112403100775 Channel: 2 
Note on, D3 key =  50;WhichDrum: T2 ; velocity: 127
@107820 , @5.685276162790698 Channel: 2 
Note on, A3 key =  57;WhichDrum: T3 ; velocity: 0
@107820 , @5.685276162790698 Channel: 2 
Note on, D3 key =  50;WhichDrum: T2 ; velocity: 0
@107820 , @5.685276162790698 Channel: 2 
Note on, E2 key =  40;WhichDrum: S ; velocity: 127
@107880 , @5.688439922480621 Channel: 2 
Note on, E2 key =  40;WhichDrum: S ; velocity: 0
@107880 , @5.688439922480621 Channel: 2 
Note on, E2 key =  40;WhichDrum: S ; velocity: 127
@107940 , @5.691603682170543 Channel: 2 
Note on, E2 key =  40;WhichDrum: S ; velocity: 0
@107940 , @5.691603682170543 Channel: 2 
Note on, D3 key =  50;WhichDrum: T2 ; velocity: 127
@107940 , @5.691603682170543 Channel: 2 
Note on, A3 key =  57;WhichDrum: T3 ; velocity: 127
@108000 , @5.694767441860465 Channel: 2 
Note on, D3 key =  50;WhichDrum: T2 ; velocity: 0
@108000 , @5.694767441860465 Channel: 2 
Note on, A3 key =  57;WhichDrum: T3 ; velocity: 0
@108000 , @5.694767441860465 Channel: 2 
Note on, B2 key =  47;WhichDrum: T1 ; velocity: 127
@108000 , @5.694767441860465 Channel: 2 
Note on, E2 key =  40;WhichDrum: S ; velocity: 127
@108060 , @5.697931201550388 Channel: 2 
Note on, B2 key =  47;WhichDrum: T1 ; velocity: 0
@108060 , @5.697931201550388 Channel: 2 
Note on, E2 key =  40;WhichDrum: S ; velocity: 0
@108060 , @5.697931201550388 Channel: 2 
Note on, E2 key =  40;WhichDrum: S ; velocity: 127
@108120 , @5.70109496124031 Channel: 2 
Note on, E2 key =  40;WhichDrum: S ; velocity: 0
@108120 , @5.70109496124031 Channel: 2 
Note on, E2 key =  40;WhichDrum: S ; velocity: 127
@108180 , @5.704258720930233 Channel: 2 
Note on, E2 key =  40;WhichDrum: S ; velocity: 0
@108180 , @5.704258720930233 Channel: 2 
Note on, E2 key =  40;WhichDrum: S ; velocity: 127
@108240 , @5.7074224806201554 Channel: 2 
Note on, E2 key =  40;WhichDrum: S ; velocity: 0
@108240 , @5.7074224806201554 Channel: 2 
Note on, E2 key =  40;WhichDrum: S ; velocity: 127
@108300 , @5.710586240310078 Channel: 2 
Note on, E2 key =  40;WhichDrum: S ; velocity: 0
@108300 , @5.710586240310078 Channel: 2 
Note on, E2 key =  40;WhichDrum: S ; velocity: 127
@108360 , @5.71375 Channel: 2 
Note on, E2 key =  40;WhichDrum: S ; velocity: 0
@108360 , @5.71375 Channel: 2 
Note on, E2 key =  40;WhichDrum: S ; velocity: 127
@108420 , @5.716913759689922 Channel: 2 
Note on, E2 key =  40;WhichDrum: S ; velocity: 0
@108420 , @5.716913759689922 Channel: 2 
Note on, G3 key =  55;WhichDrum: C2 ; velocity: 127
@108420 , @5.716913759689922 Channel: 2 
Note on, D4 key =  62;WhichDrum: T2 ; velocity: 127
@108480 , @5.720077519379845 Channel: 2 
Note on, G3 key =  55;WhichDrum: C2 ; velocity: 0
@108480 , @5.720077519379845 Channel: 2 
Note on, D4 key =  62;WhichDrum: T2 ; velocity: 0
@108480 , @5.720077519379845 Channel: 2 
Note on, C#4 key =  61;WhichDrum: T3 ; velocity: 127
@108480 , @5.720077519379845 Channel: 2 
Note on, F#3 key =  54;WhichDrum: C1 ; velocity: 127
@108540 , @5.723241279069768 Channel: 2 
Note on, C#4 key =  61;WhichDrum: T3 ; velocity: 0
@108540 , @5.723241279069768 Channel: 2 
Note on, F#3 key =  54;WhichDrum: C1 ; velocity: 0
@108540 , @5.723241279069768 Channel: 2 
Note on, E2 key =  40;WhichDrum: S ; velocity: 127
@108600 , @5.72640503875969 Channel: 2 
Note on, E2 key =  40;WhichDrum: S ; velocity: 0
@108600 , @5.72640503875969 Channel: 2 
Note on, E2 key =  40;WhichDrum: S ; velocity: 127
@108660 , @5.729568798449613 Channel: 2 
Note on, E2 key =  40;WhichDrum: S ; velocity: 0
@108660 , @5.729568798449613 Channel: 2 
Note on, F#3 key =  54;WhichDrum: C1 ; velocity: 127
@108660 , @5.729568798449613 Channel: 2 
Note on, C#4 key =  61;WhichDrum: T3 ; velocity: 127
@108720 , @5.732732558139535 Channel: 2 
Note on, F#3 key =  54;WhichDrum: C1 ; velocity: 0
@108720 , @5.732732558139535 Channel: 2 
Note on, C#4 key =  61;WhichDrum: T3 ; velocity: 0
@108720 , @5.732732558139535 Channel: 2 
Note on, F3 key =  53;WhichDrum: HH ; velocity: 127
@108720 , @5.732732558139535 Channel: 2 
Note on, C4 key =  60;WhichDrum: B ; velocity: 127
@108780 , @5.735896317829457 Channel: 2 
Note on, F3 key =  53;WhichDrum: HH ; velocity: 0
@108780 , @5.735896317829457 Channel: 2 
Note on, C4 key =  60;WhichDrum: B ; velocity: 0
@108780 , @5.735896317829457 Channel: 2 
Note on, E2 key =  40;WhichDrum: S ; velocity: 127
@108840 , @5.7390600775193805 Channel: 2 
Note on, E2 key =  40;WhichDrum: S ; velocity: 0
@108840 , @5.7390600775193805 Channel: 2 
Note on, E2 key =  40;WhichDrum: S ; velocity: 127
@108900 , @5.742223837209303 Channel: 2 
Note on, E2 key =  40;WhichDrum: S ; velocity: 0
@108900 , @5.742223837209303 Channel: 2 
Note on, C4 key =  60;WhichDrum: B ; velocity: 127
@108900 , @5.742223837209303 Channel: 2 
Note on, F3 key =  53;WhichDrum: HH ; velocity: 127
@108960 , @5.745387596899225 Channel: 2 
Note on, C4 key =  60;WhichDrum: B ; velocity: 0
@108960 , @5.745387596899225 Channel: 2 
Note on, F3 key =  53;WhichDrum: HH ; velocity: 0
@108960 , @5.745387596899225 Channel: 2 
Note on, B2 key =  47;WhichDrum: T1 ; velocity: 127
@108960 , @5.745387596899225 Channel: 2 
Note on, E2 key =  40;WhichDrum: S ; velocity: 127
@109020 , @5.7485513565891475 Channel: 2 
Note on, B2 key =  47;WhichDrum: T1 ; velocity: 0
@109020 , @5.7485513565891475 Channel: 2 
Note on, E2 key =  40;WhichDrum: S ; velocity: 0
@109020 , @5.7485513565891475 Channel: 2 
Note on, E2 key =  40;WhichDrum: S ; velocity: 127
@109080 , @5.75171511627907 Channel: 2 
Note on, E2 key =  40;WhichDrum: S ; velocity: 0
@109080 , @5.75171511627907 Channel: 2 
Note on, E2 key =  40;WhichDrum: S ; velocity: 127
@109140 , @5.754878875968992 Channel: 2 
Note on, E2 key =  40;WhichDrum: S ; velocity: 0
@109140 , @5.754878875968992 Channel: 2 
Note on, E2 key =  40;WhichDrum: S ; velocity: 127
@109200 , @5.758042635658915 Channel: 2 
Note on, E2 key =  40;WhichDrum: S ; velocity: 0
@109200 , @5.758042635658915 Channel: 2 
Note on, E2 key =  40;WhichDrum: S ; velocity: 127
@109260 , @5.761206395348838 Channel: 2 
Note on, E2 key =  40;WhichDrum: S ; velocity: 0
@109260 , @5.761206395348838 Channel: 2 
Note on, E2 key =  40;WhichDrum: S ; velocity: 127
@109320 , @5.76437015503876 Channel: 2 
Note on, E2 key =  40;WhichDrum: S ; velocity: 0
@109320 , @5.76437015503876 Channel: 2 
Note on, E2 key =  40;WhichDrum: S ; velocity: 127
@109380 , @5.767533914728682 Channel: 2 
Note on, E2 key =  40;WhichDrum: S ; velocity: 0
@109380 , @5.767533914728682 Channel: 2 
Note on, G3 key =  55;WhichDrum: C2 ; velocity: 127
@109380 , @5.767533914728682 Channel: 2 
Note on, D4 key =  62;WhichDrum: T2 ; velocity: 127
@109440 , @5.770697674418605 Channel: 2 
Note on, G3 key =  55;WhichDrum: C2 ; velocity: 0
@109440 , @5.770697674418605 Channel: 2 
Note on, D4 key =  62;WhichDrum: T2 ; velocity: 0
@109440 , @5.770697674418605 Channel: 2 
Note on, C#4 key =  61;WhichDrum: T3 ; velocity: 127
@109440 , @5.770697674418605 Channel: 2 
Note on, F#3 key =  54;WhichDrum: C1 ; velocity: 127
@109500 , @5.773861434108527 Channel: 2 
Note on, C#4 key =  61;WhichDrum: T3 ; velocity: 0
@109500 , @5.773861434108527 Channel: 2 
Note on, F#3 key =  54;WhichDrum: C1 ; velocity: 0
@109500 , @5.773861434108527 Channel: 2 
Note on, E2 key =  40;WhichDrum: S ; velocity: 127
@109560 , @5.77702519379845 Channel: 2 
Note on, E2 key =  40;WhichDrum: S ; velocity: 0
@109560 , @5.77702519379845 Channel: 2 
Note on, E2 key =  40;WhichDrum: S ; velocity: 127
@109620 , @5.780188953488373 Channel: 2 
Note on, E2 key =  40;WhichDrum: S ; velocity: 0
@109620 , @5.780188953488373 Channel: 2 
Note on, F#3 key =  54;WhichDrum: C1 ; velocity: 127
@109620 , @5.780188953488373 Channel: 2 
Note on, C#4 key =  61;WhichDrum: T3 ; velocity: 127
@109680 , @5.783352713178295 Channel: 2 
Note on, F#3 key =  54;WhichDrum: C1 ; velocity: 0
@109680 , @5.783352713178295 Channel: 2 
Note on, C#4 key =  61;WhichDrum: T3 ; velocity: 0
@109680 , @5.783352713178295 Channel: 2 
Note on, A3 key =  57;WhichDrum: T3 ; velocity: 127
@109680 , @5.783352713178295 Channel: 2 
Note on, D3 key =  50;WhichDrum: T2 ; velocity: 127
@109740 , @5.786516472868217 Channel: 2 
Note on, A3 key =  57;WhichDrum: T3 ; velocity: 0
@109740 , @5.786516472868217 Channel: 2 
Note on, D3 key =  50;WhichDrum: T2 ; velocity: 0
@109740 , @5.786516472868217 Channel: 2 
Note on, E2 key =  40;WhichDrum: S ; velocity: 127
@109800 , @5.78968023255814 Channel: 2 
Note on, E2 key =  40;WhichDrum: S ; velocity: 0
@109800 , @5.78968023255814 Channel: 2 
Note on, E2 key =  40;WhichDrum: S ; velocity: 127
@109860 , @5.792843992248063 Channel: 2 
Note on, E2 key =  40;WhichDrum: S ; velocity: 0
@109860 , @5.792843992248063 Channel: 2 
Note on, D3 key =  50;WhichDrum: T2 ; velocity: 127
@109860 , @5.792843992248063 Channel: 2 
Note on, A3 key =  57;WhichDrum: T3 ; velocity: 127
@109920 , @5.796007751937985 Channel: 2 
Note on, D3 key =  50;WhichDrum: T2 ; velocity: 0
@109920 , @5.796007751937985 Channel: 2 
Note on, A3 key =  57;WhichDrum: T3 ; velocity: 0
@109920 , @5.796007751937985 Channel: 2 
Note on, B2 key =  47;WhichDrum: T1 ; velocity: 127
@109920 , @5.796007751937985 Channel: 2 
Note on, E2 key =  40;WhichDrum: S ; velocity: 127
@109980 , @5.7991715116279074 Channel: 2 
Note on, B2 key =  47;WhichDrum: T1 ; velocity: 0
@109980 , @5.7991715116279074 Channel: 2 
Note on, E2 key =  40;WhichDrum: S ; velocity: 0
@109980 , @5.7991715116279074 Channel: 2 
Note on, E2 key =  40;WhichDrum: S ; velocity: 127
@110040 , @5.80233527131783 Channel: 2 
Note on, E2 key =  40;WhichDrum: S ; velocity: 0
@110040 , @5.80233527131783 Channel: 2 
Note on, E2 key =  40;WhichDrum: S ; velocity: 127
@110100 , @5.805499031007752 Channel: 2 
Note on, E2 key =  40;WhichDrum: S ; velocity: 0
@110100 , @5.805499031007752 Channel: 2 
Note on, E2 key =  40;WhichDrum: S ; velocity: 127
@110160 , @5.808662790697674 Channel: 2 
Note on, E2 key =  40;WhichDrum: S ; velocity: 0
@110160 , @5.808662790697674 Channel: 2 
Note on, E2 key =  40;WhichDrum: S ; velocity: 127
@110220 , @5.811826550387598 Channel: 2 
Note on, E2 key =  40;WhichDrum: S ; velocity: 0
@110220 , @5.811826550387598 Channel: 2 
Note on, E2 key =  40;WhichDrum: S ; velocity: 127
@110280 , @5.81499031007752 Channel: 2 
Note on, E2 key =  40;WhichDrum: S ; velocity: 0
@110280 , @5.81499031007752 Channel: 2 
Note on, E2 key =  40;WhichDrum: S ; velocity: 127
@110340 , @5.818154069767442 Channel: 2 
Note on, E2 key =  40;WhichDrum: S ; velocity: 0
@110340 , @5.818154069767442 Channel: 2 
Note on, G3 key =  55;WhichDrum: C2 ; velocity: 127
@110340 , @5.818154069767442 Channel: 2 
Note on, D4 key =  62;WhichDrum: T2 ; velocity: 127
@110400 , @5.821317829457365 Channel: 2 
Note on, G3 key =  55;WhichDrum: C2 ; velocity: 0
@110400 , @5.821317829457365 Channel: 2 
Note on, D4 key =  62;WhichDrum: T2 ; velocity: 0
@110400 , @5.821317829457365 Channel: 2 
Note on, C#4 key =  61;WhichDrum: T3 ; velocity: 127
@110400 , @5.821317829457365 Channel: 2 
Note on, F#3 key =  54;WhichDrum: C1 ; velocity: 127
@110460 , @5.824481589147287 Channel: 2 
Note on, C#4 key =  61;WhichDrum: T3 ; velocity: 0
@110460 , @5.824481589147287 Channel: 2 
Note on, F#3 key =  54;WhichDrum: C1 ; velocity: 0
@110460 , @5.824481589147287 Channel: 2 
Note on, E2 key =  40;WhichDrum: S ; velocity: 127
@110520 , @5.827645348837209 Channel: 2 
Note on, E2 key =  40;WhichDrum: S ; velocity: 0
@110520 , @5.827645348837209 Channel: 2 
Note on, E2 key =  40;WhichDrum: S ; velocity: 127
@110580 , @5.8308091085271325 Channel: 2 
Note on, E2 key =  40;WhichDrum: S ; velocity: 0
@110580 , @5.8308091085271325 Channel: 2 
Note on, F#3 key =  54;WhichDrum: C1 ; velocity: 127
@110580 , @5.8308091085271325 Channel: 2 
Note on, C#4 key =  61;WhichDrum: T3 ; velocity: 127
@110640 , @5.833972868217055 Channel: 2 
Note on, F#3 key =  54;WhichDrum: C1 ; velocity: 0
@110640 , @5.833972868217055 Channel: 2 
Note on, C#4 key =  61;WhichDrum: T3 ; velocity: 0
@110640 , @5.833972868217055 Channel: 2 
Note on, F3 key =  53;WhichDrum: HH ; velocity: 127
@110640 , @5.833972868217055 Channel: 2 
Note on, C4 key =  60;WhichDrum: B ; velocity: 127
@110700 , @5.837136627906977 Channel: 2 
Note on, F3 key =  53;WhichDrum: HH ; velocity: 0
@110700 , @5.837136627906977 Channel: 2 
Note on, C4 key =  60;WhichDrum: B ; velocity: 0
@110700 , @5.837136627906977 Channel: 2 
Note on, E2 key =  40;WhichDrum: S ; velocity: 127
@110760 , @5.8403003875968995 Channel: 2 
Note on, E2 key =  40;WhichDrum: S ; velocity: 0
@110760 , @5.8403003875968995 Channel: 2 
Note on, E2 key =  40;WhichDrum: S ; velocity: 127
@110820 , @5.843464147286822 Channel: 2 
Note on, E2 key =  40;WhichDrum: S ; velocity: 0
@110820 , @5.843464147286822 Channel: 2 
Note on, C4 key =  60;WhichDrum: B ; velocity: 127
@110820 , @5.843464147286822 Channel: 2 
Note on, F3 key =  53;WhichDrum: HH ; velocity: 127
@110880 , @5.846627906976745 Channel: 2 
Note on, C4 key =  60;WhichDrum: B ; velocity: 0
@110880 , @5.846627906976745 Channel: 2 
Note on, F3 key =  53;WhichDrum: HH ; velocity: 0
@110880 , @5.846627906976745 Channel: 2 
Note on, B2 key =  47;WhichDrum: T1 ; velocity: 127
@110880 , @5.846627906976745 Channel: 2 
Note on, E2 key =  40;WhichDrum: S ; velocity: 127
@110940 , @5.849791666666667 Channel: 2 
Note on, B2 key =  47;WhichDrum: T1 ; velocity: 0
@110940 , @5.849791666666667 Channel: 2 
Note on, E2 key =  40;WhichDrum: S ; velocity: 0
@110940 , @5.849791666666667 Channel: 2 
Note on, E2 key =  40;WhichDrum: S ; velocity: 127
@111000 , @5.85295542635659 Channel: 2 
Note on, E2 key =  40;WhichDrum: S ; velocity: 0
@111000 , @5.85295542635659 Channel: 2 
Note on, E2 key =  40;WhichDrum: S ; velocity: 127
@111060 , @5.856119186046512 Channel: 2 
Note on, E2 key =  40;WhichDrum: S ; velocity: 0
@111060 , @5.856119186046512 Channel: 2 
Note on, E2 key =  40;WhichDrum: S ; velocity: 127
@111120 , @5.859282945736434 Channel: 2 
Note on, E2 key =  40;WhichDrum: S ; velocity: 0
@111120 , @5.859282945736434 Channel: 2 
Note on, E2 key =  40;WhichDrum: S ; velocity: 127
@111180 , @5.862446705426357 Channel: 2 
Note on, E2 key =  40;WhichDrum: S ; velocity: 0
@111180 , @5.862446705426357 Channel: 2 
Note on, E2 key =  40;WhichDrum: S ; velocity: 127
@111240 , @5.86561046511628 Channel: 2 
Note on, E2 key =  40;WhichDrum: S ; velocity: 0
@111240 , @5.86561046511628 Channel: 2 
Note on, E2 key =  40;WhichDrum: S ; velocity: 127
@111300 , @5.868774224806202 Channel: 2 
Note on, E2 key =  40;WhichDrum: S ; velocity: 0
@111300 , @5.868774224806202 Channel: 2 
Note on, G3 key =  55;WhichDrum: C2 ; velocity: 127
@111300 , @5.868774224806202 Channel: 2 
Note on, D4 key =  62;WhichDrum: T2 ; velocity: 127
@111360 , @5.871937984496125 Channel: 2 
Note on, G3 key =  55;WhichDrum: C2 ; velocity: 0
@111360 , @5.871937984496125 Channel: 2 
Note on, D4 key =  62;WhichDrum: T2 ; velocity: 0
@111360 , @5.871937984496125 Channel: 2 
Note on, C#4 key =  61;WhichDrum: T3 ; velocity: 127
@111360 , @5.871937984496125 Channel: 2 
Note on, F#3 key =  54;WhichDrum: C1 ; velocity: 127
@111420 , @5.875101744186047 Channel: 2 
Note on, C#4 key =  61;WhichDrum: T3 ; velocity: 0
@111420 , @5.875101744186047 Channel: 2 
Note on, F#3 key =  54;WhichDrum: C1 ; velocity: 0
@111420 , @5.875101744186047 Channel: 2 
Note on, E2 key =  40;WhichDrum: S ; velocity: 127
@111480 , @5.878265503875969 Channel: 2 
Note on, E2 key =  40;WhichDrum: S ; velocity: 0
@111480 , @5.878265503875969 Channel: 2 
Note on, E2 key =  40;WhichDrum: S ; velocity: 127
@111540 , @5.881429263565892 Channel: 2 
Note on, E2 key =  40;WhichDrum: S ; velocity: 0
@111540 , @5.881429263565892 Channel: 2 
Note on, F#3 key =  54;WhichDrum: C1 ; velocity: 127
@111540 , @5.881429263565892 Channel: 2 
Note on, C#4 key =  61;WhichDrum: T3 ; velocity: 127
@111600 , @5.884593023255815 Channel: 2 
Note on, F#3 key =  54;WhichDrum: C1 ; velocity: 0
@111600 , @5.884593023255815 Channel: 2 
Note on, C#4 key =  61;WhichDrum: T3 ; velocity: 0
@111600 , @5.884593023255815 Channel: 2 
Note on, A3 key =  57;WhichDrum: T3 ; velocity: 127
@111600 , @5.884593023255815 Channel: 2 
Note on, D3 key =  50;WhichDrum: T2 ; velocity: 127
@111660 , @5.887756782945737 Channel: 2 
Note on, A3 key =  57;WhichDrum: T3 ; velocity: 0
@111660 , @5.887756782945737 Channel: 2 
Note on, D3 key =  50;WhichDrum: T2 ; velocity: 0
@111660 , @5.887756782945737 Channel: 2 
Note on, E2 key =  40;WhichDrum: S ; velocity: 127
@111720 , @5.8909205426356595 Channel: 2 
Note on, E2 key =  40;WhichDrum: S ; velocity: 0
@111720 , @5.8909205426356595 Channel: 2 
Note on, E2 key =  40;WhichDrum: S ; velocity: 127
@111780 , @5.894084302325582 Channel: 2 
Note on, E2 key =  40;WhichDrum: S ; velocity: 0
@111780 , @5.894084302325582 Channel: 2 
Note on, D3 key =  50;WhichDrum: T2 ; velocity: 127
@111780 , @5.894084302325582 Channel: 2 
Note on, A3 key =  57;WhichDrum: T3 ; velocity: 127
@111840 , @5.897248062015504 Channel: 2 
Note on, D3 key =  50;WhichDrum: T2 ; velocity: 0
@111840 , @5.897248062015504 Channel: 2 
Note on, A3 key =  57;WhichDrum: T3 ; velocity: 0
@111840 , @5.897248062015504 Channel: 2 
Note on, B2 key =  47;WhichDrum: T1 ; velocity: 127
@111840 , @5.897248062015504 Channel: 2 
Note on, E2 key =  40;WhichDrum: S ; velocity: 127
@111900 , @5.900411821705427 Channel: 2 
Note on, B2 key =  47;WhichDrum: T1 ; velocity: 0
@111900 , @5.900411821705427 Channel: 2 
Note on, E2 key =  40;WhichDrum: S ; velocity: 0
@111900 , @5.900411821705427 Channel: 2 
Note on, E2 key =  40;WhichDrum: S ; velocity: 127
@111960 , @5.90357558139535 Channel: 2 
Note on, E2 key =  40;WhichDrum: S ; velocity: 0
@111960 , @5.90357558139535 Channel: 2 
Note on, E2 key =  40;WhichDrum: S ; velocity: 127
@112020 , @5.906739341085272 Channel: 2 
Note on, E2 key =  40;WhichDrum: S ; velocity: 0
@112020 , @5.906739341085272 Channel: 2 
Note on, E2 key =  40;WhichDrum: S ; velocity: 127
@112080 , @5.909903100775194 Channel: 2 
Note on, E2 key =  40;WhichDrum: S ; velocity: 0
@112080 , @5.909903100775194 Channel: 2 
Note on, E2 key =  40;WhichDrum: S ; velocity: 127
@112140 , @5.913066860465117 Channel: 2 
Note on, E2 key =  40;WhichDrum: S ; velocity: 0
@112140 , @5.913066860465117 Channel: 2 
Note on, E2 key =  40;WhichDrum: S ; velocity: 127
@112200 , @5.916230620155039 Channel: 2 
Note on, E2 key =  40;WhichDrum: S ; velocity: 0
@112200 , @5.916230620155039 Channel: 2 
Note on, E2 key =  40;WhichDrum: S ; velocity: 127
@112260 , @5.919394379844961 Channel: 2 
Note on, E2 key =  40;WhichDrum: S ; velocity: 0
@112260 , @5.919394379844961 Channel: 2 
Note on, G3 key =  55;WhichDrum: C2 ; velocity: 127
@112260 , @5.919394379844961 Channel: 2 
Note on, D4 key =  62;WhichDrum: T2 ; velocity: 127
@112320 , @5.922558139534884 Channel: 2 
Note on, G3 key =  55;WhichDrum: C2 ; velocity: 0
@112320 , @5.922558139534884 Channel: 2 
Note on, D4 key =  62;WhichDrum: T2 ; velocity: 0
@112320 , @5.922558139534884 Channel: 2 
Note on, C#4 key =  61;WhichDrum: T3 ; velocity: 127
@112320 , @5.922558139534884 Channel: 2 
Note on, F#3 key =  54;WhichDrum: C1 ; velocity: 127
@112380 , @5.925721899224806 Channel: 2 
Note on, C#4 key =  61;WhichDrum: T3 ; velocity: 0
@112380 , @5.925721899224806 Channel: 2 
Note on, F#3 key =  54;WhichDrum: C1 ; velocity: 0
@112380 , @5.925721899224806 Channel: 2 
Note on, E2 key =  40;WhichDrum: S ; velocity: 127
@112440 , @5.928885658914728 Channel: 2 
Note on, E2 key =  40;WhichDrum: S ; velocity: 0
@112440 , @5.928885658914728 Channel: 2 
Note on, E2 key =  40;WhichDrum: S ; velocity: 127
@112500 , @5.932049418604651 Channel: 2 
Note on, E2 key =  40;WhichDrum: S ; velocity: 0
@112500 , @5.932049418604651 Channel: 2 
Note on, F#3 key =  54;WhichDrum: C1 ; velocity: 127
@112500 , @5.932049418604651 Channel: 2 
Note on, C#4 key =  61;WhichDrum: T3 ; velocity: 127
@112560 , @5.935213178294574 Channel: 2 
Note on, F#3 key =  54;WhichDrum: C1 ; velocity: 0
@112560 , @5.935213178294574 Channel: 2 
Note on, C#4 key =  61;WhichDrum: T3 ; velocity: 0
@112560 , @5.935213178294574 Channel: 2 
Note on, F3 key =  53;WhichDrum: HH ; velocity: 127
@112560 , @5.935213178294574 Channel: 2 
Note on, C4 key =  60;WhichDrum: B ; velocity: 127
@112620 , @5.938376937984496 Channel: 2 
Note on, F3 key =  53;WhichDrum: HH ; velocity: 0
@112620 , @5.938376937984496 Channel: 2 
Note on, C4 key =  60;WhichDrum: B ; velocity: 0
@112620 , @5.938376937984496 Channel: 2 
Note on, E2 key =  40;WhichDrum: S ; velocity: 127
@112680 , @5.9415406976744185 Channel: 2 
Note on, E2 key =  40;WhichDrum: S ; velocity: 0
@112680 , @5.9415406976744185 Channel: 2 
Note on, E2 key =  40;WhichDrum: S ; velocity: 127
@112740 , @5.944704457364341 Channel: 2 
Note on, E2 key =  40;WhichDrum: S ; velocity: 0
@112740 , @5.944704457364341 Channel: 2 
Note on, C4 key =  60;WhichDrum: B ; velocity: 127
@112740 , @5.944704457364341 Channel: 2 
Note on, F3 key =  53;WhichDrum: HH ; velocity: 127
@112800 , @5.947868217054263 Channel: 2 
Note on, C4 key =  60;WhichDrum: B ; velocity: 0
@112800 , @5.947868217054263 Channel: 2 
Note on, F3 key =  53;WhichDrum: HH ; velocity: 0
@112800 , @5.947868217054263 Channel: 2 
Note on, B2 key =  47;WhichDrum: T1 ; velocity: 127
@112800 , @5.947868217054263 Channel: 2 
Note on, E2 key =  40;WhichDrum: S ; velocity: 127
@112860 , @5.951031976744186 Channel: 2 
Note on, B2 key =  47;WhichDrum: T1 ; velocity: 0
@112860 , @5.951031976744186 Channel: 2 
Note on, E2 key =  40;WhichDrum: S ; velocity: 0
@112860 , @5.951031976744186 Channel: 2 
Note on, E2 key =  40;WhichDrum: S ; velocity: 127
@112920 , @5.954195736434109 Channel: 2 
Note on, E2 key =  40;WhichDrum: S ; velocity: 0
@112920 , @5.954195736434109 Channel: 2 
Note on, E2 key =  40;WhichDrum: S ; velocity: 127
@112980 , @5.957359496124031 Channel: 2 
Note on, E2 key =  40;WhichDrum: S ; velocity: 0
@112980 , @5.957359496124031 Channel: 2 
Note on, E2 key =  40;WhichDrum: S ; velocity: 127
@113040 , @5.960523255813953 Channel: 2 
Note on, E2 key =  40;WhichDrum: S ; velocity: 0
@113040 , @5.960523255813953 Channel: 2 
Note on, E2 key =  40;WhichDrum: S ; velocity: 127
@113100 , @5.963687015503876 Channel: 2 
Note on, E2 key =  40;WhichDrum: S ; velocity: 0
@113100 , @5.963687015503876 Channel: 2 
Note on, E2 key =  40;WhichDrum: S ; velocity: 127
@113160 , @5.966850775193798 Channel: 2 
Note on, E2 key =  40;WhichDrum: S ; velocity: 0
@113160 , @5.966850775193798 Channel: 2 
Note on, E2 key =  40;WhichDrum: S ; velocity: 127
@113220 , @5.970014534883721 Channel: 2 
Note on, E2 key =  40;WhichDrum: S ; velocity: 0
@113220 , @5.970014534883721 Channel: 2 
Note on, G3 key =  55;WhichDrum: C2 ; velocity: 127
@113220 , @5.970014534883721 Channel: 2 
Note on, D4 key =  62;WhichDrum: T2 ; velocity: 127
@113280 , @5.973178294573644 Channel: 2 
Note on, G3 key =  55;WhichDrum: C2 ; velocity: 0
@113280 , @5.973178294573644 Channel: 2 
Note on, D4 key =  62;WhichDrum: T2 ; velocity: 0
@113280 , @5.973178294573644 Channel: 2 
Note on, C#4 key =  61;WhichDrum: T3 ; velocity: 127
@113280 , @5.973178294573644 Channel: 2 
Note on, F#3 key =  54;WhichDrum: C1 ; velocity: 127
@113340 , @5.976342054263566 Channel: 2 
Note on, C#4 key =  61;WhichDrum: T3 ; velocity: 0
@113340 , @5.976342054263566 Channel: 2 
Note on, F#3 key =  54;WhichDrum: C1 ; velocity: 0
@113340 , @5.976342054263566 Channel: 2 
Note on, E2 key =  40;WhichDrum: S ; velocity: 127
@113400 , @5.979505813953488 Channel: 2 
Note on, E2 key =  40;WhichDrum: S ; velocity: 0
@113400 , @5.979505813953488 Channel: 2 
Note on, E2 key =  40;WhichDrum: S ; velocity: 127
@113460 , @5.982669573643411 Channel: 2 
Note on, E2 key =  40;WhichDrum: S ; velocity: 0
@113460 , @5.982669573643411 Channel: 2 
Note on, F#3 key =  54;WhichDrum: C1 ; velocity: 127
@113460 , @5.982669573643411 Channel: 2 
Note on, C#4 key =  61;WhichDrum: T3 ; velocity: 127
@113520 , @5.985833333333333 Channel: 2 
Note on, F#3 key =  54;WhichDrum: C1 ; velocity: 0
@113520 , @5.985833333333333 Channel: 2 
Note on, C#4 key =  61;WhichDrum: T3 ; velocity: 0
@113520 , @5.985833333333333 Channel: 2 
Note on, A3 key =  57;WhichDrum: T3 ; velocity: 127
@113520 , @5.985833333333333 Channel: 2 
Note on, D3 key =  50;WhichDrum: T2 ; velocity: 127
@113580 , @5.988997093023256 Channel: 2 
Note on, A3 key =  57;WhichDrum: T3 ; velocity: 0
@113580 , @5.988997093023256 Channel: 2 
Note on, D3 key =  50;WhichDrum: T2 ; velocity: 0
@113580 , @5.988997093023256 Channel: 2 
Note on, E2 key =  40;WhichDrum: S ; velocity: 127
@113640 , @5.992160852713178 Channel: 2 
Note on, E2 key =  40;WhichDrum: S ; velocity: 0
@113640 , @5.992160852713178 Channel: 2 
Note on, E2 key =  40;WhichDrum: S ; velocity: 127
@113700 , @5.995324612403101 Channel: 2 
Note on, E2 key =  40;WhichDrum: S ; velocity: 0
@113700 , @5.995324612403101 Channel: 2 
Note on, D3 key =  50;WhichDrum: T2 ; velocity: 127
@113700 , @5.995324612403101 Channel: 2 
Note on, A3 key =  57;WhichDrum: T3 ; velocity: 127
@113760 , @5.998488372093023 Channel: 2 
Note on, D3 key =  50;WhichDrum: T2 ; velocity: 0
@113760 , @5.998488372093023 Channel: 2 
Note on, A3 key =  57;WhichDrum: T3 ; velocity: 0
@113760 , @5.998488372093023 Channel: 2 
Note on, E3 key =  52;WhichDrum: S ; velocity: 127
@113760 , @5.998488372093023 Channel: 2 
Note on, B3 key =  59;WhichDrum: T1 ; velocity: 127
@113820 , @6.001652131782945 Channel: 2 
Note on, E3 key =  52;WhichDrum: S ; velocity: 0
@113820 , @6.001652131782945 Channel: 2 
Note on, B3 key =  59;WhichDrum: T1 ; velocity: 0
@113820 , @6.001652131782945 Channel: 2 
Note on, E2 key =  40;WhichDrum: S ; velocity: 127
@113880 , @6.004815891472869 Channel: 2 
Note on, E2 key =  40;WhichDrum: S ; velocity: 0
@113880 , @6.004815891472869 Channel: 2 
Note on, E2 key =  40;WhichDrum: S ; velocity: 127
@113940 , @6.007979651162791 Channel: 2 
Note on, E2 key =  40;WhichDrum: S ; velocity: 0
@113940 , @6.007979651162791 Channel: 2 
Note on, E2 key =  40;WhichDrum: S ; velocity: 127
@114000 , @6.011143410852713 Channel: 2 
Note on, E2 key =  40;WhichDrum: S ; velocity: 0
@114000 , @6.011143410852713 Channel: 2 
Note on, E2 key =  40;WhichDrum: S ; velocity: 127
@114060 , @6.014307170542636 Channel: 2 
Note on, E2 key =  40;WhichDrum: S ; velocity: 0
@114060 , @6.014307170542636 Channel: 2 
Note on, E2 key =  40;WhichDrum: S ; velocity: 127
@114120 , @6.017470930232558 Channel: 2 
Note on, E2 key =  40;WhichDrum: S ; velocity: 0
@114120 , @6.017470930232558 Channel: 2 
Note on, E3 key =  52;WhichDrum: S ; velocity: 127
@114240 , @6.0237984496124035 Channel: 2 
Note on, E3 key =  52;WhichDrum: S ; velocity: 0
@114240 , @6.0237984496124035 Channel: 2 
Note on, E2 key =  40;WhichDrum: S ; velocity: 127
@114300 , @6.026962209302326 Channel: 2 
Note on, E2 key =  40;WhichDrum: S ; velocity: 0
@114300 , @6.026962209302326 Channel: 2 
Note on, E2 key =  40;WhichDrum: S ; velocity: 127
@114360 , @6.030125968992248 Channel: 2 
Note on, E2 key =  40;WhichDrum: S ; velocity: 0
@114360 , @6.030125968992248 Channel: 2 
Note on, B2 key =  47;WhichDrum: T1 ; velocity: 127
@114360 , @6.030125968992248 Channel: 2 
Note on, E2 key =  40;WhichDrum: S ; velocity: 127
@114420 , @6.0332897286821705 Channel: 2 
Note on, B2 key =  47;WhichDrum: T1 ; velocity: 0
@114420 , @6.0332897286821705 Channel: 2 
Note on, E2 key =  40;WhichDrum: S ; velocity: 0
@114420 , @6.0332897286821705 Channel: 2 
Note on, E2 key =  40;WhichDrum: S ; velocity: 127
@114480 , @6.036453488372093 Channel: 2 
Note on, E2 key =  40;WhichDrum: S ; velocity: 0
@114480 , @6.036453488372093 Channel: 2 
Note on, E2 key =  40;WhichDrum: S ; velocity: 127
@114540 , @6.039617248062015 Channel: 2 
Note on, E2 key =  40;WhichDrum: S ; velocity: 0
@114540 , @6.039617248062015 Channel: 2 
Note on, D3 key =  50;WhichDrum: T2 ; velocity: 127
@114540 , @6.039617248062015 Channel: 2 
Note on, G2 key =  43;WhichDrum: C2 ; velocity: 127
@114600 , @6.042781007751938 Channel: 2 
Note on, D3 key =  50;WhichDrum: T2 ; velocity: 0
@114600 , @6.042781007751938 Channel: 2 
Note on, G2 key =  43;WhichDrum: C2 ; velocity: 0
@114600 , @6.042781007751938 Channel: 2 
Note on, E2 key =  40;WhichDrum: S ; velocity: 127
@114660 , @6.045944767441861 Channel: 2 
Note on, E2 key =  40;WhichDrum: S ; velocity: 0
@114660 , @6.045944767441861 Channel: 2 
Note on, E2 key =  40;WhichDrum: S ; velocity: 127
@114720 , @6.049108527131783 Channel: 2 
Note on, E2 key =  40;WhichDrum: S ; velocity: 0
@114720 , @6.049108527131783 Channel: 2 
Note on, C#3 key =  49;WhichDrum: T3 ; velocity: 127
@114720 , @6.049108527131783 Channel: 2 
Note on, F#2 key =  42;WhichDrum: C1 ; velocity: 127
@114780 , @6.052272286821705 Channel: 2 
Note on, C#3 key =  49;WhichDrum: T3 ; velocity: 0
@114780 , @6.052272286821705 Channel: 2 
Note on, F#2 key =  42;WhichDrum: C1 ; velocity: 0
@114780 , @6.052272286821705 Channel: 2 
Note on, E2 key =  40;WhichDrum: S ; velocity: 127
@114840 , @6.055436046511628 Channel: 2 
Note on, E2 key =  40;WhichDrum: S ; velocity: 0
@114840 , @6.055436046511628 Channel: 2 
Note on, E2 key =  40;WhichDrum: S ; velocity: 127
@114900 , @6.058599806201551 Channel: 2 
Note on, E2 key =  40;WhichDrum: S ; velocity: 0
@114900 , @6.058599806201551 Channel: 2 
Note on, D3 key =  50;WhichDrum: T2 ; velocity: 127
@114900 , @6.058599806201551 Channel: 2 
Note on, G2 key =  43;WhichDrum: C2 ; velocity: 127
@114960 , @6.061763565891473 Channel: 2 
Note on, D3 key =  50;WhichDrum: T2 ; velocity: 0
@114960 , @6.061763565891473 Channel: 2 
Note on, G2 key =  43;WhichDrum: C2 ; velocity: 0
@114960 , @6.061763565891473 Channel: 2 
Note on, E2 key =  40;WhichDrum: S ; velocity: 127
@115020 , @6.064927325581396 Channel: 2 
Note on, E2 key =  40;WhichDrum: S ; velocity: 0
@115020 , @6.064927325581396 Channel: 2 
Note on, E2 key =  40;WhichDrum: S ; velocity: 127
@115080 , @6.068091085271318 Channel: 2 
Note on, E2 key =  40;WhichDrum: S ; velocity: 0
@115080 , @6.068091085271318 Channel: 2 
Note on, E3 key =  52;WhichDrum: S ; velocity: 127
@115080 , @6.068091085271318 Channel: 2 
Note on, A2 key =  45;WhichDrum: T3 ; velocity: 127
@115140 , @6.07125484496124 Channel: 2 
Note on, E3 key =  52;WhichDrum: S ; velocity: 0
@115140 , @6.07125484496124 Channel: 2 
Note on, A2 key =  45;WhichDrum: T3 ; velocity: 0
@115140 , @6.07125484496124 Channel: 2 
Note on, G2 key =  43;WhichDrum: C2 ; velocity: 127
@115140 , @6.07125484496124 Channel: 2 
Note on, D3 key =  50;WhichDrum: T2 ; velocity: 127
@115200 , @6.074418604651163 Channel: 2 
Note on, G2 key =  43;WhichDrum: C2 ; velocity: 0
@115200 , @6.074418604651163 Channel: 2 
Note on, D3 key =  50;WhichDrum: T2 ; velocity: 0
@115200 , @6.074418604651163 Channel: 2 
Note on, E2 key =  40;WhichDrum: S ; velocity: 127
@115260 , @6.077582364341086 Channel: 2 
Note on, E2 key =  40;WhichDrum: S ; velocity: 0
@115260 , @6.077582364341086 Channel: 2 
Note on, E2 key =  40;WhichDrum: S ; velocity: 127
@115320 , @6.080746124031008 Channel: 2 
Note on, E2 key =  40;WhichDrum: S ; velocity: 0
@115320 , @6.080746124031008 Channel: 2 
Note on, B2 key =  47;WhichDrum: T1 ; velocity: 127
@115320 , @6.080746124031008 Channel: 2 
Note on, E2 key =  40;WhichDrum: S ; velocity: 127
@115380 , @6.0839098837209304 Channel: 2 
Note on, B2 key =  47;WhichDrum: T1 ; velocity: 0
@115380 , @6.0839098837209304 Channel: 2 
Note on, E2 key =  40;WhichDrum: S ; velocity: 0
@115380 , @6.0839098837209304 Channel: 2 
Note on, E2 key =  40;WhichDrum: S ; velocity: 127
@115440 , @6.087073643410853 Channel: 2 
Note on, E2 key =  40;WhichDrum: S ; velocity: 0
@115440 , @6.087073643410853 Channel: 2 
Note on, E2 key =  40;WhichDrum: S ; velocity: 127
@115500 , @6.090237403100775 Channel: 2 
Note on, E2 key =  40;WhichDrum: S ; velocity: 0
@115500 , @6.090237403100775 Channel: 2 
Note on, D3 key =  50;WhichDrum: T2 ; velocity: 127
@115500 , @6.090237403100775 Channel: 2 
Note on, G2 key =  43;WhichDrum: C2 ; velocity: 127
@115560 , @6.093401162790697 Channel: 2 
Note on, D3 key =  50;WhichDrum: T2 ; velocity: 0
@115560 , @6.093401162790697 Channel: 2 
Note on, G2 key =  43;WhichDrum: C2 ; velocity: 0
@115560 , @6.093401162790697 Channel: 2 
Note on, E2 key =  40;WhichDrum: S ; velocity: 127
@115620 , @6.096564922480621 Channel: 2 
Note on, E2 key =  40;WhichDrum: S ; velocity: 0
@115620 , @6.096564922480621 Channel: 2 
Note on, E2 key =  40;WhichDrum: S ; velocity: 127
@115680 , @6.099728682170543 Channel: 2 
Note on, E2 key =  40;WhichDrum: S ; velocity: 0
@115680 , @6.099728682170543 Channel: 2 
Note on, C#3 key =  49;WhichDrum: T3 ; velocity: 127
@115680 , @6.099728682170543 Channel: 2 
Note on, F#2 key =  42;WhichDrum: C1 ; velocity: 127
@115740 , @6.102892441860465 Channel: 2 
Note on, C#3 key =  49;WhichDrum: T3 ; velocity: 0
@115740 , @6.102892441860465 Channel: 2 
Note on, F#2 key =  42;WhichDrum: C1 ; velocity: 0
@115740 , @6.102892441860465 Channel: 2 
Note on, E2 key =  40;WhichDrum: S ; velocity: 127
@115800 , @6.106056201550388 Channel: 2 
Note on, E2 key =  40;WhichDrum: S ; velocity: 0
@115800 , @6.106056201550388 Channel: 2 
Note on, E2 key =  40;WhichDrum: S ; velocity: 127
@115860 , @6.10921996124031 Channel: 2 
Note on, E2 key =  40;WhichDrum: S ; velocity: 0
@115860 , @6.10921996124031 Channel: 2 
Note on, D3 key =  50;WhichDrum: T2 ; velocity: 127
@115860 , @6.10921996124031 Channel: 2 
Note on, G2 key =  43;WhichDrum: C2 ; velocity: 127
@115920 , @6.112383720930233 Channel: 2 
Note on, D3 key =  50;WhichDrum: T2 ; velocity: 0
@115920 , @6.112383720930233 Channel: 2 
Note on, G2 key =  43;WhichDrum: C2 ; velocity: 0
@115920 , @6.112383720930233 Channel: 2 
Note on, E2 key =  40;WhichDrum: S ; velocity: 127
@115980 , @6.1155474806201555 Channel: 2 
Note on, E2 key =  40;WhichDrum: S ; velocity: 0
@115980 , @6.1155474806201555 Channel: 2 
Note on, E2 key =  40;WhichDrum: S ; velocity: 127
@116040 , @6.118711240310078 Channel: 2 
Note on, E2 key =  40;WhichDrum: S ; velocity: 0
@116040 , @6.118711240310078 Channel: 2 
Note on, E3 key =  52;WhichDrum: S ; velocity: 127
@116040 , @6.118711240310078 Channel: 2 
Note on, A2 key =  45;WhichDrum: T3 ; velocity: 127
@116100 , @6.121875 Channel: 2 
Note on, E3 key =  52;WhichDrum: S ; velocity: 0
@116100 , @6.121875 Channel: 2 
Note on, A2 key =  45;WhichDrum: T3 ; velocity: 0
@116100 , @6.121875 Channel: 2 
Note on, G2 key =  43;WhichDrum: C2 ; velocity: 127
@116100 , @6.121875 Channel: 2 
Note on, D3 key =  50;WhichDrum: T2 ; velocity: 127
@116160 , @6.1250387596899225 Channel: 2 
Note on, G2 key =  43;WhichDrum: C2 ; velocity: 0
@116160 , @6.1250387596899225 Channel: 2 
Note on, D3 key =  50;WhichDrum: T2 ; velocity: 0
@116160 , @6.1250387596899225 Channel: 2 
Note on, E2 key =  40;WhichDrum: S ; velocity: 127
@116220 , @6.128202519379845 Channel: 2 
Note on, E2 key =  40;WhichDrum: S ; velocity: 0
@116220 , @6.128202519379845 Channel: 2 
Note on, E2 key =  40;WhichDrum: S ; velocity: 127
@116280 , @6.131366279069768 Channel: 2 
Note on, E2 key =  40;WhichDrum: S ; velocity: 0
@116280 , @6.131366279069768 Channel: 2 
Note on, B2 key =  47;WhichDrum: T1 ; velocity: 127
@116280 , @6.131366279069768 Channel: 2 
Note on, E2 key =  40;WhichDrum: S ; velocity: 127
@116340 , @6.13453003875969 Channel: 2 
Note on, B2 key =  47;WhichDrum: T1 ; velocity: 0
@116340 , @6.13453003875969 Channel: 2 
Note on, E2 key =  40;WhichDrum: S ; velocity: 0
@116340 , @6.13453003875969 Channel: 2 
Note on, E2 key =  40;WhichDrum: S ; velocity: 127
@116400 , @6.137693798449613 Channel: 2 
Note on, E2 key =  40;WhichDrum: S ; velocity: 0
@116400 , @6.137693798449613 Channel: 2 
Note on, E2 key =  40;WhichDrum: S ; velocity: 127
@116460 , @6.140857558139535 Channel: 2 
Note on, E2 key =  40;WhichDrum: S ; velocity: 0
@116460 , @6.140857558139535 Channel: 2 
Note on, D3 key =  50;WhichDrum: T2 ; velocity: 127
@116460 , @6.140857558139535 Channel: 2 
Note on, G2 key =  43;WhichDrum: C2 ; velocity: 127
@116520 , @6.144021317829457 Channel: 2 
Note on, D3 key =  50;WhichDrum: T2 ; velocity: 0
@116520 , @6.144021317829457 Channel: 2 
Note on, G2 key =  43;WhichDrum: C2 ; velocity: 0
@116520 , @6.144021317829457 Channel: 2 
Note on, E2 key =  40;WhichDrum: S ; velocity: 127
@116580 , @6.14718507751938 Channel: 2 
Note on, E2 key =  40;WhichDrum: S ; velocity: 0
@116580 , @6.14718507751938 Channel: 2 
Note on, E2 key =  40;WhichDrum: S ; velocity: 127
@116640 , @6.150348837209303 Channel: 2 
Note on, E2 key =  40;WhichDrum: S ; velocity: 0
@116640 , @6.150348837209303 Channel: 2 
Note on, C#3 key =  49;WhichDrum: T3 ; velocity: 127
@116640 , @6.150348837209303 Channel: 2 
Note on, F#2 key =  42;WhichDrum: C1 ; velocity: 127
@116700 , @6.153512596899225 Channel: 2 
Note on, C#3 key =  49;WhichDrum: T3 ; velocity: 0
@116700 , @6.153512596899225 Channel: 2 
Note on, F#2 key =  42;WhichDrum: C1 ; velocity: 0
@116700 , @6.153512596899225 Channel: 2 
Note on, E2 key =  40;WhichDrum: S ; velocity: 127
@116760 , @6.156676356589148 Channel: 2 
Note on, E2 key =  40;WhichDrum: S ; velocity: 0
@116760 , @6.156676356589148 Channel: 2 
Note on, E2 key =  40;WhichDrum: S ; velocity: 127
@116820 , @6.15984011627907 Channel: 2 
Note on, E2 key =  40;WhichDrum: S ; velocity: 0
@116820 , @6.15984011627907 Channel: 2 
Note on, D3 key =  50;WhichDrum: T2 ; velocity: 127
@116820 , @6.15984011627907 Channel: 2 
Note on, G2 key =  43;WhichDrum: C2 ; velocity: 127
@116880 , @6.163003875968992 Channel: 2 
Note on, D3 key =  50;WhichDrum: T2 ; velocity: 0
@116880 , @6.163003875968992 Channel: 2 
Note on, G2 key =  43;WhichDrum: C2 ; velocity: 0
@116880 , @6.163003875968992 Channel: 2 
Note on, E2 key =  40;WhichDrum: S ; velocity: 127
@116940 , @6.1661676356589155 Channel: 2 
Note on, E2 key =  40;WhichDrum: S ; velocity: 0
@116940 , @6.1661676356589155 Channel: 2 
Note on, E2 key =  40;WhichDrum: S ; velocity: 127
@117000 , @6.169331395348838 Channel: 2 
Note on, E2 key =  40;WhichDrum: S ; velocity: 0
@117000 , @6.169331395348838 Channel: 2 
Note on, E3 key =  52;WhichDrum: S ; velocity: 127
@117000 , @6.169331395348838 Channel: 2 
Note on, A2 key =  45;WhichDrum: T3 ; velocity: 127
@117060 , @6.17249515503876 Channel: 2 
Note on, E3 key =  52;WhichDrum: S ; velocity: 0
@117060 , @6.17249515503876 Channel: 2 
Note on, A2 key =  45;WhichDrum: T3 ; velocity: 0
@117060 , @6.17249515503876 Channel: 2 
Note on, G2 key =  43;WhichDrum: C2 ; velocity: 127
@117060 , @6.17249515503876 Channel: 2 
Note on, D3 key =  50;WhichDrum: T2 ; velocity: 127
@117120 , @6.1756589147286824 Channel: 2 
Note on, G2 key =  43;WhichDrum: C2 ; velocity: 0
@117120 , @6.1756589147286824 Channel: 2 
Note on, D3 key =  50;WhichDrum: T2 ; velocity: 0
@117120 , @6.1756589147286824 Channel: 2 
Note on, E2 key =  40;WhichDrum: S ; velocity: 127
@117180 , @6.178822674418605 Channel: 2 
Note on, E2 key =  40;WhichDrum: S ; velocity: 0
@117180 , @6.178822674418605 Channel: 2 
Note on, E2 key =  40;WhichDrum: S ; velocity: 127
@117240 , @6.181986434108527 Channel: 2 
Note on, E2 key =  40;WhichDrum: S ; velocity: 0
@117240 , @6.181986434108527 Channel: 2 
Note on, B2 key =  47;WhichDrum: T1 ; velocity: 127
@117240 , @6.181986434108527 Channel: 2 
Note on, E2 key =  40;WhichDrum: S ; velocity: 127
@117300 , @6.18515019379845 Channel: 2 
Note on, B2 key =  47;WhichDrum: T1 ; velocity: 0
@117300 , @6.18515019379845 Channel: 2 
Note on, E2 key =  40;WhichDrum: S ; velocity: 0
@117300 , @6.18515019379845 Channel: 2 
Note on, E2 key =  40;WhichDrum: S ; velocity: 127
@117360 , @6.188313953488373 Channel: 2 
Note on, E2 key =  40;WhichDrum: S ; velocity: 0
@117360 , @6.188313953488373 Channel: 2 
Note on, E2 key =  40;WhichDrum: S ; velocity: 127
@117420 , @6.191477713178295 Channel: 2 
Note on, E2 key =  40;WhichDrum: S ; velocity: 0
@117420 , @6.191477713178295 Channel: 2 
Note on, D3 key =  50;WhichDrum: T2 ; velocity: 127
@117420 , @6.191477713178295 Channel: 2 
Note on, G2 key =  43;WhichDrum: C2 ; velocity: 127
@117480 , @6.194641472868217 Channel: 2 
Note on, D3 key =  50;WhichDrum: T2 ; velocity: 0
@117480 , @6.194641472868217 Channel: 2 
Note on, G2 key =  43;WhichDrum: C2 ; velocity: 0
@117480 , @6.194641472868217 Channel: 2 
Note on, E2 key =  40;WhichDrum: S ; velocity: 127
@117540 , @6.19780523255814 Channel: 2 
Note on, E2 key =  40;WhichDrum: S ; velocity: 0
@117540 , @6.19780523255814 Channel: 2 
Note on, E2 key =  40;WhichDrum: S ; velocity: 127
@117600 , @6.200968992248062 Channel: 2 
Note on, E2 key =  40;WhichDrum: S ; velocity: 0
@117600 , @6.200968992248062 Channel: 2 
Note on, C#3 key =  49;WhichDrum: T3 ; velocity: 127
@117600 , @6.200968992248062 Channel: 2 
Note on, F#2 key =  42;WhichDrum: C1 ; velocity: 127
@117660 , @6.204132751937985 Channel: 2 
Note on, C#3 key =  49;WhichDrum: T3 ; velocity: 0
@117660 , @6.204132751937985 Channel: 2 
Note on, F#2 key =  42;WhichDrum: C1 ; velocity: 0
@117660 , @6.204132751937985 Channel: 2 
Note on, E2 key =  40;WhichDrum: S ; velocity: 127
@117720 , @6.2072965116279075 Channel: 2 
Note on, E2 key =  40;WhichDrum: S ; velocity: 0
@117720 , @6.2072965116279075 Channel: 2 
Note on, E2 key =  40;WhichDrum: S ; velocity: 127
@117780 , @6.21046027131783 Channel: 2 
Note on, E2 key =  40;WhichDrum: S ; velocity: 0
@117780 , @6.21046027131783 Channel: 2 
Note on, D3 key =  50;WhichDrum: T2 ; velocity: 127
@117780 , @6.21046027131783 Channel: 2 
Note on, G2 key =  43;WhichDrum: C2 ; velocity: 127
@117840 , @6.213624031007752 Channel: 2 
Note on, D3 key =  50;WhichDrum: T2 ; velocity: 0
@117840 , @6.213624031007752 Channel: 2 
Note on, G2 key =  43;WhichDrum: C2 ; velocity: 0
@117840 , @6.213624031007752 Channel: 2 
Note on, E2 key =  40;WhichDrum: S ; velocity: 127
@117900 , @6.2167877906976745 Channel: 2 
Note on, E2 key =  40;WhichDrum: S ; velocity: 0
@117900 , @6.2167877906976745 Channel: 2 
Note on, E2 key =  40;WhichDrum: S ; velocity: 127
@117960 , @6.219951550387598 Channel: 2 
Note on, E2 key =  40;WhichDrum: S ; velocity: 0
@117960 , @6.219951550387598 Channel: 2 
Note on, E3 key =  52;WhichDrum: S ; velocity: 127
@117960 , @6.219951550387598 Channel: 2 
Note on, A2 key =  45;WhichDrum: T3 ; velocity: 127
@118020 , @6.22311531007752 Channel: 2 
Note on, E3 key =  52;WhichDrum: S ; velocity: 0
@118020 , @6.22311531007752 Channel: 2 
Note on, A2 key =  45;WhichDrum: T3 ; velocity: 0
@118020 , @6.22311531007752 Channel: 2 
Note on, G2 key =  43;WhichDrum: C2 ; velocity: 127
@118020 , @6.22311531007752 Channel: 2 
Note on, D3 key =  50;WhichDrum: T2 ; velocity: 127
@118080 , @6.226279069767442 Channel: 2 
Note on, G2 key =  43;WhichDrum: C2 ; velocity: 0
@118080 , @6.226279069767442 Channel: 2 
Note on, D3 key =  50;WhichDrum: T2 ; velocity: 0
@118080 , @6.226279069767442 Channel: 2 
Note on, E2 key =  40;WhichDrum: S ; velocity: 127
@118140 , @6.229442829457365 Channel: 2 
Note on, E2 key =  40;WhichDrum: S ; velocity: 0
@118140 , @6.229442829457365 Channel: 2 
Note on, E2 key =  40;WhichDrum: S ; velocity: 127
@118200 , @6.232606589147287 Channel: 2 
Note on, E2 key =  40;WhichDrum: S ; velocity: 0
@118200 , @6.232606589147287 Channel: 2 
Note on, B2 key =  47;WhichDrum: T1 ; velocity: 127
@118200 , @6.232606589147287 Channel: 2 
Note on, E2 key =  40;WhichDrum: S ; velocity: 127
@118260 , @6.235770348837209 Channel: 2 
Note on, B2 key =  47;WhichDrum: T1 ; velocity: 0
@118260 , @6.235770348837209 Channel: 2 
Note on, E2 key =  40;WhichDrum: S ; velocity: 0
@118260 , @6.235770348837209 Channel: 2 
Note on, E2 key =  40;WhichDrum: S ; velocity: 127
@118320 , @6.238934108527133 Channel: 2 
Note on, E2 key =  40;WhichDrum: S ; velocity: 0
@118320 , @6.238934108527133 Channel: 2 
Note on, E2 key =  40;WhichDrum: S ; velocity: 127
@118380 , @6.242097868217055 Channel: 2 
Note on, E2 key =  40;WhichDrum: S ; velocity: 0
@118380 , @6.242097868217055 Channel: 2 
Note on, D3 key =  50;WhichDrum: T2 ; velocity: 127
@118380 , @6.242097868217055 Channel: 2 
Note on, G2 key =  43;WhichDrum: C2 ; velocity: 127
@118440 , @6.245261627906977 Channel: 2 
Note on, D3 key =  50;WhichDrum: T2 ; velocity: 0
@118440 , @6.245261627906977 Channel: 2 
Note on, G2 key =  43;WhichDrum: C2 ; velocity: 0
@118440 , @6.245261627906977 Channel: 2 
Note on, E2 key =  40;WhichDrum: S ; velocity: 127
@118500 , @6.2484253875969 Channel: 2 
Note on, E2 key =  40;WhichDrum: S ; velocity: 0
@118500 , @6.2484253875969 Channel: 2 
Note on, E2 key =  40;WhichDrum: S ; velocity: 127
@118560 , @6.251589147286822 Channel: 2 
Note on, E2 key =  40;WhichDrum: S ; velocity: 0
@118560 , @6.251589147286822 Channel: 2 
Note on, C#3 key =  49;WhichDrum: T3 ; velocity: 127
@118560 , @6.251589147286822 Channel: 2 
Note on, F#2 key =  42;WhichDrum: C1 ; velocity: 127
@118620 , @6.254752906976744 Channel: 2 
Note on, C#3 key =  49;WhichDrum: T3 ; velocity: 0
@118620 , @6.254752906976744 Channel: 2 
Note on, F#2 key =  42;WhichDrum: C1 ; velocity: 0
@118620 , @6.254752906976744 Channel: 2 
Note on, E2 key =  40;WhichDrum: S ; velocity: 127
@118680 , @6.2579166666666675 Channel: 2 
Note on, E2 key =  40;WhichDrum: S ; velocity: 0
@118680 , @6.2579166666666675 Channel: 2 
Note on, E2 key =  40;WhichDrum: S ; velocity: 127
@118740 , @6.26108042635659 Channel: 2 
Note on, E2 key =  40;WhichDrum: S ; velocity: 0
@118740 , @6.26108042635659 Channel: 2 
Note on, D3 key =  50;WhichDrum: T2 ; velocity: 127
@118740 , @6.26108042635659 Channel: 2 
Note on, G2 key =  43;WhichDrum: C2 ; velocity: 127
@118800 , @6.264244186046512 Channel: 2 
Note on, D3 key =  50;WhichDrum: T2 ; velocity: 0
@118800 , @6.264244186046512 Channel: 2 
Note on, G2 key =  43;WhichDrum: C2 ; velocity: 0
@118800 , @6.264244186046512 Channel: 2 
Note on, E2 key =  40;WhichDrum: S ; velocity: 127
@118860 , @6.2674079457364344 Channel: 2 
Note on, E2 key =  40;WhichDrum: S ; velocity: 0
@118860 , @6.2674079457364344 Channel: 2 
Note on, E2 key =  40;WhichDrum: S ; velocity: 127
@118920 , @6.270571705426357 Channel: 2 
Note on, E2 key =  40;WhichDrum: S ; velocity: 0
@118920 , @6.270571705426357 Channel: 2 
Note on, E3 key =  52;WhichDrum: S ; velocity: 127
@118920 , @6.270571705426357 Channel: 2 
Note on, A2 key =  45;WhichDrum: T3 ; velocity: 127
@118980 , @6.27373546511628 Channel: 2 
Note on, E3 key =  52;WhichDrum: S ; velocity: 0
@118980 , @6.27373546511628 Channel: 2 
Note on, A2 key =  45;WhichDrum: T3 ; velocity: 0
@118980 , @6.27373546511628 Channel: 2 
Note on, G2 key =  43;WhichDrum: C2 ; velocity: 127
@118980 , @6.27373546511628 Channel: 2 
Note on, D3 key =  50;WhichDrum: T2 ; velocity: 127
@119040 , @6.276899224806202 Channel: 2 
Note on, G2 key =  43;WhichDrum: C2 ; velocity: 0
@119040 , @6.276899224806202 Channel: 2 
Note on, D3 key =  50;WhichDrum: T2 ; velocity: 0
@119040 , @6.276899224806202 Channel: 2 
Note on, E2 key =  40;WhichDrum: S ; velocity: 127
@119100 , @6.280062984496125 Channel: 2 
Note on, E2 key =  40;WhichDrum: S ; velocity: 0
@119100 , @6.280062984496125 Channel: 2 
Note on, E2 key =  40;WhichDrum: S ; velocity: 127
@119160 , @6.283226744186047 Channel: 2 
Note on, E2 key =  40;WhichDrum: S ; velocity: 0
@119160 , @6.283226744186047 Channel: 2 
Note on, B2 key =  47;WhichDrum: T1 ; velocity: 127
@119160 , @6.283226744186047 Channel: 2 
Note on, E2 key =  40;WhichDrum: S ; velocity: 127
@119220 , @6.286390503875969 Channel: 2 
Note on, B2 key =  47;WhichDrum: T1 ; velocity: 0
@119220 , @6.286390503875969 Channel: 2 
Note on, E2 key =  40;WhichDrum: S ; velocity: 0
@119220 , @6.286390503875969 Channel: 2 
Note on, E2 key =  40;WhichDrum: S ; velocity: 127
@119280 , @6.289554263565892 Channel: 2 
Note on, E2 key =  40;WhichDrum: S ; velocity: 0
@119280 , @6.289554263565892 Channel: 2 
Note on, E2 key =  40;WhichDrum: S ; velocity: 127
@119340 , @6.292718023255815 Channel: 2 
Note on, E2 key =  40;WhichDrum: S ; velocity: 0
@119340 , @6.292718023255815 Channel: 2 
Note on, D3 key =  50;WhichDrum: T2 ; velocity: 127
@119340 , @6.292718023255815 Channel: 2 
Note on, G2 key =  43;WhichDrum: C2 ; velocity: 127
@119400 , @6.295881782945737 Channel: 2 
Note on, D3 key =  50;WhichDrum: T2 ; velocity: 0
@119400 , @6.295881782945737 Channel: 2 
Note on, G2 key =  43;WhichDrum: C2 ; velocity: 0
@119400 , @6.295881782945737 Channel: 2 
Note on, E2 key =  40;WhichDrum: S ; velocity: 127
@119460 , @6.2990455426356595 Channel: 2 
Note on, E2 key =  40;WhichDrum: S ; velocity: 0
@119460 , @6.2990455426356595 Channel: 2 
Note on, E2 key =  40;WhichDrum: S ; velocity: 127
@119520 , @6.302209302325582 Channel: 2 
Note on, E2 key =  40;WhichDrum: S ; velocity: 0
@119520 , @6.302209302325582 Channel: 2 
Note on, C#3 key =  49;WhichDrum: T3 ; velocity: 127
@119520 , @6.302209302325582 Channel: 2 
Note on, F#2 key =  42;WhichDrum: C1 ; velocity: 127
@119580 , @6.305373062015504 Channel: 2 
Note on, C#3 key =  49;WhichDrum: T3 ; velocity: 0
@119580 , @6.305373062015504 Channel: 2 
Note on, F#2 key =  42;WhichDrum: C1 ; velocity: 0
@119580 , @6.305373062015504 Channel: 2 
Note on, E2 key =  40;WhichDrum: S ; velocity: 127
@119640 , @6.3085368217054265 Channel: 2 
Note on, E2 key =  40;WhichDrum: S ; velocity: 0
@119640 , @6.3085368217054265 Channel: 2 
Note on, E2 key =  40;WhichDrum: S ; velocity: 127
@119700 , @6.31170058139535 Channel: 2 
Note on, E2 key =  40;WhichDrum: S ; velocity: 0
@119700 , @6.31170058139535 Channel: 2 
Note on, D3 key =  50;WhichDrum: T2 ; velocity: 127
@119700 , @6.31170058139535 Channel: 2 
Note on, G2 key =  43;WhichDrum: C2 ; velocity: 127
@119760 , @6.314864341085272 Channel: 2 
Note on, D3 key =  50;WhichDrum: T2 ; velocity: 0
@119760 , @6.314864341085272 Channel: 2 
Note on, G2 key =  43;WhichDrum: C2 ; velocity: 0
@119760 , @6.314864341085272 Channel: 2 
Note on, E2 key =  40;WhichDrum: S ; velocity: 127
@119820 , @6.318028100775194 Channel: 2 
Note on, E2 key =  40;WhichDrum: S ; velocity: 0
@119820 , @6.318028100775194 Channel: 2 
Note on, E2 key =  40;WhichDrum: S ; velocity: 127
@119880 , @6.321191860465117 Channel: 2 
Note on, E2 key =  40;WhichDrum: S ; velocity: 0
@119880 , @6.321191860465117 Channel: 2 
Note on, E3 key =  52;WhichDrum: S ; velocity: 127
@119880 , @6.321191860465117 Channel: 2 
Note on, A2 key =  45;WhichDrum: T3 ; velocity: 127
@119940 , @6.324355620155039 Channel: 2 
Note on, E3 key =  52;WhichDrum: S ; velocity: 0
@119940 , @6.324355620155039 Channel: 2 
Note on, A2 key =  45;WhichDrum: T3 ; velocity: 0
@119940 , @6.324355620155039 Channel: 2 
Note on, G2 key =  43;WhichDrum: C2 ; velocity: 127
@119940 , @6.324355620155039 Channel: 2 
Note on, D3 key =  50;WhichDrum: T2 ; velocity: 127
@120000 , @6.327519379844961 Channel: 2 
Note on, G2 key =  43;WhichDrum: C2 ; velocity: 0
@120000 , @6.327519379844961 Channel: 2 
Note on, D3 key =  50;WhichDrum: T2 ; velocity: 0
@120000 , @6.327519379844961 Channel: 2 
Note on, E2 key =  40;WhichDrum: S ; velocity: 127
@120060 , @6.330683139534884 Channel: 2 
Note on, E2 key =  40;WhichDrum: S ; velocity: 0
@120060 , @6.330683139534884 Channel: 2 
Note on, E2 key =  40;WhichDrum: S ; velocity: 127
@120120 , @6.333846899224806 Channel: 2 
Note on, E2 key =  40;WhichDrum: S ; velocity: 0
@120120 , @6.333846899224806 Channel: 2 
Note on, B2 key =  47;WhichDrum: T1 ; velocity: 127
@120120 , @6.333846899224806 Channel: 2 
Note on, E2 key =  40;WhichDrum: S ; velocity: 127
@120180 , @6.337010658914728 Channel: 2 
Note on, B2 key =  47;WhichDrum: T1 ; velocity: 0
@120180 , @6.337010658914728 Channel: 2 
Note on, E2 key =  40;WhichDrum: S ; velocity: 0
@120180 , @6.337010658914728 Channel: 2 
Note on, E2 key =  40;WhichDrum: S ; velocity: 127
@120240 , @6.340174418604651 Channel: 2 
Note on, E2 key =  40;WhichDrum: S ; velocity: 0
@120240 , @6.340174418604651 Channel: 2 
Note on, E2 key =  40;WhichDrum: S ; velocity: 127
@120300 , @6.343338178294574 Channel: 2 
Note on, E2 key =  40;WhichDrum: S ; velocity: 0
@120300 , @6.343338178294574 Channel: 2 
Note on, D3 key =  50;WhichDrum: T2 ; velocity: 127
@120300 , @6.343338178294574 Channel: 2 
Note on, G2 key =  43;WhichDrum: C2 ; velocity: 127
@120360 , @6.346501937984496 Channel: 2 
Note on, D3 key =  50;WhichDrum: T2 ; velocity: 0
@120360 , @6.346501937984496 Channel: 2 
Note on, G2 key =  43;WhichDrum: C2 ; velocity: 0
@120360 , @6.346501937984496 Channel: 2 
Note on, E2 key =  40;WhichDrum: S ; velocity: 127
@120420 , @6.349665697674419 Channel: 2 
Note on, E2 key =  40;WhichDrum: S ; velocity: 0
@120420 , @6.349665697674419 Channel: 2 
Note on, E2 key =  40;WhichDrum: S ; velocity: 127
@120480 , @6.352829457364341 Channel: 2 
Note on, E2 key =  40;WhichDrum: S ; velocity: 0
@120480 , @6.352829457364341 Channel: 2 
Note on, C#3 key =  49;WhichDrum: T3 ; velocity: 127
@120480 , @6.352829457364341 Channel: 2 
Note on, F#2 key =  42;WhichDrum: C1 ; velocity: 127
@120540 , @6.355993217054263 Channel: 2 
Note on, C#3 key =  49;WhichDrum: T3 ; velocity: 0
@120540 , @6.355993217054263 Channel: 2 
Note on, F#2 key =  42;WhichDrum: C1 ; velocity: 0
@120540 , @6.355993217054263 Channel: 2 
Note on, E2 key =  40;WhichDrum: S ; velocity: 127
@120600 , @6.359156976744186 Channel: 2 
Note on, E2 key =  40;WhichDrum: S ; velocity: 0
@120600 , @6.359156976744186 Channel: 2 
Note on, E2 key =  40;WhichDrum: S ; velocity: 127
@120660 , @6.362320736434109 Channel: 2 
Note on, E2 key =  40;WhichDrum: S ; velocity: 0
@120660 , @6.362320736434109 Channel: 2 
Note on, D3 key =  50;WhichDrum: T2 ; velocity: 127
@120660 , @6.362320736434109 Channel: 2 
Note on, G2 key =  43;WhichDrum: C2 ; velocity: 127
@120720 , @6.365484496124031 Channel: 2 
Note on, D3 key =  50;WhichDrum: T2 ; velocity: 0
@120720 , @6.365484496124031 Channel: 2 
Note on, G2 key =  43;WhichDrum: C2 ; velocity: 0
@120720 , @6.365484496124031 Channel: 2 
Note on, E2 key =  40;WhichDrum: S ; velocity: 127
@120780 , @6.368648255813953 Channel: 2 
Note on, E2 key =  40;WhichDrum: S ; velocity: 0
@120780 , @6.368648255813953 Channel: 2 
Note on, E2 key =  40;WhichDrum: S ; velocity: 127
@120840 , @6.371812015503876 Channel: 2 
Note on, E2 key =  40;WhichDrum: S ; velocity: 0
@120840 , @6.371812015503876 Channel: 2 
Note on, E3 key =  52;WhichDrum: S ; velocity: 127
@120840 , @6.371812015503876 Channel: 2 
Note on, A2 key =  45;WhichDrum: T3 ; velocity: 127
@120900 , @6.374975775193798 Channel: 2 
Note on, E3 key =  52;WhichDrum: S ; velocity: 0
@120900 , @6.374975775193798 Channel: 2 
Note on, A2 key =  45;WhichDrum: T3 ; velocity: 0
@120900 , @6.374975775193798 Channel: 2 
Note on, G2 key =  43;WhichDrum: C2 ; velocity: 127
@120900 , @6.374975775193798 Channel: 2 
Note on, D3 key =  50;WhichDrum: T2 ; velocity: 127
@120960 , @6.378139534883721 Channel: 2 
Note on, G2 key =  43;WhichDrum: C2 ; velocity: 0
@120960 , @6.378139534883721 Channel: 2 
Note on, D3 key =  50;WhichDrum: T2 ; velocity: 0
@120960 , @6.378139534883721 Channel: 2 
Note on, E2 key =  40;WhichDrum: S ; velocity: 127
@121020 , @6.381303294573644 Channel: 2 
Note on, E2 key =  40;WhichDrum: S ; velocity: 0
@121020 , @6.381303294573644 Channel: 2 
Note on, E2 key =  40;WhichDrum: S ; velocity: 127
@121080 , @6.384467054263566 Channel: 2 
Note on, E2 key =  40;WhichDrum: S ; velocity: 0
@121080 , @6.384467054263566 Channel: 2 
Note on, B2 key =  47;WhichDrum: T1 ; velocity: 127
@121080 , @6.384467054263566 Channel: 2 
Note on, E2 key =  40;WhichDrum: S ; velocity: 127
@121140 , @6.387630813953488 Channel: 2 
Note on, B2 key =  47;WhichDrum: T1 ; velocity: 0
@121140 , @6.387630813953488 Channel: 2 
Note on, E2 key =  40;WhichDrum: S ; velocity: 0
@121140 , @6.387630813953488 Channel: 2 
Note on, E2 key =  40;WhichDrum: S ; velocity: 127
@121200 , @6.390794573643411 Channel: 2 
Note on, E2 key =  40;WhichDrum: S ; velocity: 0
@121200 , @6.390794573643411 Channel: 2 
Note on, E2 key =  40;WhichDrum: S ; velocity: 127
@121260 , @6.393958333333333 Channel: 2 
Note on, E2 key =  40;WhichDrum: S ; velocity: 0
@121260 , @6.393958333333333 Channel: 2 
Note on, D3 key =  50;WhichDrum: T2 ; velocity: 127
@121260 , @6.393958333333333 Channel: 2 
Note on, G2 key =  43;WhichDrum: C2 ; velocity: 127
@121320 , @6.397122093023256 Channel: 2 
Note on, D3 key =  50;WhichDrum: T2 ; velocity: 0
@121320 , @6.397122093023256 Channel: 2 
Note on, G2 key =  43;WhichDrum: C2 ; velocity: 0
@121320 , @6.397122093023256 Channel: 2 
Note on, E2 key =  40;WhichDrum: S ; velocity: 127
@121380 , @6.4002858527131785 Channel: 2 
Note on, E2 key =  40;WhichDrum: S ; velocity: 0
@121380 , @6.4002858527131785 Channel: 2 
Note on, E2 key =  40;WhichDrum: S ; velocity: 127
@121440 , @6.403449612403101 Channel: 2 
Note on, E2 key =  40;WhichDrum: S ; velocity: 0
@121440 , @6.403449612403101 Channel: 2 
Note on, F#2 key =  42;WhichDrum: C1 ; velocity: 127
@121440 , @6.403449612403101 Channel: 2 
Note on, C#3 key =  49;WhichDrum: T3 ; velocity: 127
@121440 , @6.403449612403101 Channel: 2 
Note on, F#3 key =  54;WhichDrum: C1 ; velocity: 127
@121500 , @6.406613372093023 Channel: 2 
Note on, F#2 key =  42;WhichDrum: C1 ; velocity: 0
@121500 , @6.406613372093023 Channel: 2 
Note on, C#3 key =  49;WhichDrum: T3 ; velocity: 0
@121500 , @6.406613372093023 Channel: 2 
Note on, F#3 key =  54;WhichDrum: C1 ; velocity: 0
@121500 , @6.406613372093023 Channel: 2 
Note on, E2 key =  40;WhichDrum: S ; velocity: 127
@121560 , @6.4097771317829455 Channel: 2 
Note on, E2 key =  40;WhichDrum: S ; velocity: 0
@121560 , @6.4097771317829455 Channel: 2 
Note on, E2 key =  40;WhichDrum: S ; velocity: 127
@121620 , @6.412940891472868 Channel: 2 
Note on, E2 key =  40;WhichDrum: S ; velocity: 0
@121620 , @6.412940891472868 Channel: 2 
Note on, E2 key =  40;WhichDrum: S ; velocity: 127
@121680 , @6.416104651162791 Channel: 2 
Note on, E2 key =  40;WhichDrum: S ; velocity: 0
@121680 , @6.416104651162791 Channel: 2 
Note on, E2 key =  40;WhichDrum: S ; velocity: 127
@121740 , @6.419268410852713 Channel: 2 
Note on, E2 key =  40;WhichDrum: S ; velocity: 0
@121740 , @6.419268410852713 Channel: 2 
Note on, E2 key =  40;WhichDrum: S ; velocity: 127
@121800 , @6.422432170542636 Channel: 2 
Note on, E2 key =  40;WhichDrum: S ; velocity: 0
@121800 , @6.422432170542636 Channel: 2 
Note on, A2 key =  45;WhichDrum: T3 ; velocity: 127
@121800 , @6.422432170542636 Channel: 2 
Note on, E3 key =  52;WhichDrum: S ; velocity: 127
@121800 , @6.422432170542636 Channel: 2 
Note on, A3 key =  57;WhichDrum: T3 ; velocity: 127
@121860 , @6.425595930232558 Channel: 2 
Note on, A2 key =  45;WhichDrum: T3 ; velocity: 0
@121860 , @6.425595930232558 Channel: 2 
Note on, E3 key =  52;WhichDrum: S ; velocity: 0
@121860 , @6.425595930232558 Channel: 2 
Note on, A3 key =  57;WhichDrum: T3 ; velocity: 0
@121860 , @6.425595930232558 Channel: 2 
Note on, G3 key =  55;WhichDrum: C2 ; velocity: 127
@121860 , @6.425595930232558 Channel: 2 
Note on, D3 key =  50;WhichDrum: T2 ; velocity: 127
@121860 , @6.425595930232558 Channel: 2 
Note on, G2 key =  43;WhichDrum: C2 ; velocity: 127
@121920 , @6.42875968992248 Channel: 2 
Note on, G3 key =  55;WhichDrum: C2 ; velocity: 0
@121920 , @6.42875968992248 Channel: 2 
Note on, D3 key =  50;WhichDrum: T2 ; velocity: 0
@121920 , @6.42875968992248 Channel: 2 
Note on, G2 key =  43;WhichDrum: C2 ; velocity: 0
@121920 , @6.42875968992248 Channel: 2 
Note on, E2 key =  40;WhichDrum: S ; velocity: 127
@121980 , @6.431923449612404 Channel: 2 
Note on, E2 key =  40;WhichDrum: S ; velocity: 0
@121980 , @6.431923449612404 Channel: 2 
Note on, E2 key =  40;WhichDrum: S ; velocity: 127
@122040 , @6.435087209302326 Channel: 2 
Note on, E2 key =  40;WhichDrum: S ; velocity: 0
@122040 , @6.435087209302326 Channel: 2 
Note on, E4 key =  64;WhichDrum: S ; velocity: 127
@122100 , @6.438250968992248 Channel: 2 
Note on, E4 key =  64;WhichDrum: S ; velocity: 0
@122100 , @6.438250968992248 Channel: 2 
Note on, D4 key =  62;WhichDrum: T2 ; velocity: 127
@122160 , @6.441414728682171 Channel: 2 
Note on, D4 key =  62;WhichDrum: T2 ; velocity: 0
@122160 , @6.441414728682171 Channel: 2 
Note on, B3 key =  59;WhichDrum: T1 ; velocity: 127
@122220 , @6.444578488372093 Channel: 2 
Note on, B3 key =  59;WhichDrum: T1 ; velocity: 0
@122220 , @6.444578488372093 Channel: 2 
Note on, D4 key =  62;WhichDrum: T2 ; velocity: 127
@122280 , @6.447742248062015 Channel: 2 
Note on, D4 key =  62;WhichDrum: T2 ; velocity: 0
@122280 , @6.447742248062015 Channel: 2 
Note on, B3 key =  59;WhichDrum: T1 ; velocity: 127
@122340 , @6.4509060077519385 Channel: 2 
Note on, B3 key =  59;WhichDrum: T1 ; velocity: 0
@122340 , @6.4509060077519385 Channel: 2 
Note on, A#3 key =  58;WhichDrum: T2 ; velocity: 127
@122400 , @6.454069767441861 Channel: 2 
Note on, A#3 key =  58;WhichDrum: T2 ; velocity: 0
@122400 , @6.454069767441861 Channel: 2 
Note on, A3 key =  57;WhichDrum: T3 ; velocity: 127
@122460 , @6.457233527131783 Channel: 2 
Note on, A3 key =  57;WhichDrum: T3 ; velocity: 0
@122460 , @6.457233527131783 Channel: 2 
Note on, G3 key =  55;WhichDrum: C2 ; velocity: 127
@122520 , @6.460397286821705 Channel: 2 
Note on, G3 key =  55;WhichDrum: C2 ; velocity: 0
@122520 , @6.460397286821705 Channel: 2 
Note on, E4 key =  64;WhichDrum: S ; velocity: 127
@122580 , @6.463561046511628 Channel: 2 
Note on, E4 key =  64;WhichDrum: S ; velocity: 0
@122580 , @6.463561046511628 Channel: 2 
Note on, D4 key =  62;WhichDrum: T2 ; velocity: 127
@122640 , @6.46672480620155 Channel: 2 
Note on, D4 key =  62;WhichDrum: T2 ; velocity: 0
@122640 , @6.46672480620155 Channel: 2 
Note on, B3 key =  59;WhichDrum: T1 ; velocity: 127
@122700 , @6.469888565891473 Channel: 2 
Note on, B3 key =  59;WhichDrum: T1 ; velocity: 0
@122700 , @6.469888565891473 Channel: 2 
Note on, D4 key =  62;WhichDrum: T2 ; velocity: 127
@122760 , @6.473052325581396 Channel: 2 
Note on, D4 key =  62;WhichDrum: T2 ; velocity: 0
@122760 , @6.473052325581396 Channel: 2 
Note on, B3 key =  59;WhichDrum: T1 ; velocity: 127
@122820 , @6.476216085271318 Channel: 2 
Note on, B3 key =  59;WhichDrum: T1 ; velocity: 0
@122820 , @6.476216085271318 Channel: 2 
Note on, A#3 key =  58;WhichDrum: T2 ; velocity: 127
@122880 , @6.47937984496124 Channel: 2 
Note on, A#3 key =  58;WhichDrum: T2 ; velocity: 0
@122880 , @6.47937984496124 Channel: 2 
Note on, A3 key =  57;WhichDrum: T3 ; velocity: 127
@122940 , @6.482543604651163 Channel: 2 
Note on, A3 key =  57;WhichDrum: T3 ; velocity: 0
@122940 , @6.482543604651163 Channel: 2 
Note on, G3 key =  55;WhichDrum: C2 ; velocity: 127
@123000 , @6.485707364341086 Channel: 2 
Note on, G3 key =  55;WhichDrum: C2 ; velocity: 0
@123000 , @6.485707364341086 Channel: 2 
Note on, E4 key =  64;WhichDrum: S ; velocity: 127
@123060 , @6.488871124031008 Channel: 2 
Note on, E4 key =  64;WhichDrum: S ; velocity: 0
@123060 , @6.488871124031008 Channel: 2 
Note on, D4 key =  62;WhichDrum: T2 ; velocity: 127
@123120 , @6.4920348837209305 Channel: 2 
Note on, D4 key =  62;WhichDrum: T2 ; velocity: 0
@123120 , @6.4920348837209305 Channel: 2 
Note on, B3 key =  59;WhichDrum: T1 ; velocity: 127
@123180 , @6.495198643410853 Channel: 2 
Note on, B3 key =  59;WhichDrum: T1 ; velocity: 0
@123180 , @6.495198643410853 Channel: 2 
Note on, D4 key =  62;WhichDrum: T2 ; velocity: 127
@123240 , @6.498362403100775 Channel: 2 
Note on, D4 key =  62;WhichDrum: T2 ; velocity: 0
@123240 , @6.498362403100775 Channel: 2 
Note on, B3 key =  59;WhichDrum: T1 ; velocity: 127
@123300 , @6.5015261627906975 Channel: 2 
Note on, B3 key =  59;WhichDrum: T1 ; velocity: 0
@123300 , @6.5015261627906975 Channel: 2 
Note on, A#3 key =  58;WhichDrum: T2 ; velocity: 127
@123360 , @6.504689922480621 Channel: 2 
Note on, A#3 key =  58;WhichDrum: T2 ; velocity: 0
@123360 , @6.504689922480621 Channel: 2 
Note on, A3 key =  57;WhichDrum: T3 ; velocity: 127
@123420 , @6.507853682170543 Channel: 2 
Note on, A3 key =  57;WhichDrum: T3 ; velocity: 0
@123420 , @6.507853682170543 Channel: 2 
Note on, G3 key =  55;WhichDrum: C2 ; velocity: 127
@123480 , @6.511017441860465 Channel: 2 
Note on, G3 key =  55;WhichDrum: C2 ; velocity: 0
@123480 , @6.511017441860465 Channel: 2 
Note on, E2 key =  40;WhichDrum: S ; velocity: 127
@123540 , @6.514181201550388 Channel: 2 
Note on, E2 key =  40;WhichDrum: S ; velocity: 0
@123540 , @6.514181201550388 Channel: 2 
Note on, E2 key =  40;WhichDrum: S ; velocity: 127
@123600 , @6.51734496124031 Channel: 2 
Note on, E2 key =  40;WhichDrum: S ; velocity: 0
@123600 , @6.51734496124031 Channel: 2 
Note on, E2 key =  40;WhichDrum: S ; velocity: 127
@123660 , @6.520508720930232 Channel: 2 
Note on, E2 key =  40;WhichDrum: S ; velocity: 0
@123660 , @6.520508720930232 Channel: 2 
Note on, E2 key =  40;WhichDrum: S ; velocity: 127
@123720 , @6.523672480620156 Channel: 2 
Note on, E2 key =  40;WhichDrum: S ; velocity: 0
@123720 , @6.523672480620156 Channel: 2 
Note on, G4 key =  67;WhichDrum: C2 ; velocity: 127
@123720 , @6.523672480620156 Channel: 2 
Note on, D4 key =  62;WhichDrum: T2 ; velocity: 127
@123720 , @6.523672480620156 Channel: 2 
Note on, G3 key =  55;WhichDrum: C2 ; velocity: 127
@123720 , @6.523672480620156 Channel: 2 
Note on, E2 key =  40;WhichDrum: S ; velocity: 127
@123720 , @6.523672480620156 Channel: 2 
Command: 176

@123840 , @6.53 Channel: 2 
Note on, G4 key =  67;WhichDrum: C2 ; velocity: 0
@123840 , @6.53 Channel: 2 
Note on, D4 key =  62;WhichDrum: T2 ; velocity: 0
@123840 , @6.53 Channel: 2 
Note on, G3 key =  55;WhichDrum: C2 ; velocity: 0
@123840 , @6.53 Channel: 2 
Note on, E2 key =  40;WhichDrum: S ; velocity: 0
@123840 , @6.53 Other Message: class javax.sound.midi.Track$ImmutableEndOfTrack

Track 5: size = 999
@0 , @0.0 Other Message: class javax.sound.midi.MetaMessage

@0 , @0.0 Other Message: class javax.sound.midi.MetaMessage

@0 , @0.0 Channel: 3 
Command: 192

@0 , @0.0 Channel: 3 
Command: 176

@64140 , @3.382059108527132 Channel: 3 
Note on, B4 key =  71;WhichDrum: T1 ; velocity: 127
@64200 , @3.3852228682170544 Channel: 3 
Note on, B4 key =  71;WhichDrum: T1 ; velocity: 0
@64200 , @3.3852228682170544 Channel: 3 
Note on, D5 key =  74;WhichDrum: T2 ; velocity: 127
@64230 , @3.3868047480620156 Channel: 3 
Note on, D5 key =  74;WhichDrum: T2 ; velocity: 0
@64230 , @3.3868047480620156 Channel: 3 
Note on, E5 key =  76;WhichDrum: S ; velocity: 127
@64320 , @3.3915503875968995 Channel: 3 
Note on, E5 key =  76;WhichDrum: S ; velocity: 0
@64320 , @3.3915503875968995 Channel: 3 
Note on, G5 key =  79;WhichDrum: C2 ; velocity: 127
@64350 , @3.3931322674418603 Channel: 3 
Note on, G5 key =  79;WhichDrum: C2 ; velocity: 0
@64350 , @3.3931322674418603 Channel: 3 
Note on, E5 key =  76;WhichDrum: S ; velocity: 127
@64380 , @3.394714147286822 Channel: 3 
Note on, E5 key =  76;WhichDrum: S ; velocity: 0
@64380 , @3.394714147286822 Channel: 3 
Note on, B4 key =  71;WhichDrum: T1 ; velocity: 127
@64410 , @3.396296027131783 Channel: 3 
Note on, B4 key =  71;WhichDrum: T1 ; velocity: 0
@64410 , @3.396296027131783 Channel: 3 
Note on, E5 key =  76;WhichDrum: S ; velocity: 127
@64440 , @3.3978779069767446 Channel: 3 
Note on, E5 key =  76;WhichDrum: S ; velocity: 0
@64440 , @3.3978779069767446 Channel: 3 
Note on, G5 key =  79;WhichDrum: C2 ; velocity: 127
@64470 , @3.3994597868217054 Channel: 3 
Note on, G5 key =  79;WhichDrum: C2 ; velocity: 0
@64470 , @3.3994597868217054 Channel: 3 
Note on, E5 key =  76;WhichDrum: S ; velocity: 127
@64500 , @3.401041666666667 Channel: 3 
Note on, E5 key =  76;WhichDrum: S ; velocity: 0
@64500 , @3.401041666666667 Channel: 3 
Note on, A5 key =  81;WhichDrum: T3 ; velocity: 127
@64530 , @3.402623546511628 Channel: 3 
Note on, A5 key =  81;WhichDrum: T3 ; velocity: 0
@64530 , @3.402623546511628 Channel: 3 
Note on, E5 key =  76;WhichDrum: S ; velocity: 127
@64560 , @3.4042054263565897 Channel: 3 
Note on, E5 key =  76;WhichDrum: S ; velocity: 0
@64560 , @3.4042054263565897 Channel: 3 
Note on, G5 key =  79;WhichDrum: C2 ; velocity: 127
@64590 , @3.4057873062015505 Channel: 3 
Note on, G5 key =  79;WhichDrum: C2 ; velocity: 0
@64590 , @3.4057873062015505 Channel: 3 
Note on, E5 key =  76;WhichDrum: S ; velocity: 127
@64620 , @3.407369186046512 Channel: 3 
Note on, E5 key =  76;WhichDrum: S ; velocity: 0
@64620 , @3.407369186046512 Channel: 3 
Note on, D5 key =  74;WhichDrum: T2 ; velocity: 127
@64650 , @3.408951065891473 Channel: 3 
Note on, D5 key =  74;WhichDrum: T2 ; velocity: 0
@64650 , @3.408951065891473 Channel: 3 
Note on, E5 key =  76;WhichDrum: S ; velocity: 127
@64680 , @3.4105329457364344 Channel: 3 
Note on, E5 key =  76;WhichDrum: S ; velocity: 0
@64680 , @3.4105329457364344 Channel: 3 
Note on, G5 key =  79;WhichDrum: C2 ; velocity: 127
@64710 , @3.4121148255813956 Channel: 3 
Note on, G5 key =  79;WhichDrum: C2 ; velocity: 0
@64710 , @3.4121148255813956 Channel: 3 
Note on, E5 key =  76;WhichDrum: S ; velocity: 127
@64740 , @3.413696705426357 Channel: 3 
Note on, E5 key =  76;WhichDrum: S ; velocity: 0
@64740 , @3.413696705426357 Channel: 3 
Note on, A5 key =  81;WhichDrum: T3 ; velocity: 127
@64770 , @3.415278585271318 Channel: 3 
Note on, A5 key =  81;WhichDrum: T3 ; velocity: 0
@64770 , @3.415278585271318 Channel: 3 
Note on, E5 key =  76;WhichDrum: S ; velocity: 127
@64800 , @3.4168604651162795 Channel: 3 
Note on, E5 key =  76;WhichDrum: S ; velocity: 0
@64800 , @3.4168604651162795 Channel: 3 
Note on, G5 key =  79;WhichDrum: C2 ; velocity: 127
@64830 , @3.41844234496124 Channel: 3 
Note on, G5 key =  79;WhichDrum: C2 ; velocity: 0
@64830 , @3.41844234496124 Channel: 3 
Note on, E5 key =  76;WhichDrum: S ; velocity: 127
@64860 , @3.420024224806202 Channel: 3 
Note on, E5 key =  76;WhichDrum: S ; velocity: 0
@64860 , @3.420024224806202 Channel: 3 
Note on, D5 key =  74;WhichDrum: T2 ; velocity: 127
@64920 , @3.4231879844961246 Channel: 3 
Note on, D5 key =  74;WhichDrum: T2 ; velocity: 0
@64920 , @3.4231879844961246 Channel: 3 
Note on, E5 key =  76;WhichDrum: S ; velocity: 127
@64980 , @3.426351744186047 Channel: 3 
Note on, E5 key =  76;WhichDrum: S ; velocity: 0
@64980 , @3.426351744186047 Channel: 3 
Note on, D5 key =  74;WhichDrum: T2 ; velocity: 127
@65040 , @3.4295155038759693 Channel: 3 
Note on, D5 key =  74;WhichDrum: T2 ; velocity: 0
@65040 , @3.4295155038759693 Channel: 3 
Note on, E5 key =  76;WhichDrum: S ; velocity: 127
@65100 , @3.432679263565892 Channel: 3 
Note on, E5 key =  76;WhichDrum: S ; velocity: 0
@65100 , @3.432679263565892 Channel: 3 
Command: 224

@65100 , @3.432679263565892 Channel: 3 
Note on, D5 key =  74;WhichDrum: T2 ; velocity: 127
@65101 , @3.4327319928940567 Channel: 3 
Command: 224

@65102 , @3.4327847222222223 Channel: 3 
Command: 224

@65103 , @3.4328374515503874 Channel: 3 
Command: 224

@65104 , @3.432890180878553 Channel: 3 
Command: 224

@65105 , @3.4329429102067186 Channel: 3 
Command: 224

@65106 , @3.4329956395348837 Channel: 3 
Command: 224

@65107 , @3.4330483688630493 Channel: 3 
Command: 224

@65108 , @3.433101098191215 Channel: 3 
Command: 224

@65109 , @3.43315382751938 Channel: 3 
Command: 224

@65110 , @3.4332065568475456 Channel: 3 
Command: 224

@65280 , @3.4421705426356595 Channel: 3 
Command: 176

@65281 , @3.442223271963824 Channel: 3 
Command: 176

@65282 , @3.4422760012919897 Channel: 3 
Command: 176

@65283 , @3.442328730620155 Channel: 3 
Command: 176

@65284 , @3.4423814599483205 Channel: 3 
Command: 176

@65285 , @3.442434189276486 Channel: 3 
Command: 176

@65286 , @3.442486918604651 Channel: 3 
Command: 176

@65287 , @3.4425396479328167 Channel: 3 
Command: 176

@65288 , @3.442592377260982 Channel: 3 
Command: 176

@65289 , @3.4426451065891475 Channel: 3 
Command: 176

@65290 , @3.442697835917313 Channel: 3 
Command: 176

@65639 , @3.4611003714470288 Channel: 3 
Command: 176

@65639 , @3.4611003714470288 Channel: 3 
Command: 224

@65640 , @3.4611531007751943 Channel: 3 
Note on, D5 key =  74;WhichDrum: T2 ; velocity: 0
@66240 , @3.4927906976744185 Channel: 3 
Note on, B4 key =  71;WhichDrum: T1 ; velocity: 127
@66330 , @3.4975363372093025 Channel: 3 
Note on, B4 key =  71;WhichDrum: T1 ; velocity: 0
@66330 , @3.4975363372093025 Channel: 3 
Note on, B4 key =  71;WhichDrum: T1 ; velocity: 127
@66360 , @3.499118217054263 Channel: 3 
Note on, B4 key =  71;WhichDrum: T1 ; velocity: 0
@66360 , @3.499118217054263 Channel: 3 
Note on, D5 key =  74;WhichDrum: T2 ; velocity: 127
@66390 , @3.500700096899225 Channel: 3 
Note on, D5 key =  74;WhichDrum: T2 ; velocity: 0
@66390 , @3.500700096899225 Channel: 3 
Note on, B4 key =  71;WhichDrum: T1 ; velocity: 127
@66420 , @3.502281976744186 Channel: 3 
Note on, B4 key =  71;WhichDrum: T1 ; velocity: 0
@66420 , @3.502281976744186 Channel: 3 
Note on, A4 key =  69;WhichDrum: T3 ; velocity: 127
@66450 , @3.5038638565891476 Channel: 3 
Note on, A4 key =  69;WhichDrum: T3 ; velocity: 0
@66450 , @3.5038638565891476 Channel: 3 
Note on, B4 key =  71;WhichDrum: T1 ; velocity: 127
@66480 , @3.5054457364341083 Channel: 3 
Note on, B4 key =  71;WhichDrum: T1 ; velocity: 0
@66480 , @3.5054457364341083 Channel: 3 
Note on, B4 key =  71;WhichDrum: T1 ; velocity: 127
@66540 , @3.508609496124031 Channel: 3 
Note on, B4 key =  71;WhichDrum: T1 ; velocity: 0
@66540 , @3.508609496124031 Channel: 3 
Note on, A4 key =  69;WhichDrum: T3 ; velocity: 127
@66570 , @3.5101913759689927 Channel: 3 
Note on, A4 key =  69;WhichDrum: T3 ; velocity: 0
@66570 , @3.5101913759689927 Channel: 3 
Note on, F#4 key =  66;WhichDrum: C1 ; velocity: 127
@66600 , @3.5117732558139534 Channel: 3 
Note on, F#4 key =  66;WhichDrum: C1 ; velocity: 0
@66600 , @3.5117732558139534 Channel: 3 
Note on, A4 key =  69;WhichDrum: T3 ; velocity: 127
@66630 , @3.513355135658915 Channel: 3 
Note on, A4 key =  69;WhichDrum: T3 ; velocity: 0
@66630 , @3.513355135658915 Channel: 3 
Note on, F#4 key =  66;WhichDrum: C1 ; velocity: 127
@66660 , @3.5149370155038757 Channel: 3 
Note on, F#4 key =  66;WhichDrum: C1 ; velocity: 0
@66660 , @3.5149370155038757 Channel: 3 
Note on, E4 key =  64;WhichDrum: S ; velocity: 127
@66720 , @3.5181007751937985 Channel: 3 
Note on, E4 key =  64;WhichDrum: S ; velocity: 0
@66720 , @3.5181007751937985 Channel: 3 
Note on, D4 key =  62;WhichDrum: T2 ; velocity: 127
@66780 , @3.521264534883721 Channel: 3 
Note on, D4 key =  62;WhichDrum: T2 ; velocity: 0
@66780 , @3.521264534883721 Channel: 3 
Note on, B3 key =  59;WhichDrum: T1 ; velocity: 127
@66840 , @3.524428294573643 Channel: 3 
Note on, B3 key =  59;WhichDrum: T1 ; velocity: 0
@66840 , @3.524428294573643 Channel: 3 
Note on, D4 key =  62;WhichDrum: T2 ; velocity: 127
@66900 , @3.527592054263566 Channel: 3 
Note on, D4 key =  62;WhichDrum: T2 ; velocity: 0
@66900 , @3.527592054263566 Channel: 3 
Command: 224

@66900 , @3.527592054263566 Channel: 3 
Note on, E4 key =  64;WhichDrum: S ; velocity: 127
@66901 , @3.5276447835917315 Channel: 3 
Command: 224

@66902 , @3.527697512919897 Channel: 3 
Command: 224

@66903 , @3.527750242248062 Channel: 3 
Command: 224

@66904 , @3.527802971576228 Channel: 3 
Command: 224

@66905 , @3.5278557009043925 Channel: 3 
Command: 224

@66906 , @3.527908430232558 Channel: 3 
Command: 224

@66907 , @3.527961159560724 Channel: 3 
Command: 224

@66908 , @3.528013888888889 Channel: 3 
Command: 224

@66909 , @3.5280666182170544 Channel: 3 
Command: 224

@66910 , @3.52811934754522 Channel: 3 
Command: 224

@66911 , @3.528172076873385 Channel: 3 
Command: 224

@66912 , @3.5282248062015507 Channel: 3 
Command: 224

@66913 , @3.528277535529716 Channel: 3 
Command: 224

@66914 , @3.5283302648578814 Channel: 3 
Command: 224

@66915 , @3.528382994186047 Channel: 3 
Command: 224

@66916 , @3.5284357235142116 Channel: 3 
Command: 224

@66917 , @3.5284884528423777 Channel: 3 
Command: 224

@66918 , @3.5285411821705424 Channel: 3 
Command: 224

@66919 , @3.528593911498708 Channel: 3 
Command: 224

@66920 , @3.528646640826874 Channel: 3 
Command: 224

@66921 , @3.5286993701550387 Channel: 3 
Command: 224

@66922 , @3.5287520994832042 Channel: 3 
Command: 224

@66923 , @3.52880482881137 Channel: 3 
Command: 224

@66924 , @3.528857558139535 Channel: 3 
Command: 224

@66925 , @3.5289102874677005 Channel: 3 
Command: 224

@66926 , @3.5289630167958657 Channel: 3 
Command: 224

@66927 , @3.5290157461240312 Channel: 3 
Command: 224

@66928 , @3.529068475452197 Channel: 3 
Command: 224

@66929 , @3.5291212047803615 Channel: 3 
Command: 224

@66930 , @3.5291739341085275 Channel: 3 
Command: 224

@66931 , @3.5292266634366922 Channel: 3 
Command: 224

@66932 , @3.529279392764858 Channel: 3 
Command: 224

@66933 , @3.529332122093024 Channel: 3 
Command: 224

@66934 , @3.5293848514211885 Channel: 3 
Command: 224

@66935 , @3.529437580749354 Channel: 3 
Command: 224

@66936 , @3.5294903100775197 Channel: 3 
Command: 224

@66937 , @3.529543039405685 Channel: 3 
Command: 224

@66938 , @3.5295957687338504 Channel: 3 
Command: 224

@66939 , @3.5296484980620155 Channel: 3 
Command: 224

@66940 , @3.529701227390181 Channel: 3 
Command: 224

@66941 , @3.5297539567183467 Channel: 3 
Command: 224

@66942 , @3.5298066860465114 Channel: 3 
Command: 224

@66943 , @3.5298594153746774 Channel: 3 
Command: 224

@66944 , @3.529912144702842 Channel: 3 
Command: 224

@66945 , @3.5299648740310077 Channel: 3 
Command: 224

@66946 , @3.5300176033591733 Channel: 3 
Command: 224

@66947 , @3.5300703326873384 Channel: 3 
Command: 224

@66948 , @3.530123062015504 Channel: 3 
Command: 224

@66949 , @3.5301757913436695 Channel: 3 
Command: 224

@66950 , @3.5302285206718347 Channel: 3 
Command: 224

@66951 , @3.5302812500000003 Channel: 3 
Command: 224

@66952 , @3.5303339793281654 Channel: 3 
Command: 224

@66953 , @3.530386708656331 Channel: 3 
Command: 224

@66954 , @3.5304394379844966 Channel: 3 
Command: 224

@66955 , @3.5304921673126612 Channel: 3 
Command: 224

@66956 , @3.5305448966408273 Channel: 3 
Command: 224

@66957 , @3.530597625968992 Channel: 3 
Command: 224

@66958 , @3.5306503552971575 Channel: 3 
Command: 224

@66959 , @3.530703084625323 Channel: 3 
Command: 224

@66960 , @3.5307558139534883 Channel: 3 
Command: 224

@66990 , @3.53233769379845 Channel: 3 
Note on, E4 key =  64;WhichDrum: S ; velocity: 0
@66990 , @3.53233769379845 Channel: 3 
Note on, D4 key =  62;WhichDrum: T2 ; velocity: 127
@67020 , @3.5339195736434106 Channel: 3 
Note on, D4 key =  62;WhichDrum: T2 ; velocity: 0
@67020 , @3.5339195736434106 Channel: 3 
Note on, B3 key =  59;WhichDrum: T1 ; velocity: 127
@67080 , @3.5370833333333334 Channel: 3 
Command: 176

@67081 , @3.537136062661499 Channel: 3 
Command: 176

@67082 , @3.5371887919896645 Channel: 3 
Command: 176

@67083 , @3.5372415213178297 Channel: 3 
Command: 176

@67084 , @3.5372942506459952 Channel: 3 
Command: 176

@67085 , @3.53734697997416 Channel: 3 
Command: 176

@67086 , @3.5373997093023255 Channel: 3 
Command: 176

@67087 , @3.5374524386304915 Channel: 3 
Command: 176

@67088 , @3.537505167958656 Channel: 3 
Command: 176

@67089 , @3.537557897286822 Channel: 3 
Command: 176

@67090 , @3.537610626614987 Channel: 3 
Command: 176

@67680 , @3.568720930232558 Channel: 3 
Note on, B3 key =  59;WhichDrum: T1 ; velocity: 0
@67799 , @3.574995720284238 Channel: 3 
Command: 176

@68160 , @3.594031007751938 Channel: 3 
Command: 176

@68160 , @3.594031007751938 Channel: 3 
Command: 224

@68160 , @3.594031007751938 Channel: 3 
Note on, A5 key =  81;WhichDrum: T3 ; velocity: 127
@68161 , @3.5940837370801035 Channel: 3 
Command: 176

@68161 , @3.5940837370801035 Channel: 3 
Command: 224

@68162 , @3.5941364664082687 Channel: 3 
Command: 176

@68162 , @3.5941364664082687 Channel: 3 
Command: 224

@68163 , @3.5941891957364343 Channel: 3 
Command: 176

@68163 , @3.5941891957364343 Channel: 3 
Command: 224

@68164 , @3.5942419250646 Channel: 3 
Command: 176

@68164 , @3.5942419250646 Channel: 3 
Command: 224

@68165 , @3.594294654392765 Channel: 3 
Command: 176

@68165 , @3.594294654392765 Channel: 3 
Command: 224

@68166 , @3.5943473837209305 Channel: 3 
Command: 176

@68166 , @3.5943473837209305 Channel: 3 
Command: 224

@68167 , @3.594400113049096 Channel: 3 
Command: 176

@68167 , @3.594400113049096 Channel: 3 
Command: 224

@68168 , @3.594452842377261 Channel: 3 
Command: 176

@68168 , @3.594452842377261 Channel: 3 
Command: 224

@68169 , @3.594505571705427 Channel: 3 
Command: 176

@68169 , @3.594505571705427 Channel: 3 
Command: 224

@68170 , @3.5945583010335915 Channel: 3 
Command: 176

@68170 , @3.5945583010335915 Channel: 3 
Command: 224

@68339 , @3.6034695574935407 Channel: 3 
Command: 176

@68339 , @3.6034695574935407 Channel: 3 
Command: 224

@68340 , @3.6035222868217054 Channel: 3 
Note on, A5 key =  81;WhichDrum: T3 ; velocity: 0
@68340 , @3.6035222868217054 Channel: 3 
Note on, A#4 key =  70;WhichDrum: T2 ; velocity: 127
@68370 , @3.605104166666667 Channel: 3 
Note on, A#4 key =  70;WhichDrum: T2 ; velocity: 0
@68370 , @3.605104166666667 Channel: 3 
Note on, D5 key =  74;WhichDrum: T2 ; velocity: 127
@68400 , @3.6066860465116277 Channel: 3 
Note on, D5 key =  74;WhichDrum: T2 ; velocity: 0
@68400 , @3.6066860465116277 Channel: 3 
Note on, G#5 key =  80;WhichDrum: B ; velocity: 127
@68460 , @3.6098498062015505 Channel: 3 
Note on, G#5 key =  80;WhichDrum: B ; velocity: 0
@68460 , @3.6098498062015505 Channel: 3 
Note on, G5 key =  79;WhichDrum: C2 ; velocity: 127
@68520 , @3.613013565891473 Channel: 3 
Note on, G5 key =  79;WhichDrum: C2 ; velocity: 0
@68520 , @3.613013565891473 Channel: 3 
Note on, F#5 key =  78;WhichDrum: C1 ; velocity: 127
@68580 , @3.6161773255813956 Channel: 3 
Note on, F#5 key =  78;WhichDrum: C1 ; velocity: 0
@68580 , @3.6161773255813956 Channel: 3 
Note on, D5 key =  74;WhichDrum: T2 ; velocity: 127
@68640 , @3.619341085271318 Channel: 3 
Note on, D5 key =  74;WhichDrum: T2 ; velocity: 0
@68640 , @3.619341085271318 Channel: 3 
Note on, C#5 key =  73;WhichDrum: T3 ; velocity: 127
@68700 , @3.6225048449612403 Channel: 3 
Note on, C#5 key =  73;WhichDrum: T3 ; velocity: 0
@68700 , @3.6225048449612403 Channel: 3 
Note on, B4 key =  71;WhichDrum: T1 ; velocity: 127
@68760 , @3.625668604651163 Channel: 3 
Note on, B4 key =  71;WhichDrum: T1 ; velocity: 0
@68760 , @3.625668604651163 Channel: 3 
Note on, G4 key =  67;WhichDrum: C2 ; velocity: 127
@68820 , @3.6288323643410854 Channel: 3 
Note on, G4 key =  67;WhichDrum: C2 ; velocity: 0
@68820 , @3.6288323643410854 Channel: 3 
Command: 224

@68820 , @3.6288323643410854 Channel: 3 
Note on, D5 key =  74;WhichDrum: T2 ; velocity: 127
@68821 , @3.628885093669251 Channel: 3 
Command: 224

@68822 , @3.628937822997416 Channel: 3 
Command: 224

@68823 , @3.6289905523255817 Channel: 3 
Command: 224

@68824 , @3.6290432816537472 Channel: 3 
Command: 224

@68825 , @3.629096010981912 Channel: 3 
Command: 224

@68826 , @3.629148740310078 Channel: 3 
Command: 224

@68827 , @3.6292014696382426 Channel: 3 
Command: 224

@68828 , @3.629254198966408 Channel: 3 
Command: 224

@68829 , @3.6293069282945742 Channel: 3 
Command: 224

@68830 , @3.629359657622739 Channel: 3 
Command: 224

@68831 , @3.6294123869509045 Channel: 3 
Command: 224

@68832 , @3.62946511627907 Channel: 3 
Command: 224

@68833 , @3.6295178456072352 Channel: 3 
Command: 224

@68834 , @3.629570574935401 Channel: 3 
Command: 224

@68835 , @3.629623304263566 Channel: 3 
Command: 224

@68836 , @3.6296760335917315 Channel: 3 
Command: 224

@68837 , @3.629728762919897 Channel: 3 
Command: 224

@68838 , @3.629781492248062 Channel: 3 
Command: 224

@68839 , @3.629834221576228 Channel: 3 
Command: 224

@68840 , @3.6298869509043925 Channel: 3 
Command: 224

@68841 , @3.629939680232558 Channel: 3 
Command: 224

@68842 , @3.629992409560724 Channel: 3 
Command: 224

@68843 , @3.630045138888889 Channel: 3 
Command: 224

@68844 , @3.6300978682170544 Channel: 3 
Command: 224

@68845 , @3.63015059754522 Channel: 3 
Command: 224

@68846 , @3.630203326873385 Channel: 3 
Command: 224

@68847 , @3.6302560562015507 Channel: 3 
Command: 224

@68848 , @3.630308785529716 Channel: 3 
Command: 224

@68849 , @3.6303615148578814 Channel: 3 
Command: 224

@68850 , @3.630414244186047 Channel: 3 
Command: 224

@68851 , @3.6304669735142117 Channel: 3 
Command: 224

@68852 , @3.6305197028423777 Channel: 3 
Command: 224

@68853 , @3.6305724321705424 Channel: 3 
Command: 224

@68854 , @3.630625161498708 Channel: 3 
Command: 224

@68855 , @3.6306778908268735 Channel: 3 
Command: 224

@68856 , @3.6307306201550387 Channel: 3 
Command: 224

@68857 , @3.6307833494832042 Channel: 3 
Command: 224

@68858 , @3.63083607881137 Channel: 3 
Command: 224

@68859 , @3.630888808139535 Channel: 3 
Command: 224

@68860 , @3.6309415374677005 Channel: 3 
Command: 224

@68861 , @3.6309942667958657 Channel: 3 
Command: 224

@68862 , @3.6310469961240313 Channel: 3 
Command: 224

@68863 , @3.631099725452197 Channel: 3 
Command: 224

@68864 , @3.6311524547803615 Channel: 3 
Command: 224

@68865 , @3.6312051841085276 Channel: 3 
Command: 224

@68866 , @3.6312579134366922 Channel: 3 
Command: 224

@68867 , @3.631310642764858 Channel: 3 
Command: 224

@68868 , @3.6313633720930234 Channel: 3 
Command: 224

@68869 , @3.6314161014211885 Channel: 3 
Command: 224

@68870 , @3.631468830749354 Channel: 3 
Command: 224

@68871 , @3.6315215600775197 Channel: 3 
Command: 224

@68872 , @3.631574289405685 Channel: 3 
Command: 224

@68873 , @3.6316270187338504 Channel: 3 
Command: 224

@68874 , @3.6316797480620155 Channel: 3 
Command: 224

@68875 , @3.631732477390181 Channel: 3 
Command: 224

@68876 , @3.6317852067183467 Channel: 3 
Command: 224

@68877 , @3.6318379360465114 Channel: 3 
Command: 224

@68878 , @3.6318906653746774 Channel: 3 
Command: 224

@68879 , @3.631943394702842 Channel: 3 
Command: 224

@68880 , @3.6319961240310077 Channel: 3 
Command: 224

@68881 , @3.6320488533591733 Channel: 3 
Command: 224

@68882 , @3.6321015826873384 Channel: 3 
Command: 224

@68883 , @3.632154312015504 Channel: 3 
Command: 224

@68884 , @3.6322070413436696 Channel: 3 
Command: 224

@68885 , @3.6322597706718347 Channel: 3 
Command: 224

@68886 , @3.6323125000000003 Channel: 3 
Command: 224

@68887 , @3.6323652293281654 Channel: 3 
Command: 224

@68888 , @3.632417958656331 Channel: 3 
Command: 224

@68889 , @3.6324706879844966 Channel: 3 
Command: 224

@68890 , @3.6325234173126613 Channel: 3 
Command: 224

@68891 , @3.6325761466408273 Channel: 3 
Command: 224

@68892 , @3.632628875968992 Channel: 3 
Command: 224

@68893 , @3.6326816052971576 Channel: 3 
Command: 224

@68894 , @3.632734334625323 Channel: 3 
Command: 224

@68895 , @3.6327870639534883 Channel: 3 
Command: 224

@68896 , @3.632839793281654 Channel: 3 
Command: 224

@68897 , @3.6328925226098194 Channel: 3 
Command: 224

@68898 , @3.6329452519379846 Channel: 3 
Command: 224

@68899 , @3.63299798126615 Channel: 3 
Command: 224

@68900 , @3.6330507105943153 Channel: 3 
Command: 224

@68901 , @3.633103439922481 Channel: 3 
Command: 224

@68902 , @3.6331561692506464 Channel: 3 
Command: 224

@68903 , @3.633208898578811 Channel: 3 
Command: 224

@68904 , @3.633261627906977 Channel: 3 
Command: 224

@68905 , @3.6333143572351427 Channel: 3 
Command: 224

@68906 , @3.6333670865633074 Channel: 3 
Command: 224

@68907 , @3.633419815891473 Channel: 3 
Command: 224

@68908 , @3.633472545219638 Channel: 3 
Command: 224

@68909 , @3.6335252745478037 Channel: 3 
Command: 224

@68910 , @3.6335780038759693 Channel: 3 
Command: 224

@68911 , @3.6336307332041344 Channel: 3 
Command: 224

@68912 , @3.6336834625323 Channel: 3 
Command: 224

@68913 , @3.633736191860465 Channel: 3 
Command: 224

@68914 , @3.6337889211886307 Channel: 3 
Command: 224

@68915 , @3.6338416505167963 Channel: 3 
Command: 224

@68916 , @3.633894379844961 Channel: 3 
Command: 224

@68917 , @3.633947109173127 Channel: 3 
Command: 224

@68918 , @3.6339998385012926 Channel: 3 
Command: 224

@68919 , @3.6340525678294573 Channel: 3 
Command: 224

@68920 , @3.634105297157623 Channel: 3 
Command: 224

@68921 , @3.634158026485788 Channel: 3 
Command: 224

@68922 , @3.6342107558139536 Channel: 3 
Command: 224

@68923 , @3.634263485142119 Channel: 3 
Command: 224

@68924 , @3.6343162144702843 Channel: 3 
Command: 224

@68925 , @3.63436894379845 Channel: 3 
Command: 224

@68926 , @3.6344216731266146 Channel: 3 
Command: 224

@68927 , @3.6344744024547806 Channel: 3 
Command: 224

@68928 , @3.634527131782946 Channel: 3 
Command: 224

@68929 , @3.634579861111111 Channel: 3 
Command: 224

@68930 , @3.634632590439277 Channel: 3 
Command: 224

@68931 , @3.6346853197674425 Channel: 3 
Command: 224

@68932 , @3.634738049095607 Channel: 3 
Command: 224

@68933 , @3.6347907784237727 Channel: 3 
Command: 224

@68934 , @3.634843507751938 Channel: 3 
Command: 224

@68935 , @3.6348962370801035 Channel: 3 
Command: 224

@68936 , @3.634948966408269 Channel: 3 
Command: 224

@68937 , @3.635001695736434 Channel: 3 
Command: 224

@68938 , @3.6350544250645997 Channel: 3 
Command: 224

@68939 , @3.6351071543927644 Channel: 3 
Command: 224

@68940 , @3.6351598837209305 Channel: 3 
Command: 176

@68940 , @3.6351598837209305 Channel: 3 
Command: 224

@68941 , @3.635212613049096 Channel: 3 
Command: 176

@68942 , @3.6352653423772607 Channel: 3 
Command: 176

@68943 , @3.6353180717054268 Channel: 3 
Command: 176

@68944 , @3.6353708010335923 Channel: 3 
Command: 176

@68945 , @3.635423530361757 Channel: 3 
Command: 176

@68946 , @3.6354762596899226 Channel: 3 
Command: 176

@68947 , @3.6355289890180877 Channel: 3 
Command: 176

@68948 , @3.6355817183462533 Channel: 3 
Command: 176

@68949 , @3.635634447674419 Channel: 3 
Command: 176

@68950 , @3.635687177002584 Channel: 3 
Command: 176

@69299 , @3.6540897125322997 Channel: 3 
Command: 176

@69299 , @3.6540897125322997 Channel: 3 
Command: 224

@69420 , @3.66046996124031 Channel: 3 
Note on, D5 key =  74;WhichDrum: T2 ; velocity: 0
@69960 , @3.6889437984496127 Channel: 3 
Note on, A#5 key =  82;WhichDrum: T2 ; velocity: 127
@70020 , @3.692107558139535 Channel: 3 
Note on, A#5 key =  82;WhichDrum: T2 ; velocity: 0
@70020 , @3.692107558139535 Channel: 3 
Note on, C6 key =  84;WhichDrum: B ; velocity: 127
@70050 , @3.693689437984496 Channel: 3 
Note on, C6 key =  84;WhichDrum: B ; velocity: 0
@70050 , @3.693689437984496 Channel: 3 
Note on, C6 key =  84;WhichDrum: B ; velocity: 127
@70080 , @3.6952713178294574 Channel: 3 
Note on, C6 key =  84;WhichDrum: B ; velocity: 0
@70080 , @3.6952713178294574 Channel: 3 
Note on, D#6 key =  87;WhichDrum: T1 ; velocity: 127
@70110 , @3.6968531976744186 Channel: 3 
Note on, D#6 key =  87;WhichDrum: T1 ; velocity: 0
@70110 , @3.6968531976744186 Channel: 3 
Note on, C6 key =  84;WhichDrum: B ; velocity: 127
@70140 , @3.69843507751938 Channel: 3 
Note on, C6 key =  84;WhichDrum: B ; velocity: 0
@70140 , @3.69843507751938 Channel: 3 
Note on, A#5 key =  82;WhichDrum: T2 ; velocity: 127
@70170 , @3.700016957364341 Channel: 3 
Note on, A#5 key =  82;WhichDrum: T2 ; velocity: 0
@70170 , @3.700016957364341 Channel: 3 
Note on, D6 key =  86;WhichDrum: T2 ; velocity: 127
@70200 , @3.7015988372093025 Channel: 3 
Note on, D6 key =  86;WhichDrum: T2 ; velocity: 0
@70200 , @3.7015988372093025 Channel: 3 
Note on, B5 key =  83;WhichDrum: T1 ; velocity: 127
@70230 , @3.703180717054263 Channel: 3 
Note on, B5 key =  83;WhichDrum: T1 ; velocity: 0
@70230 , @3.703180717054263 Channel: 3 
Note on, B5 key =  83;WhichDrum: T1 ; velocity: 127
@70260 , @3.704762596899225 Channel: 3 
Note on, B5 key =  83;WhichDrum: T1 ; velocity: 0
@70260 , @3.704762596899225 Channel: 3 
Note on, C#6 key =  85;WhichDrum: T3 ; velocity: 127
@70290 , @3.706344476744186 Channel: 3 
Note on, C#6 key =  85;WhichDrum: T3 ; velocity: 0
@70290 , @3.706344476744186 Channel: 3 
Note on, C#6 key =  85;WhichDrum: T3 ; velocity: 127
@70320 , @3.7079263565891476 Channel: 3 
Note on, C#6 key =  85;WhichDrum: T3 ; velocity: 0
@70320 , @3.7079263565891476 Channel: 3 
Note on, A5 key =  81;WhichDrum: T3 ; velocity: 127
@70350 , @3.7095082364341083 Channel: 3 
Note on, A5 key =  81;WhichDrum: T3 ; velocity: 0
@70350 , @3.7095082364341083 Channel: 3 
Note on, G5 key =  79;WhichDrum: C2 ; velocity: 127
@70380 , @3.71109011627907 Channel: 3 
Note on, G5 key =  79;WhichDrum: C2 ; velocity: 0
@70380 , @3.71109011627907 Channel: 3 
Note on, B5 key =  83;WhichDrum: T1 ; velocity: 127
@70410 , @3.7126719961240306 Channel: 3 
Note on, B5 key =  83;WhichDrum: T1 ; velocity: 0
@70410 , @3.7126719961240306 Channel: 3 
Note on, G#5 key =  80;WhichDrum: B ; velocity: 127
@70440 , @3.7142538759689923 Channel: 3 
Note on, G#5 key =  80;WhichDrum: B ; velocity: 0
@70440 , @3.7142538759689923 Channel: 3 
Note on, F#5 key =  78;WhichDrum: C1 ; velocity: 127
@70470 , @3.7158357558139534 Channel: 3 
Note on, F#5 key =  78;WhichDrum: C1 ; velocity: 0
@70470 , @3.7158357558139534 Channel: 3 
Note on, F#5 key =  78;WhichDrum: C1 ; velocity: 127
@70500 , @3.717417635658915 Channel: 3 
Note on, F#5 key =  78;WhichDrum: C1 ; velocity: 0
@70500 , @3.717417635658915 Channel: 3 
Note on, A5 key =  81;WhichDrum: T3 ; velocity: 127
@70520 , @3.718472222222222 Channel: 3 
Note on, A5 key =  81;WhichDrum: T3 ; velocity: 0
@70520 , @3.718472222222222 Channel: 3 
Note on, F#5 key =  78;WhichDrum: C1 ; velocity: 127
@70540 , @3.71952680878553 Channel: 3 
Note on, F#5 key =  78;WhichDrum: C1 ; velocity: 0
@70540 , @3.71952680878553 Channel: 3 
Note on, E5 key =  76;WhichDrum: S ; velocity: 127
@70560 , @3.7205813953488374 Channel: 3 
Note on, E5 key =  76;WhichDrum: S ; velocity: 0
@70560 , @3.7205813953488374 Channel: 3 
Note on, G#5 key =  80;WhichDrum: B ; velocity: 127
@70590 , @3.7221632751937985 Channel: 3 
Note on, G#5 key =  80;WhichDrum: B ; velocity: 0
@70590 , @3.7221632751937985 Channel: 3 
Note on, E5 key =  76;WhichDrum: S ; velocity: 127
@70620 , @3.72374515503876 Channel: 3 
Note on, E5 key =  76;WhichDrum: S ; velocity: 0
@70620 , @3.72374515503876 Channel: 3 
Note on, D#5 key =  75;WhichDrum: T1 ; velocity: 127
@70650 , @3.725327034883721 Channel: 3 
Note on, D#5 key =  75;WhichDrum: T1 ; velocity: 0
@70650 , @3.725327034883721 Channel: 3 
Note on, F#5 key =  78;WhichDrum: C1 ; velocity: 127
@70680 , @3.7269089147286825 Channel: 3 
Note on, F#5 key =  78;WhichDrum: C1 ; velocity: 0
@70680 , @3.7269089147286825 Channel: 3 
Note on, E5 key =  76;WhichDrum: S ; velocity: 127
@70710 , @3.728490794573643 Channel: 3 
Note on, E5 key =  76;WhichDrum: S ; velocity: 0
@70710 , @3.728490794573643 Channel: 3 
Note on, D#5 key =  75;WhichDrum: T1 ; velocity: 127
@70740 , @3.730072674418605 Channel: 3 
Note on, D#5 key =  75;WhichDrum: T1 ; velocity: 0
@70740 , @3.730072674418605 Channel: 3 
Note on, C#5 key =  73;WhichDrum: T3 ; velocity: 127
@70770 , @3.731654554263566 Channel: 3 
Note on, C#5 key =  73;WhichDrum: T3 ; velocity: 0
@70770 , @3.731654554263566 Channel: 3 
Note on, B4 key =  71;WhichDrum: T1 ; velocity: 127
@70800 , @3.7332364341085276 Channel: 3 
Note on, B4 key =  71;WhichDrum: T1 ; velocity: 0
@70800 , @3.7332364341085276 Channel: 3 
Note on, D5 key =  74;WhichDrum: T2 ; velocity: 127
@70830 , @3.7348183139534883 Channel: 3 
Note on, D5 key =  74;WhichDrum: T2 ; velocity: 0
@70830 , @3.7348183139534883 Channel: 3 
Note on, B4 key =  71;WhichDrum: T1 ; velocity: 127
@70860 , @3.73640019379845 Channel: 3 
Note on, B4 key =  71;WhichDrum: T1 ; velocity: 0
@70860 , @3.73640019379845 Channel: 3 
Note on, A4 key =  69;WhichDrum: T3 ; velocity: 127
@70890 , @3.7379820736434106 Channel: 3 
Note on, A4 key =  69;WhichDrum: T3 ; velocity: 0
@70890 , @3.7379820736434106 Channel: 3 
Note on, B4 key =  71;WhichDrum: T1 ; velocity: 127
@70920 , @3.7395639534883722 Channel: 3 
Note on, B4 key =  71;WhichDrum: T1 ; velocity: 0
@70920 , @3.7395639534883722 Channel: 3 
Note on, D5 key =  74;WhichDrum: T2 ; velocity: 127
@70950 , @3.7411458333333334 Channel: 3 
Note on, D5 key =  74;WhichDrum: T2 ; velocity: 0
@70950 , @3.7411458333333334 Channel: 3 
Note on, B4 key =  71;WhichDrum: T1 ; velocity: 127
@70980 , @3.742727713178295 Channel: 3 
Note on, B4 key =  71;WhichDrum: T1 ; velocity: 0
@70980 , @3.742727713178295 Channel: 3 
Note on, A4 key =  69;WhichDrum: T3 ; velocity: 127
@71010 , @3.7443095930232557 Channel: 3 
Note on, A4 key =  69;WhichDrum: T3 ; velocity: 0
@71010 , @3.7443095930232557 Channel: 3 
Note on, F#4 key =  66;WhichDrum: C1 ; velocity: 127
@71040 , @3.7458914728682173 Channel: 3 
Note on, F#4 key =  66;WhichDrum: C1 ; velocity: 0
@71040 , @3.7458914728682173 Channel: 3 
Note on, A4 key =  69;WhichDrum: T3 ; velocity: 127
@71070 , @3.747473352713178 Channel: 3 
Note on, A4 key =  69;WhichDrum: T3 ; velocity: 0
@71070 , @3.747473352713178 Channel: 3 
Note on, F#4 key =  66;WhichDrum: C1 ; velocity: 127
@71100 , @3.7490552325581397 Channel: 3 
Note on, F#4 key =  66;WhichDrum: C1 ; velocity: 0
@71100 , @3.7490552325581397 Channel: 3 
Note on, E4 key =  64;WhichDrum: S ; velocity: 127
@71160 , @3.7522189922480624 Channel: 3 
Note on, E4 key =  64;WhichDrum: S ; velocity: 0
@71160 , @3.7522189922480624 Channel: 3 
Note on, D4 key =  62;WhichDrum: T2 ; velocity: 127
@71220 , @3.7553827519379848 Channel: 3 
Note on, D4 key =  62;WhichDrum: T2 ; velocity: 0
@71220 , @3.7553827519379848 Channel: 3 
Note on, E4 key =  64;WhichDrum: S ; velocity: 127
@71280 , @3.758546511627907 Channel: 3 
Note on, E4 key =  64;WhichDrum: S ; velocity: 0
@71280 , @3.758546511627907 Channel: 3 
Note on, F#4 key =  66;WhichDrum: C1 ; velocity: 127
@71340 , @3.76171027131783 Channel: 3 
Note on, F#4 key =  66;WhichDrum: C1 ; velocity: 0
@71340 , @3.76171027131783 Channel: 3 
Note on, E4 key =  64;WhichDrum: S ; velocity: 127
@71400 , @3.764874031007752 Channel: 3 
Note on, E4 key =  64;WhichDrum: S ; velocity: 0
@71400 , @3.764874031007752 Channel: 3 
Command: 224

@71400 , @3.764874031007752 Channel: 3 
Note on, E4 key =  64;WhichDrum: S ; velocity: 127
@71401 , @3.7649267603359173 Channel: 3 
Command: 224

@71402 , @3.764979489664083 Channel: 3 
Command: 224

@71403 , @3.7650322189922485 Channel: 3 
Command: 224

@71404 , @3.7650849483204136 Channel: 3 
Command: 224

@71405 , @3.765137677648579 Channel: 3 
Command: 224

@71406 , @3.765190406976744 Channel: 3 
Command: 224

@71407 , @3.7652431363049095 Channel: 3 
Command: 224

@71408 , @3.7652958656330755 Channel: 3 
Command: 224

@71409 , @3.76534859496124 Channel: 3 
Command: 224

@71410 , @3.7654013242894058 Channel: 3 
Command: 224

@71411 , @3.7654540536175714 Channel: 3 
Command: 224

@71412 , @3.7655067829457365 Channel: 3 
Command: 224

@71413 , @3.765559512273902 Channel: 3 
Command: 224

@71414 , @3.765612241602067 Channel: 3 
Command: 224

@71415 , @3.765664970930233 Channel: 3 
Command: 224

@71416 , @3.7657177002583984 Channel: 3 
Command: 224

@71417 , @3.765770429586563 Channel: 3 
Command: 224

@71418 , @3.765823158914729 Channel: 3 
Command: 224

@71419 , @3.7658758882428938 Channel: 3 
Command: 224

@71420 , @3.7659286175710593 Channel: 3 
Command: 224

@71421 , @3.7659813468992254 Channel: 3 
Command: 224

@71422 , @3.76603407622739 Channel: 3 
Command: 224

@71423 , @3.7660868055555556 Channel: 3 
Command: 224

@71424 , @3.766139534883721 Channel: 3 
Command: 224

@71425 , @3.7661922642118864 Channel: 3 
Command: 224

@71426 , @3.766244993540052 Channel: 3 
Command: 224

@71427 , @3.766297722868217 Channel: 3 
Command: 224

@71428 , @3.7663504521963826 Channel: 3 
Command: 224

@71429 , @3.7664031815245482 Channel: 3 
Command: 224

@71430 , @3.766455910852713 Channel: 3 
Command: 224

@71431 , @3.766508640180879 Channel: 3 
Command: 224

@71432 , @3.7665613695090445 Channel: 3 
Command: 224

@71433 , @3.766614098837209 Channel: 3 
Command: 224

@71434 , @3.766666828165375 Channel: 3 
Command: 224

@71435 , @3.76671955749354 Channel: 3 
Command: 224

@71436 , @3.7667722868217055 Channel: 3 
Command: 224

@71437 , @3.766825016149871 Channel: 3 
Command: 224

@71438 , @3.766877745478036 Channel: 3 
Command: 224

@71439 , @3.766930474806202 Channel: 3 
Command: 224

@71440 , @3.766983204134367 Channel: 3 
Command: 224

@71441 , @3.7670359334625325 Channel: 3 
Command: 224

@71442 , @3.767088662790698 Channel: 3 
Command: 224

@71443 , @3.767141392118863 Channel: 3 
Command: 224

@71444 , @3.767194121447029 Channel: 3 
Command: 224

@71445 , @3.7672468507751944 Channel: 3 
Command: 224

@71446 , @3.767299580103359 Channel: 3 
Command: 224

@71447 , @3.7673523094315247 Channel: 3 
Command: 224

@71448 , @3.76740503875969 Channel: 3 
Command: 224

@71449 , @3.7674577680878554 Channel: 3 
Command: 224

@71450 , @3.767510497416021 Channel: 3 
Command: 224

@71451 , @3.767563226744186 Channel: 3 
Command: 224

@71452 , @3.7676159560723517 Channel: 3 
Command: 224

@71453 , @3.767668685400517 Channel: 3 
Command: 224

@71454 , @3.7677214147286824 Channel: 3 
Command: 224

@71455 , @3.767774144056848 Channel: 3 
Command: 224

@71456 , @3.7678268733850127 Channel: 3 
Command: 224

@71457 , @3.7678796027131787 Channel: 3 
Command: 224

@71458 , @3.7679323320413443 Channel: 3 
Command: 224

@71459 , @3.767985061369509 Channel: 3 
Command: 224

@71460 , @3.7680377906976745 Channel: 3 
Command: 224

@71490 , @3.7696196705426357 Channel: 3 
Note on, E4 key =  64;WhichDrum: S ; velocity: 0
@71490 , @3.7696196705426357 Channel: 3 
Note on, D4 key =  62;WhichDrum: T2 ; velocity: 127
@71520 , @3.7712015503875973 Channel: 3 
Note on, D4 key =  62;WhichDrum: T2 ; velocity: 0
@71520 , @3.7712015503875973 Channel: 3 
Note on, E4 key =  64;WhichDrum: S ; velocity: 127
@71580 , @3.7743653100775196 Channel: 3 
Note on, E4 key =  64;WhichDrum: S ; velocity: 0
@71580 , @3.7743653100775196 Channel: 3 
Note on, D4 key =  62;WhichDrum: T2 ; velocity: 127
@71640 , @3.7775290697674424 Channel: 3 
Note on, D4 key =  62;WhichDrum: T2 ; velocity: 0
@71640 , @3.7775290697674424 Channel: 3 
Note on, B3 key =  59;WhichDrum: T1 ; velocity: 127
@71700 , @3.7806928294573647 Channel: 3 
Note on, B3 key =  59;WhichDrum: T1 ; velocity: 0
@71700 , @3.7806928294573647 Channel: 3 
Note on, D4 key =  62;WhichDrum: T2 ; velocity: 127
@71760 , @3.783856589147287 Channel: 3 
Command: 176

@71761 , @3.783909318475452 Channel: 3 
Command: 176

@71762 , @3.783962047803618 Channel: 3 
Command: 176

@71763 , @3.7840147771317834 Channel: 3 
Command: 176

@71764 , @3.7840675064599485 Channel: 3 
Command: 176

@71765 , @3.784120235788114 Channel: 3 
Command: 176

@71766 , @3.7841729651162788 Channel: 3 
Command: 176

@71767 , @3.7842256944444443 Channel: 3 
Command: 176

@71768 , @3.7842784237726104 Channel: 3 
Command: 176

@71769 , @3.784331153100775 Channel: 3 
Command: 176

@71770 , @3.7843838824289406 Channel: 3 
Command: 176

@71879 , @3.7901313791989666 Channel: 3 
Command: 176

@71880 , @3.790184108527132 Channel: 3 
Note on, D4 key =  62;WhichDrum: T2 ; velocity: 0
@71880 , @3.790184108527132 Channel: 3 
Note on, A2 key =  45;WhichDrum: T3 ; velocity: 127
@71940 , @3.7933478682170545 Channel: 3 
Note on, A2 key =  45;WhichDrum: T3 ; velocity: 0
@71940 , @3.7933478682170545 Channel: 3 
Note on, A2 key =  45;WhichDrum: T3 ; velocity: 127
@72000 , @3.7965116279069773 Channel: 3 
Note on, A2 key =  45;WhichDrum: T3 ; velocity: 0
@72000 , @3.7965116279069773 Channel: 3 
Note on, B2 key =  47;WhichDrum: T1 ; velocity: 127
@72060 , @3.7996753875968996 Channel: 3 
Note on, B2 key =  47;WhichDrum: T1 ; velocity: 0
@72060 , @3.7996753875968996 Channel: 3 
Note on, D3 key =  50;WhichDrum: T2 ; velocity: 127
@72120 , @3.802839147286822 Channel: 3 
Note on, D3 key =  50;WhichDrum: T2 ; velocity: 0
@72120 , @3.802839147286822 Channel: 3 
Note on, F#3 key =  54;WhichDrum: C1 ; velocity: 127
@72180 , @3.8060029069767447 Channel: 3 
Note on, F#3 key =  54;WhichDrum: C1 ; velocity: 0
@72180 , @3.8060029069767447 Channel: 3 
Note on, A3 key =  57;WhichDrum: T3 ; velocity: 127
@72240 , @3.809166666666667 Channel: 3 
Note on, A3 key =  57;WhichDrum: T3 ; velocity: 0
@72240 , @3.809166666666667 Channel: 3 
Note on, B3 key =  59;WhichDrum: T1 ; velocity: 127
@72270 , @3.8107485465116278 Channel: 3 
Note on, B3 key =  59;WhichDrum: T1 ; velocity: 0
@72270 , @3.8107485465116278 Channel: 3 
Note on, A3 key =  57;WhichDrum: T3 ; velocity: 127
@72300 , @3.8123304263565894 Channel: 3 
Note on, A3 key =  57;WhichDrum: T3 ; velocity: 0
@72300 , @3.8123304263565894 Channel: 3 
Note on, F#3 key =  54;WhichDrum: C1 ; velocity: 127
@72360 , @3.815494186046512 Channel: 3 
Note on, F#3 key =  54;WhichDrum: C1 ; velocity: 0
@72360 , @3.815494186046512 Channel: 3 
Note on, A3 key =  57;WhichDrum: T3 ; velocity: 127
@72390 , @3.817076065891473 Channel: 3 
Note on, A3 key =  57;WhichDrum: T3 ; velocity: 0
@72390 , @3.817076065891473 Channel: 3 
Note on, B3 key =  59;WhichDrum: T1 ; velocity: 127
@72420 , @3.8186579457364345 Channel: 3 
Note on, B3 key =  59;WhichDrum: T1 ; velocity: 0
@72420 , @3.8186579457364345 Channel: 3 
Note on, B3 key =  59;WhichDrum: T1 ; velocity: 127
@72480 , @3.821821705426357 Channel: 3 
Note on, B3 key =  59;WhichDrum: T1 ; velocity: 0
@72480 , @3.821821705426357 Channel: 3 
Note on, D4 key =  62;WhichDrum: T2 ; velocity: 127
@72540 , @3.8249854651162796 Channel: 3 
Note on, D4 key =  62;WhichDrum: T2 ; velocity: 0
@72540 , @3.8249854651162796 Channel: 3 
Note on, E4 key =  64;WhichDrum: S ; velocity: 127
@72600 , @3.828149224806202 Channel: 3 
Note on, E4 key =  64;WhichDrum: S ; velocity: 0
@72600 , @3.828149224806202 Channel: 3 
Command: 224

@72600 , @3.828149224806202 Channel: 3 
Note on, E4 key =  64;WhichDrum: S ; velocity: 127
@72601 , @3.828201954134367 Channel: 3 
Command: 224

@72602 , @3.8282546834625326 Channel: 3 
Command: 224

@72603 , @3.8283074127906973 Channel: 3 
Command: 224

@72604 , @3.8283601421188633 Channel: 3 
Command: 224

@72605 , @3.828412871447029 Channel: 3 
Command: 224

@72606 , @3.8284656007751936 Channel: 3 
Command: 224

@72607 , @3.828518330103359 Channel: 3 
Command: 224

@72608 , @3.828571059431525 Channel: 3 
Command: 224

@72609 , @3.82862378875969 Channel: 3 
Command: 224

@72610 , @3.8286765180878555 Channel: 3 
Command: 224

@72611 , @3.8287292474160206 Channel: 3 
Command: 224

@72612 , @3.828781976744186 Channel: 3 
Command: 224

@72613 , @3.8288347060723518 Channel: 3 
Command: 224

@72614 , @3.828887435400517 Channel: 3 
Command: 224

@72615 , @3.8289401647286825 Channel: 3 
Command: 224

@72616 , @3.828992894056847 Channel: 3 
Command: 224

@72617 , @3.829045623385013 Channel: 3 
Command: 224

@72618 , @3.8290983527131788 Channel: 3 
Command: 224

@72619 , @3.8291510820413435 Channel: 3 
Command: 224

@72620 , @3.829203811369509 Channel: 3 
Command: 224

@72621 , @3.829256540697675 Channel: 3 
Command: 224

@72622 , @3.8293092700258398 Channel: 3 
Command: 224

@72623 , @3.8293619993540053 Channel: 3 
Command: 224

@72624 , @3.8294147286821705 Channel: 3 
Command: 224

@72625 , @3.829467458010336 Channel: 3 
Command: 224

@72626 , @3.8295201873385016 Channel: 3 
Command: 224

@72627 , @3.8295729166666668 Channel: 3 
Command: 224

@72628 , @3.8296256459948324 Channel: 3 
Command: 224

@72629 , @3.829678375322997 Channel: 3 
Command: 224

@72630 , @3.829731104651163 Channel: 3 
Command: 224

@72631 , @3.8297838339793286 Channel: 3 
Command: 224

@72632 , @3.8298365633074933 Channel: 3 
Command: 224

@72633 , @3.829889292635659 Channel: 3 
Command: 224

@72634 , @3.829942021963825 Channel: 3 
Command: 224

@72635 , @3.8299947512919896 Channel: 3 
Command: 224

@72636 , @3.830047480620155 Channel: 3 
Command: 224

@72637 , @3.8301002099483203 Channel: 3 
Command: 224

@72638 , @3.830152939276486 Channel: 3 
Command: 224

@72639 , @3.8302056686046515 Channel: 3 
Command: 224

@72640 , @3.8302583979328166 Channel: 3 
Command: 224

@72641 , @3.830311127260982 Channel: 3 
Command: 224

@72642 , @3.830363856589148 Channel: 3 
Command: 224

@72643 , @3.830416585917313 Channel: 3 
Command: 224

@72644 , @3.8304693152454785 Channel: 3 
Command: 224

@72645 , @3.830522044573643 Channel: 3 
Command: 224

@72646 , @3.830574773901809 Channel: 3 
Command: 224

@72647 , @3.830627503229975 Channel: 3 
Command: 224

@72648 , @3.8306802325581395 Channel: 3 
Command: 224

@72649 , @3.830732961886305 Channel: 3 
Command: 224

@72650 , @3.83078569121447 Channel: 3 
Command: 224

@72651 , @3.830838420542636 Channel: 3 
Command: 224

@72652 , @3.8308911498708014 Channel: 3 
Command: 224

@72653 , @3.8309438791989665 Channel: 3 
Command: 224

@72654 , @3.830996608527132 Channel: 3 
Command: 224

@72655 , @3.8310493378552977 Channel: 3 
Command: 224

@72656 , @3.8311020671834624 Channel: 3 
Command: 224

@72657 , @3.8311547965116284 Channel: 3 
Command: 224

@72658 , @3.831207525839793 Channel: 3 
Command: 224

@72659 , @3.8312602551679587 Channel: 3 
Command: 224

@72660 , @3.8313129844961247 Channel: 3 
Command: 224

@72690 , @3.8328948643410854 Channel: 3 
Note on, E4 key =  64;WhichDrum: S ; velocity: 0
@72690 , @3.8328948643410854 Channel: 3 
Note on, D4 key =  62;WhichDrum: T2 ; velocity: 127
@72720 , @3.834476744186047 Channel: 3 
Note on, D4 key =  62;WhichDrum: T2 ; velocity: 0
@72720 , @3.834476744186047 Channel: 3 
Note on, E4 key =  64;WhichDrum: S ; velocity: 127
@72780 , @3.8376405038759693 Channel: 3 
Note on, E4 key =  64;WhichDrum: S ; velocity: 0
@72780 , @3.8376405038759693 Channel: 3 
Note on, D4 key =  62;WhichDrum: T2 ; velocity: 127
@72840 , @3.840804263565892 Channel: 3 
Command: 224

@72841 , @3.840856992894057 Channel: 3 
Command: 224

@72842 , @3.8409097222222224 Channel: 3 
Command: 224

@72843 , @3.8409624515503875 Channel: 3 
Command: 224

@72844 , @3.841015180878553 Channel: 3 
Command: 224

@72845 , @3.8410679102067187 Channel: 3 
Command: 224

@72846 , @3.841120639534884 Channel: 3 
Command: 224

@72847 , @3.8411733688630494 Channel: 3 
Command: 224

@72848 , @3.841226098191215 Channel: 3 
Command: 224

@72849 , @3.84127882751938 Channel: 3 
Command: 224

@72850 , @3.8413315568475457 Channel: 3 
Command: 224

@72851 , @3.8413842861757104 Channel: 3 
Command: 224

@72852 , @3.841437015503876 Channel: 3 
Command: 224

@72853 , @3.841489744832042 Channel: 3 
Command: 224

@72854 , @3.8415424741602067 Channel: 3 
Command: 224

@72855 , @3.8415952034883722 Channel: 3 
Command: 224

@72856 , @3.8416479328165374 Channel: 3 
Command: 224

@72857 , @3.841700662144703 Channel: 3 
Command: 224

@72858 , @3.8417533914728685 Channel: 3 
Command: 224

@72859 , @3.8418061208010337 Channel: 3 
Command: 224

@72860 , @3.8418588501291993 Channel: 3 
Command: 224

@72861 , @3.841911579457365 Channel: 3 
Command: 224

@72862 , @3.84196430878553 Channel: 3 
Command: 224

@72863 , @3.8420170381136955 Channel: 3 
Command: 224

@72864 , @3.8420697674418602 Channel: 3 
Command: 224

@72865 , @3.842122496770026 Channel: 3 
Command: 224

@72866 , @3.842175226098192 Channel: 3 
Command: 224

@72867 , @3.8422279554263565 Channel: 3 
Command: 224

@72868 , @3.842280684754522 Channel: 3 
Command: 224

@72869 , @3.8423334140826872 Channel: 3 
Command: 224

@72870 , @3.842386143410853 Channel: 3 
Command: 224

@72900 , @3.8439680232558144 Channel: 3 
Note on, D4 key =  62;WhichDrum: T2 ; velocity: 0
@72900 , @3.8439680232558144 Channel: 3 
Note on, B3 key =  59;WhichDrum: T1 ; velocity: 127
@72960 , @3.8471317829457368 Channel: 3 
Note on, B3 key =  59;WhichDrum: T1 ; velocity: 0
@72960 , @3.8471317829457368 Channel: 3 
Note on, D4 key =  62;WhichDrum: T2 ; velocity: 127
@73020 , @3.8502955426356595 Channel: 3 
Note on, D4 key =  62;WhichDrum: T2 ; velocity: 0
@73020 , @3.8502955426356595 Channel: 3 
Note on, E4 key =  64;WhichDrum: S ; velocity: 127
@73080 , @3.853459302325582 Channel: 3 
Note on, E4 key =  64;WhichDrum: S ; velocity: 0
@73080 , @3.853459302325582 Channel: 3 
Command: 224

@73080 , @3.853459302325582 Channel: 3 
Note on, E4 key =  64;WhichDrum: S ; velocity: 127
@73081 , @3.853512031653747 Channel: 3 
Command: 224

@73082 , @3.8535647609819126 Channel: 3 
Command: 224

@73083 , @3.8536174903100773 Channel: 3 
Command: 224

@73084 , @3.853670219638243 Channel: 3 
Command: 224

@73085 , @3.853722948966409 Channel: 3 
Command: 224

@73086 , @3.8537756782945736 Channel: 3 
Command: 224

@73087 , @3.853828407622739 Channel: 3 
Command: 224

@73088 , @3.8538811369509043 Channel: 3 
Command: 224

@73089 , @3.85393386627907 Channel: 3 
Command: 224

@73090 , @3.8539865956072354 Channel: 3 
Command: 224

@73139 , @3.8565703326873386 Channel: 3 
Command: 224

@73140 , @3.856623062015504 Channel: 3 
Note on, E4 key =  64;WhichDrum: S ; velocity: 0
@73140 , @3.856623062015504 Channel: 3 
Note on, F#4 key =  66;WhichDrum: C1 ; velocity: 127
@73200 , @3.859786821705427 Channel: 3 
Note on, F#4 key =  66;WhichDrum: C1 ; velocity: 0
@73200 , @3.859786821705427 Channel: 3 
Note on, A4 key =  69;WhichDrum: T3 ; velocity: 127
@73230 , @3.8613687015503877 Channel: 3 
Note on, A4 key =  69;WhichDrum: T3 ; velocity: 0
@73230 , @3.8613687015503877 Channel: 3 
Note on, F#4 key =  66;WhichDrum: C1 ; velocity: 127
@73260 , @3.8629505813953493 Channel: 3 
Note on, F#4 key =  66;WhichDrum: C1 ; velocity: 0
@73260 , @3.8629505813953493 Channel: 3 
Note on, E4 key =  64;WhichDrum: S ; velocity: 127
@73320 , @3.8661143410852716 Channel: 3 
Note on, E4 key =  64;WhichDrum: S ; velocity: 0
@73320 , @3.8661143410852716 Channel: 3 
Note on, D4 key =  62;WhichDrum: T2 ; velocity: 127
@73380 , @3.8692781007751944 Channel: 3 
Note on, D4 key =  62;WhichDrum: T2 ; velocity: 0
@73380 , @3.8692781007751944 Channel: 3 
Note on, B3 key =  59;WhichDrum: T1 ; velocity: 127
@73440 , @3.8724418604651167 Channel: 3 
Note on, B3 key =  59;WhichDrum: T1 ; velocity: 0
@73440 , @3.8724418604651167 Channel: 3 
Note on, D4 key =  62;WhichDrum: T2 ; velocity: 127
@73500 , @3.875605620155039 Channel: 3 
Note on, D4 key =  62;WhichDrum: T2 ; velocity: 0
@73500 , @3.875605620155039 Channel: 3 
Command: 224

@73500 , @3.875605620155039 Channel: 3 
Note on, E4 key =  64;WhichDrum: S ; velocity: 127
@73501 , @3.875658349483204 Channel: 3 
Command: 224

@73502 , @3.87571107881137 Channel: 3 
Command: 224

@73503 , @3.875763808139535 Channel: 3 
Command: 224

@73504 , @3.8758165374677005 Channel: 3 
Command: 224

@73505 , @3.875869266795866 Channel: 3 
Command: 224

@73506 , @3.875921996124031 Channel: 3 
Command: 224

@73507 , @3.875974725452197 Channel: 3 
Command: 224

@73508 , @3.8760274547803615 Channel: 3 
Command: 224

@73509 , @3.876080184108527 Channel: 3 
Command: 224

@73510 , @3.876132913436693 Channel: 3 
Command: 224

@73560 , @3.878769379844961 Channel: 3 
Command: 224

@73561 , @3.8788221091731265 Channel: 3 
Command: 224

@73562 , @3.8788748385012926 Channel: 3 
Command: 224

@73563 , @3.8789275678294572 Channel: 3 
Command: 224

@73564 , @3.878980297157623 Channel: 3 
Command: 224

@73565 , @3.8790330264857884 Channel: 3 
Command: 224

@73566 , @3.8790857558139535 Channel: 3 
Command: 224

@73567 , @3.879138485142119 Channel: 3 
Command: 224

@73568 , @3.8791912144702843 Channel: 3 
Command: 224

@73569 , @3.87924394379845 Channel: 3 
Command: 224

@73570 , @3.8792966731266154 Channel: 3 
Command: 224

@73571 , @3.87934940245478 Channel: 3 
Command: 224

@73572 , @3.879402131782946 Channel: 3 
Command: 224

@73573 , @3.8794548611111117 Channel: 3 
Command: 224

@73574 , @3.8795075904392764 Channel: 3 
Command: 224

@73575 , @3.879560319767442 Channel: 3 
Command: 224

@73576 , @3.879613049095607 Channel: 3 
Command: 224

@73577 , @3.8796657784237727 Channel: 3 
Command: 224

@73578 , @3.8797185077519383 Channel: 3 
Command: 224

@73579 , @3.8797712370801034 Channel: 3 
Command: 224

@73580 , @3.879823966408269 Channel: 3 
Command: 224

@73581 , @3.879876695736434 Channel: 3 
Command: 224

@73582 , @3.8799294250645997 Channel: 3 
Command: 224

@73583 , @3.8799821543927653 Channel: 3 
Command: 224

@73584 , @3.88003488372093 Channel: 3 
Command: 224

@73585 , @3.880087613049096 Channel: 3 
Command: 224

@73586 , @3.8801403423772616 Channel: 3 
Command: 224

@73587 , @3.8801930717054263 Channel: 3 
Command: 224

@73588 , @3.880245801033592 Channel: 3 
Command: 224

@73589 , @3.880298530361757 Channel: 3 
Command: 224

@73590 , @3.8803512596899226 Channel: 3 
Command: 224

@73591 , @3.880403989018088 Channel: 3 
Command: 224

@73592 , @3.8804567183462533 Channel: 3 
Command: 224

@73593 , @3.880509447674419 Channel: 3 
Command: 224

@73594 , @3.880562177002584 Channel: 3 
Command: 224

@73595 , @3.8806149063307496 Channel: 3 
Command: 224

@73596 , @3.880667635658915 Channel: 3 
Command: 224

@73597 , @3.88072036498708 Channel: 3 
Command: 224

@73598 , @3.880773094315246 Channel: 3 
Command: 224

@73599 , @3.8808258236434114 Channel: 3 
Command: 224

@73600 , @3.880878552971576 Channel: 3 
Command: 224

@73640 , @3.8829877260981913 Channel: 3 
Note on, E4 key =  64;WhichDrum: S ; velocity: 0
@73640 , @3.8829877260981913 Channel: 3 
Note on, D4 key =  62;WhichDrum: T2 ; velocity: 127
@73680 , @3.885096899224806 Channel: 3 
Note on, D4 key =  62;WhichDrum: T2 ; velocity: 0
@73680 , @3.885096899224806 Channel: 3 
Command: 224

@73680 , @3.885096899224806 Channel: 3 
Note on, E4 key =  64;WhichDrum: S ; velocity: 127
@73681 , @3.8851496285529716 Channel: 3 
Command: 224

@73682 , @3.885202357881137 Channel: 3 
Command: 224

@73683 , @3.8852550872093023 Channel: 3 
Command: 224

@73684 , @3.885307816537468 Channel: 3 
Command: 224

@73685 , @3.8853605458656335 Channel: 3 
Command: 224

@73686 , @3.8854132751937986 Channel: 3 
Command: 224

@73687 , @3.8854660045219642 Channel: 3 
Command: 224

@73688 , @3.885518733850129 Channel: 3 
Command: 224

@73689 , @3.8855714631782945 Channel: 3 
Command: 224

@73690 , @3.8856241925064605 Channel: 3 
Command: 224

@73799 , @3.891371689276486 Channel: 3 
Command: 224

@73800 , @3.891424418604651 Channel: 3 
Note on, E4 key =  64;WhichDrum: S ; velocity: 0
@73800 , @3.891424418604651 Channel: 3 
Note on, A4 key =  69;WhichDrum: T3 ; velocity: 127
@73860 , @3.8945881782945735 Channel: 3 
Note on, A4 key =  69;WhichDrum: T3 ; velocity: 0
@73860 , @3.8945881782945735 Channel: 3 
Note on, B4 key =  71;WhichDrum: T1 ; velocity: 127
@73920 , @3.897751937984496 Channel: 3 
Note on, B4 key =  71;WhichDrum: T1 ; velocity: 0
@73920 , @3.897751937984496 Channel: 3 
Command: 224

@73920 , @3.897751937984496 Channel: 3 
Note on, D5 key =  74;WhichDrum: T2 ; velocity: 75
@73921 , @3.8978046673126614 Channel: 3 
Command: 224

@73922 , @3.8978573966408274 Channel: 3 
Command: 224

@73923 , @3.897910125968992 Channel: 3 
Command: 224

@73924 , @3.8979628552971577 Channel: 3 
Command: 224

@73925 , @3.8980155846253233 Channel: 3 
Note on, D5 key =  74;WhichDrum: T2 ; velocity: 0
@73925 , @3.8980155846253233 Channel: 3 
Command: 224

@73925 , @3.8980155846253233 Channel: 3 
Note on, E5 key =  76;WhichDrum: S ; velocity: 127
@73926 , @3.8980683139534884 Channel: 3 
Command: 224

@73927 , @3.898121043281654 Channel: 3 
Command: 224

@73928 , @3.898173772609819 Channel: 3 
Command: 224

@73929 , @3.8982265019379847 Channel: 3 
Command: 224

@73930 , @3.8982792312661503 Channel: 3 
Command: 224

@73979 , @3.9008629683462535 Channel: 3 
Command: 224

@73980 , @3.9009156976744186 Channel: 3 
Note on, E5 key =  76;WhichDrum: S ; velocity: 0
@73980 , @3.9009156976744186 Channel: 3 
Note on, E5 key =  76;WhichDrum: S ; velocity: 127
@74040 , @3.904079457364341 Channel: 3 
Note on, E5 key =  76;WhichDrum: S ; velocity: 0
@74040 , @3.904079457364341 Channel: 3 
Note on, D5 key =  74;WhichDrum: T2 ; velocity: 127
@74070 , @3.9056613372093025 Channel: 3 
Note on, D5 key =  74;WhichDrum: T2 ; velocity: 0
@74070 , @3.9056613372093025 Channel: 3 
Note on, B4 key =  71;WhichDrum: T1 ; velocity: 127
@74100 , @3.9072432170542633 Channel: 3 
Note on, B4 key =  71;WhichDrum: T1 ; velocity: 0
@74100 , @3.9072432170542633 Channel: 3 
Note on, A4 key =  69;WhichDrum: T3 ; velocity: 127
@74130 , @3.908825096899225 Channel: 3 
Note on, A4 key =  69;WhichDrum: T3 ; velocity: 0
@74130 , @3.908825096899225 Channel: 3 
Note on, B4 key =  71;WhichDrum: T1 ; velocity: 127
@74160 , @3.910406976744186 Channel: 3 
Note on, B4 key =  71;WhichDrum: T1 ; velocity: 0
@74160 , @3.910406976744186 Channel: 3 
Note on, D5 key =  74;WhichDrum: T2 ; velocity: 75
@74165 , @3.9106706233850135 Channel: 3 
Note on, D5 key =  74;WhichDrum: T2 ; velocity: 0
@74165 , @3.9106706233850135 Channel: 3 
Note on, E5 key =  76;WhichDrum: S ; velocity: 127
@74219 , @3.9135180071059437 Channel: 3 
Command: 224

@74220 , @3.9135707364341084 Channel: 3 
Note on, E5 key =  76;WhichDrum: S ; velocity: 0
@74220 , @3.9135707364341084 Channel: 3 
Command: 224

@74220 , @3.9135707364341084 Channel: 3 
Note on, E5 key =  76;WhichDrum: S ; velocity: 127
@74221 , @3.913623465762274 Channel: 3 
Command: 224

@74222 , @3.9136761950904395 Channel: 3 
Command: 224

@74223 , @3.9137289244186046 Channel: 3 
Command: 224

@74224 , @3.9137816537467702 Channel: 3 
Command: 224

@74225 , @3.9138343830749354 Channel: 3 
Command: 224

@74226 , @3.913887112403101 Channel: 3 
Command: 224

@74227 , @3.9139398417312665 Channel: 3 
Command: 224

@74228 , @3.913992571059431 Channel: 3 
Command: 224

@74229 , @3.9140453003875972 Channel: 3 
Command: 224

@74230 , @3.914098029715763 Channel: 3 
Command: 224

@74280 , @3.9167344961240307 Channel: 3 
Note on, E5 key =  76;WhichDrum: S ; velocity: 0
@74280 , @3.9167344961240307 Channel: 3 
Note on, D5 key =  74;WhichDrum: T2 ; velocity: 127
@74310 , @3.9183163759689923 Channel: 3 
Note on, D5 key =  74;WhichDrum: T2 ; velocity: 0
@74310 , @3.9183163759689923 Channel: 3 
Note on, B4 key =  71;WhichDrum: T1 ; velocity: 127
@74340 , @3.9198982558139535 Channel: 3 
Note on, B4 key =  71;WhichDrum: T1 ; velocity: 0
@74340 , @3.9198982558139535 Channel: 3 
Note on, B4 key =  71;WhichDrum: T1 ; velocity: 127
@74370 , @3.921480135658915 Channel: 3 
Note on, B4 key =  71;WhichDrum: T1 ; velocity: 0
@74370 , @3.921480135658915 Channel: 3 
Note on, D5 key =  74;WhichDrum: T2 ; velocity: 127
@74400 , @3.923062015503876 Channel: 3 
Note on, D5 key =  74;WhichDrum: T2 ; velocity: 0
@74400 , @3.923062015503876 Channel: 3 
Command: 224

@74400 , @3.923062015503876 Channel: 3 
Note on, D5 key =  74;WhichDrum: T2 ; velocity: 75
@74401 , @3.9231147448320414 Channel: 3 
Command: 224

@74402 , @3.923167474160207 Channel: 3 
Command: 224

@74403 , @3.923220203488372 Channel: 3 
Command: 224

@74404 , @3.9232729328165377 Channel: 3 
Command: 224

@74405 , @3.923325662144703 Channel: 3 
Note on, D5 key =  74;WhichDrum: T2 ; velocity: 0
@74405 , @3.923325662144703 Channel: 3 
Command: 224

@74405 , @3.923325662144703 Channel: 3 
Note on, E5 key =  76;WhichDrum: S ; velocity: 127
@74406 , @3.9233783914728684 Channel: 3 
Command: 224

@74407 , @3.923431120801034 Channel: 3 
Command: 224

@74408 , @3.923483850129199 Channel: 3 
Command: 224

@74409 , @3.9235365794573647 Channel: 3 
Command: 224

@74410 , @3.9235893087855302 Channel: 3 
Command: 224

@74459 , @3.9261730458656334 Channel: 3 
Command: 224

@74460 , @3.926225775193798 Channel: 3 
Note on, E5 key =  76;WhichDrum: S ; velocity: 0
@74460 , @3.926225775193798 Channel: 3 
Note on, E5 key =  76;WhichDrum: S ; velocity: 127
@74520 , @3.929389534883721 Channel: 3 
Note on, E5 key =  76;WhichDrum: S ; velocity: 0
@74520 , @3.929389534883721 Channel: 3 
Note on, D5 key =  74;WhichDrum: T2 ; velocity: 127
@74550 , @3.9309714147286825 Channel: 3 
Note on, D5 key =  74;WhichDrum: T2 ; velocity: 0
@74550 , @3.9309714147286825 Channel: 3 
Note on, B4 key =  71;WhichDrum: T1 ; velocity: 127
@74580 , @3.932553294573643 Channel: 3 
Note on, B4 key =  71;WhichDrum: T1 ; velocity: 0
@74580 , @3.932553294573643 Channel: 3 
Note on, D5 key =  74;WhichDrum: T2 ; velocity: 127
@74640 , @3.935717054263566 Channel: 3 
Note on, D5 key =  74;WhichDrum: T2 ; velocity: 0
@74640 , @3.935717054263566 Channel: 3 
Command: 224

@74640 , @3.935717054263566 Channel: 3 
Note on, D5 key =  74;WhichDrum: T2 ; velocity: 75
@74641 , @3.9357697835917316 Channel: 3 
Command: 224

@74642 , @3.935822512919897 Channel: 3 
Command: 224

@74643 , @3.935875242248062 Channel: 3 
Command: 224

@74644 , @3.935927971576228 Channel: 3 
Command: 224

@74645 , @3.9359807009043926 Channel: 3 
Note on, D5 key =  74;WhichDrum: T2 ; velocity: 0
@74645 , @3.9359807009043926 Channel: 3 
Command: 224

@74645 , @3.9359807009043926 Channel: 3 
Note on, E5 key =  76;WhichDrum: S ; velocity: 127
@74646 , @3.936033430232558 Channel: 3 
Command: 224

@74647 , @3.9360861595607237 Channel: 3 
Command: 224

@74648 , @3.936138888888889 Channel: 3 
Command: 224

@74649 , @3.9361916182170544 Channel: 3 
Command: 224

@74650 , @3.93624434754522 Channel: 3 
Command: 224

@74699 , @3.938828084625323 Channel: 3 
Command: 224

@74700 , @3.9388808139534883 Channel: 3 
Note on, E5 key =  76;WhichDrum: S ; velocity: 0
@74700 , @3.9388808139534883 Channel: 3 
Note on, E5 key =  76;WhichDrum: S ; velocity: 127
@74760 , @3.9420445736434107 Channel: 3 
Note on, E5 key =  76;WhichDrum: S ; velocity: 0
@74760 , @3.9420445736434107 Channel: 3 
Note on, D5 key =  74;WhichDrum: T2 ; velocity: 127
@74820 , @3.9452083333333334 Channel: 3 
Note on, D5 key =  74;WhichDrum: T2 ; velocity: 0
@74820 , @3.9452083333333334 Channel: 3 
Note on, E5 key =  76;WhichDrum: S ; velocity: 127
@74880 , @3.9483720930232558 Channel: 3 
Note on, E5 key =  76;WhichDrum: S ; velocity: 0
@74880 , @3.9483720930232558 Channel: 3 
Note on, G5 key =  79;WhichDrum: C2 ; velocity: 127
@74920 , @3.950481266149871 Channel: 3 
Note on, G5 key =  79;WhichDrum: C2 ; velocity: 0
@74920 , @3.950481266149871 Channel: 3 
Note on, E5 key =  76;WhichDrum: S ; velocity: 127
@74960 , @3.952590439276486 Channel: 3 
Note on, E5 key =  76;WhichDrum: S ; velocity: 0
@74960 , @3.952590439276486 Channel: 3 
Note on, D5 key =  74;WhichDrum: T2 ; velocity: 127
@75000 , @3.954699612403101 Channel: 3 
Note on, D5 key =  74;WhichDrum: T2 ; velocity: 0
@75000 , @3.954699612403101 Channel: 3 
Note on, B4 key =  71;WhichDrum: T1 ; velocity: 127
@75040 , @3.956808785529716 Channel: 3 
Note on, B4 key =  71;WhichDrum: T1 ; velocity: 0
@75040 , @3.956808785529716 Channel: 3 
Note on, A4 key =  69;WhichDrum: T3 ; velocity: 127
@75080 , @3.9589179586563312 Channel: 3 
Note on, A4 key =  69;WhichDrum: T3 ; velocity: 0
@75080 , @3.9589179586563312 Channel: 3 
Note on, B4 key =  71;WhichDrum: T1 ; velocity: 127
@75120 , @3.9610271317829455 Channel: 3 
Note on, B4 key =  71;WhichDrum: T1 ; velocity: 0
@75120 , @3.9610271317829455 Channel: 3 
Note on, D5 key =  74;WhichDrum: T2 ; velocity: 127
@75160 , @3.9631363049095607 Channel: 3 
Note on, D5 key =  74;WhichDrum: T2 ; velocity: 0
@75160 , @3.9631363049095607 Channel: 3 
Note on, B4 key =  71;WhichDrum: T1 ; velocity: 127
@75200 , @3.9652454780361763 Channel: 3 
Note on, B4 key =  71;WhichDrum: T1 ; velocity: 0
@75200 , @3.9652454780361763 Channel: 3 
Note on, A4 key =  69;WhichDrum: T3 ; velocity: 127
@75240 , @3.9673546511627906 Channel: 3 
Note on, A4 key =  69;WhichDrum: T3 ; velocity: 0
@75240 , @3.9673546511627906 Channel: 3 
Note on, G4 key =  67;WhichDrum: C2 ; velocity: 127
@75280 , @3.969463824289406 Channel: 3 
Note on, G4 key =  67;WhichDrum: C2 ; velocity: 0
@75280 , @3.969463824289406 Channel: 3 
Note on, E4 key =  64;WhichDrum: S ; velocity: 127
@75320 , @3.971572997416021 Channel: 3 
Note on, E4 key =  64;WhichDrum: S ; velocity: 0
@75320 , @3.971572997416021 Channel: 3 
Note on, G4 key =  67;WhichDrum: C2 ; velocity: 127
@75360 , @3.9736821705426357 Channel: 3 
Note on, G4 key =  67;WhichDrum: C2 ; velocity: 0
@75360 , @3.9736821705426357 Channel: 3 
Note on, A4 key =  69;WhichDrum: T3 ; velocity: 127
@75400 , @3.975791343669251 Channel: 3 
Note on, A4 key =  69;WhichDrum: T3 ; velocity: 0
@75400 , @3.975791343669251 Channel: 3 
Note on, G4 key =  67;WhichDrum: C2 ; velocity: 127
@75440 , @3.977900516795866 Channel: 3 
Note on, G4 key =  67;WhichDrum: C2 ; velocity: 0
@75440 , @3.977900516795866 Channel: 3 
Note on, E4 key =  64;WhichDrum: S ; velocity: 127
@75480 , @3.9800096899224804 Channel: 3 
Note on, E4 key =  64;WhichDrum: S ; velocity: 0
@75480 , @3.9800096899224804 Channel: 3 
Note on, D4 key =  62;WhichDrum: T2 ; velocity: 127
@75520 , @3.982118863049096 Channel: 3 
Note on, D4 key =  62;WhichDrum: T2 ; velocity: 0
@75520 , @3.982118863049096 Channel: 3 
Note on, B3 key =  59;WhichDrum: T1 ; velocity: 127
@75560 , @3.984228036175711 Channel: 3 
Note on, B3 key =  59;WhichDrum: T1 ; velocity: 0
@75560 , @3.984228036175711 Channel: 3 
Note on, A3 key =  57;WhichDrum: T3 ; velocity: 127
@75600 , @3.9863372093023255 Channel: 3 
Note on, A3 key =  57;WhichDrum: T3 ; velocity: 0
@75600 , @3.9863372093023255 Channel: 3 
Command: 176

@75600 , @3.9863372093023255 Channel: 3 
Note on, G3 key =  55;WhichDrum: C2 ; velocity: 127
@75601 , @3.986389938630491 Channel: 3 
Command: 176

@75602 , @3.986442667958656 Channel: 3 
Command: 176

@75603 , @3.986495397286822 Channel: 3 
Command: 176

@75604 , @3.9865481266149874 Channel: 3 
Command: 176

@75605 , @3.9866008559431525 Channel: 3 
Command: 176

@75606 , @3.986653585271318 Channel: 3 
Command: 176

@75607 , @3.9867063145994837 Channel: 3 
Command: 176

@75608 , @3.986759043927649 Channel: 3 
Command: 176

@75609 , @3.9868117732558144 Channel: 3 
Command: 176

@75610 , @3.986864502583979 Channel: 3 
Command: 176

@75719 , @3.9926119993540055 Channel: 3 
Command: 176

@75720 , @3.9926647286821706 Channel: 3 
Note on, G3 key =  55;WhichDrum: C2 ; velocity: 0
@75720 , @3.9926647286821706 Channel: 3 
Note on, G3 key =  55;WhichDrum: C2 ; velocity: 127
@75780 , @3.995828488372093 Channel: 3 
Note on, G3 key =  55;WhichDrum: C2 ; velocity: 0
@75780 , @3.995828488372093 Channel: 3 
Note on, A3 key =  57;WhichDrum: T3 ; velocity: 127
@75840 , @3.9989922480620157 Channel: 3 
Note on, A3 key =  57;WhichDrum: T3 ; velocity: 0
@75840 , @3.9989922480620157 Channel: 3 
Note on, B3 key =  59;WhichDrum: T1 ; velocity: 127
@75880 , @4.001101421188631 Channel: 3 
Note on, B3 key =  59;WhichDrum: T1 ; velocity: 0
@75880 , @4.001101421188631 Channel: 3 
Note on, A3 key =  57;WhichDrum: T3 ; velocity: 127
@75920 , @4.003210594315246 Channel: 3 
Note on, A3 key =  57;WhichDrum: T3 ; velocity: 0
@75920 , @4.003210594315246 Channel: 3 
Note on, B3 key =  59;WhichDrum: T1 ; velocity: 127
@75960 , @4.00531976744186 Channel: 3 
Note on, B3 key =  59;WhichDrum: T1 ; velocity: 0
@75960 , @4.00531976744186 Channel: 3 
Note on, D4 key =  62;WhichDrum: T2 ; velocity: 127
@76000 , @4.0074289405684755 Channel: 3 
Note on, D4 key =  62;WhichDrum: T2 ; velocity: 0
@76000 , @4.0074289405684755 Channel: 3 
Note on, B3 key =  59;WhichDrum: T1 ; velocity: 127
@76040 , @4.009538113695091 Channel: 3 
Note on, B3 key =  59;WhichDrum: T1 ; velocity: 0
@76040 , @4.009538113695091 Channel: 3 
Note on, D4 key =  62;WhichDrum: T2 ; velocity: 127
@76080 , @4.011647286821705 Channel: 3 
Note on, D4 key =  62;WhichDrum: T2 ; velocity: 0
@76080 , @4.011647286821705 Channel: 3 
Note on, E4 key =  64;WhichDrum: S ; velocity: 127
@76120 , @4.013756459948321 Channel: 3 
Note on, E4 key =  64;WhichDrum: S ; velocity: 0
@76120 , @4.013756459948321 Channel: 3 
Note on, D4 key =  62;WhichDrum: T2 ; velocity: 127
@76160 , @4.015865633074935 Channel: 3 
Note on, D4 key =  62;WhichDrum: T2 ; velocity: 0
@76160 , @4.015865633074935 Channel: 3 
Note on, E4 key =  64;WhichDrum: S ; velocity: 127
@76200 , @4.017974806201551 Channel: 3 
Note on, E4 key =  64;WhichDrum: S ; velocity: 0
@76200 , @4.017974806201551 Channel: 3 
Note on, G4 key =  67;WhichDrum: C2 ; velocity: 127
@76240 , @4.020083979328166 Channel: 3 
Note on, G4 key =  67;WhichDrum: C2 ; velocity: 0
@76240 , @4.020083979328166 Channel: 3 
Note on, E4 key =  64;WhichDrum: S ; velocity: 127
@76280 , @4.02219315245478 Channel: 3 
Note on, E4 key =  64;WhichDrum: S ; velocity: 0
@76280 , @4.02219315245478 Channel: 3 
Note on, G4 key =  67;WhichDrum: C2 ; velocity: 127
@76320 , @4.024302325581395 Channel: 3 
Note on, G4 key =  67;WhichDrum: C2 ; velocity: 0
@76320 , @4.024302325581395 Channel: 3 
Note on, A4 key =  69;WhichDrum: T3 ; velocity: 127
@76360 , @4.02641149870801 Channel: 3 
Note on, A4 key =  69;WhichDrum: T3 ; velocity: 0
@76360 , @4.02641149870801 Channel: 3 
Note on, G4 key =  67;WhichDrum: C2 ; velocity: 127
@76400 , @4.028520671834625 Channel: 3 
Note on, G4 key =  67;WhichDrum: C2 ; velocity: 0
@76400 , @4.028520671834625 Channel: 3 
Note on, A4 key =  69;WhichDrum: T3 ; velocity: 127
@76440 , @4.030629844961241 Channel: 3 
Note on, A4 key =  69;WhichDrum: T3 ; velocity: 0
@76440 , @4.030629844961241 Channel: 3 
Note on, B4 key =  71;WhichDrum: T1 ; velocity: 127
@76480 , @4.032739018087856 Channel: 3 
Note on, B4 key =  71;WhichDrum: T1 ; velocity: 0
@76480 , @4.032739018087856 Channel: 3 
Note on, A4 key =  69;WhichDrum: T3 ; velocity: 127
@76520 , @4.03484819121447 Channel: 3 
Note on, A4 key =  69;WhichDrum: T3 ; velocity: 0
@76520 , @4.03484819121447 Channel: 3 
Note on, B4 key =  71;WhichDrum: T1 ; velocity: 127
@76560 , @4.036957364341085 Channel: 3 
Note on, B4 key =  71;WhichDrum: T1 ; velocity: 0
@76560 , @4.036957364341085 Channel: 3 
Note on, D5 key =  74;WhichDrum: T2 ; velocity: 127
@76600 , @4.039066537467701 Channel: 3 
Note on, D5 key =  74;WhichDrum: T2 ; velocity: 0
@76600 , @4.039066537467701 Channel: 3 
Note on, B4 key =  71;WhichDrum: T1 ; velocity: 127
@76640 , @4.041175710594315 Channel: 3 
Note on, B4 key =  71;WhichDrum: T1 ; velocity: 0
@76640 , @4.041175710594315 Channel: 3 
Note on, D5 key =  74;WhichDrum: T2 ; velocity: 127
@76680 , @4.04328488372093 Channel: 3 
Note on, D5 key =  74;WhichDrum: T2 ; velocity: 0
@76680 , @4.04328488372093 Channel: 3 
Note on, E5 key =  76;WhichDrum: S ; velocity: 127
@76720 , @4.045394056847545 Channel: 3 
Note on, E5 key =  76;WhichDrum: S ; velocity: 0
@76720 , @4.045394056847545 Channel: 3 
Note on, D5 key =  74;WhichDrum: T2 ; velocity: 127
@76760 , @4.0475032299741605 Channel: 3 
Note on, D5 key =  74;WhichDrum: T2 ; velocity: 0
@76760 , @4.0475032299741605 Channel: 3 
Note on, E5 key =  76;WhichDrum: S ; velocity: 127
@76800 , @4.049612403100776 Channel: 3 
Note on, E5 key =  76;WhichDrum: S ; velocity: 0
@76800 , @4.049612403100776 Channel: 3 
Note on, G5 key =  79;WhichDrum: C2 ; velocity: 127
@76840 , @4.051721576227391 Channel: 3 
Note on, G5 key =  79;WhichDrum: C2 ; velocity: 0
@76840 , @4.051721576227391 Channel: 3 
Note on, E5 key =  76;WhichDrum: S ; velocity: 127
@76880 , @4.053830749354005 Channel: 3 
Note on, E5 key =  76;WhichDrum: S ; velocity: 0
@76880 , @4.053830749354005 Channel: 3 
Note on, D5 key =  74;WhichDrum: T2 ; velocity: 127
@76920 , @4.05593992248062 Channel: 3 
Note on, D5 key =  74;WhichDrum: T2 ; velocity: 0
@76920 , @4.05593992248062 Channel: 3 
Note on, B4 key =  71;WhichDrum: T1 ; velocity: 127
@76960 , @4.0580490956072355 Channel: 3 
Note on, B4 key =  71;WhichDrum: T1 ; velocity: 0
@76960 , @4.0580490956072355 Channel: 3 
Note on, A#4 key =  70;WhichDrum: T2 ; velocity: 127
@77000 , @4.06015826873385 Channel: 3 
Note on, A#4 key =  70;WhichDrum: T2 ; velocity: 0
@77000 , @4.06015826873385 Channel: 3 
Note on, B4 key =  71;WhichDrum: T1 ; velocity: 127
@77040 , @4.062267441860465 Channel: 3 
Note on, B4 key =  71;WhichDrum: T1 ; velocity: 0
@77040 , @4.062267441860465 Channel: 3 
Note on, D5 key =  74;WhichDrum: T2 ; velocity: 127
@77080 , @4.06437661498708 Channel: 3 
Note on, D5 key =  74;WhichDrum: T2 ; velocity: 0
@77080 , @4.06437661498708 Channel: 3 
Note on, B4 key =  71;WhichDrum: T1 ; velocity: 127
@77120 , @4.066485788113695 Channel: 3 
Note on, B4 key =  71;WhichDrum: T1 ; velocity: 0
@77120 , @4.066485788113695 Channel: 3 
Note on, A4 key =  69;WhichDrum: T3 ; velocity: 127
@77160 , @4.0685949612403105 Channel: 3 
Note on, A4 key =  69;WhichDrum: T3 ; velocity: 0
@77160 , @4.0685949612403105 Channel: 3 
Note on, G4 key =  67;WhichDrum: C2 ; velocity: 127
@77280 , @4.074922480620155 Channel: 3 
Note on, G4 key =  67;WhichDrum: C2 ; velocity: 0
@77280 , @4.074922480620155 Channel: 3 
Note on, E4 key =  64;WhichDrum: S ; velocity: 75
@77400 , @4.08125 Channel: 3 
Note on, E4 key =  64;WhichDrum: S ; velocity: 0
@77400 , @4.08125 Other Message: class javax.sound.midi.Track$ImmutableEndOfTrack

Track 6: size = 3429
@0 , @0.0 Other Message: class javax.sound.midi.MetaMessage

@0 , @0.0 Other Message: class javax.sound.midi.MetaMessage

@0 , @0.0 Channel: 4 
Command: 192

@0 , @0.0 Channel: 4 
Command: 176

@2880 , @0.15186046511627907 Channel: 4 
Note on, A1 key =  33;WhichDrum: T3 ; velocity: 127
@2940 , @0.15502422480620157 Channel: 4 
Note on, A1 key =  33;WhichDrum: T3 ; velocity: 0
@2940 , @0.15502422480620157 Channel: 4 
Note on, A1 key =  33;WhichDrum: T3 ; velocity: 127
@3000 , @0.15818798449612403 Channel: 4 
Note on, A1 key =  33;WhichDrum: T3 ; velocity: 0
@3000 , @0.15818798449612403 Channel: 4 
Note on, A1 key =  33;WhichDrum: T3 ; velocity: 127
@3060 , @0.1613517441860465 Channel: 4 
Note on, A1 key =  33;WhichDrum: T3 ; velocity: 0
@3060 , @0.1613517441860465 Channel: 4 
Note on, A1 key =  33;WhichDrum: T3 ; velocity: 127
@3120 , @0.164515503875969 Channel: 4 
Note on, A1 key =  33;WhichDrum: T3 ; velocity: 0
@3120 , @0.164515503875969 Channel: 4 
Note on, A1 key =  33;WhichDrum: T3 ; velocity: 127
@3180 , @0.1676792635658915 Channel: 4 
Note on, A1 key =  33;WhichDrum: T3 ; velocity: 0
@3180 , @0.1676792635658915 Channel: 4 
Note on, A1 key =  33;WhichDrum: T3 ; velocity: 127
@3240 , @0.17084302325581396 Channel: 4 
Note on, A1 key =  33;WhichDrum: T3 ; velocity: 0
@3240 , @0.17084302325581396 Channel: 4 
Note on, A1 key =  33;WhichDrum: T3 ; velocity: 127
@3300 , @0.17400678294573643 Channel: 4 
Note on, A1 key =  33;WhichDrum: T3 ; velocity: 0
@3300 , @0.17400678294573643 Channel: 4 
Note on, A1 key =  33;WhichDrum: T3 ; velocity: 127
@3360 , @0.17717054263565893 Channel: 4 
Note on, A1 key =  33;WhichDrum: T3 ; velocity: 0
@3360 , @0.17717054263565893 Channel: 4 
Note on, A1 key =  33;WhichDrum: T3 ; velocity: 127
@3420 , @0.1803343023255814 Channel: 4 
Note on, A1 key =  33;WhichDrum: T3 ; velocity: 0
@3420 , @0.1803343023255814 Channel: 4 
Note on, A1 key =  33;WhichDrum: T3 ; velocity: 127
@3480 , @0.1834980620155039 Channel: 4 
Note on, A1 key =  33;WhichDrum: T3 ; velocity: 0
@3480 , @0.1834980620155039 Channel: 4 
Note on, A1 key =  33;WhichDrum: T3 ; velocity: 127
@3540 , @0.18666182170542636 Channel: 4 
Note on, A1 key =  33;WhichDrum: T3 ; velocity: 0
@3540 , @0.18666182170542636 Channel: 4 
Note on, A1 key =  33;WhichDrum: T3 ; velocity: 127
@3600 , @0.18982558139534883 Channel: 4 
Note on, A1 key =  33;WhichDrum: T3 ; velocity: 0
@3600 , @0.18982558139534883 Channel: 4 
Note on, A2 key =  45;WhichDrum: T3 ; velocity: 127
@3660 , @0.19298934108527133 Channel: 4 
Note on, A2 key =  45;WhichDrum: T3 ; velocity: 0
@3660 , @0.19298934108527133 Channel: 4 
Note on, A2 key =  45;WhichDrum: T3 ; velocity: 127
@3720 , @0.19615310077519382 Channel: 4 
Note on, A2 key =  45;WhichDrum: T3 ; velocity: 0
@3720 , @0.19615310077519382 Channel: 4 
Note on, A2 key =  45;WhichDrum: T3 ; velocity: 127
@3780 , @0.1993168604651163 Channel: 4 
Note on, A2 key =  45;WhichDrum: T3 ; velocity: 0
@3780 , @0.1993168604651163 Channel: 4 
Note on, A1 key =  33;WhichDrum: T3 ; velocity: 127
@3840 , @0.20248062015503876 Channel: 4 
Note on, A1 key =  33;WhichDrum: T3 ; velocity: 0
@3840 , @0.20248062015503876 Channel: 4 
Note on, A1 key =  33;WhichDrum: T3 ; velocity: 127
@3900 , @0.20564437984496126 Channel: 4 
Note on, A1 key =  33;WhichDrum: T3 ; velocity: 0
@3900 , @0.20564437984496126 Channel: 4 
Note on, A1 key =  33;WhichDrum: T3 ; velocity: 127
@3955 , @0.20854449289405683 Channel: 4 
Note on, A1 key =  33;WhichDrum: T3 ; velocity: 0
@3955 , @0.20854449289405683 Channel: 4 
Note on, G2 key =  43;WhichDrum: C2 ; velocity: 75
@3960 , @0.20880813953488372 Channel: 4 
Note on, G2 key =  43;WhichDrum: C2 ; velocity: 0
@3960 , @0.20880813953488372 Channel: 4 
Note on, A2 key =  45;WhichDrum: T3 ; velocity: 127
@4080 , @0.21513565891472872 Channel: 4 
Note on, A2 key =  45;WhichDrum: T3 ; velocity: 0
@4080 , @0.21513565891472872 Channel: 4 
Note on, A1 key =  33;WhichDrum: T3 ; velocity: 127
@4140 , @0.21829941860465116 Channel: 4 
Note on, A1 key =  33;WhichDrum: T3 ; velocity: 0
@4140 , @0.21829941860465116 Channel: 4 
Note on, A1 key =  33;WhichDrum: T3 ; velocity: 127
@4195 , @0.22119953165374678 Channel: 4 
Note on, A1 key =  33;WhichDrum: T3 ; velocity: 0
@4195 , @0.22119953165374678 Channel: 4 
Note on, G2 key =  43;WhichDrum: C2 ; velocity: 75
@4200 , @0.22146317829457363 Channel: 4 
Note on, G2 key =  43;WhichDrum: C2 ; velocity: 0
@4200 , @0.22146317829457363 Channel: 4 
Note on, A2 key =  45;WhichDrum: T3 ; velocity: 127
@4260 , @0.22462693798449612 Channel: 4 
Note on, A2 key =  45;WhichDrum: T3 ; velocity: 0
@4260 , @0.22462693798449612 Channel: 4 
Note on, A1 key =  33;WhichDrum: T3 ; velocity: 127
@4380 , @0.2309544573643411 Channel: 4 
Note on, A1 key =  33;WhichDrum: T3 ; velocity: 0
@4380 , @0.2309544573643411 Channel: 4 
Note on, A1 key =  33;WhichDrum: T3 ; velocity: 127
@4440 , @0.23411821705426358 Channel: 4 
Note on, A1 key =  33;WhichDrum: T3 ; velocity: 0
@4440 , @0.23411821705426358 Channel: 4 
Note on, F2 key =  41;WhichDrum: HH ; velocity: 127
@4500 , @0.23728197674418608 Channel: 4 
Note on, F2 key =  41;WhichDrum: HH ; velocity: 0
@4500 , @0.23728197674418608 Channel: 4 
Note on, E2 key =  40;WhichDrum: S ; velocity: 127
@4560 , @0.24044573643410855 Channel: 4 
Note on, E2 key =  40;WhichDrum: S ; velocity: 0
@4560 , @0.24044573643410855 Channel: 4 
Note on, G2 key =  43;WhichDrum: C2 ; velocity: 127
@4620 , @0.243609496124031 Channel: 4 
Note on, G2 key =  43;WhichDrum: C2 ; velocity: 0
@4620 , @0.243609496124031 Channel: 4 
Note on, E2 key =  40;WhichDrum: S ; velocity: 127
@4680 , @0.24677325581395348 Channel: 4 
Note on, E2 key =  40;WhichDrum: S ; velocity: 0
@4680 , @0.24677325581395348 Channel: 4 
Note on, C3 key =  48;WhichDrum: B ; velocity: 127
@4740 , @0.24993701550387598 Channel: 4 
Note on, C3 key =  48;WhichDrum: B ; velocity: 0
@4740 , @0.24993701550387598 Channel: 4 
Note on, A2 key =  45;WhichDrum: T3 ; velocity: 127
@4800 , @0.2531007751937985 Channel: 4 
Note on, A2 key =  45;WhichDrum: T3 ; velocity: 0
@4800 , @0.2531007751937985 Channel: 4 
Note on, A1 key =  33;WhichDrum: T3 ; velocity: 127
@4860 , @0.2562645348837209 Channel: 4 
Note on, A1 key =  33;WhichDrum: T3 ; velocity: 0
@4860 , @0.2562645348837209 Channel: 4 
Note on, A1 key =  33;WhichDrum: T3 ; velocity: 127
@4915 , @0.25916464793281657 Channel: 4 
Note on, A1 key =  33;WhichDrum: T3 ; velocity: 0
@4915 , @0.25916464793281657 Channel: 4 
Note on, G2 key =  43;WhichDrum: C2 ; velocity: 75
@4920 , @0.2594282945736434 Channel: 4 
Note on, G2 key =  43;WhichDrum: C2 ; velocity: 0
@4920 , @0.2594282945736434 Channel: 4 
Note on, A2 key =  45;WhichDrum: T3 ; velocity: 127
@5040 , @0.2657558139534884 Channel: 4 
Note on, A2 key =  45;WhichDrum: T3 ; velocity: 0
@5040 , @0.2657558139534884 Channel: 4 
Note on, A1 key =  33;WhichDrum: T3 ; velocity: 127
@5100 , @0.26891957364341085 Channel: 4 
Note on, A1 key =  33;WhichDrum: T3 ; velocity: 0
@5100 , @0.26891957364341085 Channel: 4 
Note on, A1 key =  33;WhichDrum: T3 ; velocity: 127
@5155 , @0.27181968669250645 Channel: 4 
Note on, A1 key =  33;WhichDrum: T3 ; velocity: 0
@5155 , @0.27181968669250645 Channel: 4 
Note on, G2 key =  43;WhichDrum: C2 ; velocity: 75
@5160 , @0.27208333333333334 Channel: 4 
Note on, G2 key =  43;WhichDrum: C2 ; velocity: 0
@5160 , @0.27208333333333334 Channel: 4 
Note on, A2 key =  45;WhichDrum: T3 ; velocity: 127
@5220 , @0.27524709302325584 Channel: 4 
Note on, A2 key =  45;WhichDrum: T3 ; velocity: 0
@5220 , @0.27524709302325584 Channel: 4 
Note on, A1 key =  33;WhichDrum: T3 ; velocity: 127
@5340 , @0.2815746124031008 Channel: 4 
Note on, A1 key =  33;WhichDrum: T3 ; velocity: 0
@5340 , @0.2815746124031008 Channel: 4 
Note on, A1 key =  33;WhichDrum: T3 ; velocity: 127
@5400 , @0.2847383720930233 Channel: 4 
Note on, A1 key =  33;WhichDrum: T3 ; velocity: 0
@5400 , @0.2847383720930233 Channel: 4 
Note on, F2 key =  41;WhichDrum: HH ; velocity: 127
@5460 , @0.28790213178294577 Channel: 4 
Note on, F2 key =  41;WhichDrum: HH ; velocity: 0
@5460 , @0.28790213178294577 Channel: 4 
Note on, E2 key =  40;WhichDrum: S ; velocity: 127
@5520 , @0.29106589147286827 Channel: 4 
Note on, E2 key =  40;WhichDrum: S ; velocity: 0
@5520 , @0.29106589147286827 Channel: 4 
Note on, G2 key =  43;WhichDrum: C2 ; velocity: 127
@5580 , @0.2942296511627907 Channel: 4 
Note on, G2 key =  43;WhichDrum: C2 ; velocity: 0
@5580 , @0.2942296511627907 Channel: 4 
Note on, E2 key =  40;WhichDrum: S ; velocity: 127
@5640 , @0.29739341085271315 Channel: 4 
Note on, E2 key =  40;WhichDrum: S ; velocity: 0
@5640 , @0.29739341085271315 Channel: 4 
Note on, C3 key =  48;WhichDrum: B ; velocity: 127
@5700 , @0.30055717054263564 Channel: 4 
Note on, C3 key =  48;WhichDrum: B ; velocity: 0
@5700 , @0.30055717054263564 Channel: 4 
Note on, A2 key =  45;WhichDrum: T3 ; velocity: 127
@5760 , @0.30372093023255814 Channel: 4 
Note on, A2 key =  45;WhichDrum: T3 ; velocity: 0
@5760 , @0.30372093023255814 Channel: 4 
Note on, A1 key =  33;WhichDrum: T3 ; velocity: 127
@5820 , @0.30688468992248064 Channel: 4 
Note on, A1 key =  33;WhichDrum: T3 ; velocity: 0
@5820 , @0.30688468992248064 Channel: 4 
Note on, A1 key =  33;WhichDrum: T3 ; velocity: 127
@5875 , @0.30978480297157623 Channel: 4 
Note on, A1 key =  33;WhichDrum: T3 ; velocity: 0
@5875 , @0.30978480297157623 Channel: 4 
Note on, G2 key =  43;WhichDrum: C2 ; velocity: 75
@5880 , @0.31004844961240313 Channel: 4 
Note on, G2 key =  43;WhichDrum: C2 ; velocity: 0
@5880 , @0.31004844961240313 Channel: 4 
Note on, A2 key =  45;WhichDrum: T3 ; velocity: 127
@6000 , @0.31637596899224807 Channel: 4 
Note on, A2 key =  45;WhichDrum: T3 ; velocity: 0
@6000 , @0.31637596899224807 Channel: 4 
Note on, A1 key =  33;WhichDrum: T3 ; velocity: 127
@6060 , @0.3195397286821705 Channel: 4 
Note on, A1 key =  33;WhichDrum: T3 ; velocity: 0
@6060 , @0.3195397286821705 Channel: 4 
Note on, A1 key =  33;WhichDrum: T3 ; velocity: 127
@6115 , @0.32243984173126616 Channel: 4 
Note on, A1 key =  33;WhichDrum: T3 ; velocity: 0
@6115 , @0.32243984173126616 Channel: 4 
Note on, G2 key =  43;WhichDrum: C2 ; velocity: 75
@6120 , @0.322703488372093 Channel: 4 
Note on, G2 key =  43;WhichDrum: C2 ; velocity: 0
@6120 , @0.322703488372093 Channel: 4 
Note on, A2 key =  45;WhichDrum: T3 ; velocity: 127
@6180 , @0.3258672480620155 Channel: 4 
Note on, A2 key =  45;WhichDrum: T3 ; velocity: 0
@6180 , @0.3258672480620155 Channel: 4 
Note on, A1 key =  33;WhichDrum: T3 ; velocity: 127
@6300 , @0.3321947674418605 Channel: 4 
Note on, A1 key =  33;WhichDrum: T3 ; velocity: 0
@6300 , @0.3321947674418605 Channel: 4 
Note on, A1 key =  33;WhichDrum: T3 ; velocity: 127
@6360 , @0.335358527131783 Channel: 4 
Note on, A1 key =  33;WhichDrum: T3 ; velocity: 0
@6360 , @0.335358527131783 Channel: 4 
Note on, F2 key =  41;WhichDrum: HH ; velocity: 127
@6420 , @0.33852228682170543 Channel: 4 
Note on, F2 key =  41;WhichDrum: HH ; velocity: 0
@6420 , @0.33852228682170543 Channel: 4 
Note on, E2 key =  40;WhichDrum: S ; velocity: 127
@6480 , @0.3416860465116279 Channel: 4 
Note on, E2 key =  40;WhichDrum: S ; velocity: 0
@6480 , @0.3416860465116279 Channel: 4 
Note on, G2 key =  43;WhichDrum: C2 ; velocity: 127
@6540 , @0.34484980620155037 Channel: 4 
Note on, G2 key =  43;WhichDrum: C2 ; velocity: 0
@6540 , @0.34484980620155037 Channel: 4 
Note on, E2 key =  40;WhichDrum: S ; velocity: 127
@6600 , @0.34801356589147286 Channel: 4 
Note on, E2 key =  40;WhichDrum: S ; velocity: 0
@6600 , @0.34801356589147286 Channel: 4 
Note on, C3 key =  48;WhichDrum: B ; velocity: 127
@6660 , @0.35117732558139536 Channel: 4 
Note on, C3 key =  48;WhichDrum: B ; velocity: 0
@6660 , @0.35117732558139536 Channel: 4 
Note on, A2 key =  45;WhichDrum: T3 ; velocity: 127
@6720 , @0.35434108527131786 Channel: 4 
Note on, A2 key =  45;WhichDrum: T3 ; velocity: 0
@6720 , @0.35434108527131786 Channel: 4 
Note on, A1 key =  33;WhichDrum: T3 ; velocity: 127
@6780 , @0.3575048449612403 Channel: 4 
Note on, A1 key =  33;WhichDrum: T3 ; velocity: 0
@6780 , @0.3575048449612403 Channel: 4 
Note on, A1 key =  33;WhichDrum: T3 ; velocity: 127
@6835 , @0.36040495801033595 Channel: 4 
Note on, A1 key =  33;WhichDrum: T3 ; velocity: 0
@6835 , @0.36040495801033595 Channel: 4 
Note on, G2 key =  43;WhichDrum: C2 ; velocity: 75
@6840 , @0.3606686046511628 Channel: 4 
Note on, G2 key =  43;WhichDrum: C2 ; velocity: 0
@6840 , @0.3606686046511628 Channel: 4 
Note on, A2 key =  45;WhichDrum: T3 ; velocity: 127
@6960 , @0.3669961240310078 Channel: 4 
Note on, A2 key =  45;WhichDrum: T3 ; velocity: 0
@6960 , @0.3669961240310078 Channel: 4 
Note on, A1 key =  33;WhichDrum: T3 ; velocity: 127
@7020 , @0.3701598837209302 Channel: 4 
Note on, A1 key =  33;WhichDrum: T3 ; velocity: 0
@7020 , @0.3701598837209302 Channel: 4 
Note on, A1 key =  33;WhichDrum: T3 ; velocity: 127
@7075 , @0.3730599967700258 Channel: 4 
Note on, A1 key =  33;WhichDrum: T3 ; velocity: 0
@7075 , @0.3730599967700258 Channel: 4 
Note on, G2 key =  43;WhichDrum: C2 ; velocity: 75
@7080 , @0.3733236434108527 Channel: 4 
Note on, G2 key =  43;WhichDrum: C2 ; velocity: 0
@7080 , @0.3733236434108527 Channel: 4 
Note on, A2 key =  45;WhichDrum: T3 ; velocity: 127
@7140 , @0.3764874031007752 Channel: 4 
Note on, A2 key =  45;WhichDrum: T3 ; velocity: 0
@7140 , @0.3764874031007752 Channel: 4 
Note on, A1 key =  33;WhichDrum: T3 ; velocity: 127
@7260 , @0.38281492248062016 Channel: 4 
Note on, A1 key =  33;WhichDrum: T3 ; velocity: 0
@7260 , @0.38281492248062016 Channel: 4 
Note on, A1 key =  33;WhichDrum: T3 ; velocity: 127
@7320 , @0.38597868217054265 Channel: 4 
Note on, A1 key =  33;WhichDrum: T3 ; velocity: 0
@7320 , @0.38597868217054265 Channel: 4 
Note on, F2 key =  41;WhichDrum: HH ; velocity: 127
@7380 , @0.38914244186046515 Channel: 4 
Note on, F2 key =  41;WhichDrum: HH ; velocity: 0
@7380 , @0.38914244186046515 Channel: 4 
Note on, E2 key =  40;WhichDrum: S ; velocity: 127
@7440 , @0.39230620155038765 Channel: 4 
Note on, E2 key =  40;WhichDrum: S ; velocity: 0
@7440 , @0.39230620155038765 Channel: 4 
Note on, G2 key =  43;WhichDrum: C2 ; velocity: 127
@7500 , @0.3954699612403101 Channel: 4 
Note on, G2 key =  43;WhichDrum: C2 ; velocity: 0
@7500 , @0.3954699612403101 Channel: 4 
Note on, E2 key =  40;WhichDrum: S ; velocity: 127
@7560 , @0.3986337209302326 Channel: 4 
Note on, E2 key =  40;WhichDrum: S ; velocity: 0
@7560 , @0.3986337209302326 Channel: 4 
Note on, C3 key =  48;WhichDrum: B ; velocity: 127
@7620 , @0.401797480620155 Channel: 4 
Note on, C3 key =  48;WhichDrum: B ; velocity: 0
@7620 , @0.401797480620155 Channel: 4 
Note on, A2 key =  45;WhichDrum: T3 ; velocity: 127
@7680 , @0.4049612403100775 Channel: 4 
Note on, A2 key =  45;WhichDrum: T3 ; velocity: 0
@7680 , @0.4049612403100775 Channel: 4 
Note on, E1 key =  28;WhichDrum: S ; velocity: 127
@7800 , @0.4112887596899225 Channel: 4 
Note on, E1 key =  28;WhichDrum: S ; velocity: 0
@8040 , @0.42394379844961244 Channel: 4 
Note on, E2 key =  40;WhichDrum: S ; velocity: 127
@8160 , @0.43027131782945743 Channel: 4 
Note on, E2 key =  40;WhichDrum: S ; velocity: 0
@8160 , @0.43027131782945743 Channel: 4 
Note on, E1 key =  28;WhichDrum: S ; velocity: 127
@8640 , @0.45558139534883724 Channel: 4 
Note on, E1 key =  28;WhichDrum: S ; velocity: 0
@10200 , @0.5378391472868217 Channel: 4 
Note on, E1 key =  28;WhichDrum: S ; velocity: 127
@10260 , @0.5410029069767441 Channel: 4 
Note on, E1 key =  28;WhichDrum: S ; velocity: 0
@10260 , @0.5410029069767441 Channel: 4 
Note on, E1 key =  28;WhichDrum: S ; velocity: 127
@10320 , @0.5441666666666667 Channel: 4 
Note on, E1 key =  28;WhichDrum: S ; velocity: 0
@10440 , @0.5504941860465117 Channel: 4 
Note on, E1 key =  28;WhichDrum: S ; velocity: 127
@10560 , @0.5568217054263566 Channel: 4 
Note on, E1 key =  28;WhichDrum: S ; velocity: 0
@10680 , @0.5631492248062016 Channel: 4 
Note on, E1 key =  28;WhichDrum: S ; velocity: 127
@10740 , @0.5663129844961241 Channel: 4 
Note on, E1 key =  28;WhichDrum: S ; velocity: 0
@10740 , @0.5663129844961241 Channel: 4 
Note on, E1 key =  28;WhichDrum: S ; velocity: 127
@10800 , @0.5694767441860465 Channel: 4 
Note on, E1 key =  28;WhichDrum: S ; velocity: 0
@10920 , @0.5758042635658915 Channel: 4 
Note on, E1 key =  28;WhichDrum: S ; velocity: 127
@10980 , @0.578968023255814 Channel: 4 
Note on, E1 key =  28;WhichDrum: S ; velocity: 0
@10980 , @0.578968023255814 Channel: 4 
Note on, E1 key =  28;WhichDrum: S ; velocity: 127
@11040 , @0.5821317829457365 Channel: 4 
Note on, E1 key =  28;WhichDrum: S ; velocity: 0
@11040 , @0.5821317829457365 Channel: 4 
Note on, E1 key =  28;WhichDrum: S ; velocity: 127
@11100 , @0.585295542635659 Channel: 4 
Note on, E1 key =  28;WhichDrum: S ; velocity: 0
@11100 , @0.585295542635659 Channel: 4 
Note on, E1 key =  28;WhichDrum: S ; velocity: 127
@11160 , @0.5884593023255814 Channel: 4 
Note on, E1 key =  28;WhichDrum: S ; velocity: 0
@11160 , @0.5884593023255814 Channel: 4 
Note on, E1 key =  28;WhichDrum: S ; velocity: 127
@11220 , @0.5916230620155039 Channel: 4 
Note on, E1 key =  28;WhichDrum: S ; velocity: 0
@11220 , @0.5916230620155039 Channel: 4 
Note on, E1 key =  28;WhichDrum: S ; velocity: 127
@11280 , @0.5947868217054263 Channel: 4 
Note on, E1 key =  28;WhichDrum: S ; velocity: 0
@11280 , @0.5947868217054263 Channel: 4 
Note on, E2 key =  40;WhichDrum: S ; velocity: 127
@11340 , @0.5979505813953488 Channel: 4 
Note on, E2 key =  40;WhichDrum: S ; velocity: 0
@11340 , @0.5979505813953488 Channel: 4 
Note on, E2 key =  40;WhichDrum: S ; velocity: 127
@11400 , @0.6011143410852713 Channel: 4 
Note on, E2 key =  40;WhichDrum: S ; velocity: 0
@11400 , @0.6011143410852713 Channel: 4 
Note on, E2 key =  40;WhichDrum: S ; velocity: 127
@11460 , @0.6042781007751938 Channel: 4 
Note on, E2 key =  40;WhichDrum: S ; velocity: 0
@11460 , @0.6042781007751938 Channel: 4 
Note on, E2 key =  40;WhichDrum: S ; velocity: 127
@11520 , @0.6074418604651163 Channel: 4 
Note on, E2 key =  40;WhichDrum: S ; velocity: 0
@11520 , @0.6074418604651163 Channel: 4 
Note on, E1 key =  28;WhichDrum: S ; velocity: 127
@11580 , @0.6106056201550388 Channel: 4 
Note on, E1 key =  28;WhichDrum: S ; velocity: 0
@11580 , @0.6106056201550388 Channel: 4 
Note on, E1 key =  28;WhichDrum: S ; velocity: 127
@11640 , @0.6137693798449613 Channel: 4 
Note on, E1 key =  28;WhichDrum: S ; velocity: 0
@11640 , @0.6137693798449613 Channel: 4 
Note on, E1 key =  28;WhichDrum: S ; velocity: 127
@11700 , @0.6169331395348837 Channel: 4 
Note on, E1 key =  28;WhichDrum: S ; velocity: 0
@11700 , @0.6169331395348837 Channel: 4 
Note on, E1 key =  28;WhichDrum: S ; velocity: 127
@11760 , @0.6200968992248063 Channel: 4 
Note on, E1 key =  28;WhichDrum: S ; velocity: 0
@11760 , @0.6200968992248063 Channel: 4 
Note on, E2 key =  40;WhichDrum: S ; velocity: 127
@11820 , @0.6232606589147287 Channel: 4 
Note on, E2 key =  40;WhichDrum: S ; velocity: 0
@11820 , @0.6232606589147287 Channel: 4 
Note on, D2 key =  38;WhichDrum: T2 ; velocity: 127
@11880 , @0.6264244186046513 Channel: 4 
Note on, D2 key =  38;WhichDrum: T2 ; velocity: 0
@11880 , @0.6264244186046513 Channel: 4 
Note on, B1 key =  35;WhichDrum: T1 ; velocity: 127
@11940 , @0.6295881782945737 Channel: 4 
Note on, B1 key =  35;WhichDrum: T1 ; velocity: 0
@11940 , @0.6295881782945737 Channel: 4 
Note on, A#1 key =  34;WhichDrum: T2 ; velocity: 127
@12000 , @0.6327519379844961 Channel: 4 
Note on, A#1 key =  34;WhichDrum: T2 ; velocity: 0
@12000 , @0.6327519379844961 Channel: 4 
Note on, E1 key =  28;WhichDrum: S ; velocity: 127
@12060 , @0.6359156976744187 Channel: 4 
Note on, E1 key =  28;WhichDrum: S ; velocity: 0
@12060 , @0.6359156976744187 Channel: 4 
Note on, E1 key =  28;WhichDrum: S ; velocity: 127
@12120 , @0.639079457364341 Channel: 4 
Note on, E1 key =  28;WhichDrum: S ; velocity: 0
@12120 , @0.639079457364341 Channel: 4 
Note on, E1 key =  28;WhichDrum: S ; velocity: 127
@12180 , @0.6422432170542636 Channel: 4 
Note on, E1 key =  28;WhichDrum: S ; velocity: 0
@12180 , @0.6422432170542636 Channel: 4 
Note on, E1 key =  28;WhichDrum: S ; velocity: 127
@12240 , @0.645406976744186 Channel: 4 
Note on, E1 key =  28;WhichDrum: S ; velocity: 0
@12240 , @0.645406976744186 Channel: 4 
Note on, G1 key =  31;WhichDrum: C2 ; velocity: 127
@12300 , @0.6485707364341086 Channel: 4 
Note on, G1 key =  31;WhichDrum: C2 ; velocity: 0
@12300 , @0.6485707364341086 Channel: 4 
Note on, A1 key =  33;WhichDrum: T3 ; velocity: 127
@12360 , @0.651734496124031 Channel: 4 
Note on, A1 key =  33;WhichDrum: T3 ; velocity: 0
@12360 , @0.651734496124031 Channel: 4 
Note on, G1 key =  31;WhichDrum: C2 ; velocity: 127
@12420 , @0.6548982558139534 Channel: 4 
Note on, G1 key =  31;WhichDrum: C2 ; velocity: 0
@12420 , @0.6548982558139534 Channel: 4 
Note on, A1 key =  33;WhichDrum: T3 ; velocity: 127
@12480 , @0.658062015503876 Channel: 4 
Note on, A1 key =  33;WhichDrum: T3 ; velocity: 0
@12480 , @0.658062015503876 Channel: 4 
Note on, E1 key =  28;WhichDrum: S ; velocity: 127
@12540 , @0.6612257751937984 Channel: 4 
Note on, E1 key =  28;WhichDrum: S ; velocity: 0
@12540 , @0.6612257751937984 Channel: 4 
Note on, E1 key =  28;WhichDrum: S ; velocity: 127
@12600 , @0.664389534883721 Channel: 4 
Note on, E1 key =  28;WhichDrum: S ; velocity: 0
@12600 , @0.664389534883721 Channel: 4 
Note on, E1 key =  28;WhichDrum: S ; velocity: 127
@12660 , @0.6675532945736434 Channel: 4 
Note on, E1 key =  28;WhichDrum: S ; velocity: 0
@12660 , @0.6675532945736434 Channel: 4 
Note on, E1 key =  28;WhichDrum: S ; velocity: 127
@12720 , @0.670717054263566 Channel: 4 
Note on, E1 key =  28;WhichDrum: S ; velocity: 0
@12720 , @0.670717054263566 Channel: 4 
Note on, E2 key =  40;WhichDrum: S ; velocity: 127
@12780 , @0.6738808139534884 Channel: 4 
Note on, E2 key =  40;WhichDrum: S ; velocity: 0
@12780 , @0.6738808139534884 Channel: 4 
Note on, D2 key =  38;WhichDrum: T2 ; velocity: 127
@12840 , @0.6770445736434109 Channel: 4 
Note on, D2 key =  38;WhichDrum: T2 ; velocity: 0
@12840 , @0.6770445736434109 Channel: 4 
Note on, B1 key =  35;WhichDrum: T1 ; velocity: 127
@12900 , @0.6802083333333334 Channel: 4 
Note on, B1 key =  35;WhichDrum: T1 ; velocity: 0
@12900 , @0.6802083333333334 Channel: 4 
Note on, A#1 key =  34;WhichDrum: T2 ; velocity: 127
@12960 , @0.6833720930232559 Channel: 4 
Note on, A#1 key =  34;WhichDrum: T2 ; velocity: 0
@12960 , @0.6833720930232559 Channel: 4 
Note on, E1 key =  28;WhichDrum: S ; velocity: 127
@13020 , @0.6865358527131784 Channel: 4 
Note on, E1 key =  28;WhichDrum: S ; velocity: 0
@13020 , @0.6865358527131784 Channel: 4 
Note on, E1 key =  28;WhichDrum: S ; velocity: 127
@13080 , @0.6896996124031007 Channel: 4 
Note on, E1 key =  28;WhichDrum: S ; velocity: 0
@13080 , @0.6896996124031007 Channel: 4 
Note on, E1 key =  28;WhichDrum: S ; velocity: 127
@13140 , @0.6928633720930233 Channel: 4 
Note on, E1 key =  28;WhichDrum: S ; velocity: 0
@13140 , @0.6928633720930233 Channel: 4 
Note on, E1 key =  28;WhichDrum: S ; velocity: 127
@13200 , @0.6960271317829457 Channel: 4 
Note on, E1 key =  28;WhichDrum: S ; velocity: 0
@13200 , @0.6960271317829457 Channel: 4 
Note on, G1 key =  31;WhichDrum: C2 ; velocity: 127
@13260 , @0.6991908914728682 Channel: 4 
Note on, G1 key =  31;WhichDrum: C2 ; velocity: 0
@13260 , @0.6991908914728682 Channel: 4 
Note on, A1 key =  33;WhichDrum: T3 ; velocity: 127
@13320 , @0.7023546511627907 Channel: 4 
Note on, A1 key =  33;WhichDrum: T3 ; velocity: 0
@13320 , @0.7023546511627907 Channel: 4 
Note on, G1 key =  31;WhichDrum: C2 ; velocity: 127
@13380 , @0.7055184108527132 Channel: 4 
Note on, G1 key =  31;WhichDrum: C2 ; velocity: 0
@13380 , @0.7055184108527132 Channel: 4 
Note on, A1 key =  33;WhichDrum: T3 ; velocity: 127
@13440 , @0.7086821705426357 Channel: 4 
Note on, A1 key =  33;WhichDrum: T3 ; velocity: 0
@13440 , @0.7086821705426357 Channel: 4 
Note on, E1 key =  28;WhichDrum: S ; velocity: 127
@13500 , @0.7118459302325582 Channel: 4 
Note on, E1 key =  28;WhichDrum: S ; velocity: 0
@13500 , @0.7118459302325582 Channel: 4 
Note on, E1 key =  28;WhichDrum: S ; velocity: 127
@13560 , @0.7150096899224806 Channel: 4 
Note on, E1 key =  28;WhichDrum: S ; velocity: 0
@13560 , @0.7150096899224806 Channel: 4 
Note on, E1 key =  28;WhichDrum: S ; velocity: 127
@13620 , @0.7181734496124031 Channel: 4 
Note on, E1 key =  28;WhichDrum: S ; velocity: 0
@13620 , @0.7181734496124031 Channel: 4 
Note on, E1 key =  28;WhichDrum: S ; velocity: 127
@13680 , @0.7213372093023256 Channel: 4 
Note on, E1 key =  28;WhichDrum: S ; velocity: 0
@13680 , @0.7213372093023256 Channel: 4 
Note on, E2 key =  40;WhichDrum: S ; velocity: 127
@13740 , @0.7245009689922481 Channel: 4 
Note on, E2 key =  40;WhichDrum: S ; velocity: 0
@13740 , @0.7245009689922481 Channel: 4 
Note on, D2 key =  38;WhichDrum: T2 ; velocity: 127
@13800 , @0.7276647286821706 Channel: 4 
Note on, D2 key =  38;WhichDrum: T2 ; velocity: 0
@13800 , @0.7276647286821706 Channel: 4 
Note on, B1 key =  35;WhichDrum: T1 ; velocity: 127
@13860 , @0.7308284883720931 Channel: 4 
Note on, B1 key =  35;WhichDrum: T1 ; velocity: 0
@13860 , @0.7308284883720931 Channel: 4 
Note on, A#1 key =  34;WhichDrum: T2 ; velocity: 127
@13920 , @0.7339922480620156 Channel: 4 
Note on, A#1 key =  34;WhichDrum: T2 ; velocity: 0
@13920 , @0.7339922480620156 Channel: 4 
Note on, E1 key =  28;WhichDrum: S ; velocity: 127
@13980 , @0.737156007751938 Channel: 4 
Note on, E1 key =  28;WhichDrum: S ; velocity: 0
@13980 , @0.737156007751938 Channel: 4 
Note on, E1 key =  28;WhichDrum: S ; velocity: 127
@14040 , @0.7403197674418605 Channel: 4 
Note on, E1 key =  28;WhichDrum: S ; velocity: 0
@14040 , @0.7403197674418605 Channel: 4 
Note on, E1 key =  28;WhichDrum: S ; velocity: 127
@14100 , @0.7434835271317829 Channel: 4 
Note on, E1 key =  28;WhichDrum: S ; velocity: 0
@14100 , @0.7434835271317829 Channel: 4 
Note on, E1 key =  28;WhichDrum: S ; velocity: 127
@14160 , @0.7466472868217054 Channel: 4 
Note on, E1 key =  28;WhichDrum: S ; velocity: 0
@14160 , @0.7466472868217054 Channel: 4 
Note on, G1 key =  31;WhichDrum: C2 ; velocity: 127
@14220 , @0.7498110465116279 Channel: 4 
Note on, G1 key =  31;WhichDrum: C2 ; velocity: 0
@14220 , @0.7498110465116279 Channel: 4 
Note on, A1 key =  33;WhichDrum: T3 ; velocity: 127
@14280 , @0.7529748062015504 Channel: 4 
Note on, A1 key =  33;WhichDrum: T3 ; velocity: 0
@14280 , @0.7529748062015504 Channel: 4 
Note on, G1 key =  31;WhichDrum: C2 ; velocity: 127
@14340 , @0.7561385658914729 Channel: 4 
Note on, G1 key =  31;WhichDrum: C2 ; velocity: 0
@14340 , @0.7561385658914729 Channel: 4 
Note on, A1 key =  33;WhichDrum: T3 ; velocity: 127
@14400 , @0.7593023255813953 Channel: 4 
Note on, A1 key =  33;WhichDrum: T3 ; velocity: 0
@14400 , @0.7593023255813953 Channel: 4 
Note on, E1 key =  28;WhichDrum: S ; velocity: 127
@14460 , @0.7624660852713179 Channel: 4 
Note on, E1 key =  28;WhichDrum: S ; velocity: 0
@14460 , @0.7624660852713179 Channel: 4 
Note on, E1 key =  28;WhichDrum: S ; velocity: 127
@14520 , @0.7656298449612403 Channel: 4 
Note on, E1 key =  28;WhichDrum: S ; velocity: 0
@14520 , @0.7656298449612403 Channel: 4 
Note on, E1 key =  28;WhichDrum: S ; velocity: 127
@14580 , @0.7687936046511629 Channel: 4 
Note on, E1 key =  28;WhichDrum: S ; velocity: 0
@14580 , @0.7687936046511629 Channel: 4 
Note on, E1 key =  28;WhichDrum: S ; velocity: 127
@14640 , @0.7719573643410853 Channel: 4 
Note on, E1 key =  28;WhichDrum: S ; velocity: 0
@14640 , @0.7719573643410853 Channel: 4 
Note on, E2 key =  40;WhichDrum: S ; velocity: 127
@14700 , @0.7751211240310077 Channel: 4 
Note on, E2 key =  40;WhichDrum: S ; velocity: 0
@14700 , @0.7751211240310077 Channel: 4 
Note on, D2 key =  38;WhichDrum: T2 ; velocity: 127
@14760 , @0.7782848837209303 Channel: 4 
Note on, D2 key =  38;WhichDrum: T2 ; velocity: 0
@14760 , @0.7782848837209303 Channel: 4 
Note on, B1 key =  35;WhichDrum: T1 ; velocity: 127
@14820 , @0.7814486434108527 Channel: 4 
Note on, B1 key =  35;WhichDrum: T1 ; velocity: 0
@14820 , @0.7814486434108527 Channel: 4 
Note on, A#1 key =  34;WhichDrum: T2 ; velocity: 127
@14880 , @0.7846124031007753 Channel: 4 
Note on, A#1 key =  34;WhichDrum: T2 ; velocity: 0
@14880 , @0.7846124031007753 Channel: 4 
Note on, E1 key =  28;WhichDrum: S ; velocity: 127
@14940 , @0.7877761627906977 Channel: 4 
Note on, E1 key =  28;WhichDrum: S ; velocity: 0
@14940 , @0.7877761627906977 Channel: 4 
Note on, E1 key =  28;WhichDrum: S ; velocity: 127
@15000 , @0.7909399224806202 Channel: 4 
Note on, E1 key =  28;WhichDrum: S ; velocity: 0
@15000 , @0.7909399224806202 Channel: 4 
Note on, E1 key =  28;WhichDrum: S ; velocity: 127
@15060 , @0.7941036821705426 Channel: 4 
Note on, E1 key =  28;WhichDrum: S ; velocity: 0
@15060 , @0.7941036821705426 Channel: 4 
Note on, E1 key =  28;WhichDrum: S ; velocity: 127
@15120 , @0.7972674418604652 Channel: 4 
Note on, E1 key =  28;WhichDrum: S ; velocity: 0
@15120 , @0.7972674418604652 Channel: 4 
Note on, G1 key =  31;WhichDrum: C2 ; velocity: 127
@15180 , @0.8004312015503876 Channel: 4 
Note on, G1 key =  31;WhichDrum: C2 ; velocity: 0
@15180 , @0.8004312015503876 Channel: 4 
Note on, A1 key =  33;WhichDrum: T3 ; velocity: 127
@15240 , @0.80359496124031 Channel: 4 
Note on, A1 key =  33;WhichDrum: T3 ; velocity: 0
@15240 , @0.80359496124031 Channel: 4 
Note on, G1 key =  31;WhichDrum: C2 ; velocity: 127
@15300 , @0.8067587209302326 Channel: 4 
Note on, G1 key =  31;WhichDrum: C2 ; velocity: 0
@15300 , @0.8067587209302326 Channel: 4 
Note on, A1 key =  33;WhichDrum: T3 ; velocity: 127
@15360 , @0.809922480620155 Channel: 4 
Note on, A1 key =  33;WhichDrum: T3 ; velocity: 0
@15360 , @0.809922480620155 Channel: 4 
Note on, E1 key =  28;WhichDrum: S ; velocity: 127
@15420 , @0.8130862403100776 Channel: 4 
Note on, E1 key =  28;WhichDrum: S ; velocity: 0
@15420 , @0.8130862403100776 Channel: 4 
Note on, E1 key =  28;WhichDrum: S ; velocity: 127
@15480 , @0.81625 Channel: 4 
Note on, E1 key =  28;WhichDrum: S ; velocity: 0
@15480 , @0.81625 Channel: 4 
Note on, E1 key =  28;WhichDrum: S ; velocity: 127
@15540 , @0.8194137596899225 Channel: 4 
Note on, E1 key =  28;WhichDrum: S ; velocity: 0
@15540 , @0.8194137596899225 Channel: 4 
Note on, E1 key =  28;WhichDrum: S ; velocity: 127
@15600 , @0.822577519379845 Channel: 4 
Note on, E1 key =  28;WhichDrum: S ; velocity: 0
@15600 , @0.822577519379845 Channel: 4 
Note on, E2 key =  40;WhichDrum: S ; velocity: 127
@15660 , @0.8257412790697675 Channel: 4 
Note on, E2 key =  40;WhichDrum: S ; velocity: 0
@15660 , @0.8257412790697675 Channel: 4 
Note on, D2 key =  38;WhichDrum: T2 ; velocity: 127
@15720 , @0.82890503875969 Channel: 4 
Note on, D2 key =  38;WhichDrum: T2 ; velocity: 0
@15720 , @0.82890503875969 Channel: 4 
Note on, B1 key =  35;WhichDrum: T1 ; velocity: 127
@15780 , @0.8320687984496125 Channel: 4 
Note on, B1 key =  35;WhichDrum: T1 ; velocity: 0
@15780 , @0.8320687984496125 Channel: 4 
Note on, A#1 key =  34;WhichDrum: T2 ; velocity: 127
@15840 , @0.8352325581395349 Channel: 4 
Note on, A#1 key =  34;WhichDrum: T2 ; velocity: 0
@15840 , @0.8352325581395349 Channel: 4 
Note on, E1 key =  28;WhichDrum: S ; velocity: 127
@15900 , @0.8383963178294574 Channel: 4 
Note on, E1 key =  28;WhichDrum: S ; velocity: 0
@15900 , @0.8383963178294574 Channel: 4 
Note on, E1 key =  28;WhichDrum: S ; velocity: 127
@15960 , @0.8415600775193799 Channel: 4 
Note on, E1 key =  28;WhichDrum: S ; velocity: 0
@15960 , @0.8415600775193799 Channel: 4 
Note on, E1 key =  28;WhichDrum: S ; velocity: 127
@16020 , @0.8447238372093024 Channel: 4 
Note on, E1 key =  28;WhichDrum: S ; velocity: 0
@16020 , @0.8447238372093024 Channel: 4 
Note on, E1 key =  28;WhichDrum: S ; velocity: 127
@16080 , @0.8478875968992249 Channel: 4 
Note on, E1 key =  28;WhichDrum: S ; velocity: 0
@16080 , @0.8478875968992249 Channel: 4 
Note on, E1 key =  28;WhichDrum: S ; velocity: 127
@16140 , @0.8510513565891474 Channel: 4 
Note on, E1 key =  28;WhichDrum: S ; velocity: 0
@16140 , @0.8510513565891474 Channel: 4 
Note on, E1 key =  28;WhichDrum: S ; velocity: 127
@16200 , @0.8542151162790699 Channel: 4 
Note on, E1 key =  28;WhichDrum: S ; velocity: 0
@16200 , @0.8542151162790699 Channel: 4 
Note on, E1 key =  28;WhichDrum: S ; velocity: 127
@16260 , @0.8573788759689923 Channel: 4 
Note on, E1 key =  28;WhichDrum: S ; velocity: 0
@16260 , @0.8573788759689923 Channel: 4 
Note on, E1 key =  28;WhichDrum: S ; velocity: 127
@16320 , @0.8605426356589149 Channel: 4 
Note on, E1 key =  28;WhichDrum: S ; velocity: 0
@16320 , @0.8605426356589149 Channel: 4 
Note on, E1 key =  28;WhichDrum: S ; velocity: 127
@16380 , @0.8637063953488373 Channel: 4 
Note on, E1 key =  28;WhichDrum: S ; velocity: 0
@16380 , @0.8637063953488373 Channel: 4 
Note on, E1 key =  28;WhichDrum: S ; velocity: 127
@16440 , @0.8668701550387599 Channel: 4 
Note on, E1 key =  28;WhichDrum: S ; velocity: 0
@16440 , @0.8668701550387599 Channel: 4 
Note on, E1 key =  28;WhichDrum: S ; velocity: 127
@16500 , @0.8700339147286821 Channel: 4 
Note on, E1 key =  28;WhichDrum: S ; velocity: 0
@16500 , @0.8700339147286821 Channel: 4 
Note on, E1 key =  28;WhichDrum: S ; velocity: 127
@16560 , @0.8731976744186046 Channel: 4 
Note on, E1 key =  28;WhichDrum: S ; velocity: 0
@16560 , @0.8731976744186046 Channel: 4 
Note on, B1 key =  35;WhichDrum: T1 ; velocity: 127
@16620 , @0.8763614341085271 Channel: 4 
Note on, B1 key =  35;WhichDrum: T1 ; velocity: 0
@16620 , @0.8763614341085271 Channel: 4 
Note on, A#1 key =  34;WhichDrum: T2 ; velocity: 127
@16680 , @0.8795251937984496 Channel: 4 
Note on, A#1 key =  34;WhichDrum: T2 ; velocity: 0
@16680 , @0.8795251937984496 Channel: 4 
Note on, G2 key =  43;WhichDrum: C2 ; velocity: 127
@16740 , @0.8826889534883721 Channel: 4 
Note on, G2 key =  43;WhichDrum: C2 ; velocity: 0
@16740 , @0.8826889534883721 Channel: 4 
Note on, E2 key =  40;WhichDrum: S ; velocity: 127
@16800 , @0.8858527131782945 Channel: 4 
Note on, E2 key =  40;WhichDrum: S ; velocity: 0
@16800 , @0.8858527131782945 Channel: 4 
Note on, E1 key =  28;WhichDrum: S ; velocity: 127
@16860 , @0.8890164728682171 Channel: 4 
Note on, E1 key =  28;WhichDrum: S ; velocity: 0
@16860 , @0.8890164728682171 Channel: 4 
Note on, E1 key =  28;WhichDrum: S ; velocity: 127
@16920 , @0.8921802325581395 Channel: 4 
Note on, E1 key =  28;WhichDrum: S ; velocity: 0
@16920 , @0.8921802325581395 Channel: 4 
Note on, E1 key =  28;WhichDrum: S ; velocity: 127
@16980 , @0.895343992248062 Channel: 4 
Note on, E1 key =  28;WhichDrum: S ; velocity: 0
@16980 , @0.895343992248062 Channel: 4 
Note on, E1 key =  28;WhichDrum: S ; velocity: 127
@17040 , @0.8985077519379845 Channel: 4 
Note on, E1 key =  28;WhichDrum: S ; velocity: 0
@17040 , @0.8985077519379845 Channel: 4 
Note on, E1 key =  28;WhichDrum: S ; velocity: 127
@17100 , @0.9016715116279069 Channel: 4 
Note on, E1 key =  28;WhichDrum: S ; velocity: 0
@17100 , @0.9016715116279069 Channel: 4 
Note on, E1 key =  28;WhichDrum: S ; velocity: 127
@17160 , @0.9048352713178295 Channel: 4 
Note on, E1 key =  28;WhichDrum: S ; velocity: 0
@17160 , @0.9048352713178295 Channel: 4 
Note on, E1 key =  28;WhichDrum: S ; velocity: 127
@17220 , @0.9079990310077519 Channel: 4 
Note on, E1 key =  28;WhichDrum: S ; velocity: 0
@17220 , @0.9079990310077519 Channel: 4 
Note on, E1 key =  28;WhichDrum: S ; velocity: 127
@17280 , @0.9111627906976745 Channel: 4 
Note on, E1 key =  28;WhichDrum: S ; velocity: 0
@17280 , @0.9111627906976745 Channel: 4 
Note on, E1 key =  28;WhichDrum: S ; velocity: 127
@17340 , @0.9143265503875969 Channel: 4 
Note on, E1 key =  28;WhichDrum: S ; velocity: 0
@17340 , @0.9143265503875969 Channel: 4 
Note on, E1 key =  28;WhichDrum: S ; velocity: 127
@17400 , @0.9174903100775195 Channel: 4 
Note on, E1 key =  28;WhichDrum: S ; velocity: 0
@17400 , @0.9174903100775195 Channel: 4 
Note on, E1 key =  28;WhichDrum: S ; velocity: 127
@17460 , @0.9206540697674419 Channel: 4 
Note on, E1 key =  28;WhichDrum: S ; velocity: 0
@17460 , @0.9206540697674419 Channel: 4 
Note on, E1 key =  28;WhichDrum: S ; velocity: 127
@17520 , @0.9238178294573643 Channel: 4 
Note on, E1 key =  28;WhichDrum: S ; velocity: 0
@17520 , @0.9238178294573643 Channel: 4 
Note on, B1 key =  35;WhichDrum: T1 ; velocity: 127
@17580 , @0.9269815891472869 Channel: 4 
Note on, B1 key =  35;WhichDrum: T1 ; velocity: 0
@17580 , @0.9269815891472869 Channel: 4 
Note on, A#1 key =  34;WhichDrum: T2 ; velocity: 127
@17640 , @0.9301453488372093 Channel: 4 
Note on, A#1 key =  34;WhichDrum: T2 ; velocity: 0
@17640 , @0.9301453488372093 Channel: 4 
Note on, G1 key =  31;WhichDrum: C2 ; velocity: 127
@17700 , @0.9333091085271319 Channel: 4 
Note on, G1 key =  31;WhichDrum: C2 ; velocity: 0
@17700 , @0.9333091085271319 Channel: 4 
Note on, E1 key =  28;WhichDrum: S ; velocity: 127
@17760 , @0.9364728682170543 Channel: 4 
Note on, E1 key =  28;WhichDrum: S ; velocity: 0
@17760 , @0.9364728682170543 Channel: 4 
Note on, E1 key =  28;WhichDrum: S ; velocity: 127
@17820 , @0.9396366279069768 Channel: 4 
Note on, E1 key =  28;WhichDrum: S ; velocity: 0
@17820 , @0.9396366279069768 Channel: 4 
Note on, E1 key =  28;WhichDrum: S ; velocity: 127
@17880 , @0.9428003875968993 Channel: 4 
Note on, E1 key =  28;WhichDrum: S ; velocity: 0
@17880 , @0.9428003875968993 Channel: 4 
Note on, E2 key =  40;WhichDrum: S ; velocity: 127
@17940 , @0.9459641472868218 Channel: 4 
Note on, E2 key =  40;WhichDrum: S ; velocity: 0
@17940 , @0.9459641472868218 Channel: 4 
Note on, E1 key =  28;WhichDrum: S ; velocity: 127
@18000 , @0.9491279069767443 Channel: 4 
Note on, E1 key =  28;WhichDrum: S ; velocity: 0
@18000 , @0.9491279069767443 Channel: 4 
Note on, E1 key =  28;WhichDrum: S ; velocity: 127
@18060 , @0.9522916666666668 Channel: 4 
Note on, E1 key =  28;WhichDrum: S ; velocity: 0
@18060 , @0.9522916666666668 Channel: 4 
Note on, E1 key =  28;WhichDrum: S ; velocity: 127
@18120 , @0.9554554263565892 Channel: 4 
Note on, E1 key =  28;WhichDrum: S ; velocity: 0
@18120 , @0.9554554263565892 Channel: 4 
Note on, E1 key =  28;WhichDrum: S ; velocity: 127
@18180 , @0.9586191860465118 Channel: 4 
Note on, E1 key =  28;WhichDrum: S ; velocity: 0
@18180 , @0.9586191860465118 Channel: 4 
Note on, E1 key =  28;WhichDrum: S ; velocity: 127
@18240 , @0.9617829457364342 Channel: 4 
Note on, E1 key =  28;WhichDrum: S ; velocity: 0
@18240 , @0.9617829457364342 Channel: 4 
Note on, E1 key =  28;WhichDrum: S ; velocity: 127
@18300 , @0.9649467054263567 Channel: 4 
Note on, E1 key =  28;WhichDrum: S ; velocity: 0
@18300 , @0.9649467054263567 Channel: 4 
Note on, E1 key =  28;WhichDrum: S ; velocity: 127
@18360 , @0.9681104651162792 Channel: 4 
Note on, E1 key =  28;WhichDrum: S ; velocity: 0
@18360 , @0.9681104651162792 Channel: 4 
Note on, E1 key =  28;WhichDrum: S ; velocity: 127
@18420 , @0.9712742248062015 Channel: 4 
Note on, E1 key =  28;WhichDrum: S ; velocity: 0
@18420 , @0.9712742248062015 Channel: 4 
Note on, E1 key =  28;WhichDrum: S ; velocity: 127
@18480 , @0.974437984496124 Channel: 4 
Note on, E1 key =  28;WhichDrum: S ; velocity: 0
@18480 , @0.974437984496124 Channel: 4 
Note on, B1 key =  35;WhichDrum: T1 ; velocity: 127
@18540 , @0.9776017441860465 Channel: 4 
Note on, B1 key =  35;WhichDrum: T1 ; velocity: 0
@18540 , @0.9776017441860465 Channel: 4 
Note on, A#1 key =  34;WhichDrum: T2 ; velocity: 127
@18600 , @0.980765503875969 Channel: 4 
Note on, A#1 key =  34;WhichDrum: T2 ; velocity: 0
@18600 , @0.980765503875969 Channel: 4 
Note on, G2 key =  43;WhichDrum: C2 ; velocity: 127
@18660 , @0.9839292635658915 Channel: 4 
Note on, G2 key =  43;WhichDrum: C2 ; velocity: 0
@18660 , @0.9839292635658915 Channel: 4 
Note on, E2 key =  40;WhichDrum: S ; velocity: 127
@18720 , @0.9870930232558139 Channel: 4 
Note on, E2 key =  40;WhichDrum: S ; velocity: 0
@18720 , @0.9870930232558139 Channel: 4 
Note on, E1 key =  28;WhichDrum: S ; velocity: 127
@18780 , @0.9902567829457364 Channel: 4 
Note on, E1 key =  28;WhichDrum: S ; velocity: 0
@18780 , @0.9902567829457364 Channel: 4 
Note on, E1 key =  28;WhichDrum: S ; velocity: 127
@18840 , @0.9934205426356589 Channel: 4 
Note on, E1 key =  28;WhichDrum: S ; velocity: 0
@18840 , @0.9934205426356589 Channel: 4 
Note on, E2 key =  40;WhichDrum: S ; velocity: 127
@18900 , @0.9965843023255814 Channel: 4 
Note on, E2 key =  40;WhichDrum: S ; velocity: 0
@18900 , @0.9965843023255814 Channel: 4 
Note on, E1 key =  28;WhichDrum: S ; velocity: 127
@18960 , @0.9997480620155039 Channel: 4 
Note on, E1 key =  28;WhichDrum: S ; velocity: 0
@18960 , @0.9997480620155039 Channel: 4 
Note on, E1 key =  28;WhichDrum: S ; velocity: 127
@19020 , @1.0029118217054263 Channel: 4 
Note on, E1 key =  28;WhichDrum: S ; velocity: 0
@19020 , @1.0029118217054263 Channel: 4 
Note on, E1 key =  28;WhichDrum: S ; velocity: 127
@19080 , @1.0060755813953488 Channel: 4 
Note on, E1 key =  28;WhichDrum: S ; velocity: 0
@19080 , @1.0060755813953488 Channel: 4 
Note on, E2 key =  40;WhichDrum: S ; velocity: 127
@19140 , @1.0092393410852714 Channel: 4 
Note on, E2 key =  40;WhichDrum: S ; velocity: 0
@19140 , @1.0092393410852714 Channel: 4 
Note on, E1 key =  28;WhichDrum: S ; velocity: 127
@19200 , @1.012403100775194 Channel: 4 
Note on, E1 key =  28;WhichDrum: S ; velocity: 0
@19200 , @1.012403100775194 Channel: 4 
Note on, E1 key =  28;WhichDrum: S ; velocity: 127
@19260 , @1.0155668604651162 Channel: 4 
Note on, E1 key =  28;WhichDrum: S ; velocity: 0
@19260 , @1.0155668604651162 Channel: 4 
Note on, E1 key =  28;WhichDrum: S ; velocity: 127
@19320 , @1.0187306201550388 Channel: 4 
Note on, E1 key =  28;WhichDrum: S ; velocity: 0
@19320 , @1.0187306201550388 Channel: 4 
Note on, E2 key =  40;WhichDrum: S ; velocity: 127
@19380 , @1.0218943798449613 Channel: 4 
Note on, E2 key =  40;WhichDrum: S ; velocity: 0
@19380 , @1.0218943798449613 Channel: 4 
Note on, E1 key =  28;WhichDrum: S ; velocity: 127
@19440 , @1.0250581395348837 Channel: 4 
Note on, E1 key =  28;WhichDrum: S ; velocity: 0
@19440 , @1.0250581395348837 Channel: 4 
Note on, B1 key =  35;WhichDrum: T1 ; velocity: 127
@19500 , @1.0282218992248062 Channel: 4 
Note on, B1 key =  35;WhichDrum: T1 ; velocity: 0
@19500 , @1.0282218992248062 Channel: 4 
Note on, A#1 key =  34;WhichDrum: T2 ; velocity: 127
@19560 , @1.0313856589147288 Channel: 4 
Note on, A#1 key =  34;WhichDrum: T2 ; velocity: 0
@19560 , @1.0313856589147288 Channel: 4 
Note on, G1 key =  31;WhichDrum: C2 ; velocity: 127
@19620 , @1.0345494186046513 Channel: 4 
Note on, G1 key =  31;WhichDrum: C2 ; velocity: 0
@19620 , @1.0345494186046513 Channel: 4 
Note on, E1 key =  28;WhichDrum: S ; velocity: 127
@19680 , @1.0377131782945737 Channel: 4 
Note on, E1 key =  28;WhichDrum: S ; velocity: 0
@19680 , @1.0377131782945737 Channel: 4 
Note on, E1 key =  28;WhichDrum: S ; velocity: 127
@19740 , @1.0408769379844962 Channel: 4 
Note on, E1 key =  28;WhichDrum: S ; velocity: 0
@19740 , @1.0408769379844962 Channel: 4 
Note on, E1 key =  28;WhichDrum: S ; velocity: 127
@19800 , @1.0440406976744188 Channel: 4 
Note on, E1 key =  28;WhichDrum: S ; velocity: 0
@19800 , @1.0440406976744188 Channel: 4 
Note on, E1 key =  28;WhichDrum: S ; velocity: 127
@19860 , @1.047204457364341 Channel: 4 
Note on, E1 key =  28;WhichDrum: S ; velocity: 0
@19860 , @1.047204457364341 Channel: 4 
Note on, E1 key =  28;WhichDrum: S ; velocity: 127
@19920 , @1.0503682170542636 Channel: 4 
Note on, E1 key =  28;WhichDrum: S ; velocity: 0
@19920 , @1.0503682170542636 Channel: 4 
Note on, E1 key =  28;WhichDrum: S ; velocity: 127
@19980 , @1.0535319767441862 Channel: 4 
Note on, E1 key =  28;WhichDrum: S ; velocity: 0
@19980 , @1.0535319767441862 Channel: 4 
Note on, E1 key =  28;WhichDrum: S ; velocity: 127
@20040 , @1.0566957364341085 Channel: 4 
Note on, E1 key =  28;WhichDrum: S ; velocity: 0
@20040 , @1.0566957364341085 Channel: 4 
Note on, E1 key =  28;WhichDrum: S ; velocity: 127
@20100 , @1.059859496124031 Channel: 4 
Note on, E1 key =  28;WhichDrum: S ; velocity: 0
@20100 , @1.059859496124031 Channel: 4 
Note on, E1 key =  28;WhichDrum: S ; velocity: 127
@20160 , @1.0630232558139536 Channel: 4 
Note on, E1 key =  28;WhichDrum: S ; velocity: 0
@20160 , @1.0630232558139536 Channel: 4 
Note on, E1 key =  28;WhichDrum: S ; velocity: 127
@20220 , @1.0661870155038762 Channel: 4 
Note on, E1 key =  28;WhichDrum: S ; velocity: 0
@20220 , @1.0661870155038762 Channel: 4 
Note on, E1 key =  28;WhichDrum: S ; velocity: 127
@20280 , @1.0693507751937985 Channel: 4 
Note on, E1 key =  28;WhichDrum: S ; velocity: 0
@20280 , @1.0693507751937985 Channel: 4 
Note on, E1 key =  28;WhichDrum: S ; velocity: 127
@20340 , @1.0725145348837208 Channel: 4 
Note on, E1 key =  28;WhichDrum: S ; velocity: 0
@20340 , @1.0725145348837208 Channel: 4 
Note on, E1 key =  28;WhichDrum: S ; velocity: 127
@20400 , @1.0756782945736434 Channel: 4 
Note on, E1 key =  28;WhichDrum: S ; velocity: 0
@20400 , @1.0756782945736434 Channel: 4 
Note on, B1 key =  35;WhichDrum: T1 ; velocity: 127
@20460 , @1.078842054263566 Channel: 4 
Note on, B1 key =  35;WhichDrum: T1 ; velocity: 0
@20460 , @1.078842054263566 Channel: 4 
Note on, A#1 key =  34;WhichDrum: T2 ; velocity: 127
@20520 , @1.0820058139534883 Channel: 4 
Note on, A#1 key =  34;WhichDrum: T2 ; velocity: 0
@20520 , @1.0820058139534883 Channel: 4 
Note on, G2 key =  43;WhichDrum: C2 ; velocity: 127
@20580 , @1.0851695736434108 Channel: 4 
Note on, G2 key =  43;WhichDrum: C2 ; velocity: 0
@20580 , @1.0851695736434108 Channel: 4 
Note on, E2 key =  40;WhichDrum: S ; velocity: 127
@20640 , @1.0883333333333334 Channel: 4 
Note on, E2 key =  40;WhichDrum: S ; velocity: 0
@20640 , @1.0883333333333334 Channel: 4 
Note on, E1 key =  28;WhichDrum: S ; velocity: 127
@20700 , @1.0914970930232557 Channel: 4 
Note on, E1 key =  28;WhichDrum: S ; velocity: 0
@20700 , @1.0914970930232557 Channel: 4 
Note on, E1 key =  28;WhichDrum: S ; velocity: 127
@20760 , @1.0946608527131783 Channel: 4 
Note on, E1 key =  28;WhichDrum: S ; velocity: 0
@20760 , @1.0946608527131783 Channel: 4 
Note on, E1 key =  28;WhichDrum: S ; velocity: 127
@20820 , @1.0978246124031008 Channel: 4 
Note on, E1 key =  28;WhichDrum: S ; velocity: 0
@20820 , @1.0978246124031008 Channel: 4 
Note on, E1 key =  28;WhichDrum: S ; velocity: 127
@20880 , @1.1009883720930234 Channel: 4 
Note on, E1 key =  28;WhichDrum: S ; velocity: 0
@20880 , @1.1009883720930234 Channel: 4 
Note on, E1 key =  28;WhichDrum: S ; velocity: 127
@20940 , @1.1041521317829457 Channel: 4 
Note on, E1 key =  28;WhichDrum: S ; velocity: 0
@20940 , @1.1041521317829457 Channel: 4 
Note on, E1 key =  28;WhichDrum: S ; velocity: 127
@21000 , @1.1073158914728682 Channel: 4 
Note on, E1 key =  28;WhichDrum: S ; velocity: 0
@21000 , @1.1073158914728682 Channel: 4 
Note on, E1 key =  28;WhichDrum: S ; velocity: 127
@21060 , @1.1104796511627908 Channel: 4 
Note on, E1 key =  28;WhichDrum: S ; velocity: 0
@21060 , @1.1104796511627908 Channel: 4 
Note on, E1 key =  28;WhichDrum: S ; velocity: 127
@21120 , @1.1136434108527131 Channel: 4 
Note on, E1 key =  28;WhichDrum: S ; velocity: 0
@21120 , @1.1136434108527131 Channel: 4 
Note on, E1 key =  28;WhichDrum: S ; velocity: 127
@21180 , @1.1168071705426357 Channel: 4 
Note on, E1 key =  28;WhichDrum: S ; velocity: 0
@21180 , @1.1168071705426357 Channel: 4 
Note on, E1 key =  28;WhichDrum: S ; velocity: 127
@21240 , @1.1199709302325582 Channel: 4 
Note on, E1 key =  28;WhichDrum: S ; velocity: 0
@21240 , @1.1199709302325582 Channel: 4 
Note on, E1 key =  28;WhichDrum: S ; velocity: 127
@21300 , @1.1231346899224806 Channel: 4 
Note on, E1 key =  28;WhichDrum: S ; velocity: 0
@21300 , @1.1231346899224806 Channel: 4 
Note on, E1 key =  28;WhichDrum: S ; velocity: 127
@21360 , @1.126298449612403 Channel: 4 
Note on, E1 key =  28;WhichDrum: S ; velocity: 0
@21360 , @1.126298449612403 Channel: 4 
Note on, B1 key =  35;WhichDrum: T1 ; velocity: 127
@21420 , @1.1294622093023257 Channel: 4 
Note on, B1 key =  35;WhichDrum: T1 ; velocity: 0
@21420 , @1.1294622093023257 Channel: 4 
Note on, A#1 key =  34;WhichDrum: T2 ; velocity: 127
@21480 , @1.1326259689922482 Channel: 4 
Note on, A#1 key =  34;WhichDrum: T2 ; velocity: 0
@21480 , @1.1326259689922482 Channel: 4 
Note on, G1 key =  31;WhichDrum: C2 ; velocity: 127
@21540 , @1.1357897286821705 Channel: 4 
Note on, G1 key =  31;WhichDrum: C2 ; velocity: 0
@21540 , @1.1357897286821705 Channel: 4 
Note on, E1 key =  28;WhichDrum: S ; velocity: 127
@21600 , @1.138953488372093 Channel: 4 
Note on, E1 key =  28;WhichDrum: S ; velocity: 0
@21600 , @1.138953488372093 Channel: 4 
Note on, E1 key =  28;WhichDrum: S ; velocity: 127
@21660 , @1.1421172480620156 Channel: 4 
Note on, E1 key =  28;WhichDrum: S ; velocity: 0
@21660 , @1.1421172480620156 Channel: 4 
Note on, E1 key =  28;WhichDrum: S ; velocity: 127
@21720 , @1.145281007751938 Channel: 4 
Note on, E1 key =  28;WhichDrum: S ; velocity: 0
@21720 , @1.145281007751938 Channel: 4 
Note on, E2 key =  40;WhichDrum: S ; velocity: 127
@21780 , @1.1484447674418605 Channel: 4 
Note on, E2 key =  40;WhichDrum: S ; velocity: 0
@21780 , @1.1484447674418605 Channel: 4 
Note on, E1 key =  28;WhichDrum: S ; velocity: 127
@21840 , @1.151608527131783 Channel: 4 
Note on, E1 key =  28;WhichDrum: S ; velocity: 0
@21840 , @1.151608527131783 Channel: 4 
Note on, E1 key =  28;WhichDrum: S ; velocity: 127
@21900 , @1.1547722868217056 Channel: 4 
Note on, E1 key =  28;WhichDrum: S ; velocity: 0
@21900 , @1.1547722868217056 Channel: 4 
Note on, E1 key =  28;WhichDrum: S ; velocity: 127
@21960 , @1.157936046511628 Channel: 4 
Note on, E1 key =  28;WhichDrum: S ; velocity: 0
@21960 , @1.157936046511628 Channel: 4 
Note on, E1 key =  28;WhichDrum: S ; velocity: 127
@22020 , @1.1610998062015505 Channel: 4 
Note on, E1 key =  28;WhichDrum: S ; velocity: 0
@22020 , @1.1610998062015505 Channel: 4 
Note on, E1 key =  28;WhichDrum: S ; velocity: 127
@22080 , @1.164263565891473 Channel: 4 
Note on, E1 key =  28;WhichDrum: S ; velocity: 0
@22080 , @1.164263565891473 Channel: 4 
Note on, E1 key =  28;WhichDrum: S ; velocity: 127
@22140 , @1.1674273255813954 Channel: 4 
Note on, E1 key =  28;WhichDrum: S ; velocity: 0
@22140 , @1.1674273255813954 Channel: 4 
Note on, E1 key =  28;WhichDrum: S ; velocity: 127
@22200 , @1.170591085271318 Channel: 4 
Note on, E1 key =  28;WhichDrum: S ; velocity: 0
@22200 , @1.170591085271318 Channel: 4 
Note on, E1 key =  28;WhichDrum: S ; velocity: 127
@22260 , @1.1737548449612403 Channel: 4 
Note on, E1 key =  28;WhichDrum: S ; velocity: 0
@22260 , @1.1737548449612403 Channel: 4 
Note on, E1 key =  28;WhichDrum: S ; velocity: 127
@22320 , @1.1769186046511628 Channel: 4 
Note on, E1 key =  28;WhichDrum: S ; velocity: 0
@22320 , @1.1769186046511628 Channel: 4 
Note on, B1 key =  35;WhichDrum: T1 ; velocity: 127
@22380 , @1.1800823643410852 Channel: 4 
Note on, B1 key =  35;WhichDrum: T1 ; velocity: 0
@22380 , @1.1800823643410852 Channel: 4 
Note on, A#1 key =  34;WhichDrum: T2 ; velocity: 127
@22440 , @1.1832461240310077 Channel: 4 
Note on, A#1 key =  34;WhichDrum: T2 ; velocity: 0
@22440 , @1.1832461240310077 Channel: 4 
Note on, G2 key =  43;WhichDrum: C2 ; velocity: 127
@22500 , @1.1864098837209303 Channel: 4 
Note on, G2 key =  43;WhichDrum: C2 ; velocity: 0
@22500 , @1.1864098837209303 Channel: 4 
Note on, E2 key =  40;WhichDrum: S ; velocity: 127
@22560 , @1.1895736434108526 Channel: 4 
Note on, E2 key =  40;WhichDrum: S ; velocity: 0
@22560 , @1.1895736434108526 Channel: 4 
Note on, E1 key =  28;WhichDrum: S ; velocity: 127
@22620 , @1.1927374031007751 Channel: 4 
Note on, E1 key =  28;WhichDrum: S ; velocity: 0
@22620 , @1.1927374031007751 Channel: 4 
Note on, E1 key =  28;WhichDrum: S ; velocity: 127
@22680 , @1.1959011627906977 Channel: 4 
Note on, E1 key =  28;WhichDrum: S ; velocity: 0
@22680 , @1.1959011627906977 Channel: 4 
Note on, E2 key =  40;WhichDrum: S ; velocity: 127
@22740 , @1.1990649224806202 Channel: 4 
Note on, E2 key =  40;WhichDrum: S ; velocity: 0
@22740 , @1.1990649224806202 Channel: 4 
Note on, E1 key =  28;WhichDrum: S ; velocity: 127
@22800 , @1.2022286821705426 Channel: 4 
Note on, E1 key =  28;WhichDrum: S ; velocity: 0
@22800 , @1.2022286821705426 Channel: 4 
Note on, E1 key =  28;WhichDrum: S ; velocity: 127
@22860 , @1.2053924418604651 Channel: 4 
Note on, E1 key =  28;WhichDrum: S ; velocity: 0
@22860 , @1.2053924418604651 Channel: 4 
Note on, E1 key =  28;WhichDrum: S ; velocity: 127
@22920 , @1.2085562015503877 Channel: 4 
Note on, E1 key =  28;WhichDrum: S ; velocity: 0
@22920 , @1.2085562015503877 Channel: 4 
Note on, E2 key =  40;WhichDrum: S ; velocity: 127
@22980 , @1.21171996124031 Channel: 4 
Note on, E2 key =  40;WhichDrum: S ; velocity: 0
@22980 , @1.21171996124031 Channel: 4 
Note on, E1 key =  28;WhichDrum: S ; velocity: 127
@23040 , @1.2148837209302326 Channel: 4 
Note on, E1 key =  28;WhichDrum: S ; velocity: 0
@23040 , @1.2148837209302326 Channel: 4 
Note on, E1 key =  28;WhichDrum: S ; velocity: 127
@23100 , @1.218047480620155 Channel: 4 
Note on, E1 key =  28;WhichDrum: S ; velocity: 0
@23100 , @1.218047480620155 Channel: 4 
Note on, E1 key =  28;WhichDrum: S ; velocity: 127
@23160 , @1.2212112403100777 Channel: 4 
Note on, E1 key =  28;WhichDrum: S ; velocity: 0
@23160 , @1.2212112403100777 Channel: 4 
Note on, E2 key =  40;WhichDrum: S ; velocity: 127
@23220 , @1.224375 Channel: 4 
Note on, E2 key =  40;WhichDrum: S ; velocity: 0
@23220 , @1.224375 Channel: 4 
Note on, E1 key =  28;WhichDrum: S ; velocity: 127
@23280 , @1.2275387596899225 Channel: 4 
Note on, E1 key =  28;WhichDrum: S ; velocity: 0
@23280 , @1.2275387596899225 Channel: 4 
Note on, B1 key =  35;WhichDrum: T1 ; velocity: 127
@23340 , @1.230702519379845 Channel: 4 
Note on, B1 key =  35;WhichDrum: T1 ; velocity: 0
@23340 , @1.230702519379845 Channel: 4 
Note on, A#1 key =  34;WhichDrum: T2 ; velocity: 127
@23400 , @1.2338662790697674 Channel: 4 
Note on, A#1 key =  34;WhichDrum: T2 ; velocity: 0
@23400 , @1.2338662790697674 Channel: 4 
Note on, G1 key =  31;WhichDrum: C2 ; velocity: 127
@23460 , @1.23703003875969 Channel: 4 
Note on, G1 key =  31;WhichDrum: C2 ; velocity: 0
@23460 , @1.23703003875969 Channel: 4 
Note on, E1 key =  28;WhichDrum: S ; velocity: 127
@23520 , @1.2401937984496125 Channel: 4 
Note on, E1 key =  28;WhichDrum: S ; velocity: 0
@23520 , @1.2401937984496125 Channel: 4 
Note on, C2 key =  36;WhichDrum: B ; velocity: 127
@23580 , @1.2433575581395349 Channel: 4 
Note on, C2 key =  36;WhichDrum: B ; velocity: 0
@23580 , @1.2433575581395349 Channel: 4 
Note on, A1 key =  33;WhichDrum: T3 ; velocity: 127
@23640 , @1.2465213178294574 Channel: 4 
Note on, A1 key =  33;WhichDrum: T3 ; velocity: 0
@23640 , @1.2465213178294574 Channel: 4 
Note on, A1 key =  33;WhichDrum: T3 ; velocity: 127
@23700 , @1.24968507751938 Channel: 4 
Note on, A1 key =  33;WhichDrum: T3 ; velocity: 0
@23700 , @1.24968507751938 Channel: 4 
Note on, A1 key =  33;WhichDrum: T3 ; velocity: 127
@23760 , @1.2528488372093025 Channel: 4 
Note on, A1 key =  33;WhichDrum: T3 ; velocity: 0
@23760 , @1.2528488372093025 Channel: 4 
Note on, C2 key =  36;WhichDrum: B ; velocity: 127
@23820 , @1.2560125968992248 Channel: 4 
Note on, C2 key =  36;WhichDrum: B ; velocity: 0
@23820 , @1.2560125968992248 Channel: 4 
Note on, D2 key =  38;WhichDrum: T2 ; velocity: 127
@23880 , @1.2591763565891474 Channel: 4 
Note on, D2 key =  38;WhichDrum: T2 ; velocity: 0
@23880 , @1.2591763565891474 Channel: 4 
Note on, C2 key =  36;WhichDrum: B ; velocity: 127
@24000 , @1.2655038759689923 Channel: 4 
Note on, C2 key =  36;WhichDrum: B ; velocity: 0
@24000 , @1.2655038759689923 Channel: 4 
Note on, C2 key =  36;WhichDrum: B ; velocity: 127
@24060 , @1.2686676356589148 Channel: 4 
Note on, C2 key =  36;WhichDrum: B ; velocity: 0
@24060 , @1.2686676356589148 Channel: 4 
Note on, A1 key =  33;WhichDrum: T3 ; velocity: 127
@24120 , @1.2718313953488374 Channel: 4 
Note on, A1 key =  33;WhichDrum: T3 ; velocity: 0
@24120 , @1.2718313953488374 Channel: 4 
Note on, A1 key =  33;WhichDrum: T3 ; velocity: 127
@24180 , @1.27499515503876 Channel: 4 
Note on, A1 key =  33;WhichDrum: T3 ; velocity: 0
@24180 , @1.27499515503876 Channel: 4 
Note on, E2 key =  40;WhichDrum: S ; velocity: 127
@24240 , @1.278158914728682 Channel: 4 
Note on, E2 key =  40;WhichDrum: S ; velocity: 0
@24240 , @1.278158914728682 Channel: 4 
Note on, G2 key =  43;WhichDrum: C2 ; velocity: 127
@24300 , @1.2813226744186046 Channel: 4 
Note on, G2 key =  43;WhichDrum: C2 ; velocity: 0
@24300 , @1.2813226744186046 Channel: 4 
Note on, E2 key =  40;WhichDrum: S ; velocity: 127
@24360 , @1.2844864341085271 Channel: 4 
Note on, E2 key =  40;WhichDrum: S ; velocity: 0
@24360 , @1.2844864341085271 Channel: 4 
Note on, A2 key =  45;WhichDrum: T3 ; velocity: 127
@24480 , @1.290813953488372 Channel: 4 
Note on, A2 key =  45;WhichDrum: T3 ; velocity: 0
@24480 , @1.290813953488372 Channel: 4 
Note on, A1 key =  33;WhichDrum: T3 ; velocity: 127
@24540 , @1.2939777131782946 Channel: 4 
Note on, A1 key =  33;WhichDrum: T3 ; velocity: 0
@24540 , @1.2939777131782946 Channel: 4 
Note on, A1 key =  33;WhichDrum: T3 ; velocity: 127
@24600 , @1.2971414728682171 Channel: 4 
Note on, A1 key =  33;WhichDrum: T3 ; velocity: 0
@24600 , @1.2971414728682171 Channel: 4 
Note on, A1 key =  33;WhichDrum: T3 ; velocity: 127
@24660 , @1.3003052325581395 Channel: 4 
Note on, A1 key =  33;WhichDrum: T3 ; velocity: 0
@24660 , @1.3003052325581395 Channel: 4 
Note on, A1 key =  33;WhichDrum: T3 ; velocity: 127
@24720 , @1.303468992248062 Channel: 4 
Note on, A1 key =  33;WhichDrum: T3 ; velocity: 0
@24720 , @1.303468992248062 Channel: 4 
Note on, C2 key =  36;WhichDrum: B ; velocity: 127
@24780 , @1.3066327519379846 Channel: 4 
Note on, C2 key =  36;WhichDrum: B ; velocity: 0
@24780 , @1.3066327519379846 Channel: 4 
Note on, D2 key =  38;WhichDrum: T2 ; velocity: 127
@24840 , @1.309796511627907 Channel: 4 
Note on, D2 key =  38;WhichDrum: T2 ; velocity: 0
@24840 , @1.309796511627907 Channel: 4 
Note on, C2 key =  36;WhichDrum: B ; velocity: 127
@24960 , @1.316124031007752 Channel: 4 
Note on, C2 key =  36;WhichDrum: B ; velocity: 0
@24960 , @1.316124031007752 Channel: 4 
Note on, D3 key =  50;WhichDrum: T2 ; velocity: 127
@25020 , @1.3192877906976745 Channel: 4 
Note on, D3 key =  50;WhichDrum: T2 ; velocity: 0
@25020 , @1.3192877906976745 Channel: 4 
Note on, C3 key =  48;WhichDrum: B ; velocity: 127
@25080 , @1.3224515503875969 Channel: 4 
Note on, C3 key =  48;WhichDrum: B ; velocity: 0
@25080 , @1.3224515503875969 Channel: 4 
Note on, A2 key =  45;WhichDrum: T3 ; velocity: 127
@25140 , @1.3256153100775194 Channel: 4 
Note on, A2 key =  45;WhichDrum: T3 ; velocity: 0
@25140 , @1.3256153100775194 Channel: 4 
Note on, G#2 key =  44;WhichDrum: B ; velocity: 127
@25200 , @1.328779069767442 Channel: 4 
Note on, G#2 key =  44;WhichDrum: B ; velocity: 0
@25200 , @1.328779069767442 Channel: 4 
Note on, G2 key =  43;WhichDrum: C2 ; velocity: 127
@25260 , @1.3319428294573643 Channel: 4 
Note on, G2 key =  43;WhichDrum: C2 ; velocity: 0
@25260 , @1.3319428294573643 Channel: 4 
Note on, E2 key =  40;WhichDrum: S ; velocity: 127
@25320 , @1.3351065891472869 Channel: 4 
Note on, E2 key =  40;WhichDrum: S ; velocity: 0
@25320 , @1.3351065891472869 Channel: 4 
Note on, D#2 key =  39;WhichDrum: T1 ; velocity: 127
@25380 , @1.3382703488372094 Channel: 4 
Note on, D#2 key =  39;WhichDrum: T1 ; velocity: 0
@25380 , @1.3382703488372094 Channel: 4 
Note on, D2 key =  38;WhichDrum: T2 ; velocity: 127
@25440 , @1.341434108527132 Channel: 4 
Note on, D2 key =  38;WhichDrum: T2 ; velocity: 0
@25440 , @1.341434108527132 Channel: 4 
Note on, C2 key =  36;WhichDrum: B ; velocity: 127
@25500 , @1.3445978682170543 Channel: 4 
Note on, C2 key =  36;WhichDrum: B ; velocity: 0
@25500 , @1.3445978682170543 Channel: 4 
Note on, A1 key =  33;WhichDrum: T3 ; velocity: 127
@25560 , @1.3477616279069768 Channel: 4 
Note on, A1 key =  33;WhichDrum: T3 ; velocity: 0
@25560 , @1.3477616279069768 Channel: 4 
Note on, A1 key =  33;WhichDrum: T3 ; velocity: 127
@25620 , @1.3509253875968994 Channel: 4 
Note on, A1 key =  33;WhichDrum: T3 ; velocity: 0
@25620 , @1.3509253875968994 Channel: 4 
Note on, A1 key =  33;WhichDrum: T3 ; velocity: 127
@25680 , @1.3540891472868217 Channel: 4 
Note on, A1 key =  33;WhichDrum: T3 ; velocity: 0
@25680 , @1.3540891472868217 Channel: 4 
Note on, C2 key =  36;WhichDrum: B ; velocity: 127
@25740 , @1.3572529069767443 Channel: 4 
Note on, C2 key =  36;WhichDrum: B ; velocity: 0
@25740 , @1.3572529069767443 Channel: 4 
Note on, D2 key =  38;WhichDrum: T2 ; velocity: 127
@25800 , @1.3604166666666668 Channel: 4 
Note on, D2 key =  38;WhichDrum: T2 ; velocity: 0
@25800 , @1.3604166666666668 Channel: 4 
Note on, C2 key =  36;WhichDrum: B ; velocity: 127
@25920 , @1.3667441860465117 Channel: 4 
Note on, C2 key =  36;WhichDrum: B ; velocity: 0
@25920 , @1.3667441860465117 Channel: 4 
Note on, C2 key =  36;WhichDrum: B ; velocity: 127
@25980 , @1.3699079457364343 Channel: 4 
Note on, C2 key =  36;WhichDrum: B ; velocity: 0
@25980 , @1.3699079457364343 Channel: 4 
Note on, A1 key =  33;WhichDrum: T3 ; velocity: 127
@26040 , @1.3730717054263568 Channel: 4 
Note on, A1 key =  33;WhichDrum: T3 ; velocity: 0
@26040 , @1.3730717054263568 Channel: 4 
Note on, A1 key =  33;WhichDrum: T3 ; velocity: 127
@26100 , @1.3762354651162791 Channel: 4 
Note on, A1 key =  33;WhichDrum: T3 ; velocity: 0
@26100 , @1.3762354651162791 Channel: 4 
Note on, E2 key =  40;WhichDrum: S ; velocity: 127
@26160 , @1.3793992248062015 Channel: 4 
Note on, E2 key =  40;WhichDrum: S ; velocity: 0
@26160 , @1.3793992248062015 Channel: 4 
Note on, G2 key =  43;WhichDrum: C2 ; velocity: 127
@26220 , @1.382562984496124 Channel: 4 
Note on, G2 key =  43;WhichDrum: C2 ; velocity: 0
@26220 , @1.382562984496124 Channel: 4 
Note on, E2 key =  40;WhichDrum: S ; velocity: 127
@26280 , @1.3857267441860466 Channel: 4 
Note on, E2 key =  40;WhichDrum: S ; velocity: 0
@26280 , @1.3857267441860466 Channel: 4 
Note on, A2 key =  45;WhichDrum: T3 ; velocity: 127
@26400 , @1.3920542635658915 Channel: 4 
Note on, A2 key =  45;WhichDrum: T3 ; velocity: 0
@26400 , @1.3920542635658915 Channel: 4 
Note on, A1 key =  33;WhichDrum: T3 ; velocity: 127
@26460 , @1.395218023255814 Channel: 4 
Note on, A1 key =  33;WhichDrum: T3 ; velocity: 0
@26460 , @1.395218023255814 Channel: 4 
Note on, A1 key =  33;WhichDrum: T3 ; velocity: 127
@26520 , @1.3983817829457363 Channel: 4 
Note on, A1 key =  33;WhichDrum: T3 ; velocity: 0
@26520 , @1.3983817829457363 Channel: 4 
Note on, A1 key =  33;WhichDrum: T3 ; velocity: 127
@26580 , @1.401545542635659 Channel: 4 
Note on, A1 key =  33;WhichDrum: T3 ; velocity: 0
@26580 , @1.401545542635659 Channel: 4 
Note on, A1 key =  33;WhichDrum: T3 ; velocity: 127
@26640 , @1.4047093023255814 Channel: 4 
Note on, A1 key =  33;WhichDrum: T3 ; velocity: 0
@26640 , @1.4047093023255814 Channel: 4 
Note on, C2 key =  36;WhichDrum: B ; velocity: 127
@26700 , @1.407873062015504 Channel: 4 
Note on, C2 key =  36;WhichDrum: B ; velocity: 0
@26700 , @1.407873062015504 Channel: 4 
Note on, D2 key =  38;WhichDrum: T2 ; velocity: 127
@26760 , @1.4110368217054263 Channel: 4 
Note on, D2 key =  38;WhichDrum: T2 ; velocity: 0
@26760 , @1.4110368217054263 Channel: 4 
Note on, C2 key =  36;WhichDrum: B ; velocity: 127
@26880 , @1.4173643410852714 Channel: 4 
Note on, C2 key =  36;WhichDrum: B ; velocity: 0
@26880 , @1.4173643410852714 Channel: 4 
Note on, E3 key =  52;WhichDrum: S ; velocity: 127
@26940 , @1.4205281007751938 Channel: 4 
Note on, E3 key =  52;WhichDrum: S ; velocity: 0
@26940 , @1.4205281007751938 Channel: 4 
Note on, D3 key =  50;WhichDrum: T2 ; velocity: 127
@27000 , @1.4236918604651163 Channel: 4 
Note on, D3 key =  50;WhichDrum: T2 ; velocity: 0
@27000 , @1.4236918604651163 Channel: 4 
Note on, B2 key =  47;WhichDrum: T1 ; velocity: 127
@27060 , @1.4268556201550389 Channel: 4 
Note on, B2 key =  47;WhichDrum: T1 ; velocity: 0
@27060 , @1.4268556201550389 Channel: 4 
Note on, D3 key =  50;WhichDrum: T2 ; velocity: 127
@27120 , @1.4300193798449612 Channel: 4 
Note on, D3 key =  50;WhichDrum: T2 ; velocity: 0
@27120 , @1.4300193798449612 Channel: 4 
Note on, B2 key =  47;WhichDrum: T1 ; velocity: 127
@27180 , @1.4331831395348837 Channel: 4 
Note on, B2 key =  47;WhichDrum: T1 ; velocity: 0
@27180 , @1.4331831395348837 Channel: 4 
Note on, A#2 key =  46;WhichDrum: T2 ; velocity: 127
@27240 , @1.4363468992248063 Channel: 4 
Note on, A#2 key =  46;WhichDrum: T2 ; velocity: 0
@27240 , @1.4363468992248063 Channel: 4 
Note on, A2 key =  45;WhichDrum: T3 ; velocity: 127
@27300 , @1.4395106589147288 Channel: 4 
Note on, A2 key =  45;WhichDrum: T3 ; velocity: 0
@27300 , @1.4395106589147288 Channel: 4 
Note on, G2 key =  43;WhichDrum: C2 ; velocity: 127
@27360 , @1.4426744186046512 Channel: 4 
Note on, G2 key =  43;WhichDrum: C2 ; velocity: 0
@27360 , @1.4426744186046512 Channel: 4 
Note on, E2 key =  40;WhichDrum: S ; velocity: 127
@27420 , @1.4458381782945737 Channel: 4 
Note on, E2 key =  40;WhichDrum: S ; velocity: 0
@27420 , @1.4458381782945737 Channel: 4 
Note on, D2 key =  38;WhichDrum: T2 ; velocity: 127
@27480 , @1.4490019379844963 Channel: 4 
Note on, D2 key =  38;WhichDrum: T2 ; velocity: 0
@27480 , @1.4490019379844963 Channel: 4 
Note on, B1 key =  35;WhichDrum: T1 ; velocity: 127
@27540 , @1.4521656976744186 Channel: 4 
Note on, B1 key =  35;WhichDrum: T1 ; velocity: 0
@27540 , @1.4521656976744186 Channel: 4 
Note on, D2 key =  38;WhichDrum: T2 ; velocity: 127
@27600 , @1.4553294573643412 Channel: 4 
Note on, D2 key =  38;WhichDrum: T2 ; velocity: 0
@27600 , @1.4553294573643412 Channel: 4 
Note on, B1 key =  35;WhichDrum: T1 ; velocity: 127
@27660 , @1.4584932170542637 Channel: 4 
Note on, B1 key =  35;WhichDrum: T1 ; velocity: 0
@27660 , @1.4584932170542637 Channel: 4 
Note on, A#1 key =  34;WhichDrum: T2 ; velocity: 127
@27720 , @1.4616569767441863 Channel: 4 
Note on, A#1 key =  34;WhichDrum: T2 ; velocity: 0
@27720 , @1.4616569767441863 Channel: 4 
Note on, A1 key =  33;WhichDrum: T3 ; velocity: 127
@27780 , @1.4648207364341086 Channel: 4 
Note on, A1 key =  33;WhichDrum: T3 ; velocity: 0
@27780 , @1.4648207364341086 Channel: 4 
Note on, G1 key =  31;WhichDrum: C2 ; velocity: 127
@27840 , @1.4679844961240311 Channel: 4 
Note on, G1 key =  31;WhichDrum: C2 ; velocity: 0
@27840 , @1.4679844961240311 Channel: 4 
Note on, G1 key =  31;WhichDrum: C2 ; velocity: 127
@27900 , @1.4711482558139537 Channel: 4 
Note on, G1 key =  31;WhichDrum: C2 ; velocity: 0
@27900 , @1.4711482558139537 Channel: 4 
Note on, G1 key =  31;WhichDrum: C2 ; velocity: 127
@27960 , @1.474312015503876 Channel: 4 
Note on, G1 key =  31;WhichDrum: C2 ; velocity: 0
@27960 , @1.474312015503876 Channel: 4 
Note on, G1 key =  31;WhichDrum: C2 ; velocity: 127
@28020 , @1.4774757751937986 Channel: 4 
Note on, G1 key =  31;WhichDrum: C2 ; velocity: 0
@28020 , @1.4774757751937986 Channel: 4 
Note on, G1 key =  31;WhichDrum: C2 ; velocity: 127
@28080 , @1.480639534883721 Channel: 4 
Note on, G1 key =  31;WhichDrum: C2 ; velocity: 0
@28080 , @1.480639534883721 Channel: 4 
Note on, G1 key =  31;WhichDrum: C2 ; velocity: 127
@28140 , @1.4838032945736435 Channel: 4 
Note on, G1 key =  31;WhichDrum: C2 ; velocity: 0
@28140 , @1.4838032945736435 Channel: 4 
Note on, G1 key =  31;WhichDrum: C2 ; velocity: 127
@28170 , @1.4853851744186046 Channel: 4 
Note on, G1 key =  31;WhichDrum: C2 ; velocity: 0
@28170 , @1.4853851744186046 Channel: 4 
Note on, G1 key =  31;WhichDrum: C2 ; velocity: 127
@28200 , @1.4869670542635658 Channel: 4 
Note on, G1 key =  31;WhichDrum: C2 ; velocity: 0
@28200 , @1.4869670542635658 Channel: 4 
Note on, G2 key =  43;WhichDrum: C2 ; velocity: 127
@28320 , @1.493294573643411 Channel: 4 
Note on, G2 key =  43;WhichDrum: C2 ; velocity: 0
@28320 , @1.493294573643411 Channel: 4 
Note on, F#1 key =  30;WhichDrum: C1 ; velocity: 127
@28440 , @1.4996220930232558 Channel: 4 
Note on, F#1 key =  30;WhichDrum: C1 ; velocity: 0
@28440 , @1.4996220930232558 Channel: 4 
Note on, F#1 key =  30;WhichDrum: C1 ; velocity: 127
@28560 , @1.5059496124031009 Channel: 4 
Note on, F#1 key =  30;WhichDrum: C1 ; velocity: 0
@28560 , @1.5059496124031009 Channel: 4 
Note on, F1 key =  29;WhichDrum: HH ; velocity: 127
@28680 , @1.5122771317829458 Channel: 4 
Note on, F1 key =  29;WhichDrum: HH ; velocity: 0
@28680 , @1.5122771317829458 Channel: 4 
Note on, F1 key =  29;WhichDrum: HH ; velocity: 127
@28800 , @1.5186046511627906 Channel: 4 
Note on, F1 key =  29;WhichDrum: HH ; velocity: 0
@28800 , @1.5186046511627906 Channel: 4 
Note on, E1 key =  28;WhichDrum: S ; velocity: 127
@28860 , @1.5217684108527132 Channel: 4 
Note on, E1 key =  28;WhichDrum: S ; velocity: 0
@28860 , @1.5217684108527132 Channel: 4 
Note on, E1 key =  28;WhichDrum: S ; velocity: 127
@28920 , @1.5249321705426357 Channel: 4 
Note on, E1 key =  28;WhichDrum: S ; velocity: 0
@28920 , @1.5249321705426357 Channel: 4 
Note on, E1 key =  28;WhichDrum: S ; velocity: 127
@28980 , @1.5280959302325583 Channel: 4 
Note on, E1 key =  28;WhichDrum: S ; velocity: 0
@28980 , @1.5280959302325583 Channel: 4 
Note on, E1 key =  28;WhichDrum: S ; velocity: 127
@29040 , @1.5312596899224806 Channel: 4 
Note on, E1 key =  28;WhichDrum: S ; velocity: 0
@29040 , @1.5312596899224806 Channel: 4 
Note on, E1 key =  28;WhichDrum: S ; velocity: 127
@29100 , @1.5344234496124032 Channel: 4 
Note on, E1 key =  28;WhichDrum: S ; velocity: 0
@29100 , @1.5344234496124032 Channel: 4 
Note on, E1 key =  28;WhichDrum: S ; velocity: 127
@29160 , @1.5375872093023257 Channel: 4 
Note on, E1 key =  28;WhichDrum: S ; velocity: 0
@29160 , @1.5375872093023257 Channel: 4 
Note on, E1 key =  28;WhichDrum: S ; velocity: 127
@29220 , @1.540750968992248 Channel: 4 
Note on, E1 key =  28;WhichDrum: S ; velocity: 0
@29220 , @1.540750968992248 Channel: 4 
Note on, E1 key =  28;WhichDrum: S ; velocity: 127
@29280 , @1.5439147286821706 Channel: 4 
Note on, E1 key =  28;WhichDrum: S ; velocity: 0
@29280 , @1.5439147286821706 Channel: 4 
Note on, E1 key =  28;WhichDrum: S ; velocity: 127
@29340 , @1.5470784883720932 Channel: 4 
Note on, E1 key =  28;WhichDrum: S ; velocity: 0
@29340 , @1.5470784883720932 Channel: 4 
Note on, A1 key =  33;WhichDrum: T3 ; velocity: 127
@29370 , @1.5486603682170543 Channel: 4 
Note on, A1 key =  33;WhichDrum: T3 ; velocity: 0
@29370 , @1.5486603682170543 Channel: 4 
Note on, B1 key =  35;WhichDrum: T1 ; velocity: 127
@29400 , @1.5502422480620155 Channel: 4 
Note on, B1 key =  35;WhichDrum: T1 ; velocity: 0
@29400 , @1.5502422480620155 Channel: 4 
Note on, D2 key =  38;WhichDrum: T2 ; velocity: 127
@29460 , @1.553406007751938 Channel: 4 
Note on, D2 key =  38;WhichDrum: T2 ; velocity: 0
@29460 , @1.553406007751938 Channel: 4 
Note on, E1 key =  28;WhichDrum: S ; velocity: 127
@29520 , @1.5565697674418606 Channel: 4 
Note on, E1 key =  28;WhichDrum: S ; velocity: 0
@29520 , @1.5565697674418606 Channel: 4 
Note on, E2 key =  40;WhichDrum: S ; velocity: 127
@29580 , @1.5597335271317831 Channel: 4 
Note on, E2 key =  40;WhichDrum: S ; velocity: 0
@29580 , @1.5597335271317831 Channel: 4 
Note on, E1 key =  28;WhichDrum: S ; velocity: 127
@29640 , @1.5628972868217055 Channel: 4 
Note on, E1 key =  28;WhichDrum: S ; velocity: 0
@29640 , @1.5628972868217055 Channel: 4 
Note on, E2 key =  40;WhichDrum: S ; velocity: 127
@29700 , @1.566061046511628 Channel: 4 
Note on, E2 key =  40;WhichDrum: S ; velocity: 0
@29700 , @1.566061046511628 Channel: 4 
Note on, E1 key =  28;WhichDrum: S ; velocity: 127
@29760 , @1.5692248062015506 Channel: 4 
Note on, E1 key =  28;WhichDrum: S ; velocity: 0
@29760 , @1.5692248062015506 Channel: 4 
Note on, G1 key =  31;WhichDrum: C2 ; velocity: 127
@29820 , @1.572388565891473 Channel: 4 
Note on, G1 key =  31;WhichDrum: C2 ; velocity: 0
@29820 , @1.572388565891473 Channel: 4 
Note on, G1 key =  31;WhichDrum: C2 ; velocity: 127
@29880 , @1.5755523255813955 Channel: 4 
Note on, G1 key =  31;WhichDrum: C2 ; velocity: 0
@29880 , @1.5755523255813955 Channel: 4 
Note on, G1 key =  31;WhichDrum: C2 ; velocity: 127
@29940 , @1.578716085271318 Channel: 4 
Note on, G1 key =  31;WhichDrum: C2 ; velocity: 0
@29940 , @1.578716085271318 Channel: 4 
Note on, G1 key =  31;WhichDrum: C2 ; velocity: 127
@30000 , @1.5818798449612403 Channel: 4 
Note on, G1 key =  31;WhichDrum: C2 ; velocity: 0
@30000 , @1.5818798449612403 Channel: 4 
Note on, G1 key =  31;WhichDrum: C2 ; velocity: 127
@30060 , @1.5850436046511627 Channel: 4 
Note on, G1 key =  31;WhichDrum: C2 ; velocity: 0
@30060 , @1.5850436046511627 Channel: 4 
Note on, G1 key =  31;WhichDrum: C2 ; velocity: 127
@30090 , @1.586625484496124 Channel: 4 
Note on, G1 key =  31;WhichDrum: C2 ; velocity: 0
@30090 , @1.586625484496124 Channel: 4 
Note on, G1 key =  31;WhichDrum: C2 ; velocity: 127
@30120 , @1.5882073643410852 Channel: 4 
Note on, G1 key =  31;WhichDrum: C2 ; velocity: 0
@30120 , @1.5882073643410852 Channel: 4 
Note on, G2 key =  43;WhichDrum: C2 ; velocity: 127
@30240 , @1.5945348837209303 Channel: 4 
Note on, G2 key =  43;WhichDrum: C2 ; velocity: 0
@30240 , @1.5945348837209303 Channel: 4 
Note on, F#1 key =  30;WhichDrum: C1 ; velocity: 127
@30360 , @1.6008624031007752 Channel: 4 
Note on, F#1 key =  30;WhichDrum: C1 ; velocity: 0
@30360 , @1.6008624031007752 Channel: 4 
Note on, F#1 key =  30;WhichDrum: C1 ; velocity: 127
@30480 , @1.60718992248062 Channel: 4 
Note on, F#1 key =  30;WhichDrum: C1 ; velocity: 0
@30480 , @1.60718992248062 Channel: 4 
Note on, F1 key =  29;WhichDrum: HH ; velocity: 127
@30600 , @1.6135174418604652 Channel: 4 
Note on, F1 key =  29;WhichDrum: HH ; velocity: 0
@30600 , @1.6135174418604652 Channel: 4 
Note on, F1 key =  29;WhichDrum: HH ; velocity: 127
@30720 , @1.61984496124031 Channel: 4 
Note on, F1 key =  29;WhichDrum: HH ; velocity: 0
@30720 , @1.61984496124031 Channel: 4 
Note on, E1 key =  28;WhichDrum: S ; velocity: 127
@30780 , @1.6230087209302326 Channel: 4 
Note on, E1 key =  28;WhichDrum: S ; velocity: 0
@30780 , @1.6230087209302326 Channel: 4 
Note on, E1 key =  28;WhichDrum: S ; velocity: 127
@30840 , @1.6261724806201552 Channel: 4 
Note on, E1 key =  28;WhichDrum: S ; velocity: 0
@30840 , @1.6261724806201552 Channel: 4 
Note on, E1 key =  28;WhichDrum: S ; velocity: 127
@30900 , @1.6293362403100775 Channel: 4 
Note on, E1 key =  28;WhichDrum: S ; velocity: 0
@30900 , @1.6293362403100775 Channel: 4 
Note on, E1 key =  28;WhichDrum: S ; velocity: 127
@30960 , @1.6325 Channel: 4 
Note on, E1 key =  28;WhichDrum: S ; velocity: 0
@30960 , @1.6325 Channel: 4 
Note on, E1 key =  28;WhichDrum: S ; velocity: 127
@31020 , @1.6356637596899226 Channel: 4 
Note on, E1 key =  28;WhichDrum: S ; velocity: 0
@31020 , @1.6356637596899226 Channel: 4 
Note on, E1 key =  28;WhichDrum: S ; velocity: 127
@31080 , @1.638827519379845 Channel: 4 
Note on, E1 key =  28;WhichDrum: S ; velocity: 0
@31080 , @1.638827519379845 Channel: 4 
Note on, E1 key =  28;WhichDrum: S ; velocity: 127
@31140 , @1.6419912790697675 Channel: 4 
Note on, E1 key =  28;WhichDrum: S ; velocity: 0
@31140 , @1.6419912790697675 Channel: 4 
Note on, E1 key =  28;WhichDrum: S ; velocity: 127
@31200 , @1.64515503875969 Channel: 4 
Note on, E1 key =  28;WhichDrum: S ; velocity: 0
@31200 , @1.64515503875969 Channel: 4 
Note on, E2 key =  40;WhichDrum: S ; velocity: 127
@31260 , @1.6483187984496126 Channel: 4 
Note on, E2 key =  40;WhichDrum: S ; velocity: 0
@31260 , @1.6483187984496126 Channel: 4 
Note on, D2 key =  38;WhichDrum: T2 ; velocity: 127
@31320 , @1.651482558139535 Channel: 4 
Note on, D2 key =  38;WhichDrum: T2 ; velocity: 0
@31320 , @1.651482558139535 Channel: 4 
Note on, B1 key =  35;WhichDrum: T1 ; velocity: 127
@31380 , @1.6546463178294575 Channel: 4 
Note on, B1 key =  35;WhichDrum: T1 ; velocity: 0
@31380 , @1.6546463178294575 Channel: 4 
Note on, A#1 key =  34;WhichDrum: T2 ; velocity: 127
@31440 , @1.65781007751938 Channel: 4 
Note on, A#1 key =  34;WhichDrum: T2 ; velocity: 0
@31440 , @1.65781007751938 Channel: 4 
Note on, A1 key =  33;WhichDrum: T3 ; velocity: 127
@31500 , @1.6609738372093024 Channel: 4 
Note on, A1 key =  33;WhichDrum: T3 ; velocity: 0
@31500 , @1.6609738372093024 Channel: 4 
Note on, B1 key =  35;WhichDrum: T1 ; velocity: 127
@31560 , @1.664137596899225 Channel: 4 
Note on, B1 key =  35;WhichDrum: T1 ; velocity: 0
@31560 , @1.664137596899225 Channel: 4 
Note on, A#1 key =  34;WhichDrum: T2 ; velocity: 127
@31620 , @1.6673013565891475 Channel: 4 
Note on, A#1 key =  34;WhichDrum: T2 ; velocity: 0
@31620 , @1.6673013565891475 Channel: 4 
Note on, A1 key =  33;WhichDrum: T3 ; velocity: 127
@31680 , @1.6704651162790698 Channel: 4 
Note on, A1 key =  33;WhichDrum: T3 ; velocity: 0
@31680 , @1.6704651162790698 Channel: 4 
Note on, G1 key =  31;WhichDrum: C2 ; velocity: 127
@31740 , @1.6736288759689923 Channel: 4 
Note on, G1 key =  31;WhichDrum: C2 ; velocity: 0
@31740 , @1.6736288759689923 Channel: 4 
Note on, G1 key =  31;WhichDrum: C2 ; velocity: 127
@31800 , @1.676792635658915 Channel: 4 
Note on, G1 key =  31;WhichDrum: C2 ; velocity: 0
@31800 , @1.676792635658915 Channel: 4 
Note on, G1 key =  31;WhichDrum: C2 ; velocity: 127
@31860 , @1.6799563953488375 Channel: 4 
Note on, G1 key =  31;WhichDrum: C2 ; velocity: 0
@31860 , @1.6799563953488375 Channel: 4 
Note on, G1 key =  31;WhichDrum: C2 ; velocity: 127
@31920 , @1.6831201550387598 Channel: 4 
Note on, G1 key =  31;WhichDrum: C2 ; velocity: 0
@31920 , @1.6831201550387598 Channel: 4 
Note on, G1 key =  31;WhichDrum: C2 ; velocity: 127
@31980 , @1.6862839147286823 Channel: 4 
Note on, G1 key =  31;WhichDrum: C2 ; velocity: 0
@31980 , @1.6862839147286823 Channel: 4 
Note on, G1 key =  31;WhichDrum: C2 ; velocity: 127
@32010 , @1.6878657945736435 Channel: 4 
Note on, G1 key =  31;WhichDrum: C2 ; velocity: 0
@32010 , @1.6878657945736435 Channel: 4 
Note on, G1 key =  31;WhichDrum: C2 ; velocity: 127
@32040 , @1.6894476744186049 Channel: 4 
Note on, G1 key =  31;WhichDrum: C2 ; velocity: 0
@32040 , @1.6894476744186049 Channel: 4 
Note on, G2 key =  43;WhichDrum: C2 ; velocity: 127
@32160 , @1.6957751937984498 Channel: 4 
Note on, G2 key =  43;WhichDrum: C2 ; velocity: 0
@32160 , @1.6957751937984498 Channel: 4 
Note on, F#1 key =  30;WhichDrum: C1 ; velocity: 127
@32280 , @1.7021027131782949 Channel: 4 
Note on, F#1 key =  30;WhichDrum: C1 ; velocity: 0
@32280 , @1.7021027131782949 Channel: 4 
Note on, F#1 key =  30;WhichDrum: C1 ; velocity: 127
@32400 , @1.7084302325581397 Channel: 4 
Note on, F#1 key =  30;WhichDrum: C1 ; velocity: 0
@32400 , @1.7084302325581397 Channel: 4 
Note on, F1 key =  29;WhichDrum: HH ; velocity: 127
@32520 , @1.7147577519379846 Channel: 4 
Note on, F1 key =  29;WhichDrum: HH ; velocity: 0
@32520 , @1.7147577519379846 Channel: 4 
Note on, F1 key =  29;WhichDrum: HH ; velocity: 127
@32640 , @1.7210852713178297 Channel: 4 
Note on, F1 key =  29;WhichDrum: HH ; velocity: 0
@32640 , @1.7210852713178297 Channel: 4 
Note on, E1 key =  28;WhichDrum: S ; velocity: 127
@32700 , @1.724249031007752 Channel: 4 
Note on, E1 key =  28;WhichDrum: S ; velocity: 0
@32700 , @1.724249031007752 Channel: 4 
Note on, E1 key =  28;WhichDrum: S ; velocity: 127
@32760 , @1.7274127906976746 Channel: 4 
Note on, E1 key =  28;WhichDrum: S ; velocity: 0
@32760 , @1.7274127906976746 Channel: 4 
Note on, E1 key =  28;WhichDrum: S ; velocity: 127
@32820 , @1.7305765503875972 Channel: 4 
Note on, E1 key =  28;WhichDrum: S ; velocity: 0
@32820 , @1.7305765503875972 Channel: 4 
Note on, E1 key =  28;WhichDrum: S ; velocity: 127
@32880 , @1.7337403100775197 Channel: 4 
Note on, E1 key =  28;WhichDrum: S ; velocity: 0
@32880 , @1.7337403100775197 Channel: 4 
Note on, E1 key =  28;WhichDrum: S ; velocity: 127
@32940 , @1.7369040697674418 Channel: 4 
Note on, E1 key =  28;WhichDrum: S ; velocity: 0
@32940 , @1.7369040697674418 Channel: 4 
Note on, E1 key =  28;WhichDrum: S ; velocity: 127
@33000 , @1.7400678294573642 Channel: 4 
Note on, E1 key =  28;WhichDrum: S ; velocity: 0
@33000 , @1.7400678294573642 Channel: 4 
Note on, E1 key =  28;WhichDrum: S ; velocity: 127
@33060 , @1.7432315891472867 Channel: 4 
Note on, E1 key =  28;WhichDrum: S ; velocity: 0
@33060 , @1.7432315891472867 Channel: 4 
Note on, E1 key =  28;WhichDrum: S ; velocity: 127
@33120 , @1.7463953488372093 Channel: 4 
Note on, E1 key =  28;WhichDrum: S ; velocity: 0
@33120 , @1.7463953488372093 Channel: 4 
Note on, E1 key =  28;WhichDrum: S ; velocity: 127
@33180 , @1.7495591085271316 Channel: 4 
Note on, E1 key =  28;WhichDrum: S ; velocity: 0
@33180 , @1.7495591085271316 Channel: 4 
Note on, A1 key =  33;WhichDrum: T3 ; velocity: 127
@33210 , @1.751140988372093 Channel: 4 
Note on, A1 key =  33;WhichDrum: T3 ; velocity: 0
@33210 , @1.751140988372093 Channel: 4 
Note on, B1 key =  35;WhichDrum: T1 ; velocity: 127
@33240 , @1.7527228682170541 Channel: 4 
Note on, B1 key =  35;WhichDrum: T1 ; velocity: 0
@33240 , @1.7527228682170541 Channel: 4 
Note on, D2 key =  38;WhichDrum: T2 ; velocity: 127
@33300 , @1.7558866279069767 Channel: 4 
Note on, D2 key =  38;WhichDrum: T2 ; velocity: 0
@33300 , @1.7558866279069767 Channel: 4 
Note on, E1 key =  28;WhichDrum: S ; velocity: 127
@33360 , @1.7590503875968992 Channel: 4 
Note on, E1 key =  28;WhichDrum: S ; velocity: 0
@33360 , @1.7590503875968992 Channel: 4 
Note on, E2 key =  40;WhichDrum: S ; velocity: 127
@33420 , @1.7622141472868216 Channel: 4 
Note on, E2 key =  40;WhichDrum: S ; velocity: 0
@33420 , @1.7622141472868216 Channel: 4 
Note on, E1 key =  28;WhichDrum: S ; velocity: 127
@33480 , @1.7653779069767441 Channel: 4 
Note on, E1 key =  28;WhichDrum: S ; velocity: 0
@33480 , @1.7653779069767441 Channel: 4 
Note on, E2 key =  40;WhichDrum: S ; velocity: 127
@33540 , @1.7685416666666667 Channel: 4 
Note on, E2 key =  40;WhichDrum: S ; velocity: 0
@33540 , @1.7685416666666667 Channel: 4 
Note on, E1 key =  28;WhichDrum: S ; velocity: 127
@33600 , @1.771705426356589 Channel: 4 
Note on, E1 key =  28;WhichDrum: S ; velocity: 0
@33600 , @1.771705426356589 Channel: 4 
Note on, G1 key =  31;WhichDrum: C2 ; velocity: 127
@33660 , @1.7748691860465116 Channel: 4 
Note on, G1 key =  31;WhichDrum: C2 ; velocity: 0
@33660 , @1.7748691860465116 Channel: 4 
Note on, G1 key =  31;WhichDrum: C2 ; velocity: 127
@33720 , @1.7780329457364341 Channel: 4 
Note on, G1 key =  31;WhichDrum: C2 ; velocity: 0
@33720 , @1.7780329457364341 Channel: 4 
Note on, G1 key =  31;WhichDrum: C2 ; velocity: 127
@33780 , @1.7811967054263567 Channel: 4 
Note on, G1 key =  31;WhichDrum: C2 ; velocity: 0
@33780 , @1.7811967054263567 Channel: 4 
Note on, G1 key =  31;WhichDrum: C2 ; velocity: 127
@33840 , @1.784360465116279 Channel: 4 
Note on, G1 key =  31;WhichDrum: C2 ; velocity: 0
@33840 , @1.784360465116279 Channel: 4 
Note on, G1 key =  31;WhichDrum: C2 ; velocity: 127
@33900 , @1.7875242248062015 Channel: 4 
Note on, G1 key =  31;WhichDrum: C2 ; velocity: 0
@33900 , @1.7875242248062015 Channel: 4 
Note on, G1 key =  31;WhichDrum: C2 ; velocity: 127
@33930 , @1.7891061046511627 Channel: 4 
Note on, G1 key =  31;WhichDrum: C2 ; velocity: 0
@33930 , @1.7891061046511627 Channel: 4 
Note on, G1 key =  31;WhichDrum: C2 ; velocity: 127
@33960 , @1.790687984496124 Channel: 4 
Note on, G1 key =  31;WhichDrum: C2 ; velocity: 0
@33960 , @1.790687984496124 Channel: 4 
Note on, G2 key =  43;WhichDrum: C2 ; velocity: 127
@34080 , @1.797015503875969 Channel: 4 
Note on, G2 key =  43;WhichDrum: C2 ; velocity: 0
@34080 , @1.797015503875969 Channel: 4 
Note on, F#1 key =  30;WhichDrum: C1 ; velocity: 127
@34200 , @1.8033430232558139 Channel: 4 
Note on, F#1 key =  30;WhichDrum: C1 ; velocity: 0
@34200 , @1.8033430232558139 Channel: 4 
Note on, F#1 key =  30;WhichDrum: C1 ; velocity: 127
@34320 , @1.809670542635659 Channel: 4 
Note on, F#1 key =  30;WhichDrum: C1 ; velocity: 0
@34320 , @1.809670542635659 Channel: 4 
Note on, F1 key =  29;WhichDrum: HH ; velocity: 127
@34440 , @1.8159980620155038 Channel: 4 
Note on, F1 key =  29;WhichDrum: HH ; velocity: 0
@34440 , @1.8159980620155038 Channel: 4 
Note on, F1 key =  29;WhichDrum: HH ; velocity: 127
@34560 , @1.822325581395349 Channel: 4 
Note on, F1 key =  29;WhichDrum: HH ; velocity: 0
@34560 , @1.822325581395349 Channel: 4 
Note on, E1 key =  28;WhichDrum: S ; velocity: 127
@34620 , @1.8254893410852713 Channel: 4 
Note on, E1 key =  28;WhichDrum: S ; velocity: 0
@34620 , @1.8254893410852713 Channel: 4 
Note on, E1 key =  28;WhichDrum: S ; velocity: 127
@34680 , @1.8286531007751938 Channel: 4 
Note on, E1 key =  28;WhichDrum: S ; velocity: 0
@34680 , @1.8286531007751938 Channel: 4 
Note on, E1 key =  28;WhichDrum: S ; velocity: 127
@34740 , @1.8318168604651164 Channel: 4 
Note on, E1 key =  28;WhichDrum: S ; velocity: 0
@34740 , @1.8318168604651164 Channel: 4 
Note on, E1 key =  28;WhichDrum: S ; velocity: 127
@34800 , @1.834980620155039 Channel: 4 
Note on, E1 key =  28;WhichDrum: S ; velocity: 0
@34800 , @1.834980620155039 Channel: 4 
Note on, G1 key =  31;WhichDrum: C2 ; velocity: 127
@34860 , @1.8381443798449613 Channel: 4 
Note on, G1 key =  31;WhichDrum: C2 ; velocity: 0
@34860 , @1.8381443798449613 Channel: 4 
Note on, A1 key =  33;WhichDrum: T3 ; velocity: 127
@34920 , @1.8413081395348838 Channel: 4 
Note on, A1 key =  33;WhichDrum: T3 ; velocity: 0
@34920 , @1.8413081395348838 Channel: 4 
Note on, G1 key =  31;WhichDrum: C2 ; velocity: 127
@34980 , @1.8444718992248064 Channel: 4 
Note on, G1 key =  31;WhichDrum: C2 ; velocity: 0
@34980 , @1.8444718992248064 Channel: 4 
Note on, A1 key =  33;WhichDrum: T3 ; velocity: 127
@35040 , @1.8476356589147287 Channel: 4 
Note on, A1 key =  33;WhichDrum: T3 ; velocity: 0
@35040 , @1.8476356589147287 Channel: 4 
Note on, E1 key =  28;WhichDrum: S ; velocity: 127
@35100 , @1.8507994186046512 Channel: 4 
Note on, E1 key =  28;WhichDrum: S ; velocity: 0
@35100 , @1.8507994186046512 Channel: 4 
Note on, E1 key =  28;WhichDrum: S ; velocity: 127
@35160 , @1.8539631782945738 Channel: 4 
Note on, E1 key =  28;WhichDrum: S ; velocity: 0
@35160 , @1.8539631782945738 Channel: 4 
Note on, E1 key =  28;WhichDrum: S ; velocity: 127
@35220 , @1.8571269379844961 Channel: 4 
Note on, E1 key =  28;WhichDrum: S ; velocity: 0
@35220 , @1.8571269379844961 Channel: 4 
Note on, E1 key =  28;WhichDrum: S ; velocity: 127
@35280 , @1.8602906976744187 Channel: 4 
Note on, E1 key =  28;WhichDrum: S ; velocity: 0
@35280 , @1.8602906976744187 Channel: 4 
Note on, E2 key =  40;WhichDrum: S ; velocity: 127
@35340 , @1.8634544573643412 Channel: 4 
Note on, E2 key =  40;WhichDrum: S ; velocity: 0
@35340 , @1.8634544573643412 Channel: 4 
Note on, D2 key =  38;WhichDrum: T2 ; velocity: 127
@35400 , @1.8666182170542638 Channel: 4 
Note on, D2 key =  38;WhichDrum: T2 ; velocity: 0
@35400 , @1.8666182170542638 Channel: 4 
Note on, B1 key =  35;WhichDrum: T1 ; velocity: 127
@35460 , @1.8697819767441861 Channel: 4 
Note on, B1 key =  35;WhichDrum: T1 ; velocity: 0
@35460 , @1.8697819767441861 Channel: 4 
Note on, A#1 key =  34;WhichDrum: T2 ; velocity: 127
@35520 , @1.8729457364341087 Channel: 4 
Note on, A#1 key =  34;WhichDrum: T2 ; velocity: 0
@35520 , @1.8729457364341087 Channel: 4 
Note on, E1 key =  28;WhichDrum: S ; velocity: 127
@35580 , @1.8761094961240312 Channel: 4 
Note on, E1 key =  28;WhichDrum: S ; velocity: 0
@35580 , @1.8761094961240312 Channel: 4 
Note on, E1 key =  28;WhichDrum: S ; velocity: 127
@35640 , @1.8792732558139535 Channel: 4 
Note on, E1 key =  28;WhichDrum: S ; velocity: 0
@35640 , @1.8792732558139535 Channel: 4 
Note on, E1 key =  28;WhichDrum: S ; velocity: 127
@35700 , @1.882437015503876 Channel: 4 
Note on, E1 key =  28;WhichDrum: S ; velocity: 0
@35700 , @1.882437015503876 Channel: 4 
Note on, E1 key =  28;WhichDrum: S ; velocity: 127
@35760 , @1.8856007751937987 Channel: 4 
Note on, E1 key =  28;WhichDrum: S ; velocity: 0
@35760 , @1.8856007751937987 Channel: 4 
Note on, G1 key =  31;WhichDrum: C2 ; velocity: 127
@35820 , @1.8887645348837212 Channel: 4 
Note on, G1 key =  31;WhichDrum: C2 ; velocity: 0
@35820 , @1.8887645348837212 Channel: 4 
Note on, A1 key =  33;WhichDrum: T3 ; velocity: 127
@35880 , @1.8919282945736435 Channel: 4 
Note on, A1 key =  33;WhichDrum: T3 ; velocity: 0
@35880 , @1.8919282945736435 Channel: 4 
Note on, G1 key =  31;WhichDrum: C2 ; velocity: 127
@35940 , @1.895092054263566 Channel: 4 
Note on, G1 key =  31;WhichDrum: C2 ; velocity: 0
@35940 , @1.895092054263566 Channel: 4 
Note on, A1 key =  33;WhichDrum: T3 ; velocity: 127
@36000 , @1.8982558139534886 Channel: 4 
Note on, A1 key =  33;WhichDrum: T3 ; velocity: 0
@36000 , @1.8982558139534886 Channel: 4 
Note on, E1 key =  28;WhichDrum: S ; velocity: 127
@36060 , @1.901419573643411 Channel: 4 
Note on, E1 key =  28;WhichDrum: S ; velocity: 0
@36060 , @1.901419573643411 Channel: 4 
Note on, G1 key =  31;WhichDrum: C2 ; velocity: 127
@36120 , @1.9045833333333335 Channel: 4 
Note on, G1 key =  31;WhichDrum: C2 ; velocity: 0
@36120 , @1.9045833333333335 Channel: 4 
Note on, A1 key =  33;WhichDrum: T3 ; velocity: 127
@36180 , @1.907747093023256 Channel: 4 
Note on, A1 key =  33;WhichDrum: T3 ; velocity: 0
@36180 , @1.907747093023256 Channel: 4 
Note on, A#1 key =  34;WhichDrum: T2 ; velocity: 127
@36240 , @1.9109108527131784 Channel: 4 
Note on, A#1 key =  34;WhichDrum: T2 ; velocity: 0
@36240 , @1.9109108527131784 Channel: 4 
Note on, B1 key =  35;WhichDrum: T1 ; velocity: 127
@36300 , @1.914074612403101 Channel: 4 
Note on, B1 key =  35;WhichDrum: T1 ; velocity: 0
@36300 , @1.914074612403101 Channel: 4 
Note on, D2 key =  38;WhichDrum: T2 ; velocity: 127
@36360 , @1.9172383720930235 Channel: 4 
Note on, D2 key =  38;WhichDrum: T2 ; velocity: 0
@36360 , @1.9172383720930235 Channel: 4 
Note on, D#2 key =  39;WhichDrum: T1 ; velocity: 127
@36420 , @1.920402131782946 Channel: 4 
Note on, D#2 key =  39;WhichDrum: T1 ; velocity: 0
@36420 , @1.920402131782946 Channel: 4 
Note on, E2 key =  40;WhichDrum: S ; velocity: 127
@36480 , @1.9235658914728684 Channel: 4 
Note on, E2 key =  40;WhichDrum: S ; velocity: 0
@36480 , @1.9235658914728684 Channel: 4 
Note on, E1 key =  28;WhichDrum: S ; velocity: 127
@36540 , @1.926729651162791 Channel: 4 
Note on, E1 key =  28;WhichDrum: S ; velocity: 0
@36540 , @1.926729651162791 Channel: 4 
Note on, E1 key =  28;WhichDrum: S ; velocity: 127
@36600 , @1.9298934108527135 Channel: 4 
Note on, E1 key =  28;WhichDrum: S ; velocity: 0
@36600 , @1.9298934108527135 Channel: 4 
Note on, E1 key =  28;WhichDrum: S ; velocity: 127
@36660 , @1.9330571705426358 Channel: 4 
Note on, E1 key =  28;WhichDrum: S ; velocity: 0
@36660 , @1.9330571705426358 Channel: 4 
Note on, E1 key =  28;WhichDrum: S ; velocity: 127
@36720 , @1.9362209302325584 Channel: 4 
Note on, E1 key =  28;WhichDrum: S ; velocity: 0
@36720 , @1.9362209302325584 Channel: 4 
Note on, G1 key =  31;WhichDrum: C2 ; velocity: 127
@36780 , @1.9393846899224805 Channel: 4 
Note on, G1 key =  31;WhichDrum: C2 ; velocity: 0
@36780 , @1.9393846899224805 Channel: 4 
Note on, A1 key =  33;WhichDrum: T3 ; velocity: 127
@36840 , @1.942548449612403 Channel: 4 
Note on, A1 key =  33;WhichDrum: T3 ; velocity: 0
@36840 , @1.942548449612403 Channel: 4 
Note on, G1 key =  31;WhichDrum: C2 ; velocity: 127
@36900 , @1.9457122093023256 Channel: 4 
Note on, G1 key =  31;WhichDrum: C2 ; velocity: 0
@36900 , @1.9457122093023256 Channel: 4 
Note on, A1 key =  33;WhichDrum: T3 ; velocity: 127
@36960 , @1.948875968992248 Channel: 4 
Note on, A1 key =  33;WhichDrum: T3 ; velocity: 0
@36960 , @1.948875968992248 Channel: 4 
Note on, E1 key =  28;WhichDrum: S ; velocity: 127
@37020 , @1.9520397286821705 Channel: 4 
Note on, E1 key =  28;WhichDrum: S ; velocity: 0
@37020 , @1.9520397286821705 Channel: 4 
Note on, E1 key =  28;WhichDrum: S ; velocity: 127
@37080 , @1.955203488372093 Channel: 4 
Note on, E1 key =  28;WhichDrum: S ; velocity: 0
@37080 , @1.955203488372093 Channel: 4 
Note on, E1 key =  28;WhichDrum: S ; velocity: 127
@37140 , @1.9583672480620153 Channel: 4 
Note on, E1 key =  28;WhichDrum: S ; velocity: 0
@37140 , @1.9583672480620153 Channel: 4 
Note on, E1 key =  28;WhichDrum: S ; velocity: 127
@37200 , @1.961531007751938 Channel: 4 
Note on, E1 key =  28;WhichDrum: S ; velocity: 0
@37200 , @1.961531007751938 Channel: 4 
Note on, E2 key =  40;WhichDrum: S ; velocity: 127
@37260 , @1.9646947674418604 Channel: 4 
Note on, E2 key =  40;WhichDrum: S ; velocity: 0
@37260 , @1.9646947674418604 Channel: 4 
Note on, D2 key =  38;WhichDrum: T2 ; velocity: 127
@37320 , @1.967858527131783 Channel: 4 
Note on, D2 key =  38;WhichDrum: T2 ; velocity: 0
@37320 , @1.967858527131783 Channel: 4 
Note on, B1 key =  35;WhichDrum: T1 ; velocity: 127
@37380 , @1.9710222868217053 Channel: 4 
Note on, B1 key =  35;WhichDrum: T1 ; velocity: 0
@37380 , @1.9710222868217053 Channel: 4 
Note on, A#1 key =  34;WhichDrum: T2 ; velocity: 127
@37440 , @1.9741860465116279 Channel: 4 
Note on, A#1 key =  34;WhichDrum: T2 ; velocity: 0
@37440 , @1.9741860465116279 Channel: 4 
Note on, E1 key =  28;WhichDrum: S ; velocity: 127
@37500 , @1.9773498062015504 Channel: 4 
Note on, E1 key =  28;WhichDrum: S ; velocity: 0
@37500 , @1.9773498062015504 Channel: 4 
Note on, E1 key =  28;WhichDrum: S ; velocity: 127
@37560 , @1.9805135658914728 Channel: 4 
Note on, E1 key =  28;WhichDrum: S ; velocity: 0
@37560 , @1.9805135658914728 Channel: 4 
Note on, E1 key =  28;WhichDrum: S ; velocity: 127
@37620 , @1.9836773255813953 Channel: 4 
Note on, E1 key =  28;WhichDrum: S ; velocity: 0
@37620 , @1.9836773255813953 Channel: 4 
Note on, E1 key =  28;WhichDrum: S ; velocity: 127
@37680 , @1.9868410852713179 Channel: 4 
Note on, E1 key =  28;WhichDrum: S ; velocity: 0
@37680 , @1.9868410852713179 Channel: 4 
Note on, G1 key =  31;WhichDrum: C2 ; velocity: 127
@37740 , @1.9900048449612402 Channel: 4 
Note on, G1 key =  31;WhichDrum: C2 ; velocity: 0
@37740 , @1.9900048449612402 Channel: 4 
Note on, A1 key =  33;WhichDrum: T3 ; velocity: 127
@37800 , @1.9931686046511627 Channel: 4 
Note on, A1 key =  33;WhichDrum: T3 ; velocity: 0
@37800 , @1.9931686046511627 Channel: 4 
Note on, G1 key =  31;WhichDrum: C2 ; velocity: 127
@37860 , @1.9963323643410853 Channel: 4 
Note on, G1 key =  31;WhichDrum: C2 ; velocity: 0
@37860 , @1.9963323643410853 Channel: 4 
Note on, A1 key =  33;WhichDrum: T3 ; velocity: 127
@37920 , @1.9994961240310078 Channel: 4 
Note on, A1 key =  33;WhichDrum: T3 ; velocity: 0
@37920 , @1.9994961240310078 Channel: 4 
Note on, E1 key =  28;WhichDrum: S ; velocity: 127
@37980 , @2.00265988372093 Channel: 4 
Note on, E1 key =  28;WhichDrum: S ; velocity: 0
@37980 , @2.00265988372093 Channel: 4 
Note on, E1 key =  28;WhichDrum: S ; velocity: 127
@38040 , @2.0058236434108525 Channel: 4 
Note on, E1 key =  28;WhichDrum: S ; velocity: 0
@38040 , @2.0058236434108525 Channel: 4 
Note on, E1 key =  28;WhichDrum: S ; velocity: 127
@38100 , @2.0089874031007753 Channel: 4 
Note on, E1 key =  28;WhichDrum: S ; velocity: 0
@38100 , @2.0089874031007753 Channel: 4 
Note on, E1 key =  28;WhichDrum: S ; velocity: 127
@38160 , @2.0121511627906976 Channel: 4 
Note on, E1 key =  28;WhichDrum: S ; velocity: 0
@38160 , @2.0121511627906976 Channel: 4 
Note on, E2 key =  40;WhichDrum: S ; velocity: 127
@38220 , @2.0153149224806204 Channel: 4 
Note on, E2 key =  40;WhichDrum: S ; velocity: 0
@38220 , @2.0153149224806204 Channel: 4 
Note on, D2 key =  38;WhichDrum: T2 ; velocity: 127
@38280 , @2.0184786821705427 Channel: 4 
Note on, D2 key =  38;WhichDrum: T2 ; velocity: 0
@38280 , @2.0184786821705427 Channel: 4 
Note on, B1 key =  35;WhichDrum: T1 ; velocity: 127
@38340 , @2.021642441860465 Channel: 4 
Note on, B1 key =  35;WhichDrum: T1 ; velocity: 0
@38340 , @2.021642441860465 Channel: 4 
Note on, A#1 key =  34;WhichDrum: T2 ; velocity: 127
@38400 , @2.024806201550388 Channel: 4 
Note on, A#1 key =  34;WhichDrum: T2 ; velocity: 0
@38400 , @2.024806201550388 Channel: 4 
Note on, E1 key =  28;WhichDrum: S ; velocity: 127
@38460 , @2.02796996124031 Channel: 4 
Note on, E1 key =  28;WhichDrum: S ; velocity: 0
@38460 , @2.02796996124031 Channel: 4 
Note on, E1 key =  28;WhichDrum: S ; velocity: 127
@38520 , @2.0311337209302325 Channel: 4 
Note on, E1 key =  28;WhichDrum: S ; velocity: 0
@38520 , @2.0311337209302325 Channel: 4 
Note on, E1 key =  28;WhichDrum: S ; velocity: 127
@38580 , @2.0342974806201553 Channel: 4 
Note on, E1 key =  28;WhichDrum: S ; velocity: 0
@38580 , @2.0342974806201553 Channel: 4 
Note on, E1 key =  28;WhichDrum: S ; velocity: 127
@38640 , @2.0374612403100776 Channel: 4 
Note on, E1 key =  28;WhichDrum: S ; velocity: 0
@38640 , @2.0374612403100776 Channel: 4 
Note on, E1 key =  28;WhichDrum: S ; velocity: 127
@38700 , @2.040625 Channel: 4 
Note on, E1 key =  28;WhichDrum: S ; velocity: 0
@38700 , @2.040625 Channel: 4 
Note on, E1 key =  28;WhichDrum: S ; velocity: 127
@38760 , @2.0437887596899227 Channel: 4 
Note on, E1 key =  28;WhichDrum: S ; velocity: 0
@38760 , @2.0437887596899227 Channel: 4 
Note on, E1 key =  28;WhichDrum: S ; velocity: 127
@38820 , @2.046952519379845 Channel: 4 
Note on, E1 key =  28;WhichDrum: S ; velocity: 0
@38820 , @2.046952519379845 Channel: 4 
Note on, E1 key =  28;WhichDrum: S ; velocity: 127
@38880 , @2.0501162790697673 Channel: 4 
Note on, E1 key =  28;WhichDrum: S ; velocity: 0
@38880 , @2.0501162790697673 Channel: 4 
Note on, E1 key =  28;WhichDrum: S ; velocity: 127
@38940 , @2.05328003875969 Channel: 4 
Note on, E1 key =  28;WhichDrum: S ; velocity: 0
@38940 , @2.05328003875969 Channel: 4 
Note on, E1 key =  28;WhichDrum: S ; velocity: 127
@39000 , @2.0564437984496124 Channel: 4 
Note on, E1 key =  28;WhichDrum: S ; velocity: 0
@39000 , @2.0564437984496124 Channel: 4 
Note on, E1 key =  28;WhichDrum: S ; velocity: 127
@39060 , @2.0596075581395348 Channel: 4 
Note on, E1 key =  28;WhichDrum: S ; velocity: 0
@39060 , @2.0596075581395348 Channel: 4 
Note on, E1 key =  28;WhichDrum: S ; velocity: 127
@39120 , @2.0627713178294576 Channel: 4 
Note on, E1 key =  28;WhichDrum: S ; velocity: 0
@39120 , @2.0627713178294576 Channel: 4 
Note on, B1 key =  35;WhichDrum: T1 ; velocity: 127
@39180 , @2.06593507751938 Channel: 4 
Note on, B1 key =  35;WhichDrum: T1 ; velocity: 0
@39180 , @2.06593507751938 Channel: 4 
Note on, A#1 key =  34;WhichDrum: T2 ; velocity: 127
@39240 , @2.0690988372093027 Channel: 4 
Note on, A#1 key =  34;WhichDrum: T2 ; velocity: 0
@39240 , @2.0690988372093027 Channel: 4 
Note on, G2 key =  43;WhichDrum: C2 ; velocity: 127
@39300 , @2.072262596899225 Channel: 4 
Note on, G2 key =  43;WhichDrum: C2 ; velocity: 0
@39300 , @2.072262596899225 Channel: 4 
Note on, E2 key =  40;WhichDrum: S ; velocity: 127
@39360 , @2.0754263565891473 Channel: 4 
Note on, E2 key =  40;WhichDrum: S ; velocity: 0
@39360 , @2.0754263565891473 Channel: 4 
Note on, E1 key =  28;WhichDrum: S ; velocity: 127
@39420 , @2.07859011627907 Channel: 4 
Note on, E1 key =  28;WhichDrum: S ; velocity: 0
@39420 , @2.07859011627907 Channel: 4 
Note on, E1 key =  28;WhichDrum: S ; velocity: 127
@39480 , @2.0817538759689924 Channel: 4 
Note on, E1 key =  28;WhichDrum: S ; velocity: 0
@39480 , @2.0817538759689924 Channel: 4 
Note on, E1 key =  28;WhichDrum: S ; velocity: 127
@39540 , @2.0849176356589147 Channel: 4 
Note on, E1 key =  28;WhichDrum: S ; velocity: 0
@39540 , @2.0849176356589147 Channel: 4 
Note on, E1 key =  28;WhichDrum: S ; velocity: 127
@39600 , @2.0880813953488375 Channel: 4 
Note on, E1 key =  28;WhichDrum: S ; velocity: 0
@39600 , @2.0880813953488375 Channel: 4 
Note on, E1 key =  28;WhichDrum: S ; velocity: 127
@39660 , @2.09124515503876 Channel: 4 
Note on, E1 key =  28;WhichDrum: S ; velocity: 0
@39660 , @2.09124515503876 Channel: 4 
Note on, E1 key =  28;WhichDrum: S ; velocity: 127
@39720 , @2.094408914728682 Channel: 4 
Note on, E1 key =  28;WhichDrum: S ; velocity: 0
@39720 , @2.094408914728682 Channel: 4 
Note on, E1 key =  28;WhichDrum: S ; velocity: 127
@39780 , @2.097572674418605 Channel: 4 
Note on, E1 key =  28;WhichDrum: S ; velocity: 0
@39780 , @2.097572674418605 Channel: 4 
Note on, E1 key =  28;WhichDrum: S ; velocity: 127
@39840 , @2.1007364341085273 Channel: 4 
Note on, E1 key =  28;WhichDrum: S ; velocity: 0
@39840 , @2.1007364341085273 Channel: 4 
Note on, E1 key =  28;WhichDrum: S ; velocity: 127
@39900 , @2.1039001937984496 Channel: 4 
Note on, E1 key =  28;WhichDrum: S ; velocity: 0
@39900 , @2.1039001937984496 Channel: 4 
Note on, E1 key =  28;WhichDrum: S ; velocity: 127
@39960 , @2.1070639534883724 Channel: 4 
Note on, E1 key =  28;WhichDrum: S ; velocity: 0
@39960 , @2.1070639534883724 Channel: 4 
Note on, E1 key =  28;WhichDrum: S ; velocity: 127
@40020 , @2.1102277131782947 Channel: 4 
Note on, E1 key =  28;WhichDrum: S ; velocity: 0
@40020 , @2.1102277131782947 Channel: 4 
Note on, E1 key =  28;WhichDrum: S ; velocity: 127
@40080 , @2.113391472868217 Channel: 4 
Note on, E1 key =  28;WhichDrum: S ; velocity: 0
@40080 , @2.113391472868217 Channel: 4 
Note on, B1 key =  35;WhichDrum: T1 ; velocity: 127
@40140 , @2.11655523255814 Channel: 4 
Note on, B1 key =  35;WhichDrum: T1 ; velocity: 0
@40140 , @2.11655523255814 Channel: 4 
Note on, A#1 key =  34;WhichDrum: T2 ; velocity: 127
@40200 , @2.119718992248062 Channel: 4 
Note on, A#1 key =  34;WhichDrum: T2 ; velocity: 0
@40200 , @2.119718992248062 Channel: 4 
Note on, G1 key =  31;WhichDrum: C2 ; velocity: 127
@40260 , @2.122882751937985 Channel: 4 
Note on, G1 key =  31;WhichDrum: C2 ; velocity: 0
@40260 , @2.122882751937985 Channel: 4 
Note on, E1 key =  28;WhichDrum: S ; velocity: 127
@40320 , @2.1260465116279073 Channel: 4 
Note on, E1 key =  28;WhichDrum: S ; velocity: 0
@40320 , @2.1260465116279073 Channel: 4 
Note on, E1 key =  28;WhichDrum: S ; velocity: 127
@40380 , @2.1292102713178296 Channel: 4 
Note on, E1 key =  28;WhichDrum: S ; velocity: 0
@40380 , @2.1292102713178296 Channel: 4 
Note on, E1 key =  28;WhichDrum: S ; velocity: 127
@40440 , @2.1323740310077524 Channel: 4 
Note on, E1 key =  28;WhichDrum: S ; velocity: 0
@40440 , @2.1323740310077524 Channel: 4 
Note on, E2 key =  40;WhichDrum: S ; velocity: 127
@40500 , @2.1355377906976747 Channel: 4 
Note on, E2 key =  40;WhichDrum: S ; velocity: 0
@40500 , @2.1355377906976747 Channel: 4 
Note on, E1 key =  28;WhichDrum: S ; velocity: 127
@40560 , @2.138701550387597 Channel: 4 
Note on, E1 key =  28;WhichDrum: S ; velocity: 0
@40560 , @2.138701550387597 Channel: 4 
Note on, E1 key =  28;WhichDrum: S ; velocity: 127
@40620 , @2.14186531007752 Channel: 4 
Note on, E1 key =  28;WhichDrum: S ; velocity: 0
@40620 , @2.14186531007752 Channel: 4 
Note on, E1 key =  28;WhichDrum: S ; velocity: 127
@40680 , @2.1450290697674417 Channel: 4 
Note on, E1 key =  28;WhichDrum: S ; velocity: 0
@40680 , @2.1450290697674417 Channel: 4 
Note on, E1 key =  28;WhichDrum: S ; velocity: 127
@40740 , @2.1481928294573645 Channel: 4 
Note on, E1 key =  28;WhichDrum: S ; velocity: 0
@40740 , @2.1481928294573645 Channel: 4 
Note on, E1 key =  28;WhichDrum: S ; velocity: 127
@40800 , @2.151356589147287 Channel: 4 
Note on, E1 key =  28;WhichDrum: S ; velocity: 0
@40800 , @2.151356589147287 Channel: 4 
Note on, E1 key =  28;WhichDrum: S ; velocity: 127
@40860 , @2.154520348837209 Channel: 4 
Note on, E1 key =  28;WhichDrum: S ; velocity: 0
@40860 , @2.154520348837209 Channel: 4 
Note on, E1 key =  28;WhichDrum: S ; velocity: 127
@40920 , @2.157684108527132 Channel: 4 
Note on, E1 key =  28;WhichDrum: S ; velocity: 0
@40920 , @2.157684108527132 Channel: 4 
Note on, E1 key =  28;WhichDrum: S ; velocity: 127
@40980 , @2.160847868217054 Channel: 4 
Note on, E1 key =  28;WhichDrum: S ; velocity: 0
@40980 , @2.160847868217054 Channel: 4 
Note on, E1 key =  28;WhichDrum: S ; velocity: 127
@41040 , @2.1640116279069765 Channel: 4 
Note on, E1 key =  28;WhichDrum: S ; velocity: 0
@41040 , @2.1640116279069765 Channel: 4 
Note on, B1 key =  35;WhichDrum: T1 ; velocity: 127
@41100 , @2.1671753875968993 Channel: 4 
Note on, B1 key =  35;WhichDrum: T1 ; velocity: 0
@41100 , @2.1671753875968993 Channel: 4 
Note on, A#1 key =  34;WhichDrum: T2 ; velocity: 127
@41160 , @2.1703391472868216 Channel: 4 
Note on, A#1 key =  34;WhichDrum: T2 ; velocity: 0
@41160 , @2.1703391472868216 Channel: 4 
Note on, G2 key =  43;WhichDrum: C2 ; velocity: 127
@41220 , @2.173502906976744 Channel: 4 
Note on, G2 key =  43;WhichDrum: C2 ; velocity: 0
@41220 , @2.173502906976744 Channel: 4 
Note on, E2 key =  40;WhichDrum: S ; velocity: 127
@41280 , @2.1766666666666667 Channel: 4 
Note on, E2 key =  40;WhichDrum: S ; velocity: 0
@41280 , @2.1766666666666667 Channel: 4 
Note on, E1 key =  28;WhichDrum: S ; velocity: 127
@41340 , @2.179830426356589 Channel: 4 
Note on, E1 key =  28;WhichDrum: S ; velocity: 0
@41340 , @2.179830426356589 Channel: 4 
Note on, E1 key =  28;WhichDrum: S ; velocity: 127
@41400 , @2.1829941860465114 Channel: 4 
Note on, E1 key =  28;WhichDrum: S ; velocity: 0
@41400 , @2.1829941860465114 Channel: 4 
Note on, E2 key =  40;WhichDrum: S ; velocity: 127
@41460 , @2.186157945736434 Channel: 4 
Note on, E2 key =  40;WhichDrum: S ; velocity: 0
@41460 , @2.186157945736434 Channel: 4 
Note on, E1 key =  28;WhichDrum: S ; velocity: 127
@41520 , @2.1893217054263565 Channel: 4 
Note on, E1 key =  28;WhichDrum: S ; velocity: 0
@41520 , @2.1893217054263565 Channel: 4 
Note on, E1 key =  28;WhichDrum: S ; velocity: 127
@41580 , @2.192485465116279 Channel: 4 
Note on, E1 key =  28;WhichDrum: S ; velocity: 0
@41580 , @2.192485465116279 Channel: 4 
Note on, E1 key =  28;WhichDrum: S ; velocity: 127
@41640 , @2.1956492248062016 Channel: 4 
Note on, E1 key =  28;WhichDrum: S ; velocity: 0
@41640 , @2.1956492248062016 Channel: 4 
Note on, E2 key =  40;WhichDrum: S ; velocity: 127
@41700 , @2.198812984496124 Channel: 4 
Note on, E2 key =  40;WhichDrum: S ; velocity: 0
@41700 , @2.198812984496124 Channel: 4 
Note on, E1 key =  28;WhichDrum: S ; velocity: 127
@41760 , @2.2019767441860467 Channel: 4 
Note on, E1 key =  28;WhichDrum: S ; velocity: 0
@41760 , @2.2019767441860467 Channel: 4 
Note on, E1 key =  28;WhichDrum: S ; velocity: 127
@41820 , @2.205140503875969 Channel: 4 
Note on, E1 key =  28;WhichDrum: S ; velocity: 0
@41820 , @2.205140503875969 Channel: 4 
Note on, E1 key =  28;WhichDrum: S ; velocity: 127
@41880 , @2.2083042635658914 Channel: 4 
Note on, E1 key =  28;WhichDrum: S ; velocity: 0
@41880 , @2.2083042635658914 Channel: 4 
Note on, E2 key =  40;WhichDrum: S ; velocity: 127
@41940 , @2.211468023255814 Channel: 4 
Note on, E2 key =  40;WhichDrum: S ; velocity: 0
@41940 , @2.211468023255814 Channel: 4 
Note on, E1 key =  28;WhichDrum: S ; velocity: 127
@42000 , @2.2146317829457365 Channel: 4 
Note on, E1 key =  28;WhichDrum: S ; velocity: 0
@42000 , @2.2146317829457365 Channel: 4 
Note on, B1 key =  35;WhichDrum: T1 ; velocity: 127
@42060 , @2.217795542635659 Channel: 4 
Note on, B1 key =  35;WhichDrum: T1 ; velocity: 0
@42060 , @2.217795542635659 Channel: 4 
Note on, A#1 key =  34;WhichDrum: T2 ; velocity: 127
@42120 , @2.2209593023255816 Channel: 4 
Note on, A#1 key =  34;WhichDrum: T2 ; velocity: 0
@42120 , @2.2209593023255816 Channel: 4 
Note on, G1 key =  31;WhichDrum: C2 ; velocity: 127
@42180 , @2.224123062015504 Channel: 4 
Note on, G1 key =  31;WhichDrum: C2 ; velocity: 0
@42180 , @2.224123062015504 Channel: 4 
Note on, E1 key =  28;WhichDrum: S ; velocity: 127
@42240 , @2.2272868217054262 Channel: 4 
Note on, E1 key =  28;WhichDrum: S ; velocity: 0
@42240 , @2.2272868217054262 Channel: 4 
Note on, C2 key =  36;WhichDrum: B ; velocity: 127
@42300 , @2.230450581395349 Channel: 4 
Note on, C2 key =  36;WhichDrum: B ; velocity: 0
@42300 , @2.230450581395349 Channel: 4 
Note on, A1 key =  33;WhichDrum: T3 ; velocity: 127
@42360 , @2.2336143410852713 Channel: 4 
Note on, A1 key =  33;WhichDrum: T3 ; velocity: 0
@42360 , @2.2336143410852713 Channel: 4 
Note on, A1 key =  33;WhichDrum: T3 ; velocity: 127
@42420 , @2.2367781007751937 Channel: 4 
Note on, A1 key =  33;WhichDrum: T3 ; velocity: 0
@42420 , @2.2367781007751937 Channel: 4 
Note on, A1 key =  33;WhichDrum: T3 ; velocity: 127
@42480 , @2.2399418604651165 Channel: 4 
Note on, A1 key =  33;WhichDrum: T3 ; velocity: 0
@42480 , @2.2399418604651165 Channel: 4 
Note on, C2 key =  36;WhichDrum: B ; velocity: 127
@42540 , @2.243105620155039 Channel: 4 
Note on, C2 key =  36;WhichDrum: B ; velocity: 0
@42540 , @2.243105620155039 Channel: 4 
Note on, D2 key =  38;WhichDrum: T2 ; velocity: 127
@42600 , @2.246269379844961 Channel: 4 
Note on, D2 key =  38;WhichDrum: T2 ; velocity: 0
@42600 , @2.246269379844961 Channel: 4 
Note on, C2 key =  36;WhichDrum: B ; velocity: 127
@42720 , @2.252596899224806 Channel: 4 
Note on, C2 key =  36;WhichDrum: B ; velocity: 0
@42720 , @2.252596899224806 Channel: 4 
Note on, C2 key =  36;WhichDrum: B ; velocity: 127
@42780 , @2.255760658914729 Channel: 4 
Note on, C2 key =  36;WhichDrum: B ; velocity: 0
@42780 , @2.255760658914729 Channel: 4 
Note on, A1 key =  33;WhichDrum: T3 ; velocity: 127
@42840 , @2.2589244186046513 Channel: 4 
Note on, A1 key =  33;WhichDrum: T3 ; velocity: 0
@42840 , @2.2589244186046513 Channel: 4 
Note on, A1 key =  33;WhichDrum: T3 ; velocity: 127
@42900 , @2.2620881782945736 Channel: 4 
Note on, A1 key =  33;WhichDrum: T3 ; velocity: 0
@42900 , @2.2620881782945736 Channel: 4 
Note on, E2 key =  40;WhichDrum: S ; velocity: 127
@42960 , @2.2652519379844964 Channel: 4 
Note on, E2 key =  40;WhichDrum: S ; velocity: 0
@42960 , @2.2652519379844964 Channel: 4 
Note on, G2 key =  43;WhichDrum: C2 ; velocity: 127
@43020 , @2.2684156976744188 Channel: 4 
Note on, G2 key =  43;WhichDrum: C2 ; velocity: 0
@43020 , @2.2684156976744188 Channel: 4 
Note on, E2 key =  40;WhichDrum: S ; velocity: 127
@43080 , @2.271579457364341 Channel: 4 
Note on, E2 key =  40;WhichDrum: S ; velocity: 0
@43080 , @2.271579457364341 Channel: 4 
Note on, A2 key =  45;WhichDrum: T3 ; velocity: 127
@43200 , @2.277906976744186 Channel: 4 
Note on, A2 key =  45;WhichDrum: T3 ; velocity: 0
@43200 , @2.277906976744186 Channel: 4 
Note on, A1 key =  33;WhichDrum: T3 ; velocity: 127
@43260 , @2.2810707364341085 Channel: 4 
Note on, A1 key =  33;WhichDrum: T3 ; velocity: 0
@43260 , @2.2810707364341085 Channel: 4 
Note on, A1 key =  33;WhichDrum: T3 ; velocity: 127
@43320 , @2.2842344961240313 Channel: 4 
Note on, A1 key =  33;WhichDrum: T3 ; velocity: 0
@43320 , @2.2842344961240313 Channel: 4 
Note on, A1 key =  33;WhichDrum: T3 ; velocity: 127
@43380 , @2.2873982558139536 Channel: 4 
Note on, A1 key =  33;WhichDrum: T3 ; velocity: 0
@43380 , @2.2873982558139536 Channel: 4 
Note on, A1 key =  33;WhichDrum: T3 ; velocity: 127
@43440 , @2.290562015503876 Channel: 4 
Note on, A1 key =  33;WhichDrum: T3 ; velocity: 0
@43440 , @2.290562015503876 Channel: 4 
Note on, C2 key =  36;WhichDrum: B ; velocity: 127
@43500 , @2.2937257751937987 Channel: 4 
Note on, C2 key =  36;WhichDrum: B ; velocity: 0
@43500 , @2.2937257751937987 Channel: 4 
Note on, D2 key =  38;WhichDrum: T2 ; velocity: 127
@43560 , @2.296889534883721 Channel: 4 
Note on, D2 key =  38;WhichDrum: T2 ; velocity: 0
@43560 , @2.296889534883721 Channel: 4 
Note on, C2 key =  36;WhichDrum: B ; velocity: 127
@43680 , @2.303217054263566 Channel: 4 
Note on, C2 key =  36;WhichDrum: B ; velocity: 0
@43680 , @2.303217054263566 Channel: 4 
Note on, D3 key =  50;WhichDrum: T2 ; velocity: 127
@43740 , @2.3063808139534885 Channel: 4 
Note on, D3 key =  50;WhichDrum: T2 ; velocity: 0
@43740 , @2.3063808139534885 Channel: 4 
Note on, C3 key =  48;WhichDrum: B ; velocity: 127
@43800 , @2.3095445736434113 Channel: 4 
Note on, C3 key =  48;WhichDrum: B ; velocity: 0
@43800 , @2.3095445736434113 Channel: 4 
Note on, A2 key =  45;WhichDrum: T3 ; velocity: 127
@43860 , @2.3127083333333336 Channel: 4 
Note on, A2 key =  45;WhichDrum: T3 ; velocity: 0
@43860 , @2.3127083333333336 Channel: 4 
Note on, G#2 key =  44;WhichDrum: B ; velocity: 127
@43920 , @2.315872093023256 Channel: 4 
Note on, G#2 key =  44;WhichDrum: B ; velocity: 0
@43920 , @2.315872093023256 Channel: 4 
Note on, G2 key =  43;WhichDrum: C2 ; velocity: 127
@43980 , @2.3190358527131787 Channel: 4 
Note on, G2 key =  43;WhichDrum: C2 ; velocity: 0
@43980 , @2.3190358527131787 Channel: 4 
Note on, E2 key =  40;WhichDrum: S ; velocity: 127
@44040 , @2.322199612403101 Channel: 4 
Note on, E2 key =  40;WhichDrum: S ; velocity: 0
@44040 , @2.322199612403101 Channel: 4 
Note on, D#2 key =  39;WhichDrum: T1 ; velocity: 127
@44100 , @2.3253633720930234 Channel: 4 
Note on, D#2 key =  39;WhichDrum: T1 ; velocity: 0
@44100 , @2.3253633720930234 Channel: 4 
Note on, D2 key =  38;WhichDrum: T2 ; velocity: 127
@44160 , @2.328527131782946 Channel: 4 
Note on, D2 key =  38;WhichDrum: T2 ; velocity: 0
@44160 , @2.328527131782946 Channel: 4 
Note on, C2 key =  36;WhichDrum: B ; velocity: 127
@44220 , @2.3316908914728685 Channel: 4 
Note on, C2 key =  36;WhichDrum: B ; velocity: 0
@44220 , @2.3316908914728685 Channel: 4 
Note on, A1 key =  33;WhichDrum: T3 ; velocity: 127
@44280 , @2.334854651162791 Channel: 4 
Note on, A1 key =  33;WhichDrum: T3 ; velocity: 0
@44280 , @2.334854651162791 Channel: 4 
Note on, A1 key =  33;WhichDrum: T3 ; velocity: 127
@44340 , @2.3380184108527136 Channel: 4 
Note on, A1 key =  33;WhichDrum: T3 ; velocity: 0
@44340 , @2.3380184108527136 Channel: 4 
Note on, A1 key =  33;WhichDrum: T3 ; velocity: 127
@44400 , @2.341182170542636 Channel: 4 
Note on, A1 key =  33;WhichDrum: T3 ; velocity: 0
@44400 , @2.341182170542636 Channel: 4 
Note on, C2 key =  36;WhichDrum: B ; velocity: 127
@44460 , @2.344345930232558 Channel: 4 
Note on, C2 key =  36;WhichDrum: B ; velocity: 0
@44460 , @2.344345930232558 Channel: 4 
Note on, D2 key =  38;WhichDrum: T2 ; velocity: 127
@44520 , @2.3475096899224805 Channel: 4 
Note on, D2 key =  38;WhichDrum: T2 ; velocity: 0
@44520 , @2.3475096899224805 Channel: 4 
Note on, C2 key =  36;WhichDrum: B ; velocity: 127
@44640 , @2.3538372093023257 Channel: 4 
Note on, C2 key =  36;WhichDrum: B ; velocity: 0
@44640 , @2.3538372093023257 Channel: 4 
Note on, C2 key =  36;WhichDrum: B ; velocity: 127
@44700 , @2.357000968992248 Channel: 4 
Note on, C2 key =  36;WhichDrum: B ; velocity: 0
@44700 , @2.357000968992248 Channel: 4 
Note on, A1 key =  33;WhichDrum: T3 ; velocity: 127
@44760 , @2.3601647286821703 Channel: 4 
Note on, A1 key =  33;WhichDrum: T3 ; velocity: 0
@44760 , @2.3601647286821703 Channel: 4 
Note on, A1 key =  33;WhichDrum: T3 ; velocity: 127
@44820 , @2.363328488372093 Channel: 4 
Note on, A1 key =  33;WhichDrum: T3 ; velocity: 0
@44820 , @2.363328488372093 Channel: 4 
Note on, E2 key =  40;WhichDrum: S ; velocity: 127
@44880 , @2.3664922480620154 Channel: 4 
Note on, E2 key =  40;WhichDrum: S ; velocity: 0
@44880 , @2.3664922480620154 Channel: 4 
Note on, G2 key =  43;WhichDrum: C2 ; velocity: 127
@44940 , @2.3696560077519377 Channel: 4 
Note on, G2 key =  43;WhichDrum: C2 ; velocity: 0
@44940 , @2.3696560077519377 Channel: 4 
Note on, E2 key =  40;WhichDrum: S ; velocity: 127
@45000 , @2.3728197674418605 Channel: 4 
Note on, E2 key =  40;WhichDrum: S ; velocity: 0
@45000 , @2.3728197674418605 Channel: 4 
Note on, A2 key =  45;WhichDrum: T3 ; velocity: 127
@45120 , @2.379147286821705 Channel: 4 
Note on, A2 key =  45;WhichDrum: T3 ; velocity: 0
@45120 , @2.379147286821705 Channel: 4 
Note on, A1 key =  33;WhichDrum: T3 ; velocity: 127
@45180 , @2.382311046511628 Channel: 4 
Note on, A1 key =  33;WhichDrum: T3 ; velocity: 0
@45180 , @2.382311046511628 Channel: 4 
Note on, A1 key =  33;WhichDrum: T3 ; velocity: 127
@45240 , @2.3854748062015503 Channel: 4 
Note on, A1 key =  33;WhichDrum: T3 ; velocity: 0
@45240 , @2.3854748062015503 Channel: 4 
Note on, A1 key =  33;WhichDrum: T3 ; velocity: 127
@45300 , @2.388638565891473 Channel: 4 
Note on, A1 key =  33;WhichDrum: T3 ; velocity: 0
@45300 , @2.388638565891473 Channel: 4 
Note on, A1 key =  33;WhichDrum: T3 ; velocity: 127
@45360 , @2.3918023255813954 Channel: 4 
Note on, A1 key =  33;WhichDrum: T3 ; velocity: 0
@45360 , @2.3918023255813954 Channel: 4 
Note on, C2 key =  36;WhichDrum: B ; velocity: 127
@45420 , @2.3949660852713177 Channel: 4 
Note on, C2 key =  36;WhichDrum: B ; velocity: 0
@45420 , @2.3949660852713177 Channel: 4 
Note on, D2 key =  38;WhichDrum: T2 ; velocity: 127
@45480 , @2.3981298449612405 Channel: 4 
Note on, D2 key =  38;WhichDrum: T2 ; velocity: 0
@45480 , @2.3981298449612405 Channel: 4 
Note on, C2 key =  36;WhichDrum: B ; velocity: 127
@45600 , @2.404457364341085 Channel: 4 
Note on, C2 key =  36;WhichDrum: B ; velocity: 0
@45600 , @2.404457364341085 Channel: 4 
Note on, E3 key =  52;WhichDrum: S ; velocity: 127
@45660 , @2.407621124031008 Channel: 4 
Note on, E3 key =  52;WhichDrum: S ; velocity: 0
@45660 , @2.407621124031008 Channel: 4 
Note on, D3 key =  50;WhichDrum: T2 ; velocity: 127
@45720 , @2.4107848837209302 Channel: 4 
Note on, D3 key =  50;WhichDrum: T2 ; velocity: 0
@45720 , @2.4107848837209302 Channel: 4 
Note on, B2 key =  47;WhichDrum: T1 ; velocity: 127
@45780 , @2.4139486434108526 Channel: 4 
Note on, B2 key =  47;WhichDrum: T1 ; velocity: 0
@45780 , @2.4139486434108526 Channel: 4 
Note on, D3 key =  50;WhichDrum: T2 ; velocity: 127
@45840 , @2.4171124031007754 Channel: 4 
Note on, D3 key =  50;WhichDrum: T2 ; velocity: 0
@45840 , @2.4171124031007754 Channel: 4 
Note on, B2 key =  47;WhichDrum: T1 ; velocity: 127
@45900 , @2.4202761627906977 Channel: 4 
Note on, B2 key =  47;WhichDrum: T1 ; velocity: 0
@45900 , @2.4202761627906977 Channel: 4 
Note on, A#2 key =  46;WhichDrum: T2 ; velocity: 127
@45960 , @2.42343992248062 Channel: 4 
Note on, A#2 key =  46;WhichDrum: T2 ; velocity: 0
@45960 , @2.42343992248062 Channel: 4 
Note on, A2 key =  45;WhichDrum: T3 ; velocity: 127
@46020 , @2.426603682170543 Channel: 4 
Note on, A2 key =  45;WhichDrum: T3 ; velocity: 0
@46020 , @2.426603682170543 Channel: 4 
Note on, G2 key =  43;WhichDrum: C2 ; velocity: 127
@46080 , @2.429767441860465 Channel: 4 
Note on, G2 key =  43;WhichDrum: C2 ; velocity: 0
@46080 , @2.429767441860465 Channel: 4 
Note on, E2 key =  40;WhichDrum: S ; velocity: 127
@46140 , @2.4329312015503874 Channel: 4 
Note on, E2 key =  40;WhichDrum: S ; velocity: 0
@46140 , @2.4329312015503874 Channel: 4 
Note on, D2 key =  38;WhichDrum: T2 ; velocity: 127
@46200 , @2.43609496124031 Channel: 4 
Note on, D2 key =  38;WhichDrum: T2 ; velocity: 0
@46200 , @2.43609496124031 Channel: 4 
Note on, B1 key =  35;WhichDrum: T1 ; velocity: 127
@46260 , @2.4392587209302325 Channel: 4 
Note on, B1 key =  35;WhichDrum: T1 ; velocity: 0
@46260 , @2.4392587209302325 Channel: 4 
Note on, D2 key =  38;WhichDrum: T2 ; velocity: 127
@46320 , @2.4424224806201553 Channel: 4 
Note on, D2 key =  38;WhichDrum: T2 ; velocity: 0
@46320 , @2.4424224806201553 Channel: 4 
Note on, B1 key =  35;WhichDrum: T1 ; velocity: 127
@46380 , @2.4455862403100777 Channel: 4 
Note on, B1 key =  35;WhichDrum: T1 ; velocity: 0
@46380 , @2.4455862403100777 Channel: 4 
Note on, A#1 key =  34;WhichDrum: T2 ; velocity: 127
@46440 , @2.44875 Channel: 4 
Note on, A#1 key =  34;WhichDrum: T2 ; velocity: 0
@46440 , @2.44875 Channel: 4 
Note on, A1 key =  33;WhichDrum: T3 ; velocity: 127
@46500 , @2.4519137596899228 Channel: 4 
Note on, A1 key =  33;WhichDrum: T3 ; velocity: 0
@46500 , @2.4519137596899228 Channel: 4 
Note on, G1 key =  31;WhichDrum: C2 ; velocity: 127
@46560 , @2.455077519379845 Channel: 4 
Note on, G1 key =  31;WhichDrum: C2 ; velocity: 0
@46560 , @2.455077519379845 Channel: 4 
Note on, G1 key =  31;WhichDrum: C2 ; velocity: 127
@46620 , @2.4582412790697674 Channel: 4 
Note on, G1 key =  31;WhichDrum: C2 ; velocity: 0
@46620 , @2.4582412790697674 Channel: 4 
Note on, G1 key =  31;WhichDrum: C2 ; velocity: 127
@46680 , @2.46140503875969 Channel: 4 
Note on, G1 key =  31;WhichDrum: C2 ; velocity: 0
@46680 , @2.46140503875969 Channel: 4 
Note on, G1 key =  31;WhichDrum: C2 ; velocity: 127
@46740 , @2.4645687984496125 Channel: 4 
Note on, G1 key =  31;WhichDrum: C2 ; velocity: 0
@46740 , @2.4645687984496125 Channel: 4 
Note on, G1 key =  31;WhichDrum: C2 ; velocity: 127
@46800 , @2.467732558139535 Channel: 4 
Note on, G1 key =  31;WhichDrum: C2 ; velocity: 0
@46800 , @2.467732558139535 Channel: 4 
Note on, G1 key =  31;WhichDrum: C2 ; velocity: 127
@46860 , @2.4708963178294576 Channel: 4 
Note on, G1 key =  31;WhichDrum: C2 ; velocity: 0
@46860 , @2.4708963178294576 Channel: 4 
Note on, G1 key =  31;WhichDrum: C2 ; velocity: 127
@46890 , @2.472478197674419 Channel: 4 
Note on, G1 key =  31;WhichDrum: C2 ; velocity: 0
@46890 , @2.472478197674419 Channel: 4 
Note on, G1 key =  31;WhichDrum: C2 ; velocity: 127
@46920 , @2.47406007751938 Channel: 4 
Note on, G1 key =  31;WhichDrum: C2 ; velocity: 0
@46920 , @2.47406007751938 Channel: 4 
Note on, G2 key =  43;WhichDrum: C2 ; velocity: 127
@47040 , @2.480387596899225 Channel: 4 
Note on, G2 key =  43;WhichDrum: C2 ; velocity: 0
@47040 , @2.480387596899225 Channel: 4 
Note on, F#1 key =  30;WhichDrum: C1 ; velocity: 127
@47160 , @2.4867151162790697 Channel: 4 
Note on, F#1 key =  30;WhichDrum: C1 ; velocity: 0
@47160 , @2.4867151162790697 Channel: 4 
Note on, F#1 key =  30;WhichDrum: C1 ; velocity: 127
@47280 , @2.493042635658915 Channel: 4 
Note on, F#1 key =  30;WhichDrum: C1 ; velocity: 0
@47280 , @2.493042635658915 Channel: 4 
Note on, F1 key =  29;WhichDrum: HH ; velocity: 127
@47400 , @2.49937015503876 Channel: 4 
Note on, F1 key =  29;WhichDrum: HH ; velocity: 0
@47400 , @2.49937015503876 Channel: 4 
Note on, F1 key =  29;WhichDrum: HH ; velocity: 127
@47520 , @2.505697674418605 Channel: 4 
Note on, F1 key =  29;WhichDrum: HH ; velocity: 0
@47520 , @2.505697674418605 Channel: 4 
Note on, E1 key =  28;WhichDrum: S ; velocity: 127
@47580 , @2.5088614341085274 Channel: 4 
Note on, E1 key =  28;WhichDrum: S ; velocity: 0
@47580 , @2.5088614341085274 Channel: 4 
Note on, E1 key =  28;WhichDrum: S ; velocity: 127
@47640 , @2.5120251937984497 Channel: 4 
Note on, E1 key =  28;WhichDrum: S ; velocity: 0
@47640 , @2.5120251937984497 Channel: 4 
Note on, E1 key =  28;WhichDrum: S ; velocity: 127
@47700 , @2.5151889534883725 Channel: 4 
Note on, E1 key =  28;WhichDrum: S ; velocity: 0
@47700 , @2.5151889534883725 Channel: 4 
Note on, E1 key =  28;WhichDrum: S ; velocity: 127
@47760 , @2.518352713178295 Channel: 4 
Note on, E1 key =  28;WhichDrum: S ; velocity: 0
@47760 , @2.518352713178295 Channel: 4 
Note on, E1 key =  28;WhichDrum: S ; velocity: 127
@47820 , @2.521516472868217 Channel: 4 
Note on, E1 key =  28;WhichDrum: S ; velocity: 0
@47820 , @2.521516472868217 Channel: 4 
Note on, E1 key =  28;WhichDrum: S ; velocity: 127
@47880 , @2.52468023255814 Channel: 4 
Note on, E1 key =  28;WhichDrum: S ; velocity: 0
@47880 , @2.52468023255814 Channel: 4 
Note on, E1 key =  28;WhichDrum: S ; velocity: 127
@47940 , @2.527843992248062 Channel: 4 
Note on, E1 key =  28;WhichDrum: S ; velocity: 0
@47940 , @2.527843992248062 Channel: 4 
Note on, E1 key =  28;WhichDrum: S ; velocity: 127
@48000 , @2.5310077519379846 Channel: 4 
Note on, E1 key =  28;WhichDrum: S ; velocity: 0
@48000 , @2.5310077519379846 Channel: 4 
Note on, E1 key =  28;WhichDrum: S ; velocity: 127
@48060 , @2.5341715116279073 Channel: 4 
Note on, E1 key =  28;WhichDrum: S ; velocity: 0
@48060 , @2.5341715116279073 Channel: 4 
Note on, A1 key =  33;WhichDrum: T3 ; velocity: 127
@48090 , @2.5357533914728685 Channel: 4 
Note on, A1 key =  33;WhichDrum: T3 ; velocity: 0
@48090 , @2.5357533914728685 Channel: 4 
Note on, B1 key =  35;WhichDrum: T1 ; velocity: 127
@48120 , @2.5373352713178297 Channel: 4 
Note on, B1 key =  35;WhichDrum: T1 ; velocity: 0
@48120 , @2.5373352713178297 Channel: 4 
Note on, D2 key =  38;WhichDrum: T2 ; velocity: 127
@48180 , @2.540499031007752 Channel: 4 
Note on, D2 key =  38;WhichDrum: T2 ; velocity: 0
@48180 , @2.540499031007752 Channel: 4 
Note on, E1 key =  28;WhichDrum: S ; velocity: 127
@48240 , @2.5436627906976748 Channel: 4 
Note on, E1 key =  28;WhichDrum: S ; velocity: 0
@48240 , @2.5436627906976748 Channel: 4 
Note on, E2 key =  40;WhichDrum: S ; velocity: 127
@48300 , @2.546826550387597 Channel: 4 
Note on, E2 key =  40;WhichDrum: S ; velocity: 0
@48300 , @2.546826550387597 Channel: 4 
Note on, E1 key =  28;WhichDrum: S ; velocity: 127
@48360 , @2.54999031007752 Channel: 4 
Note on, E1 key =  28;WhichDrum: S ; velocity: 0
@48360 , @2.54999031007752 Channel: 4 
Note on, E2 key =  40;WhichDrum: S ; velocity: 127
@48420 , @2.5531540697674417 Channel: 4 
Note on, E2 key =  40;WhichDrum: S ; velocity: 0
@48420 , @2.5531540697674417 Channel: 4 
Note on, E1 key =  28;WhichDrum: S ; velocity: 127
@48480 , @2.556317829457364 Channel: 4 
Note on, E1 key =  28;WhichDrum: S ; velocity: 0
@48480 , @2.556317829457364 Channel: 4 
Note on, G1 key =  31;WhichDrum: C2 ; velocity: 127
@48540 , @2.559481589147287 Channel: 4 
Note on, G1 key =  31;WhichDrum: C2 ; velocity: 0
@48540 , @2.559481589147287 Channel: 4 
Note on, G1 key =  31;WhichDrum: C2 ; velocity: 127
@48600 , @2.562645348837209 Channel: 4 
Note on, G1 key =  31;WhichDrum: C2 ; velocity: 0
@48600 , @2.562645348837209 Channel: 4 
Note on, G1 key =  31;WhichDrum: C2 ; velocity: 127
@48660 , @2.5658091085271315 Channel: 4 
Note on, G1 key =  31;WhichDrum: C2 ; velocity: 0
@48660 , @2.5658091085271315 Channel: 4 
Note on, G1 key =  31;WhichDrum: C2 ; velocity: 127
@48720 , @2.5689728682170543 Channel: 4 
Note on, G1 key =  31;WhichDrum: C2 ; velocity: 0
@48720 , @2.5689728682170543 Channel: 4 
Note on, G1 key =  31;WhichDrum: C2 ; velocity: 127
@48780 , @2.5721366279069766 Channel: 4 
Note on, G1 key =  31;WhichDrum: C2 ; velocity: 0
@48780 , @2.5721366279069766 Channel: 4 
Note on, G1 key =  31;WhichDrum: C2 ; velocity: 127
@48810 , @2.573718507751938 Channel: 4 
Note on, G1 key =  31;WhichDrum: C2 ; velocity: 0
@48810 , @2.573718507751938 Channel: 4 
Note on, G1 key =  31;WhichDrum: C2 ; velocity: 127
@48840 , @2.5753003875968994 Channel: 4 
Note on, G1 key =  31;WhichDrum: C2 ; velocity: 0
@48840 , @2.5753003875968994 Channel: 4 
Note on, G2 key =  43;WhichDrum: C2 ; velocity: 127
@48960 , @2.581627906976744 Channel: 4 
Note on, G2 key =  43;WhichDrum: C2 ; velocity: 0
@48960 , @2.581627906976744 Channel: 4 
Note on, F#1 key =  30;WhichDrum: C1 ; velocity: 127
@49080 , @2.587955426356589 Channel: 4 
Note on, F#1 key =  30;WhichDrum: C1 ; velocity: 0
@49080 , @2.587955426356589 Channel: 4 
Note on, F#1 key =  30;WhichDrum: C1 ; velocity: 127
@49200 , @2.5942829457364343 Channel: 4 
Note on, F#1 key =  30;WhichDrum: C1 ; velocity: 0
@49200 , @2.5942829457364343 Channel: 4 
Note on, F1 key =  29;WhichDrum: HH ; velocity: 127
@49320 , @2.600610465116279 Channel: 4 
Note on, F1 key =  29;WhichDrum: HH ; velocity: 0
@49320 , @2.600610465116279 Channel: 4 
Note on, F1 key =  29;WhichDrum: HH ; velocity: 127
@49440 , @2.606937984496124 Channel: 4 
Note on, F1 key =  29;WhichDrum: HH ; velocity: 0
@49440 , @2.606937984496124 Channel: 4 
Note on, E1 key =  28;WhichDrum: S ; velocity: 127
@49500 , @2.6101017441860463 Channel: 4 
Note on, E1 key =  28;WhichDrum: S ; velocity: 0
@49500 , @2.6101017441860463 Channel: 4 
Note on, E1 key =  28;WhichDrum: S ; velocity: 127
@49560 , @2.613265503875969 Channel: 4 
Note on, E1 key =  28;WhichDrum: S ; velocity: 0
@49560 , @2.613265503875969 Channel: 4 
Note on, E1 key =  28;WhichDrum: S ; velocity: 127
@49620 , @2.6164292635658914 Channel: 4 
Note on, E1 key =  28;WhichDrum: S ; velocity: 0
@49620 , @2.6164292635658914 Channel: 4 
Note on, E1 key =  28;WhichDrum: S ; velocity: 127
@49680 , @2.619593023255814 Channel: 4 
Note on, E1 key =  28;WhichDrum: S ; velocity: 0
@49680 , @2.619593023255814 Channel: 4 
Note on, E1 key =  28;WhichDrum: S ; velocity: 127
@49740 , @2.6227567829457366 Channel: 4 
Note on, E1 key =  28;WhichDrum: S ; velocity: 0
@49740 , @2.6227567829457366 Channel: 4 
Note on, E1 key =  28;WhichDrum: S ; velocity: 127
@49800 , @2.625920542635659 Channel: 4 
Note on, E1 key =  28;WhichDrum: S ; velocity: 0
@49800 , @2.625920542635659 Channel: 4 
Note on, E1 key =  28;WhichDrum: S ; velocity: 127
@49860 , @2.6290843023255817 Channel: 4 
Note on, E1 key =  28;WhichDrum: S ; velocity: 0
@49860 , @2.6290843023255817 Channel: 4 
Note on, E1 key =  28;WhichDrum: S ; velocity: 127
@49920 , @2.632248062015504 Channel: 4 
Note on, E1 key =  28;WhichDrum: S ; velocity: 0
@49920 , @2.632248062015504 Channel: 4 
Note on, E2 key =  40;WhichDrum: S ; velocity: 127
@49980 , @2.6354118217054263 Channel: 4 
Note on, E2 key =  40;WhichDrum: S ; velocity: 0
@49980 , @2.6354118217054263 Channel: 4 
Note on, D2 key =  38;WhichDrum: T2 ; velocity: 127
@50040 , @2.638575581395349 Channel: 4 
Note on, D2 key =  38;WhichDrum: T2 ; velocity: 0
@50040 , @2.638575581395349 Channel: 4 
Note on, B1 key =  35;WhichDrum: T1 ; velocity: 127
@50100 , @2.6417393410852714 Channel: 4 
Note on, B1 key =  35;WhichDrum: T1 ; velocity: 0
@50100 , @2.6417393410852714 Channel: 4 
Note on, A#1 key =  34;WhichDrum: T2 ; velocity: 127
@50160 , @2.6449031007751937 Channel: 4 
Note on, A#1 key =  34;WhichDrum: T2 ; velocity: 0
@50160 , @2.6449031007751937 Channel: 4 
Note on, A1 key =  33;WhichDrum: T3 ; velocity: 127
@50220 , @2.6480668604651165 Channel: 4 
Note on, A1 key =  33;WhichDrum: T3 ; velocity: 0
@50220 , @2.6480668604651165 Channel: 4 
Note on, B1 key =  35;WhichDrum: T1 ; velocity: 127
@50280 , @2.651230620155039 Channel: 4 
Note on, B1 key =  35;WhichDrum: T1 ; velocity: 0
@50280 , @2.651230620155039 Channel: 4 
Note on, A#1 key =  34;WhichDrum: T2 ; velocity: 127
@50340 , @2.654394379844961 Channel: 4 
Note on, A#1 key =  34;WhichDrum: T2 ; velocity: 0
@50340 , @2.654394379844961 Channel: 4 
Note on, A1 key =  33;WhichDrum: T3 ; velocity: 127
@50400 , @2.657558139534884 Channel: 4 
Note on, A1 key =  33;WhichDrum: T3 ; velocity: 0
@50400 , @2.657558139534884 Channel: 4 
Note on, G1 key =  31;WhichDrum: C2 ; velocity: 127
@50460 , @2.6607218992248063 Channel: 4 
Note on, G1 key =  31;WhichDrum: C2 ; velocity: 0
@50460 , @2.6607218992248063 Channel: 4 
Note on, G1 key =  31;WhichDrum: C2 ; velocity: 127
@50520 , @2.6638856589147286 Channel: 4 
Note on, G1 key =  31;WhichDrum: C2 ; velocity: 0
@50520 , @2.6638856589147286 Channel: 4 
Note on, G1 key =  31;WhichDrum: C2 ; velocity: 127
@50580 , @2.6670494186046514 Channel: 4 
Note on, G1 key =  31;WhichDrum: C2 ; velocity: 0
@50580 , @2.6670494186046514 Channel: 4 
Note on, G1 key =  31;WhichDrum: C2 ; velocity: 127
@50640 , @2.6702131782945737 Channel: 4 
Note on, G1 key =  31;WhichDrum: C2 ; velocity: 0
@50640 , @2.6702131782945737 Channel: 4 
Note on, G1 key =  31;WhichDrum: C2 ; velocity: 127
@50700 , @2.673376937984496 Channel: 4 
Note on, G1 key =  31;WhichDrum: C2 ; velocity: 0
@50700 , @2.673376937984496 Channel: 4 
Note on, G1 key =  31;WhichDrum: C2 ; velocity: 127
@50730 , @2.6749588178294577 Channel: 4 
Note on, G1 key =  31;WhichDrum: C2 ; velocity: 0
@50730 , @2.6749588178294577 Channel: 4 
Note on, G1 key =  31;WhichDrum: C2 ; velocity: 127
@50760 , @2.676540697674419 Channel: 4 
Note on, G1 key =  31;WhichDrum: C2 ; velocity: 0
@50760 , @2.676540697674419 Channel: 4 
Note on, G2 key =  43;WhichDrum: C2 ; velocity: 127
@50880 , @2.682868217054264 Channel: 4 
Note on, G2 key =  43;WhichDrum: C2 ; velocity: 0
@50880 , @2.682868217054264 Channel: 4 
Note on, F#1 key =  30;WhichDrum: C1 ; velocity: 127
@51000 , @2.6891957364341086 Channel: 4 
Note on, F#1 key =  30;WhichDrum: C1 ; velocity: 0
@51000 , @2.6891957364341086 Channel: 4 
Note on, F#1 key =  30;WhichDrum: C1 ; velocity: 127
@51120 , @2.6955232558139537 Channel: 4 
Note on, F#1 key =  30;WhichDrum: C1 ; velocity: 0
@51120 , @2.6955232558139537 Channel: 4 
Note on, F1 key =  29;WhichDrum: HH ; velocity: 127
@51240 , @2.701850775193799 Channel: 4 
Note on, F1 key =  29;WhichDrum: HH ; velocity: 0
@51240 , @2.701850775193799 Channel: 4 
Note on, F1 key =  29;WhichDrum: HH ; velocity: 127
@51360 , @2.7081782945736435 Channel: 4 
Note on, F1 key =  29;WhichDrum: HH ; velocity: 0
@51360 , @2.7081782945736435 Channel: 4 
Note on, E1 key =  28;WhichDrum: S ; velocity: 127
@51420 , @2.7113420542635662 Channel: 4 
Note on, E1 key =  28;WhichDrum: S ; velocity: 0
@51420 , @2.7113420542635662 Channel: 4 
Note on, E1 key =  28;WhichDrum: S ; velocity: 127
@51480 , @2.7145058139534886 Channel: 4 
Note on, E1 key =  28;WhichDrum: S ; velocity: 0
@51480 , @2.7145058139534886 Channel: 4 
Note on, E1 key =  28;WhichDrum: S ; velocity: 127
@51540 , @2.717669573643411 Channel: 4 
Note on, E1 key =  28;WhichDrum: S ; velocity: 0
@51540 , @2.717669573643411 Channel: 4 
Note on, E1 key =  28;WhichDrum: S ; velocity: 127
@51600 , @2.7208333333333337 Channel: 4 
Note on, E1 key =  28;WhichDrum: S ; velocity: 0
@51600 , @2.7208333333333337 Channel: 4 
Note on, E1 key =  28;WhichDrum: S ; velocity: 127
@51660 , @2.723997093023256 Channel: 4 
Note on, E1 key =  28;WhichDrum: S ; velocity: 0
@51660 , @2.723997093023256 Channel: 4 
Note on, E1 key =  28;WhichDrum: S ; velocity: 127
@51720 , @2.7271608527131783 Channel: 4 
Note on, E1 key =  28;WhichDrum: S ; velocity: 0
@51720 , @2.7271608527131783 Channel: 4 
Note on, E1 key =  28;WhichDrum: S ; velocity: 127
@51780 , @2.730324612403101 Channel: 4 
Note on, E1 key =  28;WhichDrum: S ; velocity: 0
@51780 , @2.730324612403101 Channel: 4 
Note on, E1 key =  28;WhichDrum: S ; velocity: 127
@51840 , @2.7334883720930234 Channel: 4 
Note on, E1 key =  28;WhichDrum: S ; velocity: 0
@51840 , @2.7334883720930234 Channel: 4 
Note on, E1 key =  28;WhichDrum: S ; velocity: 127
@51900 , @2.736652131782946 Channel: 4 
Note on, E1 key =  28;WhichDrum: S ; velocity: 0
@51900 , @2.736652131782946 Channel: 4 
Note on, A1 key =  33;WhichDrum: T3 ; velocity: 127
@51930 , @2.7382340116279074 Channel: 4 
Note on, A1 key =  33;WhichDrum: T3 ; velocity: 0
@51930 , @2.7382340116279074 Channel: 4 
Note on, B1 key =  35;WhichDrum: T1 ; velocity: 127
@51960 , @2.7398158914728685 Channel: 4 
Note on, B1 key =  35;WhichDrum: T1 ; velocity: 0
@51960 , @2.7398158914728685 Channel: 4 
Note on, D2 key =  38;WhichDrum: T2 ; velocity: 127
@52020 , @2.742979651162791 Channel: 4 
Note on, D2 key =  38;WhichDrum: T2 ; velocity: 0
@52020 , @2.742979651162791 Channel: 4 
Note on, E1 key =  28;WhichDrum: S ; velocity: 127
@52080 , @2.7461434108527136 Channel: 4 
Note on, E1 key =  28;WhichDrum: S ; velocity: 0
@52080 , @2.7461434108527136 Channel: 4 
Note on, E2 key =  40;WhichDrum: S ; velocity: 127
@52140 , @2.749307170542636 Channel: 4 
Note on, E2 key =  40;WhichDrum: S ; velocity: 0
@52140 , @2.749307170542636 Channel: 4 
Note on, E1 key =  28;WhichDrum: S ; velocity: 127
@52200 , @2.7524709302325583 Channel: 4 
Note on, E1 key =  28;WhichDrum: S ; velocity: 0
@52200 , @2.7524709302325583 Channel: 4 
Note on, E2 key =  40;WhichDrum: S ; velocity: 127
@52260 , @2.7556346899224806 Channel: 4 
Note on, E2 key =  40;WhichDrum: S ; velocity: 0
@52260 , @2.7556346899224806 Channel: 4 
Note on, E1 key =  28;WhichDrum: S ; velocity: 127
@52320 , @2.758798449612403 Channel: 4 
Note on, E1 key =  28;WhichDrum: S ; velocity: 0
@52320 , @2.758798449612403 Channel: 4 
Note on, G1 key =  31;WhichDrum: C2 ; velocity: 127
@52380 , @2.7619622093023257 Channel: 4 
Note on, G1 key =  31;WhichDrum: C2 ; velocity: 0
@52380 , @2.7619622093023257 Channel: 4 
Note on, G1 key =  31;WhichDrum: C2 ; velocity: 127
@52440 , @2.765125968992248 Channel: 4 
Note on, G1 key =  31;WhichDrum: C2 ; velocity: 0
@52440 , @2.765125968992248 Channel: 4 
Note on, G1 key =  31;WhichDrum: C2 ; velocity: 127
@52500 , @2.7682897286821704 Channel: 4 
Note on, G1 key =  31;WhichDrum: C2 ; velocity: 0
@52500 , @2.7682897286821704 Channel: 4 
Note on, G1 key =  31;WhichDrum: C2 ; velocity: 127
@52560 , @2.771453488372093 Channel: 4 
Note on, G1 key =  31;WhichDrum: C2 ; velocity: 0
@52560 , @2.771453488372093 Channel: 4 
Note on, G1 key =  31;WhichDrum: C2 ; velocity: 127
@52620 , @2.7746172480620155 Channel: 4 
Note on, G1 key =  31;WhichDrum: C2 ; velocity: 0
@52620 , @2.7746172480620155 Channel: 4 
Note on, G1 key =  31;WhichDrum: C2 ; velocity: 127
@52650 , @2.7761991279069766 Channel: 4 
Note on, G1 key =  31;WhichDrum: C2 ; velocity: 0
@52650 , @2.7761991279069766 Channel: 4 
Note on, G1 key =  31;WhichDrum: C2 ; velocity: 127
@52680 , @2.777781007751938 Channel: 4 
Note on, G1 key =  31;WhichDrum: C2 ; velocity: 0
@52680 , @2.777781007751938 Channel: 4 
Note on, G2 key =  43;WhichDrum: C2 ; velocity: 127
@52800 , @2.784108527131783 Channel: 4 
Note on, G2 key =  43;WhichDrum: C2 ; velocity: 0
@52800 , @2.784108527131783 Channel: 4 
Note on, F#1 key =  30;WhichDrum: C1 ; velocity: 127
@52920 , @2.790436046511628 Channel: 4 
Note on, F#1 key =  30;WhichDrum: C1 ; velocity: 0
@52920 , @2.790436046511628 Channel: 4 
Note on, F#1 key =  30;WhichDrum: C1 ; velocity: 127
@53040 , @2.7967635658914727 Channel: 4 
Note on, F#1 key =  30;WhichDrum: C1 ; velocity: 0
@53040 , @2.7967635658914727 Channel: 4 
Note on, F1 key =  29;WhichDrum: HH ; velocity: 127
@53160 , @2.803091085271318 Channel: 4 
Note on, F1 key =  29;WhichDrum: HH ; velocity: 0
@53160 , @2.803091085271318 Channel: 4 
Note on, F1 key =  29;WhichDrum: HH ; velocity: 127
@53280 , @2.809418604651163 Channel: 4 
Note on, F1 key =  29;WhichDrum: HH ; velocity: 0
@53280 , @2.809418604651163 Channel: 4 
Note on, E1 key =  28;WhichDrum: S ; velocity: 127
@53760 , @2.834728682170543 Channel: 4 
Note on, E1 key =  28;WhichDrum: S ; velocity: 0
@53760 , @2.834728682170543 Channel: 4 
Note on, E1 key =  28;WhichDrum: S ; velocity: 127
@53880 , @2.8410562015503875 Channel: 4 
Note on, E1 key =  28;WhichDrum: S ; velocity: 0
@59040 , @3.113139534883721 Channel: 4 
Note on, C2 key =  36;WhichDrum: B ; velocity: 127
@59100 , @3.1163032945736435 Channel: 4 
Note on, C2 key =  36;WhichDrum: B ; velocity: 0
@59100 , @3.1163032945736435 Channel: 4 
Note on, B1 key =  35;WhichDrum: T1 ; velocity: 127
@59160 , @3.1194670542635663 Channel: 4 
Note on, B1 key =  35;WhichDrum: T1 ; velocity: 0
@59160 , @3.1194670542635663 Channel: 4 
Note on, A1 key =  33;WhichDrum: T3 ; velocity: 127
@59220 , @3.1226308139534886 Channel: 4 
Note on, A1 key =  33;WhichDrum: T3 ; velocity: 0
@59220 , @3.1226308139534886 Channel: 4 
Note on, F2 key =  41;WhichDrum: HH ; velocity: 127
@59280 , @3.125794573643411 Channel: 4 
Note on, F2 key =  41;WhichDrum: HH ; velocity: 0
@59280 , @3.125794573643411 Channel: 4 
Note on, E2 key =  40;WhichDrum: S ; velocity: 127
@59340 , @3.1289583333333337 Channel: 4 
Note on, E2 key =  40;WhichDrum: S ; velocity: 0
@59340 , @3.1289583333333337 Channel: 4 
Note on, D2 key =  38;WhichDrum: T2 ; velocity: 127
@59400 , @3.132122093023256 Channel: 4 
Note on, D2 key =  38;WhichDrum: T2 ; velocity: 0
@59400 , @3.132122093023256 Channel: 4 
Note on, C2 key =  36;WhichDrum: B ; velocity: 127
@59460 , @3.1352858527131784 Channel: 4 
Note on, C2 key =  36;WhichDrum: B ; velocity: 0
@59460 , @3.1352858527131784 Channel: 4 
Note on, A1 key =  33;WhichDrum: T3 ; velocity: 127
@59520 , @3.138449612403101 Channel: 4 
Note on, A1 key =  33;WhichDrum: T3 ; velocity: 0
@59520 , @3.138449612403101 Channel: 4 
Note on, G1 key =  31;WhichDrum: C2 ; velocity: 127
@59580 , @3.1416133720930235 Channel: 4 
Note on, G1 key =  31;WhichDrum: C2 ; velocity: 0
@59580 , @3.1416133720930235 Channel: 4 
Note on, A1 key =  33;WhichDrum: T3 ; velocity: 127
@59640 , @3.144777131782946 Channel: 4 
Note on, A1 key =  33;WhichDrum: T3 ; velocity: 0
@59640 , @3.144777131782946 Channel: 4 
Note on, A1 key =  33;WhichDrum: T3 ; velocity: 127
@59700 , @3.1479408914728686 Channel: 4 
Note on, A1 key =  33;WhichDrum: T3 ; velocity: 0
@59700 , @3.1479408914728686 Channel: 4 
Note on, A2 key =  45;WhichDrum: T3 ; velocity: 127
@59760 , @3.151104651162791 Channel: 4 
Note on, A2 key =  45;WhichDrum: T3 ; velocity: 0
@59760 , @3.151104651162791 Channel: 4 
Note on, A1 key =  33;WhichDrum: T3 ; velocity: 127
@59820 , @3.1542684108527133 Channel: 4 
Note on, A1 key =  33;WhichDrum: T3 ; velocity: 0
@59820 , @3.1542684108527133 Channel: 4 
Note on, A1 key =  33;WhichDrum: T3 ; velocity: 127
@59880 , @3.157432170542636 Channel: 4 
Note on, A1 key =  33;WhichDrum: T3 ; velocity: 0
@59880 , @3.157432170542636 Channel: 4 
Note on, A2 key =  45;WhichDrum: T3 ; velocity: 127
@59940 , @3.1605959302325584 Channel: 4 
Note on, A2 key =  45;WhichDrum: T3 ; velocity: 0
@59940 , @3.1605959302325584 Channel: 4 
Note on, A1 key =  33;WhichDrum: T3 ; velocity: 127
@60000 , @3.1637596899224807 Channel: 4 
Note on, A1 key =  33;WhichDrum: T3 ; velocity: 0
@60000 , @3.1637596899224807 Channel: 4 
Note on, A1 key =  33;WhichDrum: T3 ; velocity: 127
@60060 , @3.166923449612403 Channel: 4 
Note on, A1 key =  33;WhichDrum: T3 ; velocity: 0
@60060 , @3.166923449612403 Channel: 4 
Note on, A1 key =  33;WhichDrum: T3 ; velocity: 127
@60120 , @3.1700872093023253 Channel: 4 
Note on, A1 key =  33;WhichDrum: T3 ; velocity: 0
@60120 , @3.1700872093023253 Channel: 4 
Note on, A1 key =  33;WhichDrum: T3 ; velocity: 127
@60180 , @3.173250968992248 Channel: 4 
Note on, A1 key =  33;WhichDrum: T3 ; velocity: 0
@60180 , @3.173250968992248 Channel: 4 
Note on, A2 key =  45;WhichDrum: T3 ; velocity: 127
@60240 , @3.1764147286821705 Channel: 4 
Note on, A2 key =  45;WhichDrum: T3 ; velocity: 0
@60240 , @3.1764147286821705 Channel: 4 
Note on, A1 key =  33;WhichDrum: T3 ; velocity: 127
@60300 , @3.179578488372093 Channel: 4 
Note on, A1 key =  33;WhichDrum: T3 ; velocity: 0
@60300 , @3.179578488372093 Channel: 4 
Note on, A1 key =  33;WhichDrum: T3 ; velocity: 127
@60360 , @3.1827422480620156 Channel: 4 
Note on, A1 key =  33;WhichDrum: T3 ; velocity: 0
@60360 , @3.1827422480620156 Channel: 4 
Note on, A2 key =  45;WhichDrum: T3 ; velocity: 127
@60420 , @3.185906007751938 Channel: 4 
Note on, A2 key =  45;WhichDrum: T3 ; velocity: 0
@60420 , @3.185906007751938 Channel: 4 
Note on, A1 key =  33;WhichDrum: T3 ; velocity: 127
@60480 , @3.1890697674418607 Channel: 4 
Note on, A1 key =  33;WhichDrum: T3 ; velocity: 0
@60480 , @3.1890697674418607 Channel: 4 
Note on, A1 key =  33;WhichDrum: T3 ; velocity: 127
@60540 , @3.192233527131783 Channel: 4 
Note on, A1 key =  33;WhichDrum: T3 ; velocity: 0
@60540 , @3.192233527131783 Channel: 4 
Note on, A1 key =  33;WhichDrum: T3 ; velocity: 127
@60600 , @3.1953972868217053 Channel: 4 
Note on, A1 key =  33;WhichDrum: T3 ; velocity: 0
@60600 , @3.1953972868217053 Channel: 4 
Note on, A1 key =  33;WhichDrum: T3 ; velocity: 127
@60660 , @3.198561046511628 Channel: 4 
Note on, A1 key =  33;WhichDrum: T3 ; velocity: 0
@60660 , @3.198561046511628 Channel: 4 
Note on, A2 key =  45;WhichDrum: T3 ; velocity: 127
@60720 , @3.2017248062015504 Channel: 4 
Note on, A2 key =  45;WhichDrum: T3 ; velocity: 0
@60720 , @3.2017248062015504 Channel: 4 
Note on, A1 key =  33;WhichDrum: T3 ; velocity: 127
@60780 , @3.2048885658914728 Channel: 4 
Note on, A1 key =  33;WhichDrum: T3 ; velocity: 0
@60780 , @3.2048885658914728 Channel: 4 
Note on, A1 key =  33;WhichDrum: T3 ; velocity: 127
@60840 , @3.2080523255813955 Channel: 4 
Note on, A1 key =  33;WhichDrum: T3 ; velocity: 0
@60840 , @3.2080523255813955 Channel: 4 
Note on, A2 key =  45;WhichDrum: T3 ; velocity: 127
@60900 , @3.211216085271318 Channel: 4 
Note on, A2 key =  45;WhichDrum: T3 ; velocity: 0
@60900 , @3.211216085271318 Channel: 4 
Note on, A1 key =  33;WhichDrum: T3 ; velocity: 127
@60960 , @3.21437984496124 Channel: 4 
Note on, A1 key =  33;WhichDrum: T3 ; velocity: 0
@60960 , @3.21437984496124 Channel: 4 
Note on, C2 key =  36;WhichDrum: B ; velocity: 127
@61020 , @3.217543604651163 Channel: 4 
Note on, C2 key =  36;WhichDrum: B ; velocity: 0
@61020 , @3.217543604651163 Channel: 4 
Note on, B1 key =  35;WhichDrum: T1 ; velocity: 127
@61080 , @3.2207073643410853 Channel: 4 
Note on, B1 key =  35;WhichDrum: T1 ; velocity: 0
@61080 , @3.2207073643410853 Channel: 4 
Note on, A1 key =  33;WhichDrum: T3 ; velocity: 127
@61140 , @3.2238711240310076 Channel: 4 
Note on, A1 key =  33;WhichDrum: T3 ; velocity: 0
@61140 , @3.2238711240310076 Channel: 4 
Note on, F2 key =  41;WhichDrum: HH ; velocity: 127
@61200 , @3.2270348837209304 Channel: 4 
Note on, F2 key =  41;WhichDrum: HH ; velocity: 0
@61200 , @3.2270348837209304 Channel: 4 
Note on, E2 key =  40;WhichDrum: S ; velocity: 127
@61260 , @3.2301986434108527 Channel: 4 
Note on, E2 key =  40;WhichDrum: S ; velocity: 0
@61260 , @3.2301986434108527 Channel: 4 
Note on, D2 key =  38;WhichDrum: T2 ; velocity: 127
@61320 , @3.233362403100775 Channel: 4 
Note on, D2 key =  38;WhichDrum: T2 ; velocity: 0
@61320 , @3.233362403100775 Channel: 4 
Note on, C2 key =  36;WhichDrum: B ; velocity: 127
@61380 , @3.236526162790698 Channel: 4 
Note on, C2 key =  36;WhichDrum: B ; velocity: 0
@61380 , @3.236526162790698 Channel: 4 
Note on, A1 key =  33;WhichDrum: T3 ; velocity: 127
@61440 , @3.23968992248062 Channel: 4 
Note on, A1 key =  33;WhichDrum: T3 ; velocity: 0
@61440 , @3.23968992248062 Channel: 4 
Note on, G1 key =  31;WhichDrum: C2 ; velocity: 127
@61500 , @3.242853682170543 Channel: 4 
Note on, G1 key =  31;WhichDrum: C2 ; velocity: 0
@61500 , @3.242853682170543 Channel: 4 
Note on, A1 key =  33;WhichDrum: T3 ; velocity: 127
@61560 , @3.2460174418604653 Channel: 4 
Note on, A1 key =  33;WhichDrum: T3 ; velocity: 0
@61560 , @3.2460174418604653 Channel: 4 
Note on, A1 key =  33;WhichDrum: T3 ; velocity: 127
@61620 , @3.2491812015503876 Channel: 4 
Note on, A1 key =  33;WhichDrum: T3 ; velocity: 0
@61620 , @3.2491812015503876 Channel: 4 
Note on, A2 key =  45;WhichDrum: T3 ; velocity: 127
@61680 , @3.2523449612403104 Channel: 4 
Note on, A2 key =  45;WhichDrum: T3 ; velocity: 0
@61680 , @3.2523449612403104 Channel: 4 
Note on, A1 key =  33;WhichDrum: T3 ; velocity: 127
@61740 , @3.2555087209302327 Channel: 4 
Note on, A1 key =  33;WhichDrum: T3 ; velocity: 0
@61740 , @3.2555087209302327 Channel: 4 
Note on, A1 key =  33;WhichDrum: T3 ; velocity: 127
@61800 , @3.258672480620155 Channel: 4 
Note on, A1 key =  33;WhichDrum: T3 ; velocity: 0
@61800 , @3.258672480620155 Channel: 4 
Note on, A2 key =  45;WhichDrum: T3 ; velocity: 127
@61860 , @3.261836240310078 Channel: 4 
Note on, A2 key =  45;WhichDrum: T3 ; velocity: 0
@61860 , @3.261836240310078 Channel: 4 
Note on, A1 key =  33;WhichDrum: T3 ; velocity: 127
@61920 , @3.265 Channel: 4 
Note on, A1 key =  33;WhichDrum: T3 ; velocity: 0
@61920 , @3.265 Channel: 4 
Note on, A1 key =  33;WhichDrum: T3 ; velocity: 127
@61980 , @3.2681637596899225 Channel: 4 
Note on, A1 key =  33;WhichDrum: T3 ; velocity: 0
@61980 , @3.2681637596899225 Channel: 4 
Note on, A1 key =  33;WhichDrum: T3 ; velocity: 127
@62040 , @3.2713275193798452 Channel: 4 
Note on, A1 key =  33;WhichDrum: T3 ; velocity: 0
@62040 , @3.2713275193798452 Channel: 4 
Note on, A1 key =  33;WhichDrum: T3 ; velocity: 127
@62100 , @3.2744912790697676 Channel: 4 
Note on, A1 key =  33;WhichDrum: T3 ; velocity: 0
@62100 , @3.2744912790697676 Channel: 4 
Note on, A2 key =  45;WhichDrum: T3 ; velocity: 127
@62160 , @3.27765503875969 Channel: 4 
Note on, A2 key =  45;WhichDrum: T3 ; velocity: 0
@62160 , @3.27765503875969 Channel: 4 
Note on, A1 key =  33;WhichDrum: T3 ; velocity: 127
@62220 , @3.2808187984496127 Channel: 4 
Note on, A1 key =  33;WhichDrum: T3 ; velocity: 0
@62220 , @3.2808187984496127 Channel: 4 
Note on, A1 key =  33;WhichDrum: T3 ; velocity: 127
@62280 , @3.283982558139535 Channel: 4 
Note on, A1 key =  33;WhichDrum: T3 ; velocity: 0
@62280 , @3.283982558139535 Channel: 4 
Note on, A2 key =  45;WhichDrum: T3 ; velocity: 127
@62340 , @3.2871463178294573 Channel: 4 
Note on, A2 key =  45;WhichDrum: T3 ; velocity: 0
@62340 , @3.2871463178294573 Channel: 4 
Note on, A1 key =  33;WhichDrum: T3 ; velocity: 127
@62400 , @3.29031007751938 Channel: 4 
Note on, A1 key =  33;WhichDrum: T3 ; velocity: 0
@62400 , @3.29031007751938 Channel: 4 
Note on, A1 key =  33;WhichDrum: T3 ; velocity: 127
@62460 , @3.2934738372093024 Channel: 4 
Note on, A1 key =  33;WhichDrum: T3 ; velocity: 0
@62460 , @3.2934738372093024 Channel: 4 
Note on, A1 key =  33;WhichDrum: T3 ; velocity: 127
@62520 , @3.296637596899225 Channel: 4 
Note on, A1 key =  33;WhichDrum: T3 ; velocity: 0
@62520 , @3.296637596899225 Channel: 4 
Note on, A1 key =  33;WhichDrum: T3 ; velocity: 127
@62580 , @3.2998013565891475 Channel: 4 
Note on, A1 key =  33;WhichDrum: T3 ; velocity: 0
@62580 , @3.2998013565891475 Channel: 4 
Note on, A2 key =  45;WhichDrum: T3 ; velocity: 127
@62640 , @3.30296511627907 Channel: 4 
Note on, A2 key =  45;WhichDrum: T3 ; velocity: 0
@62640 , @3.30296511627907 Channel: 4 
Note on, A1 key =  33;WhichDrum: T3 ; velocity: 127
@62700 , @3.3061288759689926 Channel: 4 
Note on, A1 key =  33;WhichDrum: T3 ; velocity: 0
@62700 , @3.3061288759689926 Channel: 4 
Note on, A1 key =  33;WhichDrum: T3 ; velocity: 127
@62760 , @3.309292635658915 Channel: 4 
Note on, A1 key =  33;WhichDrum: T3 ; velocity: 0
@62760 , @3.309292635658915 Channel: 4 
Note on, A2 key =  45;WhichDrum: T3 ; velocity: 127
@62820 , @3.3124563953488373 Channel: 4 
Note on, A2 key =  45;WhichDrum: T3 ; velocity: 0
@62820 , @3.3124563953488373 Channel: 4 
Note on, A1 key =  33;WhichDrum: T3 ; velocity: 127
@62880 , @3.31562015503876 Channel: 4 
Note on, A1 key =  33;WhichDrum: T3 ; velocity: 0
@62880 , @3.31562015503876 Channel: 4 
Note on, C2 key =  36;WhichDrum: B ; velocity: 127
@62940 , @3.3187839147286824 Channel: 4 
Note on, C2 key =  36;WhichDrum: B ; velocity: 0
@62940 , @3.3187839147286824 Channel: 4 
Note on, B1 key =  35;WhichDrum: T1 ; velocity: 127
@63000 , @3.3219476744186047 Channel: 4 
Note on, B1 key =  35;WhichDrum: T1 ; velocity: 0
@63000 , @3.3219476744186047 Channel: 4 
Note on, A1 key =  33;WhichDrum: T3 ; velocity: 127
@63060 , @3.3251114341085275 Channel: 4 
Note on, A1 key =  33;WhichDrum: T3 ; velocity: 0
@63060 , @3.3251114341085275 Channel: 4 
Note on, F2 key =  41;WhichDrum: HH ; velocity: 127
@63120 , @3.32827519379845 Channel: 4 
Note on, F2 key =  41;WhichDrum: HH ; velocity: 0
@63120 , @3.32827519379845 Channel: 4 
Note on, E2 key =  40;WhichDrum: S ; velocity: 127
@63180 , @3.331438953488372 Channel: 4 
Note on, E2 key =  40;WhichDrum: S ; velocity: 0
@63180 , @3.331438953488372 Channel: 4 
Note on, D2 key =  38;WhichDrum: T2 ; velocity: 127
@63240 , @3.334602713178295 Channel: 4 
Note on, D2 key =  38;WhichDrum: T2 ; velocity: 0
@63240 , @3.334602713178295 Channel: 4 
Note on, C2 key =  36;WhichDrum: B ; velocity: 127
@63300 , @3.3377664728682173 Channel: 4 
Note on, C2 key =  36;WhichDrum: B ; velocity: 0
@63300 , @3.3377664728682173 Channel: 4 
Note on, A1 key =  33;WhichDrum: T3 ; velocity: 127
@63360 , @3.3409302325581396 Channel: 4 
Note on, A1 key =  33;WhichDrum: T3 ; velocity: 0
@63360 , @3.3409302325581396 Channel: 4 
Note on, G1 key =  31;WhichDrum: C2 ; velocity: 127
@63480 , @3.3472577519379847 Channel: 4 
Note on, G1 key =  31;WhichDrum: C2 ; velocity: 0
@63480 , @3.3472577519379847 Channel: 4 
Note on, G1 key =  31;WhichDrum: C2 ; velocity: 127
@63600 , @3.35358527131783 Channel: 4 
Note on, G1 key =  31;WhichDrum: C2 ; velocity: 0
@63600 , @3.35358527131783 Channel: 4 
Note on, G1 key =  31;WhichDrum: C2 ; velocity: 127
@63660 , @3.356749031007752 Channel: 4 
Note on, G1 key =  31;WhichDrum: C2 ; velocity: 0
@63660 , @3.356749031007752 Channel: 4 
Note on, G1 key =  31;WhichDrum: C2 ; velocity: 127
@63720 , @3.359912790697675 Channel: 4 
Note on, G1 key =  31;WhichDrum: C2 ; velocity: 0
@63720 , @3.359912790697675 Channel: 4 
Note on, G1 key =  31;WhichDrum: C2 ; velocity: 127
@63840 , @3.3662403100775196 Channel: 4 
Note on, G1 key =  31;WhichDrum: C2 ; velocity: 0
@63840 , @3.3662403100775196 Channel: 4 
Note on, F#1 key =  30;WhichDrum: C1 ; velocity: 127
@63960 , @3.3725678294573647 Channel: 4 
Note on, F#1 key =  30;WhichDrum: C1 ; velocity: 0
@63960 , @3.3725678294573647 Channel: 4 
Note on, F#1 key =  30;WhichDrum: C1 ; velocity: 127
@64080 , @3.3788953488372098 Channel: 4 
Note on, F#1 key =  30;WhichDrum: C1 ; velocity: 0
@64080 , @3.3788953488372098 Channel: 4 
Note on, F1 key =  29;WhichDrum: HH ; velocity: 127
@64200 , @3.3852228682170544 Channel: 4 
Note on, F1 key =  29;WhichDrum: HH ; velocity: 0
@64200 , @3.3852228682170544 Channel: 4 
Note on, F1 key =  29;WhichDrum: HH ; velocity: 127
@64320 , @3.3915503875968995 Channel: 4 
Note on, F1 key =  29;WhichDrum: HH ; velocity: 0
@64320 , @3.3915503875968995 Channel: 4 
Note on, E1 key =  28;WhichDrum: S ; velocity: 127
@64380 , @3.394714147286822 Channel: 4 
Note on, E1 key =  28;WhichDrum: S ; velocity: 0
@64380 , @3.394714147286822 Channel: 4 
Note on, E1 key =  28;WhichDrum: S ; velocity: 127
@64440 , @3.3978779069767446 Channel: 4 
Note on, E1 key =  28;WhichDrum: S ; velocity: 0
@64440 , @3.3978779069767446 Channel: 4 
Note on, E2 key =  40;WhichDrum: S ; velocity: 127
@64500 , @3.401041666666667 Channel: 4 
Note on, E2 key =  40;WhichDrum: S ; velocity: 0
@64500 , @3.401041666666667 Channel: 4 
Note on, E2 key =  40;WhichDrum: S ; velocity: 127
@64560 , @3.4042054263565897 Channel: 4 
Note on, E2 key =  40;WhichDrum: S ; velocity: 0
@64560 , @3.4042054263565897 Channel: 4 
Note on, E1 key =  28;WhichDrum: S ; velocity: 127
@64620 , @3.407369186046512 Channel: 4 
Note on, E1 key =  28;WhichDrum: S ; velocity: 0
@64620 , @3.407369186046512 Channel: 4 
Note on, E1 key =  28;WhichDrum: S ; velocity: 127
@64680 , @3.4105329457364344 Channel: 4 
Note on, E1 key =  28;WhichDrum: S ; velocity: 0
@64680 , @3.4105329457364344 Channel: 4 
Note on, E2 key =  40;WhichDrum: S ; velocity: 127
@64740 , @3.413696705426357 Channel: 4 
Note on, E2 key =  40;WhichDrum: S ; velocity: 0
@64740 , @3.413696705426357 Channel: 4 
Note on, E2 key =  40;WhichDrum: S ; velocity: 127
@64800 , @3.4168604651162795 Channel: 4 
Note on, E2 key =  40;WhichDrum: S ; velocity: 0
@64800 , @3.4168604651162795 Channel: 4 
Note on, E1 key =  28;WhichDrum: S ; velocity: 127
@64860 , @3.420024224806202 Channel: 4 
Note on, E1 key =  28;WhichDrum: S ; velocity: 0
@64860 , @3.420024224806202 Channel: 4 
Note on, E1 key =  28;WhichDrum: S ; velocity: 127
@64920 , @3.4231879844961246 Channel: 4 
Note on, E1 key =  28;WhichDrum: S ; velocity: 0
@64920 , @3.4231879844961246 Channel: 4 
Note on, E2 key =  40;WhichDrum: S ; velocity: 127
@64980 , @3.426351744186047 Channel: 4 
Note on, E2 key =  40;WhichDrum: S ; velocity: 0
@64980 , @3.426351744186047 Channel: 4 
Note on, E2 key =  40;WhichDrum: S ; velocity: 127
@65040 , @3.4295155038759693 Channel: 4 
Note on, E2 key =  40;WhichDrum: S ; velocity: 0
@65040 , @3.4295155038759693 Channel: 4 
Note on, E1 key =  28;WhichDrum: S ; velocity: 127
@65100 , @3.432679263565892 Channel: 4 
Note on, E1 key =  28;WhichDrum: S ; velocity: 0
@65100 , @3.432679263565892 Channel: 4 
Note on, E1 key =  28;WhichDrum: S ; velocity: 127
@65160 , @3.4358430232558144 Channel: 4 
Note on, E1 key =  28;WhichDrum: S ; velocity: 0
@65160 , @3.4358430232558144 Channel: 4 
Note on, E2 key =  40;WhichDrum: S ; velocity: 127
@65220 , @3.4390067829457367 Channel: 4 
Note on, E2 key =  40;WhichDrum: S ; velocity: 0
@65220 , @3.4390067829457367 Channel: 4 
Note on, E2 key =  40;WhichDrum: S ; velocity: 127
@65280 , @3.4421705426356595 Channel: 4 
Note on, E2 key =  40;WhichDrum: S ; velocity: 0
@65280 , @3.4421705426356595 Channel: 4 
Note on, G1 key =  31;WhichDrum: C2 ; velocity: 127
@65400 , @3.448498062015504 Channel: 4 
Note on, G1 key =  31;WhichDrum: C2 ; velocity: 0
@65400 , @3.448498062015504 Channel: 4 
Note on, G1 key =  31;WhichDrum: C2 ; velocity: 127
@65520 , @3.4548255813953492 Channel: 4 
Note on, G1 key =  31;WhichDrum: C2 ; velocity: 0
@65520 , @3.4548255813953492 Channel: 4 
Note on, G1 key =  31;WhichDrum: C2 ; velocity: 127
@65580 , @3.457989341085272 Channel: 4 
Note on, G1 key =  31;WhichDrum: C2 ; velocity: 0
@65580 , @3.457989341085272 Channel: 4 
Note on, G1 key =  31;WhichDrum: C2 ; velocity: 127
@65640 , @3.4611531007751943 Channel: 4 
Note on, G1 key =  31;WhichDrum: C2 ; velocity: 0
@65640 , @3.4611531007751943 Channel: 4 
Note on, G1 key =  31;WhichDrum: C2 ; velocity: 127
@65760 , @3.4674806201550394 Channel: 4 
Note on, G1 key =  31;WhichDrum: C2 ; velocity: 0
@65760 , @3.4674806201550394 Channel: 4 
Note on, F#1 key =  30;WhichDrum: C1 ; velocity: 127
@65880 , @3.4738081395348837 Channel: 4 
Note on, F#1 key =  30;WhichDrum: C1 ; velocity: 0
@65880 , @3.4738081395348837 Channel: 4 
Note on, F#1 key =  30;WhichDrum: C1 ; velocity: 127
@66000 , @3.4801356589147283 Channel: 4 
Note on, F#1 key =  30;WhichDrum: C1 ; velocity: 0
@66000 , @3.4801356589147283 Channel: 4 
Note on, F1 key =  29;WhichDrum: HH ; velocity: 127
@66120 , @3.4864631782945734 Channel: 4 
Note on, F1 key =  29;WhichDrum: HH ; velocity: 0
@66120 , @3.4864631782945734 Channel: 4 
Note on, F1 key =  29;WhichDrum: HH ; velocity: 127
@66240 , @3.4927906976744185 Channel: 4 
Note on, F1 key =  29;WhichDrum: HH ; velocity: 0
@66240 , @3.4927906976744185 Channel: 4 
Note on, E1 key =  28;WhichDrum: S ; velocity: 127
@66300 , @3.495954457364341 Channel: 4 
Note on, E1 key =  28;WhichDrum: S ; velocity: 0
@66300 , @3.495954457364341 Channel: 4 
Note on, E1 key =  28;WhichDrum: S ; velocity: 127
@66360 , @3.499118217054263 Channel: 4 
Note on, E1 key =  28;WhichDrum: S ; velocity: 0
@66360 , @3.499118217054263 Channel: 4 
Note on, E2 key =  40;WhichDrum: S ; velocity: 127
@66420 , @3.502281976744186 Channel: 4 
Note on, E2 key =  40;WhichDrum: S ; velocity: 0
@66420 , @3.502281976744186 Channel: 4 
Note on, E2 key =  40;WhichDrum: S ; velocity: 127
@66480 , @3.5054457364341083 Channel: 4 
Note on, E2 key =  40;WhichDrum: S ; velocity: 0
@66480 , @3.5054457364341083 Channel: 4 
Note on, E1 key =  28;WhichDrum: S ; velocity: 127
@66540 , @3.508609496124031 Channel: 4 
Note on, E1 key =  28;WhichDrum: S ; velocity: 0
@66540 , @3.508609496124031 Channel: 4 
Note on, E1 key =  28;WhichDrum: S ; velocity: 127
@66600 , @3.5117732558139534 Channel: 4 
Note on, E1 key =  28;WhichDrum: S ; velocity: 0
@66600 , @3.5117732558139534 Channel: 4 
Note on, E2 key =  40;WhichDrum: S ; velocity: 127
@66660 , @3.5149370155038757 Channel: 4 
Note on, E2 key =  40;WhichDrum: S ; velocity: 0
@66660 , @3.5149370155038757 Channel: 4 
Note on, E2 key =  40;WhichDrum: S ; velocity: 127
@66720 , @3.5181007751937985 Channel: 4 
Note on, E2 key =  40;WhichDrum: S ; velocity: 0
@66720 , @3.5181007751937985 Channel: 4 
Note on, E1 key =  28;WhichDrum: S ; velocity: 127
@66780 , @3.521264534883721 Channel: 4 
Note on, E1 key =  28;WhichDrum: S ; velocity: 0
@66780 , @3.521264534883721 Channel: 4 
Note on, E1 key =  28;WhichDrum: S ; velocity: 127
@66840 , @3.524428294573643 Channel: 4 
Note on, E1 key =  28;WhichDrum: S ; velocity: 0
@66840 , @3.524428294573643 Channel: 4 
Note on, E2 key =  40;WhichDrum: S ; velocity: 127
@66900 , @3.527592054263566 Channel: 4 
Note on, E2 key =  40;WhichDrum: S ; velocity: 0
@66900 , @3.527592054263566 Channel: 4 
Note on, E2 key =  40;WhichDrum: S ; velocity: 127
@66960 , @3.5307558139534883 Channel: 4 
Note on, E2 key =  40;WhichDrum: S ; velocity: 0
@66960 , @3.5307558139534883 Channel: 4 
Note on, E1 key =  28;WhichDrum: S ; velocity: 127
@67020 , @3.5339195736434106 Channel: 4 
Note on, E1 key =  28;WhichDrum: S ; velocity: 0
@67020 , @3.5339195736434106 Channel: 4 
Note on, E1 key =  28;WhichDrum: S ; velocity: 127
@67080 , @3.5370833333333334 Channel: 4 
Note on, E1 key =  28;WhichDrum: S ; velocity: 0
@67080 , @3.5370833333333334 Channel: 4 
Note on, E2 key =  40;WhichDrum: S ; velocity: 127
@67140 , @3.5402470930232557 Channel: 4 
Note on, E2 key =  40;WhichDrum: S ; velocity: 0
@67140 , @3.5402470930232557 Channel: 4 
Note on, E2 key =  40;WhichDrum: S ; velocity: 127
@67200 , @3.543410852713178 Channel: 4 
Note on, E2 key =  40;WhichDrum: S ; velocity: 0
@67200 , @3.543410852713178 Channel: 4 
Note on, G1 key =  31;WhichDrum: C2 ; velocity: 127
@67320 , @3.549738372093023 Channel: 4 
Note on, G1 key =  31;WhichDrum: C2 ; velocity: 0
@67320 , @3.549738372093023 Channel: 4 
Note on, G1 key =  31;WhichDrum: C2 ; velocity: 127
@67440 , @3.5560658914728682 Channel: 4 
Note on, G1 key =  31;WhichDrum: C2 ; velocity: 0
@67440 , @3.5560658914728682 Channel: 4 
Note on, G1 key =  31;WhichDrum: C2 ; velocity: 127
@67500 , @3.5592296511627906 Channel: 4 
Note on, G1 key =  31;WhichDrum: C2 ; velocity: 0
@67500 , @3.5592296511627906 Channel: 4 
Note on, G1 key =  31;WhichDrum: C2 ; velocity: 127
@67560 , @3.5623934108527133 Channel: 4 
Note on, G1 key =  31;WhichDrum: C2 ; velocity: 0
@67560 , @3.5623934108527133 Channel: 4 
Note on, G1 key =  31;WhichDrum: C2 ; velocity: 127
@67680 , @3.568720930232558 Channel: 4 
Note on, G1 key =  31;WhichDrum: C2 ; velocity: 0
@67680 , @3.568720930232558 Channel: 4 
Note on, F#1 key =  30;WhichDrum: C1 ; velocity: 127
@67800 , @3.575048449612403 Channel: 4 
Note on, F#1 key =  30;WhichDrum: C1 ; velocity: 0
@67800 , @3.575048449612403 Channel: 4 
Note on, F#1 key =  30;WhichDrum: C1 ; velocity: 127
@67920 , @3.581375968992248 Channel: 4 
Note on, F#1 key =  30;WhichDrum: C1 ; velocity: 0
@67920 , @3.581375968992248 Channel: 4 
Note on, F1 key =  29;WhichDrum: HH ; velocity: 127
@68040 , @3.587703488372093 Channel: 4 
Note on, F1 key =  29;WhichDrum: HH ; velocity: 0
@68040 , @3.587703488372093 Channel: 4 
Note on, F1 key =  29;WhichDrum: HH ; velocity: 127
@68160 , @3.594031007751938 Channel: 4 
Note on, F1 key =  29;WhichDrum: HH ; velocity: 0
@68160 , @3.594031007751938 Channel: 4 
Note on, E1 key =  28;WhichDrum: S ; velocity: 127
@68220 , @3.5971947674418603 Channel: 4 
Note on, E1 key =  28;WhichDrum: S ; velocity: 0
@68220 , @3.5971947674418603 Channel: 4 
Note on, E1 key =  28;WhichDrum: S ; velocity: 127
@68280 , @3.600358527131783 Channel: 4 
Note on, E1 key =  28;WhichDrum: S ; velocity: 0
@68280 , @3.600358527131783 Channel: 4 
Note on, E2 key =  40;WhichDrum: S ; velocity: 127
@68340 , @3.6035222868217054 Channel: 4 
Note on, E2 key =  40;WhichDrum: S ; velocity: 0
@68340 , @3.6035222868217054 Channel: 4 
Note on, E2 key =  40;WhichDrum: S ; velocity: 127
@68400 , @3.6066860465116277 Channel: 4 
Note on, E2 key =  40;WhichDrum: S ; velocity: 0
@68400 , @3.6066860465116277 Channel: 4 
Note on, E1 key =  28;WhichDrum: S ; velocity: 127
@68460 , @3.6098498062015505 Channel: 4 
Note on, E1 key =  28;WhichDrum: S ; velocity: 0
@68460 , @3.6098498062015505 Channel: 4 
Note on, E1 key =  28;WhichDrum: S ; velocity: 127
@68520 , @3.613013565891473 Channel: 4 
Note on, E1 key =  28;WhichDrum: S ; velocity: 0
@68520 , @3.613013565891473 Channel: 4 
Note on, E2 key =  40;WhichDrum: S ; velocity: 127
@68580 , @3.6161773255813956 Channel: 4 
Note on, E2 key =  40;WhichDrum: S ; velocity: 0
@68580 , @3.6161773255813956 Channel: 4 
Note on, E2 key =  40;WhichDrum: S ; velocity: 127
@68640 , @3.619341085271318 Channel: 4 
Note on, E2 key =  40;WhichDrum: S ; velocity: 0
@68640 , @3.619341085271318 Channel: 4 
Note on, E1 key =  28;WhichDrum: S ; velocity: 127
@68700 , @3.6225048449612403 Channel: 4 
Note on, E1 key =  28;WhichDrum: S ; velocity: 0
@68700 , @3.6225048449612403 Channel: 4 
Note on, E1 key =  28;WhichDrum: S ; velocity: 127
@68760 , @3.625668604651163 Channel: 4 
Note on, E1 key =  28;WhichDrum: S ; velocity: 0
@68760 , @3.625668604651163 Channel: 4 
Note on, E2 key =  40;WhichDrum: S ; velocity: 127
@68820 , @3.6288323643410854 Channel: 4 
Note on, E2 key =  40;WhichDrum: S ; velocity: 0
@68820 , @3.6288323643410854 Channel: 4 
Note on, E2 key =  40;WhichDrum: S ; velocity: 127
@68880 , @3.6319961240310077 Channel: 4 
Note on, E2 key =  40;WhichDrum: S ; velocity: 0
@68880 , @3.6319961240310077 Channel: 4 
Note on, E1 key =  28;WhichDrum: S ; velocity: 127
@68940 , @3.6351598837209305 Channel: 4 
Note on, E1 key =  28;WhichDrum: S ; velocity: 0
@68940 , @3.6351598837209305 Channel: 4 
Note on, E1 key =  28;WhichDrum: S ; velocity: 127
@69000 , @3.638323643410853 Channel: 4 
Note on, E1 key =  28;WhichDrum: S ; velocity: 0
@69000 , @3.638323643410853 Channel: 4 
Note on, E2 key =  40;WhichDrum: S ; velocity: 127
@69060 , @3.641487403100775 Channel: 4 
Note on, E2 key =  40;WhichDrum: S ; velocity: 0
@69060 , @3.641487403100775 Channel: 4 
Note on, E2 key =  40;WhichDrum: S ; velocity: 127
@69120 , @3.644651162790698 Channel: 4 
Note on, E2 key =  40;WhichDrum: S ; velocity: 0
@69120 , @3.644651162790698 Channel: 4 
Note on, G1 key =  31;WhichDrum: C2 ; velocity: 127
@69240 , @3.6509786821705426 Channel: 4 
Note on, G1 key =  31;WhichDrum: C2 ; velocity: 0
@69240 , @3.6509786821705426 Channel: 4 
Note on, G1 key =  31;WhichDrum: C2 ; velocity: 127
@69360 , @3.6573062015503877 Channel: 4 
Note on, G1 key =  31;WhichDrum: C2 ; velocity: 0
@69360 , @3.6573062015503877 Channel: 4 
Note on, G1 key =  31;WhichDrum: C2 ; velocity: 127
@69420 , @3.66046996124031 Channel: 4 
Note on, G1 key =  31;WhichDrum: C2 ; velocity: 0
@69420 , @3.66046996124031 Channel: 4 
Note on, G1 key =  31;WhichDrum: C2 ; velocity: 127
@69480 , @3.6636337209302328 Channel: 4 
Note on, G1 key =  31;WhichDrum: C2 ; velocity: 0
@69480 , @3.6636337209302328 Channel: 4 
Note on, G1 key =  31;WhichDrum: C2 ; velocity: 127
@69600 , @3.669961240310078 Channel: 4 
Note on, G1 key =  31;WhichDrum: C2 ; velocity: 0
@69600 , @3.669961240310078 Channel: 4 
Note on, F#1 key =  30;WhichDrum: C1 ; velocity: 127
@69720 , @3.6762887596899225 Channel: 4 
Note on, F#1 key =  30;WhichDrum: C1 ; velocity: 0
@69720 , @3.6762887596899225 Channel: 4 
Note on, F#1 key =  30;WhichDrum: C1 ; velocity: 127
@69840 , @3.6826162790697676 Channel: 4 
Note on, F#1 key =  30;WhichDrum: C1 ; velocity: 0
@69840 , @3.6826162790697676 Channel: 4 
Note on, F1 key =  29;WhichDrum: HH ; velocity: 127
@69960 , @3.6889437984496127 Channel: 4 
Note on, F1 key =  29;WhichDrum: HH ; velocity: 0
@69960 , @3.6889437984496127 Channel: 4 
Note on, F1 key =  29;WhichDrum: HH ; velocity: 127
@70080 , @3.6952713178294574 Channel: 4 
Note on, F1 key =  29;WhichDrum: HH ; velocity: 0
@70080 , @3.6952713178294574 Channel: 4 
Note on, D2 key =  38;WhichDrum: T2 ; velocity: 127
@70140 , @3.69843507751938 Channel: 4 
Note on, D2 key =  38;WhichDrum: T2 ; velocity: 0
@70140 , @3.69843507751938 Channel: 4 
Note on, E2 key =  40;WhichDrum: S ; velocity: 127
@70200 , @3.7015988372093025 Channel: 4 
Note on, E2 key =  40;WhichDrum: S ; velocity: 0
@70200 , @3.7015988372093025 Channel: 4 
Note on, E1 key =  28;WhichDrum: S ; velocity: 127
@70260 , @3.704762596899225 Channel: 4 
Note on, E1 key =  28;WhichDrum: S ; velocity: 0
@70260 , @3.704762596899225 Channel: 4 
Note on, E2 key =  40;WhichDrum: S ; velocity: 127
@70320 , @3.7079263565891476 Channel: 4 
Note on, E2 key =  40;WhichDrum: S ; velocity: 0
@70320 , @3.7079263565891476 Channel: 4 
Note on, E1 key =  28;WhichDrum: S ; velocity: 127
@70380 , @3.71109011627907 Channel: 4 
Note on, E1 key =  28;WhichDrum: S ; velocity: 0
@70380 , @3.71109011627907 Channel: 4 
Note on, E1 key =  28;WhichDrum: S ; velocity: 127
@70440 , @3.7142538759689923 Channel: 4 
Note on, E1 key =  28;WhichDrum: S ; velocity: 0
@70440 , @3.7142538759689923 Channel: 4 
Note on, E2 key =  40;WhichDrum: S ; velocity: 127
@70500 , @3.717417635658915 Channel: 4 
Note on, E2 key =  40;WhichDrum: S ; velocity: 0
@70500 , @3.717417635658915 Channel: 4 
Note on, E1 key =  28;WhichDrum: S ; velocity: 127
@70560 , @3.7205813953488374 Channel: 4 
Note on, E1 key =  28;WhichDrum: S ; velocity: 0
@70560 , @3.7205813953488374 Channel: 4 
Note on, D2 key =  38;WhichDrum: T2 ; velocity: 127
@70620 , @3.72374515503876 Channel: 4 
Note on, D2 key =  38;WhichDrum: T2 ; velocity: 0
@70620 , @3.72374515503876 Channel: 4 
Note on, E2 key =  40;WhichDrum: S ; velocity: 127
@70680 , @3.7269089147286825 Channel: 4 
Note on, E2 key =  40;WhichDrum: S ; velocity: 0
@70680 , @3.7269089147286825 Channel: 4 
Note on, E1 key =  28;WhichDrum: S ; velocity: 127
@70740 , @3.730072674418605 Channel: 4 
Note on, E1 key =  28;WhichDrum: S ; velocity: 0
@70740 , @3.730072674418605 Channel: 4 
Note on, E2 key =  40;WhichDrum: S ; velocity: 127
@70800 , @3.7332364341085276 Channel: 4 
Note on, E2 key =  40;WhichDrum: S ; velocity: 0
@70800 , @3.7332364341085276 Channel: 4 
Note on, E1 key =  28;WhichDrum: S ; velocity: 127
@70860 , @3.73640019379845 Channel: 4 
Note on, E1 key =  28;WhichDrum: S ; velocity: 0
@70860 , @3.73640019379845 Channel: 4 
Note on, E1 key =  28;WhichDrum: S ; velocity: 127
@70920 , @3.7395639534883722 Channel: 4 
Note on, E1 key =  28;WhichDrum: S ; velocity: 0
@70920 , @3.7395639534883722 Channel: 4 
Note on, E2 key =  40;WhichDrum: S ; velocity: 127
@70980 , @3.742727713178295 Channel: 4 
Note on, E2 key =  40;WhichDrum: S ; velocity: 0
@70980 , @3.742727713178295 Channel: 4 
Note on, E1 key =  28;WhichDrum: S ; velocity: 127
@71040 , @3.7458914728682173 Channel: 4 
Note on, E1 key =  28;WhichDrum: S ; velocity: 0
@71040 , @3.7458914728682173 Channel: 4 
Note on, C#2 key =  37;WhichDrum: T3 ; velocity: 127
@71100 , @3.7490552325581397 Channel: 4 
Note on, C#2 key =  37;WhichDrum: T3 ; velocity: 0
@71100 , @3.7490552325581397 Channel: 4 
Note on, E2 key =  40;WhichDrum: S ; velocity: 127
@71160 , @3.7522189922480624 Channel: 4 
Note on, E2 key =  40;WhichDrum: S ; velocity: 0
@71160 , @3.7522189922480624 Channel: 4 
Note on, E1 key =  28;WhichDrum: S ; velocity: 127
@71220 , @3.7553827519379848 Channel: 4 
Note on, E1 key =  28;WhichDrum: S ; velocity: 0
@71220 , @3.7553827519379848 Channel: 4 
Note on, E2 key =  40;WhichDrum: S ; velocity: 127
@71280 , @3.758546511627907 Channel: 4 
Note on, E2 key =  40;WhichDrum: S ; velocity: 0
@71280 , @3.758546511627907 Channel: 4 
Note on, E1 key =  28;WhichDrum: S ; velocity: 127
@71340 , @3.76171027131783 Channel: 4 
Note on, E1 key =  28;WhichDrum: S ; velocity: 0
@71340 , @3.76171027131783 Channel: 4 
Note on, E1 key =  28;WhichDrum: S ; velocity: 127
@71400 , @3.764874031007752 Channel: 4 
Note on, E1 key =  28;WhichDrum: S ; velocity: 0
@71400 , @3.764874031007752 Channel: 4 
Note on, E2 key =  40;WhichDrum: S ; velocity: 127
@71460 , @3.7680377906976745 Channel: 4 
Note on, E2 key =  40;WhichDrum: S ; velocity: 0
@71460 , @3.7680377906976745 Channel: 4 
Note on, E1 key =  28;WhichDrum: S ; velocity: 127
@71520 , @3.7712015503875973 Channel: 4 
Note on, E1 key =  28;WhichDrum: S ; velocity: 0
@71520 , @3.7712015503875973 Channel: 4 
Note on, G1 key =  31;WhichDrum: C2 ; velocity: 127
@71580 , @3.7743653100775196 Channel: 4 
Note on, G1 key =  31;WhichDrum: C2 ; velocity: 0
@71580 , @3.7743653100775196 Channel: 4 
Note on, F#1 key =  30;WhichDrum: C1 ; velocity: 127
@71640 , @3.7775290697674424 Channel: 4 
Note on, F#1 key =  30;WhichDrum: C1 ; velocity: 0
@71640 , @3.7775290697674424 Channel: 4 
Note on, E1 key =  28;WhichDrum: S ; velocity: 127
@71700 , @3.7806928294573647 Channel: 4 
Note on, E1 key =  28;WhichDrum: S ; velocity: 0
@71700 , @3.7806928294573647 Channel: 4 
Note on, C2 key =  36;WhichDrum: B ; velocity: 127
@71760 , @3.783856589147287 Channel: 4 
Note on, C2 key =  36;WhichDrum: B ; velocity: 0
@71760 , @3.783856589147287 Channel: 4 
Note on, B1 key =  35;WhichDrum: T1 ; velocity: 127
@71820 , @3.78702034883721 Channel: 4 
Note on, B1 key =  35;WhichDrum: T1 ; velocity: 0
@71820 , @3.78702034883721 Channel: 4 
Note on, A1 key =  33;WhichDrum: T3 ; velocity: 127
@71880 , @3.790184108527132 Channel: 4 
Note on, A1 key =  33;WhichDrum: T3 ; velocity: 0
@71880 , @3.790184108527132 Channel: 4 
Note on, G1 key =  31;WhichDrum: C2 ; velocity: 127
@71940 , @3.7933478682170545 Channel: 4 
Note on, G1 key =  31;WhichDrum: C2 ; velocity: 0
@71940 , @3.7933478682170545 Channel: 4 
Note on, E1 key =  28;WhichDrum: S ; velocity: 127
@72000 , @3.7965116279069773 Channel: 4 
Note on, E1 key =  28;WhichDrum: S ; velocity: 0
@72000 , @3.7965116279069773 Channel: 4 
Note on, D2 key =  38;WhichDrum: T2 ; velocity: 127
@72060 , @3.7996753875968996 Channel: 4 
Note on, D2 key =  38;WhichDrum: T2 ; velocity: 0
@72060 , @3.7996753875968996 Channel: 4 
Note on, E2 key =  40;WhichDrum: S ; velocity: 127
@72120 , @3.802839147286822 Channel: 4 
Note on, E2 key =  40;WhichDrum: S ; velocity: 0
@72120 , @3.802839147286822 Channel: 4 
Note on, E1 key =  28;WhichDrum: S ; velocity: 127
@72180 , @3.8060029069767447 Channel: 4 
Note on, E1 key =  28;WhichDrum: S ; velocity: 0
@72180 , @3.8060029069767447 Channel: 4 
Note on, E2 key =  40;WhichDrum: S ; velocity: 127
@72240 , @3.809166666666667 Channel: 4 
Note on, E2 key =  40;WhichDrum: S ; velocity: 0
@72240 , @3.809166666666667 Channel: 4 
Note on, E1 key =  28;WhichDrum: S ; velocity: 127
@72300 , @3.8123304263565894 Channel: 4 
Note on, E1 key =  28;WhichDrum: S ; velocity: 0
@72300 , @3.8123304263565894 Channel: 4 
Note on, E1 key =  28;WhichDrum: S ; velocity: 127
@72360 , @3.815494186046512 Channel: 4 
Note on, E1 key =  28;WhichDrum: S ; velocity: 0
@72360 , @3.815494186046512 Channel: 4 
Note on, E2 key =  40;WhichDrum: S ; velocity: 127
@72420 , @3.8186579457364345 Channel: 4 
Note on, E2 key =  40;WhichDrum: S ; velocity: 0
@72420 , @3.8186579457364345 Channel: 4 
Note on, E1 key =  28;WhichDrum: S ; velocity: 127
@72480 , @3.821821705426357 Channel: 4 
Note on, E1 key =  28;WhichDrum: S ; velocity: 0
@72480 , @3.821821705426357 Channel: 4 
Note on, D2 key =  38;WhichDrum: T2 ; velocity: 127
@72540 , @3.8249854651162796 Channel: 4 
Note on, D2 key =  38;WhichDrum: T2 ; velocity: 0
@72540 , @3.8249854651162796 Channel: 4 
Note on, E2 key =  40;WhichDrum: S ; velocity: 127
@72600 , @3.828149224806202 Channel: 4 
Note on, E2 key =  40;WhichDrum: S ; velocity: 0
@72600 , @3.828149224806202 Channel: 4 
Note on, E1 key =  28;WhichDrum: S ; velocity: 127
@72660 , @3.8313129844961247 Channel: 4 
Note on, E1 key =  28;WhichDrum: S ; velocity: 0
@72660 , @3.8313129844961247 Channel: 4 
Note on, E2 key =  40;WhichDrum: S ; velocity: 127
@72720 , @3.834476744186047 Channel: 4 
Note on, E2 key =  40;WhichDrum: S ; velocity: 0
@72720 , @3.834476744186047 Channel: 4 
Note on, E1 key =  28;WhichDrum: S ; velocity: 127
@72780 , @3.8376405038759693 Channel: 4 
Note on, E1 key =  28;WhichDrum: S ; velocity: 0
@72780 , @3.8376405038759693 Channel: 4 
Note on, E1 key =  28;WhichDrum: S ; velocity: 127
@72840 , @3.840804263565892 Channel: 4 
Note on, E1 key =  28;WhichDrum: S ; velocity: 0
@72840 , @3.840804263565892 Channel: 4 
Note on, E2 key =  40;WhichDrum: S ; velocity: 127
@72900 , @3.8439680232558144 Channel: 4 
Note on, E2 key =  40;WhichDrum: S ; velocity: 0
@72900 , @3.8439680232558144 Channel: 4 
Note on, E1 key =  28;WhichDrum: S ; velocity: 127
@72960 , @3.8471317829457368 Channel: 4 
Note on, E1 key =  28;WhichDrum: S ; velocity: 0
@72960 , @3.8471317829457368 Channel: 4 
Note on, C#2 key =  37;WhichDrum: T3 ; velocity: 127
@73020 , @3.8502955426356595 Channel: 4 
Note on, C#2 key =  37;WhichDrum: T3 ; velocity: 0
@73020 , @3.8502955426356595 Channel: 4 
Note on, E2 key =  40;WhichDrum: S ; velocity: 127
@73080 , @3.853459302325582 Channel: 4 
Note on, E2 key =  40;WhichDrum: S ; velocity: 0
@73080 , @3.853459302325582 Channel: 4 
Note on, E1 key =  28;WhichDrum: S ; velocity: 127
@73140 , @3.856623062015504 Channel: 4 
Note on, E1 key =  28;WhichDrum: S ; velocity: 0
@73140 , @3.856623062015504 Channel: 4 
Note on, E2 key =  40;WhichDrum: S ; velocity: 127
@73200 , @3.859786821705427 Channel: 4 
Note on, E2 key =  40;WhichDrum: S ; velocity: 0
@73200 , @3.859786821705427 Channel: 4 
Note on, E1 key =  28;WhichDrum: S ; velocity: 127
@73260 , @3.8629505813953493 Channel: 4 
Note on, E1 key =  28;WhichDrum: S ; velocity: 0
@73260 , @3.8629505813953493 Channel: 4 
Note on, E1 key =  28;WhichDrum: S ; velocity: 127
@73320 , @3.8661143410852716 Channel: 4 
Note on, E1 key =  28;WhichDrum: S ; velocity: 0
@73320 , @3.8661143410852716 Channel: 4 
Note on, E2 key =  40;WhichDrum: S ; velocity: 127
@73380 , @3.8692781007751944 Channel: 4 
Note on, E2 key =  40;WhichDrum: S ; velocity: 0
@73380 , @3.8692781007751944 Channel: 4 
Note on, E1 key =  28;WhichDrum: S ; velocity: 127
@73440 , @3.8724418604651167 Channel: 4 
Note on, E1 key =  28;WhichDrum: S ; velocity: 0
@73440 , @3.8724418604651167 Channel: 4 
Note on, G1 key =  31;WhichDrum: C2 ; velocity: 127
@73500 , @3.875605620155039 Channel: 4 
Note on, G1 key =  31;WhichDrum: C2 ; velocity: 0
@73500 , @3.875605620155039 Channel: 4 
Note on, F#1 key =  30;WhichDrum: C1 ; velocity: 127
@73560 , @3.878769379844961 Channel: 4 
Note on, F#1 key =  30;WhichDrum: C1 ; velocity: 0
@73560 , @3.878769379844961 Channel: 4 
Note on, E1 key =  28;WhichDrum: S ; velocity: 127
@73620 , @3.8819331395348837 Channel: 4 
Note on, E1 key =  28;WhichDrum: S ; velocity: 0
@73620 , @3.8819331395348837 Channel: 4 
Note on, C2 key =  36;WhichDrum: B ; velocity: 127
@73680 , @3.885096899224806 Channel: 4 
Note on, C2 key =  36;WhichDrum: B ; velocity: 0
@73680 , @3.885096899224806 Channel: 4 
Note on, B1 key =  35;WhichDrum: T1 ; velocity: 127
@73740 , @3.8882606589147284 Channel: 4 
Note on, B1 key =  35;WhichDrum: T1 ; velocity: 0
@73740 , @3.8882606589147284 Channel: 4 
Note on, A1 key =  33;WhichDrum: T3 ; velocity: 127
@73800 , @3.891424418604651 Channel: 4 
Note on, A1 key =  33;WhichDrum: T3 ; velocity: 0
@73800 , @3.891424418604651 Channel: 4 
Note on, G1 key =  31;WhichDrum: C2 ; velocity: 127
@73860 , @3.8945881782945735 Channel: 4 
Note on, G1 key =  31;WhichDrum: C2 ; velocity: 0
@73860 , @3.8945881782945735 Channel: 4 
Note on, E1 key =  28;WhichDrum: S ; velocity: 127
@73920 , @3.897751937984496 Channel: 4 
Note on, E1 key =  28;WhichDrum: S ; velocity: 0
@73920 , @3.897751937984496 Channel: 4 
Note on, D2 key =  38;WhichDrum: T2 ; velocity: 127
@73980 , @3.9009156976744186 Channel: 4 
Note on, D2 key =  38;WhichDrum: T2 ; velocity: 0
@73980 , @3.9009156976744186 Channel: 4 
Note on, E2 key =  40;WhichDrum: S ; velocity: 127
@74040 , @3.904079457364341 Channel: 4 
Note on, E2 key =  40;WhichDrum: S ; velocity: 0
@74040 , @3.904079457364341 Channel: 4 
Note on, E1 key =  28;WhichDrum: S ; velocity: 127
@74100 , @3.9072432170542633 Channel: 4 
Note on, E1 key =  28;WhichDrum: S ; velocity: 0
@74100 , @3.9072432170542633 Channel: 4 
Note on, E2 key =  40;WhichDrum: S ; velocity: 127
@74160 , @3.910406976744186 Channel: 4 
Note on, E2 key =  40;WhichDrum: S ; velocity: 0
@74160 , @3.910406976744186 Channel: 4 
Note on, E1 key =  28;WhichDrum: S ; velocity: 127
@74220 , @3.9135707364341084 Channel: 4 
Note on, E1 key =  28;WhichDrum: S ; velocity: 0
@74220 , @3.9135707364341084 Channel: 4 
Note on, E1 key =  28;WhichDrum: S ; velocity: 127
@74280 , @3.9167344961240307 Channel: 4 
Note on, E1 key =  28;WhichDrum: S ; velocity: 0
@74280 , @3.9167344961240307 Channel: 4 
Note on, E2 key =  40;WhichDrum: S ; velocity: 127
@74340 , @3.9198982558139535 Channel: 4 
Note on, E2 key =  40;WhichDrum: S ; velocity: 0
@74340 , @3.9198982558139535 Channel: 4 
Note on, E1 key =  28;WhichDrum: S ; velocity: 127
@74400 , @3.923062015503876 Channel: 4 
Note on, E1 key =  28;WhichDrum: S ; velocity: 0
@74400 , @3.923062015503876 Channel: 4 
Note on, D2 key =  38;WhichDrum: T2 ; velocity: 127
@74460 , @3.926225775193798 Channel: 4 
Note on, D2 key =  38;WhichDrum: T2 ; velocity: 0
@74460 , @3.926225775193798 Channel: 4 
Note on, E2 key =  40;WhichDrum: S ; velocity: 127
@74520 , @3.929389534883721 Channel: 4 
Note on, E2 key =  40;WhichDrum: S ; velocity: 0
@74520 , @3.929389534883721 Channel: 4 
Note on, E1 key =  28;WhichDrum: S ; velocity: 127
@74580 , @3.932553294573643 Channel: 4 
Note on, E1 key =  28;WhichDrum: S ; velocity: 0
@74580 , @3.932553294573643 Channel: 4 
Note on, E2 key =  40;WhichDrum: S ; velocity: 127
@74640 , @3.935717054263566 Channel: 4 
Note on, E2 key =  40;WhichDrum: S ; velocity: 0
@74640 , @3.935717054263566 Channel: 4 
Note on, E1 key =  28;WhichDrum: S ; velocity: 127
@74700 , @3.9388808139534883 Channel: 4 
Note on, E1 key =  28;WhichDrum: S ; velocity: 0
@74700 , @3.9388808139534883 Channel: 4 
Note on, E1 key =  28;WhichDrum: S ; velocity: 127
@74760 , @3.9420445736434107 Channel: 4 
Note on, E1 key =  28;WhichDrum: S ; velocity: 0
@74760 , @3.9420445736434107 Channel: 4 
Note on, E2 key =  40;WhichDrum: S ; velocity: 127
@74820 , @3.9452083333333334 Channel: 4 
Note on, E2 key =  40;WhichDrum: S ; velocity: 0
@74820 , @3.9452083333333334 Channel: 4 
Note on, E1 key =  28;WhichDrum: S ; velocity: 127
@74880 , @3.9483720930232558 Channel: 4 
Note on, E1 key =  28;WhichDrum: S ; velocity: 0
@74880 , @3.9483720930232558 Channel: 4 
Note on, C#2 key =  37;WhichDrum: T3 ; velocity: 127
@74940 , @3.951535852713178 Channel: 4 
Note on, C#2 key =  37;WhichDrum: T3 ; velocity: 0
@74940 , @3.951535852713178 Channel: 4 
Note on, E2 key =  40;WhichDrum: S ; velocity: 127
@75000 , @3.954699612403101 Channel: 4 
Note on, E2 key =  40;WhichDrum: S ; velocity: 0
@75000 , @3.954699612403101 Channel: 4 
Note on, E1 key =  28;WhichDrum: S ; velocity: 127
@75060 , @3.957863372093023 Channel: 4 
Note on, E1 key =  28;WhichDrum: S ; velocity: 0
@75060 , @3.957863372093023 Channel: 4 
Note on, E2 key =  40;WhichDrum: S ; velocity: 127
@75120 , @3.9610271317829455 Channel: 4 
Note on, E2 key =  40;WhichDrum: S ; velocity: 0
@75120 , @3.9610271317829455 Channel: 4 
Note on, E1 key =  28;WhichDrum: S ; velocity: 127
@75180 , @3.9641908914728683 Channel: 4 
Note on, E1 key =  28;WhichDrum: S ; velocity: 0
@75180 , @3.9641908914728683 Channel: 4 
Note on, E1 key =  28;WhichDrum: S ; velocity: 127
@75240 , @3.9673546511627906 Channel: 4 
Note on, E1 key =  28;WhichDrum: S ; velocity: 0
@75240 , @3.9673546511627906 Channel: 4 
Note on, E2 key =  40;WhichDrum: S ; velocity: 127
@75300 , @3.970518410852713 Channel: 4 
Note on, E2 key =  40;WhichDrum: S ; velocity: 0
@75300 , @3.970518410852713 Channel: 4 
Note on, E1 key =  28;WhichDrum: S ; velocity: 127
@75360 , @3.9736821705426357 Channel: 4 
Note on, E1 key =  28;WhichDrum: S ; velocity: 0
@75360 , @3.9736821705426357 Channel: 4 
Note on, G1 key =  31;WhichDrum: C2 ; velocity: 127
@75420 , @3.976845930232558 Channel: 4 
Note on, G1 key =  31;WhichDrum: C2 ; velocity: 0
@75420 , @3.976845930232558 Channel: 4 
Note on, F#1 key =  30;WhichDrum: C1 ; velocity: 127
@75480 , @3.9800096899224804 Channel: 4 
Note on, F#1 key =  30;WhichDrum: C1 ; velocity: 0
@75480 , @3.9800096899224804 Channel: 4 
Note on, E1 key =  28;WhichDrum: S ; velocity: 127
@75540 , @3.983173449612403 Channel: 4 
Note on, E1 key =  28;WhichDrum: S ; velocity: 0
@75540 , @3.983173449612403 Channel: 4 
Note on, C2 key =  36;WhichDrum: B ; velocity: 127
@75600 , @3.9863372093023255 Channel: 4 
Note on, C2 key =  36;WhichDrum: B ; velocity: 0
@75600 , @3.9863372093023255 Channel: 4 
Note on, B1 key =  35;WhichDrum: T1 ; velocity: 127
@75660 , @3.9895009689922483 Channel: 4 
Note on, B1 key =  35;WhichDrum: T1 ; velocity: 0
@75660 , @3.9895009689922483 Channel: 4 
Note on, A1 key =  33;WhichDrum: T3 ; velocity: 127
@75720 , @3.9926647286821706 Channel: 4 
Note on, A1 key =  33;WhichDrum: T3 ; velocity: 0
@75720 , @3.9926647286821706 Channel: 4 
Note on, G1 key =  31;WhichDrum: C2 ; velocity: 127
@75780 , @3.995828488372093 Channel: 4 
Note on, G1 key =  31;WhichDrum: C2 ; velocity: 0
@75780 , @3.995828488372093 Channel: 4 
Note on, E1 key =  28;WhichDrum: S ; velocity: 127
@75840 , @3.9989922480620157 Channel: 4 
Note on, E1 key =  28;WhichDrum: S ; velocity: 0
@75840 , @3.9989922480620157 Channel: 4 
Note on, D2 key =  38;WhichDrum: T2 ; velocity: 127
@75900 , @4.002156007751938 Channel: 4 
Note on, D2 key =  38;WhichDrum: T2 ; velocity: 0
@75900 , @4.002156007751938 Channel: 4 
Note on, E2 key =  40;WhichDrum: S ; velocity: 127
@75960 , @4.00531976744186 Channel: 4 
Note on, E2 key =  40;WhichDrum: S ; velocity: 0
@75960 , @4.00531976744186 Channel: 4 
Note on, E1 key =  28;WhichDrum: S ; velocity: 127
@76020 , @4.008483527131783 Channel: 4 
Note on, E1 key =  28;WhichDrum: S ; velocity: 0
@76020 , @4.008483527131783 Channel: 4 
Note on, E2 key =  40;WhichDrum: S ; velocity: 127
@76080 , @4.011647286821705 Channel: 4 
Note on, E2 key =  40;WhichDrum: S ; velocity: 0
@76080 , @4.011647286821705 Channel: 4 
Note on, E1 key =  28;WhichDrum: S ; velocity: 127
@76140 , @4.014811046511628 Channel: 4 
Note on, E1 key =  28;WhichDrum: S ; velocity: 0
@76140 , @4.014811046511628 Channel: 4 
Note on, E1 key =  28;WhichDrum: S ; velocity: 127
@76200 , @4.017974806201551 Channel: 4 
Note on, E1 key =  28;WhichDrum: S ; velocity: 0
@76200 , @4.017974806201551 Channel: 4 
Note on, E2 key =  40;WhichDrum: S ; velocity: 127
@76260 , @4.021138565891473 Channel: 4 
Note on, E2 key =  40;WhichDrum: S ; velocity: 0
@76260 , @4.021138565891473 Channel: 4 
Note on, E1 key =  28;WhichDrum: S ; velocity: 127
@76320 , @4.024302325581395 Channel: 4 
Note on, E1 key =  28;WhichDrum: S ; velocity: 0
@76320 , @4.024302325581395 Channel: 4 
Note on, D2 key =  38;WhichDrum: T2 ; velocity: 127
@76380 , @4.0274660852713176 Channel: 4 
Note on, D2 key =  38;WhichDrum: T2 ; velocity: 0
@76380 , @4.0274660852713176 Channel: 4 
Note on, E2 key =  40;WhichDrum: S ; velocity: 127
@76440 , @4.030629844961241 Channel: 4 
Note on, E2 key =  40;WhichDrum: S ; velocity: 0
@76440 , @4.030629844961241 Channel: 4 
Note on, E1 key =  28;WhichDrum: S ; velocity: 127
@76500 , @4.033793604651163 Channel: 4 
Note on, E1 key =  28;WhichDrum: S ; velocity: 0
@76500 , @4.033793604651163 Channel: 4 
Note on, E2 key =  40;WhichDrum: S ; velocity: 127
@76560 , @4.036957364341085 Channel: 4 
Note on, E2 key =  40;WhichDrum: S ; velocity: 0
@76560 , @4.036957364341085 Channel: 4 
Note on, E1 key =  28;WhichDrum: S ; velocity: 127
@76620 , @4.040121124031008 Channel: 4 
Note on, E1 key =  28;WhichDrum: S ; velocity: 0
@76620 , @4.040121124031008 Channel: 4 
Note on, E1 key =  28;WhichDrum: S ; velocity: 127
@76680 , @4.04328488372093 Channel: 4 
Note on, E1 key =  28;WhichDrum: S ; velocity: 0
@76680 , @4.04328488372093 Channel: 4 
Note on, E2 key =  40;WhichDrum: S ; velocity: 127
@76740 , @4.046448643410852 Channel: 4 
Note on, E2 key =  40;WhichDrum: S ; velocity: 0
@76740 , @4.046448643410852 Channel: 4 
Note on, E1 key =  28;WhichDrum: S ; velocity: 127
@76800 , @4.049612403100776 Channel: 4 
Note on, E1 key =  28;WhichDrum: S ; velocity: 0
@76800 , @4.049612403100776 Channel: 4 
Note on, C#2 key =  37;WhichDrum: T3 ; velocity: 127
@76860 , @4.052776162790698 Channel: 4 
Note on, C#2 key =  37;WhichDrum: T3 ; velocity: 0
@76860 , @4.052776162790698 Channel: 4 
Note on, E2 key =  40;WhichDrum: S ; velocity: 127
@76920 , @4.05593992248062 Channel: 4 
Note on, E2 key =  40;WhichDrum: S ; velocity: 0
@76920 , @4.05593992248062 Channel: 4 
Note on, E1 key =  28;WhichDrum: S ; velocity: 127
@76980 , @4.059103682170543 Channel: 4 
Note on, E1 key =  28;WhichDrum: S ; velocity: 0
@76980 , @4.059103682170543 Channel: 4 
Note on, E2 key =  40;WhichDrum: S ; velocity: 127
@77040 , @4.062267441860465 Channel: 4 
Note on, E2 key =  40;WhichDrum: S ; velocity: 0
@77040 , @4.062267441860465 Channel: 4 
Note on, E1 key =  28;WhichDrum: S ; velocity: 127
@77100 , @4.065431201550387 Channel: 4 
Note on, E1 key =  28;WhichDrum: S ; velocity: 0
@77100 , @4.065431201550387 Channel: 4 
Note on, E1 key =  28;WhichDrum: S ; velocity: 127
@77160 , @4.0685949612403105 Channel: 4 
Note on, E1 key =  28;WhichDrum: S ; velocity: 0
@77160 , @4.0685949612403105 Channel: 4 
Note on, E2 key =  40;WhichDrum: S ; velocity: 127
@77220 , @4.071758720930233 Channel: 4 
Note on, E2 key =  40;WhichDrum: S ; velocity: 0
@77220 , @4.071758720930233 Channel: 4 
Note on, E1 key =  28;WhichDrum: S ; velocity: 127
@77280 , @4.074922480620155 Channel: 4 
Note on, E1 key =  28;WhichDrum: S ; velocity: 0
@77280 , @4.074922480620155 Channel: 4 
Note on, G1 key =  31;WhichDrum: C2 ; velocity: 127
@77340 , @4.0780862403100775 Channel: 4 
Note on, G1 key =  31;WhichDrum: C2 ; velocity: 0
@77340 , @4.0780862403100775 Channel: 4 
Note on, F#1 key =  30;WhichDrum: C1 ; velocity: 127
@77400 , @4.08125 Channel: 4 
Note on, F#1 key =  30;WhichDrum: C1 ; velocity: 0
@77400 , @4.08125 Channel: 4 
Note on, E1 key =  28;WhichDrum: S ; velocity: 127
@77460 , @4.084413759689923 Channel: 4 
Note on, E1 key =  28;WhichDrum: S ; velocity: 0
@77460 , @4.084413759689923 Channel: 4 
Note on, C2 key =  36;WhichDrum: B ; velocity: 127
@77520 , @4.087577519379845 Channel: 4 
Note on, C2 key =  36;WhichDrum: B ; velocity: 0
@77520 , @4.087577519379845 Channel: 4 
Note on, B1 key =  35;WhichDrum: T1 ; velocity: 127
@77580 , @4.090741279069768 Channel: 4 
Note on, B1 key =  35;WhichDrum: T1 ; velocity: 0
@77580 , @4.090741279069768 Channel: 4 
Note on, A1 key =  33;WhichDrum: T3 ; velocity: 127
@77640 , @4.09390503875969 Channel: 4 
Note on, A1 key =  33;WhichDrum: T3 ; velocity: 0
@77640 , @4.09390503875969 Channel: 4 
Note on, G1 key =  31;WhichDrum: C2 ; velocity: 127
@77700 , @4.097068798449612 Channel: 4 
Note on, G1 key =  31;WhichDrum: C2 ; velocity: 0
@77700 , @4.097068798449612 Channel: 4 
Note on, F#1 key =  30;WhichDrum: C1 ; velocity: 127
@77760 , @4.100232558139535 Channel: 4 
Note on, F#1 key =  30;WhichDrum: C1 ; velocity: 0
@77760 , @4.100232558139535 Channel: 4 
Note on, G1 key =  31;WhichDrum: C2 ; velocity: 127
@77820 , @4.103396317829458 Channel: 4 
Note on, G1 key =  31;WhichDrum: C2 ; velocity: 0
@77820 , @4.103396317829458 Channel: 4 
Note on, F#1 key =  30;WhichDrum: C1 ; velocity: 127
@77880 , @4.10656007751938 Channel: 4 
Note on, F#1 key =  30;WhichDrum: C1 ; velocity: 0
@77880 , @4.10656007751938 Channel: 4 
Note on, E1 key =  28;WhichDrum: S ; velocity: 127
@77940 , @4.109723837209303 Channel: 4 
Note on, E1 key =  28;WhichDrum: S ; velocity: 0
@77940 , @4.109723837209303 Channel: 4 
Note on, C2 key =  36;WhichDrum: B ; velocity: 127
@78000 , @4.112887596899225 Channel: 4 
Note on, C2 key =  36;WhichDrum: B ; velocity: 0
@78000 , @4.112887596899225 Channel: 4 
Note on, B1 key =  35;WhichDrum: T1 ; velocity: 127
@78060 , @4.116051356589147 Channel: 4 
Note on, B1 key =  35;WhichDrum: T1 ; velocity: 0
@78060 , @4.116051356589147 Channel: 4 
Note on, A1 key =  33;WhichDrum: T3 ; velocity: 127
@78120 , @4.1192151162790696 Channel: 4 
Note on, A1 key =  33;WhichDrum: T3 ; velocity: 0
@78120 , @4.1192151162790696 Channel: 4 
Note on, G1 key =  31;WhichDrum: C2 ; velocity: 127
@78180 , @4.122378875968993 Channel: 4 
Note on, G1 key =  31;WhichDrum: C2 ; velocity: 0
@78180 , @4.122378875968993 Channel: 4 
Note on, F#1 key =  30;WhichDrum: C1 ; velocity: 127
@78240 , @4.125542635658915 Channel: 4 
Note on, F#1 key =  30;WhichDrum: C1 ; velocity: 0
@78240 , @4.125542635658915 Channel: 4 
Note on, A1 key =  33;WhichDrum: T3 ; velocity: 127
@78720 , @4.150852713178295 Channel: 4 
Note on, A1 key =  33;WhichDrum: T3 ; velocity: 0
@78720 , @4.150852713178295 Channel: 4 
Note on, A1 key =  33;WhichDrum: T3 ; velocity: 127
@78840 , @4.15718023255814 Channel: 4 
Note on, A1 key =  33;WhichDrum: T3 ; velocity: 0
@79560 , @4.19514534883721 Channel: 4 
Note on, A1 key =  33;WhichDrum: T3 ; velocity: 127
@79620 , @4.198309108527132 Channel: 4 
Note on, A1 key =  33;WhichDrum: T3 ; velocity: 0
@79620 , @4.198309108527132 Channel: 4 
Note on, A1 key =  33;WhichDrum: T3 ; velocity: 127
@79680 , @4.201472868217055 Channel: 4 
Note on, A1 key =  33;WhichDrum: T3 ; velocity: 0
@79680 , @4.201472868217055 Channel: 4 
Note on, A1 key =  33;WhichDrum: T3 ; velocity: 127
@79800 , @4.207800387596899 Channel: 4 
Note on, A1 key =  33;WhichDrum: T3 ; velocity: 0
@80520 , @4.24576550387597 Channel: 4 
Note on, A1 key =  33;WhichDrum: T3 ; velocity: 127
@80580 , @4.248929263565892 Channel: 4 
Note on, A1 key =  33;WhichDrum: T3 ; velocity: 0
@80580 , @4.248929263565892 Channel: 4 
Note on, A1 key =  33;WhichDrum: T3 ; velocity: 127
@80640 , @4.2520930232558145 Channel: 4 
Note on, A1 key =  33;WhichDrum: T3 ; velocity: 0
@80640 , @4.2520930232558145 Channel: 4 
Note on, A1 key =  33;WhichDrum: T3 ; velocity: 127
@80760 , @4.258420542635659 Channel: 4 
Note on, A1 key =  33;WhichDrum: T3 ; velocity: 0
@81600 , @4.302713178294574 Channel: 4 
Note on, A1 key =  33;WhichDrum: T3 ; velocity: 127
@81660 , @4.305876937984496 Channel: 4 
Note on, A1 key =  33;WhichDrum: T3 ; velocity: 0
@81660 , @4.305876937984496 Channel: 4 
Note on, A1 key =  33;WhichDrum: T3 ; velocity: 127
@81720 , @4.309040697674418 Channel: 4 
Note on, A1 key =  33;WhichDrum: T3 ; velocity: 0
@81720 , @4.309040697674418 Channel: 4 
Note on, A1 key =  33;WhichDrum: T3 ; velocity: 127
@81780 , @4.3122044573643405 Channel: 4 
Note on, A1 key =  33;WhichDrum: T3 ; velocity: 0
@81780 , @4.3122044573643405 Channel: 4 
Note on, A1 key =  33;WhichDrum: T3 ; velocity: 127
@81840 , @4.315368217054264 Channel: 4 
Note on, A1 key =  33;WhichDrum: T3 ; velocity: 0
@81840 , @4.315368217054264 Channel: 4 
Note on, A1 key =  33;WhichDrum: T3 ; velocity: 127
@81900 , @4.318531976744186 Channel: 4 
Note on, A1 key =  33;WhichDrum: T3 ; velocity: 0
@81900 , @4.318531976744186 Channel: 4 
Note on, A1 key =  33;WhichDrum: T3 ; velocity: 127
@81960 , @4.321695736434108 Channel: 4 
Note on, A1 key =  33;WhichDrum: T3 ; velocity: 0
@81960 , @4.321695736434108 Channel: 4 
Note on, A1 key =  33;WhichDrum: T3 ; velocity: 127
@82020 , @4.324859496124031 Channel: 4 
Note on, A1 key =  33;WhichDrum: T3 ; velocity: 0
@82020 , @4.324859496124031 Channel: 4 
Note on, A1 key =  33;WhichDrum: T3 ; velocity: 127
@82080 , @4.328023255813953 Channel: 4 
Note on, A1 key =  33;WhichDrum: T3 ; velocity: 0
@82080 , @4.328023255813953 Channel: 4 
Note on, A1 key =  33;WhichDrum: T3 ; velocity: 127
@82140 , @4.331187015503875 Channel: 4 
Note on, A1 key =  33;WhichDrum: T3 ; velocity: 0
@82140 , @4.331187015503875 Channel: 4 
Note on, A1 key =  33;WhichDrum: T3 ; velocity: 127
@82200 , @4.334350775193799 Channel: 4 
Note on, A1 key =  33;WhichDrum: T3 ; velocity: 0
@82200 , @4.334350775193799 Channel: 4 
Note on, A2 key =  45;WhichDrum: T3 ; velocity: 127
@82260 , @4.337514534883721 Channel: 4 
Note on, A2 key =  45;WhichDrum: T3 ; velocity: 0
@82260 , @4.337514534883721 Channel: 4 
Note on, A1 key =  33;WhichDrum: T3 ; velocity: 127
@82320 , @4.340678294573643 Channel: 4 
Note on, A1 key =  33;WhichDrum: T3 ; velocity: 0
@82320 , @4.340678294573643 Channel: 4 
Note on, A2 key =  45;WhichDrum: T3 ; velocity: 127
@82380 , @4.343842054263566 Channel: 4 
Note on, A2 key =  45;WhichDrum: T3 ; velocity: 0
@82380 , @4.343842054263566 Channel: 4 
Note on, A2 key =  45;WhichDrum: T3 ; velocity: 127
@82440 , @4.347005813953488 Channel: 4 
Note on, A2 key =  45;WhichDrum: T3 ; velocity: 0
@82440 , @4.347005813953488 Channel: 4 
Note on, A1 key =  33;WhichDrum: T3 ; velocity: 127
@82500 , @4.350169573643411 Channel: 4 
Note on, A1 key =  33;WhichDrum: T3 ; velocity: 0
@82500 , @4.350169573643411 Channel: 4 
Note on, A1 key =  33;WhichDrum: T3 ; velocity: 127
@82560 , @4.3533333333333335 Channel: 4 
Note on, A1 key =  33;WhichDrum: T3 ; velocity: 0
@82560 , @4.3533333333333335 Channel: 4 
Note on, A1 key =  33;WhichDrum: T3 ; velocity: 127
@82620 , @4.356497093023256 Channel: 4 
Note on, A1 key =  33;WhichDrum: T3 ; velocity: 0
@82620 , @4.356497093023256 Channel: 4 
Note on, A1 key =  33;WhichDrum: T3 ; velocity: 127
@82675 , @4.359397206072352 Channel: 4 
Note on, A1 key =  33;WhichDrum: T3 ; velocity: 0
@82675 , @4.359397206072352 Channel: 4 
Note on, G2 key =  43;WhichDrum: C2 ; velocity: 75
@82680 , @4.359660852713178 Channel: 4 
Note on, G2 key =  43;WhichDrum: C2 ; velocity: 0
@82680 , @4.359660852713178 Channel: 4 
Note on, A2 key =  45;WhichDrum: T3 ; velocity: 127
@82800 , @4.365988372093023 Channel: 4 
Note on, A2 key =  45;WhichDrum: T3 ; velocity: 0
@82800 , @4.365988372093023 Channel: 4 
Note on, A1 key =  33;WhichDrum: T3 ; velocity: 127
@82860 , @4.369152131782946 Channel: 4 
Note on, A1 key =  33;WhichDrum: T3 ; velocity: 0
@82860 , @4.369152131782946 Channel: 4 
Note on, A1 key =  33;WhichDrum: T3 ; velocity: 127
@82915 , @4.372052244832042 Channel: 4 
Note on, A1 key =  33;WhichDrum: T3 ; velocity: 0
@82915 , @4.372052244832042 Channel: 4 
Note on, G2 key =  43;WhichDrum: C2 ; velocity: 75
@82920 , @4.372315891472868 Channel: 4 
Note on, G2 key =  43;WhichDrum: C2 ; velocity: 0
@82920 , @4.372315891472868 Channel: 4 
Note on, A2 key =  45;WhichDrum: T3 ; velocity: 127
@82980 , @4.375479651162791 Channel: 4 
Note on, A2 key =  45;WhichDrum: T3 ; velocity: 0
@82980 , @4.375479651162791 Channel: 4 
Note on, A1 key =  33;WhichDrum: T3 ; velocity: 127
@83100 , @4.381807170542635 Channel: 4 
Note on, A1 key =  33;WhichDrum: T3 ; velocity: 0
@83100 , @4.381807170542635 Channel: 4 
Note on, A1 key =  33;WhichDrum: T3 ; velocity: 127
@83160 , @4.384970930232558 Channel: 4 
Note on, A1 key =  33;WhichDrum: T3 ; velocity: 0
@83160 , @4.384970930232558 Channel: 4 
Note on, F2 key =  41;WhichDrum: HH ; velocity: 127
@83220 , @4.388134689922481 Channel: 4 
Note on, F2 key =  41;WhichDrum: HH ; velocity: 0
@83220 , @4.388134689922481 Channel: 4 
Note on, E2 key =  40;WhichDrum: S ; velocity: 127
@83280 , @4.391298449612403 Channel: 4 
Note on, E2 key =  40;WhichDrum: S ; velocity: 0
@83280 , @4.391298449612403 Channel: 4 
Note on, G2 key =  43;WhichDrum: C2 ; velocity: 127
@83340 , @4.394462209302326 Channel: 4 
Note on, G2 key =  43;WhichDrum: C2 ; velocity: 0
@83340 , @4.394462209302326 Channel: 4 
Note on, E2 key =  40;WhichDrum: S ; velocity: 127
@83400 , @4.397625968992248 Channel: 4 
Note on, E2 key =  40;WhichDrum: S ; velocity: 0
@83400 , @4.397625968992248 Channel: 4 
Note on, C3 key =  48;WhichDrum: B ; velocity: 127
@83460 , @4.40078972868217 Channel: 4 
Note on, C3 key =  48;WhichDrum: B ; velocity: 0
@83460 , @4.40078972868217 Channel: 4 
Note on, A2 key =  45;WhichDrum: T3 ; velocity: 127
@83520 , @4.403953488372093 Channel: 4 
Note on, A2 key =  45;WhichDrum: T3 ; velocity: 0
@83520 , @4.403953488372093 Channel: 4 
Note on, A1 key =  33;WhichDrum: T3 ; velocity: 127
@83580 , @4.407117248062016 Channel: 4 
Note on, A1 key =  33;WhichDrum: T3 ; velocity: 0
@83580 , @4.407117248062016 Channel: 4 
Note on, A1 key =  33;WhichDrum: T3 ; velocity: 127
@83635 , @4.4100173611111115 Channel: 4 
Note on, A1 key =  33;WhichDrum: T3 ; velocity: 0
@83635 , @4.4100173611111115 Channel: 4 
Note on, G2 key =  43;WhichDrum: C2 ; velocity: 75
@83640 , @4.410281007751938 Channel: 4 
Note on, G2 key =  43;WhichDrum: C2 ; velocity: 0
@83640 , @4.410281007751938 Channel: 4 
Note on, A2 key =  45;WhichDrum: T3 ; velocity: 127
@83760 , @4.416608527131783 Channel: 4 
Note on, A2 key =  45;WhichDrum: T3 ; velocity: 0
@83760 , @4.416608527131783 Channel: 4 
Note on, A1 key =  33;WhichDrum: T3 ; velocity: 127
@83820 , @4.419772286821705 Channel: 4 
Note on, A1 key =  33;WhichDrum: T3 ; velocity: 0
@83820 , @4.419772286821705 Channel: 4 
Note on, A1 key =  33;WhichDrum: T3 ; velocity: 127
@83875 , @4.422672399870801 Channel: 4 
Note on, A1 key =  33;WhichDrum: T3 ; velocity: 0
@83875 , @4.422672399870801 Channel: 4 
Note on, G2 key =  43;WhichDrum: C2 ; velocity: 75
@83880 , @4.422936046511628 Channel: 4 
Note on, G2 key =  43;WhichDrum: C2 ; velocity: 0
@83880 , @4.422936046511628 Channel: 4 
Note on, A2 key =  45;WhichDrum: T3 ; velocity: 127
@83940 , @4.426099806201551 Channel: 4 
Note on, A2 key =  45;WhichDrum: T3 ; velocity: 0
@83940 , @4.426099806201551 Channel: 4 
Note on, A1 key =  33;WhichDrum: T3 ; velocity: 127
@84060 , @4.432427325581395 Channel: 4 
Note on, A1 key =  33;WhichDrum: T3 ; velocity: 0
@84060 , @4.432427325581395 Channel: 4 
Note on, A1 key =  33;WhichDrum: T3 ; velocity: 127
@84120 , @4.435591085271318 Channel: 4 
Note on, A1 key =  33;WhichDrum: T3 ; velocity: 0
@84120 , @4.435591085271318 Channel: 4 
Note on, F2 key =  41;WhichDrum: HH ; velocity: 127
@84180 , @4.43875484496124 Channel: 4 
Note on, F2 key =  41;WhichDrum: HH ; velocity: 0
@84180 , @4.43875484496124 Channel: 4 
Note on, E2 key =  40;WhichDrum: S ; velocity: 127
@84240 , @4.441918604651163 Channel: 4 
Note on, E2 key =  40;WhichDrum: S ; velocity: 0
@84240 , @4.441918604651163 Channel: 4 
Note on, G2 key =  43;WhichDrum: C2 ; velocity: 127
@84300 , @4.4450823643410855 Channel: 4 
Note on, G2 key =  43;WhichDrum: C2 ; velocity: 0
@84300 , @4.4450823643410855 Channel: 4 
Note on, E2 key =  40;WhichDrum: S ; velocity: 127
@84360 , @4.448246124031008 Channel: 4 
Note on, E2 key =  40;WhichDrum: S ; velocity: 0
@84360 , @4.448246124031008 Channel: 4 
Note on, C3 key =  48;WhichDrum: B ; velocity: 127
@84420 , @4.45140988372093 Channel: 4 
Note on, C3 key =  48;WhichDrum: B ; velocity: 0
@84420 , @4.45140988372093 Channel: 4 
Note on, A2 key =  45;WhichDrum: T3 ; velocity: 127
@84480 , @4.4545736434108525 Channel: 4 
Note on, A2 key =  45;WhichDrum: T3 ; velocity: 0
@84480 , @4.4545736434108525 Channel: 4 
Note on, A1 key =  33;WhichDrum: T3 ; velocity: 127
@84540 , @4.457737403100776 Channel: 4 
Note on, A1 key =  33;WhichDrum: T3 ; velocity: 0
@84540 , @4.457737403100776 Channel: 4 
Note on, A1 key =  33;WhichDrum: T3 ; velocity: 127
@84595 , @4.460637516149871 Channel: 4 
Note on, A1 key =  33;WhichDrum: T3 ; velocity: 0
@84595 , @4.460637516149871 Channel: 4 
Note on, G2 key =  43;WhichDrum: C2 ; velocity: 75
@84600 , @4.460901162790698 Channel: 4 
Note on, G2 key =  43;WhichDrum: C2 ; velocity: 0
@84600 , @4.460901162790698 Channel: 4 
Note on, A2 key =  45;WhichDrum: T3 ; velocity: 127
@84720 , @4.467228682170543 Channel: 4 
Note on, A2 key =  45;WhichDrum: T3 ; velocity: 0
@84720 , @4.467228682170543 Channel: 4 
Note on, A1 key =  33;WhichDrum: T3 ; velocity: 127
@84780 , @4.470392441860465 Channel: 4 
Note on, A1 key =  33;WhichDrum: T3 ; velocity: 0
@84780 , @4.470392441860465 Channel: 4 
Note on, A1 key =  33;WhichDrum: T3 ; velocity: 127
@84835 , @4.473292554909561 Channel: 4 
Note on, A1 key =  33;WhichDrum: T3 ; velocity: 0
@84835 , @4.473292554909561 Channel: 4 
Note on, G2 key =  43;WhichDrum: C2 ; velocity: 75
@84840 , @4.473556201550387 Channel: 4 
Note on, G2 key =  43;WhichDrum: C2 ; velocity: 0
@84840 , @4.473556201550387 Channel: 4 
Note on, A2 key =  45;WhichDrum: T3 ; velocity: 127
@84900 , @4.476719961240311 Channel: 4 
Note on, A2 key =  45;WhichDrum: T3 ; velocity: 0
@84900 , @4.476719961240311 Channel: 4 
Note on, A1 key =  33;WhichDrum: T3 ; velocity: 127
@85020 , @4.483047480620155 Channel: 4 
Note on, A1 key =  33;WhichDrum: T3 ; velocity: 0
@85020 , @4.483047480620155 Channel: 4 
Note on, A1 key =  33;WhichDrum: T3 ; velocity: 127
@85080 , @4.486211240310078 Channel: 4 
Note on, A1 key =  33;WhichDrum: T3 ; velocity: 0
@85080 , @4.486211240310078 Channel: 4 
Note on, F2 key =  41;WhichDrum: HH ; velocity: 127
@85140 , @4.489375 Channel: 4 
Note on, F2 key =  41;WhichDrum: HH ; velocity: 0
@85140 , @4.489375 Channel: 4 
Note on, E2 key =  40;WhichDrum: S ; velocity: 127
@85200 , @4.492538759689922 Channel: 4 
Note on, E2 key =  40;WhichDrum: S ; velocity: 0
@85200 , @4.492538759689922 Channel: 4 
Note on, G2 key =  43;WhichDrum: C2 ; velocity: 127
@85260 , @4.495702519379845 Channel: 4 
Note on, G2 key =  43;WhichDrum: C2 ; velocity: 0
@85260 , @4.495702519379845 Channel: 4 
Note on, E2 key =  40;WhichDrum: S ; velocity: 127
@85320 , @4.498866279069768 Channel: 4 
Note on, E2 key =  40;WhichDrum: S ; velocity: 0
@85320 , @4.498866279069768 Channel: 4 
Note on, C3 key =  48;WhichDrum: B ; velocity: 127
@85380 , @4.50203003875969 Channel: 4 
Note on, C3 key =  48;WhichDrum: B ; velocity: 0
@85380 , @4.50203003875969 Channel: 4 
Note on, A2 key =  45;WhichDrum: T3 ; velocity: 127
@85440 , @4.505193798449612 Channel: 4 
Note on, A2 key =  45;WhichDrum: T3 ; velocity: 0
@85440 , @4.505193798449612 Channel: 4 
Note on, A1 key =  33;WhichDrum: T3 ; velocity: 127
@85500 , @4.508357558139535 Channel: 4 
Note on, A1 key =  33;WhichDrum: T3 ; velocity: 0
@85500 , @4.508357558139535 Channel: 4 
Note on, A1 key =  33;WhichDrum: T3 ; velocity: 127
@85555 , @4.5112576711886305 Channel: 4 
Note on, A1 key =  33;WhichDrum: T3 ; velocity: 0
@85555 , @4.5112576711886305 Channel: 4 
Note on, G2 key =  43;WhichDrum: C2 ; velocity: 75
@85560 , @4.511521317829458 Channel: 4 
Note on, G2 key =  43;WhichDrum: C2 ; velocity: 0
@85560 , @4.511521317829458 Channel: 4 
Note on, A2 key =  45;WhichDrum: T3 ; velocity: 127
@85680 , @4.517848837209303 Channel: 4 
Note on, A2 key =  45;WhichDrum: T3 ; velocity: 0
@85680 , @4.517848837209303 Channel: 4 
Note on, A1 key =  33;WhichDrum: T3 ; velocity: 127
@85740 , @4.521012596899225 Channel: 4 
Note on, A1 key =  33;WhichDrum: T3 ; velocity: 0
@85740 , @4.521012596899225 Channel: 4 
Note on, A1 key =  33;WhichDrum: T3 ; velocity: 127
@85795 , @4.523912709948321 Channel: 4 
Note on, A1 key =  33;WhichDrum: T3 ; velocity: 0
@85795 , @4.523912709948321 Channel: 4 
Note on, G2 key =  43;WhichDrum: C2 ; velocity: 75
@85800 , @4.524176356589147 Channel: 4 
Note on, G2 key =  43;WhichDrum: C2 ; velocity: 0
@85800 , @4.524176356589147 Channel: 4 
Note on, A2 key =  45;WhichDrum: T3 ; velocity: 127
@85860 , @4.52734011627907 Channel: 4 
Note on, A2 key =  45;WhichDrum: T3 ; velocity: 0
@85860 , @4.52734011627907 Channel: 4 
Note on, A1 key =  33;WhichDrum: T3 ; velocity: 127
@85980 , @4.533667635658915 Channel: 4 
Note on, A1 key =  33;WhichDrum: T3 ; velocity: 0
@85980 , @4.533667635658915 Channel: 4 
Note on, A1 key =  33;WhichDrum: T3 ; velocity: 127
@86040 , @4.5368313953488375 Channel: 4 
Note on, A1 key =  33;WhichDrum: T3 ; velocity: 0
@86040 , @4.5368313953488375 Channel: 4 
Note on, F2 key =  41;WhichDrum: HH ; velocity: 127
@86100 , @4.53999515503876 Channel: 4 
Note on, F2 key =  41;WhichDrum: HH ; velocity: 0
@86100 , @4.53999515503876 Channel: 4 
Note on, E2 key =  40;WhichDrum: S ; velocity: 127
@86160 , @4.543158914728682 Channel: 4 
Note on, E2 key =  40;WhichDrum: S ; velocity: 0
@86160 , @4.543158914728682 Channel: 4 
Note on, G2 key =  43;WhichDrum: C2 ; velocity: 127
@86220 , @4.5463226744186045 Channel: 4 
Note on, G2 key =  43;WhichDrum: C2 ; velocity: 0
@86220 , @4.5463226744186045 Channel: 4 
Note on, E2 key =  40;WhichDrum: S ; velocity: 127
@86280 , @4.549486434108528 Channel: 4 
Note on, E2 key =  40;WhichDrum: S ; velocity: 0
@86280 , @4.549486434108528 Channel: 4 
Note on, C3 key =  48;WhichDrum: B ; velocity: 127
@86340 , @4.55265019379845 Channel: 4 
Note on, C3 key =  48;WhichDrum: B ; velocity: 0
@86340 , @4.55265019379845 Channel: 4 
Note on, A2 key =  45;WhichDrum: T3 ; velocity: 127
@86400 , @4.555813953488372 Channel: 4 
Note on, A2 key =  45;WhichDrum: T3 ; velocity: 0
@86400 , @4.555813953488372 Channel: 4 
Note on, E1 key =  28;WhichDrum: S ; velocity: 127
@86520 , @4.562141472868217 Channel: 4 
Note on, E1 key =  28;WhichDrum: S ; velocity: 0
@86760 , @4.574796511627907 Channel: 4 
Note on, E2 key =  40;WhichDrum: S ; velocity: 127
@86880 , @4.581124031007752 Channel: 4 
Note on, E2 key =  40;WhichDrum: S ; velocity: 0
@86880 , @4.581124031007752 Channel: 4 
Note on, E1 key =  28;WhichDrum: S ; velocity: 127
@86940 , @4.584287790697675 Channel: 4 
Note on, E1 key =  28;WhichDrum: S ; velocity: 0
@86940 , @4.584287790697675 Channel: 4 
Note on, E1 key =  28;WhichDrum: S ; velocity: 127
@87000 , @4.587451550387597 Channel: 4 
Note on, E1 key =  28;WhichDrum: S ; velocity: 0
@87000 , @4.587451550387597 Channel: 4 
Note on, E1 key =  28;WhichDrum: S ; velocity: 127
@87060 , @4.59061531007752 Channel: 4 
Note on, E1 key =  28;WhichDrum: S ; velocity: 0
@87060 , @4.59061531007752 Channel: 4 
Note on, E1 key =  28;WhichDrum: S ; velocity: 127
@87120 , @4.593779069767442 Channel: 4 
Note on, E1 key =  28;WhichDrum: S ; velocity: 0
@87120 , @4.593779069767442 Channel: 4 
Note on, G1 key =  31;WhichDrum: C2 ; velocity: 127
@87180 , @4.596942829457364 Channel: 4 
Note on, G1 key =  31;WhichDrum: C2 ; velocity: 0
@87180 , @4.596942829457364 Channel: 4 
Note on, A1 key =  33;WhichDrum: T3 ; velocity: 127
@87240 , @4.600106589147287 Channel: 4 
Note on, A1 key =  33;WhichDrum: T3 ; velocity: 0
@87240 , @4.600106589147287 Channel: 4 
Note on, G1 key =  31;WhichDrum: C2 ; velocity: 127
@87300 , @4.60327034883721 Channel: 4 
Note on, G1 key =  31;WhichDrum: C2 ; velocity: 0
@87300 , @4.60327034883721 Channel: 4 
Note on, A1 key =  33;WhichDrum: T3 ; velocity: 127
@87360 , @4.606434108527132 Channel: 4 
Note on, A1 key =  33;WhichDrum: T3 ; velocity: 0
@87360 , @4.606434108527132 Channel: 4 
Note on, E1 key =  28;WhichDrum: S ; velocity: 127
@87420 , @4.609597868217055 Channel: 4 
Note on, E1 key =  28;WhichDrum: S ; velocity: 0
@87420 , @4.609597868217055 Channel: 4 
Note on, E1 key =  28;WhichDrum: S ; velocity: 127
@87480 , @4.612761627906977 Channel: 4 
Note on, E1 key =  28;WhichDrum: S ; velocity: 0
@87480 , @4.612761627906977 Channel: 4 
Note on, E1 key =  28;WhichDrum: S ; velocity: 127
@87540 , @4.615925387596899 Channel: 4 
Note on, E1 key =  28;WhichDrum: S ; velocity: 0
@87540 , @4.615925387596899 Channel: 4 
Note on, E1 key =  28;WhichDrum: S ; velocity: 127
@87600 , @4.6190891472868225 Channel: 4 
Note on, E1 key =  28;WhichDrum: S ; velocity: 0
@87600 , @4.6190891472868225 Channel: 4 
Note on, E2 key =  40;WhichDrum: S ; velocity: 127
@87660 , @4.622252906976745 Channel: 4 
Note on, E2 key =  40;WhichDrum: S ; velocity: 0
@87660 , @4.622252906976745 Channel: 4 
Note on, D2 key =  38;WhichDrum: T2 ; velocity: 127
@87720 , @4.625416666666667 Channel: 4 
Note on, D2 key =  38;WhichDrum: T2 ; velocity: 0
@87720 , @4.625416666666667 Channel: 4 
Note on, B1 key =  35;WhichDrum: T1 ; velocity: 127
@87780 , @4.6285804263565895 Channel: 4 
Note on, B1 key =  35;WhichDrum: T1 ; velocity: 0
@87780 , @4.6285804263565895 Channel: 4 
Note on, A#1 key =  34;WhichDrum: T2 ; velocity: 127
@87840 , @4.631744186046512 Channel: 4 
Note on, A#1 key =  34;WhichDrum: T2 ; velocity: 0
@87840 , @4.631744186046512 Channel: 4 
Note on, E1 key =  28;WhichDrum: S ; velocity: 127
@87900 , @4.634907945736434 Channel: 4 
Note on, E1 key =  28;WhichDrum: S ; velocity: 0
@87900 , @4.634907945736434 Channel: 4 
Note on, E1 key =  28;WhichDrum: S ; velocity: 127
@87960 , @4.638071705426357 Channel: 4 
Note on, E1 key =  28;WhichDrum: S ; velocity: 0
@87960 , @4.638071705426357 Channel: 4 
Note on, E1 key =  28;WhichDrum: S ; velocity: 127
@88020 , @4.64123546511628 Channel: 4 
Note on, E1 key =  28;WhichDrum: S ; velocity: 0
@88020 , @4.64123546511628 Channel: 4 
Note on, E1 key =  28;WhichDrum: S ; velocity: 127
@88080 , @4.644399224806202 Channel: 4 
Note on, E1 key =  28;WhichDrum: S ; velocity: 0
@88080 , @4.644399224806202 Channel: 4 
Note on, G1 key =  31;WhichDrum: C2 ; velocity: 127
@88140 , @4.647562984496124 Channel: 4 
Note on, G1 key =  31;WhichDrum: C2 ; velocity: 0
@88140 , @4.647562984496124 Channel: 4 
Note on, A1 key =  33;WhichDrum: T3 ; velocity: 127
@88200 , @4.650726744186047 Channel: 4 
Note on, A1 key =  33;WhichDrum: T3 ; velocity: 0
@88200 , @4.650726744186047 Channel: 4 
Note on, G1 key =  31;WhichDrum: C2 ; velocity: 127
@88260 , @4.653890503875969 Channel: 4 
Note on, G1 key =  31;WhichDrum: C2 ; velocity: 0
@88260 , @4.653890503875969 Channel: 4 
Note on, A1 key =  33;WhichDrum: T3 ; velocity: 127
@88320 , @4.657054263565892 Channel: 4 
Note on, A1 key =  33;WhichDrum: T3 ; velocity: 0
@88320 , @4.657054263565892 Channel: 4 
Note on, E1 key =  28;WhichDrum: S ; velocity: 127
@88380 , @4.660218023255815 Channel: 4 
Note on, E1 key =  28;WhichDrum: S ; velocity: 0
@88380 , @4.660218023255815 Channel: 4 
Note on, G1 key =  31;WhichDrum: C2 ; velocity: 127
@88440 , @4.663381782945737 Channel: 4 
Note on, G1 key =  31;WhichDrum: C2 ; velocity: 0
@88440 , @4.663381782945737 Channel: 4 
Note on, A1 key =  33;WhichDrum: T3 ; velocity: 127
@88500 , @4.666545542635659 Channel: 4 
Note on, A1 key =  33;WhichDrum: T3 ; velocity: 0
@88500 , @4.666545542635659 Channel: 4 
Note on, A#1 key =  34;WhichDrum: T2 ; velocity: 127
@88560 , @4.669709302325582 Channel: 4 
Note on, A#1 key =  34;WhichDrum: T2 ; velocity: 0
@88560 , @4.669709302325582 Channel: 4 
Note on, B1 key =  35;WhichDrum: T1 ; velocity: 127
@88620 , @4.672873062015505 Channel: 4 
Note on, B1 key =  35;WhichDrum: T1 ; velocity: 0
@88620 , @4.672873062015505 Channel: 4 
Note on, D2 key =  38;WhichDrum: T2 ; velocity: 127
@88680 , @4.676036821705427 Channel: 4 
Note on, D2 key =  38;WhichDrum: T2 ; velocity: 0
@88680 , @4.676036821705427 Channel: 4 
Note on, D#2 key =  39;WhichDrum: T1 ; velocity: 127
@88740 , @4.6792005813953494 Channel: 4 
Note on, D#2 key =  39;WhichDrum: T1 ; velocity: 0
@88740 , @4.6792005813953494 Channel: 4 
Note on, E2 key =  40;WhichDrum: S ; velocity: 127
@88800 , @4.682364341085272 Channel: 4 
Note on, E2 key =  40;WhichDrum: S ; velocity: 0
@88800 , @4.682364341085272 Channel: 4 
Note on, E1 key =  28;WhichDrum: S ; velocity: 127
@88860 , @4.685528100775194 Channel: 4 
Note on, E1 key =  28;WhichDrum: S ; velocity: 0
@88860 , @4.685528100775194 Channel: 4 
Note on, E1 key =  28;WhichDrum: S ; velocity: 127
@88920 , @4.688691860465116 Channel: 4 
Note on, E1 key =  28;WhichDrum: S ; velocity: 0
@88920 , @4.688691860465116 Channel: 4 
Note on, E1 key =  28;WhichDrum: S ; velocity: 127
@88980 , @4.69185562015504 Channel: 4 
Note on, E1 key =  28;WhichDrum: S ; velocity: 0
@88980 , @4.69185562015504 Channel: 4 
Note on, E1 key =  28;WhichDrum: S ; velocity: 127
@89040 , @4.695019379844961 Channel: 4 
Note on, E1 key =  28;WhichDrum: S ; velocity: 0
@89040 , @4.695019379844961 Channel: 4 
Note on, G1 key =  31;WhichDrum: C2 ; velocity: 127
@89100 , @4.698183139534883 Channel: 4 
Note on, G1 key =  31;WhichDrum: C2 ; velocity: 0
@89100 , @4.698183139534883 Channel: 4 
Note on, A1 key =  33;WhichDrum: T3 ; velocity: 127
@89160 , @4.701346899224806 Channel: 4 
Note on, A1 key =  33;WhichDrum: T3 ; velocity: 0
@89160 , @4.701346899224806 Channel: 4 
Note on, G1 key =  31;WhichDrum: C2 ; velocity: 127
@89220 , @4.704510658914728 Channel: 4 
Note on, G1 key =  31;WhichDrum: C2 ; velocity: 0
@89220 , @4.704510658914728 Channel: 4 
Note on, A1 key =  33;WhichDrum: T3 ; velocity: 127
@89280 , @4.707674418604651 Channel: 4 
Note on, A1 key =  33;WhichDrum: T3 ; velocity: 0
@89280 , @4.707674418604651 Channel: 4 
Note on, E1 key =  28;WhichDrum: S ; velocity: 127
@89340 , @4.710838178294574 Channel: 4 
Note on, E1 key =  28;WhichDrum: S ; velocity: 0
@89340 , @4.710838178294574 Channel: 4 
Note on, E1 key =  28;WhichDrum: S ; velocity: 127
@89400 , @4.714001937984496 Channel: 4 
Note on, E1 key =  28;WhichDrum: S ; velocity: 0
@89400 , @4.714001937984496 Channel: 4 
Note on, E1 key =  28;WhichDrum: S ; velocity: 127
@89460 , @4.717165697674418 Channel: 4 
Note on, E1 key =  28;WhichDrum: S ; velocity: 0
@89460 , @4.717165697674418 Channel: 4 
Note on, E1 key =  28;WhichDrum: S ; velocity: 127
@89520 , @4.720329457364341 Channel: 4 
Note on, E1 key =  28;WhichDrum: S ; velocity: 0
@89520 , @4.720329457364341 Channel: 4 
Note on, E2 key =  40;WhichDrum: S ; velocity: 127
@89580 , @4.723493217054264 Channel: 4 
Note on, E2 key =  40;WhichDrum: S ; velocity: 0
@89580 , @4.723493217054264 Channel: 4 
Note on, D2 key =  38;WhichDrum: T2 ; velocity: 127
@89640 , @4.726656976744186 Channel: 4 
Note on, D2 key =  38;WhichDrum: T2 ; velocity: 0
@89640 , @4.726656976744186 Channel: 4 
Note on, B1 key =  35;WhichDrum: T1 ; velocity: 127
@89700 , @4.7298207364341085 Channel: 4 
Note on, B1 key =  35;WhichDrum: T1 ; velocity: 0
@89700 , @4.7298207364341085 Channel: 4 
Note on, A#1 key =  34;WhichDrum: T2 ; velocity: 127
@89760 , @4.732984496124031 Channel: 4 
Note on, A#1 key =  34;WhichDrum: T2 ; velocity: 0
@89760 , @4.732984496124031 Channel: 4 
Note on, E1 key =  28;WhichDrum: S ; velocity: 127
@89820 , @4.736148255813953 Channel: 4 
Note on, E1 key =  28;WhichDrum: S ; velocity: 0
@89820 , @4.736148255813953 Channel: 4 
Note on, E1 key =  28;WhichDrum: S ; velocity: 127
@89880 , @4.7393120155038755 Channel: 4 
Note on, E1 key =  28;WhichDrum: S ; velocity: 0
@89880 , @4.7393120155038755 Channel: 4 
Note on, E1 key =  28;WhichDrum: S ; velocity: 127
@89940 , @4.742475775193799 Channel: 4 
Note on, E1 key =  28;WhichDrum: S ; velocity: 0
@89940 , @4.742475775193799 Channel: 4 
Note on, E1 key =  28;WhichDrum: S ; velocity: 127
@90000 , @4.745639534883721 Channel: 4 
Note on, E1 key =  28;WhichDrum: S ; velocity: 0
@90000 , @4.745639534883721 Channel: 4 
Note on, G1 key =  31;WhichDrum: C2 ; velocity: 127
@90060 , @4.748803294573643 Channel: 4 
Note on, G1 key =  31;WhichDrum: C2 ; velocity: 0
@90060 , @4.748803294573643 Channel: 4 
Note on, A1 key =  33;WhichDrum: T3 ; velocity: 127
@90120 , @4.751967054263566 Channel: 4 
Note on, A1 key =  33;WhichDrum: T3 ; velocity: 0
@90120 , @4.751967054263566 Channel: 4 
Note on, G1 key =  31;WhichDrum: C2 ; velocity: 127
@90180 , @4.755130813953488 Channel: 4 
Note on, G1 key =  31;WhichDrum: C2 ; velocity: 0
@90180 , @4.755130813953488 Channel: 4 
Note on, A1 key =  33;WhichDrum: T3 ; velocity: 127
@90240 , @4.75829457364341 Channel: 4 
Note on, A1 key =  33;WhichDrum: T3 ; velocity: 0
@90240 , @4.75829457364341 Channel: 4 
Note on, E1 key =  28;WhichDrum: S ; velocity: 127
@90300 , @4.761458333333334 Channel: 4 
Note on, E1 key =  28;WhichDrum: S ; velocity: 0
@90300 , @4.761458333333334 Channel: 4 
Note on, A1 key =  33;WhichDrum: T3 ; velocity: 127
@90330 , @4.763040213178295 Channel: 4 
Note on, A1 key =  33;WhichDrum: T3 ; velocity: 0
@90330 , @4.763040213178295 Channel: 4 
Note on, B1 key =  35;WhichDrum: T1 ; velocity: 127
@90360 , @4.764622093023256 Channel: 4 
Note on, B1 key =  35;WhichDrum: T1 ; velocity: 0
@90360 , @4.764622093023256 Channel: 4 
Note on, D2 key =  38;WhichDrum: T2 ; velocity: 127
@90420 , @4.767785852713178 Channel: 4 
Note on, D2 key =  38;WhichDrum: T2 ; velocity: 0
@90420 , @4.767785852713178 Channel: 4 
Note on, B1 key =  35;WhichDrum: T1 ; velocity: 127
@90480 , @4.770949612403101 Channel: 4 
Note on, B1 key =  35;WhichDrum: T1 ; velocity: 0
@90480 , @4.770949612403101 Channel: 4 
Note on, E2 key =  40;WhichDrum: S ; velocity: 127
@90540 , @4.774113372093023 Channel: 4 
Note on, E2 key =  40;WhichDrum: S ; velocity: 0
@90540 , @4.774113372093023 Channel: 4 
Note on, D2 key =  38;WhichDrum: T2 ; velocity: 127
@90600 , @4.777277131782946 Channel: 4 
Note on, D2 key =  38;WhichDrum: T2 ; velocity: 0
@90600 , @4.777277131782946 Channel: 4 
Note on, B1 key =  35;WhichDrum: T1 ; velocity: 127
@90660 , @4.780440891472868 Channel: 4 
Note on, B1 key =  35;WhichDrum: T1 ; velocity: 0
@90660 , @4.780440891472868 Channel: 4 
Note on, A#1 key =  34;WhichDrum: T2 ; velocity: 127
@90720 , @4.783604651162791 Channel: 4 
Note on, A#1 key =  34;WhichDrum: T2 ; velocity: 0
@90720 , @4.783604651162791 Channel: 4 
Note on, E1 key =  28;WhichDrum: S ; velocity: 127
@90780 , @4.786768410852713 Channel: 4 
Note on, E1 key =  28;WhichDrum: S ; velocity: 0
@90780 , @4.786768410852713 Channel: 4 
Note on, E1 key =  28;WhichDrum: S ; velocity: 127
@90840 , @4.789932170542635 Channel: 4 
Note on, E1 key =  28;WhichDrum: S ; velocity: 0
@90840 , @4.789932170542635 Channel: 4 
Note on, E1 key =  28;WhichDrum: S ; velocity: 127
@90900 , @4.793095930232558 Channel: 4 
Note on, E1 key =  28;WhichDrum: S ; velocity: 0
@90900 , @4.793095930232558 Channel: 4 
Note on, E1 key =  28;WhichDrum: S ; velocity: 127
@90960 , @4.796259689922481 Channel: 4 
Note on, E1 key =  28;WhichDrum: S ; velocity: 0
@90960 , @4.796259689922481 Channel: 4 
Note on, E1 key =  28;WhichDrum: S ; velocity: 127
@91020 , @4.799423449612403 Channel: 4 
Note on, E1 key =  28;WhichDrum: S ; velocity: 0
@91020 , @4.799423449612403 Channel: 4 
Note on, E1 key =  28;WhichDrum: S ; velocity: 127
@91080 , @4.802587209302326 Channel: 4 
Note on, E1 key =  28;WhichDrum: S ; velocity: 0
@91080 , @4.802587209302326 Channel: 4 
Note on, E1 key =  28;WhichDrum: S ; velocity: 127
@91140 , @4.805750968992248 Channel: 4 
Note on, E1 key =  28;WhichDrum: S ; velocity: 0
@91140 , @4.805750968992248 Channel: 4 
Note on, E1 key =  28;WhichDrum: S ; velocity: 127
@91200 , @4.80891472868217 Channel: 4 
Note on, E1 key =  28;WhichDrum: S ; velocity: 0
@91200 , @4.80891472868217 Channel: 4 
Note on, E1 key =  28;WhichDrum: S ; velocity: 127
@91260 , @4.812078488372093 Channel: 4 
Note on, E1 key =  28;WhichDrum: S ; velocity: 0
@91260 , @4.812078488372093 Channel: 4 
Note on, E1 key =  28;WhichDrum: S ; velocity: 127
@91320 , @4.815242248062016 Channel: 4 
Note on, E1 key =  28;WhichDrum: S ; velocity: 0
@91320 , @4.815242248062016 Channel: 4 
Note on, E1 key =  28;WhichDrum: S ; velocity: 127
@91380 , @4.818406007751938 Channel: 4 
Note on, E1 key =  28;WhichDrum: S ; velocity: 0
@91380 , @4.818406007751938 Channel: 4 
Note on, E1 key =  28;WhichDrum: S ; velocity: 127
@91440 , @4.8215697674418605 Channel: 4 
Note on, E1 key =  28;WhichDrum: S ; velocity: 0
@91440 , @4.8215697674418605 Channel: 4 
Note on, B1 key =  35;WhichDrum: T1 ; velocity: 127
@91500 , @4.824733527131783 Channel: 4 
Note on, B1 key =  35;WhichDrum: T1 ; velocity: 0
@91500 , @4.824733527131783 Channel: 4 
Note on, A#1 key =  34;WhichDrum: T2 ; velocity: 127
@91560 , @4.827897286821705 Channel: 4 
Note on, A#1 key =  34;WhichDrum: T2 ; velocity: 0
@91560 , @4.827897286821705 Channel: 4 
Note on, G2 key =  43;WhichDrum: C2 ; velocity: 127
@91620 , @4.831061046511628 Channel: 4 
Note on, G2 key =  43;WhichDrum: C2 ; velocity: 0
@91620 , @4.831061046511628 Channel: 4 
Note on, E2 key =  40;WhichDrum: S ; velocity: 127
@91680 , @4.834224806201551 Channel: 4 
Note on, E2 key =  40;WhichDrum: S ; velocity: 0
@91680 , @4.834224806201551 Channel: 4 
Note on, E1 key =  28;WhichDrum: S ; velocity: 127
@91740 , @4.837388565891473 Channel: 4 
Note on, E1 key =  28;WhichDrum: S ; velocity: 0
@91740 , @4.837388565891473 Channel: 4 
Note on, E1 key =  28;WhichDrum: S ; velocity: 127
@91800 , @4.840552325581395 Channel: 4 
Note on, E1 key =  28;WhichDrum: S ; velocity: 0
@91800 , @4.840552325581395 Channel: 4 
Note on, E1 key =  28;WhichDrum: S ; velocity: 127
@91860 , @4.843716085271318 Channel: 4 
Note on, E1 key =  28;WhichDrum: S ; velocity: 0
@91860 , @4.843716085271318 Channel: 4 
Note on, E1 key =  28;WhichDrum: S ; velocity: 127
@91920 , @4.84687984496124 Channel: 4 
Note on, E1 key =  28;WhichDrum: S ; velocity: 0
@91920 , @4.84687984496124 Channel: 4 
Note on, E1 key =  28;WhichDrum: S ; velocity: 127
@91980 , @4.850043604651163 Channel: 4 
Note on, E1 key =  28;WhichDrum: S ; velocity: 0
@91980 , @4.850043604651163 Channel: 4 
Note on, E1 key =  28;WhichDrum: S ; velocity: 127
@92040 , @4.853207364341086 Channel: 4 
Note on, E1 key =  28;WhichDrum: S ; velocity: 0
@92040 , @4.853207364341086 Channel: 4 
Note on, E1 key =  28;WhichDrum: S ; velocity: 127
@92100 , @4.856371124031008 Channel: 4 
Note on, E1 key =  28;WhichDrum: S ; velocity: 0
@92100 , @4.856371124031008 Channel: 4 
Note on, E1 key =  28;WhichDrum: S ; velocity: 127
@92160 , @4.85953488372093 Channel: 4 
Note on, E1 key =  28;WhichDrum: S ; velocity: 0
@92160 , @4.85953488372093 Channel: 4 
Note on, E1 key =  28;WhichDrum: S ; velocity: 127
@92220 , @4.862698643410853 Channel: 4 
Note on, E1 key =  28;WhichDrum: S ; velocity: 0
@92220 , @4.862698643410853 Channel: 4 
Note on, E1 key =  28;WhichDrum: S ; velocity: 127
@92280 , @4.865862403100775 Channel: 4 
Note on, E1 key =  28;WhichDrum: S ; velocity: 0
@92280 , @4.865862403100775 Channel: 4 
Note on, E1 key =  28;WhichDrum: S ; velocity: 127
@92340 , @4.869026162790698 Channel: 4 
Note on, E1 key =  28;WhichDrum: S ; velocity: 0
@92340 , @4.869026162790698 Channel: 4 
Note on, E1 key =  28;WhichDrum: S ; velocity: 127
@92400 , @4.87218992248062 Channel: 4 
Note on, E1 key =  28;WhichDrum: S ; velocity: 0
@92400 , @4.87218992248062 Channel: 4 
Note on, B1 key =  35;WhichDrum: T1 ; velocity: 127
@92460 , @4.875353682170543 Channel: 4 
Note on, B1 key =  35;WhichDrum: T1 ; velocity: 0
@92460 , @4.875353682170543 Channel: 4 
Note on, A#1 key =  34;WhichDrum: T2 ; velocity: 127
@92520 , @4.878517441860465 Channel: 4 
Note on, A#1 key =  34;WhichDrum: T2 ; velocity: 0
@92520 , @4.878517441860465 Channel: 4 
Note on, G1 key =  31;WhichDrum: C2 ; velocity: 127
@92580 , @4.881681201550387 Channel: 4 
Note on, G1 key =  31;WhichDrum: C2 ; velocity: 0
@92580 , @4.881681201550387 Channel: 4 
Note on, E1 key =  28;WhichDrum: S ; velocity: 127
@92640 , @4.884844961240311 Channel: 4 
Note on, E1 key =  28;WhichDrum: S ; velocity: 0
@92640 , @4.884844961240311 Channel: 4 
Note on, E1 key =  28;WhichDrum: S ; velocity: 127
@92700 , @4.888008720930233 Channel: 4 
Note on, E1 key =  28;WhichDrum: S ; velocity: 0
@92700 , @4.888008720930233 Channel: 4 
Note on, E1 key =  28;WhichDrum: S ; velocity: 127
@92760 , @4.891172480620155 Channel: 4 
Note on, E1 key =  28;WhichDrum: S ; velocity: 0
@92760 , @4.891172480620155 Channel: 4 
Note on, E2 key =  40;WhichDrum: S ; velocity: 127
@92820 , @4.894336240310078 Channel: 4 
Note on, E2 key =  40;WhichDrum: S ; velocity: 0
@92820 , @4.894336240310078 Channel: 4 
Note on, E1 key =  28;WhichDrum: S ; velocity: 127
@92880 , @4.8975 Channel: 4 
Note on, E1 key =  28;WhichDrum: S ; velocity: 0
@92880 , @4.8975 Channel: 4 
Note on, E1 key =  28;WhichDrum: S ; velocity: 127
@92940 , @4.900663759689922 Channel: 4 
Note on, E1 key =  28;WhichDrum: S ; velocity: 0
@92940 , @4.900663759689922 Channel: 4 
Note on, E1 key =  28;WhichDrum: S ; velocity: 127
@93000 , @4.9038275193798455 Channel: 4 
Note on, E1 key =  28;WhichDrum: S ; velocity: 0
@93000 , @4.9038275193798455 Channel: 4 
Note on, E1 key =  28;WhichDrum: S ; velocity: 127
@93060 , @4.906991279069768 Channel: 4 
Note on, E1 key =  28;WhichDrum: S ; velocity: 0
@93060 , @4.906991279069768 Channel: 4 
Note on, E1 key =  28;WhichDrum: S ; velocity: 127
@93120 , @4.91015503875969 Channel: 4 
Note on, E1 key =  28;WhichDrum: S ; velocity: 0
@93120 , @4.91015503875969 Channel: 4 
Note on, E1 key =  28;WhichDrum: S ; velocity: 127
@93180 , @4.9133187984496125 Channel: 4 
Note on, E1 key =  28;WhichDrum: S ; velocity: 0
@93180 , @4.9133187984496125 Channel: 4 
Note on, E1 key =  28;WhichDrum: S ; velocity: 127
@93240 , @4.916482558139535 Channel: 4 
Note on, E1 key =  28;WhichDrum: S ; velocity: 0
@93240 , @4.916482558139535 Channel: 4 
Note on, E1 key =  28;WhichDrum: S ; velocity: 127
@93300 , @4.919646317829457 Channel: 4 
Note on, E1 key =  28;WhichDrum: S ; velocity: 0
@93300 , @4.919646317829457 Channel: 4 
Note on, E1 key =  28;WhichDrum: S ; velocity: 127
@93360 , @4.92281007751938 Channel: 4 
Note on, E1 key =  28;WhichDrum: S ; velocity: 0
@93360 , @4.92281007751938 Channel: 4 
Note on, B1 key =  35;WhichDrum: T1 ; velocity: 127
@93420 , @4.925973837209303 Channel: 4 
Note on, B1 key =  35;WhichDrum: T1 ; velocity: 0
@93420 , @4.925973837209303 Channel: 4 
Note on, A#1 key =  34;WhichDrum: T2 ; velocity: 127
@93480 , @4.929137596899225 Channel: 4 
Note on, A#1 key =  34;WhichDrum: T2 ; velocity: 0
@93480 , @4.929137596899225 Channel: 4 
Note on, G2 key =  43;WhichDrum: C2 ; velocity: 127
@93540 , @4.932301356589147 Channel: 4 
Note on, G2 key =  43;WhichDrum: C2 ; velocity: 0
@93540 , @4.932301356589147 Channel: 4 
Note on, E2 key =  40;WhichDrum: S ; velocity: 127
@93600 , @4.93546511627907 Channel: 4 
Note on, E2 key =  40;WhichDrum: S ; velocity: 0
@93600 , @4.93546511627907 Channel: 4 
Note on, E1 key =  28;WhichDrum: S ; velocity: 127
@93660 , @4.938628875968993 Channel: 4 
Note on, E1 key =  28;WhichDrum: S ; velocity: 0
@93660 , @4.938628875968993 Channel: 4 
Note on, E1 key =  28;WhichDrum: S ; velocity: 127
@93720 , @4.941792635658915 Channel: 4 
Note on, E1 key =  28;WhichDrum: S ; velocity: 0
@93720 , @4.941792635658915 Channel: 4 
Note on, E2 key =  40;WhichDrum: S ; velocity: 127
@93780 , @4.944956395348838 Channel: 4 
Note on, E2 key =  40;WhichDrum: S ; velocity: 0
@93780 , @4.944956395348838 Channel: 4 
Note on, E1 key =  28;WhichDrum: S ; velocity: 127
@93840 , @4.94812015503876 Channel: 4 
Note on, E1 key =  28;WhichDrum: S ; velocity: 0
@93840 , @4.94812015503876 Channel: 4 
Note on, E1 key =  28;WhichDrum: S ; velocity: 127
@93900 , @4.951283914728682 Channel: 4 
Note on, E1 key =  28;WhichDrum: S ; velocity: 0
@93900 , @4.951283914728682 Channel: 4 
Note on, E1 key =  28;WhichDrum: S ; velocity: 127
@93960 , @4.954447674418605 Channel: 4 
Note on, E1 key =  28;WhichDrum: S ; velocity: 0
@93960 , @4.954447674418605 Channel: 4 
Note on, E2 key =  40;WhichDrum: S ; velocity: 127
@94020 , @4.957611434108528 Channel: 4 
Note on, E2 key =  40;WhichDrum: S ; velocity: 0
@94020 , @4.957611434108528 Channel: 4 
Note on, E1 key =  28;WhichDrum: S ; velocity: 127
@94080 , @4.96077519379845 Channel: 4 
Note on, E1 key =  28;WhichDrum: S ; velocity: 0
@94080 , @4.96077519379845 Channel: 4 
Note on, E1 key =  28;WhichDrum: S ; velocity: 127
@94140 , @4.963938953488372 Channel: 4 
Note on, E1 key =  28;WhichDrum: S ; velocity: 0
@94140 , @4.963938953488372 Channel: 4 
Note on, E1 key =  28;WhichDrum: S ; velocity: 127
@94200 , @4.967102713178295 Channel: 4 
Note on, E1 key =  28;WhichDrum: S ; velocity: 0
@94200 , @4.967102713178295 Channel: 4 
Note on, E2 key =  40;WhichDrum: S ; velocity: 127
@94260 , @4.970266472868217 Channel: 4 
Note on, E2 key =  40;WhichDrum: S ; velocity: 0
@94260 , @4.970266472868217 Channel: 4 
Note on, E1 key =  28;WhichDrum: S ; velocity: 127
@94320 , @4.973430232558139 Channel: 4 
Note on, E1 key =  28;WhichDrum: S ; velocity: 0
@94320 , @4.973430232558139 Channel: 4 
Note on, B1 key =  35;WhichDrum: T1 ; velocity: 127
@94380 , @4.976593992248063 Channel: 4 
Note on, B1 key =  35;WhichDrum: T1 ; velocity: 0
@94380 , @4.976593992248063 Channel: 4 
Note on, A#1 key =  34;WhichDrum: T2 ; velocity: 127
@94440 , @4.979757751937985 Channel: 4 
Note on, A#1 key =  34;WhichDrum: T2 ; velocity: 0
@94440 , @4.979757751937985 Channel: 4 
Note on, G1 key =  31;WhichDrum: C2 ; velocity: 127
@94500 , @4.982921511627907 Channel: 4 
Note on, G1 key =  31;WhichDrum: C2 ; velocity: 0
@94500 , @4.982921511627907 Channel: 4 
Note on, E1 key =  28;WhichDrum: S ; velocity: 127
@94560 , @4.98608527131783 Channel: 4 
Note on, E1 key =  28;WhichDrum: S ; velocity: 0
@94560 , @4.98608527131783 Channel: 4 
Note on, C2 key =  36;WhichDrum: B ; velocity: 127
@94620 , @4.989249031007752 Channel: 4 
Note on, C2 key =  36;WhichDrum: B ; velocity: 0
@94620 , @4.989249031007752 Channel: 4 
Note on, A1 key =  33;WhichDrum: T3 ; velocity: 127
@94680 , @4.992412790697675 Channel: 4 
Note on, A1 key =  33;WhichDrum: T3 ; velocity: 0
@94680 , @4.992412790697675 Channel: 4 
Note on, A1 key =  33;WhichDrum: T3 ; velocity: 127
@94740 , @4.9955765503875975 Channel: 4 
Note on, A1 key =  33;WhichDrum: T3 ; velocity: 0
@94740 , @4.9955765503875975 Channel: 4 
Note on, A1 key =  33;WhichDrum: T3 ; velocity: 127
@94800 , @4.99874031007752 Channel: 4 
Note on, A1 key =  33;WhichDrum: T3 ; velocity: 0
@94800 , @4.99874031007752 Channel: 4 
Note on, C2 key =  36;WhichDrum: B ; velocity: 127
@94860 , @5.001904069767442 Channel: 4 
Note on, C2 key =  36;WhichDrum: B ; velocity: 0
@94860 , @5.001904069767442 Channel: 4 
Note on, D2 key =  38;WhichDrum: T2 ; velocity: 127
@94920 , @5.0050678294573645 Channel: 4 
Note on, D2 key =  38;WhichDrum: T2 ; velocity: 0
@94920 , @5.0050678294573645 Channel: 4 
Note on, C2 key =  36;WhichDrum: B ; velocity: 127
@95040 , @5.01139534883721 Channel: 4 
Note on, C2 key =  36;WhichDrum: B ; velocity: 0
@95040 , @5.01139534883721 Channel: 4 
Note on, C2 key =  36;WhichDrum: B ; velocity: 127
@95100 , @5.014559108527132 Channel: 4 
Note on, C2 key =  36;WhichDrum: B ; velocity: 0
@95100 , @5.014559108527132 Channel: 4 
Note on, A1 key =  33;WhichDrum: T3 ; velocity: 127
@95160 , @5.017722868217055 Channel: 4 
Note on, A1 key =  33;WhichDrum: T3 ; velocity: 0
@95160 , @5.017722868217055 Channel: 4 
Note on, A1 key =  33;WhichDrum: T3 ; velocity: 127
@95220 , @5.020886627906977 Channel: 4 
Note on, A1 key =  33;WhichDrum: T3 ; velocity: 0
@95220 , @5.020886627906977 Channel: 4 
Note on, E2 key =  40;WhichDrum: S ; velocity: 127
@95280 , @5.024050387596899 Channel: 4 
Note on, E2 key =  40;WhichDrum: S ; velocity: 0
@95280 , @5.024050387596899 Channel: 4 
Note on, G2 key =  43;WhichDrum: C2 ; velocity: 127
@95340 , @5.027214147286822 Channel: 4 
Note on, G2 key =  43;WhichDrum: C2 ; velocity: 0
@95340 , @5.027214147286822 Channel: 4 
Note on, E2 key =  40;WhichDrum: S ; velocity: 127
@95400 , @5.030377906976745 Channel: 4 
Note on, E2 key =  40;WhichDrum: S ; velocity: 0
@95400 , @5.030377906976745 Channel: 4 
Note on, A2 key =  45;WhichDrum: T3 ; velocity: 127
@95520 , @5.03670542635659 Channel: 4 
Note on, A2 key =  45;WhichDrum: T3 ; velocity: 0
@95520 , @5.03670542635659 Channel: 4 
Note on, A1 key =  33;WhichDrum: T3 ; velocity: 127
@95580 , @5.039869186046512 Channel: 4 
Note on, A1 key =  33;WhichDrum: T3 ; velocity: 0
@95580 , @5.039869186046512 Channel: 4 
Note on, A1 key =  33;WhichDrum: T3 ; velocity: 127
@95640 , @5.043032945736434 Channel: 4 
Note on, A1 key =  33;WhichDrum: T3 ; velocity: 0
@95640 , @5.043032945736434 Channel: 4 
Note on, A1 key =  33;WhichDrum: T3 ; velocity: 127
@95700 , @5.0461967054263575 Channel: 4 
Note on, A1 key =  33;WhichDrum: T3 ; velocity: 0
@95700 , @5.0461967054263575 Channel: 4 
Note on, A1 key =  33;WhichDrum: T3 ; velocity: 127
@95760 , @5.04936046511628 Channel: 4 
Note on, A1 key =  33;WhichDrum: T3 ; velocity: 0
@95760 , @5.04936046511628 Channel: 4 
Note on, C2 key =  36;WhichDrum: B ; velocity: 127
@95820 , @5.052524224806202 Channel: 4 
Note on, C2 key =  36;WhichDrum: B ; velocity: 0
@95820 , @5.052524224806202 Channel: 4 
Note on, D2 key =  38;WhichDrum: T2 ; velocity: 127
@95880 , @5.055687984496124 Channel: 4 
Note on, D2 key =  38;WhichDrum: T2 ; velocity: 0
@95880 , @5.055687984496124 Channel: 4 
Note on, C2 key =  36;WhichDrum: B ; velocity: 127
@96000 , @5.062015503875969 Channel: 4 
Note on, C2 key =  36;WhichDrum: B ; velocity: 0
@96000 , @5.062015503875969 Channel: 4 
Note on, D3 key =  50;WhichDrum: T2 ; velocity: 127
@96060 , @5.065179263565892 Channel: 4 
Note on, D3 key =  50;WhichDrum: T2 ; velocity: 0
@96060 , @5.065179263565892 Channel: 4 
Note on, C3 key =  48;WhichDrum: B ; velocity: 127
@96120 , @5.068343023255815 Channel: 4 
Note on, C3 key =  48;WhichDrum: B ; velocity: 0
@96120 , @5.068343023255815 Channel: 4 
Note on, A2 key =  45;WhichDrum: T3 ; velocity: 127
@96180 , @5.071506782945737 Channel: 4 
Note on, A2 key =  45;WhichDrum: T3 ; velocity: 0
@96180 , @5.071506782945737 Channel: 4 
Note on, G#2 key =  44;WhichDrum: B ; velocity: 127
@96240 , @5.074670542635659 Channel: 4 
Note on, G#2 key =  44;WhichDrum: B ; velocity: 0
@96240 , @5.074670542635659 Channel: 4 
Note on, G2 key =  43;WhichDrum: C2 ; velocity: 127
@96300 , @5.077834302325582 Channel: 4 
Note on, G2 key =  43;WhichDrum: C2 ; velocity: 0
@96300 , @5.077834302325582 Channel: 4 
Note on, E2 key =  40;WhichDrum: S ; velocity: 127
@96360 , @5.080998062015504 Channel: 4 
Note on, E2 key =  40;WhichDrum: S ; velocity: 0
@96360 , @5.080998062015504 Channel: 4 
Note on, D#2 key =  39;WhichDrum: T1 ; velocity: 127
@96420 , @5.084161821705427 Channel: 4 
Note on, D#2 key =  39;WhichDrum: T1 ; velocity: 0
@96420 , @5.084161821705427 Channel: 4 
Note on, D2 key =  38;WhichDrum: T2 ; velocity: 127
@96480 , @5.0873255813953495 Channel: 4 
Note on, D2 key =  38;WhichDrum: T2 ; velocity: 0
@96480 , @5.0873255813953495 Channel: 4 
Note on, C2 key =  36;WhichDrum: B ; velocity: 127
@96540 , @5.090489341085272 Channel: 4 
Note on, C2 key =  36;WhichDrum: B ; velocity: 0
@96540 , @5.090489341085272 Channel: 4 
Note on, A1 key =  33;WhichDrum: T3 ; velocity: 127
@96600 , @5.093653100775194 Channel: 4 
Note on, A1 key =  33;WhichDrum: T3 ; velocity: 0
@96600 , @5.093653100775194 Channel: 4 
Note on, A1 key =  33;WhichDrum: T3 ; velocity: 127
@96660 , @5.0968168604651165 Channel: 4 
Note on, A1 key =  33;WhichDrum: T3 ; velocity: 0
@96660 , @5.0968168604651165 Channel: 4 
Note on, A1 key =  33;WhichDrum: T3 ; velocity: 127
@96720 , @5.09998062015504 Channel: 4 
Note on, A1 key =  33;WhichDrum: T3 ; velocity: 0
@96720 , @5.09998062015504 Channel: 4 
Note on, C2 key =  36;WhichDrum: B ; velocity: 127
@96780 , @5.103144379844961 Channel: 4 
Note on, C2 key =  36;WhichDrum: B ; velocity: 0
@96780 , @5.103144379844961 Channel: 4 
Note on, D2 key =  38;WhichDrum: T2 ; velocity: 127
@96840 , @5.1063081395348835 Channel: 4 
Note on, D2 key =  38;WhichDrum: T2 ; velocity: 0
@96840 , @5.1063081395348835 Channel: 4 
Note on, C2 key =  36;WhichDrum: B ; velocity: 127
@96960 , @5.112635658914728 Channel: 4 
Note on, C2 key =  36;WhichDrum: B ; velocity: 0
@96960 , @5.112635658914728 Channel: 4 
Note on, C2 key =  36;WhichDrum: B ; velocity: 127
@97020 , @5.115799418604651 Channel: 4 
Note on, C2 key =  36;WhichDrum: B ; velocity: 0
@97020 , @5.115799418604651 Channel: 4 
Note on, A1 key =  33;WhichDrum: T3 ; velocity: 127
@97080 , @5.118963178294574 Channel: 4 
Note on, A1 key =  33;WhichDrum: T3 ; velocity: 0
@97080 , @5.118963178294574 Channel: 4 
Note on, A1 key =  33;WhichDrum: T3 ; velocity: 127
@97140 , @5.122126937984496 Channel: 4 
Note on, A1 key =  33;WhichDrum: T3 ; velocity: 0
@97140 , @5.122126937984496 Channel: 4 
Note on, E2 key =  40;WhichDrum: S ; velocity: 127
@97200 , @5.125290697674418 Channel: 4 
Note on, E2 key =  40;WhichDrum: S ; velocity: 0
@97200 , @5.125290697674418 Channel: 4 
Note on, G2 key =  43;WhichDrum: C2 ; velocity: 127
@97260 , @5.128454457364341 Channel: 4 
Note on, G2 key =  43;WhichDrum: C2 ; velocity: 0
@97260 , @5.128454457364341 Channel: 4 
Note on, E2 key =  40;WhichDrum: S ; velocity: 127
@97320 , @5.131618217054263 Channel: 4 
Note on, E2 key =  40;WhichDrum: S ; velocity: 0
@97320 , @5.131618217054263 Channel: 4 
Note on, A2 key =  45;WhichDrum: T3 ; velocity: 127
@97440 , @5.137945736434109 Channel: 4 
Note on, A2 key =  45;WhichDrum: T3 ; velocity: 0
@97440 , @5.137945736434109 Channel: 4 
Note on, A1 key =  33;WhichDrum: T3 ; velocity: 127
@97500 , @5.141109496124031 Channel: 4 
Note on, A1 key =  33;WhichDrum: T3 ; velocity: 0
@97500 , @5.141109496124031 Channel: 4 
Note on, A1 key =  33;WhichDrum: T3 ; velocity: 127
@97560 , @5.144273255813953 Channel: 4 
Note on, A1 key =  33;WhichDrum: T3 ; velocity: 0
@97560 , @5.144273255813953 Channel: 4 
Note on, A1 key =  33;WhichDrum: T3 ; velocity: 127
@97620 , @5.147437015503876 Channel: 4 
Note on, A1 key =  33;WhichDrum: T3 ; velocity: 0
@97620 , @5.147437015503876 Channel: 4 
Note on, A1 key =  33;WhichDrum: T3 ; velocity: 127
@97680 , @5.150600775193799 Channel: 4 
Note on, A1 key =  33;WhichDrum: T3 ; velocity: 0
@97680 , @5.150600775193799 Channel: 4 
Note on, C2 key =  36;WhichDrum: B ; velocity: 127
@97740 , @5.153764534883721 Channel: 4 
Note on, C2 key =  36;WhichDrum: B ; velocity: 0
@97740 , @5.153764534883721 Channel: 4 
Note on, D2 key =  38;WhichDrum: T2 ; velocity: 127
@97800 , @5.156928294573643 Channel: 4 
Note on, D2 key =  38;WhichDrum: T2 ; velocity: 0
@97800 , @5.156928294573643 Channel: 4 
Note on, C2 key =  36;WhichDrum: B ; velocity: 127
@97920 , @5.163255813953488 Channel: 4 
Note on, C2 key =  36;WhichDrum: B ; velocity: 0
@97920 , @5.163255813953488 Channel: 4 
Note on, E3 key =  52;WhichDrum: S ; velocity: 127
@97980 , @5.16641957364341 Channel: 4 
Note on, E3 key =  52;WhichDrum: S ; velocity: 0
@97980 , @5.16641957364341 Channel: 4 
Note on, D3 key =  50;WhichDrum: T2 ; velocity: 127
@98040 , @5.169583333333334 Channel: 4 
Note on, D3 key =  50;WhichDrum: T2 ; velocity: 0
@98040 , @5.169583333333334 Channel: 4 
Note on, B2 key =  47;WhichDrum: T1 ; velocity: 127
@98100 , @5.172747093023256 Channel: 4 
Note on, B2 key =  47;WhichDrum: T1 ; velocity: 0
@98100 , @5.172747093023256 Channel: 4 
Note on, D3 key =  50;WhichDrum: T2 ; velocity: 127
@98160 , @5.175910852713178 Channel: 4 
Note on, D3 key =  50;WhichDrum: T2 ; velocity: 0
@98160 , @5.175910852713178 Channel: 4 
Note on, B2 key =  47;WhichDrum: T1 ; velocity: 127
@98220 , @5.179074612403101 Channel: 4 
Note on, B2 key =  47;WhichDrum: T1 ; velocity: 0
@98220 , @5.179074612403101 Channel: 4 
Note on, A#2 key =  46;WhichDrum: T2 ; velocity: 127
@98280 , @5.182238372093023 Channel: 4 
Note on, A#2 key =  46;WhichDrum: T2 ; velocity: 0
@98280 , @5.182238372093023 Channel: 4 
Note on, A2 key =  45;WhichDrum: T3 ; velocity: 127
@98340 , @5.185402131782945 Channel: 4 
Note on, A2 key =  45;WhichDrum: T3 ; velocity: 0
@98340 , @5.185402131782945 Channel: 4 
Note on, G2 key =  43;WhichDrum: C2 ; velocity: 127
@98400 , @5.1885658914728685 Channel: 4 
Note on, G2 key =  43;WhichDrum: C2 ; velocity: 0
@98400 , @5.1885658914728685 Channel: 4 
Note on, E2 key =  40;WhichDrum: S ; velocity: 127
@98460 , @5.191729651162791 Channel: 4 
Note on, E2 key =  40;WhichDrum: S ; velocity: 0
@98460 , @5.191729651162791 Channel: 4 
Note on, D2 key =  38;WhichDrum: T2 ; velocity: 127
@98520 , @5.194893410852713 Channel: 4 
Note on, D2 key =  38;WhichDrum: T2 ; velocity: 0
@98520 , @5.194893410852713 Channel: 4 
Note on, B1 key =  35;WhichDrum: T1 ; velocity: 127
@98580 , @5.1980571705426355 Channel: 4 
Note on, B1 key =  35;WhichDrum: T1 ; velocity: 0
@98580 , @5.1980571705426355 Channel: 4 
Note on, D2 key =  38;WhichDrum: T2 ; velocity: 127
@98640 , @5.201220930232558 Channel: 4 
Note on, D2 key =  38;WhichDrum: T2 ; velocity: 0
@98640 , @5.201220930232558 Channel: 4 
Note on, B1 key =  35;WhichDrum: T1 ; velocity: 127
@98700 , @5.204384689922481 Channel: 4 
Note on, B1 key =  35;WhichDrum: T1 ; velocity: 0
@98700 , @5.204384689922481 Channel: 4 
Note on, A#1 key =  34;WhichDrum: T2 ; velocity: 127
@98760 , @5.207548449612403 Channel: 4 
Note on, A#1 key =  34;WhichDrum: T2 ; velocity: 0
@98760 , @5.207548449612403 Channel: 4 
Note on, A1 key =  33;WhichDrum: T3 ; velocity: 127
@98820 , @5.210712209302326 Channel: 4 
Note on, A1 key =  33;WhichDrum: T3 ; velocity: 0
@98820 , @5.210712209302326 Channel: 4 
Note on, G1 key =  31;WhichDrum: C2 ; velocity: 127
@98880 , @5.213875968992248 Channel: 4 
Note on, G1 key =  31;WhichDrum: C2 ; velocity: 0
@98880 , @5.213875968992248 Channel: 4 
Note on, G1 key =  31;WhichDrum: C2 ; velocity: 127
@98940 , @5.21703972868217 Channel: 4 
Note on, G1 key =  31;WhichDrum: C2 ; velocity: 0
@98940 , @5.21703972868217 Channel: 4 
Note on, G1 key =  31;WhichDrum: C2 ; velocity: 127
@99000 , @5.220203488372093 Channel: 4 
Note on, G1 key =  31;WhichDrum: C2 ; velocity: 0
@99000 , @5.220203488372093 Channel: 4 
Note on, G1 key =  31;WhichDrum: C2 ; velocity: 127
@99060 , @5.223367248062016 Channel: 4 
Note on, G1 key =  31;WhichDrum: C2 ; velocity: 0
@99060 , @5.223367248062016 Channel: 4 
Note on, G1 key =  31;WhichDrum: C2 ; velocity: 127
@99120 , @5.226531007751938 Channel: 4 
Note on, G1 key =  31;WhichDrum: C2 ; velocity: 0
@99120 , @5.226531007751938 Channel: 4 
Note on, G1 key =  31;WhichDrum: C2 ; velocity: 127
@99180 , @5.229694767441861 Channel: 4 
Note on, G1 key =  31;WhichDrum: C2 ; velocity: 0
@99180 , @5.229694767441861 Channel: 4 
Note on, G1 key =  31;WhichDrum: C2 ; velocity: 127
@99210 , @5.231276647286822 Channel: 4 
Note on, G1 key =  31;WhichDrum: C2 ; velocity: 0
@99210 , @5.231276647286822 Channel: 4 
Note on, G1 key =  31;WhichDrum: C2 ; velocity: 127
@99240 , @5.232858527131783 Channel: 4 
Note on, G1 key =  31;WhichDrum: C2 ; velocity: 0
@99240 , @5.232858527131783 Channel: 4 
Note on, G2 key =  43;WhichDrum: C2 ; velocity: 127
@99360 , @5.239186046511628 Channel: 4 
Note on, G2 key =  43;WhichDrum: C2 ; velocity: 0
@99360 , @5.239186046511628 Channel: 4 
Note on, F#1 key =  30;WhichDrum: C1 ; velocity: 127
@99480 , @5.245513565891473 Channel: 4 
Note on, F#1 key =  30;WhichDrum: C1 ; velocity: 0
@99480 , @5.245513565891473 Channel: 4 
Note on, F#1 key =  30;WhichDrum: C1 ; velocity: 127
@99600 , @5.251841085271318 Channel: 4 
Note on, F#1 key =  30;WhichDrum: C1 ; velocity: 0
@99600 , @5.251841085271318 Channel: 4 
Note on, F1 key =  29;WhichDrum: HH ; velocity: 127
@99720 , @5.258168604651163 Channel: 4 
Note on, F1 key =  29;WhichDrum: HH ; velocity: 0
@99720 , @5.258168604651163 Channel: 4 
Note on, F1 key =  29;WhichDrum: HH ; velocity: 127
@99840 , @5.264496124031008 Channel: 4 
Note on, F1 key =  29;WhichDrum: HH ; velocity: 0
@99840 , @5.264496124031008 Channel: 4 
Note on, E1 key =  28;WhichDrum: S ; velocity: 127
@99900 , @5.26765988372093 Channel: 4 
Note on, E1 key =  28;WhichDrum: S ; velocity: 0
@99900 , @5.26765988372093 Channel: 4 
Note on, E1 key =  28;WhichDrum: S ; velocity: 127
@99960 , @5.270823643410853 Channel: 4 
Note on, E1 key =  28;WhichDrum: S ; velocity: 0
@99960 , @5.270823643410853 Channel: 4 
Note on, E1 key =  28;WhichDrum: S ; velocity: 127
@100020 , @5.273987403100775 Channel: 4 
Note on, E1 key =  28;WhichDrum: S ; velocity: 0
@100020 , @5.273987403100775 Channel: 4 
Note on, E1 key =  28;WhichDrum: S ; velocity: 127
@100080 , @5.277151162790698 Channel: 4 
Note on, E1 key =  28;WhichDrum: S ; velocity: 0
@100080 , @5.277151162790698 Channel: 4 
Note on, E1 key =  28;WhichDrum: S ; velocity: 127
@100140 , @5.2803149224806205 Channel: 4 
Note on, E1 key =  28;WhichDrum: S ; velocity: 0
@100140 , @5.2803149224806205 Channel: 4 
Note on, E1 key =  28;WhichDrum: S ; velocity: 127
@100200 , @5.283478682170543 Channel: 4 
Note on, E1 key =  28;WhichDrum: S ; velocity: 0
@100200 , @5.283478682170543 Channel: 4 
Note on, E1 key =  28;WhichDrum: S ; velocity: 127
@100260 , @5.286642441860465 Channel: 4 
Note on, E1 key =  28;WhichDrum: S ; velocity: 0
@100260 , @5.286642441860465 Channel: 4 
Note on, E1 key =  28;WhichDrum: S ; velocity: 127
@100320 , @5.2898062015503875 Channel: 4 
Note on, E1 key =  28;WhichDrum: S ; velocity: 0
@100320 , @5.2898062015503875 Channel: 4 
Note on, E1 key =  28;WhichDrum: S ; velocity: 127
@100380 , @5.29296996124031 Channel: 4 
Note on, E1 key =  28;WhichDrum: S ; velocity: 0
@100380 , @5.29296996124031 Channel: 4 
Note on, A1 key =  33;WhichDrum: T3 ; velocity: 127
@100410 , @5.294551841085272 Channel: 4 
Note on, A1 key =  33;WhichDrum: T3 ; velocity: 0
@100410 , @5.294551841085272 Channel: 4 
Note on, B1 key =  35;WhichDrum: T1 ; velocity: 127
@100440 , @5.296133720930233 Channel: 4 
Note on, B1 key =  35;WhichDrum: T1 ; velocity: 0
@100440 , @5.296133720930233 Channel: 4 
Note on, D2 key =  38;WhichDrum: T2 ; velocity: 127
@100500 , @5.299297480620155 Channel: 4 
Note on, D2 key =  38;WhichDrum: T2 ; velocity: 0
@100500 , @5.299297480620155 Channel: 4 
Note on, E1 key =  28;WhichDrum: S ; velocity: 127
@100560 , @5.302461240310078 Channel: 4 
Note on, E1 key =  28;WhichDrum: S ; velocity: 0
@100560 , @5.302461240310078 Channel: 4 
Note on, E2 key =  40;WhichDrum: S ; velocity: 127
@100620 , @5.305625 Channel: 4 
Note on, E2 key =  40;WhichDrum: S ; velocity: 0
@100620 , @5.305625 Channel: 4 
Note on, E1 key =  28;WhichDrum: S ; velocity: 127
@100680 , @5.308788759689922 Channel: 4 
Note on, E1 key =  28;WhichDrum: S ; velocity: 0
@100680 , @5.308788759689922 Channel: 4 
Note on, E2 key =  40;WhichDrum: S ; velocity: 127
@100740 , @5.311952519379846 Channel: 4 
Note on, E2 key =  40;WhichDrum: S ; velocity: 0
@100740 , @5.311952519379846 Channel: 4 
Note on, E1 key =  28;WhichDrum: S ; velocity: 127
@100800 , @5.315116279069768 Channel: 4 
Note on, E1 key =  28;WhichDrum: S ; velocity: 0
@100800 , @5.315116279069768 Channel: 4 
Note on, G1 key =  31;WhichDrum: C2 ; velocity: 127
@100860 , @5.31828003875969 Channel: 4 
Note on, G1 key =  31;WhichDrum: C2 ; velocity: 0
@100860 , @5.31828003875969 Channel: 4 
Note on, G1 key =  31;WhichDrum: C2 ; velocity: 127
@100920 , @5.321443798449613 Channel: 4 
Note on, G1 key =  31;WhichDrum: C2 ; velocity: 0
@100920 , @5.321443798449613 Channel: 4 
Note on, G1 key =  31;WhichDrum: C2 ; velocity: 127
@100980 , @5.324607558139535 Channel: 4 
Note on, G1 key =  31;WhichDrum: C2 ; velocity: 0
@100980 , @5.324607558139535 Channel: 4 
Note on, G1 key =  31;WhichDrum: C2 ; velocity: 127
@101040 , @5.327771317829457 Channel: 4 
Note on, G1 key =  31;WhichDrum: C2 ; velocity: 0
@101040 , @5.327771317829457 Channel: 4 
Note on, G1 key =  31;WhichDrum: C2 ; velocity: 127
@101100 , @5.3309350775193804 Channel: 4 
Note on, G1 key =  31;WhichDrum: C2 ; velocity: 0
@101100 , @5.3309350775193804 Channel: 4 
Note on, G1 key =  31;WhichDrum: C2 ; velocity: 127
@101130 , @5.332516957364341 Channel: 4 
Note on, G1 key =  31;WhichDrum: C2 ; velocity: 0
@101130 , @5.332516957364341 Channel: 4 
Note on, G1 key =  31;WhichDrum: C2 ; velocity: 127
@101160 , @5.334098837209303 Channel: 4 
Note on, G1 key =  31;WhichDrum: C2 ; velocity: 0
@101160 , @5.334098837209303 Channel: 4 
Note on, G2 key =  43;WhichDrum: C2 ; velocity: 127
@101280 , @5.340426356589147 Channel: 4 
Note on, G2 key =  43;WhichDrum: C2 ; velocity: 0
@101280 , @5.340426356589147 Channel: 4 
Note on, F#1 key =  30;WhichDrum: C1 ; velocity: 127
@101400 , @5.346753875968992 Channel: 4 
Note on, F#1 key =  30;WhichDrum: C1 ; velocity: 0
@101400 , @5.346753875968992 Channel: 4 
Note on, F#1 key =  30;WhichDrum: C1 ; velocity: 127
@101520 , @5.353081395348838 Channel: 4 
Note on, F#1 key =  30;WhichDrum: C1 ; velocity: 0
@101520 , @5.353081395348838 Channel: 4 
Note on, F1 key =  29;WhichDrum: HH ; velocity: 127
@101640 , @5.359408914728682 Channel: 4 
Note on, F1 key =  29;WhichDrum: HH ; velocity: 0
@101640 , @5.359408914728682 Channel: 4 
Note on, F1 key =  29;WhichDrum: HH ; velocity: 127
@101760 , @5.365736434108528 Channel: 4 
Note on, F1 key =  29;WhichDrum: HH ; velocity: 0
@101760 , @5.365736434108528 Channel: 4 
Note on, E1 key =  28;WhichDrum: S ; velocity: 127
@101820 , @5.36890019379845 Channel: 4 
Note on, E1 key =  28;WhichDrum: S ; velocity: 0
@101820 , @5.36890019379845 Channel: 4 
Note on, E1 key =  28;WhichDrum: S ; velocity: 127
@101880 , @5.3720639534883725 Channel: 4 
Note on, E1 key =  28;WhichDrum: S ; velocity: 0
@101880 , @5.3720639534883725 Channel: 4 
Note on, E1 key =  28;WhichDrum: S ; velocity: 127
@101940 , @5.375227713178295 Channel: 4 
Note on, E1 key =  28;WhichDrum: S ; velocity: 0
@101940 , @5.375227713178295 Channel: 4 
Note on, E1 key =  28;WhichDrum: S ; velocity: 127
@102000 , @5.378391472868217 Channel: 4 
Note on, E1 key =  28;WhichDrum: S ; velocity: 0
@102000 , @5.378391472868217 Channel: 4 
Note on, E1 key =  28;WhichDrum: S ; velocity: 127
@102060 , @5.3815552325581395 Channel: 4 
Note on, E1 key =  28;WhichDrum: S ; velocity: 0
@102060 , @5.3815552325581395 Channel: 4 
Note on, E1 key =  28;WhichDrum: S ; velocity: 127
@102120 , @5.384718992248063 Channel: 4 
Note on, E1 key =  28;WhichDrum: S ; velocity: 0
@102120 , @5.384718992248063 Channel: 4 
Note on, E1 key =  28;WhichDrum: S ; velocity: 127
@102180 , @5.387882751937985 Channel: 4 
Note on, E1 key =  28;WhichDrum: S ; velocity: 0
@102180 , @5.387882751937985 Channel: 4 
Note on, E1 key =  28;WhichDrum: S ; velocity: 127
@102240 , @5.391046511627907 Channel: 4 
Note on, E1 key =  28;WhichDrum: S ; velocity: 0
@102240 , @5.391046511627907 Channel: 4 
Note on, E2 key =  40;WhichDrum: S ; velocity: 127
@102300 , @5.39421027131783 Channel: 4 
Note on, E2 key =  40;WhichDrum: S ; velocity: 0
@102300 , @5.39421027131783 Channel: 4 
Note on, D2 key =  38;WhichDrum: T2 ; velocity: 127
@102360 , @5.397374031007752 Channel: 4 
Note on, D2 key =  38;WhichDrum: T2 ; velocity: 0
@102360 , @5.397374031007752 Channel: 4 
Note on, B1 key =  35;WhichDrum: T1 ; velocity: 127
@102420 , @5.400537790697674 Channel: 4 
Note on, B1 key =  35;WhichDrum: T1 ; velocity: 0
@102420 , @5.400537790697674 Channel: 4 
Note on, A1 key =  33;WhichDrum: T3 ; velocity: 127
@102480 , @5.403701550387598 Channel: 4 
Note on, A1 key =  33;WhichDrum: T3 ; velocity: 0
@102480 , @5.403701550387598 Channel: 4 
Note on, A#1 key =  34;WhichDrum: T2 ; velocity: 127
@102540 , @5.40686531007752 Channel: 4 
Note on, A#1 key =  34;WhichDrum: T2 ; velocity: 0
@102540 , @5.40686531007752 Channel: 4 
Note on, A1 key =  33;WhichDrum: T3 ; velocity: 127
@102600 , @5.410029069767442 Channel: 4 
Note on, A1 key =  33;WhichDrum: T3 ; velocity: 0
@102600 , @5.410029069767442 Channel: 4 
Note on, B1 key =  35;WhichDrum: T1 ; velocity: 127
@102660 , @5.413192829457365 Channel: 4 
Note on, B1 key =  35;WhichDrum: T1 ; velocity: 0
@102660 , @5.413192829457365 Channel: 4 
Note on, A1 key =  33;WhichDrum: T3 ; velocity: 127
@102720 , @5.416356589147287 Channel: 4 
Note on, A1 key =  33;WhichDrum: T3 ; velocity: 0
@102720 , @5.416356589147287 Channel: 4 
Note on, G1 key =  31;WhichDrum: C2 ; velocity: 127
@102780 , @5.41952034883721 Channel: 4 
Note on, G1 key =  31;WhichDrum: C2 ; velocity: 0
@102780 , @5.41952034883721 Channel: 4 
Note on, G1 key =  31;WhichDrum: C2 ; velocity: 127
@102840 , @5.4226841085271325 Channel: 4 
Note on, G1 key =  31;WhichDrum: C2 ; velocity: 0
@102840 , @5.4226841085271325 Channel: 4 
Note on, G1 key =  31;WhichDrum: C2 ; velocity: 127
@102900 , @5.425847868217055 Channel: 4 
Note on, G1 key =  31;WhichDrum: C2 ; velocity: 0
@102900 , @5.425847868217055 Channel: 4 
Note on, G1 key =  31;WhichDrum: C2 ; velocity: 127
@102960 , @5.429011627906977 Channel: 4 
Note on, G1 key =  31;WhichDrum: C2 ; velocity: 0
@102960 , @5.429011627906977 Channel: 4 
Note on, G1 key =  31;WhichDrum: C2 ; velocity: 127
@103020 , @5.432175387596899 Channel: 4 
Note on, G1 key =  31;WhichDrum: C2 ; velocity: 0
@103020 , @5.432175387596899 Channel: 4 
Note on, G1 key =  31;WhichDrum: C2 ; velocity: 127
@103050 , @5.433757267441861 Channel: 4 
Note on, G1 key =  31;WhichDrum: C2 ; velocity: 0
@103050 , @5.433757267441861 Channel: 4 
Note on, G1 key =  31;WhichDrum: C2 ; velocity: 127
@103080 , @5.435339147286822 Channel: 4 
Note on, G1 key =  31;WhichDrum: C2 ; velocity: 0
@103080 , @5.435339147286822 Channel: 4 
Note on, G2 key =  43;WhichDrum: C2 ; velocity: 127
@103200 , @5.441666666666667 Channel: 4 
Note on, G2 key =  43;WhichDrum: C2 ; velocity: 0
@103200 , @5.441666666666667 Channel: 4 
Note on, F#1 key =  30;WhichDrum: C1 ; velocity: 127
@103320 , @5.447994186046512 Channel: 4 
Note on, F#1 key =  30;WhichDrum: C1 ; velocity: 0
@103320 , @5.447994186046512 Channel: 4 
Note on, F#1 key =  30;WhichDrum: C1 ; velocity: 127
@103440 , @5.454321705426357 Channel: 4 
Note on, F#1 key =  30;WhichDrum: C1 ; velocity: 0
@103440 , @5.454321705426357 Channel: 4 
Note on, F1 key =  29;WhichDrum: HH ; velocity: 127
@103560 , @5.460649224806202 Channel: 4 
Note on, F1 key =  29;WhichDrum: HH ; velocity: 0
@103560 , @5.460649224806202 Channel: 4 
Note on, F1 key =  29;WhichDrum: HH ; velocity: 127
@103680 , @5.466976744186047 Channel: 4 
Note on, F1 key =  29;WhichDrum: HH ; velocity: 0
@103680 , @5.466976744186047 Channel: 4 
Note on, E1 key =  28;WhichDrum: S ; velocity: 127
@103740 , @5.470140503875969 Channel: 4 
Note on, E1 key =  28;WhichDrum: S ; velocity: 0
@103740 , @5.470140503875969 Channel: 4 
Note on, E1 key =  28;WhichDrum: S ; velocity: 127
@103800 , @5.473304263565892 Channel: 4 
Note on, E1 key =  28;WhichDrum: S ; velocity: 0
@103800 , @5.473304263565892 Channel: 4 
Note on, E1 key =  28;WhichDrum: S ; velocity: 127
@103860 , @5.476468023255815 Channel: 4 
Note on, E1 key =  28;WhichDrum: S ; velocity: 0
@103860 , @5.476468023255815 Channel: 4 
Note on, E1 key =  28;WhichDrum: S ; velocity: 127
@103920 , @5.479631782945737 Channel: 4 
Note on, E1 key =  28;WhichDrum: S ; velocity: 0
@103920 , @5.479631782945737 Channel: 4 
Note on, E1 key =  28;WhichDrum: S ; velocity: 127
@103980 , @5.482795542635659 Channel: 4 
Note on, E1 key =  28;WhichDrum: S ; velocity: 0
@103980 , @5.482795542635659 Channel: 4 
Note on, E1 key =  28;WhichDrum: S ; velocity: 127
@104040 , @5.485959302325582 Channel: 4 
Note on, E1 key =  28;WhichDrum: S ; velocity: 0
@104040 , @5.485959302325582 Channel: 4 
Note on, E1 key =  28;WhichDrum: S ; velocity: 127
@104100 , @5.489123062015504 Channel: 4 
Note on, E1 key =  28;WhichDrum: S ; velocity: 0
@104100 , @5.489123062015504 Channel: 4 
Note on, E1 key =  28;WhichDrum: S ; velocity: 127
@104160 , @5.492286821705427 Channel: 4 
Note on, E1 key =  28;WhichDrum: S ; velocity: 0
@104160 , @5.492286821705427 Channel: 4 
Note on, E1 key =  28;WhichDrum: S ; velocity: 127
@104220 , @5.49545058139535 Channel: 4 
Note on, E1 key =  28;WhichDrum: S ; velocity: 0
@104220 , @5.49545058139535 Channel: 4 
Note on, A1 key =  33;WhichDrum: T3 ; velocity: 127
@104250 , @5.49703246124031 Channel: 4 
Note on, A1 key =  33;WhichDrum: T3 ; velocity: 0
@104250 , @5.49703246124031 Channel: 4 
Note on, B1 key =  35;WhichDrum: T1 ; velocity: 127
@104280 , @5.498614341085272 Channel: 4 
Note on, B1 key =  35;WhichDrum: T1 ; velocity: 0
@104280 , @5.498614341085272 Channel: 4 
Note on, D2 key =  38;WhichDrum: T2 ; velocity: 127
@104340 , @5.501778100775194 Channel: 4 
Note on, D2 key =  38;WhichDrum: T2 ; velocity: 0
@104340 , @5.501778100775194 Channel: 4 
Note on, E1 key =  28;WhichDrum: S ; velocity: 127
@104400 , @5.504941860465117 Channel: 4 
Note on, E1 key =  28;WhichDrum: S ; velocity: 0
@104400 , @5.504941860465117 Channel: 4 
Note on, E2 key =  40;WhichDrum: S ; velocity: 127
@104460 , @5.508105620155039 Channel: 4 
Note on, E2 key =  40;WhichDrum: S ; velocity: 0
@104460 , @5.508105620155039 Channel: 4 
Note on, E1 key =  28;WhichDrum: S ; velocity: 127
@104520 , @5.511269379844961 Channel: 4 
Note on, E1 key =  28;WhichDrum: S ; velocity: 0
@104520 , @5.511269379844961 Channel: 4 
Note on, E2 key =  40;WhichDrum: S ; velocity: 127
@104580 , @5.514433139534884 Channel: 4 
Note on, E2 key =  40;WhichDrum: S ; velocity: 0
@104580 , @5.514433139534884 Channel: 4 
Note on, E1 key =  28;WhichDrum: S ; velocity: 127
@104640 , @5.517596899224806 Channel: 4 
Note on, E1 key =  28;WhichDrum: S ; velocity: 0
@104640 , @5.517596899224806 Channel: 4 
Note on, G1 key =  31;WhichDrum: C2 ; velocity: 127
@104700 , @5.520760658914728 Channel: 4 
Note on, G1 key =  31;WhichDrum: C2 ; velocity: 0
@104700 , @5.520760658914728 Channel: 4 
Note on, G1 key =  31;WhichDrum: C2 ; velocity: 127
@104760 , @5.523924418604651 Channel: 4 
Note on, G1 key =  31;WhichDrum: C2 ; velocity: 0
@104760 , @5.523924418604651 Channel: 4 
Note on, G1 key =  31;WhichDrum: C2 ; velocity: 127
@104820 , @5.527088178294574 Channel: 4 
Note on, G1 key =  31;WhichDrum: C2 ; velocity: 0
@104820 , @5.527088178294574 Channel: 4 
Note on, G1 key =  31;WhichDrum: C2 ; velocity: 127
@104880 , @5.530251937984496 Channel: 4 
Note on, G1 key =  31;WhichDrum: C2 ; velocity: 0
@104880 , @5.530251937984496 Channel: 4 
Note on, G1 key =  31;WhichDrum: C2 ; velocity: 127
@104940 , @5.533415697674418 Channel: 4 
Note on, G1 key =  31;WhichDrum: C2 ; velocity: 0
@104940 , @5.533415697674418 Channel: 4 
Note on, G1 key =  31;WhichDrum: C2 ; velocity: 127
@104970 , @5.5349975775193805 Channel: 4 
Note on, G1 key =  31;WhichDrum: C2 ; velocity: 0
@104970 , @5.5349975775193805 Channel: 4 
Note on, G1 key =  31;WhichDrum: C2 ; velocity: 127
@105000 , @5.536579457364341 Channel: 4 
Note on, G1 key =  31;WhichDrum: C2 ; velocity: 0
@105000 , @5.536579457364341 Channel: 4 
Note on, G2 key =  43;WhichDrum: C2 ; velocity: 127
@105120 , @5.542906976744186 Channel: 4 
Note on, G2 key =  43;WhichDrum: C2 ; velocity: 0
@105120 , @5.542906976744186 Channel: 4 
Note on, F#1 key =  30;WhichDrum: C1 ; velocity: 127
@105240 , @5.549234496124031 Channel: 4 
Note on, F#1 key =  30;WhichDrum: C1 ; velocity: 0
@105240 , @5.549234496124031 Channel: 4 
Note on, F#1 key =  30;WhichDrum: C1 ; velocity: 127
@105360 , @5.555562015503876 Channel: 4 
Note on, F#1 key =  30;WhichDrum: C1 ; velocity: 0
@105360 , @5.555562015503876 Channel: 4 
Note on, F1 key =  29;WhichDrum: HH ; velocity: 127
@105480 , @5.561889534883721 Channel: 4 
Note on, F1 key =  29;WhichDrum: HH ; velocity: 0
@105480 , @5.561889534883721 Channel: 4 
Note on, F1 key =  29;WhichDrum: HH ; velocity: 127
@105600 , @5.568217054263566 Channel: 4 
Note on, F1 key =  29;WhichDrum: HH ; velocity: 0
@105600 , @5.568217054263566 Channel: 4 
Note on, G1 key =  31;WhichDrum: C2 ; velocity: 127
@105660 , @5.571380813953488 Channel: 4 
Note on, G1 key =  31;WhichDrum: C2 ; velocity: 0
@105660 , @5.571380813953488 Channel: 4 
Note on, G1 key =  31;WhichDrum: C2 ; velocity: 127
@105720 , @5.5745445736434105 Channel: 4 
Note on, G1 key =  31;WhichDrum: C2 ; velocity: 0
@105720 , @5.5745445736434105 Channel: 4 
Note on, G1 key =  31;WhichDrum: C2 ; velocity: 127
@105780 , @5.577708333333334 Channel: 4 
Note on, G1 key =  31;WhichDrum: C2 ; velocity: 0
@105780 , @5.577708333333334 Channel: 4 
Note on, G1 key =  31;WhichDrum: C2 ; velocity: 127
@105840 , @5.580872093023256 Channel: 4 
Note on, G1 key =  31;WhichDrum: C2 ; velocity: 0
@105840 , @5.580872093023256 Channel: 4 
Note on, G1 key =  31;WhichDrum: C2 ; velocity: 127
@105900 , @5.584035852713178 Channel: 4 
Note on, G1 key =  31;WhichDrum: C2 ; velocity: 0
@105900 , @5.584035852713178 Channel: 4 
Note on, G1 key =  31;WhichDrum: C2 ; velocity: 127
@105960 , @5.587199612403101 Channel: 4 
Note on, G1 key =  31;WhichDrum: C2 ; velocity: 0
@105960 , @5.587199612403101 Channel: 4 
Note on, G1 key =  31;WhichDrum: C2 ; velocity: 127
@106020 , @5.590363372093023 Channel: 4 
Note on, G1 key =  31;WhichDrum: C2 ; velocity: 0
@106020 , @5.590363372093023 Channel: 4 
Note on, G1 key =  31;WhichDrum: C2 ; velocity: 127
@106080 , @5.593527131782945 Channel: 4 
Note on, G1 key =  31;WhichDrum: C2 ; velocity: 0
@106080 , @5.593527131782945 Channel: 4 
Note on, G1 key =  31;WhichDrum: C2 ; velocity: 127
@106140 , @5.596690891472869 Channel: 4 
Note on, G1 key =  31;WhichDrum: C2 ; velocity: 0
@106140 , @5.596690891472869 Channel: 4 
Note on, G1 key =  31;WhichDrum: C2 ; velocity: 127
@106200 , @5.599854651162791 Channel: 4 
Note on, G1 key =  31;WhichDrum: C2 ; velocity: 0
@106200 , @5.599854651162791 Channel: 4 
Note on, G1 key =  31;WhichDrum: C2 ; velocity: 127
@106260 , @5.603018410852713 Channel: 4 
Note on, G1 key =  31;WhichDrum: C2 ; velocity: 0
@106260 , @5.603018410852713 Channel: 4 
Note on, G1 key =  31;WhichDrum: C2 ; velocity: 127
@106320 , @5.606182170542636 Channel: 4 
Note on, G1 key =  31;WhichDrum: C2 ; velocity: 0
@106320 , @5.606182170542636 Channel: 4 
Note on, G1 key =  31;WhichDrum: C2 ; velocity: 127
@106380 , @5.609345930232558 Channel: 4 
Note on, G1 key =  31;WhichDrum: C2 ; velocity: 0
@106380 , @5.609345930232558 Channel: 4 
Note on, G1 key =  31;WhichDrum: C2 ; velocity: 127
@106440 , @5.61250968992248 Channel: 4 
Note on, G1 key =  31;WhichDrum: C2 ; velocity: 0
@106440 , @5.61250968992248 Channel: 4 
Note on, G1 key =  31;WhichDrum: C2 ; velocity: 127
@106500 , @5.6156734496124034 Channel: 4 
Note on, G1 key =  31;WhichDrum: C2 ; velocity: 0
@106500 , @5.6156734496124034 Channel: 4 
Note on, G2 key =  43;WhichDrum: C2 ; velocity: 127
@106560 , @5.618837209302326 Channel: 4 
Note on, G2 key =  43;WhichDrum: C2 ; velocity: 0
@106560 , @5.618837209302326 Channel: 4 
Note on, F#2 key =  42;WhichDrum: C1 ; velocity: 127
@106620 , @5.622000968992248 Channel: 4 
Note on, F#2 key =  42;WhichDrum: C1 ; velocity: 0
@106620 , @5.622000968992248 Channel: 4 
Note on, E1 key =  28;WhichDrum: S ; velocity: 127
@106680 , @5.62516472868217 Channel: 4 
Note on, E1 key =  28;WhichDrum: S ; velocity: 0
@106680 , @5.62516472868217 Channel: 4 
Note on, E1 key =  28;WhichDrum: S ; velocity: 127
@106740 , @5.628328488372093 Channel: 4 
Note on, E1 key =  28;WhichDrum: S ; velocity: 0
@106740 , @5.628328488372093 Channel: 4 
Note on, F#2 key =  42;WhichDrum: C1 ; velocity: 127
@106800 , @5.631492248062016 Channel: 4 
Note on, F#2 key =  42;WhichDrum: C1 ; velocity: 0
@106800 , @5.631492248062016 Channel: 4 
Note on, F2 key =  41;WhichDrum: HH ; velocity: 127
@106860 , @5.634656007751938 Channel: 4 
Note on, F2 key =  41;WhichDrum: HH ; velocity: 0
@106860 , @5.634656007751938 Channel: 4 
Note on, E1 key =  28;WhichDrum: S ; velocity: 127
@106920 , @5.637819767441861 Channel: 4 
Note on, E1 key =  28;WhichDrum: S ; velocity: 0
@106920 , @5.637819767441861 Channel: 4 
Note on, E1 key =  28;WhichDrum: S ; velocity: 127
@106980 , @5.640983527131783 Channel: 4 
Note on, E1 key =  28;WhichDrum: S ; velocity: 0
@106980 , @5.640983527131783 Channel: 4 
Note on, F2 key =  41;WhichDrum: HH ; velocity: 127
@107040 , @5.644147286821705 Channel: 4 
Note on, F2 key =  41;WhichDrum: HH ; velocity: 0
@107040 , @5.644147286821705 Channel: 4 
Note on, E2 key =  40;WhichDrum: S ; velocity: 127
@107100 , @5.647311046511628 Channel: 4 
Note on, E2 key =  40;WhichDrum: S ; velocity: 0
@107100 , @5.647311046511628 Channel: 4 
Note on, E1 key =  28;WhichDrum: S ; velocity: 127
@107160 , @5.650474806201551 Channel: 4 
Note on, E1 key =  28;WhichDrum: S ; velocity: 0
@107160 , @5.650474806201551 Channel: 4 
Note on, E1 key =  28;WhichDrum: S ; velocity: 127
@107220 , @5.653638565891473 Channel: 4 
Note on, E1 key =  28;WhichDrum: S ; velocity: 0
@107220 , @5.653638565891473 Channel: 4 
Note on, E1 key =  28;WhichDrum: S ; velocity: 127
@107280 , @5.6568023255813955 Channel: 4 
Note on, E1 key =  28;WhichDrum: S ; velocity: 0
@107280 , @5.6568023255813955 Channel: 4 
Note on, E1 key =  28;WhichDrum: S ; velocity: 127
@107340 , @5.659966085271318 Channel: 4 
Note on, E1 key =  28;WhichDrum: S ; velocity: 0
@107340 , @5.659966085271318 Channel: 4 
Note on, E1 key =  28;WhichDrum: S ; velocity: 127
@107400 , @5.66312984496124 Channel: 4 
Note on, E1 key =  28;WhichDrum: S ; velocity: 0
@107400 , @5.66312984496124 Channel: 4 
Note on, E1 key =  28;WhichDrum: S ; velocity: 127
@107460 , @5.6662936046511625 Channel: 4 
Note on, E1 key =  28;WhichDrum: S ; velocity: 0
@107460 , @5.6662936046511625 Channel: 4 
Note on, G2 key =  43;WhichDrum: C2 ; velocity: 127
@107520 , @5.669457364341086 Channel: 4 
Note on, G2 key =  43;WhichDrum: C2 ; velocity: 0
@107520 , @5.669457364341086 Channel: 4 
Note on, F#2 key =  42;WhichDrum: C1 ; velocity: 127
@107580 , @5.672621124031008 Channel: 4 
Note on, F#2 key =  42;WhichDrum: C1 ; velocity: 0
@107580 , @5.672621124031008 Channel: 4 
Note on, E1 key =  28;WhichDrum: S ; velocity: 127
@107640 , @5.67578488372093 Channel: 4 
Note on, E1 key =  28;WhichDrum: S ; velocity: 0
@107640 , @5.67578488372093 Channel: 4 
Note on, E1 key =  28;WhichDrum: S ; velocity: 127
@107700 , @5.678948643410853 Channel: 4 
Note on, E1 key =  28;WhichDrum: S ; velocity: 0
@107700 , @5.678948643410853 Channel: 4 
Note on, F#2 key =  42;WhichDrum: C1 ; velocity: 127
@107760 , @5.682112403100775 Channel: 4 
Note on, F#2 key =  42;WhichDrum: C1 ; velocity: 0
@107760 , @5.682112403100775 Channel: 4 
Note on, D2 key =  38;WhichDrum: T2 ; velocity: 127
@107820 , @5.685276162790698 Channel: 4 
Note on, D2 key =  38;WhichDrum: T2 ; velocity: 0
@107820 , @5.685276162790698 Channel: 4 
Note on, E1 key =  28;WhichDrum: S ; velocity: 127
@107880 , @5.688439922480621 Channel: 4 
Note on, E1 key =  28;WhichDrum: S ; velocity: 0
@107880 , @5.688439922480621 Channel: 4 
Note on, E1 key =  28;WhichDrum: S ; velocity: 127
@107940 , @5.691603682170543 Channel: 4 
Note on, E1 key =  28;WhichDrum: S ; velocity: 0
@107940 , @5.691603682170543 Channel: 4 
Note on, D2 key =  38;WhichDrum: T2 ; velocity: 127
@108000 , @5.694767441860465 Channel: 4 
Note on, D2 key =  38;WhichDrum: T2 ; velocity: 0
@108000 , @5.694767441860465 Channel: 4 
Note on, E2 key =  40;WhichDrum: S ; velocity: 127
@108060 , @5.697931201550388 Channel: 4 
Note on, E2 key =  40;WhichDrum: S ; velocity: 0
@108060 , @5.697931201550388 Channel: 4 
Note on, E1 key =  28;WhichDrum: S ; velocity: 127
@108120 , @5.70109496124031 Channel: 4 
Note on, E1 key =  28;WhichDrum: S ; velocity: 0
@108120 , @5.70109496124031 Channel: 4 
Note on, D2 key =  38;WhichDrum: T2 ; velocity: 127
@108180 , @5.704258720930233 Channel: 4 
Note on, D2 key =  38;WhichDrum: T2 ; velocity: 0
@108180 , @5.704258720930233 Channel: 4 
Note on, E1 key =  28;WhichDrum: S ; velocity: 127
@108240 , @5.7074224806201554 Channel: 4 
Note on, E1 key =  28;WhichDrum: S ; velocity: 0
@108240 , @5.7074224806201554 Channel: 4 
Note on, E2 key =  40;WhichDrum: S ; velocity: 127
@108300 , @5.710586240310078 Channel: 4 
Note on, E2 key =  40;WhichDrum: S ; velocity: 0
@108300 , @5.710586240310078 Channel: 4 
Note on, E2 key =  40;WhichDrum: S ; velocity: 127
@108360 , @5.71375 Channel: 4 
Note on, E2 key =  40;WhichDrum: S ; velocity: 0
@108360 , @5.71375 Channel: 4 
Note on, E2 key =  40;WhichDrum: S ; velocity: 127
@108420 , @5.716913759689922 Channel: 4 
Note on, E2 key =  40;WhichDrum: S ; velocity: 0
@108420 , @5.716913759689922 Channel: 4 
Note on, G2 key =  43;WhichDrum: C2 ; velocity: 127
@108480 , @5.720077519379845 Channel: 4 
Note on, G2 key =  43;WhichDrum: C2 ; velocity: 0
@108480 , @5.720077519379845 Channel: 4 
Note on, F#2 key =  42;WhichDrum: C1 ; velocity: 127
@108540 , @5.723241279069768 Channel: 4 
Note on, F#2 key =  42;WhichDrum: C1 ; velocity: 0
@108540 , @5.723241279069768 Channel: 4 
Note on, E1 key =  28;WhichDrum: S ; velocity: 127
@108600 , @5.72640503875969 Channel: 4 
Note on, E1 key =  28;WhichDrum: S ; velocity: 0
@108600 , @5.72640503875969 Channel: 4 
Note on, E1 key =  28;WhichDrum: S ; velocity: 127
@108660 , @5.729568798449613 Channel: 4 
Note on, E1 key =  28;WhichDrum: S ; velocity: 0
@108660 , @5.729568798449613 Channel: 4 
Note on, F#2 key =  42;WhichDrum: C1 ; velocity: 127
@108720 , @5.732732558139535 Channel: 4 
Note on, F#2 key =  42;WhichDrum: C1 ; velocity: 0
@108720 , @5.732732558139535 Channel: 4 
Note on, F2 key =  41;WhichDrum: HH ; velocity: 127
@108780 , @5.735896317829457 Channel: 4 
Note on, F2 key =  41;WhichDrum: HH ; velocity: 0
@108780 , @5.735896317829457 Channel: 4 
Note on, E1 key =  28;WhichDrum: S ; velocity: 127
@108840 , @5.7390600775193805 Channel: 4 
Note on, E1 key =  28;WhichDrum: S ; velocity: 0
@108840 , @5.7390600775193805 Channel: 4 
Note on, E1 key =  28;WhichDrum: S ; velocity: 127
@108900 , @5.742223837209303 Channel: 4 
Note on, E1 key =  28;WhichDrum: S ; velocity: 0
@108900 , @5.742223837209303 Channel: 4 
Note on, F2 key =  41;WhichDrum: HH ; velocity: 127
@108960 , @5.745387596899225 Channel: 4 
Note on, F2 key =  41;WhichDrum: HH ; velocity: 0
@108960 , @5.745387596899225 Channel: 4 
Note on, E2 key =  40;WhichDrum: S ; velocity: 127
@109020 , @5.7485513565891475 Channel: 4 
Note on, E2 key =  40;WhichDrum: S ; velocity: 0
@109020 , @5.7485513565891475 Channel: 4 
Note on, E1 key =  28;WhichDrum: S ; velocity: 127
@109080 , @5.75171511627907 Channel: 4 
Note on, E1 key =  28;WhichDrum: S ; velocity: 0
@109080 , @5.75171511627907 Channel: 4 
Note on, E1 key =  28;WhichDrum: S ; velocity: 127
@109140 , @5.754878875968992 Channel: 4 
Note on, E1 key =  28;WhichDrum: S ; velocity: 0
@109140 , @5.754878875968992 Channel: 4 
Note on, E1 key =  28;WhichDrum: S ; velocity: 127
@109200 , @5.758042635658915 Channel: 4 
Note on, E1 key =  28;WhichDrum: S ; velocity: 0
@109200 , @5.758042635658915 Channel: 4 
Note on, E1 key =  28;WhichDrum: S ; velocity: 127
@109260 , @5.761206395348838 Channel: 4 
Note on, E1 key =  28;WhichDrum: S ; velocity: 0
@109260 , @5.761206395348838 Channel: 4 
Note on, E1 key =  28;WhichDrum: S ; velocity: 127
@109320 , @5.76437015503876 Channel: 4 
Note on, E1 key =  28;WhichDrum: S ; velocity: 0
@109320 , @5.76437015503876 Channel: 4 
Note on, E1 key =  28;WhichDrum: S ; velocity: 127
@109380 , @5.767533914728682 Channel: 4 
Note on, E1 key =  28;WhichDrum: S ; velocity: 0
@109380 , @5.767533914728682 Channel: 4 
Note on, G2 key =  43;WhichDrum: C2 ; velocity: 127
@109440 , @5.770697674418605 Channel: 4 
Note on, G2 key =  43;WhichDrum: C2 ; velocity: 0
@109440 , @5.770697674418605 Channel: 4 
Note on, F#2 key =  42;WhichDrum: C1 ; velocity: 127
@109500 , @5.773861434108527 Channel: 4 
Note on, F#2 key =  42;WhichDrum: C1 ; velocity: 0
@109500 , @5.773861434108527 Channel: 4 
Note on, E1 key =  28;WhichDrum: S ; velocity: 127
@109560 , @5.77702519379845 Channel: 4 
Note on, E1 key =  28;WhichDrum: S ; velocity: 0
@109560 , @5.77702519379845 Channel: 4 
Note on, E1 key =  28;WhichDrum: S ; velocity: 127
@109620 , @5.780188953488373 Channel: 4 
Note on, E1 key =  28;WhichDrum: S ; velocity: 0
@109620 , @5.780188953488373 Channel: 4 
Note on, F#2 key =  42;WhichDrum: C1 ; velocity: 127
@109680 , @5.783352713178295 Channel: 4 
Note on, F#2 key =  42;WhichDrum: C1 ; velocity: 0
@109680 , @5.783352713178295 Channel: 4 
Note on, D2 key =  38;WhichDrum: T2 ; velocity: 127
@109740 , @5.786516472868217 Channel: 4 
Note on, D2 key =  38;WhichDrum: T2 ; velocity: 0
@109740 , @5.786516472868217 Channel: 4 
Note on, E1 key =  28;WhichDrum: S ; velocity: 127
@109800 , @5.78968023255814 Channel: 4 
Note on, E1 key =  28;WhichDrum: S ; velocity: 0
@109800 , @5.78968023255814 Channel: 4 
Note on, E1 key =  28;WhichDrum: S ; velocity: 127
@109860 , @5.792843992248063 Channel: 4 
Note on, E1 key =  28;WhichDrum: S ; velocity: 0
@109860 , @5.792843992248063 Channel: 4 
Note on, D2 key =  38;WhichDrum: T2 ; velocity: 127
@109920 , @5.796007751937985 Channel: 4 
Note on, D2 key =  38;WhichDrum: T2 ; velocity: 0
@109920 , @5.796007751937985 Channel: 4 
Note on, E2 key =  40;WhichDrum: S ; velocity: 127
@109980 , @5.7991715116279074 Channel: 4 
Note on, E2 key =  40;WhichDrum: S ; velocity: 0
@109980 , @5.7991715116279074 Channel: 4 
Note on, E1 key =  28;WhichDrum: S ; velocity: 127
@110040 , @5.80233527131783 Channel: 4 
Note on, E1 key =  28;WhichDrum: S ; velocity: 0
@110040 , @5.80233527131783 Channel: 4 
Note on, D2 key =  38;WhichDrum: T2 ; velocity: 127
@110100 , @5.805499031007752 Channel: 4 
Note on, D2 key =  38;WhichDrum: T2 ; velocity: 0
@110100 , @5.805499031007752 Channel: 4 
Note on, E1 key =  28;WhichDrum: S ; velocity: 127
@110160 , @5.808662790697674 Channel: 4 
Note on, E1 key =  28;WhichDrum: S ; velocity: 0
@110160 , @5.808662790697674 Channel: 4 
Note on, E2 key =  40;WhichDrum: S ; velocity: 127
@110220 , @5.811826550387598 Channel: 4 
Note on, E2 key =  40;WhichDrum: S ; velocity: 0
@110220 , @5.811826550387598 Channel: 4 
Note on, E2 key =  40;WhichDrum: S ; velocity: 127
@110280 , @5.81499031007752 Channel: 4 
Note on, E2 key =  40;WhichDrum: S ; velocity: 0
@110280 , @5.81499031007752 Channel: 4 
Note on, E2 key =  40;WhichDrum: S ; velocity: 127
@110340 , @5.818154069767442 Channel: 4 
Note on, E2 key =  40;WhichDrum: S ; velocity: 0
@110340 , @5.818154069767442 Channel: 4 
Note on, G2 key =  43;WhichDrum: C2 ; velocity: 127
@110400 , @5.821317829457365 Channel: 4 
Note on, G2 key =  43;WhichDrum: C2 ; velocity: 0
@110400 , @5.821317829457365 Channel: 4 
Note on, F#2 key =  42;WhichDrum: C1 ; velocity: 127
@110460 , @5.824481589147287 Channel: 4 
Note on, F#2 key =  42;WhichDrum: C1 ; velocity: 0
@110460 , @5.824481589147287 Channel: 4 
Note on, E1 key =  28;WhichDrum: S ; velocity: 127
@110520 , @5.827645348837209 Channel: 4 
Note on, E1 key =  28;WhichDrum: S ; velocity: 0
@110520 , @5.827645348837209 Channel: 4 
Note on, E1 key =  28;WhichDrum: S ; velocity: 127
@110580 , @5.8308091085271325 Channel: 4 
Note on, E1 key =  28;WhichDrum: S ; velocity: 0
@110580 , @5.8308091085271325 Channel: 4 
Note on, F#2 key =  42;WhichDrum: C1 ; velocity: 127
@110640 , @5.833972868217055 Channel: 4 
Note on, F#2 key =  42;WhichDrum: C1 ; velocity: 0
@110640 , @5.833972868217055 Channel: 4 
Note on, F2 key =  41;WhichDrum: HH ; velocity: 127
@110700 , @5.837136627906977 Channel: 4 
Note on, F2 key =  41;WhichDrum: HH ; velocity: 0
@110700 , @5.837136627906977 Channel: 4 
Note on, E1 key =  28;WhichDrum: S ; velocity: 127
@110760 , @5.8403003875968995 Channel: 4 
Note on, E1 key =  28;WhichDrum: S ; velocity: 0
@110760 , @5.8403003875968995 Channel: 4 
Note on, E1 key =  28;WhichDrum: S ; velocity: 127
@110820 , @5.843464147286822 Channel: 4 
Note on, E1 key =  28;WhichDrum: S ; velocity: 0
@110820 , @5.843464147286822 Channel: 4 
Note on, F2 key =  41;WhichDrum: HH ; velocity: 127
@110880 , @5.846627906976745 Channel: 4 
Note on, F2 key =  41;WhichDrum: HH ; velocity: 0
@110880 , @5.846627906976745 Channel: 4 
Note on, E2 key =  40;WhichDrum: S ; velocity: 127
@110940 , @5.849791666666667 Channel: 4 
Note on, E2 key =  40;WhichDrum: S ; velocity: 0
@110940 , @5.849791666666667 Channel: 4 
Note on, E1 key =  28;WhichDrum: S ; velocity: 127
@111000 , @5.85295542635659 Channel: 4 
Note on, E1 key =  28;WhichDrum: S ; velocity: 0
@111000 , @5.85295542635659 Channel: 4 
Note on, E1 key =  28;WhichDrum: S ; velocity: 127
@111060 , @5.856119186046512 Channel: 4 
Note on, E1 key =  28;WhichDrum: S ; velocity: 0
@111060 , @5.856119186046512 Channel: 4 
Note on, E1 key =  28;WhichDrum: S ; velocity: 127
@111120 , @5.859282945736434 Channel: 4 
Note on, E1 key =  28;WhichDrum: S ; velocity: 0
@111120 , @5.859282945736434 Channel: 4 
Note on, E1 key =  28;WhichDrum: S ; velocity: 127
@111180 , @5.862446705426357 Channel: 4 
Note on, E1 key =  28;WhichDrum: S ; velocity: 0
@111180 , @5.862446705426357 Channel: 4 
Note on, E1 key =  28;WhichDrum: S ; velocity: 127
@111240 , @5.86561046511628 Channel: 4 
Note on, E1 key =  28;WhichDrum: S ; velocity: 0
@111240 , @5.86561046511628 Channel: 4 
Note on, E1 key =  28;WhichDrum: S ; velocity: 127
@111300 , @5.868774224806202 Channel: 4 
Note on, E1 key =  28;WhichDrum: S ; velocity: 0
@111300 , @5.868774224806202 Channel: 4 
Note on, G2 key =  43;WhichDrum: C2 ; velocity: 127
@111360 , @5.871937984496125 Channel: 4 
Note on, G2 key =  43;WhichDrum: C2 ; velocity: 0
@111360 , @5.871937984496125 Channel: 4 
Note on, F#2 key =  42;WhichDrum: C1 ; velocity: 127
@111420 , @5.875101744186047 Channel: 4 
Note on, F#2 key =  42;WhichDrum: C1 ; velocity: 0
@111420 , @5.875101744186047 Channel: 4 
Note on, E1 key =  28;WhichDrum: S ; velocity: 127
@111480 , @5.878265503875969 Channel: 4 
Note on, E1 key =  28;WhichDrum: S ; velocity: 0
@111480 , @5.878265503875969 Channel: 4 
Note on, E1 key =  28;WhichDrum: S ; velocity: 127
@111540 , @5.881429263565892 Channel: 4 
Note on, E1 key =  28;WhichDrum: S ; velocity: 0
@111540 , @5.881429263565892 Channel: 4 
Note on, F#2 key =  42;WhichDrum: C1 ; velocity: 127
@111600 , @5.884593023255815 Channel: 4 
Note on, F#2 key =  42;WhichDrum: C1 ; velocity: 0
@111600 , @5.884593023255815 Channel: 4 
Note on, D2 key =  38;WhichDrum: T2 ; velocity: 127
@111660 , @5.887756782945737 Channel: 4 
Note on, D2 key =  38;WhichDrum: T2 ; velocity: 0
@111660 , @5.887756782945737 Channel: 4 
Note on, E1 key =  28;WhichDrum: S ; velocity: 127
@111720 , @5.8909205426356595 Channel: 4 
Note on, E1 key =  28;WhichDrum: S ; velocity: 0
@111720 , @5.8909205426356595 Channel: 4 
Note on, E1 key =  28;WhichDrum: S ; velocity: 127
@111780 , @5.894084302325582 Channel: 4 
Note on, E1 key =  28;WhichDrum: S ; velocity: 0
@111780 , @5.894084302325582 Channel: 4 
Note on, D2 key =  38;WhichDrum: T2 ; velocity: 127
@111840 , @5.897248062015504 Channel: 4 
Note on, D2 key =  38;WhichDrum: T2 ; velocity: 0
@111840 , @5.897248062015504 Channel: 4 
Note on, E2 key =  40;WhichDrum: S ; velocity: 127
@111900 , @5.900411821705427 Channel: 4 
Note on, E2 key =  40;WhichDrum: S ; velocity: 0
@111900 , @5.900411821705427 Channel: 4 
Note on, E1 key =  28;WhichDrum: S ; velocity: 127
@111960 , @5.90357558139535 Channel: 4 
Note on, E1 key =  28;WhichDrum: S ; velocity: 0
@111960 , @5.90357558139535 Channel: 4 
Note on, D2 key =  38;WhichDrum: T2 ; velocity: 127
@112020 , @5.906739341085272 Channel: 4 
Note on, D2 key =  38;WhichDrum: T2 ; velocity: 0
@112020 , @5.906739341085272 Channel: 4 
Note on, E1 key =  28;WhichDrum: S ; velocity: 127
@112080 , @5.909903100775194 Channel: 4 
Note on, E1 key =  28;WhichDrum: S ; velocity: 0
@112080 , @5.909903100775194 Channel: 4 
Note on, E2 key =  40;WhichDrum: S ; velocity: 127
@112140 , @5.913066860465117 Channel: 4 
Note on, E2 key =  40;WhichDrum: S ; velocity: 0
@112140 , @5.913066860465117 Channel: 4 
Note on, E2 key =  40;WhichDrum: S ; velocity: 127
@112200 , @5.916230620155039 Channel: 4 
Note on, E2 key =  40;WhichDrum: S ; velocity: 0
@112200 , @5.916230620155039 Channel: 4 
Note on, E2 key =  40;WhichDrum: S ; velocity: 127
@112260 , @5.919394379844961 Channel: 4 
Note on, E2 key =  40;WhichDrum: S ; velocity: 0
@112260 , @5.919394379844961 Channel: 4 
Note on, G2 key =  43;WhichDrum: C2 ; velocity: 127
@112320 , @5.922558139534884 Channel: 4 
Note on, G2 key =  43;WhichDrum: C2 ; velocity: 0
@112320 , @5.922558139534884 Channel: 4 
Note on, F#2 key =  42;WhichDrum: C1 ; velocity: 127
@112380 , @5.925721899224806 Channel: 4 
Note on, F#2 key =  42;WhichDrum: C1 ; velocity: 0
@112380 , @5.925721899224806 Channel: 4 
Note on, E1 key =  28;WhichDrum: S ; velocity: 127
@112440 , @5.928885658914728 Channel: 4 
Note on, E1 key =  28;WhichDrum: S ; velocity: 0
@112440 , @5.928885658914728 Channel: 4 
Note on, E1 key =  28;WhichDrum: S ; velocity: 127
@112500 , @5.932049418604651 Channel: 4 
Note on, E1 key =  28;WhichDrum: S ; velocity: 0
@112500 , @5.932049418604651 Channel: 4 
Note on, F#2 key =  42;WhichDrum: C1 ; velocity: 127
@112560 , @5.935213178294574 Channel: 4 
Note on, F#2 key =  42;WhichDrum: C1 ; velocity: 0
@112560 , @5.935213178294574 Channel: 4 
Note on, F2 key =  41;WhichDrum: HH ; velocity: 127
@112620 , @5.938376937984496 Channel: 4 
Note on, F2 key =  41;WhichDrum: HH ; velocity: 0
@112620 , @5.938376937984496 Channel: 4 
Note on, E1 key =  28;WhichDrum: S ; velocity: 127
@112680 , @5.9415406976744185 Channel: 4 
Note on, E1 key =  28;WhichDrum: S ; velocity: 0
@112680 , @5.9415406976744185 Channel: 4 
Note on, E1 key =  28;WhichDrum: S ; velocity: 127
@112740 , @5.944704457364341 Channel: 4 
Note on, E1 key =  28;WhichDrum: S ; velocity: 0
@112740 , @5.944704457364341 Channel: 4 
Note on, F2 key =  41;WhichDrum: HH ; velocity: 127
@112800 , @5.947868217054263 Channel: 4 
Note on, F2 key =  41;WhichDrum: HH ; velocity: 0
@112800 , @5.947868217054263 Channel: 4 
Note on, E2 key =  40;WhichDrum: S ; velocity: 127
@112860 , @5.951031976744186 Channel: 4 
Note on, E2 key =  40;WhichDrum: S ; velocity: 0
@112860 , @5.951031976744186 Channel: 4 
Note on, E1 key =  28;WhichDrum: S ; velocity: 127
@112920 , @5.954195736434109 Channel: 4 
Note on, E1 key =  28;WhichDrum: S ; velocity: 0
@112920 , @5.954195736434109 Channel: 4 
Note on, E1 key =  28;WhichDrum: S ; velocity: 127
@112980 , @5.957359496124031 Channel: 4 
Note on, E1 key =  28;WhichDrum: S ; velocity: 0
@112980 , @5.957359496124031 Channel: 4 
Note on, E1 key =  28;WhichDrum: S ; velocity: 127
@113040 , @5.960523255813953 Channel: 4 
Note on, E1 key =  28;WhichDrum: S ; velocity: 0
@113040 , @5.960523255813953 Channel: 4 
Note on, E1 key =  28;WhichDrum: S ; velocity: 127
@113100 , @5.963687015503876 Channel: 4 
Note on, E1 key =  28;WhichDrum: S ; velocity: 0
@113100 , @5.963687015503876 Channel: 4 
Note on, E1 key =  28;WhichDrum: S ; velocity: 127
@113160 , @5.966850775193798 Channel: 4 
Note on, E1 key =  28;WhichDrum: S ; velocity: 0
@113160 , @5.966850775193798 Channel: 4 
Note on, E1 key =  28;WhichDrum: S ; velocity: 127
@113220 , @5.970014534883721 Channel: 4 
Note on, E1 key =  28;WhichDrum: S ; velocity: 0
@113220 , @5.970014534883721 Channel: 4 
Note on, G2 key =  43;WhichDrum: C2 ; velocity: 127
@113280 , @5.973178294573644 Channel: 4 
Note on, G2 key =  43;WhichDrum: C2 ; velocity: 0
@113280 , @5.973178294573644 Channel: 4 
Note on, F#2 key =  42;WhichDrum: C1 ; velocity: 127
@113340 , @5.976342054263566 Channel: 4 
Note on, F#2 key =  42;WhichDrum: C1 ; velocity: 0
@113340 , @5.976342054263566 Channel: 4 
Note on, E1 key =  28;WhichDrum: S ; velocity: 127
@113400 , @5.979505813953488 Channel: 4 
Note on, E1 key =  28;WhichDrum: S ; velocity: 0
@113400 , @5.979505813953488 Channel: 4 
Note on, E1 key =  28;WhichDrum: S ; velocity: 127
@113460 , @5.982669573643411 Channel: 4 
Note on, E1 key =  28;WhichDrum: S ; velocity: 0
@113460 , @5.982669573643411 Channel: 4 
Note on, F#2 key =  42;WhichDrum: C1 ; velocity: 127
@113520 , @5.985833333333333 Channel: 4 
Note on, F#2 key =  42;WhichDrum: C1 ; velocity: 0
@113520 , @5.985833333333333 Channel: 4 
Note on, D2 key =  38;WhichDrum: T2 ; velocity: 127
@113580 , @5.988997093023256 Channel: 4 
Note on, D2 key =  38;WhichDrum: T2 ; velocity: 0
@113580 , @5.988997093023256 Channel: 4 
Note on, E1 key =  28;WhichDrum: S ; velocity: 127
@113640 , @5.992160852713178 Channel: 4 
Note on, E1 key =  28;WhichDrum: S ; velocity: 0
@113640 , @5.992160852713178 Channel: 4 
Note on, E1 key =  28;WhichDrum: S ; velocity: 127
@113700 , @5.995324612403101 Channel: 4 
Note on, E1 key =  28;WhichDrum: S ; velocity: 0
@113700 , @5.995324612403101 Channel: 4 
Note on, D2 key =  38;WhichDrum: T2 ; velocity: 127
@113760 , @5.998488372093023 Channel: 4 
Note on, D2 key =  38;WhichDrum: T2 ; velocity: 0
@113760 , @5.998488372093023 Channel: 4 
Note on, E2 key =  40;WhichDrum: S ; velocity: 127
@113820 , @6.001652131782945 Channel: 4 
Note on, E2 key =  40;WhichDrum: S ; velocity: 0
@113820 , @6.001652131782945 Channel: 4 
Note on, E1 key =  28;WhichDrum: S ; velocity: 127
@113880 , @6.004815891472869 Channel: 4 
Note on, E1 key =  28;WhichDrum: S ; velocity: 0
@113880 , @6.004815891472869 Channel: 4 
Note on, D2 key =  38;WhichDrum: T2 ; velocity: 127
@113940 , @6.007979651162791 Channel: 4 
Note on, D2 key =  38;WhichDrum: T2 ; velocity: 0
@113940 , @6.007979651162791 Channel: 4 
Note on, E1 key =  28;WhichDrum: S ; velocity: 127
@114000 , @6.011143410852713 Channel: 4 
Note on, E1 key =  28;WhichDrum: S ; velocity: 0
@114000 , @6.011143410852713 Channel: 4 
Note on, E2 key =  40;WhichDrum: S ; velocity: 127
@114060 , @6.014307170542636 Channel: 4 
Note on, E2 key =  40;WhichDrum: S ; velocity: 0
@114060 , @6.014307170542636 Channel: 4 
Note on, E2 key =  40;WhichDrum: S ; velocity: 127
@114120 , @6.017470930232558 Channel: 4 
Note on, E2 key =  40;WhichDrum: S ; velocity: 0
@114120 , @6.017470930232558 Channel: 4 
Note on, E2 key =  40;WhichDrum: S ; velocity: 127
@114240 , @6.0237984496124035 Channel: 4 
Note on, E2 key =  40;WhichDrum: S ; velocity: 0
@114240 , @6.0237984496124035 Channel: 4 
Note on, E1 key =  28;WhichDrum: S ; velocity: 127
@114300 , @6.026962209302326 Channel: 4 
Note on, E1 key =  28;WhichDrum: S ; velocity: 0
@114300 , @6.026962209302326 Channel: 4 
Note on, E1 key =  28;WhichDrum: S ; velocity: 127
@114360 , @6.030125968992248 Channel: 4 
Note on, E1 key =  28;WhichDrum: S ; velocity: 0
@114360 , @6.030125968992248 Channel: 4 
Note on, E1 key =  28;WhichDrum: S ; velocity: 127
@114420 , @6.0332897286821705 Channel: 4 
Note on, E1 key =  28;WhichDrum: S ; velocity: 0
@114420 , @6.0332897286821705 Channel: 4 
Note on, E1 key =  28;WhichDrum: S ; velocity: 127
@114480 , @6.036453488372093 Channel: 4 
Note on, E1 key =  28;WhichDrum: S ; velocity: 0
@114480 , @6.036453488372093 Channel: 4 
Note on, E1 key =  28;WhichDrum: S ; velocity: 127
@114540 , @6.039617248062015 Channel: 4 
Note on, E1 key =  28;WhichDrum: S ; velocity: 0
@114540 , @6.039617248062015 Channel: 4 
Note on, G1 key =  31;WhichDrum: C2 ; velocity: 127
@114600 , @6.042781007751938 Channel: 4 
Note on, G1 key =  31;WhichDrum: C2 ; velocity: 0
@114600 , @6.042781007751938 Channel: 4 
Note on, E1 key =  28;WhichDrum: S ; velocity: 127
@114660 , @6.045944767441861 Channel: 4 
Note on, E1 key =  28;WhichDrum: S ; velocity: 0
@114660 , @6.045944767441861 Channel: 4 
Note on, E1 key =  28;WhichDrum: S ; velocity: 127
@114720 , @6.049108527131783 Channel: 4 
Note on, E1 key =  28;WhichDrum: S ; velocity: 0
@114720 , @6.049108527131783 Channel: 4 
Note on, F#1 key =  30;WhichDrum: C1 ; velocity: 127
@114780 , @6.052272286821705 Channel: 4 
Note on, F#1 key =  30;WhichDrum: C1 ; velocity: 0
@114780 , @6.052272286821705 Channel: 4 
Note on, E1 key =  28;WhichDrum: S ; velocity: 127
@114840 , @6.055436046511628 Channel: 4 
Note on, E1 key =  28;WhichDrum: S ; velocity: 0
@114840 , @6.055436046511628 Channel: 4 
Note on, E1 key =  28;WhichDrum: S ; velocity: 127
@114900 , @6.058599806201551 Channel: 4 
Note on, E1 key =  28;WhichDrum: S ; velocity: 0
@114900 , @6.058599806201551 Channel: 4 
Note on, G1 key =  31;WhichDrum: C2 ; velocity: 127
@114960 , @6.061763565891473 Channel: 4 
Note on, G1 key =  31;WhichDrum: C2 ; velocity: 0
@114960 , @6.061763565891473 Channel: 4 
Note on, E1 key =  28;WhichDrum: S ; velocity: 127
@115020 , @6.064927325581396 Channel: 4 
Note on, E1 key =  28;WhichDrum: S ; velocity: 0
@115020 , @6.064927325581396 Channel: 4 
Note on, E1 key =  28;WhichDrum: S ; velocity: 127
@115080 , @6.068091085271318 Channel: 4 
Note on, E1 key =  28;WhichDrum: S ; velocity: 0
@115080 , @6.068091085271318 Channel: 4 
Note on, A1 key =  33;WhichDrum: T3 ; velocity: 127
@115140 , @6.07125484496124 Channel: 4 
Note on, A1 key =  33;WhichDrum: T3 ; velocity: 0
@115140 , @6.07125484496124 Channel: 4 
Note on, G1 key =  31;WhichDrum: C2 ; velocity: 127
@115200 , @6.074418604651163 Channel: 4 
Note on, G1 key =  31;WhichDrum: C2 ; velocity: 0
@115200 , @6.074418604651163 Channel: 4 
Note on, E1 key =  28;WhichDrum: S ; velocity: 127
@115260 , @6.077582364341086 Channel: 4 
Note on, E1 key =  28;WhichDrum: S ; velocity: 0
@115260 , @6.077582364341086 Channel: 4 
Note on, E1 key =  28;WhichDrum: S ; velocity: 127
@115320 , @6.080746124031008 Channel: 4 
Note on, E1 key =  28;WhichDrum: S ; velocity: 0
@115320 , @6.080746124031008 Channel: 4 
Note on, E1 key =  28;WhichDrum: S ; velocity: 127
@115380 , @6.0839098837209304 Channel: 4 
Note on, E1 key =  28;WhichDrum: S ; velocity: 0
@115380 , @6.0839098837209304 Channel: 4 
Note on, E1 key =  28;WhichDrum: S ; velocity: 127
@115440 , @6.087073643410853 Channel: 4 
Note on, E1 key =  28;WhichDrum: S ; velocity: 0
@115440 , @6.087073643410853 Channel: 4 
Note on, E1 key =  28;WhichDrum: S ; velocity: 127
@115500 , @6.090237403100775 Channel: 4 
Note on, E1 key =  28;WhichDrum: S ; velocity: 0
@115500 , @6.090237403100775 Channel: 4 
Note on, G1 key =  31;WhichDrum: C2 ; velocity: 127
@115560 , @6.093401162790697 Channel: 4 
Note on, G1 key =  31;WhichDrum: C2 ; velocity: 0
@115560 , @6.093401162790697 Channel: 4 
Note on, E1 key =  28;WhichDrum: S ; velocity: 127
@115620 , @6.096564922480621 Channel: 4 
Note on, E1 key =  28;WhichDrum: S ; velocity: 0
@115620 , @6.096564922480621 Channel: 4 
Note on, E1 key =  28;WhichDrum: S ; velocity: 127
@115680 , @6.099728682170543 Channel: 4 
Note on, E1 key =  28;WhichDrum: S ; velocity: 0
@115680 , @6.099728682170543 Channel: 4 
Note on, F#1 key =  30;WhichDrum: C1 ; velocity: 127
@115740 , @6.102892441860465 Channel: 4 
Note on, F#1 key =  30;WhichDrum: C1 ; velocity: 0
@115740 , @6.102892441860465 Channel: 4 
Note on, E1 key =  28;WhichDrum: S ; velocity: 127
@115800 , @6.106056201550388 Channel: 4 
Note on, E1 key =  28;WhichDrum: S ; velocity: 0
@115800 , @6.106056201550388 Channel: 4 
Note on, E1 key =  28;WhichDrum: S ; velocity: 127
@115860 , @6.10921996124031 Channel: 4 
Note on, E1 key =  28;WhichDrum: S ; velocity: 0
@115860 , @6.10921996124031 Channel: 4 
Note on, G1 key =  31;WhichDrum: C2 ; velocity: 127
@115920 , @6.112383720930233 Channel: 4 
Note on, G1 key =  31;WhichDrum: C2 ; velocity: 0
@115920 , @6.112383720930233 Channel: 4 
Note on, E1 key =  28;WhichDrum: S ; velocity: 127
@115980 , @6.1155474806201555 Channel: 4 
Note on, E1 key =  28;WhichDrum: S ; velocity: 0
@115980 , @6.1155474806201555 Channel: 4 
Note on, E1 key =  28;WhichDrum: S ; velocity: 127
@116040 , @6.118711240310078 Channel: 4 
Note on, E1 key =  28;WhichDrum: S ; velocity: 0
@116040 , @6.118711240310078 Channel: 4 
Note on, A1 key =  33;WhichDrum: T3 ; velocity: 127
@116100 , @6.121875 Channel: 4 
Note on, A1 key =  33;WhichDrum: T3 ; velocity: 0
@116100 , @6.121875 Channel: 4 
Note on, G1 key =  31;WhichDrum: C2 ; velocity: 127
@116160 , @6.1250387596899225 Channel: 4 
Note on, G1 key =  31;WhichDrum: C2 ; velocity: 0
@116160 , @6.1250387596899225 Channel: 4 
Note on, E1 key =  28;WhichDrum: S ; velocity: 127
@116220 , @6.128202519379845 Channel: 4 
Note on, E1 key =  28;WhichDrum: S ; velocity: 0
@116220 , @6.128202519379845 Channel: 4 
Note on, E1 key =  28;WhichDrum: S ; velocity: 127
@116280 , @6.131366279069768 Channel: 4 
Note on, E1 key =  28;WhichDrum: S ; velocity: 0
@116280 , @6.131366279069768 Channel: 4 
Note on, E1 key =  28;WhichDrum: S ; velocity: 127
@116340 , @6.13453003875969 Channel: 4 
Note on, E1 key =  28;WhichDrum: S ; velocity: 0
@116340 , @6.13453003875969 Channel: 4 
Note on, E1 key =  28;WhichDrum: S ; velocity: 127
@116400 , @6.137693798449613 Channel: 4 
Note on, E1 key =  28;WhichDrum: S ; velocity: 0
@116400 , @6.137693798449613 Channel: 4 
Note on, E1 key =  28;WhichDrum: S ; velocity: 127
@116460 , @6.140857558139535 Channel: 4 
Note on, E1 key =  28;WhichDrum: S ; velocity: 0
@116460 , @6.140857558139535 Channel: 4 
Note on, G1 key =  31;WhichDrum: C2 ; velocity: 127
@116520 , @6.144021317829457 Channel: 4 
Note on, G1 key =  31;WhichDrum: C2 ; velocity: 0
@116520 , @6.144021317829457 Channel: 4 
Note on, E1 key =  28;WhichDrum: S ; velocity: 127
@116580 , @6.14718507751938 Channel: 4 
Note on, E1 key =  28;WhichDrum: S ; velocity: 0
@116580 , @6.14718507751938 Channel: 4 
Note on, E1 key =  28;WhichDrum: S ; velocity: 127
@116640 , @6.150348837209303 Channel: 4 
Note on, E1 key =  28;WhichDrum: S ; velocity: 0
@116640 , @6.150348837209303 Channel: 4 
Note on, F#1 key =  30;WhichDrum: C1 ; velocity: 127
@116700 , @6.153512596899225 Channel: 4 
Note on, F#1 key =  30;WhichDrum: C1 ; velocity: 0
@116700 , @6.153512596899225 Channel: 4 
Note on, E1 key =  28;WhichDrum: S ; velocity: 127
@116760 , @6.156676356589148 Channel: 4 
Note on, E1 key =  28;WhichDrum: S ; velocity: 0
@116760 , @6.156676356589148 Channel: 4 
Note on, E1 key =  28;WhichDrum: S ; velocity: 127
@116820 , @6.15984011627907 Channel: 4 
Note on, E1 key =  28;WhichDrum: S ; velocity: 0
@116820 , @6.15984011627907 Channel: 4 
Note on, G1 key =  31;WhichDrum: C2 ; velocity: 127
@116880 , @6.163003875968992 Channel: 4 
Note on, G1 key =  31;WhichDrum: C2 ; velocity: 0
@116880 , @6.163003875968992 Channel: 4 
Note on, E1 key =  28;WhichDrum: S ; velocity: 127
@116940 , @6.1661676356589155 Channel: 4 
Note on, E1 key =  28;WhichDrum: S ; velocity: 0
@116940 , @6.1661676356589155 Channel: 4 
Note on, E1 key =  28;WhichDrum: S ; velocity: 127
@117000 , @6.169331395348838 Channel: 4 
Note on, E1 key =  28;WhichDrum: S ; velocity: 0
@117000 , @6.169331395348838 Channel: 4 
Note on, A1 key =  33;WhichDrum: T3 ; velocity: 127
@117060 , @6.17249515503876 Channel: 4 
Note on, A1 key =  33;WhichDrum: T3 ; velocity: 0
@117060 , @6.17249515503876 Channel: 4 
Note on, G1 key =  31;WhichDrum: C2 ; velocity: 127
@117120 , @6.1756589147286824 Channel: 4 
Note on, G1 key =  31;WhichDrum: C2 ; velocity: 0
@117120 , @6.1756589147286824 Channel: 4 
Note on, E1 key =  28;WhichDrum: S ; velocity: 127
@117180 , @6.178822674418605 Channel: 4 
Note on, E1 key =  28;WhichDrum: S ; velocity: 0
@117180 , @6.178822674418605 Channel: 4 
Note on, E1 key =  28;WhichDrum: S ; velocity: 127
@117240 , @6.181986434108527 Channel: 4 
Note on, E1 key =  28;WhichDrum: S ; velocity: 0
@117240 , @6.181986434108527 Channel: 4 
Note on, E1 key =  28;WhichDrum: S ; velocity: 127
@117300 , @6.18515019379845 Channel: 4 
Note on, E1 key =  28;WhichDrum: S ; velocity: 0
@117300 , @6.18515019379845 Channel: 4 
Note on, E1 key =  28;WhichDrum: S ; velocity: 127
@117360 , @6.188313953488373 Channel: 4 
Note on, E1 key =  28;WhichDrum: S ; velocity: 0
@117360 , @6.188313953488373 Channel: 4 
Note on, E1 key =  28;WhichDrum: S ; velocity: 127
@117420 , @6.191477713178295 Channel: 4 
Note on, E1 key =  28;WhichDrum: S ; velocity: 0
@117420 , @6.191477713178295 Channel: 4 
Note on, G1 key =  31;WhichDrum: C2 ; velocity: 127
@117480 , @6.194641472868217 Channel: 4 
Note on, G1 key =  31;WhichDrum: C2 ; velocity: 0
@117480 , @6.194641472868217 Channel: 4 
Note on, E1 key =  28;WhichDrum: S ; velocity: 127
@117540 , @6.19780523255814 Channel: 4 
Note on, E1 key =  28;WhichDrum: S ; velocity: 0
@117540 , @6.19780523255814 Channel: 4 
Note on, E1 key =  28;WhichDrum: S ; velocity: 127
@117600 , @6.200968992248062 Channel: 4 
Note on, E1 key =  28;WhichDrum: S ; velocity: 0
@117600 , @6.200968992248062 Channel: 4 
Note on, F#1 key =  30;WhichDrum: C1 ; velocity: 127
@117660 , @6.204132751937985 Channel: 4 
Note on, F#1 key =  30;WhichDrum: C1 ; velocity: 0
@117660 , @6.204132751937985 Channel: 4 
Note on, E1 key =  28;WhichDrum: S ; velocity: 127
@117720 , @6.2072965116279075 Channel: 4 
Note on, E1 key =  28;WhichDrum: S ; velocity: 0
@117720 , @6.2072965116279075 Channel: 4 
Note on, E1 key =  28;WhichDrum: S ; velocity: 127
@117780 , @6.21046027131783 Channel: 4 
Note on, E1 key =  28;WhichDrum: S ; velocity: 0
@117780 , @6.21046027131783 Channel: 4 
Note on, G1 key =  31;WhichDrum: C2 ; velocity: 127
@117840 , @6.213624031007752 Channel: 4 
Note on, G1 key =  31;WhichDrum: C2 ; velocity: 0
@117840 , @6.213624031007752 Channel: 4 
Note on, E1 key =  28;WhichDrum: S ; velocity: 127
@117900 , @6.2167877906976745 Channel: 4 
Note on, E1 key =  28;WhichDrum: S ; velocity: 0
@117900 , @6.2167877906976745 Channel: 4 
Note on, E1 key =  28;WhichDrum: S ; velocity: 127
@117960 , @6.219951550387598 Channel: 4 
Note on, E1 key =  28;WhichDrum: S ; velocity: 0
@117960 , @6.219951550387598 Channel: 4 
Note on, A1 key =  33;WhichDrum: T3 ; velocity: 127
@118020 , @6.22311531007752 Channel: 4 
Note on, A1 key =  33;WhichDrum: T3 ; velocity: 0
@118020 , @6.22311531007752 Channel: 4 
Note on, G1 key =  31;WhichDrum: C2 ; velocity: 127
@118080 , @6.226279069767442 Channel: 4 
Note on, G1 key =  31;WhichDrum: C2 ; velocity: 0
@118080 , @6.226279069767442 Channel: 4 
Note on, E1 key =  28;WhichDrum: S ; velocity: 127
@118140 , @6.229442829457365 Channel: 4 
Note on, E1 key =  28;WhichDrum: S ; velocity: 0
@118140 , @6.229442829457365 Channel: 4 
Note on, E1 key =  28;WhichDrum: S ; velocity: 127
@118200 , @6.232606589147287 Channel: 4 
Note on, E1 key =  28;WhichDrum: S ; velocity: 0
@118200 , @6.232606589147287 Channel: 4 
Note on, E1 key =  28;WhichDrum: S ; velocity: 127
@118260 , @6.235770348837209 Channel: 4 
Note on, E1 key =  28;WhichDrum: S ; velocity: 0
@118260 , @6.235770348837209 Channel: 4 
Note on, E1 key =  28;WhichDrum: S ; velocity: 127
@118320 , @6.238934108527133 Channel: 4 
Note on, E1 key =  28;WhichDrum: S ; velocity: 0
@118320 , @6.238934108527133 Channel: 4 
Note on, E1 key =  28;WhichDrum: S ; velocity: 127
@118380 , @6.242097868217055 Channel: 4 
Note on, E1 key =  28;WhichDrum: S ; velocity: 0
@118380 , @6.242097868217055 Channel: 4 
Note on, G1 key =  31;WhichDrum: C2 ; velocity: 127
@118440 , @6.245261627906977 Channel: 4 
Note on, G1 key =  31;WhichDrum: C2 ; velocity: 0
@118440 , @6.245261627906977 Channel: 4 
Note on, E1 key =  28;WhichDrum: S ; velocity: 127
@118500 , @6.2484253875969 Channel: 4 
Note on, E1 key =  28;WhichDrum: S ; velocity: 0
@118500 , @6.2484253875969 Channel: 4 
Note on, E1 key =  28;WhichDrum: S ; velocity: 127
@118560 , @6.251589147286822 Channel: 4 
Note on, E1 key =  28;WhichDrum: S ; velocity: 0
@118560 , @6.251589147286822 Channel: 4 
Note on, F#1 key =  30;WhichDrum: C1 ; velocity: 127
@118620 , @6.254752906976744 Channel: 4 
Note on, F#1 key =  30;WhichDrum: C1 ; velocity: 0
@118620 , @6.254752906976744 Channel: 4 
Note on, E1 key =  28;WhichDrum: S ; velocity: 127
@118680 , @6.2579166666666675 Channel: 4 
Note on, E1 key =  28;WhichDrum: S ; velocity: 0
@118680 , @6.2579166666666675 Channel: 4 
Note on, E1 key =  28;WhichDrum: S ; velocity: 127
@118740 , @6.26108042635659 Channel: 4 
Note on, E1 key =  28;WhichDrum: S ; velocity: 0
@118740 , @6.26108042635659 Channel: 4 
Note on, G1 key =  31;WhichDrum: C2 ; velocity: 127
@118800 , @6.264244186046512 Channel: 4 
Note on, G1 key =  31;WhichDrum: C2 ; velocity: 0
@118800 , @6.264244186046512 Channel: 4 
Note on, E1 key =  28;WhichDrum: S ; velocity: 127
@118860 , @6.2674079457364344 Channel: 4 
Note on, E1 key =  28;WhichDrum: S ; velocity: 0
@118860 , @6.2674079457364344 Channel: 4 
Note on, E1 key =  28;WhichDrum: S ; velocity: 127
@118920 , @6.270571705426357 Channel: 4 
Note on, E1 key =  28;WhichDrum: S ; velocity: 0
@118920 , @6.270571705426357 Channel: 4 
Note on, A1 key =  33;WhichDrum: T3 ; velocity: 127
@118980 , @6.27373546511628 Channel: 4 
Note on, A1 key =  33;WhichDrum: T3 ; velocity: 0
@118980 , @6.27373546511628 Channel: 4 
Note on, G1 key =  31;WhichDrum: C2 ; velocity: 127
@119040 , @6.276899224806202 Channel: 4 
Note on, G1 key =  31;WhichDrum: C2 ; velocity: 0
@119040 , @6.276899224806202 Channel: 4 
Note on, E1 key =  28;WhichDrum: S ; velocity: 127
@119100 , @6.280062984496125 Channel: 4 
Note on, E1 key =  28;WhichDrum: S ; velocity: 0
@119100 , @6.280062984496125 Channel: 4 
Note on, E1 key =  28;WhichDrum: S ; velocity: 127
@119160 , @6.283226744186047 Channel: 4 
Note on, E1 key =  28;WhichDrum: S ; velocity: 0
@119160 , @6.283226744186047 Channel: 4 
Note on, E1 key =  28;WhichDrum: S ; velocity: 127
@119220 , @6.286390503875969 Channel: 4 
Note on, E1 key =  28;WhichDrum: S ; velocity: 0
@119220 , @6.286390503875969 Channel: 4 
Note on, E1 key =  28;WhichDrum: S ; velocity: 127
@119280 , @6.289554263565892 Channel: 4 
Note on, E1 key =  28;WhichDrum: S ; velocity: 0
@119280 , @6.289554263565892 Channel: 4 
Note on, E1 key =  28;WhichDrum: S ; velocity: 127
@119340 , @6.292718023255815 Channel: 4 
Note on, E1 key =  28;WhichDrum: S ; velocity: 0
@119340 , @6.292718023255815 Channel: 4 
Note on, G1 key =  31;WhichDrum: C2 ; velocity: 127
@119400 , @6.295881782945737 Channel: 4 
Note on, G1 key =  31;WhichDrum: C2 ; velocity: 0
@119400 , @6.295881782945737 Channel: 4 
Note on, E1 key =  28;WhichDrum: S ; velocity: 127
@119460 , @6.2990455426356595 Channel: 4 
Note on, E1 key =  28;WhichDrum: S ; velocity: 0
@119460 , @6.2990455426356595 Channel: 4 
Note on, E1 key =  28;WhichDrum: S ; velocity: 127
@119520 , @6.302209302325582 Channel: 4 
Note on, E1 key =  28;WhichDrum: S ; velocity: 0
@119520 , @6.302209302325582 Channel: 4 
Note on, F#1 key =  30;WhichDrum: C1 ; velocity: 127
@119580 , @6.305373062015504 Channel: 4 
Note on, F#1 key =  30;WhichDrum: C1 ; velocity: 0
@119580 , @6.305373062015504 Channel: 4 
Note on, E1 key =  28;WhichDrum: S ; velocity: 127
@119640 , @6.3085368217054265 Channel: 4 
Note on, E1 key =  28;WhichDrum: S ; velocity: 0
@119640 , @6.3085368217054265 Channel: 4 
Note on, E1 key =  28;WhichDrum: S ; velocity: 127
@119700 , @6.31170058139535 Channel: 4 
Note on, E1 key =  28;WhichDrum: S ; velocity: 0
@119700 , @6.31170058139535 Channel: 4 
Note on, G1 key =  31;WhichDrum: C2 ; velocity: 127
@119760 , @6.314864341085272 Channel: 4 
Note on, G1 key =  31;WhichDrum: C2 ; velocity: 0
@119760 , @6.314864341085272 Channel: 4 
Note on, E1 key =  28;WhichDrum: S ; velocity: 127
@119820 , @6.318028100775194 Channel: 4 
Note on, E1 key =  28;WhichDrum: S ; velocity: 0
@119820 , @6.318028100775194 Channel: 4 
Note on, E1 key =  28;WhichDrum: S ; velocity: 127
@119880 , @6.321191860465117 Channel: 4 
Note on, E1 key =  28;WhichDrum: S ; velocity: 0
@119880 , @6.321191860465117 Channel: 4 
Note on, A1 key =  33;WhichDrum: T3 ; velocity: 127
@119940 , @6.324355620155039 Channel: 4 
Note on, A1 key =  33;WhichDrum: T3 ; velocity: 0
@119940 , @6.324355620155039 Channel: 4 
Note on, G1 key =  31;WhichDrum: C2 ; velocity: 127
@120000 , @6.327519379844961 Channel: 4 
Note on, G1 key =  31;WhichDrum: C2 ; velocity: 0
@120000 , @6.327519379844961 Channel: 4 
Note on, E1 key =  28;WhichDrum: S ; velocity: 127
@120060 , @6.330683139534884 Channel: 4 
Note on, E1 key =  28;WhichDrum: S ; velocity: 0
@120060 , @6.330683139534884 Channel: 4 
Note on, E1 key =  28;WhichDrum: S ; velocity: 127
@120120 , @6.333846899224806 Channel: 4 
Note on, E1 key =  28;WhichDrum: S ; velocity: 0
@120120 , @6.333846899224806 Channel: 4 
Note on, E1 key =  28;WhichDrum: S ; velocity: 127
@120180 , @6.337010658914728 Channel: 4 
Note on, E1 key =  28;WhichDrum: S ; velocity: 0
@120180 , @6.337010658914728 Channel: 4 
Note on, E1 key =  28;WhichDrum: S ; velocity: 127
@120240 , @6.340174418604651 Channel: 4 
Note on, E1 key =  28;WhichDrum: S ; velocity: 0
@120240 , @6.340174418604651 Channel: 4 
Note on, E1 key =  28;WhichDrum: S ; velocity: 127
@120300 , @6.343338178294574 Channel: 4 
Note on, E1 key =  28;WhichDrum: S ; velocity: 0
@120300 , @6.343338178294574 Channel: 4 
Note on, G1 key =  31;WhichDrum: C2 ; velocity: 127
@120360 , @6.346501937984496 Channel: 4 
Note on, G1 key =  31;WhichDrum: C2 ; velocity: 0
@120360 , @6.346501937984496 Channel: 4 
Note on, E1 key =  28;WhichDrum: S ; velocity: 127
@120420 , @6.349665697674419 Channel: 4 
Note on, E1 key =  28;WhichDrum: S ; velocity: 0
@120420 , @6.349665697674419 Channel: 4 
Note on, E1 key =  28;WhichDrum: S ; velocity: 127
@120480 , @6.352829457364341 Channel: 4 
Note on, E1 key =  28;WhichDrum: S ; velocity: 0
@120480 , @6.352829457364341 Channel: 4 
Note on, F#1 key =  30;WhichDrum: C1 ; velocity: 127
@120540 , @6.355993217054263 Channel: 4 
Note on, F#1 key =  30;WhichDrum: C1 ; velocity: 0
@120540 , @6.355993217054263 Channel: 4 
Note on, E1 key =  28;WhichDrum: S ; velocity: 127
@120600 , @6.359156976744186 Channel: 4 
Note on, E1 key =  28;WhichDrum: S ; velocity: 0
@120600 , @6.359156976744186 Channel: 4 
Note on, E1 key =  28;WhichDrum: S ; velocity: 127
@120660 , @6.362320736434109 Channel: 4 
Note on, E1 key =  28;WhichDrum: S ; velocity: 0
@120660 , @6.362320736434109 Channel: 4 
Note on, G1 key =  31;WhichDrum: C2 ; velocity: 127
@120720 , @6.365484496124031 Channel: 4 
Note on, G1 key =  31;WhichDrum: C2 ; velocity: 0
@120720 , @6.365484496124031 Channel: 4 
Note on, E1 key =  28;WhichDrum: S ; velocity: 127
@120780 , @6.368648255813953 Channel: 4 
Note on, E1 key =  28;WhichDrum: S ; velocity: 0
@120780 , @6.368648255813953 Channel: 4 
Note on, E1 key =  28;WhichDrum: S ; velocity: 127
@120840 , @6.371812015503876 Channel: 4 
Note on, E1 key =  28;WhichDrum: S ; velocity: 0
@120840 , @6.371812015503876 Channel: 4 
Note on, A1 key =  33;WhichDrum: T3 ; velocity: 127
@120900 , @6.374975775193798 Channel: 4 
Note on, A1 key =  33;WhichDrum: T3 ; velocity: 0
@120900 , @6.374975775193798 Channel: 4 
Note on, G1 key =  31;WhichDrum: C2 ; velocity: 127
@120960 , @6.378139534883721 Channel: 4 
Note on, G1 key =  31;WhichDrum: C2 ; velocity: 0
@120960 , @6.378139534883721 Channel: 4 
Note on, E1 key =  28;WhichDrum: S ; velocity: 127
@121020 , @6.381303294573644 Channel: 4 
Note on, E1 key =  28;WhichDrum: S ; velocity: 0
@121020 , @6.381303294573644 Channel: 4 
Note on, E1 key =  28;WhichDrum: S ; velocity: 127
@121080 , @6.384467054263566 Channel: 4 
Note on, E1 key =  28;WhichDrum: S ; velocity: 0
@121080 , @6.384467054263566 Channel: 4 
Note on, E1 key =  28;WhichDrum: S ; velocity: 127
@121140 , @6.387630813953488 Channel: 4 
Note on, E1 key =  28;WhichDrum: S ; velocity: 0
@121140 , @6.387630813953488 Channel: 4 
Note on, E1 key =  28;WhichDrum: S ; velocity: 127
@121200 , @6.390794573643411 Channel: 4 
Note on, E1 key =  28;WhichDrum: S ; velocity: 0
@121200 , @6.390794573643411 Channel: 4 
Note on, E1 key =  28;WhichDrum: S ; velocity: 127
@121260 , @6.393958333333333 Channel: 4 
Note on, E1 key =  28;WhichDrum: S ; velocity: 0
@121260 , @6.393958333333333 Channel: 4 
Note on, G1 key =  31;WhichDrum: C2 ; velocity: 127
@121320 , @6.397122093023256 Channel: 4 
Note on, G1 key =  31;WhichDrum: C2 ; velocity: 0
@121320 , @6.397122093023256 Channel: 4 
Note on, E1 key =  28;WhichDrum: S ; velocity: 127
@121380 , @6.4002858527131785 Channel: 4 
Note on, E1 key =  28;WhichDrum: S ; velocity: 0
@121380 , @6.4002858527131785 Channel: 4 
Note on, E1 key =  28;WhichDrum: S ; velocity: 127
@121440 , @6.403449612403101 Channel: 4 
Note on, E1 key =  28;WhichDrum: S ; velocity: 0
@121440 , @6.403449612403101 Channel: 4 
Note on, F#1 key =  30;WhichDrum: C1 ; velocity: 127
@121500 , @6.406613372093023 Channel: 4 
Note on, F#1 key =  30;WhichDrum: C1 ; velocity: 0
@121500 , @6.406613372093023 Channel: 4 
Note on, E1 key =  28;WhichDrum: S ; velocity: 127
@121560 , @6.4097771317829455 Channel: 4 
Note on, E1 key =  28;WhichDrum: S ; velocity: 0
@121560 , @6.4097771317829455 Channel: 4 
Note on, E1 key =  28;WhichDrum: S ; velocity: 127
@121620 , @6.412940891472868 Channel: 4 
Note on, E1 key =  28;WhichDrum: S ; velocity: 0
@121620 , @6.412940891472868 Channel: 4 
Note on, G1 key =  31;WhichDrum: C2 ; velocity: 127
@121680 , @6.416104651162791 Channel: 4 
Note on, G1 key =  31;WhichDrum: C2 ; velocity: 0
@121680 , @6.416104651162791 Channel: 4 
Note on, E1 key =  28;WhichDrum: S ; velocity: 127
@121740 , @6.419268410852713 Channel: 4 
Note on, E1 key =  28;WhichDrum: S ; velocity: 0
@121740 , @6.419268410852713 Channel: 4 
Note on, E1 key =  28;WhichDrum: S ; velocity: 127
@121800 , @6.422432170542636 Channel: 4 
Note on, E1 key =  28;WhichDrum: S ; velocity: 0
@121800 , @6.422432170542636 Channel: 4 
Note on, A1 key =  33;WhichDrum: T3 ; velocity: 127
@121860 , @6.425595930232558 Channel: 4 
Note on, A1 key =  33;WhichDrum: T3 ; velocity: 0
@121860 , @6.425595930232558 Channel: 4 
Note on, G1 key =  31;WhichDrum: C2 ; velocity: 127
@121920 , @6.42875968992248 Channel: 4 
Note on, G1 key =  31;WhichDrum: C2 ; velocity: 0
@121920 , @6.42875968992248 Channel: 4 
Note on, E1 key =  28;WhichDrum: S ; velocity: 127
@121980 , @6.431923449612404 Channel: 4 
Note on, E1 key =  28;WhichDrum: S ; velocity: 0
@121980 , @6.431923449612404 Channel: 4 
Note on, E1 key =  28;WhichDrum: S ; velocity: 127
@122040 , @6.435087209302326 Channel: 4 
Note on, E1 key =  28;WhichDrum: S ; velocity: 0
@122040 , @6.435087209302326 Channel: 4 
Note on, E1 key =  28;WhichDrum: S ; velocity: 127
@122160 , @6.441414728682171 Channel: 4 
Note on, E1 key =  28;WhichDrum: S ; velocity: 0
@122520 , @6.460397286821705 Channel: 4 
Note on, E1 key =  28;WhichDrum: S ; velocity: 127
@122640 , @6.46672480620155 Channel: 4 
Note on, E1 key =  28;WhichDrum: S ; velocity: 0
@123000 , @6.485707364341086 Channel: 4 
Note on, E1 key =  28;WhichDrum: S ; velocity: 127
@123120 , @6.4920348837209305 Channel: 4 
Note on, E1 key =  28;WhichDrum: S ; velocity: 0
@123480 , @6.511017441860465 Channel: 4 
Note on, E1 key =  28;WhichDrum: S ; velocity: 127
@123540 , @6.514181201550388 Channel: 4 
Note on, E1 key =  28;WhichDrum: S ; velocity: 0
@123540 , @6.514181201550388 Channel: 4 
Note on, E1 key =  28;WhichDrum: S ; velocity: 127
@123600 , @6.51734496124031 Channel: 4 
Note on, E1 key =  28;WhichDrum: S ; velocity: 0
@123600 , @6.51734496124031 Channel: 4 
Note on, E1 key =  28;WhichDrum: S ; velocity: 127
@123660 , @6.520508720930232 Channel: 4 
Note on, E1 key =  28;WhichDrum: S ; velocity: 0
@123660 , @6.520508720930232 Channel: 4 
Note on, E1 key =  28;WhichDrum: S ; velocity: 127
@123720 , @6.523672480620156 Channel: 4 
Note on, E1 key =  28;WhichDrum: S ; velocity: 0
@123720 , @6.523672480620156 Channel: 4 
Note on, E2 key =  40;WhichDrum: S ; velocity: 127
@123840 , @6.53 Channel: 4 
Note on, E2 key =  40;WhichDrum: S ; velocity: 0
@123840 , @6.53 Other Message: class javax.sound.midi.Track$ImmutableEndOfTrack

Track 7: size = 6328
@0 , @0.0 Other Message: class javax.sound.midi.MetaMessage

@0 , @0.0 Other Message: class javax.sound.midi.MetaMessage

@2880 , @0.15186046511627907 Channel: 9 
Command: 176

@2880 , @0.15186046511627907 Channel: 9 
Note on, C2 key =  36;WhichDrum: B ; velocity: 127
@2880 , @0.15186046511627907 Channel: 9 
Note on, F#2 key =  42;WhichDrum: C1 ; velocity: 127
@2940 , @0.15502422480620157 Channel: 9 
Note on, C2 key =  36;WhichDrum: B ; velocity: 0
@2940 , @0.15502422480620157 Channel: 9 
Note on, F#2 key =  42;WhichDrum: C1 ; velocity: 0
@2940 , @0.15502422480620157 Channel: 9 
Note on, C2 key =  36;WhichDrum: B ; velocity: 127
@2940 , @0.15502422480620157 Channel: 9 
Note on, F#2 key =  42;WhichDrum: C1 ; velocity: 127
@3000 , @0.15818798449612403 Channel: 9 
Note on, C2 key =  36;WhichDrum: B ; velocity: 0
@3000 , @0.15818798449612403 Channel: 9 
Note on, F#2 key =  42;WhichDrum: C1 ; velocity: 0
@3000 , @0.15818798449612403 Channel: 9 
Note on, C2 key =  36;WhichDrum: B ; velocity: 127
@3000 , @0.15818798449612403 Channel: 9 
Note on, F#2 key =  42;WhichDrum: C1 ; velocity: 127
@3060 , @0.1613517441860465 Channel: 9 
Note on, C2 key =  36;WhichDrum: B ; velocity: 0
@3060 , @0.1613517441860465 Channel: 9 
Note on, F#2 key =  42;WhichDrum: C1 ; velocity: 0
@3060 , @0.1613517441860465 Channel: 9 
Note on, C2 key =  36;WhichDrum: B ; velocity: 127
@3060 , @0.1613517441860465 Channel: 9 
Note on, F#2 key =  42;WhichDrum: C1 ; velocity: 127
@3120 , @0.164515503875969 Channel: 9 
Note on, C2 key =  36;WhichDrum: B ; velocity: 0
@3120 , @0.164515503875969 Channel: 9 
Note on, F#2 key =  42;WhichDrum: C1 ; velocity: 0
@3120 , @0.164515503875969 Channel: 9 
Note on, C2 key =  36;WhichDrum: B ; velocity: 127
@3120 , @0.164515503875969 Channel: 9 
Note on, F#2 key =  42;WhichDrum: C1 ; velocity: 127
@3180 , @0.1676792635658915 Channel: 9 
Note on, C2 key =  36;WhichDrum: B ; velocity: 0
@3180 , @0.1676792635658915 Channel: 9 
Note on, F#2 key =  42;WhichDrum: C1 ; velocity: 0
@3180 , @0.1676792635658915 Channel: 9 
Note on, C2 key =  36;WhichDrum: B ; velocity: 127
@3180 , @0.1676792635658915 Channel: 9 
Note on, F#2 key =  42;WhichDrum: C1 ; velocity: 127
@3240 , @0.17084302325581396 Channel: 9 
Note on, C2 key =  36;WhichDrum: B ; velocity: 0
@3240 , @0.17084302325581396 Channel: 9 
Note on, F#2 key =  42;WhichDrum: C1 ; velocity: 0
@3240 , @0.17084302325581396 Channel: 9 
Note on, C2 key =  36;WhichDrum: B ; velocity: 127
@3240 , @0.17084302325581396 Channel: 9 
Note on, D2 key =  38;WhichDrum: T2 ; velocity: 127
@3240 , @0.17084302325581396 Channel: 9 
Note on, F#2 key =  42;WhichDrum: C1 ; velocity: 127
@3300 , @0.17400678294573643 Channel: 9 
Note on, C2 key =  36;WhichDrum: B ; velocity: 0
@3300 , @0.17400678294573643 Channel: 9 
Note on, D2 key =  38;WhichDrum: T2 ; velocity: 0
@3300 , @0.17400678294573643 Channel: 9 
Note on, F#2 key =  42;WhichDrum: C1 ; velocity: 0
@3300 , @0.17400678294573643 Channel: 9 
Note on, C2 key =  36;WhichDrum: B ; velocity: 127
@3300 , @0.17400678294573643 Channel: 9 
Note on, D2 key =  38;WhichDrum: T2 ; velocity: 127
@3300 , @0.17400678294573643 Channel: 9 
Note on, F#2 key =  42;WhichDrum: C1 ; velocity: 127
@3360 , @0.17717054263565893 Channel: 9 
Note on, C2 key =  36;WhichDrum: B ; velocity: 0
@3360 , @0.17717054263565893 Channel: 9 
Note on, D2 key =  38;WhichDrum: T2 ; velocity: 0
@3360 , @0.17717054263565893 Channel: 9 
Note on, F#2 key =  42;WhichDrum: C1 ; velocity: 0
@3360 , @0.17717054263565893 Channel: 9 
Note on, C2 key =  36;WhichDrum: B ; velocity: 127
@3360 , @0.17717054263565893 Channel: 9 
Note on, D2 key =  38;WhichDrum: T2 ; velocity: 127
@3360 , @0.17717054263565893 Channel: 9 
Note on, F#2 key =  42;WhichDrum: C1 ; velocity: 127
@3420 , @0.1803343023255814 Channel: 9 
Note on, C2 key =  36;WhichDrum: B ; velocity: 0
@3420 , @0.1803343023255814 Channel: 9 
Note on, D2 key =  38;WhichDrum: T2 ; velocity: 0
@3420 , @0.1803343023255814 Channel: 9 
Note on, F#2 key =  42;WhichDrum: C1 ; velocity: 0
@3420 , @0.1803343023255814 Channel: 9 
Note on, B1 key =  35;WhichDrum: T1 ; velocity: 127
@3420 , @0.1803343023255814 Channel: 9 
Note on, D2 key =  38;WhichDrum: T2 ; velocity: 127
@3420 , @0.1803343023255814 Channel: 9 
Note on, F#2 key =  42;WhichDrum: C1 ; velocity: 127
@3480 , @0.1834980620155039 Channel: 9 
Note on, B1 key =  35;WhichDrum: T1 ; velocity: 0
@3480 , @0.1834980620155039 Channel: 9 
Note on, D2 key =  38;WhichDrum: T2 ; velocity: 0
@3480 , @0.1834980620155039 Channel: 9 
Note on, F#2 key =  42;WhichDrum: C1 ; velocity: 0
@3480 , @0.1834980620155039 Channel: 9 
Note on, D2 key =  38;WhichDrum: T2 ; velocity: 127
@3510 , @0.1850799418604651 Channel: 9 
Note on, D2 key =  38;WhichDrum: T2 ; velocity: 0
@3510 , @0.1850799418604651 Channel: 9 
Note on, D2 key =  38;WhichDrum: T2 ; velocity: 127
@3540 , @0.18666182170542636 Channel: 9 
Note on, D2 key =  38;WhichDrum: T2 ; velocity: 0
@3540 , @0.18666182170542636 Channel: 9 
Note on, D2 key =  38;WhichDrum: T2 ; velocity: 127
@3570 , @0.1882437015503876 Channel: 9 
Note on, D2 key =  38;WhichDrum: T2 ; velocity: 0
@3570 , @0.1882437015503876 Channel: 9 
Note on, D2 key =  38;WhichDrum: T2 ; velocity: 127
@3600 , @0.18982558139534883 Channel: 9 
Note on, D2 key =  38;WhichDrum: T2 ; velocity: 0
@3600 , @0.18982558139534883 Channel: 9 
Note on, C2 key =  36;WhichDrum: B ; velocity: 127
@3600 , @0.18982558139534883 Channel: 9 
Note on, D2 key =  38;WhichDrum: T2 ; velocity: 127
@3660 , @0.19298934108527133 Channel: 9 
Note on, D2 key =  38;WhichDrum: T2 ; velocity: 0
@3660 , @0.19298934108527133 Channel: 9 
Note on, D2 key =  38;WhichDrum: T2 ; velocity: 127
@3690 , @0.19457122093023257 Channel: 9 
Note on, D2 key =  38;WhichDrum: T2 ; velocity: 0
@3690 , @0.19457122093023257 Channel: 9 
Note on, D2 key =  38;WhichDrum: T2 ; velocity: 127
@3720 , @0.19615310077519382 Channel: 9 
Note on, C2 key =  36;WhichDrum: B ; velocity: 0
@3720 , @0.19615310077519382 Channel: 9 
Note on, D2 key =  38;WhichDrum: T2 ; velocity: 0
@3720 , @0.19615310077519382 Channel: 9 
Note on, C2 key =  36;WhichDrum: B ; velocity: 127
@3720 , @0.19615310077519382 Channel: 9 
Note on, A3 key =  57;WhichDrum: T3 ; velocity: 127
@3780 , @0.1993168604651163 Channel: 9 
Note on, C2 key =  36;WhichDrum: B ; velocity: 0
@3780 , @0.1993168604651163 Channel: 9 
Note on, A3 key =  57;WhichDrum: T3 ; velocity: 0
@3780 , @0.1993168604651163 Channel: 9 
Note on, C2 key =  36;WhichDrum: B ; velocity: 127
@3780 , @0.1993168604651163 Channel: 9 
Note on, A3 key =  57;WhichDrum: T3 ; velocity: 127
@3840 , @0.20248062015503876 Channel: 9 
Note on, C2 key =  36;WhichDrum: B ; velocity: 0
@3840 , @0.20248062015503876 Channel: 9 
Note on, A3 key =  57;WhichDrum: T3 ; velocity: 0
@3840 , @0.20248062015503876 Channel: 9 
Note on, A3 key =  57;WhichDrum: T3 ; velocity: 127
@3840 , @0.20248062015503876 Channel: 9 
Note on, C2 key =  36;WhichDrum: B ; velocity: 127
@3960 , @0.20880813953488372 Channel: 9 
Note on, A3 key =  57;WhichDrum: T3 ; velocity: 0
@3960 , @0.20880813953488372 Channel: 9 
Note on, C2 key =  36;WhichDrum: B ; velocity: 0
@3960 , @0.20880813953488372 Channel: 9 
Note on, D2 key =  38;WhichDrum: T2 ; velocity: 127
@3960 , @0.20880813953488372 Channel: 9 
Note on, F#2 key =  42;WhichDrum: C1 ; velocity: 127
@4020 , @0.21197189922480622 Channel: 9 
Note on, D2 key =  38;WhichDrum: T2 ; velocity: 0
@4020 , @0.21197189922480622 Channel: 9 
Note on, F#2 key =  42;WhichDrum: C1 ; velocity: 0
@4020 , @0.21197189922480622 Channel: 9 
Note on, F#2 key =  42;WhichDrum: C1 ; velocity: 127
@4080 , @0.21513565891472872 Channel: 9 
Note on, F#2 key =  42;WhichDrum: C1 ; velocity: 0
@4080 , @0.21513565891472872 Channel: 9 
Note on, F#2 key =  42;WhichDrum: C1 ; velocity: 127
@4140 , @0.21829941860465116 Channel: 9 
Note on, F#2 key =  42;WhichDrum: C1 ; velocity: 0
@4140 , @0.21829941860465116 Channel: 9 
Note on, C2 key =  36;WhichDrum: B ; velocity: 127
@4140 , @0.21829941860465116 Channel: 9 
Note on, F#2 key =  42;WhichDrum: C1 ; velocity: 127
@4200 , @0.22146317829457363 Channel: 9 
Note on, C2 key =  36;WhichDrum: B ; velocity: 0
@4200 , @0.22146317829457363 Channel: 9 
Note on, F#2 key =  42;WhichDrum: C1 ; velocity: 0
@4200 , @0.22146317829457363 Channel: 9 
Note on, D2 key =  38;WhichDrum: T2 ; velocity: 127
@4200 , @0.22146317829457363 Channel: 9 
Note on, F#2 key =  42;WhichDrum: C1 ; velocity: 127
@4260 , @0.22462693798449612 Channel: 9 
Note on, D2 key =  38;WhichDrum: T2 ; velocity: 0
@4260 , @0.22462693798449612 Channel: 9 
Note on, F#2 key =  42;WhichDrum: C1 ; velocity: 0
@4260 , @0.22462693798449612 Channel: 9 
Note on, C2 key =  36;WhichDrum: B ; velocity: 127
@4260 , @0.22462693798449612 Channel: 9 
Note on, F#2 key =  42;WhichDrum: C1 ; velocity: 127
@4320 , @0.22779069767441862 Channel: 9 
Note on, C2 key =  36;WhichDrum: B ; velocity: 0
@4320 , @0.22779069767441862 Channel: 9 
Note on, F#2 key =  42;WhichDrum: C1 ; velocity: 0
@4320 , @0.22779069767441862 Channel: 9 
Note on, F#2 key =  42;WhichDrum: C1 ; velocity: 127
@4380 , @0.2309544573643411 Channel: 9 
Note on, F#2 key =  42;WhichDrum: C1 ; velocity: 0
@4380 , @0.2309544573643411 Channel: 9 
Note on, C2 key =  36;WhichDrum: B ; velocity: 127
@4380 , @0.2309544573643411 Channel: 9 
Note on, F#2 key =  42;WhichDrum: C1 ; velocity: 127
@4440 , @0.23411821705426358 Channel: 9 
Note on, C2 key =  36;WhichDrum: B ; velocity: 0
@4440 , @0.23411821705426358 Channel: 9 
Note on, F#2 key =  42;WhichDrum: C1 ; velocity: 0
@4440 , @0.23411821705426358 Channel: 9 
Note on, D2 key =  38;WhichDrum: T2 ; velocity: 127
@4440 , @0.23411821705426358 Channel: 9 
Note on, F#2 key =  42;WhichDrum: C1 ; velocity: 127
@4500 , @0.23728197674418608 Channel: 9 
Note on, D2 key =  38;WhichDrum: T2 ; velocity: 0
@4500 , @0.23728197674418608 Channel: 9 
Note on, F#2 key =  42;WhichDrum: C1 ; velocity: 0
@4500 , @0.23728197674418608 Channel: 9 
Note on, F#2 key =  42;WhichDrum: C1 ; velocity: 127
@4560 , @0.24044573643410855 Channel: 9 
Note on, F#2 key =  42;WhichDrum: C1 ; velocity: 0
@4560 , @0.24044573643410855 Channel: 9 
Note on, C2 key =  36;WhichDrum: B ; velocity: 127
@4560 , @0.24044573643410855 Channel: 9 
Note on, F#2 key =  42;WhichDrum: C1 ; velocity: 127
@4620 , @0.243609496124031 Channel: 9 
Note on, C2 key =  36;WhichDrum: B ; velocity: 0
@4620 , @0.243609496124031 Channel: 9 
Note on, F#2 key =  42;WhichDrum: C1 ; velocity: 0
@4620 , @0.243609496124031 Channel: 9 
Note on, C2 key =  36;WhichDrum: B ; velocity: 127
@4620 , @0.243609496124031 Channel: 9 
Note on, F#2 key =  42;WhichDrum: C1 ; velocity: 127
@4640 , @0.24466408268733852 Channel: 9 
Note on, C2 key =  36;WhichDrum: B ; velocity: 0
@4640 , @0.24466408268733852 Channel: 9 
Note on, C2 key =  36;WhichDrum: B ; velocity: 127
@4660 , @0.245718669250646 Channel: 9 
Note on, C2 key =  36;WhichDrum: B ; velocity: 0
@4660 , @0.245718669250646 Channel: 9 
Note on, C2 key =  36;WhichDrum: B ; velocity: 127
@4680 , @0.24677325581395348 Channel: 9 
Note on, F#2 key =  42;WhichDrum: C1 ; velocity: 0
@4680 , @0.24677325581395348 Channel: 9 
Note on, C2 key =  36;WhichDrum: B ; velocity: 0
@4680 , @0.24677325581395348 Channel: 9 
Note on, D2 key =  38;WhichDrum: T2 ; velocity: 127
@4680 , @0.24677325581395348 Channel: 9 
Note on, F#2 key =  42;WhichDrum: C1 ; velocity: 127
@4740 , @0.24993701550387598 Channel: 9 
Note on, D2 key =  38;WhichDrum: T2 ; velocity: 0
@4740 , @0.24993701550387598 Channel: 9 
Note on, F#2 key =  42;WhichDrum: C1 ; velocity: 0
@4740 , @0.24993701550387598 Channel: 9 
Note on, C2 key =  36;WhichDrum: B ; velocity: 127
@4740 , @0.24993701550387598 Channel: 9 
Note on, A3 key =  57;WhichDrum: T3 ; velocity: 127
@4800 , @0.2531007751937985 Channel: 9 
Note on, C2 key =  36;WhichDrum: B ; velocity: 0
@4800 , @0.2531007751937985 Channel: 9 
Note on, A3 key =  57;WhichDrum: T3 ; velocity: 0
@4800 , @0.2531007751937985 Channel: 9 
Note on, C2 key =  36;WhichDrum: B ; velocity: 127
@4800 , @0.2531007751937985 Channel: 9 
Note on, A3 key =  57;WhichDrum: T3 ; velocity: 127
@4920 , @0.2594282945736434 Channel: 9 
Note on, C2 key =  36;WhichDrum: B ; velocity: 0
@4920 , @0.2594282945736434 Channel: 9 
Note on, A3 key =  57;WhichDrum: T3 ; velocity: 0
@4920 , @0.2594282945736434 Channel: 9 
Note on, D2 key =  38;WhichDrum: T2 ; velocity: 127
@4920 , @0.2594282945736434 Channel: 9 
Note on, F#2 key =  42;WhichDrum: C1 ; velocity: 127
@4980 , @0.2625920542635659 Channel: 9 
Note on, D2 key =  38;WhichDrum: T2 ; velocity: 0
@4980 , @0.2625920542635659 Channel: 9 
Note on, F#2 key =  42;WhichDrum: C1 ; velocity: 0
@4980 , @0.2625920542635659 Channel: 9 
Note on, F#2 key =  42;WhichDrum: C1 ; velocity: 127
@5040 , @0.2657558139534884 Channel: 9 
Note on, F#2 key =  42;WhichDrum: C1 ; velocity: 0
@5040 , @0.2657558139534884 Channel: 9 
Note on, F#2 key =  42;WhichDrum: C1 ; velocity: 127
@5100 , @0.26891957364341085 Channel: 9 
Note on, F#2 key =  42;WhichDrum: C1 ; velocity: 0
@5100 , @0.26891957364341085 Channel: 9 
Note on, C2 key =  36;WhichDrum: B ; velocity: 127
@5100 , @0.26891957364341085 Channel: 9 
Note on, F#2 key =  42;WhichDrum: C1 ; velocity: 127
@5160 , @0.27208333333333334 Channel: 9 
Note on, C2 key =  36;WhichDrum: B ; velocity: 0
@5160 , @0.27208333333333334 Channel: 9 
Note on, F#2 key =  42;WhichDrum: C1 ; velocity: 0
@5160 , @0.27208333333333334 Channel: 9 
Note on, D2 key =  38;WhichDrum: T2 ; velocity: 127
@5160 , @0.27208333333333334 Channel: 9 
Note on, F#2 key =  42;WhichDrum: C1 ; velocity: 127
@5220 , @0.27524709302325584 Channel: 9 
Note on, D2 key =  38;WhichDrum: T2 ; velocity: 0
@5220 , @0.27524709302325584 Channel: 9 
Note on, F#2 key =  42;WhichDrum: C1 ; velocity: 0
@5220 , @0.27524709302325584 Channel: 9 
Note on, C2 key =  36;WhichDrum: B ; velocity: 127
@5220 , @0.27524709302325584 Channel: 9 
Note on, F#2 key =  42;WhichDrum: C1 ; velocity: 127
@5280 , @0.2784108527131783 Channel: 9 
Note on, C2 key =  36;WhichDrum: B ; velocity: 0
@5280 , @0.2784108527131783 Channel: 9 
Note on, F#2 key =  42;WhichDrum: C1 ; velocity: 0
@5280 , @0.2784108527131783 Channel: 9 
Note on, F#2 key =  42;WhichDrum: C1 ; velocity: 127
@5340 , @0.2815746124031008 Channel: 9 
Note on, F#2 key =  42;WhichDrum: C1 ; velocity: 0
@5340 , @0.2815746124031008 Channel: 9 
Note on, C2 key =  36;WhichDrum: B ; velocity: 127
@5340 , @0.2815746124031008 Channel: 9 
Note on, F#2 key =  42;WhichDrum: C1 ; velocity: 127
@5400 , @0.2847383720930233 Channel: 9 
Note on, C2 key =  36;WhichDrum: B ; velocity: 0
@5400 , @0.2847383720930233 Channel: 9 
Note on, F#2 key =  42;WhichDrum: C1 ; velocity: 0
@5400 , @0.2847383720930233 Channel: 9 
Note on, D2 key =  38;WhichDrum: T2 ; velocity: 127
@5400 , @0.2847383720930233 Channel: 9 
Note on, F#2 key =  42;WhichDrum: C1 ; velocity: 127
@5460 , @0.28790213178294577 Channel: 9 
Note on, D2 key =  38;WhichDrum: T2 ; velocity: 0
@5460 , @0.28790213178294577 Channel: 9 
Note on, F#2 key =  42;WhichDrum: C1 ; velocity: 0
@5460 , @0.28790213178294577 Channel: 9 
Note on, F#2 key =  42;WhichDrum: C1 ; velocity: 127
@5520 , @0.29106589147286827 Channel: 9 
Note on, F#2 key =  42;WhichDrum: C1 ; velocity: 0
@5520 , @0.29106589147286827 Channel: 9 
Note on, C2 key =  36;WhichDrum: B ; velocity: 127
@5520 , @0.29106589147286827 Channel: 9 
Note on, F#2 key =  42;WhichDrum: C1 ; velocity: 127
@5580 , @0.2942296511627907 Channel: 9 
Note on, C2 key =  36;WhichDrum: B ; velocity: 0
@5580 , @0.2942296511627907 Channel: 9 
Note on, F#2 key =  42;WhichDrum: C1 ; velocity: 0
@5580 , @0.2942296511627907 Channel: 9 
Note on, C2 key =  36;WhichDrum: B ; velocity: 127
@5580 , @0.2942296511627907 Channel: 9 
Note on, F#2 key =  42;WhichDrum: C1 ; velocity: 127
@5600 , @0.2952842377260982 Channel: 9 
Note on, C2 key =  36;WhichDrum: B ; velocity: 0
@5600 , @0.2952842377260982 Channel: 9 
Note on, C2 key =  36;WhichDrum: B ; velocity: 127
@5620 , @0.29633882428940567 Channel: 9 
Note on, C2 key =  36;WhichDrum: B ; velocity: 0
@5620 , @0.29633882428940567 Channel: 9 
Note on, C2 key =  36;WhichDrum: B ; velocity: 127
@5640 , @0.29739341085271315 Channel: 9 
Note on, F#2 key =  42;WhichDrum: C1 ; velocity: 0
@5640 , @0.29739341085271315 Channel: 9 
Note on, C2 key =  36;WhichDrum: B ; velocity: 0
@5640 , @0.29739341085271315 Channel: 9 
Note on, D2 key =  38;WhichDrum: T2 ; velocity: 127
@5640 , @0.29739341085271315 Channel: 9 
Note on, F#2 key =  42;WhichDrum: C1 ; velocity: 127
@5700 , @0.30055717054263564 Channel: 9 
Note on, D2 key =  38;WhichDrum: T2 ; velocity: 0
@5700 , @0.30055717054263564 Channel: 9 
Note on, F#2 key =  42;WhichDrum: C1 ; velocity: 0
@5700 , @0.30055717054263564 Channel: 9 
Note on, C2 key =  36;WhichDrum: B ; velocity: 127
@5700 , @0.30055717054263564 Channel: 9 
Note on, A3 key =  57;WhichDrum: T3 ; velocity: 127
@5760 , @0.30372093023255814 Channel: 9 
Note on, C2 key =  36;WhichDrum: B ; velocity: 0
@5760 , @0.30372093023255814 Channel: 9 
Note on, A3 key =  57;WhichDrum: T3 ; velocity: 0
@5760 , @0.30372093023255814 Channel: 9 
Note on, C2 key =  36;WhichDrum: B ; velocity: 127
@5760 , @0.30372093023255814 Channel: 9 
Note on, A3 key =  57;WhichDrum: T3 ; velocity: 127
@5880 , @0.31004844961240313 Channel: 9 
Note on, C2 key =  36;WhichDrum: B ; velocity: 0
@5880 , @0.31004844961240313 Channel: 9 
Note on, A3 key =  57;WhichDrum: T3 ; velocity: 0
@5880 , @0.31004844961240313 Channel: 9 
Note on, D2 key =  38;WhichDrum: T2 ; velocity: 127
@5880 , @0.31004844961240313 Channel: 9 
Note on, F#2 key =  42;WhichDrum: C1 ; velocity: 127
@5940 , @0.31321220930232563 Channel: 9 
Note on, D2 key =  38;WhichDrum: T2 ; velocity: 0
@5940 , @0.31321220930232563 Channel: 9 
Note on, F#2 key =  42;WhichDrum: C1 ; velocity: 0
@5940 , @0.31321220930232563 Channel: 9 
Note on, F#2 key =  42;WhichDrum: C1 ; velocity: 127
@6000 , @0.31637596899224807 Channel: 9 
Note on, F#2 key =  42;WhichDrum: C1 ; velocity: 0
@6000 , @0.31637596899224807 Channel: 9 
Note on, F#2 key =  42;WhichDrum: C1 ; velocity: 127
@6060 , @0.3195397286821705 Channel: 9 
Note on, F#2 key =  42;WhichDrum: C1 ; velocity: 0
@6060 , @0.3195397286821705 Channel: 9 
Note on, C2 key =  36;WhichDrum: B ; velocity: 127
@6060 , @0.3195397286821705 Channel: 9 
Note on, F#2 key =  42;WhichDrum: C1 ; velocity: 127
@6120 , @0.322703488372093 Channel: 9 
Note on, C2 key =  36;WhichDrum: B ; velocity: 0
@6120 , @0.322703488372093 Channel: 9 
Note on, F#2 key =  42;WhichDrum: C1 ; velocity: 0
@6120 , @0.322703488372093 Channel: 9 
Note on, D2 key =  38;WhichDrum: T2 ; velocity: 127
@6120 , @0.322703488372093 Channel: 9 
Note on, F#2 key =  42;WhichDrum: C1 ; velocity: 127
@6180 , @0.3258672480620155 Channel: 9 
Note on, D2 key =  38;WhichDrum: T2 ; velocity: 0
@6180 , @0.3258672480620155 Channel: 9 
Note on, F#2 key =  42;WhichDrum: C1 ; velocity: 0
@6180 , @0.3258672480620155 Channel: 9 
Note on, C2 key =  36;WhichDrum: B ; velocity: 127
@6180 , @0.3258672480620155 Channel: 9 
Note on, F#2 key =  42;WhichDrum: C1 ; velocity: 127
@6240 , @0.329031007751938 Channel: 9 
Note on, C2 key =  36;WhichDrum: B ; velocity: 0
@6240 , @0.329031007751938 Channel: 9 
Note on, F#2 key =  42;WhichDrum: C1 ; velocity: 0
@6240 , @0.329031007751938 Channel: 9 
Note on, F#2 key =  42;WhichDrum: C1 ; velocity: 127
@6300 , @0.3321947674418605 Channel: 9 
Note on, F#2 key =  42;WhichDrum: C1 ; velocity: 0
@6300 , @0.3321947674418605 Channel: 9 
Note on, C2 key =  36;WhichDrum: B ; velocity: 127
@6300 , @0.3321947674418605 Channel: 9 
Note on, F#2 key =  42;WhichDrum: C1 ; velocity: 127
@6360 , @0.335358527131783 Channel: 9 
Note on, C2 key =  36;WhichDrum: B ; velocity: 0
@6360 , @0.335358527131783 Channel: 9 
Note on, F#2 key =  42;WhichDrum: C1 ; velocity: 0
@6360 , @0.335358527131783 Channel: 9 
Note on, D2 key =  38;WhichDrum: T2 ; velocity: 127
@6360 , @0.335358527131783 Channel: 9 
Note on, F#2 key =  42;WhichDrum: C1 ; velocity: 127
@6420 , @0.33852228682170543 Channel: 9 
Note on, D2 key =  38;WhichDrum: T2 ; velocity: 0
@6420 , @0.33852228682170543 Channel: 9 
Note on, F#2 key =  42;WhichDrum: C1 ; velocity: 0
@6420 , @0.33852228682170543 Channel: 9 
Note on, F#2 key =  42;WhichDrum: C1 ; velocity: 127
@6480 , @0.3416860465116279 Channel: 9 
Note on, F#2 key =  42;WhichDrum: C1 ; velocity: 0
@6480 , @0.3416860465116279 Channel: 9 
Note on, C2 key =  36;WhichDrum: B ; velocity: 127
@6480 , @0.3416860465116279 Channel: 9 
Note on, F#2 key =  42;WhichDrum: C1 ; velocity: 127
@6540 , @0.34484980620155037 Channel: 9 
Note on, C2 key =  36;WhichDrum: B ; velocity: 0
@6540 , @0.34484980620155037 Channel: 9 
Note on, F#2 key =  42;WhichDrum: C1 ; velocity: 0
@6540 , @0.34484980620155037 Channel: 9 
Note on, C2 key =  36;WhichDrum: B ; velocity: 127
@6540 , @0.34484980620155037 Channel: 9 
Note on, F#2 key =  42;WhichDrum: C1 ; velocity: 127
@6560 , @0.3459043927648579 Channel: 9 
Note on, C2 key =  36;WhichDrum: B ; velocity: 0
@6560 , @0.3459043927648579 Channel: 9 
Note on, C2 key =  36;WhichDrum: B ; velocity: 127
@6580 , @0.3469589793281654 Channel: 9 
Note on, C2 key =  36;WhichDrum: B ; velocity: 0
@6580 , @0.3469589793281654 Channel: 9 
Note on, C2 key =  36;WhichDrum: B ; velocity: 127
@6600 , @0.34801356589147286 Channel: 9 
Note on, F#2 key =  42;WhichDrum: C1 ; velocity: 0
@6600 , @0.34801356589147286 Channel: 9 
Note on, C2 key =  36;WhichDrum: B ; velocity: 0
@6600 , @0.34801356589147286 Channel: 9 
Note on, D2 key =  38;WhichDrum: T2 ; velocity: 127
@6600 , @0.34801356589147286 Channel: 9 
Note on, F#2 key =  42;WhichDrum: C1 ; velocity: 127
@6660 , @0.35117732558139536 Channel: 9 
Note on, D2 key =  38;WhichDrum: T2 ; velocity: 0
@6660 , @0.35117732558139536 Channel: 9 
Note on, F#2 key =  42;WhichDrum: C1 ; velocity: 0
@6660 , @0.35117732558139536 Channel: 9 
Note on, C2 key =  36;WhichDrum: B ; velocity: 127
@6660 , @0.35117732558139536 Channel: 9 
Note on, A3 key =  57;WhichDrum: T3 ; velocity: 127
@6720 , @0.35434108527131786 Channel: 9 
Note on, C2 key =  36;WhichDrum: B ; velocity: 0
@6720 , @0.35434108527131786 Channel: 9 
Note on, A3 key =  57;WhichDrum: T3 ; velocity: 0
@6720 , @0.35434108527131786 Channel: 9 
Note on, C2 key =  36;WhichDrum: B ; velocity: 127
@6720 , @0.35434108527131786 Channel: 9 
Note on, A3 key =  57;WhichDrum: T3 ; velocity: 127
@6840 , @0.3606686046511628 Channel: 9 
Note on, C2 key =  36;WhichDrum: B ; velocity: 0
@6840 , @0.3606686046511628 Channel: 9 
Note on, A3 key =  57;WhichDrum: T3 ; velocity: 0
@6840 , @0.3606686046511628 Channel: 9 
Note on, D2 key =  38;WhichDrum: T2 ; velocity: 127
@6840 , @0.3606686046511628 Channel: 9 
Note on, F#2 key =  42;WhichDrum: C1 ; velocity: 127
@6900 , @0.3638323643410853 Channel: 9 
Note on, D2 key =  38;WhichDrum: T2 ; velocity: 0
@6900 , @0.3638323643410853 Channel: 9 
Note on, F#2 key =  42;WhichDrum: C1 ; velocity: 0
@6900 , @0.3638323643410853 Channel: 9 
Note on, F#2 key =  42;WhichDrum: C1 ; velocity: 127
@6960 , @0.3669961240310078 Channel: 9 
Note on, F#2 key =  42;WhichDrum: C1 ; velocity: 0
@6960 , @0.3669961240310078 Channel: 9 
Note on, F#2 key =  42;WhichDrum: C1 ; velocity: 127
@7020 , @0.3701598837209302 Channel: 9 
Note on, F#2 key =  42;WhichDrum: C1 ; velocity: 0
@7020 , @0.3701598837209302 Channel: 9 
Note on, C2 key =  36;WhichDrum: B ; velocity: 127
@7020 , @0.3701598837209302 Channel: 9 
Note on, F#2 key =  42;WhichDrum: C1 ; velocity: 127
@7080 , @0.3733236434108527 Channel: 9 
Note on, C2 key =  36;WhichDrum: B ; velocity: 0
@7080 , @0.3733236434108527 Channel: 9 
Note on, F#2 key =  42;WhichDrum: C1 ; velocity: 0
@7080 , @0.3733236434108527 Channel: 9 
Note on, D2 key =  38;WhichDrum: T2 ; velocity: 127
@7080 , @0.3733236434108527 Channel: 9 
Note on, F#2 key =  42;WhichDrum: C1 ; velocity: 127
@7140 , @0.3764874031007752 Channel: 9 
Note on, D2 key =  38;WhichDrum: T2 ; velocity: 0
@7140 , @0.3764874031007752 Channel: 9 
Note on, F#2 key =  42;WhichDrum: C1 ; velocity: 0
@7140 , @0.3764874031007752 Channel: 9 
Note on, C2 key =  36;WhichDrum: B ; velocity: 127
@7140 , @0.3764874031007752 Channel: 9 
Note on, F#2 key =  42;WhichDrum: C1 ; velocity: 127
@7200 , @0.37965116279069766 Channel: 9 
Note on, C2 key =  36;WhichDrum: B ; velocity: 0
@7200 , @0.37965116279069766 Channel: 9 
Note on, F#2 key =  42;WhichDrum: C1 ; velocity: 0
@7200 , @0.37965116279069766 Channel: 9 
Note on, F#2 key =  42;WhichDrum: C1 ; velocity: 127
@7260 , @0.38281492248062016 Channel: 9 
Note on, F#2 key =  42;WhichDrum: C1 ; velocity: 0
@7260 , @0.38281492248062016 Channel: 9 
Note on, C2 key =  36;WhichDrum: B ; velocity: 127
@7260 , @0.38281492248062016 Channel: 9 
Note on, F#2 key =  42;WhichDrum: C1 ; velocity: 127
@7320 , @0.38597868217054265 Channel: 9 
Note on, C2 key =  36;WhichDrum: B ; velocity: 0
@7320 , @0.38597868217054265 Channel: 9 
Note on, F#2 key =  42;WhichDrum: C1 ; velocity: 0
@7320 , @0.38597868217054265 Channel: 9 
Note on, D2 key =  38;WhichDrum: T2 ; velocity: 127
@7320 , @0.38597868217054265 Channel: 9 
Note on, F#2 key =  42;WhichDrum: C1 ; velocity: 127
@7380 , @0.38914244186046515 Channel: 9 
Note on, D2 key =  38;WhichDrum: T2 ; velocity: 0
@7380 , @0.38914244186046515 Channel: 9 
Note on, F#2 key =  42;WhichDrum: C1 ; velocity: 0
@7380 , @0.38914244186046515 Channel: 9 
Note on, F#2 key =  42;WhichDrum: C1 ; velocity: 127
@7440 , @0.39230620155038765 Channel: 9 
Note on, F#2 key =  42;WhichDrum: C1 ; velocity: 0
@7440 , @0.39230620155038765 Channel: 9 
Note on, C2 key =  36;WhichDrum: B ; velocity: 127
@7440 , @0.39230620155038765 Channel: 9 
Note on, F#2 key =  42;WhichDrum: C1 ; velocity: 127
@7500 , @0.3954699612403101 Channel: 9 
Note on, C2 key =  36;WhichDrum: B ; velocity: 0
@7500 , @0.3954699612403101 Channel: 9 
Note on, F#2 key =  42;WhichDrum: C1 ; velocity: 0
@7500 , @0.3954699612403101 Channel: 9 
Note on, C2 key =  36;WhichDrum: B ; velocity: 127
@7500 , @0.3954699612403101 Channel: 9 
Note on, F#2 key =  42;WhichDrum: C1 ; velocity: 127
@7520 , @0.3965245478036176 Channel: 9 
Note on, C2 key =  36;WhichDrum: B ; velocity: 0
@7520 , @0.3965245478036176 Channel: 9 
Note on, C2 key =  36;WhichDrum: B ; velocity: 127
@7540 , @0.3975791343669251 Channel: 9 
Note on, C2 key =  36;WhichDrum: B ; velocity: 0
@7540 , @0.3975791343669251 Channel: 9 
Note on, C2 key =  36;WhichDrum: B ; velocity: 127
@7560 , @0.3986337209302326 Channel: 9 
Note on, F#2 key =  42;WhichDrum: C1 ; velocity: 0
@7560 , @0.3986337209302326 Channel: 9 
Note on, C2 key =  36;WhichDrum: B ; velocity: 0
@7560 , @0.3986337209302326 Channel: 9 
Note on, D2 key =  38;WhichDrum: T2 ; velocity: 127
@7560 , @0.3986337209302326 Channel: 9 
Note on, F#2 key =  42;WhichDrum: C1 ; velocity: 127
@7620 , @0.401797480620155 Channel: 9 
Note on, D2 key =  38;WhichDrum: T2 ; velocity: 0
@7620 , @0.401797480620155 Channel: 9 
Note on, F#2 key =  42;WhichDrum: C1 ; velocity: 0
@7620 , @0.401797480620155 Channel: 9 
Note on, C2 key =  36;WhichDrum: B ; velocity: 127
@7620 , @0.401797480620155 Channel: 9 
Note on, A3 key =  57;WhichDrum: T3 ; velocity: 127
@7680 , @0.4049612403100775 Channel: 9 
Note on, C2 key =  36;WhichDrum: B ; velocity: 0
@7680 , @0.4049612403100775 Channel: 9 
Note on, A3 key =  57;WhichDrum: T3 ; velocity: 0
@7680 , @0.4049612403100775 Channel: 9 
Note on, C2 key =  36;WhichDrum: B ; velocity: 127
@7680 , @0.4049612403100775 Channel: 9 
Note on, A3 key =  57;WhichDrum: T3 ; velocity: 127
@7800 , @0.4112887596899225 Channel: 9 
Note on, C2 key =  36;WhichDrum: B ; velocity: 0
@7800 , @0.4112887596899225 Channel: 9 
Note on, A3 key =  57;WhichDrum: T3 ; velocity: 0
@8160 , @0.43027131782945743 Channel: 9 
Note on, C2 key =  36;WhichDrum: B ; velocity: 127
@8160 , @0.43027131782945743 Channel: 9 
Note on, A3 key =  57;WhichDrum: T3 ; velocity: 127
@8280 , @0.4365988372093023 Channel: 9 
Note on, C2 key =  36;WhichDrum: B ; velocity: 0
@8280 , @0.4365988372093023 Channel: 9 
Note on, A3 key =  57;WhichDrum: T3 ; velocity: 0
@10200 , @0.5378391472868217 Channel: 9 
Note on, C2 key =  36;WhichDrum: B ; velocity: 127
@10200 , @0.5378391472868217 Channel: 9 
Note on, A3 key =  57;WhichDrum: T3 ; velocity: 127
@10320 , @0.5441666666666667 Channel: 9 
Note on, C2 key =  36;WhichDrum: B ; velocity: 0
@10320 , @0.5441666666666667 Channel: 9 
Note on, A3 key =  57;WhichDrum: T3 ; velocity: 0
@10440 , @0.5504941860465117 Channel: 9 
Note on, C2 key =  36;WhichDrum: B ; velocity: 127
@10440 , @0.5504941860465117 Channel: 9 
Note on, A3 key =  57;WhichDrum: T3 ; velocity: 127
@10560 , @0.5568217054263566 Channel: 9 
Note on, C2 key =  36;WhichDrum: B ; velocity: 0
@10560 , @0.5568217054263566 Channel: 9 
Note on, A3 key =  57;WhichDrum: T3 ; velocity: 0
@10680 , @0.5631492248062016 Channel: 9 
Note on, C2 key =  36;WhichDrum: B ; velocity: 127
@10680 , @0.5631492248062016 Channel: 9 
Note on, A3 key =  57;WhichDrum: T3 ; velocity: 127
@10800 , @0.5694767441860465 Channel: 9 
Note on, C2 key =  36;WhichDrum: B ; velocity: 0
@10800 , @0.5694767441860465 Channel: 9 
Note on, A3 key =  57;WhichDrum: T3 ; velocity: 0
@10920 , @0.5758042635658915 Channel: 9 
Note on, A3 key =  57;WhichDrum: T3 ; velocity: 127
@10920 , @0.5758042635658915 Channel: 9 
Note on, C2 key =  36;WhichDrum: B ; velocity: 127
@11040 , @0.5821317829457365 Channel: 9 
Note on, A3 key =  57;WhichDrum: T3 ; velocity: 0
@11040 , @0.5821317829457365 Channel: 9 
Note on, C2 key =  36;WhichDrum: B ; velocity: 0
@11040 , @0.5821317829457365 Channel: 9 
Note on, C2 key =  36;WhichDrum: B ; velocity: 127
@11040 , @0.5821317829457365 Channel: 9 
Note on, F#2 key =  42;WhichDrum: C1 ; velocity: 127
@11100 , @0.585295542635659 Channel: 9 
Note on, C2 key =  36;WhichDrum: B ; velocity: 0
@11100 , @0.585295542635659 Channel: 9 
Note on, F#2 key =  42;WhichDrum: C1 ; velocity: 0
@11100 , @0.585295542635659 Channel: 9 
Note on, C2 key =  36;WhichDrum: B ; velocity: 127
@11100 , @0.585295542635659 Channel: 9 
Note on, F#2 key =  42;WhichDrum: C1 ; velocity: 127
@11160 , @0.5884593023255814 Channel: 9 
Note on, C2 key =  36;WhichDrum: B ; velocity: 0
@11160 , @0.5884593023255814 Channel: 9 
Note on, F#2 key =  42;WhichDrum: C1 ; velocity: 0
@11160 , @0.5884593023255814 Channel: 9 
Note on, C2 key =  36;WhichDrum: B ; velocity: 127
@11160 , @0.5884593023255814 Channel: 9 
Note on, F#2 key =  42;WhichDrum: C1 ; velocity: 127
@11220 , @0.5916230620155039 Channel: 9 
Note on, C2 key =  36;WhichDrum: B ; velocity: 0
@11220 , @0.5916230620155039 Channel: 9 
Note on, F#2 key =  42;WhichDrum: C1 ; velocity: 0
@11220 , @0.5916230620155039 Channel: 9 
Note on, C2 key =  36;WhichDrum: B ; velocity: 127
@11220 , @0.5916230620155039 Channel: 9 
Note on, F#2 key =  42;WhichDrum: C1 ; velocity: 127
@11280 , @0.5947868217054263 Channel: 9 
Note on, C2 key =  36;WhichDrum: B ; velocity: 0
@11280 , @0.5947868217054263 Channel: 9 
Note on, F#2 key =  42;WhichDrum: C1 ; velocity: 0
@11280 , @0.5947868217054263 Channel: 9 
Note on, C2 key =  36;WhichDrum: B ; velocity: 127
@11280 , @0.5947868217054263 Channel: 9 
Note on, F#2 key =  42;WhichDrum: C1 ; velocity: 127
@11340 , @0.5979505813953488 Channel: 9 
Note on, C2 key =  36;WhichDrum: B ; velocity: 0
@11340 , @0.5979505813953488 Channel: 9 
Note on, F#2 key =  42;WhichDrum: C1 ; velocity: 0
@11340 , @0.5979505813953488 Channel: 9 
Note on, C2 key =  36;WhichDrum: B ; velocity: 127
@11340 , @0.5979505813953488 Channel: 9 
Note on, F#2 key =  42;WhichDrum: C1 ; velocity: 127
@11400 , @0.6011143410852713 Channel: 9 
Note on, C2 key =  36;WhichDrum: B ; velocity: 0
@11400 , @0.6011143410852713 Channel: 9 
Note on, F#2 key =  42;WhichDrum: C1 ; velocity: 0
@11400 , @0.6011143410852713 Channel: 9 
Note on, C2 key =  36;WhichDrum: B ; velocity: 127
@11400 , @0.6011143410852713 Channel: 9 
Note on, F#2 key =  42;WhichDrum: C1 ; velocity: 127
@11460 , @0.6042781007751938 Channel: 9 
Note on, C2 key =  36;WhichDrum: B ; velocity: 0
@11460 , @0.6042781007751938 Channel: 9 
Note on, F#2 key =  42;WhichDrum: C1 ; velocity: 0
@11460 , @0.6042781007751938 Channel: 9 
Note on, C2 key =  36;WhichDrum: B ; velocity: 127
@11460 , @0.6042781007751938 Channel: 9 
Note on, F#2 key =  42;WhichDrum: C1 ; velocity: 127
@11520 , @0.6074418604651163 Channel: 9 
Note on, C2 key =  36;WhichDrum: B ; velocity: 0
@11520 , @0.6074418604651163 Channel: 9 
Note on, F#2 key =  42;WhichDrum: C1 ; velocity: 0
@11520 , @0.6074418604651163 Channel: 9 
Note on, C2 key =  36;WhichDrum: B ; velocity: 127
@11520 , @0.6074418604651163 Channel: 9 
Note on, D2 key =  38;WhichDrum: T2 ; velocity: 127
@11550 , @0.6090237403100776 Channel: 9 
Note on, D2 key =  38;WhichDrum: T2 ; velocity: 0
@11550 , @0.6090237403100776 Channel: 9 
Note on, D2 key =  38;WhichDrum: T2 ; velocity: 127
@11580 , @0.6106056201550388 Channel: 9 
Note on, D2 key =  38;WhichDrum: T2 ; velocity: 0
@11580 , @0.6106056201550388 Channel: 9 
Note on, D2 key =  38;WhichDrum: T2 ; velocity: 127
@11610 , @0.6121875 Channel: 9 
Note on, D2 key =  38;WhichDrum: T2 ; velocity: 0
@11610 , @0.6121875 Channel: 9 
Note on, D2 key =  38;WhichDrum: T2 ; velocity: 127
@11640 , @0.6137693798449613 Channel: 9 
Note on, C2 key =  36;WhichDrum: B ; velocity: 0
@11640 , @0.6137693798449613 Channel: 9 
Note on, D2 key =  38;WhichDrum: T2 ; velocity: 0
@11640 , @0.6137693798449613 Channel: 9 
Note on, C2 key =  36;WhichDrum: B ; velocity: 127
@11640 , @0.6137693798449613 Channel: 9 
Note on, D2 key =  38;WhichDrum: T2 ; velocity: 127
@11670 , @0.6153512596899225 Channel: 9 
Note on, D2 key =  38;WhichDrum: T2 ; velocity: 0
@11670 , @0.6153512596899225 Channel: 9 
Note on, D2 key =  38;WhichDrum: T2 ; velocity: 127
@11700 , @0.6169331395348837 Channel: 9 
Note on, D2 key =  38;WhichDrum: T2 ; velocity: 0
@11700 , @0.6169331395348837 Channel: 9 
Note on, D2 key =  38;WhichDrum: T2 ; velocity: 127
@11730 , @0.618515019379845 Channel: 9 
Note on, D2 key =  38;WhichDrum: T2 ; velocity: 0
@11730 , @0.618515019379845 Channel: 9 
Note on, D2 key =  38;WhichDrum: T2 ; velocity: 127
@11760 , @0.6200968992248063 Channel: 9 
Note on, C2 key =  36;WhichDrum: B ; velocity: 0
@11760 , @0.6200968992248063 Channel: 9 
Note on, D2 key =  38;WhichDrum: T2 ; velocity: 0
@11760 , @0.6200968992248063 Channel: 9 
Note on, C2 key =  36;WhichDrum: B ; velocity: 127
@11760 , @0.6200968992248063 Channel: 9 
Note on, D2 key =  38;WhichDrum: T2 ; velocity: 127
@11790 , @0.6216787790697674 Channel: 9 
Note on, D2 key =  38;WhichDrum: T2 ; velocity: 0
@11790 , @0.6216787790697674 Channel: 9 
Note on, D2 key =  38;WhichDrum: T2 ; velocity: 127
@11820 , @0.6232606589147287 Channel: 9 
Note on, D2 key =  38;WhichDrum: T2 ; velocity: 0
@11820 , @0.6232606589147287 Channel: 9 
Note on, D2 key =  38;WhichDrum: T2 ; velocity: 127
@11850 , @0.62484253875969 Channel: 9 
Note on, D2 key =  38;WhichDrum: T2 ; velocity: 0
@11850 , @0.62484253875969 Channel: 9 
Note on, D2 key =  38;WhichDrum: T2 ; velocity: 127
@11880 , @0.6264244186046513 Channel: 9 
Note on, C2 key =  36;WhichDrum: B ; velocity: 0
@11880 , @0.6264244186046513 Channel: 9 
Note on, D2 key =  38;WhichDrum: T2 ; velocity: 0
@11880 , @0.6264244186046513 Channel: 9 
Note on, C2 key =  36;WhichDrum: B ; velocity: 127
@11880 , @0.6264244186046513 Channel: 9 
Note on, D2 key =  38;WhichDrum: T2 ; velocity: 127
@11910 , @0.6280062984496124 Channel: 9 
Note on, D2 key =  38;WhichDrum: T2 ; velocity: 0
@11910 , @0.6280062984496124 Channel: 9 
Note on, D2 key =  38;WhichDrum: T2 ; velocity: 127
@11940 , @0.6295881782945737 Channel: 9 
Note on, D2 key =  38;WhichDrum: T2 ; velocity: 0
@11940 , @0.6295881782945737 Channel: 9 
Note on, D2 key =  38;WhichDrum: T2 ; velocity: 127
@11970 , @0.631170058139535 Channel: 9 
Note on, D2 key =  38;WhichDrum: T2 ; velocity: 0
@11970 , @0.631170058139535 Channel: 9 
Note on, D2 key =  38;WhichDrum: T2 ; velocity: 127
@12000 , @0.6327519379844961 Channel: 9 
Note on, C2 key =  36;WhichDrum: B ; velocity: 0
@12000 , @0.6327519379844961 Channel: 9 
Note on, D2 key =  38;WhichDrum: T2 ; velocity: 0
@12000 , @0.6327519379844961 Channel: 9 
Note on, C2 key =  36;WhichDrum: B ; velocity: 127
@12000 , @0.6327519379844961 Channel: 9 
Note on, A3 key =  57;WhichDrum: T3 ; velocity: 127
@12120 , @0.639079457364341 Channel: 9 
Note on, C2 key =  36;WhichDrum: B ; velocity: 0
@12120 , @0.639079457364341 Channel: 9 
Note on, A3 key =  57;WhichDrum: T3 ; velocity: 0
@12120 , @0.639079457364341 Channel: 9 
Note on, D2 key =  38;WhichDrum: T2 ; velocity: 127
@12120 , @0.639079457364341 Channel: 9 
Note on, A3 key =  57;WhichDrum: T3 ; velocity: 127
@12240 , @0.645406976744186 Channel: 9 
Note on, D2 key =  38;WhichDrum: T2 ; velocity: 0
@12240 , @0.645406976744186 Channel: 9 
Note on, A3 key =  57;WhichDrum: T3 ; velocity: 0
@12240 , @0.645406976744186 Channel: 9 
Note on, C2 key =  36;WhichDrum: B ; velocity: 127
@12240 , @0.645406976744186 Channel: 9 
Note on, F#2 key =  42;WhichDrum: C1 ; velocity: 127
@12300 , @0.6485707364341086 Channel: 9 
Note on, C2 key =  36;WhichDrum: B ; velocity: 0
@12300 , @0.6485707364341086 Channel: 9 
Note on, F#2 key =  42;WhichDrum: C1 ; velocity: 0
@12300 , @0.6485707364341086 Channel: 9 
Note on, C2 key =  36;WhichDrum: B ; velocity: 127
@12300 , @0.6485707364341086 Channel: 9 
Note on, F#2 key =  42;WhichDrum: C1 ; velocity: 127
@12320 , @0.649625322997416 Channel: 9 
Note on, C2 key =  36;WhichDrum: B ; velocity: 0
@12320 , @0.649625322997416 Channel: 9 
Note on, C2 key =  36;WhichDrum: B ; velocity: 127
@12340 , @0.6506799095607235 Channel: 9 
Note on, C2 key =  36;WhichDrum: B ; velocity: 0
@12340 , @0.6506799095607235 Channel: 9 
Note on, C2 key =  36;WhichDrum: B ; velocity: 127
@12360 , @0.651734496124031 Channel: 9 
Note on, F#2 key =  42;WhichDrum: C1 ; velocity: 0
@12360 , @0.651734496124031 Channel: 9 
Note on, C2 key =  36;WhichDrum: B ; velocity: 0
@12360 , @0.651734496124031 Channel: 9 
Note on, D2 key =  38;WhichDrum: T2 ; velocity: 127
@12360 , @0.651734496124031 Channel: 9 
Note on, F#2 key =  42;WhichDrum: C1 ; velocity: 127
@12420 , @0.6548982558139534 Channel: 9 
Note on, D2 key =  38;WhichDrum: T2 ; velocity: 0
@12420 , @0.6548982558139534 Channel: 9 
Note on, F#2 key =  42;WhichDrum: C1 ; velocity: 0
@12420 , @0.6548982558139534 Channel: 9 
Note on, C2 key =  36;WhichDrum: B ; velocity: 127
@12420 , @0.6548982558139534 Channel: 9 
Note on, F#2 key =  42;WhichDrum: C1 ; velocity: 127
@12480 , @0.658062015503876 Channel: 9 
Note on, C2 key =  36;WhichDrum: B ; velocity: 0
@12480 , @0.658062015503876 Channel: 9 
Note on, F#2 key =  42;WhichDrum: C1 ; velocity: 0
@12480 , @0.658062015503876 Channel: 9 
Note on, F#2 key =  42;WhichDrum: C1 ; velocity: 127
@12480 , @0.658062015503876 Channel: 9 
Note on, C2 key =  36;WhichDrum: B ; velocity: 127
@12540 , @0.6612257751937984 Channel: 9 
Note on, F#2 key =  42;WhichDrum: C1 ; velocity: 0
@12540 , @0.6612257751937984 Channel: 9 
Note on, F#2 key =  42;WhichDrum: C1 ; velocity: 127
@12600 , @0.664389534883721 Channel: 9 
Note on, C2 key =  36;WhichDrum: B ; velocity: 0
@12600 , @0.664389534883721 Channel: 9 
Note on, F#2 key =  42;WhichDrum: C1 ; velocity: 0
@12600 , @0.664389534883721 Channel: 9 
Note on, D2 key =  38;WhichDrum: T2 ; velocity: 127
@12600 , @0.664389534883721 Channel: 9 
Note on, F#2 key =  42;WhichDrum: C1 ; velocity: 127
@12660 , @0.6675532945736434 Channel: 9 
Note on, D2 key =  38;WhichDrum: T2 ; velocity: 0
@12660 , @0.6675532945736434 Channel: 9 
Note on, F#2 key =  42;WhichDrum: C1 ; velocity: 0
@12660 , @0.6675532945736434 Channel: 9 
Note on, F#2 key =  42;WhichDrum: C1 ; velocity: 127
@12720 , @0.670717054263566 Channel: 9 
Note on, F#2 key =  42;WhichDrum: C1 ; velocity: 0
@12720 , @0.670717054263566 Channel: 9 
Note on, C2 key =  36;WhichDrum: B ; velocity: 127
@12720 , @0.670717054263566 Channel: 9 
Note on, F#2 key =  42;WhichDrum: C1 ; velocity: 127
@12780 , @0.6738808139534884 Channel: 9 
Note on, C2 key =  36;WhichDrum: B ; velocity: 0
@12780 , @0.6738808139534884 Channel: 9 
Note on, F#2 key =  42;WhichDrum: C1 ; velocity: 0
@12780 , @0.6738808139534884 Channel: 9 
Note on, C2 key =  36;WhichDrum: B ; velocity: 127
@12780 , @0.6738808139534884 Channel: 9 
Note on, F#2 key =  42;WhichDrum: C1 ; velocity: 127
@12800 , @0.6749354005167959 Channel: 9 
Note on, C2 key =  36;WhichDrum: B ; velocity: 0
@12800 , @0.6749354005167959 Channel: 9 
Note on, C2 key =  36;WhichDrum: B ; velocity: 127
@12820 , @0.6759899870801034 Channel: 9 
Note on, C2 key =  36;WhichDrum: B ; velocity: 0
@12820 , @0.6759899870801034 Channel: 9 
Note on, C2 key =  36;WhichDrum: B ; velocity: 127
@12840 , @0.6770445736434109 Channel: 9 
Note on, F#2 key =  42;WhichDrum: C1 ; velocity: 0
@12840 , @0.6770445736434109 Channel: 9 
Note on, C2 key =  36;WhichDrum: B ; velocity: 0
@12840 , @0.6770445736434109 Channel: 9 
Note on, D2 key =  38;WhichDrum: T2 ; velocity: 127
@12840 , @0.6770445736434109 Channel: 9 
Note on, F#2 key =  42;WhichDrum: C1 ; velocity: 127
@12900 , @0.6802083333333334 Channel: 9 
Note on, D2 key =  38;WhichDrum: T2 ; velocity: 0
@12900 , @0.6802083333333334 Channel: 9 
Note on, F#2 key =  42;WhichDrum: C1 ; velocity: 0
@12900 , @0.6802083333333334 Channel: 9 
Note on, C2 key =  36;WhichDrum: B ; velocity: 127
@12900 , @0.6802083333333334 Channel: 9 
Note on, F#2 key =  42;WhichDrum: C1 ; velocity: 127
@12960 , @0.6833720930232559 Channel: 9 
Note on, C2 key =  36;WhichDrum: B ; velocity: 0
@12960 , @0.6833720930232559 Channel: 9 
Note on, F#2 key =  42;WhichDrum: C1 ; velocity: 0
@12960 , @0.6833720930232559 Channel: 9 
Note on, F#2 key =  42;WhichDrum: C1 ; velocity: 127
@12960 , @0.6833720930232559 Channel: 9 
Note on, C2 key =  36;WhichDrum: B ; velocity: 127
@13020 , @0.6865358527131784 Channel: 9 
Note on, F#2 key =  42;WhichDrum: C1 ; velocity: 0
@13020 , @0.6865358527131784 Channel: 9 
Note on, F#2 key =  42;WhichDrum: C1 ; velocity: 127
@13080 , @0.6896996124031007 Channel: 9 
Note on, C2 key =  36;WhichDrum: B ; velocity: 0
@13080 , @0.6896996124031007 Channel: 9 
Note on, F#2 key =  42;WhichDrum: C1 ; velocity: 0
@13080 , @0.6896996124031007 Channel: 9 
Note on, D2 key =  38;WhichDrum: T2 ; velocity: 127
@13080 , @0.6896996124031007 Channel: 9 
Note on, F#2 key =  42;WhichDrum: C1 ; velocity: 127
@13140 , @0.6928633720930233 Channel: 9 
Note on, D2 key =  38;WhichDrum: T2 ; velocity: 0
@13140 , @0.6928633720930233 Channel: 9 
Note on, F#2 key =  42;WhichDrum: C1 ; velocity: 0
@13140 , @0.6928633720930233 Channel: 9 
Note on, F#2 key =  42;WhichDrum: C1 ; velocity: 127
@13200 , @0.6960271317829457 Channel: 9 
Note on, F#2 key =  42;WhichDrum: C1 ; velocity: 0
@13200 , @0.6960271317829457 Channel: 9 
Note on, C2 key =  36;WhichDrum: B ; velocity: 127
@13200 , @0.6960271317829457 Channel: 9 
Note on, F#2 key =  42;WhichDrum: C1 ; velocity: 127
@13260 , @0.6991908914728682 Channel: 9 
Note on, C2 key =  36;WhichDrum: B ; velocity: 0
@13260 , @0.6991908914728682 Channel: 9 
Note on, F#2 key =  42;WhichDrum: C1 ; velocity: 0
@13260 , @0.6991908914728682 Channel: 9 
Note on, C2 key =  36;WhichDrum: B ; velocity: 127
@13260 , @0.6991908914728682 Channel: 9 
Note on, F#2 key =  42;WhichDrum: C1 ; velocity: 127
@13280 , @0.7002454780361758 Channel: 9 
Note on, C2 key =  36;WhichDrum: B ; velocity: 0
@13280 , @0.7002454780361758 Channel: 9 
Note on, C2 key =  36;WhichDrum: B ; velocity: 127
@13300 , @0.7013000645994832 Channel: 9 
Note on, C2 key =  36;WhichDrum: B ; velocity: 0
@13300 , @0.7013000645994832 Channel: 9 
Note on, C2 key =  36;WhichDrum: B ; velocity: 127
@13320 , @0.7023546511627907 Channel: 9 
Note on, F#2 key =  42;WhichDrum: C1 ; velocity: 0
@13320 , @0.7023546511627907 Channel: 9 
Note on, C2 key =  36;WhichDrum: B ; velocity: 0
@13320 , @0.7023546511627907 Channel: 9 
Note on, D2 key =  38;WhichDrum: T2 ; velocity: 127
@13320 , @0.7023546511627907 Channel: 9 
Note on, F#2 key =  42;WhichDrum: C1 ; velocity: 127
@13380 , @0.7055184108527132 Channel: 9 
Note on, D2 key =  38;WhichDrum: T2 ; velocity: 0
@13380 , @0.7055184108527132 Channel: 9 
Note on, F#2 key =  42;WhichDrum: C1 ; velocity: 0
@13380 , @0.7055184108527132 Channel: 9 
Note on, F#2 key =  42;WhichDrum: C1 ; velocity: 127
@13440 , @0.7086821705426357 Channel: 9 
Note on, F#2 key =  42;WhichDrum: C1 ; velocity: 0
@13440 , @0.7086821705426357 Channel: 9 
Note on, C2 key =  36;WhichDrum: B ; velocity: 127
@13440 , @0.7086821705426357 Channel: 9 
Note on, F#2 key =  42;WhichDrum: C1 ; velocity: 127
@13500 , @0.7118459302325582 Channel: 9 
Note on, F#2 key =  42;WhichDrum: C1 ; velocity: 0
@13500 , @0.7118459302325582 Channel: 9 
Note on, F#2 key =  42;WhichDrum: C1 ; velocity: 127
@13555 , @0.7147460432816537 Channel: 9 
Note on, F#2 key =  42;WhichDrum: C1 ; velocity: 0
@13555 , @0.7147460432816537 Channel: 9 
Note on, D2 key =  38;WhichDrum: T2 ; velocity: 75
@13560 , @0.7150096899224806 Channel: 9 
Note on, C2 key =  36;WhichDrum: B ; velocity: 0
@13560 , @0.7150096899224806 Channel: 9 
Note on, D2 key =  38;WhichDrum: T2 ; velocity: 127
@13620 , @0.7181734496124031 Channel: 9 
Note on, D2 key =  38;WhichDrum: T2 ; velocity: 0
@13620 , @0.7181734496124031 Channel: 9 
Note on, D2 key =  38;WhichDrum: T2 ; velocity: 0
@13620 , @0.7181734496124031 Channel: 9 
Note on, D2 key =  38;WhichDrum: T2 ; velocity: 127
@13680 , @0.7213372093023256 Channel: 9 
Note on, D2 key =  38;WhichDrum: T2 ; velocity: 0
@13680 , @0.7213372093023256 Channel: 9 
Note on, A2 key =  45;WhichDrum: T3 ; velocity: 127
@13710 , @0.7229190891472869 Channel: 9 
Note on, A2 key =  45;WhichDrum: T3 ; velocity: 0
@13710 , @0.7229190891472869 Channel: 9 
Note on, A2 key =  45;WhichDrum: T3 ; velocity: 127
@13740 , @0.7245009689922481 Channel: 9 
Note on, A2 key =  45;WhichDrum: T3 ; velocity: 0
@13740 , @0.7245009689922481 Channel: 9 
Note on, A2 key =  45;WhichDrum: T3 ; velocity: 127
@13800 , @0.7276647286821706 Channel: 9 
Note on, A2 key =  45;WhichDrum: T3 ; velocity: 0
@13800 , @0.7276647286821706 Channel: 9 
Note on, B2 key =  47;WhichDrum: T1 ; velocity: 127
@13830 , @0.7292466085271319 Channel: 9 
Note on, B2 key =  47;WhichDrum: T1 ; velocity: 0
@13830 , @0.7292466085271319 Channel: 9 
Note on, B2 key =  47;WhichDrum: T1 ; velocity: 127
@13860 , @0.7308284883720931 Channel: 9 
Note on, B2 key =  47;WhichDrum: T1 ; velocity: 0
@13860 , @0.7308284883720931 Channel: 9 
Note on, B2 key =  47;WhichDrum: T1 ; velocity: 127
@13920 , @0.7339922480620156 Channel: 9 
Note on, B2 key =  47;WhichDrum: T1 ; velocity: 0
@13920 , @0.7339922480620156 Channel: 9 
Note on, C2 key =  36;WhichDrum: B ; velocity: 127
@13920 , @0.7339922480620156 Channel: 9 
Note on, A3 key =  57;WhichDrum: T3 ; velocity: 127
@14040 , @0.7403197674418605 Channel: 9 
Note on, C2 key =  36;WhichDrum: B ; velocity: 0
@14040 , @0.7403197674418605 Channel: 9 
Note on, A3 key =  57;WhichDrum: T3 ; velocity: 0
@14040 , @0.7403197674418605 Channel: 9 
Note on, F#2 key =  42;WhichDrum: C1 ; velocity: 127
@14040 , @0.7403197674418605 Channel: 9 
Note on, D2 key =  38;WhichDrum: T2 ; velocity: 127
@14100 , @0.7434835271317829 Channel: 9 
Note on, F#2 key =  42;WhichDrum: C1 ; velocity: 0
@14100 , @0.7434835271317829 Channel: 9 
Note on, D2 key =  38;WhichDrum: T2 ; velocity: 0
@14100 , @0.7434835271317829 Channel: 9 
Note on, F#2 key =  42;WhichDrum: C1 ; velocity: 127
@14160 , @0.7466472868217054 Channel: 9 
Note on, F#2 key =  42;WhichDrum: C1 ; velocity: 0
@14160 , @0.7466472868217054 Channel: 9 
Note on, C2 key =  36;WhichDrum: B ; velocity: 127
@14160 , @0.7466472868217054 Channel: 9 
Note on, F#2 key =  42;WhichDrum: C1 ; velocity: 127
@14220 , @0.7498110465116279 Channel: 9 
Note on, C2 key =  36;WhichDrum: B ; velocity: 0
@14220 , @0.7498110465116279 Channel: 9 
Note on, F#2 key =  42;WhichDrum: C1 ; velocity: 0
@14220 , @0.7498110465116279 Channel: 9 
Note on, C2 key =  36;WhichDrum: B ; velocity: 127
@14220 , @0.7498110465116279 Channel: 9 
Note on, F#2 key =  42;WhichDrum: C1 ; velocity: 127
@14240 , @0.7508656330749355 Channel: 9 
Note on, C2 key =  36;WhichDrum: B ; velocity: 0
@14240 , @0.7508656330749355 Channel: 9 
Note on, C2 key =  36;WhichDrum: B ; velocity: 127
@14260 , @0.751920219638243 Channel: 9 
Note on, C2 key =  36;WhichDrum: B ; velocity: 0
@14260 , @0.751920219638243 Channel: 9 
Note on, C2 key =  36;WhichDrum: B ; velocity: 127
@14280 , @0.7529748062015504 Channel: 9 
Note on, F#2 key =  42;WhichDrum: C1 ; velocity: 0
@14280 , @0.7529748062015504 Channel: 9 
Note on, C2 key =  36;WhichDrum: B ; velocity: 0
@14280 , @0.7529748062015504 Channel: 9 
Note on, D2 key =  38;WhichDrum: T2 ; velocity: 127
@14280 , @0.7529748062015504 Channel: 9 
Note on, F#2 key =  42;WhichDrum: C1 ; velocity: 127
@14340 , @0.7561385658914729 Channel: 9 
Note on, D2 key =  38;WhichDrum: T2 ; velocity: 0
@14340 , @0.7561385658914729 Channel: 9 
Note on, F#2 key =  42;WhichDrum: C1 ; velocity: 0
@14340 , @0.7561385658914729 Channel: 9 
Note on, C2 key =  36;WhichDrum: B ; velocity: 127
@14340 , @0.7561385658914729 Channel: 9 
Note on, F#2 key =  42;WhichDrum: C1 ; velocity: 127
@14400 , @0.7593023255813953 Channel: 9 
Note on, C2 key =  36;WhichDrum: B ; velocity: 0
@14400 , @0.7593023255813953 Channel: 9 
Note on, F#2 key =  42;WhichDrum: C1 ; velocity: 0
@14400 , @0.7593023255813953 Channel: 9 
Note on, F#2 key =  42;WhichDrum: C1 ; velocity: 127
@14400 , @0.7593023255813953 Channel: 9 
Note on, C2 key =  36;WhichDrum: B ; velocity: 127
@14460 , @0.7624660852713179 Channel: 9 
Note on, F#2 key =  42;WhichDrum: C1 ; velocity: 0
@14460 , @0.7624660852713179 Channel: 9 
Note on, F#2 key =  42;WhichDrum: C1 ; velocity: 127
@14520 , @0.7656298449612403 Channel: 9 
Note on, C2 key =  36;WhichDrum: B ; velocity: 0
@14520 , @0.7656298449612403 Channel: 9 
Note on, F#2 key =  42;WhichDrum: C1 ; velocity: 0
@14520 , @0.7656298449612403 Channel: 9 
Note on, D2 key =  38;WhichDrum: T2 ; velocity: 127
@14520 , @0.7656298449612403 Channel: 9 
Note on, F#2 key =  42;WhichDrum: C1 ; velocity: 127
@14580 , @0.7687936046511629 Channel: 9 
Note on, D2 key =  38;WhichDrum: T2 ; velocity: 0
@14580 , @0.7687936046511629 Channel: 9 
Note on, F#2 key =  42;WhichDrum: C1 ; velocity: 0
@14580 , @0.7687936046511629 Channel: 9 
Note on, F#2 key =  42;WhichDrum: C1 ; velocity: 127
@14640 , @0.7719573643410853 Channel: 9 
Note on, F#2 key =  42;WhichDrum: C1 ; velocity: 0
@14640 , @0.7719573643410853 Channel: 9 
Note on, C2 key =  36;WhichDrum: B ; velocity: 127
@14640 , @0.7719573643410853 Channel: 9 
Note on, F#2 key =  42;WhichDrum: C1 ; velocity: 127
@14700 , @0.7751211240310077 Channel: 9 
Note on, C2 key =  36;WhichDrum: B ; velocity: 0
@14700 , @0.7751211240310077 Channel: 9 
Note on, F#2 key =  42;WhichDrum: C1 ; velocity: 0
@14700 , @0.7751211240310077 Channel: 9 
Note on, C2 key =  36;WhichDrum: B ; velocity: 127
@14700 , @0.7751211240310077 Channel: 9 
Note on, F#2 key =  42;WhichDrum: C1 ; velocity: 127
@14720 , @0.7761757105943152 Channel: 9 
Note on, C2 key =  36;WhichDrum: B ; velocity: 0
@14720 , @0.7761757105943152 Channel: 9 
Note on, C2 key =  36;WhichDrum: B ; velocity: 127
@14740 , @0.7772302971576227 Channel: 9 
Note on, C2 key =  36;WhichDrum: B ; velocity: 0
@14740 , @0.7772302971576227 Channel: 9 
Note on, C2 key =  36;WhichDrum: B ; velocity: 127
@14760 , @0.7782848837209303 Channel: 9 
Note on, F#2 key =  42;WhichDrum: C1 ; velocity: 0
@14760 , @0.7782848837209303 Channel: 9 
Note on, C2 key =  36;WhichDrum: B ; velocity: 0
@14760 , @0.7782848837209303 Channel: 9 
Note on, D2 key =  38;WhichDrum: T2 ; velocity: 127
@14760 , @0.7782848837209303 Channel: 9 
Note on, F#2 key =  42;WhichDrum: C1 ; velocity: 127
@14820 , @0.7814486434108527 Channel: 9 
Note on, D2 key =  38;WhichDrum: T2 ; velocity: 0
@14820 , @0.7814486434108527 Channel: 9 
Note on, F#2 key =  42;WhichDrum: C1 ; velocity: 0
@14820 , @0.7814486434108527 Channel: 9 
Note on, C2 key =  36;WhichDrum: B ; velocity: 127
@14820 , @0.7814486434108527 Channel: 9 
Note on, F#2 key =  42;WhichDrum: C1 ; velocity: 127
@14880 , @0.7846124031007753 Channel: 9 
Note on, C2 key =  36;WhichDrum: B ; velocity: 0
@14880 , @0.7846124031007753 Channel: 9 
Note on, F#2 key =  42;WhichDrum: C1 ; velocity: 0
@14880 , @0.7846124031007753 Channel: 9 
Note on, C2 key =  36;WhichDrum: B ; velocity: 127
@14880 , @0.7846124031007753 Channel: 9 
Note on, F#2 key =  42;WhichDrum: C1 ; velocity: 127
@14940 , @0.7877761627906977 Channel: 9 
Note on, F#2 key =  42;WhichDrum: C1 ; velocity: 0
@14940 , @0.7877761627906977 Channel: 9 
Note on, F#2 key =  42;WhichDrum: C1 ; velocity: 127
@15000 , @0.7909399224806202 Channel: 9 
Note on, C2 key =  36;WhichDrum: B ; velocity: 0
@15000 , @0.7909399224806202 Channel: 9 
Note on, F#2 key =  42;WhichDrum: C1 ; velocity: 0
@15000 , @0.7909399224806202 Channel: 9 
Note on, D2 key =  38;WhichDrum: T2 ; velocity: 127
@15000 , @0.7909399224806202 Channel: 9 
Note on, A3 key =  57;WhichDrum: T3 ; velocity: 127
@15060 , @0.7941036821705426 Channel: 9 
Note on, D2 key =  38;WhichDrum: T2 ; velocity: 0
@15060 , @0.7941036821705426 Channel: 9 
Note on, A3 key =  57;WhichDrum: T3 ; velocity: 0
@15060 , @0.7941036821705426 Channel: 9 
Note on, F#2 key =  42;WhichDrum: C1 ; velocity: 127
@15120 , @0.7972674418604652 Channel: 9 
Note on, F#2 key =  42;WhichDrum: C1 ; velocity: 0
@15120 , @0.7972674418604652 Channel: 9 
Note on, C2 key =  36;WhichDrum: B ; velocity: 127
@15120 , @0.7972674418604652 Channel: 9 
Note on, F#2 key =  42;WhichDrum: C1 ; velocity: 127
@15180 , @0.8004312015503876 Channel: 9 
Note on, C2 key =  36;WhichDrum: B ; velocity: 0
@15180 , @0.8004312015503876 Channel: 9 
Note on, F#2 key =  42;WhichDrum: C1 ; velocity: 0
@15180 , @0.8004312015503876 Channel: 9 
Note on, C2 key =  36;WhichDrum: B ; velocity: 127
@15180 , @0.8004312015503876 Channel: 9 
Note on, F#2 key =  42;WhichDrum: C1 ; velocity: 127
@15200 , @0.8014857881136951 Channel: 9 
Note on, C2 key =  36;WhichDrum: B ; velocity: 0
@15200 , @0.8014857881136951 Channel: 9 
Note on, C2 key =  36;WhichDrum: B ; velocity: 127
@15220 , @0.8025403746770027 Channel: 9 
Note on, C2 key =  36;WhichDrum: B ; velocity: 0
@15220 , @0.8025403746770027 Channel: 9 
Note on, C2 key =  36;WhichDrum: B ; velocity: 127
@15240 , @0.80359496124031 Channel: 9 
Note on, F#2 key =  42;WhichDrum: C1 ; velocity: 0
@15240 , @0.80359496124031 Channel: 9 
Note on, C2 key =  36;WhichDrum: B ; velocity: 0
@15240 , @0.80359496124031 Channel: 9 
Note on, A3 key =  57;WhichDrum: T3 ; velocity: 127
@15240 , @0.80359496124031 Channel: 9 
Note on, D2 key =  38;WhichDrum: T2 ; velocity: 127
@15300 , @0.8067587209302326 Channel: 9 
Note on, A3 key =  57;WhichDrum: T3 ; velocity: 0
@15300 , @0.8067587209302326 Channel: 9 
Note on, D2 key =  38;WhichDrum: T2 ; velocity: 0
@15300 , @0.8067587209302326 Channel: 9 
Note on, F#2 key =  42;WhichDrum: C1 ; velocity: 127
@15360 , @0.809922480620155 Channel: 9 
Note on, F#2 key =  42;WhichDrum: C1 ; velocity: 0
@15360 , @0.809922480620155 Channel: 9 
Note on, F#2 key =  42;WhichDrum: C1 ; velocity: 127
@15360 , @0.809922480620155 Channel: 9 
Note on, C2 key =  36;WhichDrum: B ; velocity: 127
@15420 , @0.8130862403100776 Channel: 9 
Note on, F#2 key =  42;WhichDrum: C1 ; velocity: 0
@15420 , @0.8130862403100776 Channel: 9 
Note on, C2 key =  36;WhichDrum: B ; velocity: 0
@15420 , @0.8130862403100776 Channel: 9 
Note on, F#2 key =  42;WhichDrum: C1 ; velocity: 127
@15420 , @0.8130862403100776 Channel: 9 
Note on, C2 key =  36;WhichDrum: B ; velocity: 127
@15440 , @0.8141408268733851 Channel: 9 
Note on, C2 key =  36;WhichDrum: B ; velocity: 0
@15440 , @0.8141408268733851 Channel: 9 
Note on, C2 key =  36;WhichDrum: B ; velocity: 127
@15460 , @0.8151954134366926 Channel: 9 
Note on, C2 key =  36;WhichDrum: B ; velocity: 0
@15460 , @0.8151954134366926 Channel: 9 
Note on, C2 key =  36;WhichDrum: B ; velocity: 127
@15480 , @0.81625 Channel: 9 
Note on, F#2 key =  42;WhichDrum: C1 ; velocity: 0
@15480 , @0.81625 Channel: 9 
Note on, C2 key =  36;WhichDrum: B ; velocity: 0
@15480 , @0.81625 Channel: 9 
Note on, D2 key =  38;WhichDrum: T2 ; velocity: 127
@15480 , @0.81625 Channel: 9 
Note on, A3 key =  57;WhichDrum: T3 ; velocity: 127
@15540 , @0.8194137596899225 Channel: 9 
Note on, D2 key =  38;WhichDrum: T2 ; velocity: 0
@15540 , @0.8194137596899225 Channel: 9 
Note on, A3 key =  57;WhichDrum: T3 ; velocity: 0
@15540 , @0.8194137596899225 Channel: 9 
Note on, F#2 key =  42;WhichDrum: C1 ; velocity: 127
@15570 , @0.8209956395348837 Channel: 9 
Note on, F#2 key =  42;WhichDrum: C1 ; velocity: 0
@15570 , @0.8209956395348837 Channel: 9 
Note on, D2 key =  38;WhichDrum: T2 ; velocity: 127
@15600 , @0.822577519379845 Channel: 9 
Note on, D2 key =  38;WhichDrum: T2 ; velocity: 0
@15600 , @0.822577519379845 Channel: 9 
Note on, C2 key =  36;WhichDrum: B ; velocity: 127
@15600 , @0.822577519379845 Channel: 9 
Note on, A3 key =  57;WhichDrum: T3 ; velocity: 127
@15660 , @0.8257412790697675 Channel: 9 
Note on, A3 key =  57;WhichDrum: T3 ; velocity: 0
@15660 , @0.8257412790697675 Channel: 9 
Note on, D2 key =  38;WhichDrum: T2 ; velocity: 127
@15690 , @0.8273231589147287 Channel: 9 
Note on, D2 key =  38;WhichDrum: T2 ; velocity: 0
@15690 , @0.8273231589147287 Channel: 9 
Note on, D2 key =  38;WhichDrum: T2 ; velocity: 127
@15720 , @0.82890503875969 Channel: 9 
Note on, C2 key =  36;WhichDrum: B ; velocity: 0
@15720 , @0.82890503875969 Channel: 9 
Note on, D2 key =  38;WhichDrum: T2 ; velocity: 0
@15720 , @0.82890503875969 Channel: 9 
Note on, D2 key =  38;WhichDrum: T2 ; velocity: 127
@15780 , @0.8320687984496125 Channel: 9 
Note on, D2 key =  38;WhichDrum: T2 ; velocity: 0
@15780 , @0.8320687984496125 Channel: 9 
Note on, D2 key =  38;WhichDrum: T2 ; velocity: 127
@15840 , @0.8352325581395349 Channel: 9 
Note on, D2 key =  38;WhichDrum: T2 ; velocity: 0
@15840 , @0.8352325581395349 Channel: 9 
Note on, C2 key =  36;WhichDrum: B ; velocity: 127
@15840 , @0.8352325581395349 Channel: 9 
Note on, A3 key =  57;WhichDrum: T3 ; velocity: 127
@15960 , @0.8415600775193799 Channel: 9 
Note on, C2 key =  36;WhichDrum: B ; velocity: 0
@15960 , @0.8415600775193799 Channel: 9 
Note on, A3 key =  57;WhichDrum: T3 ; velocity: 0
@15960 , @0.8415600775193799 Channel: 9 
Note on, D2 key =  38;WhichDrum: T2 ; velocity: 127
@15960 , @0.8415600775193799 Channel: 9 
Note on, F#2 key =  42;WhichDrum: C1 ; velocity: 127
@16020 , @0.8447238372093024 Channel: 9 
Note on, D2 key =  38;WhichDrum: T2 ; velocity: 0
@16020 , @0.8447238372093024 Channel: 9 
Note on, F#2 key =  42;WhichDrum: C1 ; velocity: 0
@16020 , @0.8447238372093024 Channel: 9 
Note on, F#2 key =  42;WhichDrum: C1 ; velocity: 127
@16080 , @0.8478875968992249 Channel: 9 
Note on, F#2 key =  42;WhichDrum: C1 ; velocity: 0
@16080 , @0.8478875968992249 Channel: 9 
Note on, F#2 key =  42;WhichDrum: C1 ; velocity: 127
@16080 , @0.8478875968992249 Channel: 9 
Note on, C2 key =  36;WhichDrum: B ; velocity: 127
@16140 , @0.8510513565891474 Channel: 9 
Note on, F#2 key =  42;WhichDrum: C1 ; velocity: 0
@16140 , @0.8510513565891474 Channel: 9 
Note on, F#2 key =  42;WhichDrum: C1 ; velocity: 127
@16200 , @0.8542151162790699 Channel: 9 
Note on, C2 key =  36;WhichDrum: B ; velocity: 0
@16200 , @0.8542151162790699 Channel: 9 
Note on, F#2 key =  42;WhichDrum: C1 ; velocity: 0
@16200 , @0.8542151162790699 Channel: 9 
Note on, D2 key =  38;WhichDrum: T2 ; velocity: 127
@16200 , @0.8542151162790699 Channel: 9 
Note on, F#2 key =  42;WhichDrum: C1 ; velocity: 127
@16260 , @0.8573788759689923 Channel: 9 
Note on, D2 key =  38;WhichDrum: T2 ; velocity: 0
@16260 , @0.8573788759689923 Channel: 9 
Note on, F#2 key =  42;WhichDrum: C1 ; velocity: 0
@16260 , @0.8573788759689923 Channel: 9 
Note on, F#2 key =  42;WhichDrum: C1 ; velocity: 127
@16320 , @0.8605426356589149 Channel: 9 
Note on, F#2 key =  42;WhichDrum: C1 ; velocity: 0
@16321 , @0.8605953649870801 Channel: 9 
Note on, F#2 key =  42;WhichDrum: C1 ; velocity: 127
@16321 , @0.8605953649870801 Channel: 9 
Note on, C2 key =  36;WhichDrum: B ; velocity: 127
@16381 , @0.8637591246770027 Channel: 9 
Note on, F#2 key =  42;WhichDrum: C1 ; velocity: 0
@16381 , @0.8637591246770027 Channel: 9 
Note on, F#2 key =  42;WhichDrum: C1 ; velocity: 127
@16441 , @0.8669228843669251 Channel: 9 
Note on, C2 key =  36;WhichDrum: B ; velocity: 0
@16441 , @0.8669228843669251 Channel: 9 
Note on, F#2 key =  42;WhichDrum: C1 ; velocity: 0
@16441 , @0.8669228843669251 Channel: 9 
Note on, D2 key =  38;WhichDrum: T2 ; velocity: 127
@16441 , @0.8669228843669251 Channel: 9 
Note on, F#2 key =  42;WhichDrum: C1 ; velocity: 127
@16501 , @0.8700866440568475 Channel: 9 
Note on, D2 key =  38;WhichDrum: T2 ; velocity: 0
@16501 , @0.8700866440568475 Channel: 9 
Note on, F#2 key =  42;WhichDrum: C1 ; velocity: 0
@16501 , @0.8700866440568475 Channel: 9 
Note on, F#2 key =  42;WhichDrum: C1 ; velocity: 127
@16561 , @0.8732504037467701 Channel: 9 
Note on, F#2 key =  42;WhichDrum: C1 ; velocity: 0
@16561 , @0.8732504037467701 Channel: 9 
Note on, C2 key =  36;WhichDrum: B ; velocity: 127
@16561 , @0.8732504037467701 Channel: 9 
Note on, F#2 key =  42;WhichDrum: C1 ; velocity: 127
@16621 , @0.8764141634366925 Channel: 9 
Note on, C2 key =  36;WhichDrum: B ; velocity: 0
@16621 , @0.8764141634366925 Channel: 9 
Note on, F#2 key =  42;WhichDrum: C1 ; velocity: 0
@16621 , @0.8764141634366925 Channel: 9 
Note on, C2 key =  36;WhichDrum: B ; velocity: 127
@16621 , @0.8764141634366925 Channel: 9 
Note on, F#2 key =  42;WhichDrum: C1 ; velocity: 127
@16641 , @0.87746875 Channel: 9 
Note on, C2 key =  36;WhichDrum: B ; velocity: 0
@16641 , @0.87746875 Channel: 9 
Note on, C2 key =  36;WhichDrum: B ; velocity: 127
@16661 , @0.8785233365633076 Channel: 9 
Note on, C2 key =  36;WhichDrum: B ; velocity: 0
@16661 , @0.8785233365633076 Channel: 9 
Note on, C2 key =  36;WhichDrum: B ; velocity: 127
@16681 , @0.8795779231266151 Channel: 9 
Note on, F#2 key =  42;WhichDrum: C1 ; velocity: 0
@16681 , @0.8795779231266151 Channel: 9 
Note on, C2 key =  36;WhichDrum: B ; velocity: 0
@16681 , @0.8795779231266151 Channel: 9 
Note on, D2 key =  38;WhichDrum: T2 ; velocity: 127
@16681 , @0.8795779231266151 Channel: 9 
Note on, F#2 key =  42;WhichDrum: C1 ; velocity: 127
@16741 , @0.8827416828165375 Channel: 9 
Note on, D2 key =  38;WhichDrum: T2 ; velocity: 0
@16741 , @0.8827416828165375 Channel: 9 
Note on, F#2 key =  42;WhichDrum: C1 ; velocity: 0
@16741 , @0.8827416828165375 Channel: 9 
Note on, C2 key =  36;WhichDrum: B ; velocity: 127
@16741 , @0.8827416828165375 Channel: 9 
Note on, F#2 key =  42;WhichDrum: C1 ; velocity: 127
@16800 , @0.8858527131782945 Channel: 9 
Note on, C2 key =  36;WhichDrum: B ; velocity: 127
@16800 , @0.8858527131782945 Channel: 9 
Note on, F#2 key =  42;WhichDrum: C1 ; velocity: 127
@16801 , @0.88590544250646 Channel: 9 
Note on, C2 key =  36;WhichDrum: B ; velocity: 0
@16801 , @0.88590544250646 Channel: 9 
Note on, F#2 key =  42;WhichDrum: C1 ; velocity: 0
@16860 , @0.8890164728682171 Channel: 9 
Note on, F#2 key =  42;WhichDrum: C1 ; velocity: 0
@16860 , @0.8890164728682171 Channel: 9 
Note on, F#2 key =  42;WhichDrum: C1 ; velocity: 127
@16920 , @0.8921802325581395 Channel: 9 
Note on, C2 key =  36;WhichDrum: B ; velocity: 0
@16920 , @0.8921802325581395 Channel: 9 
Note on, F#2 key =  42;WhichDrum: C1 ; velocity: 0
@16920 , @0.8921802325581395 Channel: 9 
Note on, D2 key =  38;WhichDrum: T2 ; velocity: 127
@16920 , @0.8921802325581395 Channel: 9 
Note on, F#2 key =  42;WhichDrum: C1 ; velocity: 127
@16980 , @0.895343992248062 Channel: 9 
Note on, D2 key =  38;WhichDrum: T2 ; velocity: 0
@16980 , @0.895343992248062 Channel: 9 
Note on, F#2 key =  42;WhichDrum: C1 ; velocity: 0
@16980 , @0.895343992248062 Channel: 9 
Note on, F#2 key =  42;WhichDrum: C1 ; velocity: 127
@17040 , @0.8985077519379845 Channel: 9 
Note on, F#2 key =  42;WhichDrum: C1 ; velocity: 0
@17040 , @0.8985077519379845 Channel: 9 
Note on, C2 key =  36;WhichDrum: B ; velocity: 127
@17040 , @0.8985077519379845 Channel: 9 
Note on, F#2 key =  42;WhichDrum: C1 ; velocity: 127
@17100 , @0.9016715116279069 Channel: 9 
Note on, F#2 key =  42;WhichDrum: C1 ; velocity: 0
@17100 , @0.9016715116279069 Channel: 9 
Note on, F#2 key =  42;WhichDrum: C1 ; velocity: 127
@17160 , @0.9048352713178295 Channel: 9 
Note on, C2 key =  36;WhichDrum: B ; velocity: 0
@17160 , @0.9048352713178295 Channel: 9 
Note on, F#2 key =  42;WhichDrum: C1 ; velocity: 0
@17160 , @0.9048352713178295 Channel: 9 
Note on, B1 key =  35;WhichDrum: T1 ; velocity: 127
@17160 , @0.9048352713178295 Channel: 9 
Note on, F#2 key =  42;WhichDrum: C1 ; velocity: 127
@17220 , @0.9079990310077519 Channel: 9 
Note on, B1 key =  35;WhichDrum: T1 ; velocity: 0
@17220 , @0.9079990310077519 Channel: 9 
Note on, F#2 key =  42;WhichDrum: C1 ; velocity: 0
@17220 , @0.9079990310077519 Channel: 9 
Note on, F#2 key =  42;WhichDrum: C1 ; velocity: 127
@17280 , @0.9111627906976745 Channel: 9 
Note on, F#2 key =  42;WhichDrum: C1 ; velocity: 0
@17280 , @0.9111627906976745 Channel: 9 
Note on, F#2 key =  42;WhichDrum: C1 ; velocity: 127
@17280 , @0.9111627906976745 Channel: 9 
Note on, C2 key =  36;WhichDrum: B ; velocity: 127
@17340 , @0.9143265503875969 Channel: 9 
Note on, F#2 key =  42;WhichDrum: C1 ; velocity: 0
@17340 , @0.9143265503875969 Channel: 9 
Note on, F#2 key =  42;WhichDrum: C1 ; velocity: 127
@17400 , @0.9174903100775195 Channel: 9 
Note on, C2 key =  36;WhichDrum: B ; velocity: 0
@17400 , @0.9174903100775195 Channel: 9 
Note on, F#2 key =  42;WhichDrum: C1 ; velocity: 0
@17400 , @0.9174903100775195 Channel: 9 
Note on, D2 key =  38;WhichDrum: T2 ; velocity: 127
@17400 , @0.9174903100775195 Channel: 9 
Note on, F#2 key =  42;WhichDrum: C1 ; velocity: 127
@17460 , @0.9206540697674419 Channel: 9 
Note on, D2 key =  38;WhichDrum: T2 ; velocity: 0
@17460 , @0.9206540697674419 Channel: 9 
Note on, F#2 key =  42;WhichDrum: C1 ; velocity: 0
@17460 , @0.9206540697674419 Channel: 9 
Note on, F#2 key =  42;WhichDrum: C1 ; velocity: 127
@17520 , @0.9238178294573643 Channel: 9 
Note on, F#2 key =  42;WhichDrum: C1 ; velocity: 0
@17520 , @0.9238178294573643 Channel: 9 
Note on, C2 key =  36;WhichDrum: B ; velocity: 127
@17520 , @0.9238178294573643 Channel: 9 
Note on, F#2 key =  42;WhichDrum: C1 ; velocity: 127
@17580 , @0.9269815891472869 Channel: 9 
Note on, C2 key =  36;WhichDrum: B ; velocity: 0
@17580 , @0.9269815891472869 Channel: 9 
Note on, F#2 key =  42;WhichDrum: C1 ; velocity: 0
@17580 , @0.9269815891472869 Channel: 9 
Note on, C2 key =  36;WhichDrum: B ; velocity: 127
@17580 , @0.9269815891472869 Channel: 9 
Note on, F#2 key =  42;WhichDrum: C1 ; velocity: 127
@17600 , @0.9280361757105943 Channel: 9 
Note on, C2 key =  36;WhichDrum: B ; velocity: 0
@17600 , @0.9280361757105943 Channel: 9 
Note on, C2 key =  36;WhichDrum: B ; velocity: 127
@17620 , @0.929090762273902 Channel: 9 
Note on, C2 key =  36;WhichDrum: B ; velocity: 0
@17620 , @0.929090762273902 Channel: 9 
Note on, C2 key =  36;WhichDrum: B ; velocity: 127
@17640 , @0.9301453488372093 Channel: 9 
Note on, F#2 key =  42;WhichDrum: C1 ; velocity: 0
@17640 , @0.9301453488372093 Channel: 9 
Note on, C2 key =  36;WhichDrum: B ; velocity: 0
@17640 , @0.9301453488372093 Channel: 9 
Note on, D2 key =  38;WhichDrum: T2 ; velocity: 127
@17640 , @0.9301453488372093 Channel: 9 
Note on, F#2 key =  42;WhichDrum: C1 ; velocity: 127
@17700 , @0.9333091085271319 Channel: 9 
Note on, D2 key =  38;WhichDrum: T2 ; velocity: 0
@17700 , @0.9333091085271319 Channel: 9 
Note on, F#2 key =  42;WhichDrum: C1 ; velocity: 0
@17700 , @0.9333091085271319 Channel: 9 
Note on, C2 key =  36;WhichDrum: B ; velocity: 127
@17700 , @0.9333091085271319 Channel: 9 
Note on, F#2 key =  42;WhichDrum: C1 ; velocity: 127
@17760 , @0.9364728682170543 Channel: 9 
Note on, C2 key =  36;WhichDrum: B ; velocity: 0
@17760 , @0.9364728682170543 Channel: 9 
Note on, F#2 key =  42;WhichDrum: C1 ; velocity: 0
@17760 , @0.9364728682170543 Channel: 9 
Note on, F#2 key =  42;WhichDrum: C1 ; velocity: 127
@17760 , @0.9364728682170543 Channel: 9 
Note on, C2 key =  36;WhichDrum: B ; velocity: 127
@17820 , @0.9396366279069768 Channel: 9 
Note on, F#2 key =  42;WhichDrum: C1 ; velocity: 0
@17820 , @0.9396366279069768 Channel: 9 
Note on, F#2 key =  42;WhichDrum: C1 ; velocity: 127
@17880 , @0.9428003875968993 Channel: 9 
Note on, C2 key =  36;WhichDrum: B ; velocity: 0
@17880 , @0.9428003875968993 Channel: 9 
Note on, F#2 key =  42;WhichDrum: C1 ; velocity: 0
@17880 , @0.9428003875968993 Channel: 9 
Note on, A3 key =  57;WhichDrum: T3 ; velocity: 127
@17880 , @0.9428003875968993 Channel: 9 
Note on, D2 key =  38;WhichDrum: T2 ; velocity: 127
@17940 , @0.9459641472868218 Channel: 9 
Note on, A3 key =  57;WhichDrum: T3 ; velocity: 0
@17940 , @0.9459641472868218 Channel: 9 
Note on, D2 key =  38;WhichDrum: T2 ; velocity: 0
@17940 , @0.9459641472868218 Channel: 9 
Note on, F#2 key =  42;WhichDrum: C1 ; velocity: 127
@18000 , @0.9491279069767443 Channel: 9 
Note on, F#2 key =  42;WhichDrum: C1 ; velocity: 0
@18000 , @0.9491279069767443 Channel: 9 
Note on, F#2 key =  42;WhichDrum: C1 ; velocity: 127
@18000 , @0.9491279069767443 Channel: 9 
Note on, C2 key =  36;WhichDrum: B ; velocity: 127
@18060 , @0.9522916666666668 Channel: 9 
Note on, F#2 key =  42;WhichDrum: C1 ; velocity: 0
@18060 , @0.9522916666666668 Channel: 9 
Note on, F#2 key =  42;WhichDrum: C1 ; velocity: 127
@18120 , @0.9554554263565892 Channel: 9 
Note on, C2 key =  36;WhichDrum: B ; velocity: 0
@18120 , @0.9554554263565892 Channel: 9 
Note on, F#2 key =  42;WhichDrum: C1 ; velocity: 0
@18120 , @0.9554554263565892 Channel: 9 
Note on, D2 key =  38;WhichDrum: T2 ; velocity: 127
@18120 , @0.9554554263565892 Channel: 9 
Note on, F#2 key =  42;WhichDrum: C1 ; velocity: 127
@18180 , @0.9586191860465118 Channel: 9 
Note on, D2 key =  38;WhichDrum: T2 ; velocity: 0
@18180 , @0.9586191860465118 Channel: 9 
Note on, F#2 key =  42;WhichDrum: C1 ; velocity: 0
@18180 , @0.9586191860465118 Channel: 9 
Note on, F#2 key =  42;WhichDrum: C1 ; velocity: 127
@18240 , @0.9617829457364342 Channel: 9 
Note on, F#2 key =  42;WhichDrum: C1 ; velocity: 0
@18240 , @0.9617829457364342 Channel: 9 
Note on, F#2 key =  42;WhichDrum: C1 ; velocity: 127
@18240 , @0.9617829457364342 Channel: 9 
Note on, C2 key =  36;WhichDrum: B ; velocity: 127
@18300 , @0.9649467054263567 Channel: 9 
Note on, F#2 key =  42;WhichDrum: C1 ; velocity: 0
@18300 , @0.9649467054263567 Channel: 9 
Note on, F#2 key =  42;WhichDrum: C1 ; velocity: 127
@18360 , @0.9681104651162792 Channel: 9 
Note on, C2 key =  36;WhichDrum: B ; velocity: 0
@18360 , @0.9681104651162792 Channel: 9 
Note on, F#2 key =  42;WhichDrum: C1 ; velocity: 0
@18360 , @0.9681104651162792 Channel: 9 
Note on, D2 key =  38;WhichDrum: T2 ; velocity: 127
@18360 , @0.9681104651162792 Channel: 9 
Note on, F#2 key =  42;WhichDrum: C1 ; velocity: 127
@18420 , @0.9712742248062015 Channel: 9 
Note on, D2 key =  38;WhichDrum: T2 ; velocity: 0
@18420 , @0.9712742248062015 Channel: 9 
Note on, F#2 key =  42;WhichDrum: C1 ; velocity: 0
@18420 , @0.9712742248062015 Channel: 9 
Note on, F#2 key =  42;WhichDrum: C1 ; velocity: 127
@18480 , @0.974437984496124 Channel: 9 
Note on, F#2 key =  42;WhichDrum: C1 ; velocity: 0
@18480 , @0.974437984496124 Channel: 9 
Note on, C2 key =  36;WhichDrum: B ; velocity: 127
@18480 , @0.974437984496124 Channel: 9 
Note on, F#2 key =  42;WhichDrum: C1 ; velocity: 127
@18540 , @0.9776017441860465 Channel: 9 
Note on, C2 key =  36;WhichDrum: B ; velocity: 0
@18540 , @0.9776017441860465 Channel: 9 
Note on, F#2 key =  42;WhichDrum: C1 ; velocity: 0
@18540 , @0.9776017441860465 Channel: 9 
Note on, C2 key =  36;WhichDrum: B ; velocity: 127
@18540 , @0.9776017441860465 Channel: 9 
Note on, F#2 key =  42;WhichDrum: C1 ; velocity: 127
@18560 , @0.9786563307493541 Channel: 9 
Note on, C2 key =  36;WhichDrum: B ; velocity: 0
@18560 , @0.9786563307493541 Channel: 9 
Note on, C2 key =  36;WhichDrum: B ; velocity: 127
@18580 , @0.9797109173126616 Channel: 9 
Note on, C2 key =  36;WhichDrum: B ; velocity: 0
@18580 , @0.9797109173126616 Channel: 9 
Note on, C2 key =  36;WhichDrum: B ; velocity: 127
@18600 , @0.980765503875969 Channel: 9 
Note on, F#2 key =  42;WhichDrum: C1 ; velocity: 0
@18600 , @0.980765503875969 Channel: 9 
Note on, C2 key =  36;WhichDrum: B ; velocity: 0
@18600 , @0.980765503875969 Channel: 9 
Note on, D2 key =  38;WhichDrum: T2 ; velocity: 127
@18600 , @0.980765503875969 Channel: 9 
Note on, F#2 key =  42;WhichDrum: C1 ; velocity: 127
@18660 , @0.9839292635658915 Channel: 9 
Note on, D2 key =  38;WhichDrum: T2 ; velocity: 0
@18660 , @0.9839292635658915 Channel: 9 
Note on, F#2 key =  42;WhichDrum: C1 ; velocity: 0
@18660 , @0.9839292635658915 Channel: 9 
Note on, C2 key =  36;WhichDrum: B ; velocity: 127
@18660 , @0.9839292635658915 Channel: 9 
Note on, F#2 key =  42;WhichDrum: C1 ; velocity: 127
@18720 , @0.9870930232558139 Channel: 9 
Note on, C2 key =  36;WhichDrum: B ; velocity: 0
@18720 , @0.9870930232558139 Channel: 9 
Note on, F#2 key =  42;WhichDrum: C1 ; velocity: 0
@18720 , @0.9870930232558139 Channel: 9 
Note on, C2 key =  36;WhichDrum: B ; velocity: 127
@18720 , @0.9870930232558139 Channel: 9 
Note on, F#2 key =  42;WhichDrum: C1 ; velocity: 127
@18780 , @0.9902567829457364 Channel: 9 
Note on, F#2 key =  42;WhichDrum: C1 ; velocity: 0
@18780 , @0.9902567829457364 Channel: 9 
Note on, F#2 key =  42;WhichDrum: C1 ; velocity: 127
@18840 , @0.9934205426356589 Channel: 9 
Note on, C2 key =  36;WhichDrum: B ; velocity: 0
@18840 , @0.9934205426356589 Channel: 9 
Note on, F#2 key =  42;WhichDrum: C1 ; velocity: 0
@18840 , @0.9934205426356589 Channel: 9 
Note on, D2 key =  38;WhichDrum: T2 ; velocity: 127
@18840 , @0.9934205426356589 Channel: 9 
Note on, A3 key =  57;WhichDrum: T3 ; velocity: 127
@18900 , @0.9965843023255814 Channel: 9 
Note on, D2 key =  38;WhichDrum: T2 ; velocity: 0
@18900 , @0.9965843023255814 Channel: 9 
Note on, A3 key =  57;WhichDrum: T3 ; velocity: 0
@18900 , @0.9965843023255814 Channel: 9 
Note on, F#2 key =  42;WhichDrum: C1 ; velocity: 127
@18960 , @0.9997480620155039 Channel: 9 
Note on, F#2 key =  42;WhichDrum: C1 ; velocity: 0
@18960 , @0.9997480620155039 Channel: 9 
Note on, C2 key =  36;WhichDrum: B ; velocity: 127
@18960 , @0.9997480620155039 Channel: 9 
Note on, F#2 key =  42;WhichDrum: C1 ; velocity: 127
@19020 , @1.0029118217054263 Channel: 9 
Note on, C2 key =  36;WhichDrum: B ; velocity: 0
@19020 , @1.0029118217054263 Channel: 9 
Note on, F#2 key =  42;WhichDrum: C1 ; velocity: 0
@19020 , @1.0029118217054263 Channel: 9 
Note on, C2 key =  36;WhichDrum: B ; velocity: 127
@19020 , @1.0029118217054263 Channel: 9 
Note on, F#2 key =  42;WhichDrum: C1 ; velocity: 127
@19040 , @1.0039664082687338 Channel: 9 
Note on, C2 key =  36;WhichDrum: B ; velocity: 0
@19040 , @1.0039664082687338 Channel: 9 
Note on, C2 key =  36;WhichDrum: B ; velocity: 127
@19060 , @1.0050209948320414 Channel: 9 
Note on, C2 key =  36;WhichDrum: B ; velocity: 0
@19060 , @1.0050209948320414 Channel: 9 
Note on, C2 key =  36;WhichDrum: B ; velocity: 127
@19080 , @1.0060755813953488 Channel: 9 
Note on, F#2 key =  42;WhichDrum: C1 ; velocity: 0
@19080 , @1.0060755813953488 Channel: 9 
Note on, C2 key =  36;WhichDrum: B ; velocity: 0
@19080 , @1.0060755813953488 Channel: 9 
Note on, A3 key =  57;WhichDrum: T3 ; velocity: 127
@19080 , @1.0060755813953488 Channel: 9 
Note on, D2 key =  38;WhichDrum: T2 ; velocity: 127
@19140 , @1.0092393410852714 Channel: 9 
Note on, A3 key =  57;WhichDrum: T3 ; velocity: 0
@19140 , @1.0092393410852714 Channel: 9 
Note on, D2 key =  38;WhichDrum: T2 ; velocity: 0
@19140 , @1.0092393410852714 Channel: 9 
Note on, F#2 key =  42;WhichDrum: C1 ; velocity: 127
@19200 , @1.012403100775194 Channel: 9 
Note on, F#2 key =  42;WhichDrum: C1 ; velocity: 0
@19200 , @1.012403100775194 Channel: 9 
Note on, F#2 key =  42;WhichDrum: C1 ; velocity: 127
@19200 , @1.012403100775194 Channel: 9 
Note on, C2 key =  36;WhichDrum: B ; velocity: 127
@19260 , @1.0155668604651162 Channel: 9 
Note on, F#2 key =  42;WhichDrum: C1 ; velocity: 0
@19260 , @1.0155668604651162 Channel: 9 
Note on, C2 key =  36;WhichDrum: B ; velocity: 0
@19260 , @1.0155668604651162 Channel: 9 
Note on, F#2 key =  42;WhichDrum: C1 ; velocity: 127
@19260 , @1.0155668604651162 Channel: 9 
Note on, C2 key =  36;WhichDrum: B ; velocity: 127
@19280 , @1.0166214470284238 Channel: 9 
Note on, C2 key =  36;WhichDrum: B ; velocity: 0
@19280 , @1.0166214470284238 Channel: 9 
Note on, C2 key =  36;WhichDrum: B ; velocity: 127
@19300 , @1.0176760335917314 Channel: 9 
Note on, C2 key =  36;WhichDrum: B ; velocity: 0
@19300 , @1.0176760335917314 Channel: 9 
Note on, C2 key =  36;WhichDrum: B ; velocity: 127
@19320 , @1.0187306201550388 Channel: 9 
Note on, F#2 key =  42;WhichDrum: C1 ; velocity: 0
@19320 , @1.0187306201550388 Channel: 9 
Note on, C2 key =  36;WhichDrum: B ; velocity: 0
@19320 , @1.0187306201550388 Channel: 9 
Note on, D2 key =  38;WhichDrum: T2 ; velocity: 127
@19320 , @1.0187306201550388 Channel: 9 
Note on, A3 key =  57;WhichDrum: T3 ; velocity: 127
@19380 , @1.0218943798449613 Channel: 9 
Note on, D2 key =  38;WhichDrum: T2 ; velocity: 0
@19380 , @1.0218943798449613 Channel: 9 
Note on, A3 key =  57;WhichDrum: T3 ; velocity: 0
@19380 , @1.0218943798449613 Channel: 9 
Note on, D2 key =  38;WhichDrum: T2 ; velocity: 127
@19410 , @1.0234762596899225 Channel: 9 
Note on, D2 key =  38;WhichDrum: T2 ; velocity: 0
@19410 , @1.0234762596899225 Channel: 9 
Note on, D2 key =  38;WhichDrum: T2 ; velocity: 127
@19440 , @1.0250581395348837 Channel: 9 
Note on, D2 key =  38;WhichDrum: T2 ; velocity: 0
@19440 , @1.0250581395348837 Channel: 9 
Note on, C2 key =  36;WhichDrum: B ; velocity: 127
@19440 , @1.0250581395348837 Channel: 9 
Note on, A3 key =  57;WhichDrum: T3 ; velocity: 127
@19500 , @1.0282218992248062 Channel: 9 
Note on, A3 key =  57;WhichDrum: T3 ; velocity: 0
@19500 , @1.0282218992248062 Channel: 9 
Note on, D2 key =  38;WhichDrum: T2 ; velocity: 127
@19530 , @1.0298037790697674 Channel: 9 
Note on, D2 key =  38;WhichDrum: T2 ; velocity: 0
@19530 , @1.0298037790697674 Channel: 9 
Note on, D2 key =  38;WhichDrum: T2 ; velocity: 127
@19560 , @1.0313856589147288 Channel: 9 
Note on, C2 key =  36;WhichDrum: B ; velocity: 0
@19560 , @1.0313856589147288 Channel: 9 
Note on, D2 key =  38;WhichDrum: T2 ; velocity: 0
@19560 , @1.0313856589147288 Channel: 9 
Note on, A3 key =  57;WhichDrum: T3 ; velocity: 127
@19560 , @1.0313856589147288 Channel: 9 
Note on, D2 key =  38;WhichDrum: T2 ; velocity: 127
@19620 , @1.0345494186046513 Channel: 9 
Note on, A3 key =  57;WhichDrum: T3 ; velocity: 0
@19620 , @1.0345494186046513 Channel: 9 
Note on, D2 key =  38;WhichDrum: T2 ; velocity: 0
@19620 , @1.0345494186046513 Channel: 9 
Note on, A3 key =  57;WhichDrum: T3 ; velocity: 127
@19620 , @1.0345494186046513 Channel: 9 
Note on, D2 key =  38;WhichDrum: T2 ; velocity: 127
@19680 , @1.0377131782945737 Channel: 9 
Note on, A3 key =  57;WhichDrum: T3 ; velocity: 0
@19680 , @1.0377131782945737 Channel: 9 
Note on, D2 key =  38;WhichDrum: T2 ; velocity: 0
@19680 , @1.0377131782945737 Channel: 9 
Note on, C2 key =  36;WhichDrum: B ; velocity: 127
@19680 , @1.0377131782945737 Channel: 9 
Note on, A3 key =  57;WhichDrum: T3 ; velocity: 127
@19740 , @1.0408769379844962 Channel: 9 
Note on, A3 key =  57;WhichDrum: T3 ; velocity: 0
@19740 , @1.0408769379844962 Channel: 9 
Note on, F#2 key =  42;WhichDrum: C1 ; velocity: 127
@19800 , @1.0440406976744188 Channel: 9 
Note on, C2 key =  36;WhichDrum: B ; velocity: 0
@19800 , @1.0440406976744188 Channel: 9 
Note on, F#2 key =  42;WhichDrum: C1 ; velocity: 0
@19800 , @1.0440406976744188 Channel: 9 
Note on, D2 key =  38;WhichDrum: T2 ; velocity: 127
@19800 , @1.0440406976744188 Channel: 9 
Note on, F#2 key =  42;WhichDrum: C1 ; velocity: 127
@19860 , @1.047204457364341 Channel: 9 
Note on, D2 key =  38;WhichDrum: T2 ; velocity: 0
@19860 , @1.047204457364341 Channel: 9 
Note on, F#2 key =  42;WhichDrum: C1 ; velocity: 0
@19860 , @1.047204457364341 Channel: 9 
Note on, F#2 key =  42;WhichDrum: C1 ; velocity: 127
@19920 , @1.0503682170542636 Channel: 9 
Note on, F#2 key =  42;WhichDrum: C1 ; velocity: 0
@19920 , @1.0503682170542636 Channel: 9 
Note on, C2 key =  36;WhichDrum: B ; velocity: 127
@19920 , @1.0503682170542636 Channel: 9 
Note on, F#2 key =  42;WhichDrum: C1 ; velocity: 127
@19980 , @1.0535319767441862 Channel: 9 
Note on, F#2 key =  42;WhichDrum: C1 ; velocity: 0
@19980 , @1.0535319767441862 Channel: 9 
Note on, F#2 key =  42;WhichDrum: C1 ; velocity: 127
@20040 , @1.0566957364341085 Channel: 9 
Note on, C2 key =  36;WhichDrum: B ; velocity: 0
@20040 , @1.0566957364341085 Channel: 9 
Note on, F#2 key =  42;WhichDrum: C1 ; velocity: 0
@20040 , @1.0566957364341085 Channel: 9 
Note on, D2 key =  38;WhichDrum: T2 ; velocity: 127
@20040 , @1.0566957364341085 Channel: 9 
Note on, F#2 key =  42;WhichDrum: C1 ; velocity: 127
@20100 , @1.059859496124031 Channel: 9 
Note on, D2 key =  38;WhichDrum: T2 ; velocity: 0
@20100 , @1.059859496124031 Channel: 9 
Note on, F#2 key =  42;WhichDrum: C1 ; velocity: 0
@20100 , @1.059859496124031 Channel: 9 
Note on, F#2 key =  42;WhichDrum: C1 ; velocity: 127
@20160 , @1.0630232558139536 Channel: 9 
Note on, F#2 key =  42;WhichDrum: C1 ; velocity: 0
@20160 , @1.0630232558139536 Channel: 9 
Note on, C2 key =  36;WhichDrum: B ; velocity: 127
@20160 , @1.0630232558139536 Channel: 9 
Note on, F#2 key =  42;WhichDrum: C1 ; velocity: 127
@20220 , @1.0661870155038762 Channel: 9 
Note on, F#2 key =  42;WhichDrum: C1 ; velocity: 0
@20220 , @1.0661870155038762 Channel: 9 
Note on, F#2 key =  42;WhichDrum: C1 ; velocity: 127
@20280 , @1.0693507751937985 Channel: 9 
Note on, C2 key =  36;WhichDrum: B ; velocity: 0
@20280 , @1.0693507751937985 Channel: 9 
Note on, F#2 key =  42;WhichDrum: C1 ; velocity: 0
@20280 , @1.0693507751937985 Channel: 9 
Note on, F#2 key =  42;WhichDrum: C1 ; velocity: 127
@20340 , @1.0725145348837208 Channel: 9 
Note on, F#2 key =  42;WhichDrum: C1 ; velocity: 0
@20340 , @1.0725145348837208 Channel: 9 
Note on, D2 key =  38;WhichDrum: T2 ; velocity: 127
@20340 , @1.0725145348837208 Channel: 9 
Note on, F#2 key =  42;WhichDrum: C1 ; velocity: 127
@20400 , @1.0756782945736434 Channel: 9 
Note on, D2 key =  38;WhichDrum: T2 ; velocity: 0
@20400 , @1.0756782945736434 Channel: 9 
Note on, F#2 key =  42;WhichDrum: C1 ; velocity: 0
@20400 , @1.0756782945736434 Channel: 9 
Note on, C2 key =  36;WhichDrum: B ; velocity: 127
@20400 , @1.0756782945736434 Channel: 9 
Note on, F#2 key =  42;WhichDrum: C1 ; velocity: 127
@20460 , @1.078842054263566 Channel: 9 
Note on, C2 key =  36;WhichDrum: B ; velocity: 0
@20460 , @1.078842054263566 Channel: 9 
Note on, F#2 key =  42;WhichDrum: C1 ; velocity: 0
@20460 , @1.078842054263566 Channel: 9 
Note on, C2 key =  36;WhichDrum: B ; velocity: 127
@20460 , @1.078842054263566 Channel: 9 
Note on, F#2 key =  42;WhichDrum: C1 ; velocity: 127
@20480 , @1.0798966408268735 Channel: 9 
Note on, C2 key =  36;WhichDrum: B ; velocity: 0
@20480 , @1.0798966408268735 Channel: 9 
Note on, C2 key =  36;WhichDrum: B ; velocity: 127
@20500 , @1.080951227390181 Channel: 9 
Note on, C2 key =  36;WhichDrum: B ; velocity: 0
@20500 , @1.080951227390181 Channel: 9 
Note on, C2 key =  36;WhichDrum: B ; velocity: 127
@20520 , @1.0820058139534883 Channel: 9 
Note on, F#2 key =  42;WhichDrum: C1 ; velocity: 0
@20520 , @1.0820058139534883 Channel: 9 
Note on, C2 key =  36;WhichDrum: B ; velocity: 0
@20520 , @1.0820058139534883 Channel: 9 
Note on, D2 key =  38;WhichDrum: T2 ; velocity: 127
@20520 , @1.0820058139534883 Channel: 9 
Note on, F#2 key =  42;WhichDrum: C1 ; velocity: 127
@20580 , @1.0851695736434108 Channel: 9 
Note on, D2 key =  38;WhichDrum: T2 ; velocity: 0
@20580 , @1.0851695736434108 Channel: 9 
Note on, F#2 key =  42;WhichDrum: C1 ; velocity: 0
@20580 , @1.0851695736434108 Channel: 9 
Note on, C2 key =  36;WhichDrum: B ; velocity: 127
@20580 , @1.0851695736434108 Channel: 9 
Note on, F#2 key =  42;WhichDrum: C1 ; velocity: 127
@20640 , @1.0883333333333334 Channel: 9 
Note on, C2 key =  36;WhichDrum: B ; velocity: 0
@20640 , @1.0883333333333334 Channel: 9 
Note on, F#2 key =  42;WhichDrum: C1 ; velocity: 0
@20640 , @1.0883333333333334 Channel: 9 
Note on, F#2 key =  42;WhichDrum: C1 ; velocity: 127
@20640 , @1.0883333333333334 Channel: 9 
Note on, C2 key =  36;WhichDrum: B ; velocity: 127
@20700 , @1.0914970930232557 Channel: 9 
Note on, F#2 key =  42;WhichDrum: C1 ; velocity: 0
@20700 , @1.0914970930232557 Channel: 9 
Note on, F#2 key =  42;WhichDrum: C1 ; velocity: 127
@20760 , @1.0946608527131783 Channel: 9 
Note on, C2 key =  36;WhichDrum: B ; velocity: 0
@20760 , @1.0946608527131783 Channel: 9 
Note on, F#2 key =  42;WhichDrum: C1 ; velocity: 0
@20760 , @1.0946608527131783 Channel: 9 
Note on, F#2 key =  42;WhichDrum: C1 ; velocity: 127
@20820 , @1.0978246124031008 Channel: 9 
Note on, F#2 key =  42;WhichDrum: C1 ; velocity: 0
@20820 , @1.0978246124031008 Channel: 9 
Note on, D2 key =  38;WhichDrum: T2 ; velocity: 127
@20820 , @1.0978246124031008 Channel: 9 
Note on, F#2 key =  42;WhichDrum: C1 ; velocity: 127
@20880 , @1.1009883720930234 Channel: 9 
Note on, D2 key =  38;WhichDrum: T2 ; velocity: 0
@20880 , @1.1009883720930234 Channel: 9 
Note on, F#2 key =  42;WhichDrum: C1 ; velocity: 0
@20880 , @1.1009883720930234 Channel: 9 
Note on, F#2 key =  42;WhichDrum: C1 ; velocity: 127
@20880 , @1.1009883720930234 Channel: 9 
Note on, C2 key =  36;WhichDrum: B ; velocity: 127
@20940 , @1.1041521317829457 Channel: 9 
Note on, F#2 key =  42;WhichDrum: C1 ; velocity: 0
@20940 , @1.1041521317829457 Channel: 9 
Note on, F#2 key =  42;WhichDrum: C1 ; velocity: 127
@21000 , @1.1073158914728682 Channel: 9 
Note on, C2 key =  36;WhichDrum: B ; velocity: 0
@21000 , @1.1073158914728682 Channel: 9 
Note on, F#2 key =  42;WhichDrum: C1 ; velocity: 0
@21000 , @1.1073158914728682 Channel: 9 
Note on, D2 key =  38;WhichDrum: T2 ; velocity: 127
@21000 , @1.1073158914728682 Channel: 9 
Note on, F#2 key =  42;WhichDrum: C1 ; velocity: 127
@21060 , @1.1104796511627908 Channel: 9 
Note on, D2 key =  38;WhichDrum: T2 ; velocity: 0
@21060 , @1.1104796511627908 Channel: 9 
Note on, F#2 key =  42;WhichDrum: C1 ; velocity: 0
@21060 , @1.1104796511627908 Channel: 9 
Note on, F#2 key =  42;WhichDrum: C1 ; velocity: 127
@21120 , @1.1136434108527131 Channel: 9 
Note on, F#2 key =  42;WhichDrum: C1 ; velocity: 0
@21120 , @1.1136434108527131 Channel: 9 
Note on, C2 key =  36;WhichDrum: B ; velocity: 127
@21120 , @1.1136434108527131 Channel: 9 
Note on, F#2 key =  42;WhichDrum: C1 ; velocity: 127
@21180 , @1.1168071705426357 Channel: 9 
Note on, F#2 key =  42;WhichDrum: C1 ; velocity: 0
@21180 , @1.1168071705426357 Channel: 9 
Note on, F#2 key =  42;WhichDrum: C1 ; velocity: 127
@21240 , @1.1199709302325582 Channel: 9 
Note on, C2 key =  36;WhichDrum: B ; velocity: 0
@21240 , @1.1199709302325582 Channel: 9 
Note on, F#2 key =  42;WhichDrum: C1 ; velocity: 0
@21240 , @1.1199709302325582 Channel: 9 
Note on, F#2 key =  42;WhichDrum: C1 ; velocity: 127
@21300 , @1.1231346899224806 Channel: 9 
Note on, F#2 key =  42;WhichDrum: C1 ; velocity: 0
@21300 , @1.1231346899224806 Channel: 9 
Note on, D2 key =  38;WhichDrum: T2 ; velocity: 127
@21300 , @1.1231346899224806 Channel: 9 
Note on, F#2 key =  42;WhichDrum: C1 ; velocity: 127
@21360 , @1.126298449612403 Channel: 9 
Note on, D2 key =  38;WhichDrum: T2 ; velocity: 0
@21360 , @1.126298449612403 Channel: 9 
Note on, F#2 key =  42;WhichDrum: C1 ; velocity: 0
@21360 , @1.126298449612403 Channel: 9 
Note on, C2 key =  36;WhichDrum: B ; velocity: 127
@21360 , @1.126298449612403 Channel: 9 
Note on, F#2 key =  42;WhichDrum: C1 ; velocity: 127
@21420 , @1.1294622093023257 Channel: 9 
Note on, C2 key =  36;WhichDrum: B ; velocity: 0
@21420 , @1.1294622093023257 Channel: 9 
Note on, F#2 key =  42;WhichDrum: C1 ; velocity: 0
@21420 , @1.1294622093023257 Channel: 9 
Note on, C2 key =  36;WhichDrum: B ; velocity: 127
@21420 , @1.1294622093023257 Channel: 9 
Note on, F#2 key =  42;WhichDrum: C1 ; velocity: 127
@21440 , @1.130516795865633 Channel: 9 
Note on, C2 key =  36;WhichDrum: B ; velocity: 0
@21440 , @1.130516795865633 Channel: 9 
Note on, C2 key =  36;WhichDrum: B ; velocity: 127
@21460 , @1.1315713824289406 Channel: 9 
Note on, C2 key =  36;WhichDrum: B ; velocity: 0
@21460 , @1.1315713824289406 Channel: 9 
Note on, C2 key =  36;WhichDrum: B ; velocity: 127
@21480 , @1.1326259689922482 Channel: 9 
Note on, F#2 key =  42;WhichDrum: C1 ; velocity: 0
@21480 , @1.1326259689922482 Channel: 9 
Note on, C2 key =  36;WhichDrum: B ; velocity: 0
@21480 , @1.1326259689922482 Channel: 9 
Note on, D2 key =  38;WhichDrum: T2 ; velocity: 127
@21480 , @1.1326259689922482 Channel: 9 
Note on, F#2 key =  42;WhichDrum: C1 ; velocity: 127
@21540 , @1.1357897286821705 Channel: 9 
Note on, D2 key =  38;WhichDrum: T2 ; velocity: 0
@21540 , @1.1357897286821705 Channel: 9 
Note on, F#2 key =  42;WhichDrum: C1 ; velocity: 0
@21540 , @1.1357897286821705 Channel: 9 
Note on, C2 key =  36;WhichDrum: B ; velocity: 127
@21540 , @1.1357897286821705 Channel: 9 
Note on, F#2 key =  42;WhichDrum: C1 ; velocity: 127
@21600 , @1.138953488372093 Channel: 9 
Note on, C2 key =  36;WhichDrum: B ; velocity: 0
@21600 , @1.138953488372093 Channel: 9 
Note on, F#2 key =  42;WhichDrum: C1 ; velocity: 0
@21600 , @1.138953488372093 Channel: 9 
Note on, F#2 key =  42;WhichDrum: C1 ; velocity: 127
@21600 , @1.138953488372093 Channel: 9 
Note on, C2 key =  36;WhichDrum: B ; velocity: 127
@21660 , @1.1421172480620156 Channel: 9 
Note on, F#2 key =  42;WhichDrum: C1 ; velocity: 0
@21660 , @1.1421172480620156 Channel: 9 
Note on, F#2 key =  42;WhichDrum: C1 ; velocity: 127
@21720 , @1.145281007751938 Channel: 9 
Note on, C2 key =  36;WhichDrum: B ; velocity: 0
@21720 , @1.145281007751938 Channel: 9 
Note on, F#2 key =  42;WhichDrum: C1 ; velocity: 0
@21720 , @1.145281007751938 Channel: 9 
Note on, A3 key =  57;WhichDrum: T3 ; velocity: 127
@21720 , @1.145281007751938 Channel: 9 
Note on, D2 key =  38;WhichDrum: T2 ; velocity: 127
@21780 , @1.1484447674418605 Channel: 9 
Note on, A3 key =  57;WhichDrum: T3 ; velocity: 0
@21780 , @1.1484447674418605 Channel: 9 
Note on, D2 key =  38;WhichDrum: T2 ; velocity: 0
@21780 , @1.1484447674418605 Channel: 9 
Note on, F#2 key =  42;WhichDrum: C1 ; velocity: 127
@21840 , @1.151608527131783 Channel: 9 
Note on, F#2 key =  42;WhichDrum: C1 ; velocity: 0
@21840 , @1.151608527131783 Channel: 9 
Note on, F#2 key =  42;WhichDrum: C1 ; velocity: 127
@21840 , @1.151608527131783 Channel: 9 
Note on, C2 key =  36;WhichDrum: B ; velocity: 127
@21900 , @1.1547722868217056 Channel: 9 
Note on, F#2 key =  42;WhichDrum: C1 ; velocity: 0
@21900 , @1.1547722868217056 Channel: 9 
Note on, F#2 key =  42;WhichDrum: C1 ; velocity: 127
@21960 , @1.157936046511628 Channel: 9 
Note on, C2 key =  36;WhichDrum: B ; velocity: 0
@21960 , @1.157936046511628 Channel: 9 
Note on, F#2 key =  42;WhichDrum: C1 ; velocity: 0
@21960 , @1.157936046511628 Channel: 9 
Note on, D2 key =  38;WhichDrum: T2 ; velocity: 127
@21960 , @1.157936046511628 Channel: 9 
Note on, F#2 key =  42;WhichDrum: C1 ; velocity: 127
@22020 , @1.1610998062015505 Channel: 9 
Note on, D2 key =  38;WhichDrum: T2 ; velocity: 0
@22020 , @1.1610998062015505 Channel: 9 
Note on, F#2 key =  42;WhichDrum: C1 ; velocity: 0
@22020 , @1.1610998062015505 Channel: 9 
Note on, F#2 key =  42;WhichDrum: C1 ; velocity: 127
@22080 , @1.164263565891473 Channel: 9 
Note on, F#2 key =  42;WhichDrum: C1 ; velocity: 0
@22080 , @1.164263565891473 Channel: 9 
Note on, C2 key =  36;WhichDrum: B ; velocity: 127
@22080 , @1.164263565891473 Channel: 9 
Note on, F#2 key =  42;WhichDrum: C1 ; velocity: 127
@22140 , @1.1674273255813954 Channel: 9 
Note on, F#2 key =  42;WhichDrum: C1 ; velocity: 0
@22140 , @1.1674273255813954 Channel: 9 
Note on, F#2 key =  42;WhichDrum: C1 ; velocity: 127
@22200 , @1.170591085271318 Channel: 9 
Note on, C2 key =  36;WhichDrum: B ; velocity: 0
@22200 , @1.170591085271318 Channel: 9 
Note on, F#2 key =  42;WhichDrum: C1 ; velocity: 0
@22200 , @1.170591085271318 Channel: 9 
Note on, F#2 key =  42;WhichDrum: C1 ; velocity: 127
@22260 , @1.1737548449612403 Channel: 9 
Note on, F#2 key =  42;WhichDrum: C1 ; velocity: 0
@22260 , @1.1737548449612403 Channel: 9 
Note on, D2 key =  38;WhichDrum: T2 ; velocity: 127
@22260 , @1.1737548449612403 Channel: 9 
Note on, F#2 key =  42;WhichDrum: C1 ; velocity: 127
@22320 , @1.1769186046511628 Channel: 9 
Note on, D2 key =  38;WhichDrum: T2 ; velocity: 0
@22320 , @1.1769186046511628 Channel: 9 
Note on, F#2 key =  42;WhichDrum: C1 ; velocity: 0
@22320 , @1.1769186046511628 Channel: 9 
Note on, C2 key =  36;WhichDrum: B ; velocity: 127
@22320 , @1.1769186046511628 Channel: 9 
Note on, F#2 key =  42;WhichDrum: C1 ; velocity: 127
@22380 , @1.1800823643410852 Channel: 9 
Note on, C2 key =  36;WhichDrum: B ; velocity: 0
@22380 , @1.1800823643410852 Channel: 9 
Note on, F#2 key =  42;WhichDrum: C1 ; velocity: 0
@22380 , @1.1800823643410852 Channel: 9 
Note on, C2 key =  36;WhichDrum: B ; velocity: 127
@22380 , @1.1800823643410852 Channel: 9 
Note on, F#2 key =  42;WhichDrum: C1 ; velocity: 127
@22400 , @1.1811369509043927 Channel: 9 
Note on, C2 key =  36;WhichDrum: B ; velocity: 0
@22400 , @1.1811369509043927 Channel: 9 
Note on, C2 key =  36;WhichDrum: B ; velocity: 127
@22420 , @1.1821915374677003 Channel: 9 
Note on, C2 key =  36;WhichDrum: B ; velocity: 0
@22420 , @1.1821915374677003 Channel: 9 
Note on, C2 key =  36;WhichDrum: B ; velocity: 127
@22440 , @1.1832461240310077 Channel: 9 
Note on, F#2 key =  42;WhichDrum: C1 ; velocity: 0
@22440 , @1.1832461240310077 Channel: 9 
Note on, C2 key =  36;WhichDrum: B ; velocity: 0
@22440 , @1.1832461240310077 Channel: 9 
Note on, D2 key =  38;WhichDrum: T2 ; velocity: 127
@22440 , @1.1832461240310077 Channel: 9 
Note on, F#2 key =  42;WhichDrum: C1 ; velocity: 127
@22500 , @1.1864098837209303 Channel: 9 
Note on, D2 key =  38;WhichDrum: T2 ; velocity: 0
@22500 , @1.1864098837209303 Channel: 9 
Note on, F#2 key =  42;WhichDrum: C1 ; velocity: 0
@22500 , @1.1864098837209303 Channel: 9 
Note on, C2 key =  36;WhichDrum: B ; velocity: 127
@22500 , @1.1864098837209303 Channel: 9 
Note on, F#2 key =  42;WhichDrum: C1 ; velocity: 127
@22560 , @1.1895736434108526 Channel: 9 
Note on, C2 key =  36;WhichDrum: B ; velocity: 0
@22560 , @1.1895736434108526 Channel: 9 
Note on, F#2 key =  42;WhichDrum: C1 ; velocity: 0
@22560 , @1.1895736434108526 Channel: 9 
Note on, C2 key =  36;WhichDrum: B ; velocity: 127
@22560 , @1.1895736434108526 Channel: 9 
Note on, F#2 key =  42;WhichDrum: C1 ; velocity: 127
@22620 , @1.1927374031007751 Channel: 9 
Note on, F#2 key =  42;WhichDrum: C1 ; velocity: 0
@22620 , @1.1927374031007751 Channel: 9 
Note on, F#2 key =  42;WhichDrum: C1 ; velocity: 127
@22680 , @1.1959011627906977 Channel: 9 
Note on, C2 key =  36;WhichDrum: B ; velocity: 0
@22680 , @1.1959011627906977 Channel: 9 
Note on, F#2 key =  42;WhichDrum: C1 ; velocity: 0
@22680 , @1.1959011627906977 Channel: 9 
Note on, F#2 key =  42;WhichDrum: C1 ; velocity: 127
@22740 , @1.1990649224806202 Channel: 9 
Note on, F#2 key =  42;WhichDrum: C1 ; velocity: 0
@22740 , @1.1990649224806202 Channel: 9 
Note on, A3 key =  57;WhichDrum: T3 ; velocity: 127
@22740 , @1.1990649224806202 Channel: 9 
Note on, D2 key =  38;WhichDrum: T2 ; velocity: 127
@22800 , @1.2022286821705426 Channel: 9 
Note on, A3 key =  57;WhichDrum: T3 ; velocity: 0
@22800 , @1.2022286821705426 Channel: 9 
Note on, D2 key =  38;WhichDrum: T2 ; velocity: 0
@22800 , @1.2022286821705426 Channel: 9 
Note on, C2 key =  36;WhichDrum: B ; velocity: 127
@22800 , @1.2022286821705426 Channel: 9 
Note on, F#2 key =  42;WhichDrum: C1 ; velocity: 127
@22860 , @1.2053924418604651 Channel: 9 
Note on, C2 key =  36;WhichDrum: B ; velocity: 0
@22860 , @1.2053924418604651 Channel: 9 
Note on, F#2 key =  42;WhichDrum: C1 ; velocity: 0
@22860 , @1.2053924418604651 Channel: 9 
Note on, C2 key =  36;WhichDrum: B ; velocity: 127
@22860 , @1.2053924418604651 Channel: 9 
Note on, F#2 key =  42;WhichDrum: C1 ; velocity: 127
@22880 , @1.2064470284237727 Channel: 9 
Note on, C2 key =  36;WhichDrum: B ; velocity: 0
@22880 , @1.2064470284237727 Channel: 9 
Note on, C2 key =  36;WhichDrum: B ; velocity: 127
@22900 , @1.20750161498708 Channel: 9 
Note on, C2 key =  36;WhichDrum: B ; velocity: 0
@22900 , @1.20750161498708 Channel: 9 
Note on, C2 key =  36;WhichDrum: B ; velocity: 127
@22920 , @1.2085562015503877 Channel: 9 
Note on, F#2 key =  42;WhichDrum: C1 ; velocity: 0
@22920 , @1.2085562015503877 Channel: 9 
Note on, C2 key =  36;WhichDrum: B ; velocity: 0
@22920 , @1.2085562015503877 Channel: 9 
Note on, A3 key =  57;WhichDrum: T3 ; velocity: 127
@22920 , @1.2085562015503877 Channel: 9 
Note on, D2 key =  38;WhichDrum: T2 ; velocity: 127
@22980 , @1.21171996124031 Channel: 9 
Note on, A3 key =  57;WhichDrum: T3 ; velocity: 0
@22980 , @1.21171996124031 Channel: 9 
Note on, D2 key =  38;WhichDrum: T2 ; velocity: 0
@22980 , @1.21171996124031 Channel: 9 
Note on, F#2 key =  42;WhichDrum: C1 ; velocity: 127
@23040 , @1.2148837209302326 Channel: 9 
Note on, F#2 key =  42;WhichDrum: C1 ; velocity: 0
@23040 , @1.2148837209302326 Channel: 9 
Note on, F#2 key =  42;WhichDrum: C1 ; velocity: 127
@23040 , @1.2148837209302326 Channel: 9 
Note on, C2 key =  36;WhichDrum: B ; velocity: 127
@23100 , @1.218047480620155 Channel: 9 
Note on, F#2 key =  42;WhichDrum: C1 ; velocity: 0
@23100 , @1.218047480620155 Channel: 9 
Note on, C2 key =  36;WhichDrum: B ; velocity: 0
@23100 , @1.218047480620155 Channel: 9 
Note on, F#2 key =  42;WhichDrum: C1 ; velocity: 127
@23100 , @1.218047480620155 Channel: 9 
Note on, C2 key =  36;WhichDrum: B ; velocity: 127
@23120 , @1.2191020671834625 Channel: 9 
Note on, C2 key =  36;WhichDrum: B ; velocity: 0
@23120 , @1.2191020671834625 Channel: 9 
Note on, C2 key =  36;WhichDrum: B ; velocity: 127
@23140 , @1.22015665374677 Channel: 9 
Note on, C2 key =  36;WhichDrum: B ; velocity: 0
@23140 , @1.22015665374677 Channel: 9 
Note on, C2 key =  36;WhichDrum: B ; velocity: 127
@23160 , @1.2212112403100777 Channel: 9 
Note on, F#2 key =  42;WhichDrum: C1 ; velocity: 0
@23160 , @1.2212112403100777 Channel: 9 
Note on, C2 key =  36;WhichDrum: B ; velocity: 0
@23160 , @1.2212112403100777 Channel: 9 
Note on, D2 key =  38;WhichDrum: T2 ; velocity: 127
@23160 , @1.2212112403100777 Channel: 9 
Note on, A3 key =  57;WhichDrum: T3 ; velocity: 127
@23220 , @1.224375 Channel: 9 
Note on, D2 key =  38;WhichDrum: T2 ; velocity: 0
@23220 , @1.224375 Channel: 9 
Note on, A3 key =  57;WhichDrum: T3 ; velocity: 0
@23220 , @1.224375 Channel: 9 
Note on, D2 key =  38;WhichDrum: T2 ; velocity: 127
@23250 , @1.2259568798449614 Channel: 9 
Note on, D2 key =  38;WhichDrum: T2 ; velocity: 0
@23250 , @1.2259568798449614 Channel: 9 
Note on, D2 key =  38;WhichDrum: T2 ; velocity: 127
@23280 , @1.2275387596899225 Channel: 9 
Note on, D2 key =  38;WhichDrum: T2 ; velocity: 0
@23280 , @1.2275387596899225 Channel: 9 
Note on, A2 key =  45;WhichDrum: T3 ; velocity: 127
@23340 , @1.230702519379845 Channel: 9 
Note on, A2 key =  45;WhichDrum: T3 ; velocity: 0
@23340 , @1.230702519379845 Channel: 9 
Note on, A2 key =  45;WhichDrum: T3 ; velocity: 127
@23370 , @1.2322843992248063 Channel: 9 
Note on, A2 key =  45;WhichDrum: T3 ; velocity: 0
@23370 , @1.2322843992248063 Channel: 9 
Note on, A2 key =  45;WhichDrum: T3 ; velocity: 127
@23400 , @1.2338662790697674 Channel: 9 
Note on, A2 key =  45;WhichDrum: T3 ; velocity: 0
@23400 , @1.2338662790697674 Channel: 9 
Note on, B2 key =  47;WhichDrum: T1 ; velocity: 127
@23460 , @1.23703003875969 Channel: 9 
Note on, B2 key =  47;WhichDrum: T1 ; velocity: 0
@23460 , @1.23703003875969 Channel: 9 
Note on, B2 key =  47;WhichDrum: T1 ; velocity: 127
@23490 , @1.2386119186046511 Channel: 9 
Note on, B2 key =  47;WhichDrum: T1 ; velocity: 0
@23490 , @1.2386119186046511 Channel: 9 
Note on, B2 key =  47;WhichDrum: T1 ; velocity: 127
@23520 , @1.2401937984496125 Channel: 9 
Note on, B2 key =  47;WhichDrum: T1 ; velocity: 0
@23520 , @1.2401937984496125 Channel: 9 
Note on, A3 key =  57;WhichDrum: T3 ; velocity: 127
@23520 , @1.2401937984496125 Channel: 9 
Note on, C2 key =  36;WhichDrum: B ; velocity: 127
@23580 , @1.2433575581395349 Channel: 9 
Note on, A3 key =  57;WhichDrum: T3 ; velocity: 0
@23580 , @1.2433575581395349 Channel: 9 
Note on, B3 key =  59;WhichDrum: T1 ; velocity: 127
@23640 , @1.2465213178294574 Channel: 9 
Note on, C2 key =  36;WhichDrum: B ; velocity: 0
@23640 , @1.2465213178294574 Channel: 9 
Note on, B3 key =  59;WhichDrum: T1 ; velocity: 0
@23640 , @1.2465213178294574 Channel: 9 
Note on, D2 key =  38;WhichDrum: T2 ; velocity: 127
@23640 , @1.2465213178294574 Channel: 9 
Note on, B3 key =  59;WhichDrum: T1 ; velocity: 127
@23700 , @1.24968507751938 Channel: 9 
Note on, D2 key =  38;WhichDrum: T2 ; velocity: 0
@23700 , @1.24968507751938 Channel: 9 
Note on, B3 key =  59;WhichDrum: T1 ; velocity: 0
@23700 , @1.24968507751938 Channel: 9 
Note on, B3 key =  59;WhichDrum: T1 ; velocity: 127
@23760 , @1.2528488372093025 Channel: 9 
Note on, B3 key =  59;WhichDrum: T1 ; velocity: 0
@23760 , @1.2528488372093025 Channel: 9 
Note on, B3 key =  59;WhichDrum: T1 ; velocity: 127
@23760 , @1.2528488372093025 Channel: 9 
Note on, C2 key =  36;WhichDrum: B ; velocity: 127
@23820 , @1.2560125968992248 Channel: 9 
Note on, B3 key =  59;WhichDrum: T1 ; velocity: 0
@23820 , @1.2560125968992248 Channel: 9 
Note on, A2 key =  45;WhichDrum: T3 ; velocity: 127
@23850 , @1.2575944767441862 Channel: 9 
Note on, A2 key =  45;WhichDrum: T3 ; velocity: 0
@23850 , @1.2575944767441862 Channel: 9 
Note on, A2 key =  45;WhichDrum: T3 ; velocity: 127
@23880 , @1.2591763565891474 Channel: 9 
Note on, C2 key =  36;WhichDrum: B ; velocity: 0
@23880 , @1.2591763565891474 Channel: 9 
Note on, A2 key =  45;WhichDrum: T3 ; velocity: 0
@23880 , @1.2591763565891474 Channel: 9 
Note on, A3 key =  57;WhichDrum: T3 ; velocity: 127
@23880 , @1.2591763565891474 Channel: 9 
Note on, C2 key =  36;WhichDrum: B ; velocity: 127
@23940 , @1.26234011627907 Channel: 9 
Note on, A3 key =  57;WhichDrum: T3 ; velocity: 0
@23940 , @1.26234011627907 Channel: 9 
Note on, C2 key =  36;WhichDrum: B ; velocity: 0
@23940 , @1.26234011627907 Channel: 9 
Note on, A3 key =  57;WhichDrum: T3 ; velocity: 127
@23940 , @1.26234011627907 Channel: 9 
Note on, C2 key =  36;WhichDrum: B ; velocity: 127
@24000 , @1.2655038759689923 Channel: 9 
Note on, A3 key =  57;WhichDrum: T3 ; velocity: 0
@24000 , @1.2655038759689923 Channel: 9 
Note on, C2 key =  36;WhichDrum: B ; velocity: 0
@24000 , @1.2655038759689923 Channel: 9 
Note on, A3 key =  57;WhichDrum: T3 ; velocity: 127
@24000 , @1.2655038759689923 Channel: 9 
Note on, C2 key =  36;WhichDrum: B ; velocity: 127
@24060 , @1.2686676356589148 Channel: 9 
Note on, A3 key =  57;WhichDrum: T3 ; velocity: 0
@24060 , @1.2686676356589148 Channel: 9 
Note on, B3 key =  59;WhichDrum: T1 ; velocity: 127
@24120 , @1.2718313953488374 Channel: 9 
Note on, C2 key =  36;WhichDrum: B ; velocity: 0
@24120 , @1.2718313953488374 Channel: 9 
Note on, B3 key =  59;WhichDrum: T1 ; velocity: 0
@24120 , @1.2718313953488374 Channel: 9 
Note on, D2 key =  38;WhichDrum: T2 ; velocity: 127
@24120 , @1.2718313953488374 Channel: 9 
Note on, B3 key =  59;WhichDrum: T1 ; velocity: 127
@24180 , @1.27499515503876 Channel: 9 
Note on, D2 key =  38;WhichDrum: T2 ; velocity: 0
@24180 , @1.27499515503876 Channel: 9 
Note on, B3 key =  59;WhichDrum: T1 ; velocity: 0
@24180 , @1.27499515503876 Channel: 9 
Note on, B3 key =  59;WhichDrum: T1 ; velocity: 127
@24240 , @1.278158914728682 Channel: 9 
Note on, B3 key =  59;WhichDrum: T1 ; velocity: 0
@24240 , @1.278158914728682 Channel: 9 
Note on, B3 key =  59;WhichDrum: T1 ; velocity: 127
@24240 , @1.278158914728682 Channel: 9 
Note on, C2 key =  36;WhichDrum: B ; velocity: 127
@24300 , @1.2813226744186046 Channel: 9 
Note on, B3 key =  59;WhichDrum: T1 ; velocity: 0
@24300 , @1.2813226744186046 Channel: 9 
Note on, A2 key =  45;WhichDrum: T3 ; velocity: 127
@24330 , @1.2829045542635658 Channel: 9 
Note on, A2 key =  45;WhichDrum: T3 ; velocity: 0
@24330 , @1.2829045542635658 Channel: 9 
Note on, A2 key =  45;WhichDrum: T3 ; velocity: 127
@24360 , @1.2844864341085271 Channel: 9 
Note on, C2 key =  36;WhichDrum: B ; velocity: 0
@24360 , @1.2844864341085271 Channel: 9 
Note on, A2 key =  45;WhichDrum: T3 ; velocity: 0
@24360 , @1.2844864341085271 Channel: 9 
Note on, A3 key =  57;WhichDrum: T3 ; velocity: 127
@24360 , @1.2844864341085271 Channel: 9 
Note on, C2 key =  36;WhichDrum: B ; velocity: 127
@24420 , @1.2876501937984497 Channel: 9 
Note on, A3 key =  57;WhichDrum: T3 ; velocity: 0
@24420 , @1.2876501937984497 Channel: 9 
Note on, C2 key =  36;WhichDrum: B ; velocity: 0
@24420 , @1.2876501937984497 Channel: 9 
Note on, A3 key =  57;WhichDrum: T3 ; velocity: 127
@24420 , @1.2876501937984497 Channel: 9 
Note on, C2 key =  36;WhichDrum: B ; velocity: 127
@24480 , @1.290813953488372 Channel: 9 
Note on, A3 key =  57;WhichDrum: T3 ; velocity: 0
@24480 , @1.290813953488372 Channel: 9 
Note on, C2 key =  36;WhichDrum: B ; velocity: 0
@24480 , @1.290813953488372 Channel: 9 
Note on, A3 key =  57;WhichDrum: T3 ; velocity: 127
@24480 , @1.290813953488372 Channel: 9 
Note on, C2 key =  36;WhichDrum: B ; velocity: 127
@24540 , @1.2939777131782946 Channel: 9 
Note on, A3 key =  57;WhichDrum: T3 ; velocity: 0
@24540 , @1.2939777131782946 Channel: 9 
Note on, B3 key =  59;WhichDrum: T1 ; velocity: 127
@24600 , @1.2971414728682171 Channel: 9 
Note on, C2 key =  36;WhichDrum: B ; velocity: 0
@24600 , @1.2971414728682171 Channel: 9 
Note on, B3 key =  59;WhichDrum: T1 ; velocity: 0
@24600 , @1.2971414728682171 Channel: 9 
Note on, D2 key =  38;WhichDrum: T2 ; velocity: 127
@24600 , @1.2971414728682171 Channel: 9 
Note on, B3 key =  59;WhichDrum: T1 ; velocity: 127
@24660 , @1.3003052325581395 Channel: 9 
Note on, D2 key =  38;WhichDrum: T2 ; velocity: 0
@24660 , @1.3003052325581395 Channel: 9 
Note on, B3 key =  59;WhichDrum: T1 ; velocity: 0
@24660 , @1.3003052325581395 Channel: 9 
Note on, B3 key =  59;WhichDrum: T1 ; velocity: 127
@24720 , @1.303468992248062 Channel: 9 
Note on, B3 key =  59;WhichDrum: T1 ; velocity: 0
@24720 , @1.303468992248062 Channel: 9 
Note on, B3 key =  59;WhichDrum: T1 ; velocity: 127
@24720 , @1.303468992248062 Channel: 9 
Note on, C2 key =  36;WhichDrum: B ; velocity: 127
@24780 , @1.3066327519379846 Channel: 9 
Note on, B3 key =  59;WhichDrum: T1 ; velocity: 0
@24780 , @1.3066327519379846 Channel: 9 
Note on, A2 key =  45;WhichDrum: T3 ; velocity: 127
@24810 , @1.3082146317829457 Channel: 9 
Note on, A2 key =  45;WhichDrum: T3 ; velocity: 0
@24810 , @1.3082146317829457 Channel: 9 
Note on, A2 key =  45;WhichDrum: T3 ; velocity: 127
@24840 , @1.309796511627907 Channel: 9 
Note on, C2 key =  36;WhichDrum: B ; velocity: 0
@24840 , @1.309796511627907 Channel: 9 
Note on, A2 key =  45;WhichDrum: T3 ; velocity: 0
@24840 , @1.309796511627907 Channel: 9 
Note on, A3 key =  57;WhichDrum: T3 ; velocity: 127
@24840 , @1.309796511627907 Channel: 9 
Note on, C2 key =  36;WhichDrum: B ; velocity: 127
@24900 , @1.3129602713178294 Channel: 9 
Note on, A3 key =  57;WhichDrum: T3 ; velocity: 0
@24900 , @1.3129602713178294 Channel: 9 
Note on, C2 key =  36;WhichDrum: B ; velocity: 0
@24900 , @1.3129602713178294 Channel: 9 
Note on, A3 key =  57;WhichDrum: T3 ; velocity: 127
@24900 , @1.3129602713178294 Channel: 9 
Note on, C2 key =  36;WhichDrum: B ; velocity: 127
@24960 , @1.316124031007752 Channel: 9 
Note on, A3 key =  57;WhichDrum: T3 ; velocity: 0
@24960 , @1.316124031007752 Channel: 9 
Note on, C2 key =  36;WhichDrum: B ; velocity: 0
@24960 , @1.316124031007752 Channel: 9 
Note on, A3 key =  57;WhichDrum: T3 ; velocity: 127
@24960 , @1.316124031007752 Channel: 9 
Note on, C2 key =  36;WhichDrum: B ; velocity: 127
@25020 , @1.3192877906976745 Channel: 9 
Note on, A3 key =  57;WhichDrum: T3 ; velocity: 0
@25020 , @1.3192877906976745 Channel: 9 
Note on, B3 key =  59;WhichDrum: T1 ; velocity: 127
@25080 , @1.3224515503875969 Channel: 9 
Note on, C2 key =  36;WhichDrum: B ; velocity: 0
@25080 , @1.3224515503875969 Channel: 9 
Note on, B3 key =  59;WhichDrum: T1 ; velocity: 0
@25080 , @1.3224515503875969 Channel: 9 
Note on, D2 key =  38;WhichDrum: T2 ; velocity: 127
@25080 , @1.3224515503875969 Channel: 9 
Note on, B3 key =  59;WhichDrum: T1 ; velocity: 127
@25140 , @1.3256153100775194 Channel: 9 
Note on, D2 key =  38;WhichDrum: T2 ; velocity: 0
@25140 , @1.3256153100775194 Channel: 9 
Note on, B3 key =  59;WhichDrum: T1 ; velocity: 0
@25140 , @1.3256153100775194 Channel: 9 
Note on, B3 key =  59;WhichDrum: T1 ; velocity: 127
@25200 , @1.328779069767442 Channel: 9 
Note on, B3 key =  59;WhichDrum: T1 ; velocity: 0
@25200 , @1.328779069767442 Channel: 9 
Note on, C2 key =  36;WhichDrum: B ; velocity: 127
@25200 , @1.328779069767442 Channel: 9 
Note on, B3 key =  59;WhichDrum: T1 ; velocity: 127
@25260 , @1.3319428294573643 Channel: 9 
Note on, C2 key =  36;WhichDrum: B ; velocity: 0
@25260 , @1.3319428294573643 Channel: 9 
Note on, B3 key =  59;WhichDrum: T1 ; velocity: 0
@25260 , @1.3319428294573643 Channel: 9 
Note on, B3 key =  59;WhichDrum: T1 ; velocity: 127
@25260 , @1.3319428294573643 Channel: 9 
Note on, C2 key =  36;WhichDrum: B ; velocity: 127
@25320 , @1.3351065891472869 Channel: 9 
Note on, B3 key =  59;WhichDrum: T1 ; velocity: 0
@25320 , @1.3351065891472869 Channel: 9 
Note on, C2 key =  36;WhichDrum: B ; velocity: 0
@25320 , @1.3351065891472869 Channel: 9 
Note on, A2 key =  45;WhichDrum: T3 ; velocity: 127
@25350 , @1.336688468992248 Channel: 9 
Note on, A2 key =  45;WhichDrum: T3 ; velocity: 0
@25350 , @1.336688468992248 Channel: 9 
Note on, A2 key =  45;WhichDrum: T3 ; velocity: 127
@25380 , @1.3382703488372094 Channel: 9 
Note on, A2 key =  45;WhichDrum: T3 ; velocity: 0
@25380 , @1.3382703488372094 Channel: 9 
Note on, A2 key =  45;WhichDrum: T3 ; velocity: 127
@25440 , @1.341434108527132 Channel: 9 
Note on, A2 key =  45;WhichDrum: T3 ; velocity: 0
@25440 , @1.341434108527132 Channel: 9 
Note on, A3 key =  57;WhichDrum: T3 ; velocity: 127
@25440 , @1.341434108527132 Channel: 9 
Note on, C2 key =  36;WhichDrum: B ; velocity: 127
@25500 , @1.3445978682170543 Channel: 9 
Note on, A3 key =  57;WhichDrum: T3 ; velocity: 0
@25500 , @1.3445978682170543 Channel: 9 
Note on, B3 key =  59;WhichDrum: T1 ; velocity: 127
@25560 , @1.3477616279069768 Channel: 9 
Note on, C2 key =  36;WhichDrum: B ; velocity: 0
@25560 , @1.3477616279069768 Channel: 9 
Note on, B3 key =  59;WhichDrum: T1 ; velocity: 0
@25560 , @1.3477616279069768 Channel: 9 
Note on, D2 key =  38;WhichDrum: T2 ; velocity: 127
@25560 , @1.3477616279069768 Channel: 9 
Note on, B3 key =  59;WhichDrum: T1 ; velocity: 127
@25620 , @1.3509253875968994 Channel: 9 
Note on, D2 key =  38;WhichDrum: T2 ; velocity: 0
@25620 , @1.3509253875968994 Channel: 9 
Note on, B3 key =  59;WhichDrum: T1 ; velocity: 0
@25620 , @1.3509253875968994 Channel: 9 
Note on, B3 key =  59;WhichDrum: T1 ; velocity: 127
@25680 , @1.3540891472868217 Channel: 9 
Note on, B3 key =  59;WhichDrum: T1 ; velocity: 0
@25680 , @1.3540891472868217 Channel: 9 
Note on, B3 key =  59;WhichDrum: T1 ; velocity: 127
@25680 , @1.3540891472868217 Channel: 9 
Note on, C2 key =  36;WhichDrum: B ; velocity: 127
@25740 , @1.3572529069767443 Channel: 9 
Note on, B3 key =  59;WhichDrum: T1 ; velocity: 0
@25740 , @1.3572529069767443 Channel: 9 
Note on, A2 key =  45;WhichDrum: T3 ; velocity: 127
@25770 , @1.3588347868217054 Channel: 9 
Note on, A2 key =  45;WhichDrum: T3 ; velocity: 0
@25770 , @1.3588347868217054 Channel: 9 
Note on, A2 key =  45;WhichDrum: T3 ; velocity: 127
@25800 , @1.3604166666666668 Channel: 9 
Note on, C2 key =  36;WhichDrum: B ; velocity: 0
@25800 , @1.3604166666666668 Channel: 9 
Note on, A2 key =  45;WhichDrum: T3 ; velocity: 0
@25800 , @1.3604166666666668 Channel: 9 
Note on, A3 key =  57;WhichDrum: T3 ; velocity: 127
@25800 , @1.3604166666666668 Channel: 9 
Note on, C2 key =  36;WhichDrum: B ; velocity: 127
@25860 , @1.3635804263565892 Channel: 9 
Note on, A3 key =  57;WhichDrum: T3 ; velocity: 0
@25860 , @1.3635804263565892 Channel: 9 
Note on, C2 key =  36;WhichDrum: B ; velocity: 0
@25860 , @1.3635804263565892 Channel: 9 
Note on, A3 key =  57;WhichDrum: T3 ; velocity: 127
@25860 , @1.3635804263565892 Channel: 9 
Note on, C2 key =  36;WhichDrum: B ; velocity: 127
@25920 , @1.3667441860465117 Channel: 9 
Note on, A3 key =  57;WhichDrum: T3 ; velocity: 0
@25920 , @1.3667441860465117 Channel: 9 
Note on, C2 key =  36;WhichDrum: B ; velocity: 0
@25920 , @1.3667441860465117 Channel: 9 
Note on, A3 key =  57;WhichDrum: T3 ; velocity: 127
@25920 , @1.3667441860465117 Channel: 9 
Note on, C2 key =  36;WhichDrum: B ; velocity: 127
@25980 , @1.3699079457364343 Channel: 9 
Note on, A3 key =  57;WhichDrum: T3 ; velocity: 0
@25980 , @1.3699079457364343 Channel: 9 
Note on, B3 key =  59;WhichDrum: T1 ; velocity: 127
@26040 , @1.3730717054263568 Channel: 9 
Note on, C2 key =  36;WhichDrum: B ; velocity: 0
@26040 , @1.3730717054263568 Channel: 9 
Note on, B3 key =  59;WhichDrum: T1 ; velocity: 0
@26040 , @1.3730717054263568 Channel: 9 
Note on, D2 key =  38;WhichDrum: T2 ; velocity: 127
@26040 , @1.3730717054263568 Channel: 9 
Note on, B3 key =  59;WhichDrum: T1 ; velocity: 127
@26100 , @1.3762354651162791 Channel: 9 
Note on, D2 key =  38;WhichDrum: T2 ; velocity: 0
@26100 , @1.3762354651162791 Channel: 9 
Note on, B3 key =  59;WhichDrum: T1 ; velocity: 0
@26100 , @1.3762354651162791 Channel: 9 
Note on, B3 key =  59;WhichDrum: T1 ; velocity: 127
@26160 , @1.3793992248062015 Channel: 9 
Note on, B3 key =  59;WhichDrum: T1 ; velocity: 0
@26160 , @1.3793992248062015 Channel: 9 
Note on, B3 key =  59;WhichDrum: T1 ; velocity: 127
@26160 , @1.3793992248062015 Channel: 9 
Note on, C2 key =  36;WhichDrum: B ; velocity: 127
@26220 , @1.382562984496124 Channel: 9 
Note on, B3 key =  59;WhichDrum: T1 ; velocity: 0
@26220 , @1.382562984496124 Channel: 9 
Note on, A2 key =  45;WhichDrum: T3 ; velocity: 127
@26250 , @1.3841448643410852 Channel: 9 
Note on, A2 key =  45;WhichDrum: T3 ; velocity: 0
@26250 , @1.3841448643410852 Channel: 9 
Note on, A2 key =  45;WhichDrum: T3 ; velocity: 127
@26280 , @1.3857267441860466 Channel: 9 
Note on, C2 key =  36;WhichDrum: B ; velocity: 0
@26280 , @1.3857267441860466 Channel: 9 
Note on, A2 key =  45;WhichDrum: T3 ; velocity: 0
@26280 , @1.3857267441860466 Channel: 9 
Note on, A3 key =  57;WhichDrum: T3 ; velocity: 127
@26280 , @1.3857267441860466 Channel: 9 
Note on, C2 key =  36;WhichDrum: B ; velocity: 127
@26340 , @1.388890503875969 Channel: 9 
Note on, A3 key =  57;WhichDrum: T3 ; velocity: 0
@26340 , @1.388890503875969 Channel: 9 
Note on, C2 key =  36;WhichDrum: B ; velocity: 0
@26340 , @1.388890503875969 Channel: 9 
Note on, A3 key =  57;WhichDrum: T3 ; velocity: 127
@26340 , @1.388890503875969 Channel: 9 
Note on, C2 key =  36;WhichDrum: B ; velocity: 127
@26400 , @1.3920542635658915 Channel: 9 
Note on, A3 key =  57;WhichDrum: T3 ; velocity: 0
@26400 , @1.3920542635658915 Channel: 9 
Note on, C2 key =  36;WhichDrum: B ; velocity: 0
@26400 , @1.3920542635658915 Channel: 9 
Note on, A3 key =  57;WhichDrum: T3 ; velocity: 127
@26400 , @1.3920542635658915 Channel: 9 
Note on, C2 key =  36;WhichDrum: B ; velocity: 127
@26460 , @1.395218023255814 Channel: 9 
Note on, A3 key =  57;WhichDrum: T3 ; velocity: 0
@26460 , @1.395218023255814 Channel: 9 
Note on, B3 key =  59;WhichDrum: T1 ; velocity: 127
@26520 , @1.3983817829457363 Channel: 9 
Note on, C2 key =  36;WhichDrum: B ; velocity: 0
@26520 , @1.3983817829457363 Channel: 9 
Note on, B3 key =  59;WhichDrum: T1 ; velocity: 0
@26520 , @1.3983817829457363 Channel: 9 
Note on, D2 key =  38;WhichDrum: T2 ; velocity: 127
@26520 , @1.3983817829457363 Channel: 9 
Note on, B3 key =  59;WhichDrum: T1 ; velocity: 127
@26580 , @1.401545542635659 Channel: 9 
Note on, D2 key =  38;WhichDrum: T2 ; velocity: 0
@26580 , @1.401545542635659 Channel: 9 
Note on, B3 key =  59;WhichDrum: T1 ; velocity: 0
@26580 , @1.401545542635659 Channel: 9 
Note on, B3 key =  59;WhichDrum: T1 ; velocity: 127
@26640 , @1.4047093023255814 Channel: 9 
Note on, B3 key =  59;WhichDrum: T1 ; velocity: 0
@26640 , @1.4047093023255814 Channel: 9 
Note on, B3 key =  59;WhichDrum: T1 ; velocity: 127
@26640 , @1.4047093023255814 Channel: 9 
Note on, C2 key =  36;WhichDrum: B ; velocity: 127
@26700 , @1.407873062015504 Channel: 9 
Note on, B3 key =  59;WhichDrum: T1 ; velocity: 0
@26700 , @1.407873062015504 Channel: 9 
Note on, A2 key =  45;WhichDrum: T3 ; velocity: 127
@26730 , @1.4094549418604652 Channel: 9 
Note on, A2 key =  45;WhichDrum: T3 ; velocity: 0
@26730 , @1.4094549418604652 Channel: 9 
Note on, A2 key =  45;WhichDrum: T3 ; velocity: 127
@26760 , @1.4110368217054263 Channel: 9 
Note on, C2 key =  36;WhichDrum: B ; velocity: 0
@26760 , @1.4110368217054263 Channel: 9 
Note on, A2 key =  45;WhichDrum: T3 ; velocity: 0
@26760 , @1.4110368217054263 Channel: 9 
Note on, A3 key =  57;WhichDrum: T3 ; velocity: 127
@26760 , @1.4110368217054263 Channel: 9 
Note on, C2 key =  36;WhichDrum: B ; velocity: 127
@26820 , @1.4142005813953489 Channel: 9 
Note on, A3 key =  57;WhichDrum: T3 ; velocity: 0
@26820 , @1.4142005813953489 Channel: 9 
Note on, C2 key =  36;WhichDrum: B ; velocity: 0
@26820 , @1.4142005813953489 Channel: 9 
Note on, A3 key =  57;WhichDrum: T3 ; velocity: 127
@26820 , @1.4142005813953489 Channel: 9 
Note on, C2 key =  36;WhichDrum: B ; velocity: 127
@26880 , @1.4173643410852714 Channel: 9 
Note on, A3 key =  57;WhichDrum: T3 ; velocity: 0
@26880 , @1.4173643410852714 Channel: 9 
Note on, C2 key =  36;WhichDrum: B ; velocity: 0
@26880 , @1.4173643410852714 Channel: 9 
Note on, C2 key =  36;WhichDrum: B ; velocity: 127
@26880 , @1.4173643410852714 Channel: 9 
Note on, A3 key =  57;WhichDrum: T3 ; velocity: 127
@26940 , @1.4205281007751938 Channel: 9 
Note on, A3 key =  57;WhichDrum: T3 ; velocity: 0
@26940 , @1.4205281007751938 Channel: 9 
Note on, D2 key =  38;WhichDrum: T2 ; velocity: 127
@26970 , @1.4221099806201551 Channel: 9 
Note on, D2 key =  38;WhichDrum: T2 ; velocity: 0
@26970 , @1.4221099806201551 Channel: 9 
Note on, D2 key =  38;WhichDrum: T2 ; velocity: 127
@27000 , @1.4236918604651163 Channel: 9 
Note on, C2 key =  36;WhichDrum: B ; velocity: 0
@27000 , @1.4236918604651163 Channel: 9 
Note on, D2 key =  38;WhichDrum: T2 ; velocity: 0
@27000 , @1.4236918604651163 Channel: 9 
Note on, D2 key =  38;WhichDrum: T2 ; velocity: 127
@27060 , @1.4268556201550389 Channel: 9 
Note on, D2 key =  38;WhichDrum: T2 ; velocity: 0
@27060 , @1.4268556201550389 Channel: 9 
Note on, D2 key =  38;WhichDrum: T2 ; velocity: 127
@27090 , @1.4284375 Channel: 9 
Note on, D2 key =  38;WhichDrum: T2 ; velocity: 0
@27090 , @1.4284375 Channel: 9 
Note on, D2 key =  38;WhichDrum: T2 ; velocity: 127
@27120 , @1.4300193798449612 Channel: 9 
Note on, D2 key =  38;WhichDrum: T2 ; velocity: 0
@27120 , @1.4300193798449612 Channel: 9 
Note on, D2 key =  38;WhichDrum: T2 ; velocity: 127
@27180 , @1.4331831395348837 Channel: 9 
Note on, D2 key =  38;WhichDrum: T2 ; velocity: 0
@27180 , @1.4331831395348837 Channel: 9 
Note on, D2 key =  38;WhichDrum: T2 ; velocity: 127
@27210 , @1.4347650193798451 Channel: 9 
Note on, D2 key =  38;WhichDrum: T2 ; velocity: 0
@27210 , @1.4347650193798451 Channel: 9 
Note on, D2 key =  38;WhichDrum: T2 ; velocity: 127
@27240 , @1.4363468992248063 Channel: 9 
Note on, D2 key =  38;WhichDrum: T2 ; velocity: 0
@27240 , @1.4363468992248063 Channel: 9 
Note on, D2 key =  38;WhichDrum: T2 ; velocity: 127
@27300 , @1.4395106589147288 Channel: 9 
Note on, D2 key =  38;WhichDrum: T2 ; velocity: 0
@27300 , @1.4395106589147288 Channel: 9 
Note on, D2 key =  38;WhichDrum: T2 ; velocity: 127
@27360 , @1.4426744186046512 Channel: 9 
Note on, D2 key =  38;WhichDrum: T2 ; velocity: 0
@27360 , @1.4426744186046512 Channel: 9 
Note on, A3 key =  57;WhichDrum: T3 ; velocity: 127
@27360 , @1.4426744186046512 Channel: 9 
Note on, C2 key =  36;WhichDrum: B ; velocity: 127
@27420 , @1.4458381782945737 Channel: 9 
Note on, A3 key =  57;WhichDrum: T3 ; velocity: 0
@27420 , @1.4458381782945737 Channel: 9 
Note on, D2 key =  38;WhichDrum: T2 ; velocity: 127
@27450 , @1.447420058139535 Channel: 9 
Note on, D2 key =  38;WhichDrum: T2 ; velocity: 0
@27450 , @1.447420058139535 Channel: 9 
Note on, D2 key =  38;WhichDrum: T2 ; velocity: 127
@27480 , @1.4490019379844963 Channel: 9 
Note on, C2 key =  36;WhichDrum: B ; velocity: 0
@27480 , @1.4490019379844963 Channel: 9 
Note on, D2 key =  38;WhichDrum: T2 ; velocity: 0
@27480 , @1.4490019379844963 Channel: 9 
Note on, D2 key =  38;WhichDrum: T2 ; velocity: 127
@27540 , @1.4521656976744186 Channel: 9 
Note on, D2 key =  38;WhichDrum: T2 ; velocity: 0
@27540 , @1.4521656976744186 Channel: 9 
Note on, D2 key =  38;WhichDrum: T2 ; velocity: 127
@27570 , @1.45374757751938 Channel: 9 
Note on, D2 key =  38;WhichDrum: T2 ; velocity: 0
@27570 , @1.45374757751938 Channel: 9 
Note on, D2 key =  38;WhichDrum: T2 ; velocity: 127
@27600 , @1.4553294573643412 Channel: 9 
Note on, D2 key =  38;WhichDrum: T2 ; velocity: 0
@27600 , @1.4553294573643412 Channel: 9 
Note on, A2 key =  45;WhichDrum: T3 ; velocity: 127
@27660 , @1.4584932170542637 Channel: 9 
Note on, A2 key =  45;WhichDrum: T3 ; velocity: 0
@27660 , @1.4584932170542637 Channel: 9 
Note on, A2 key =  45;WhichDrum: T3 ; velocity: 127
@27690 , @1.4600750968992249 Channel: 9 
Note on, A2 key =  45;WhichDrum: T3 ; velocity: 0
@27690 , @1.4600750968992249 Channel: 9 
Note on, A2 key =  45;WhichDrum: T3 ; velocity: 127
@27720 , @1.4616569767441863 Channel: 9 
Note on, A2 key =  45;WhichDrum: T3 ; velocity: 0
@27720 , @1.4616569767441863 Channel: 9 
Note on, B2 key =  47;WhichDrum: T1 ; velocity: 127
@27780 , @1.4648207364341086 Channel: 9 
Note on, B2 key =  47;WhichDrum: T1 ; velocity: 0
@27780 , @1.4648207364341086 Channel: 9 
Note on, B2 key =  47;WhichDrum: T1 ; velocity: 127
@27840 , @1.4679844961240311 Channel: 9 
Note on, B2 key =  47;WhichDrum: T1 ; velocity: 0
@27840 , @1.4679844961240311 Channel: 9 
Note on, A3 key =  57;WhichDrum: T3 ; velocity: 127
@27840 , @1.4679844961240311 Channel: 9 
Note on, C2 key =  36;WhichDrum: B ; velocity: 127
@27900 , @1.4711482558139537 Channel: 9 
Note on, A3 key =  57;WhichDrum: T3 ; velocity: 0
@27900 , @1.4711482558139537 Channel: 9 
Note on, F#2 key =  42;WhichDrum: C1 ; velocity: 127
@27960 , @1.474312015503876 Channel: 9 
Note on, C2 key =  36;WhichDrum: B ; velocity: 0
@27960 , @1.474312015503876 Channel: 9 
Note on, F#2 key =  42;WhichDrum: C1 ; velocity: 0
@27960 , @1.474312015503876 Channel: 9 
Note on, D2 key =  38;WhichDrum: T2 ; velocity: 127
@27960 , @1.474312015503876 Channel: 9 
Note on, F#2 key =  42;WhichDrum: C1 ; velocity: 127
@28020 , @1.4774757751937986 Channel: 9 
Note on, D2 key =  38;WhichDrum: T2 ; velocity: 0
@28020 , @1.4774757751937986 Channel: 9 
Note on, F#2 key =  42;WhichDrum: C1 ; velocity: 0
@28020 , @1.4774757751937986 Channel: 9 
Note on, F#2 key =  42;WhichDrum: C1 ; velocity: 127
@28080 , @1.480639534883721 Channel: 9 
Note on, F#2 key =  42;WhichDrum: C1 ; velocity: 0
@28080 , @1.480639534883721 Channel: 9 
Note on, C2 key =  36;WhichDrum: B ; velocity: 127
@28080 , @1.480639534883721 Channel: 9 
Note on, F#2 key =  42;WhichDrum: C1 ; velocity: 127
@28140 , @1.4838032945736435 Channel: 9 
Note on, C2 key =  36;WhichDrum: B ; velocity: 0
@28140 , @1.4838032945736435 Channel: 9 
Note on, F#2 key =  42;WhichDrum: C1 ; velocity: 0
@28140 , @1.4838032945736435 Channel: 9 
Note on, C2 key =  36;WhichDrum: B ; velocity: 127
@28140 , @1.4838032945736435 Channel: 9 
Note on, F#2 key =  42;WhichDrum: C1 ; velocity: 127
@28160 , @1.484857881136951 Channel: 9 
Note on, C2 key =  36;WhichDrum: B ; velocity: 0
@28160 , @1.484857881136951 Channel: 9 
Note on, C2 key =  36;WhichDrum: B ; velocity: 127
@28180 , @1.4859124677002584 Channel: 9 
Note on, C2 key =  36;WhichDrum: B ; velocity: 0
@28180 , @1.4859124677002584 Channel: 9 
Note on, C2 key =  36;WhichDrum: B ; velocity: 127
@28200 , @1.4869670542635658 Channel: 9 
Note on, F#2 key =  42;WhichDrum: C1 ; velocity: 0
@28200 , @1.4869670542635658 Channel: 9 
Note on, C2 key =  36;WhichDrum: B ; velocity: 0
@28200 , @1.4869670542635658 Channel: 9 
Note on, D2 key =  38;WhichDrum: T2 ; velocity: 127
@28200 , @1.4869670542635658 Channel: 9 
Note on, F#2 key =  42;WhichDrum: C1 ; velocity: 127
@28260 , @1.4901308139534883 Channel: 9 
Note on, D2 key =  38;WhichDrum: T2 ; velocity: 0
@28260 , @1.4901308139534883 Channel: 9 
Note on, F#2 key =  42;WhichDrum: C1 ; velocity: 0
@28260 , @1.4901308139534883 Channel: 9 
Note on, F#2 key =  42;WhichDrum: C1 ; velocity: 127
@28320 , @1.493294573643411 Channel: 9 
Note on, F#2 key =  42;WhichDrum: C1 ; velocity: 0
@28320 , @1.493294573643411 Channel: 9 
Note on, C2 key =  36;WhichDrum: B ; velocity: 127
@28320 , @1.493294573643411 Channel: 9 
Note on, A3 key =  57;WhichDrum: T3 ; velocity: 127
@28380 , @1.4964583333333332 Channel: 9 
Note on, A3 key =  57;WhichDrum: T3 ; velocity: 0
@28380 , @1.4964583333333332 Channel: 9 
Note on, F#2 key =  42;WhichDrum: C1 ; velocity: 127
@28440 , @1.4996220930232558 Channel: 9 
Note on, C2 key =  36;WhichDrum: B ; velocity: 0
@28440 , @1.4996220930232558 Channel: 9 
Note on, F#2 key =  42;WhichDrum: C1 ; velocity: 0
@28440 , @1.4996220930232558 Channel: 9 
Note on, D2 key =  38;WhichDrum: T2 ; velocity: 127
@28440 , @1.4996220930232558 Channel: 9 
Note on, F#2 key =  42;WhichDrum: C1 ; velocity: 127
@28500 , @1.5027858527131783 Channel: 9 
Note on, D2 key =  38;WhichDrum: T2 ; velocity: 0
@28500 , @1.5027858527131783 Channel: 9 
Note on, F#2 key =  42;WhichDrum: C1 ; velocity: 0
@28500 , @1.5027858527131783 Channel: 9 
Note on, F#2 key =  42;WhichDrum: C1 ; velocity: 127
@28560 , @1.5059496124031009 Channel: 9 
Note on, F#2 key =  42;WhichDrum: C1 ; velocity: 0
@28560 , @1.5059496124031009 Channel: 9 
Note on, D2 key =  38;WhichDrum: T2 ; velocity: 127
@28590 , @1.507531492248062 Channel: 9 
Note on, D2 key =  38;WhichDrum: T2 ; velocity: 0
@28590 , @1.507531492248062 Channel: 9 
Note on, D2 key =  38;WhichDrum: T2 ; velocity: 127
@28620 , @1.5091133720930232 Channel: 9 
Note on, D2 key =  38;WhichDrum: T2 ; velocity: 0
@28620 , @1.5091133720930232 Channel: 9 
Note on, D2 key =  38;WhichDrum: T2 ; velocity: 127
@28680 , @1.5122771317829458 Channel: 9 
Note on, D2 key =  38;WhichDrum: T2 ; velocity: 0
@28680 , @1.5122771317829458 Channel: 9 
Note on, A2 key =  45;WhichDrum: T3 ; velocity: 127
@28710 , @1.513859011627907 Channel: 9 
Note on, A2 key =  45;WhichDrum: T3 ; velocity: 0
@28710 , @1.513859011627907 Channel: 9 
Note on, A2 key =  45;WhichDrum: T3 ; velocity: 127
@28740 , @1.5154408914728683 Channel: 9 
Note on, A2 key =  45;WhichDrum: T3 ; velocity: 0
@28740 , @1.5154408914728683 Channel: 9 
Note on, A2 key =  45;WhichDrum: T3 ; velocity: 127
@28800 , @1.5186046511627906 Channel: 9 
Note on, A2 key =  45;WhichDrum: T3 ; velocity: 0
@28800 , @1.5186046511627906 Channel: 9 
Note on, A3 key =  57;WhichDrum: T3 ; velocity: 127
@28800 , @1.5186046511627906 Channel: 9 
Note on, C2 key =  36;WhichDrum: B ; velocity: 127
@28860 , @1.5217684108527132 Channel: 9 
Note on, A3 key =  57;WhichDrum: T3 ; velocity: 0
@28860 , @1.5217684108527132 Channel: 9 
Note on, F#2 key =  42;WhichDrum: C1 ; velocity: 127
@28920 , @1.5249321705426357 Channel: 9 
Note on, C2 key =  36;WhichDrum: B ; velocity: 0
@28920 , @1.5249321705426357 Channel: 9 
Note on, F#2 key =  42;WhichDrum: C1 ; velocity: 0
@28920 , @1.5249321705426357 Channel: 9 
Note on, D2 key =  38;WhichDrum: T2 ; velocity: 127
@28920 , @1.5249321705426357 Channel: 9 
Note on, F#2 key =  42;WhichDrum: C1 ; velocity: 127
@28980 , @1.5280959302325583 Channel: 9 
Note on, D2 key =  38;WhichDrum: T2 ; velocity: 0
@28980 , @1.5280959302325583 Channel: 9 
Note on, F#2 key =  42;WhichDrum: C1 ; velocity: 0
@28980 , @1.5280959302325583 Channel: 9 
Note on, F#2 key =  42;WhichDrum: C1 ; velocity: 127
@29040 , @1.5312596899224806 Channel: 9 
Note on, F#2 key =  42;WhichDrum: C1 ; velocity: 0
@29040 , @1.5312596899224806 Channel: 9 
Note on, F#2 key =  42;WhichDrum: C1 ; velocity: 127
@29040 , @1.5312596899224806 Channel: 9 
Note on, C2 key =  36;WhichDrum: B ; velocity: 127
@29100 , @1.5344234496124032 Channel: 9 
Note on, F#2 key =  42;WhichDrum: C1 ; velocity: 0
@29100 , @1.5344234496124032 Channel: 9 
Note on, F#2 key =  42;WhichDrum: C1 ; velocity: 127
@29160 , @1.5375872093023257 Channel: 9 
Note on, C2 key =  36;WhichDrum: B ; velocity: 0
@29160 , @1.5375872093023257 Channel: 9 
Note on, F#2 key =  42;WhichDrum: C1 ; velocity: 0
@29160 , @1.5375872093023257 Channel: 9 
Note on, D2 key =  38;WhichDrum: T2 ; velocity: 127
@29160 , @1.5375872093023257 Channel: 9 
Note on, F#2 key =  42;WhichDrum: C1 ; velocity: 127
@29220 , @1.540750968992248 Channel: 9 
Note on, D2 key =  38;WhichDrum: T2 ; velocity: 0
@29220 , @1.540750968992248 Channel: 9 
Note on, F#2 key =  42;WhichDrum: C1 ; velocity: 0
@29220 , @1.540750968992248 Channel: 9 
Note on, F#2 key =  42;WhichDrum: C1 ; velocity: 127
@29280 , @1.5439147286821706 Channel: 9 
Note on, F#2 key =  42;WhichDrum: C1 ; velocity: 0
@29280 , @1.5439147286821706 Channel: 9 
Note on, C2 key =  36;WhichDrum: B ; velocity: 127
@29280 , @1.5439147286821706 Channel: 9 
Note on, F#2 key =  42;WhichDrum: C1 ; velocity: 127
@29340 , @1.5470784883720932 Channel: 9 
Note on, C2 key =  36;WhichDrum: B ; velocity: 0
@29340 , @1.5470784883720932 Channel: 9 
Note on, F#2 key =  42;WhichDrum: C1 ; velocity: 0
@29340 , @1.5470784883720932 Channel: 9 
Note on, C2 key =  36;WhichDrum: B ; velocity: 127
@29340 , @1.5470784883720932 Channel: 9 
Note on, F#2 key =  42;WhichDrum: C1 ; velocity: 127
@29360 , @1.5481330749354005 Channel: 9 
Note on, C2 key =  36;WhichDrum: B ; velocity: 0
@29360 , @1.5481330749354005 Channel: 9 
Note on, C2 key =  36;WhichDrum: B ; velocity: 127
@29380 , @1.549187661498708 Channel: 9 
Note on, C2 key =  36;WhichDrum: B ; velocity: 0
@29380 , @1.549187661498708 Channel: 9 
Note on, C2 key =  36;WhichDrum: B ; velocity: 127
@29400 , @1.5502422480620155 Channel: 9 
Note on, F#2 key =  42;WhichDrum: C1 ; velocity: 0
@29400 , @1.5502422480620155 Channel: 9 
Note on, C2 key =  36;WhichDrum: B ; velocity: 0
@29400 , @1.5502422480620155 Channel: 9 
Note on, D2 key =  38;WhichDrum: T2 ; velocity: 127
@29400 , @1.5502422480620155 Channel: 9 
Note on, F#2 key =  42;WhichDrum: C1 ; velocity: 127
@29460 , @1.553406007751938 Channel: 9 
Note on, D2 key =  38;WhichDrum: T2 ; velocity: 0
@29460 , @1.553406007751938 Channel: 9 
Note on, F#2 key =  42;WhichDrum: C1 ; velocity: 0
@29460 , @1.553406007751938 Channel: 9 
Note on, C2 key =  36;WhichDrum: B ; velocity: 127
@29460 , @1.553406007751938 Channel: 9 
Note on, F#2 key =  42;WhichDrum: C1 ; velocity: 127
@29480 , @1.5544605943152454 Channel: 9 
Note on, C2 key =  36;WhichDrum: B ; velocity: 0
@29480 , @1.5544605943152454 Channel: 9 
Note on, C2 key =  36;WhichDrum: B ; velocity: 127
@29500 , @1.555515180878553 Channel: 9 
Note on, C2 key =  36;WhichDrum: B ; velocity: 0
@29500 , @1.555515180878553 Channel: 9 
Note on, C2 key =  36;WhichDrum: B ; velocity: 127
@29520 , @1.5565697674418606 Channel: 9 
Note on, F#2 key =  42;WhichDrum: C1 ; velocity: 0
@29520 , @1.5565697674418606 Channel: 9 
Note on, C2 key =  36;WhichDrum: B ; velocity: 0
@29520 , @1.5565697674418606 Channel: 9 
Note on, D2 key =  38;WhichDrum: T2 ; velocity: 127
@29520 , @1.5565697674418606 Channel: 9 
Note on, F#2 key =  42;WhichDrum: C1 ; velocity: 127
@29580 , @1.5597335271317831 Channel: 9 
Note on, D2 key =  38;WhichDrum: T2 ; velocity: 0
@29580 , @1.5597335271317831 Channel: 9 
Note on, F#2 key =  42;WhichDrum: C1 ; velocity: 0
@29580 , @1.5597335271317831 Channel: 9 
Note on, C2 key =  36;WhichDrum: B ; velocity: 127
@29580 , @1.5597335271317831 Channel: 9 
Note on, F#2 key =  42;WhichDrum: C1 ; velocity: 127
@29600 , @1.5607881136950905 Channel: 9 
Note on, C2 key =  36;WhichDrum: B ; velocity: 0
@29600 , @1.5607881136950905 Channel: 9 
Note on, C2 key =  36;WhichDrum: B ; velocity: 127
@29620 , @1.5618427002583979 Channel: 9 
Note on, C2 key =  36;WhichDrum: B ; velocity: 0
@29620 , @1.5618427002583979 Channel: 9 
Note on, C2 key =  36;WhichDrum: B ; velocity: 127
@29640 , @1.5628972868217055 Channel: 9 
Note on, F#2 key =  42;WhichDrum: C1 ; velocity: 0
@29640 , @1.5628972868217055 Channel: 9 
Note on, C2 key =  36;WhichDrum: B ; velocity: 0
@29640 , @1.5628972868217055 Channel: 9 
Note on, D2 key =  38;WhichDrum: T2 ; velocity: 127
@29640 , @1.5628972868217055 Channel: 9 
Note on, F#2 key =  42;WhichDrum: C1 ; velocity: 127
@29700 , @1.566061046511628 Channel: 9 
Note on, D2 key =  38;WhichDrum: T2 ; velocity: 0
@29700 , @1.566061046511628 Channel: 9 
Note on, F#2 key =  42;WhichDrum: C1 ; velocity: 0
@29700 , @1.566061046511628 Channel: 9 
Note on, C2 key =  36;WhichDrum: B ; velocity: 127
@29700 , @1.566061046511628 Channel: 9 
Note on, F#2 key =  42;WhichDrum: C1 ; velocity: 127
@29760 , @1.5692248062015506 Channel: 9 
Note on, C2 key =  36;WhichDrum: B ; velocity: 0
@29760 , @1.5692248062015506 Channel: 9 
Note on, F#2 key =  42;WhichDrum: C1 ; velocity: 0
@29760 , @1.5692248062015506 Channel: 9 
Note on, A3 key =  57;WhichDrum: T3 ; velocity: 127
@29760 , @1.5692248062015506 Channel: 9 
Note on, C2 key =  36;WhichDrum: B ; velocity: 127
@29820 , @1.572388565891473 Channel: 9 
Note on, A3 key =  57;WhichDrum: T3 ; velocity: 0
@29820 , @1.572388565891473 Channel: 9 
Note on, F#2 key =  42;WhichDrum: C1 ; velocity: 127
@29880 , @1.5755523255813955 Channel: 9 
Note on, C2 key =  36;WhichDrum: B ; velocity: 0
@29880 , @1.5755523255813955 Channel: 9 
Note on, F#2 key =  42;WhichDrum: C1 ; velocity: 0
@29880 , @1.5755523255813955 Channel: 9 
Note on, D2 key =  38;WhichDrum: T2 ; velocity: 127
@29880 , @1.5755523255813955 Channel: 9 
Note on, F#2 key =  42;WhichDrum: C1 ; velocity: 127
@29940 , @1.578716085271318 Channel: 9 
Note on, D2 key =  38;WhichDrum: T2 ; velocity: 0
@29940 , @1.578716085271318 Channel: 9 
Note on, F#2 key =  42;WhichDrum: C1 ; velocity: 0
@29940 , @1.578716085271318 Channel: 9 
Note on, F#2 key =  42;WhichDrum: C1 ; velocity: 127
@30000 , @1.5818798449612403 Channel: 9 
Note on, F#2 key =  42;WhichDrum: C1 ; velocity: 0
@30000 , @1.5818798449612403 Channel: 9 
Note on, F#2 key =  42;WhichDrum: C1 ; velocity: 127
@30000 , @1.5818798449612403 Channel: 9 
Note on, C2 key =  36;WhichDrum: B ; velocity: 127
@30060 , @1.5850436046511627 Channel: 9 
Note on, F#2 key =  42;WhichDrum: C1 ; velocity: 0
@30060 , @1.5850436046511627 Channel: 9 
Note on, C2 key =  36;WhichDrum: B ; velocity: 0
@30060 , @1.5850436046511627 Channel: 9 
Note on, F#2 key =  42;WhichDrum: C1 ; velocity: 127
@30060 , @1.5850436046511627 Channel: 9 
Note on, C2 key =  36;WhichDrum: B ; velocity: 127
@30080 , @1.5860981912144705 Channel: 9 
Note on, C2 key =  36;WhichDrum: B ; velocity: 0
@30080 , @1.5860981912144705 Channel: 9 
Note on, C2 key =  36;WhichDrum: B ; velocity: 127
@30100 , @1.5871527777777779 Channel: 9 
Note on, C2 key =  36;WhichDrum: B ; velocity: 0
@30100 , @1.5871527777777779 Channel: 9 
Note on, C2 key =  36;WhichDrum: B ; velocity: 127
@30120 , @1.5882073643410852 Channel: 9 
Note on, F#2 key =  42;WhichDrum: C1 ; velocity: 0
@30120 , @1.5882073643410852 Channel: 9 
Note on, C2 key =  36;WhichDrum: B ; velocity: 0
@30120 , @1.5882073643410852 Channel: 9 
Note on, D2 key =  38;WhichDrum: T2 ; velocity: 127
@30120 , @1.5882073643410852 Channel: 9 
Note on, F#2 key =  42;WhichDrum: C1 ; velocity: 127
@30180 , @1.5913711240310078 Channel: 9 
Note on, D2 key =  38;WhichDrum: T2 ; velocity: 0
@30180 , @1.5913711240310078 Channel: 9 
Note on, F#2 key =  42;WhichDrum: C1 ; velocity: 0
@30180 , @1.5913711240310078 Channel: 9 
Note on, F#2 key =  42;WhichDrum: C1 ; velocity: 127
@30180 , @1.5913711240310078 Channel: 9 
Note on, C2 key =  36;WhichDrum: B ; velocity: 127
@30240 , @1.5945348837209303 Channel: 9 
Note on, F#2 key =  42;WhichDrum: C1 ; velocity: 0
@30240 , @1.5945348837209303 Channel: 9 
Note on, C2 key =  36;WhichDrum: B ; velocity: 0
@30240 , @1.5945348837209303 Channel: 9 
Note on, C2 key =  36;WhichDrum: B ; velocity: 127
@30240 , @1.5945348837209303 Channel: 9 
Note on, A3 key =  57;WhichDrum: T3 ; velocity: 127
@30300 , @1.5976986434108527 Channel: 9 
Note on, A3 key =  57;WhichDrum: T3 ; velocity: 0
@30300 , @1.5976986434108527 Channel: 9 
Note on, F#2 key =  42;WhichDrum: C1 ; velocity: 127
@30360 , @1.6008624031007752 Channel: 9 
Note on, C2 key =  36;WhichDrum: B ; velocity: 0
@30360 , @1.6008624031007752 Channel: 9 
Note on, F#2 key =  42;WhichDrum: C1 ; velocity: 0
@30360 , @1.6008624031007752 Channel: 9 
Note on, D2 key =  38;WhichDrum: T2 ; velocity: 127
@30360 , @1.6008624031007752 Channel: 9 
Note on, F#2 key =  42;WhichDrum: C1 ; velocity: 127
@30420 , @1.6040261627906978 Channel: 9 
Note on, D2 key =  38;WhichDrum: T2 ; velocity: 0
@30420 , @1.6040261627906978 Channel: 9 
Note on, F#2 key =  42;WhichDrum: C1 ; velocity: 0
@30420 , @1.6040261627906978 Channel: 9 
Note on, F#2 key =  42;WhichDrum: C1 ; velocity: 127
@30480 , @1.60718992248062 Channel: 9 
Note on, F#2 key =  42;WhichDrum: C1 ; velocity: 0
@30480 , @1.60718992248062 Channel: 9 
Note on, A2 key =  45;WhichDrum: T3 ; velocity: 127
@30540 , @1.6103536821705426 Channel: 9 
Note on, A2 key =  45;WhichDrum: T3 ; velocity: 0
@30540 , @1.6103536821705426 Channel: 9 
Note on, A2 key =  45;WhichDrum: T3 ; velocity: 127
@30600 , @1.6135174418604652 Channel: 9 
Note on, A2 key =  45;WhichDrum: T3 ; velocity: 0
@30600 , @1.6135174418604652 Channel: 9 
Note on, B2 key =  47;WhichDrum: T1 ; velocity: 127
@30630 , @1.6150993217054264 Channel: 9 
Note on, B2 key =  47;WhichDrum: T1 ; velocity: 0
@30630 , @1.6150993217054264 Channel: 9 
Note on, B2 key =  47;WhichDrum: T1 ; velocity: 127
@30660 , @1.6166812015503875 Channel: 9 
Note on, B2 key =  47;WhichDrum: T1 ; velocity: 0
@30660 , @1.6166812015503875 Channel: 9 
Note on, B2 key =  47;WhichDrum: T1 ; velocity: 127
@30690 , @1.618263081395349 Channel: 9 
Note on, B2 key =  47;WhichDrum: T1 ; velocity: 0
@30690 , @1.618263081395349 Channel: 9 
Note on, B2 key =  47;WhichDrum: T1 ; velocity: 127
@30720 , @1.61984496124031 Channel: 9 
Note on, B2 key =  47;WhichDrum: T1 ; velocity: 0
@30720 , @1.61984496124031 Channel: 9 
Note on, A3 key =  57;WhichDrum: T3 ; velocity: 127
@30720 , @1.61984496124031 Channel: 9 
Note on, C2 key =  36;WhichDrum: B ; velocity: 127
@30780 , @1.6230087209302326 Channel: 9 
Note on, A3 key =  57;WhichDrum: T3 ; velocity: 0
@30780 , @1.6230087209302326 Channel: 9 
Note on, F#2 key =  42;WhichDrum: C1 ; velocity: 127
@30840 , @1.6261724806201552 Channel: 9 
Note on, C2 key =  36;WhichDrum: B ; velocity: 0
@30840 , @1.6261724806201552 Channel: 9 
Note on, F#2 key =  42;WhichDrum: C1 ; velocity: 0
@30840 , @1.6261724806201552 Channel: 9 
Note on, D2 key =  38;WhichDrum: T2 ; velocity: 127
@30840 , @1.6261724806201552 Channel: 9 
Note on, F#2 key =  42;WhichDrum: C1 ; velocity: 127
@30900 , @1.6293362403100775 Channel: 9 
Note on, D2 key =  38;WhichDrum: T2 ; velocity: 0
@30900 , @1.6293362403100775 Channel: 9 
Note on, F#2 key =  42;WhichDrum: C1 ; velocity: 0
@30900 , @1.6293362403100775 Channel: 9 
Note on, F#2 key =  42;WhichDrum: C1 ; velocity: 127
@30960 , @1.6325 Channel: 9 
Note on, F#2 key =  42;WhichDrum: C1 ; velocity: 0
@30960 , @1.6325 Channel: 9 
Note on, F#2 key =  42;WhichDrum: C1 ; velocity: 127
@30960 , @1.6325 Channel: 9 
Note on, C2 key =  36;WhichDrum: B ; velocity: 127
@31020 , @1.6356637596899226 Channel: 9 
Note on, F#2 key =  42;WhichDrum: C1 ; velocity: 0
@31020 , @1.6356637596899226 Channel: 9 
Note on, F#2 key =  42;WhichDrum: C1 ; velocity: 127
@31080 , @1.638827519379845 Channel: 9 
Note on, C2 key =  36;WhichDrum: B ; velocity: 0
@31080 , @1.638827519379845 Channel: 9 
Note on, F#2 key =  42;WhichDrum: C1 ; velocity: 0
@31080 , @1.638827519379845 Channel: 9 
Note on, D2 key =  38;WhichDrum: T2 ; velocity: 127
@31080 , @1.638827519379845 Channel: 9 
Note on, F#2 key =  42;WhichDrum: C1 ; velocity: 127
@31140 , @1.6419912790697675 Channel: 9 
Note on, D2 key =  38;WhichDrum: T2 ; velocity: 0
@31140 , @1.6419912790697675 Channel: 9 
Note on, F#2 key =  42;WhichDrum: C1 ; velocity: 0
@31140 , @1.6419912790697675 Channel: 9 
Note on, F#2 key =  42;WhichDrum: C1 ; velocity: 127
@31200 , @1.64515503875969 Channel: 9 
Note on, F#2 key =  42;WhichDrum: C1 ; velocity: 0
@31200 , @1.64515503875969 Channel: 9 
Note on, D2 key =  38;WhichDrum: T2 ; velocity: 127
@31230 , @1.6467369186046512 Channel: 9 
Note on, D2 key =  38;WhichDrum: T2 ; velocity: 0
@31230 , @1.6467369186046512 Channel: 9 
Note on, D2 key =  38;WhichDrum: T2 ; velocity: 127
@31260 , @1.6483187984496126 Channel: 9 
Note on, D2 key =  38;WhichDrum: T2 ; velocity: 0
@31260 , @1.6483187984496126 Channel: 9 
Note on, F#2 key =  42;WhichDrum: C1 ; velocity: 127
@31320 , @1.651482558139535 Channel: 9 
Note on, F#2 key =  42;WhichDrum: C1 ; velocity: 0
@31320 , @1.651482558139535 Channel: 9 
Note on, D2 key =  38;WhichDrum: T2 ; velocity: 127
@31350 , @1.6530644379844963 Channel: 9 
Note on, D2 key =  38;WhichDrum: T2 ; velocity: 0
@31350 , @1.6530644379844963 Channel: 9 
Note on, D2 key =  38;WhichDrum: T2 ; velocity: 127
@31380 , @1.6546463178294575 Channel: 9 
Note on, D2 key =  38;WhichDrum: T2 ; velocity: 0
@31380 , @1.6546463178294575 Channel: 9 
Note on, F#2 key =  42;WhichDrum: C1 ; velocity: 127
@31440 , @1.65781007751938 Channel: 9 
Note on, F#2 key =  42;WhichDrum: C1 ; velocity: 0
@31440 , @1.65781007751938 Channel: 9 
Note on, D2 key =  38;WhichDrum: T2 ; velocity: 127
@31470 , @1.6593919573643412 Channel: 9 
Note on, D2 key =  38;WhichDrum: T2 ; velocity: 0
@31470 , @1.6593919573643412 Channel: 9 
Note on, D2 key =  38;WhichDrum: T2 ; velocity: 127
@31500 , @1.6609738372093024 Channel: 9 
Note on, D2 key =  38;WhichDrum: T2 ; velocity: 0
@31500 , @1.6609738372093024 Channel: 9 
Note on, F#2 key =  42;WhichDrum: C1 ; velocity: 127
@31555 , @1.6638739502583981 Channel: 9 
Note on, F#2 key =  42;WhichDrum: C1 ; velocity: 0
@31555 , @1.6638739502583981 Channel: 9 
Note on, D2 key =  38;WhichDrum: T2 ; velocity: 75
@31560 , @1.664137596899225 Channel: 9 
Note on, D2 key =  38;WhichDrum: T2 ; velocity: 0
@31560 , @1.664137596899225 Channel: 9 
Note on, D2 key =  38;WhichDrum: T2 ; velocity: 127
@31615 , @1.6670377099483207 Channel: 9 
Note on, D2 key =  38;WhichDrum: T2 ; velocity: 0
@31615 , @1.6670377099483207 Channel: 9 
Note on, D2 key =  38;WhichDrum: T2 ; velocity: 75
@31620 , @1.6673013565891475 Channel: 9 
Note on, D2 key =  38;WhichDrum: T2 ; velocity: 0
@31620 , @1.6673013565891475 Channel: 9 
Note on, D2 key =  38;WhichDrum: T2 ; velocity: 127
@31680 , @1.6704651162790698 Channel: 9 
Note on, D2 key =  38;WhichDrum: T2 ; velocity: 0
@31680 , @1.6704651162790698 Channel: 9 
Note on, A3 key =  57;WhichDrum: T3 ; velocity: 127
@31680 , @1.6704651162790698 Channel: 9 
Note on, C2 key =  36;WhichDrum: B ; velocity: 127
@31740 , @1.6736288759689923 Channel: 9 
Note on, A3 key =  57;WhichDrum: T3 ; velocity: 0
@31740 , @1.6736288759689923 Channel: 9 
Note on, F#2 key =  42;WhichDrum: C1 ; velocity: 127
@31800 , @1.676792635658915 Channel: 9 
Note on, C2 key =  36;WhichDrum: B ; velocity: 0
@31800 , @1.676792635658915 Channel: 9 
Note on, F#2 key =  42;WhichDrum: C1 ; velocity: 0
@31800 , @1.676792635658915 Channel: 9 
Note on, D2 key =  38;WhichDrum: T2 ; velocity: 127
@31800 , @1.676792635658915 Channel: 9 
Note on, F#2 key =  42;WhichDrum: C1 ; velocity: 127
@31860 , @1.6799563953488375 Channel: 9 
Note on, D2 key =  38;WhichDrum: T2 ; velocity: 0
@31860 , @1.6799563953488375 Channel: 9 
Note on, F#2 key =  42;WhichDrum: C1 ; velocity: 0
@31860 , @1.6799563953488375 Channel: 9 
Note on, F#2 key =  42;WhichDrum: C1 ; velocity: 127
@31920 , @1.6831201550387598 Channel: 9 
Note on, F#2 key =  42;WhichDrum: C1 ; velocity: 0
@31920 , @1.6831201550387598 Channel: 9 
Note on, F#2 key =  42;WhichDrum: C1 ; velocity: 127
@31920 , @1.6831201550387598 Channel: 9 
Note on, C2 key =  36;WhichDrum: B ; velocity: 127
@31980 , @1.6862839147286823 Channel: 9 
Note on, F#2 key =  42;WhichDrum: C1 ; velocity: 0
@31980 , @1.6862839147286823 Channel: 9 
Note on, C2 key =  36;WhichDrum: B ; velocity: 0
@31980 , @1.6862839147286823 Channel: 9 
Note on, F#2 key =  42;WhichDrum: C1 ; velocity: 127
@31980 , @1.6862839147286823 Channel: 9 
Note on, C2 key =  36;WhichDrum: B ; velocity: 127
@32000 , @1.6873385012919895 Channel: 9 
Note on, C2 key =  36;WhichDrum: B ; velocity: 0
@32000 , @1.6873385012919895 Channel: 9 
Note on, C2 key =  36;WhichDrum: B ; velocity: 127
@32020 , @1.6883930878552973 Channel: 9 
Note on, C2 key =  36;WhichDrum: B ; velocity: 0
@32020 , @1.6883930878552973 Channel: 9 
Note on, C2 key =  36;WhichDrum: B ; velocity: 127
@32040 , @1.6894476744186049 Channel: 9 
Note on, F#2 key =  42;WhichDrum: C1 ; velocity: 0
@32040 , @1.6894476744186049 Channel: 9 
Note on, C2 key =  36;WhichDrum: B ; velocity: 0
@32040 , @1.6894476744186049 Channel: 9 
Note on, D2 key =  38;WhichDrum: T2 ; velocity: 127
@32040 , @1.6894476744186049 Channel: 9 
Note on, A3 key =  57;WhichDrum: T3 ; velocity: 127
@32160 , @1.6957751937984498 Channel: 9 
Note on, D2 key =  38;WhichDrum: T2 ; velocity: 0
@32160 , @1.6957751937984498 Channel: 9 
Note on, A3 key =  57;WhichDrum: T3 ; velocity: 0
@32160 , @1.6957751937984498 Channel: 9 
Note on, C2 key =  36;WhichDrum: B ; velocity: 127
@32160 , @1.6957751937984498 Channel: 9 
Note on, A3 key =  57;WhichDrum: T3 ; velocity: 127
@32280 , @1.7021027131782949 Channel: 9 
Note on, C2 key =  36;WhichDrum: B ; velocity: 0
@32280 , @1.7021027131782949 Channel: 9 
Note on, A3 key =  57;WhichDrum: T3 ; velocity: 0
@32280 , @1.7021027131782949 Channel: 9 
Note on, D2 key =  38;WhichDrum: T2 ; velocity: 127
@32280 , @1.7021027131782949 Channel: 9 
Note on, F#2 key =  42;WhichDrum: C1 ; velocity: 127
@32340 , @1.7052664728682172 Channel: 9 
Note on, D2 key =  38;WhichDrum: T2 ; velocity: 0
@32340 , @1.7052664728682172 Channel: 9 
Note on, F#2 key =  42;WhichDrum: C1 ; velocity: 0
@32340 , @1.7052664728682172 Channel: 9 
Note on, F#2 key =  42;WhichDrum: C1 ; velocity: 127
@32400 , @1.7084302325581397 Channel: 9 
Note on, F#2 key =  42;WhichDrum: C1 ; velocity: 0
@32400 , @1.7084302325581397 Channel: 9 
Note on, C2 key =  36;WhichDrum: B ; velocity: 127
@32400 , @1.7084302325581397 Channel: 9 
Note on, A3 key =  57;WhichDrum: T3 ; velocity: 127
@32460 , @1.7115939922480623 Channel: 9 
Note on, C2 key =  36;WhichDrum: B ; velocity: 0
@32460 , @1.7115939922480623 Channel: 9 
Note on, A3 key =  57;WhichDrum: T3 ; velocity: 0
@32460 , @1.7115939922480623 Channel: 9 
Note on, C2 key =  36;WhichDrum: B ; velocity: 127
@32460 , @1.7115939922480623 Channel: 9 
Note on, A3 key =  57;WhichDrum: T3 ; velocity: 127
@32520 , @1.7147577519379846 Channel: 9 
Note on, C2 key =  36;WhichDrum: B ; velocity: 0
@32520 , @1.7147577519379846 Channel: 9 
Note on, A3 key =  57;WhichDrum: T3 ; velocity: 0
@32520 , @1.7147577519379846 Channel: 9 
Note on, C2 key =  36;WhichDrum: B ; velocity: 127
@32520 , @1.7147577519379846 Channel: 9 
Note on, A3 key =  57;WhichDrum: T3 ; velocity: 127
@32580 , @1.7179215116279072 Channel: 9 
Note on, C2 key =  36;WhichDrum: B ; velocity: 0
@32580 , @1.7179215116279072 Channel: 9 
Note on, A3 key =  57;WhichDrum: T3 ; velocity: 0
@32580 , @1.7179215116279072 Channel: 9 
Note on, C2 key =  36;WhichDrum: B ; velocity: 127
@32580 , @1.7179215116279072 Channel: 9 
Note on, A3 key =  57;WhichDrum: T3 ; velocity: 127
@32640 , @1.7210852713178297 Channel: 9 
Note on, C2 key =  36;WhichDrum: B ; velocity: 0
@32640 , @1.7210852713178297 Channel: 9 
Note on, A3 key =  57;WhichDrum: T3 ; velocity: 0
@32640 , @1.7210852713178297 Channel: 9 
Note on, A3 key =  57;WhichDrum: T3 ; velocity: 127
@32640 , @1.7210852713178297 Channel: 9 
Note on, C2 key =  36;WhichDrum: B ; velocity: 127
@32700 , @1.724249031007752 Channel: 9 
Note on, A3 key =  57;WhichDrum: T3 ; velocity: 0
@32700 , @1.724249031007752 Channel: 9 
Note on, F#2 key =  42;WhichDrum: C1 ; velocity: 127
@32760 , @1.7274127906976746 Channel: 9 
Note on, C2 key =  36;WhichDrum: B ; velocity: 0
@32760 , @1.7274127906976746 Channel: 9 
Note on, F#2 key =  42;WhichDrum: C1 ; velocity: 0
@32760 , @1.7274127906976746 Channel: 9 
Note on, D2 key =  38;WhichDrum: T2 ; velocity: 127
@32760 , @1.7274127906976746 Channel: 9 
Note on, F#2 key =  42;WhichDrum: C1 ; velocity: 127
@32820 , @1.7305765503875972 Channel: 9 
Note on, D2 key =  38;WhichDrum: T2 ; velocity: 0
@32820 , @1.7305765503875972 Channel: 9 
Note on, F#2 key =  42;WhichDrum: C1 ; velocity: 0
@32820 , @1.7305765503875972 Channel: 9 
Note on, F#2 key =  42;WhichDrum: C1 ; velocity: 127
@32880 , @1.7337403100775197 Channel: 9 
Note on, F#2 key =  42;WhichDrum: C1 ; velocity: 0
@32880 , @1.7337403100775197 Channel: 9 
Note on, F#2 key =  42;WhichDrum: C1 ; velocity: 127
@32880 , @1.7337403100775197 Channel: 9 
Note on, C2 key =  36;WhichDrum: B ; velocity: 127
@32940 , @1.7369040697674418 Channel: 9 
Note on, F#2 key =  42;WhichDrum: C1 ; velocity: 0
@32940 , @1.7369040697674418 Channel: 9 
Note on, F#2 key =  42;WhichDrum: C1 ; velocity: 127
@33000 , @1.7400678294573642 Channel: 9 
Note on, C2 key =  36;WhichDrum: B ; velocity: 0
@33000 , @1.7400678294573642 Channel: 9 
Note on, F#2 key =  42;WhichDrum: C1 ; velocity: 0
@33000 , @1.7400678294573642 Channel: 9 
Note on, D2 key =  38;WhichDrum: T2 ; velocity: 127
@33000 , @1.7400678294573642 Channel: 9 
Note on, F#2 key =  42;WhichDrum: C1 ; velocity: 127
@33060 , @1.7432315891472867 Channel: 9 
Note on, D2 key =  38;WhichDrum: T2 ; velocity: 0
@33060 , @1.7432315891472867 Channel: 9 
Note on, F#2 key =  42;WhichDrum: C1 ; velocity: 0
@33060 , @1.7432315891472867 Channel: 9 
Note on, F#2 key =  42;WhichDrum: C1 ; velocity: 127
@33120 , @1.7463953488372093 Channel: 9 
Note on, F#2 key =  42;WhichDrum: C1 ; velocity: 0
@33120 , @1.7463953488372093 Channel: 9 
Note on, C2 key =  36;WhichDrum: B ; velocity: 127
@33120 , @1.7463953488372093 Channel: 9 
Note on, F#2 key =  42;WhichDrum: C1 ; velocity: 127
@33180 , @1.7495591085271316 Channel: 9 
Note on, C2 key =  36;WhichDrum: B ; velocity: 0
@33180 , @1.7495591085271316 Channel: 9 
Note on, F#2 key =  42;WhichDrum: C1 ; velocity: 0
@33180 , @1.7495591085271316 Channel: 9 
Note on, C2 key =  36;WhichDrum: B ; velocity: 127
@33180 , @1.7495591085271316 Channel: 9 
Note on, F#2 key =  42;WhichDrum: C1 ; velocity: 127
@33200 , @1.7506136950904394 Channel: 9 
Note on, C2 key =  36;WhichDrum: B ; velocity: 0
@33200 , @1.7506136950904394 Channel: 9 
Note on, C2 key =  36;WhichDrum: B ; velocity: 127
@33220 , @1.751668281653747 Channel: 9 
Note on, C2 key =  36;WhichDrum: B ; velocity: 0
@33220 , @1.751668281653747 Channel: 9 
Note on, C2 key =  36;WhichDrum: B ; velocity: 127
@33240 , @1.7527228682170541 Channel: 9 
Note on, F#2 key =  42;WhichDrum: C1 ; velocity: 0
@33240 , @1.7527228682170541 Channel: 9 
Note on, C2 key =  36;WhichDrum: B ; velocity: 0
@33240 , @1.7527228682170541 Channel: 9 
Note on, D2 key =  38;WhichDrum: T2 ; velocity: 127
@33240 , @1.7527228682170541 Channel: 9 
Note on, F#2 key =  42;WhichDrum: C1 ; velocity: 127
@33300 , @1.7558866279069767 Channel: 9 
Note on, D2 key =  38;WhichDrum: T2 ; velocity: 0
@33300 , @1.7558866279069767 Channel: 9 
Note on, F#2 key =  42;WhichDrum: C1 ; velocity: 0
@33300 , @1.7558866279069767 Channel: 9 
Note on, C2 key =  36;WhichDrum: B ; velocity: 127
@33300 , @1.7558866279069767 Channel: 9 
Note on, F#2 key =  42;WhichDrum: C1 ; velocity: 127
@33320 , @1.7569412144702843 Channel: 9 
Note on, C2 key =  36;WhichDrum: B ; velocity: 0
@33320 , @1.7569412144702843 Channel: 9 
Note on, C2 key =  36;WhichDrum: B ; velocity: 127
@33340 , @1.7579958010335919 Channel: 9 
Note on, C2 key =  36;WhichDrum: B ; velocity: 0
@33340 , @1.7579958010335919 Channel: 9 
Note on, C2 key =  36;WhichDrum: B ; velocity: 127
@33360 , @1.7590503875968992 Channel: 9 
Note on, F#2 key =  42;WhichDrum: C1 ; velocity: 0
@33360 , @1.7590503875968992 Channel: 9 
Note on, C2 key =  36;WhichDrum: B ; velocity: 0
@33360 , @1.7590503875968992 Channel: 9 
Note on, D2 key =  38;WhichDrum: T2 ; velocity: 127
@33360 , @1.7590503875968992 Channel: 9 
Note on, F#2 key =  42;WhichDrum: C1 ; velocity: 127
@33420 , @1.7622141472868216 Channel: 9 
Note on, D2 key =  38;WhichDrum: T2 ; velocity: 0
@33420 , @1.7622141472868216 Channel: 9 
Note on, F#2 key =  42;WhichDrum: C1 ; velocity: 0
@33420 , @1.7622141472868216 Channel: 9 
Note on, C2 key =  36;WhichDrum: B ; velocity: 127
@33420 , @1.7622141472868216 Channel: 9 
Note on, F#2 key =  42;WhichDrum: C1 ; velocity: 127
@33440 , @1.7632687338501292 Channel: 9 
Note on, C2 key =  36;WhichDrum: B ; velocity: 0
@33440 , @1.7632687338501292 Channel: 9 
Note on, C2 key =  36;WhichDrum: B ; velocity: 127
@33460 , @1.764323320413437 Channel: 9 
Note on, C2 key =  36;WhichDrum: B ; velocity: 0
@33460 , @1.764323320413437 Channel: 9 
Note on, C2 key =  36;WhichDrum: B ; velocity: 127
@33480 , @1.7653779069767441 Channel: 9 
Note on, F#2 key =  42;WhichDrum: C1 ; velocity: 0
@33480 , @1.7653779069767441 Channel: 9 
Note on, C2 key =  36;WhichDrum: B ; velocity: 0
@33480 , @1.7653779069767441 Channel: 9 
Note on, D2 key =  38;WhichDrum: T2 ; velocity: 127
@33480 , @1.7653779069767441 Channel: 9 
Note on, F#2 key =  42;WhichDrum: C1 ; velocity: 127
@33540 , @1.7685416666666667 Channel: 9 
Note on, D2 key =  38;WhichDrum: T2 ; velocity: 0
@33540 , @1.7685416666666667 Channel: 9 
Note on, F#2 key =  42;WhichDrum: C1 ; velocity: 0
@33540 , @1.7685416666666667 Channel: 9 
Note on, A3 key =  57;WhichDrum: T3 ; velocity: 127
@33540 , @1.7685416666666667 Channel: 9 
Note on, C2 key =  36;WhichDrum: B ; velocity: 127
@33600 , @1.771705426356589 Channel: 9 
Note on, A3 key =  57;WhichDrum: T3 ; velocity: 0
@33600 , @1.771705426356589 Channel: 9 
Note on, C2 key =  36;WhichDrum: B ; velocity: 0
@33600 , @1.771705426356589 Channel: 9 
Note on, A3 key =  57;WhichDrum: T3 ; velocity: 127
@33600 , @1.771705426356589 Channel: 9 
Note on, C2 key =  36;WhichDrum: B ; velocity: 127
@33660 , @1.7748691860465116 Channel: 9 
Note on, A3 key =  57;WhichDrum: T3 ; velocity: 0
@33660 , @1.7748691860465116 Channel: 9 
Note on, F#2 key =  42;WhichDrum: C1 ; velocity: 127
@33720 , @1.7780329457364341 Channel: 9 
Note on, C2 key =  36;WhichDrum: B ; velocity: 0
@33720 , @1.7780329457364341 Channel: 9 
Note on, F#2 key =  42;WhichDrum: C1 ; velocity: 0
@33720 , @1.7780329457364341 Channel: 9 
Note on, D2 key =  38;WhichDrum: T2 ; velocity: 127
@33720 , @1.7780329457364341 Channel: 9 
Note on, F#2 key =  42;WhichDrum: C1 ; velocity: 127
@33780 , @1.7811967054263567 Channel: 9 
Note on, D2 key =  38;WhichDrum: T2 ; velocity: 0
@33780 , @1.7811967054263567 Channel: 9 
Note on, F#2 key =  42;WhichDrum: C1 ; velocity: 0
@33780 , @1.7811967054263567 Channel: 9 
Note on, F#2 key =  42;WhichDrum: C1 ; velocity: 127
@33840 , @1.784360465116279 Channel: 9 
Note on, F#2 key =  42;WhichDrum: C1 ; velocity: 0
@33840 , @1.784360465116279 Channel: 9 
Note on, F#2 key =  42;WhichDrum: C1 ; velocity: 127
@33840 , @1.784360465116279 Channel: 9 
Note on, C2 key =  36;WhichDrum: B ; velocity: 127
@33900 , @1.7875242248062015 Channel: 9 
Note on, F#2 key =  42;WhichDrum: C1 ; velocity: 0
@33900 , @1.7875242248062015 Channel: 9 
Note on, C2 key =  36;WhichDrum: B ; velocity: 0
@33900 , @1.7875242248062015 Channel: 9 
Note on, F#2 key =  42;WhichDrum: C1 ; velocity: 127
@33900 , @1.7875242248062015 Channel: 9 
Note on, C2 key =  36;WhichDrum: B ; velocity: 127
@33920 , @1.7885788113695091 Channel: 9 
Note on, C2 key =  36;WhichDrum: B ; velocity: 0
@33920 , @1.7885788113695091 Channel: 9 
Note on, C2 key =  36;WhichDrum: B ; velocity: 127
@33940 , @1.7896333979328167 Channel: 9 
Note on, C2 key =  36;WhichDrum: B ; velocity: 0
@33940 , @1.7896333979328167 Channel: 9 
Note on, C2 key =  36;WhichDrum: B ; velocity: 127
@33960 , @1.790687984496124 Channel: 9 
Note on, F#2 key =  42;WhichDrum: C1 ; velocity: 0
@33960 , @1.790687984496124 Channel: 9 
Note on, C2 key =  36;WhichDrum: B ; velocity: 0
@33960 , @1.790687984496124 Channel: 9 
Note on, D2 key =  38;WhichDrum: T2 ; velocity: 127
@33960 , @1.790687984496124 Channel: 9 
Note on, A3 key =  57;WhichDrum: T3 ; velocity: 127
@34080 , @1.797015503875969 Channel: 9 
Note on, D2 key =  38;WhichDrum: T2 ; velocity: 0
@34080 , @1.797015503875969 Channel: 9 
Note on, A3 key =  57;WhichDrum: T3 ; velocity: 0
@34080 , @1.797015503875969 Channel: 9 
Note on, C2 key =  36;WhichDrum: B ; velocity: 127
@34080 , @1.797015503875969 Channel: 9 
Note on, A3 key =  57;WhichDrum: T3 ; velocity: 127
@34140 , @1.8001792635658915 Channel: 9 
Note on, A3 key =  57;WhichDrum: T3 ; velocity: 0
@34140 , @1.8001792635658915 Channel: 9 
Note on, F#2 key =  42;WhichDrum: C1 ; velocity: 127
@34200 , @1.8033430232558139 Channel: 9 
Note on, C2 key =  36;WhichDrum: B ; velocity: 0
@34200 , @1.8033430232558139 Channel: 9 
Note on, F#2 key =  42;WhichDrum: C1 ; velocity: 0
@34200 , @1.8033430232558139 Channel: 9 
Note on, D2 key =  38;WhichDrum: T2 ; velocity: 127
@34200 , @1.8033430232558139 Channel: 9 
Note on, F#2 key =  42;WhichDrum: C1 ; velocity: 127
@34260 , @1.8065067829457364 Channel: 9 
Note on, D2 key =  38;WhichDrum: T2 ; velocity: 0
@34260 , @1.8065067829457364 Channel: 9 
Note on, F#2 key =  42;WhichDrum: C1 ; velocity: 0
@34260 , @1.8065067829457364 Channel: 9 
Note on, F#2 key =  42;WhichDrum: C1 ; velocity: 127
@34315 , @1.8094068959948322 Channel: 9 
Note on, F#2 key =  42;WhichDrum: C1 ; velocity: 0
@34315 , @1.8094068959948322 Channel: 9 
Note on, D2 key =  38;WhichDrum: T2 ; velocity: 75
@34320 , @1.809670542635659 Channel: 9 
Note on, D2 key =  38;WhichDrum: T2 ; velocity: 127
@34380 , @1.8128343023255815 Channel: 9 
Note on, D2 key =  38;WhichDrum: T2 ; velocity: 0
@34380 , @1.8128343023255815 Channel: 9 
Note on, D2 key =  38;WhichDrum: T2 ; velocity: 0
@34380 , @1.8128343023255815 Channel: 9 
Note on, D2 key =  38;WhichDrum: T2 ; velocity: 127
@34440 , @1.8159980620155038 Channel: 9 
Note on, D2 key =  38;WhichDrum: T2 ; velocity: 0
@34440 , @1.8159980620155038 Channel: 9 
Note on, A2 key =  45;WhichDrum: T3 ; velocity: 127
@34470 , @1.8175799418604652 Channel: 9 
Note on, A2 key =  45;WhichDrum: T3 ; velocity: 0
@34470 , @1.8175799418604652 Channel: 9 
Note on, A2 key =  45;WhichDrum: T3 ; velocity: 127
@34500 , @1.8191618217054264 Channel: 9 
Note on, A2 key =  45;WhichDrum: T3 ; velocity: 0
@34500 , @1.8191618217054264 Channel: 9 
Note on, A2 key =  45;WhichDrum: T3 ; velocity: 127
@34560 , @1.822325581395349 Channel: 9 
Note on, A2 key =  45;WhichDrum: T3 ; velocity: 0
@34560 , @1.822325581395349 Channel: 9 
Note on, A3 key =  57;WhichDrum: T3 ; velocity: 127
@34560 , @1.822325581395349 Channel: 9 
Note on, C2 key =  36;WhichDrum: B ; velocity: 127
@34620 , @1.8254893410852713 Channel: 9 
Note on, A3 key =  57;WhichDrum: T3 ; velocity: 0
@34620 , @1.8254893410852713 Channel: 9 
Note on, F#2 key =  42;WhichDrum: C1 ; velocity: 127
@34680 , @1.8286531007751938 Channel: 9 
Note on, C2 key =  36;WhichDrum: B ; velocity: 0
@34680 , @1.8286531007751938 Channel: 9 
Note on, F#2 key =  42;WhichDrum: C1 ; velocity: 0
@34680 , @1.8286531007751938 Channel: 9 
Note on, D2 key =  38;WhichDrum: T2 ; velocity: 127
@34680 , @1.8286531007751938 Channel: 9 
Note on, F#2 key =  42;WhichDrum: C1 ; velocity: 127
@34740 , @1.8318168604651164 Channel: 9 
Note on, D2 key =  38;WhichDrum: T2 ; velocity: 0
@34740 , @1.8318168604651164 Channel: 9 
Note on, F#2 key =  42;WhichDrum: C1 ; velocity: 0
@34740 , @1.8318168604651164 Channel: 9 
Note on, F#2 key =  42;WhichDrum: C1 ; velocity: 127
@34800 , @1.834980620155039 Channel: 9 
Note on, F#2 key =  42;WhichDrum: C1 ; velocity: 0
@34800 , @1.834980620155039 Channel: 9 
Note on, C2 key =  36;WhichDrum: B ; velocity: 127
@34800 , @1.834980620155039 Channel: 9 
Note on, F#2 key =  42;WhichDrum: C1 ; velocity: 127
@34860 , @1.8381443798449613 Channel: 9 
Note on, C2 key =  36;WhichDrum: B ; velocity: 0
@34860 , @1.8381443798449613 Channel: 9 
Note on, F#2 key =  42;WhichDrum: C1 ; velocity: 0
@34860 , @1.8381443798449613 Channel: 9 
Note on, C2 key =  36;WhichDrum: B ; velocity: 127
@34860 , @1.8381443798449613 Channel: 9 
Note on, F#2 key =  42;WhichDrum: C1 ; velocity: 127
@34880 , @1.8391989664082689 Channel: 9 
Note on, C2 key =  36;WhichDrum: B ; velocity: 0
@34880 , @1.8391989664082689 Channel: 9 
Note on, C2 key =  36;WhichDrum: B ; velocity: 127
@34900 , @1.8402535529715762 Channel: 9 
Note on, C2 key =  36;WhichDrum: B ; velocity: 0
@34900 , @1.8402535529715762 Channel: 9 
Note on, C2 key =  36;WhichDrum: B ; velocity: 127
@34920 , @1.8413081395348838 Channel: 9 
Note on, F#2 key =  42;WhichDrum: C1 ; velocity: 0
@34920 , @1.8413081395348838 Channel: 9 
Note on, C2 key =  36;WhichDrum: B ; velocity: 0
@34920 , @1.8413081395348838 Channel: 9 
Note on, D2 key =  38;WhichDrum: T2 ; velocity: 127
@34920 , @1.8413081395348838 Channel: 9 
Note on, F#2 key =  42;WhichDrum: C1 ; velocity: 127
@34980 , @1.8444718992248064 Channel: 9 
Note on, D2 key =  38;WhichDrum: T2 ; velocity: 0
@34980 , @1.8444718992248064 Channel: 9 
Note on, F#2 key =  42;WhichDrum: C1 ; velocity: 0
@34980 , @1.8444718992248064 Channel: 9 
Note on, C2 key =  36;WhichDrum: B ; velocity: 127
@34980 , @1.8444718992248064 Channel: 9 
Note on, F#2 key =  42;WhichDrum: C1 ; velocity: 127
@35040 , @1.8476356589147287 Channel: 9 
Note on, C2 key =  36;WhichDrum: B ; velocity: 0
@35040 , @1.8476356589147287 Channel: 9 
Note on, F#2 key =  42;WhichDrum: C1 ; velocity: 0
@35040 , @1.8476356589147287 Channel: 9 
Note on, F#2 key =  42;WhichDrum: C1 ; velocity: 127
@35040 , @1.8476356589147287 Channel: 9 
Note on, C2 key =  36;WhichDrum: B ; velocity: 127
@35100 , @1.8507994186046512 Channel: 9 
Note on, F#2 key =  42;WhichDrum: C1 ; velocity: 0
@35100 , @1.8507994186046512 Channel: 9 
Note on, F#2 key =  42;WhichDrum: C1 ; velocity: 127
@35160 , @1.8539631782945738 Channel: 9 
Note on, C2 key =  36;WhichDrum: B ; velocity: 0
@35160 , @1.8539631782945738 Channel: 9 
Note on, F#2 key =  42;WhichDrum: C1 ; velocity: 0
@35160 , @1.8539631782945738 Channel: 9 
Note on, D2 key =  38;WhichDrum: T2 ; velocity: 127
@35160 , @1.8539631782945738 Channel: 9 
Note on, F#2 key =  42;WhichDrum: C1 ; velocity: 127
@35220 , @1.8571269379844961 Channel: 9 
Note on, D2 key =  38;WhichDrum: T2 ; velocity: 0
@35220 , @1.8571269379844961 Channel: 9 
Note on, F#2 key =  42;WhichDrum: C1 ; velocity: 0
@35220 , @1.8571269379844961 Channel: 9 
Note on, F#2 key =  42;WhichDrum: C1 ; velocity: 127
@35280 , @1.8602906976744187 Channel: 9 
Note on, F#2 key =  42;WhichDrum: C1 ; velocity: 0
@35280 , @1.8602906976744187 Channel: 9 
Note on, C2 key =  36;WhichDrum: B ; velocity: 127
@35280 , @1.8602906976744187 Channel: 9 
Note on, F#2 key =  42;WhichDrum: C1 ; velocity: 127
@35340 , @1.8634544573643412 Channel: 9 
Note on, C2 key =  36;WhichDrum: B ; velocity: 0
@35340 , @1.8634544573643412 Channel: 9 
Note on, F#2 key =  42;WhichDrum: C1 ; velocity: 0
@35340 , @1.8634544573643412 Channel: 9 
Note on, C2 key =  36;WhichDrum: B ; velocity: 127
@35340 , @1.8634544573643412 Channel: 9 
Note on, F#2 key =  42;WhichDrum: C1 ; velocity: 127
@35360 , @1.8645090439276488 Channel: 9 
Note on, C2 key =  36;WhichDrum: B ; velocity: 0
@35360 , @1.8645090439276488 Channel: 9 
Note on, C2 key =  36;WhichDrum: B ; velocity: 127
@35380 , @1.865563630490956 Channel: 9 
Note on, C2 key =  36;WhichDrum: B ; velocity: 0
@35380 , @1.865563630490956 Channel: 9 
Note on, C2 key =  36;WhichDrum: B ; velocity: 127
@35400 , @1.8666182170542638 Channel: 9 
Note on, F#2 key =  42;WhichDrum: C1 ; velocity: 0
@35400 , @1.8666182170542638 Channel: 9 
Note on, C2 key =  36;WhichDrum: B ; velocity: 0
@35400 , @1.8666182170542638 Channel: 9 
Note on, D2 key =  38;WhichDrum: T2 ; velocity: 127
@35400 , @1.8666182170542638 Channel: 9 
Note on, F#2 key =  42;WhichDrum: C1 ; velocity: 127
@35460 , @1.8697819767441861 Channel: 9 
Note on, D2 key =  38;WhichDrum: T2 ; velocity: 0
@35460 , @1.8697819767441861 Channel: 9 
Note on, F#2 key =  42;WhichDrum: C1 ; velocity: 0
@35460 , @1.8697819767441861 Channel: 9 
Note on, C2 key =  36;WhichDrum: B ; velocity: 127
@35460 , @1.8697819767441861 Channel: 9 
Note on, F#2 key =  42;WhichDrum: C1 ; velocity: 127
@35520 , @1.8729457364341087 Channel: 9 
Note on, C2 key =  36;WhichDrum: B ; velocity: 0
@35520 , @1.8729457364341087 Channel: 9 
Note on, F#2 key =  42;WhichDrum: C1 ; velocity: 0
@35520 , @1.8729457364341087 Channel: 9 
Note on, F#2 key =  42;WhichDrum: C1 ; velocity: 127
@35520 , @1.8729457364341087 Channel: 9 
Note on, C2 key =  36;WhichDrum: B ; velocity: 127
@35580 , @1.8761094961240312 Channel: 9 
Note on, F#2 key =  42;WhichDrum: C1 ; velocity: 0
@35580 , @1.8761094961240312 Channel: 9 
Note on, F#2 key =  42;WhichDrum: C1 ; velocity: 127
@35640 , @1.8792732558139535 Channel: 9 
Note on, C2 key =  36;WhichDrum: B ; velocity: 0
@35640 , @1.8792732558139535 Channel: 9 
Note on, F#2 key =  42;WhichDrum: C1 ; velocity: 0
@35640 , @1.8792732558139535 Channel: 9 
Note on, D2 key =  38;WhichDrum: T2 ; velocity: 127
@35640 , @1.8792732558139535 Channel: 9 
Note on, F#2 key =  42;WhichDrum: C1 ; velocity: 127
@35700 , @1.882437015503876 Channel: 9 
Note on, D2 key =  38;WhichDrum: T2 ; velocity: 0
@35700 , @1.882437015503876 Channel: 9 
Note on, F#2 key =  42;WhichDrum: C1 ; velocity: 0
@35700 , @1.882437015503876 Channel: 9 
Note on, F#2 key =  42;WhichDrum: C1 ; velocity: 127
@35760 , @1.8856007751937987 Channel: 9 
Note on, F#2 key =  42;WhichDrum: C1 ; velocity: 0
@35760 , @1.8856007751937987 Channel: 9 
Note on, C2 key =  36;WhichDrum: B ; velocity: 127
@35760 , @1.8856007751937987 Channel: 9 
Note on, F#2 key =  42;WhichDrum: C1 ; velocity: 127
@35820 , @1.8887645348837212 Channel: 9 
Note on, C2 key =  36;WhichDrum: B ; velocity: 0
@35820 , @1.8887645348837212 Channel: 9 
Note on, F#2 key =  42;WhichDrum: C1 ; velocity: 0
@35820 , @1.8887645348837212 Channel: 9 
Note on, C2 key =  36;WhichDrum: B ; velocity: 127
@35820 , @1.8887645348837212 Channel: 9 
Note on, F#2 key =  42;WhichDrum: C1 ; velocity: 127
@35840 , @1.8898191214470283 Channel: 9 
Note on, C2 key =  36;WhichDrum: B ; velocity: 0
@35840 , @1.8898191214470283 Channel: 9 
Note on, C2 key =  36;WhichDrum: B ; velocity: 127
@35860 , @1.890873708010336 Channel: 9 
Note on, C2 key =  36;WhichDrum: B ; velocity: 0
@35860 , @1.890873708010336 Channel: 9 
Note on, C2 key =  36;WhichDrum: B ; velocity: 127
@35880 , @1.8919282945736435 Channel: 9 
Note on, F#2 key =  42;WhichDrum: C1 ; velocity: 0
@35880 , @1.8919282945736435 Channel: 9 
Note on, C2 key =  36;WhichDrum: B ; velocity: 0
@35880 , @1.8919282945736435 Channel: 9 
Note on, D2 key =  38;WhichDrum: T2 ; velocity: 127
@35880 , @1.8919282945736435 Channel: 9 
Note on, F#2 key =  42;WhichDrum: C1 ; velocity: 127
@35940 , @1.895092054263566 Channel: 9 
Note on, D2 key =  38;WhichDrum: T2 ; velocity: 0
@35940 , @1.895092054263566 Channel: 9 
Note on, F#2 key =  42;WhichDrum: C1 ; velocity: 0
@35940 , @1.895092054263566 Channel: 9 
Note on, F#2 key =  42;WhichDrum: C1 ; velocity: 127
@35995 , @1.8979921673126618 Channel: 9 
Note on, F#2 key =  42;WhichDrum: C1 ; velocity: 0
@35995 , @1.8979921673126618 Channel: 9 
Note on, D2 key =  38;WhichDrum: T2 ; velocity: 75
@36000 , @1.8982558139534886 Channel: 9 
Note on, D2 key =  38;WhichDrum: T2 ; velocity: 0
@36000 , @1.8982558139534886 Channel: 9 
Note on, D2 key =  38;WhichDrum: T2 ; velocity: 127
@36055 , @1.9011559270025842 Channel: 9 
Note on, D2 key =  38;WhichDrum: T2 ; velocity: 0
@36055 , @1.9011559270025842 Channel: 9 
Note on, D2 key =  38;WhichDrum: T2 ; velocity: 75
@36060 , @1.901419573643411 Channel: 9 
Note on, D2 key =  38;WhichDrum: T2 ; velocity: 0
@36060 , @1.901419573643411 Channel: 9 
Note on, D2 key =  38;WhichDrum: T2 ; velocity: 127
@36115 , @1.9043196866925067 Channel: 9 
Note on, D2 key =  38;WhichDrum: T2 ; velocity: 0
@36115 , @1.9043196866925067 Channel: 9 
Note on, A2 key =  45;WhichDrum: T3 ; velocity: 75
@36120 , @1.9045833333333335 Channel: 9 
Note on, A2 key =  45;WhichDrum: T3 ; velocity: 0
@36120 , @1.9045833333333335 Channel: 9 
Note on, A2 key =  45;WhichDrum: T3 ; velocity: 127
@36175 , @1.9074834463824288 Channel: 9 
Note on, A2 key =  45;WhichDrum: T3 ; velocity: 0
@36175 , @1.9074834463824288 Channel: 9 
Note on, A2 key =  45;WhichDrum: T3 ; velocity: 75
@36180 , @1.907747093023256 Channel: 9 
Note on, A2 key =  45;WhichDrum: T3 ; velocity: 0
@36180 , @1.907747093023256 Channel: 9 
Note on, A2 key =  45;WhichDrum: T3 ; velocity: 127
@36240 , @1.9109108527131784 Channel: 9 
Note on, A2 key =  45;WhichDrum: T3 ; velocity: 0
@36240 , @1.9109108527131784 Channel: 9 
Note on, C3 key =  48;WhichDrum: B ; velocity: 127
@36240 , @1.9109108527131784 Channel: 9 
Note on, B2 key =  47;WhichDrum: T1 ; velocity: 127
@36300 , @1.914074612403101 Channel: 9 
Note on, C3 key =  48;WhichDrum: B ; velocity: 0
@36300 , @1.914074612403101 Channel: 9 
Note on, B2 key =  47;WhichDrum: T1 ; velocity: 0
@36300 , @1.914074612403101 Channel: 9 
Note on, C3 key =  48;WhichDrum: B ; velocity: 127
@36300 , @1.914074612403101 Channel: 9 
Note on, B2 key =  47;WhichDrum: T1 ; velocity: 127
@36355 , @1.9169747254521963 Channel: 9 
Note on, C3 key =  48;WhichDrum: B ; velocity: 0
@36355 , @1.9169747254521963 Channel: 9 
Note on, B2 key =  47;WhichDrum: T1 ; velocity: 0
@36355 , @1.9169747254521963 Channel: 9 
Note on, D3 key =  50;WhichDrum: T2 ; velocity: 75
@36360 , @1.9172383720930235 Channel: 9 
Note on, D3 key =  50;WhichDrum: T2 ; velocity: 0
@36360 , @1.9172383720930235 Channel: 9 
Note on, D3 key =  50;WhichDrum: T2 ; velocity: 127
@36415 , @1.9201384851421188 Channel: 9 
Note on, D3 key =  50;WhichDrum: T2 ; velocity: 0
@36415 , @1.9201384851421188 Channel: 9 
Note on, D3 key =  50;WhichDrum: T2 ; velocity: 75
@36420 , @1.920402131782946 Channel: 9 
Note on, D3 key =  50;WhichDrum: T2 ; velocity: 0
@36420 , @1.920402131782946 Channel: 9 
Note on, D3 key =  50;WhichDrum: T2 ; velocity: 127
@36480 , @1.9235658914728684 Channel: 9 
Note on, D3 key =  50;WhichDrum: T2 ; velocity: 0
@36480 , @1.9235658914728684 Channel: 9 
Note on, A3 key =  57;WhichDrum: T3 ; velocity: 127
@36480 , @1.9235658914728684 Channel: 9 
Note on, C2 key =  36;WhichDrum: B ; velocity: 127
@36540 , @1.926729651162791 Channel: 9 
Note on, A3 key =  57;WhichDrum: T3 ; velocity: 0
@36540 , @1.926729651162791 Channel: 9 
Note on, F#2 key =  42;WhichDrum: C1 ; velocity: 127
@36600 , @1.9298934108527135 Channel: 9 
Note on, C2 key =  36;WhichDrum: B ; velocity: 0
@36600 , @1.9298934108527135 Channel: 9 
Note on, F#2 key =  42;WhichDrum: C1 ; velocity: 0
@36600 , @1.9298934108527135 Channel: 9 
Note on, D2 key =  38;WhichDrum: T2 ; velocity: 127
@36600 , @1.9298934108527135 Channel: 9 
Note on, F#2 key =  42;WhichDrum: C1 ; velocity: 127
@36660 , @1.9330571705426358 Channel: 9 
Note on, D2 key =  38;WhichDrum: T2 ; velocity: 0
@36660 , @1.9330571705426358 Channel: 9 
Note on, F#2 key =  42;WhichDrum: C1 ; velocity: 0
@36660 , @1.9330571705426358 Channel: 9 
Note on, F#2 key =  42;WhichDrum: C1 ; velocity: 127
@36720 , @1.9362209302325584 Channel: 9 
Note on, F#2 key =  42;WhichDrum: C1 ; velocity: 0
@36720 , @1.9362209302325584 Channel: 9 
Note on, C2 key =  36;WhichDrum: B ; velocity: 127
@36720 , @1.9362209302325584 Channel: 9 
Note on, F#2 key =  42;WhichDrum: C1 ; velocity: 127
@36780 , @1.9393846899224805 Channel: 9 
Note on, C2 key =  36;WhichDrum: B ; velocity: 0
@36780 , @1.9393846899224805 Channel: 9 
Note on, F#2 key =  42;WhichDrum: C1 ; velocity: 0
@36780 , @1.9393846899224805 Channel: 9 
Note on, C2 key =  36;WhichDrum: B ; velocity: 127
@36780 , @1.9393846899224805 Channel: 9 
Note on, F#2 key =  42;WhichDrum: C1 ; velocity: 127
@36800 , @1.940439276485788 Channel: 9 
Note on, C2 key =  36;WhichDrum: B ; velocity: 0
@36800 , @1.940439276485788 Channel: 9 
Note on, C2 key =  36;WhichDrum: B ; velocity: 127
@36820 , @1.9414938630490957 Channel: 9 
Note on, C2 key =  36;WhichDrum: B ; velocity: 0
@36820 , @1.9414938630490957 Channel: 9 
Note on, C2 key =  36;WhichDrum: B ; velocity: 127
@36840 , @1.942548449612403 Channel: 9 
Note on, F#2 key =  42;WhichDrum: C1 ; velocity: 0
@36840 , @1.942548449612403 Channel: 9 
Note on, C2 key =  36;WhichDrum: B ; velocity: 0
@36840 , @1.942548449612403 Channel: 9 
Note on, D2 key =  38;WhichDrum: T2 ; velocity: 127
@36840 , @1.942548449612403 Channel: 9 
Note on, F#2 key =  42;WhichDrum: C1 ; velocity: 127
@36900 , @1.9457122093023256 Channel: 9 
Note on, D2 key =  38;WhichDrum: T2 ; velocity: 0
@36900 , @1.9457122093023256 Channel: 9 
Note on, F#2 key =  42;WhichDrum: C1 ; velocity: 0
@36900 , @1.9457122093023256 Channel: 9 
Note on, C2 key =  36;WhichDrum: B ; velocity: 127
@36900 , @1.9457122093023256 Channel: 9 
Note on, F#2 key =  42;WhichDrum: C1 ; velocity: 127
@36960 , @1.948875968992248 Channel: 9 
Note on, C2 key =  36;WhichDrum: B ; velocity: 0
@36960 , @1.948875968992248 Channel: 9 
Note on, F#2 key =  42;WhichDrum: C1 ; velocity: 0
@36960 , @1.948875968992248 Channel: 9 
Note on, F#2 key =  42;WhichDrum: C1 ; velocity: 127
@36960 , @1.948875968992248 Channel: 9 
Note on, C2 key =  36;WhichDrum: B ; velocity: 127
@37020 , @1.9520397286821705 Channel: 9 
Note on, F#2 key =  42;WhichDrum: C1 ; velocity: 0
@37020 , @1.9520397286821705 Channel: 9 
Note on, F#2 key =  42;WhichDrum: C1 ; velocity: 127
@37080 , @1.955203488372093 Channel: 9 
Note on, C2 key =  36;WhichDrum: B ; velocity: 0
@37080 , @1.955203488372093 Channel: 9 
Note on, F#2 key =  42;WhichDrum: C1 ; velocity: 0
@37080 , @1.955203488372093 Channel: 9 
Note on, D2 key =  38;WhichDrum: T2 ; velocity: 127
@37080 , @1.955203488372093 Channel: 9 
Note on, F#2 key =  42;WhichDrum: C1 ; velocity: 127
@37140 , @1.9583672480620153 Channel: 9 
Note on, D2 key =  38;WhichDrum: T2 ; velocity: 0
@37140 , @1.9583672480620153 Channel: 9 
Note on, F#2 key =  42;WhichDrum: C1 ; velocity: 0
@37140 , @1.9583672480620153 Channel: 9 
Note on, F#2 key =  42;WhichDrum: C1 ; velocity: 127
@37200 , @1.961531007751938 Channel: 9 
Note on, F#2 key =  42;WhichDrum: C1 ; velocity: 0
@37200 , @1.961531007751938 Channel: 9 
Note on, C2 key =  36;WhichDrum: B ; velocity: 127
@37200 , @1.961531007751938 Channel: 9 
Note on, F#2 key =  42;WhichDrum: C1 ; velocity: 127
@37260 , @1.9646947674418604 Channel: 9 
Note on, C2 key =  36;WhichDrum: B ; velocity: 0
@37260 , @1.9646947674418604 Channel: 9 
Note on, F#2 key =  42;WhichDrum: C1 ; velocity: 0
@37260 , @1.9646947674418604 Channel: 9 
Note on, C2 key =  36;WhichDrum: B ; velocity: 127
@37260 , @1.9646947674418604 Channel: 9 
Note on, F#2 key =  42;WhichDrum: C1 ; velocity: 127
@37280 , @1.965749354005168 Channel: 9 
Note on, C2 key =  36;WhichDrum: B ; velocity: 0
@37280 , @1.965749354005168 Channel: 9 
Note on, C2 key =  36;WhichDrum: B ; velocity: 127
@37300 , @1.9668039405684756 Channel: 9 
Note on, C2 key =  36;WhichDrum: B ; velocity: 0
@37300 , @1.9668039405684756 Channel: 9 
Note on, C2 key =  36;WhichDrum: B ; velocity: 127
@37320 , @1.967858527131783 Channel: 9 
Note on, F#2 key =  42;WhichDrum: C1 ; velocity: 0
@37320 , @1.967858527131783 Channel: 9 
Note on, C2 key =  36;WhichDrum: B ; velocity: 0
@37320 , @1.967858527131783 Channel: 9 
Note on, D2 key =  38;WhichDrum: T2 ; velocity: 127
@37320 , @1.967858527131783 Channel: 9 
Note on, F#2 key =  42;WhichDrum: C1 ; velocity: 127
@37380 , @1.9710222868217053 Channel: 9 
Note on, D2 key =  38;WhichDrum: T2 ; velocity: 0
@37380 , @1.9710222868217053 Channel: 9 
Note on, F#2 key =  42;WhichDrum: C1 ; velocity: 0
@37380 , @1.9710222868217053 Channel: 9 
Note on, C2 key =  36;WhichDrum: B ; velocity: 127
@37380 , @1.9710222868217053 Channel: 9 
Note on, F#2 key =  42;WhichDrum: C1 ; velocity: 127
@37440 , @1.9741860465116279 Channel: 9 
Note on, C2 key =  36;WhichDrum: B ; velocity: 0
@37440 , @1.9741860465116279 Channel: 9 
Note on, F#2 key =  42;WhichDrum: C1 ; velocity: 0
@37440 , @1.9741860465116279 Channel: 9 
Note on, F#2 key =  42;WhichDrum: C1 ; velocity: 127
@37440 , @1.9741860465116279 Channel: 9 
Note on, C2 key =  36;WhichDrum: B ; velocity: 127
@37500 , @1.9773498062015504 Channel: 9 
Note on, F#2 key =  42;WhichDrum: C1 ; velocity: 0
@37500 , @1.9773498062015504 Channel: 9 
Note on, F#2 key =  42;WhichDrum: C1 ; velocity: 127
@37560 , @1.9805135658914728 Channel: 9 
Note on, C2 key =  36;WhichDrum: B ; velocity: 0
@37560 , @1.9805135658914728 Channel: 9 
Note on, F#2 key =  42;WhichDrum: C1 ; velocity: 0
@37560 , @1.9805135658914728 Channel: 9 
Note on, A3 key =  57;WhichDrum: T3 ; velocity: 127
@37560 , @1.9805135658914728 Channel: 9 
Note on, D2 key =  38;WhichDrum: T2 ; velocity: 127
@37620 , @1.9836773255813953 Channel: 9 
Note on, A3 key =  57;WhichDrum: T3 ; velocity: 0
@37620 , @1.9836773255813953 Channel: 9 
Note on, D2 key =  38;WhichDrum: T2 ; velocity: 0
@37620 , @1.9836773255813953 Channel: 9 
Note on, F#2 key =  42;WhichDrum: C1 ; velocity: 127
@37680 , @1.9868410852713179 Channel: 9 
Note on, F#2 key =  42;WhichDrum: C1 ; velocity: 0
@37680 , @1.9868410852713179 Channel: 9 
Note on, C2 key =  36;WhichDrum: B ; velocity: 127
@37680 , @1.9868410852713179 Channel: 9 
Note on, F#2 key =  42;WhichDrum: C1 ; velocity: 127
@37740 , @1.9900048449612402 Channel: 9 
Note on, C2 key =  36;WhichDrum: B ; velocity: 0
@37740 , @1.9900048449612402 Channel: 9 
Note on, F#2 key =  42;WhichDrum: C1 ; velocity: 0
@37740 , @1.9900048449612402 Channel: 9 
Note on, C2 key =  36;WhichDrum: B ; velocity: 127
@37740 , @1.9900048449612402 Channel: 9 
Note on, F#2 key =  42;WhichDrum: C1 ; velocity: 127
@37760 , @1.991059431524548 Channel: 9 
Note on, C2 key =  36;WhichDrum: B ; velocity: 0
@37760 , @1.991059431524548 Channel: 9 
Note on, C2 key =  36;WhichDrum: B ; velocity: 127
@37780 , @1.9921140180878556 Channel: 9 
Note on, C2 key =  36;WhichDrum: B ; velocity: 0
@37780 , @1.9921140180878556 Channel: 9 
Note on, C2 key =  36;WhichDrum: B ; velocity: 127
@37800 , @1.9931686046511627 Channel: 9 
Note on, F#2 key =  42;WhichDrum: C1 ; velocity: 0
@37800 , @1.9931686046511627 Channel: 9 
Note on, C2 key =  36;WhichDrum: B ; velocity: 0
@37800 , @1.9931686046511627 Channel: 9 
Note on, A3 key =  57;WhichDrum: T3 ; velocity: 127
@37800 , @1.9931686046511627 Channel: 9 
Note on, D2 key =  38;WhichDrum: T2 ; velocity: 127
@37860 , @1.9963323643410853 Channel: 9 
Note on, A3 key =  57;WhichDrum: T3 ; velocity: 0
@37860 , @1.9963323643410853 Channel: 9 
Note on, D2 key =  38;WhichDrum: T2 ; velocity: 0
@37860 , @1.9963323643410853 Channel: 9 
Note on, F#2 key =  42;WhichDrum: C1 ; velocity: 127
@37920 , @1.9994961240310078 Channel: 9 
Note on, F#2 key =  42;WhichDrum: C1 ; velocity: 0
@37920 , @1.9994961240310078 Channel: 9 
Note on, C2 key =  36;WhichDrum: B ; velocity: 127
@37920 , @1.9994961240310078 Channel: 9 
Note on, F#2 key =  42;WhichDrum: C1 ; velocity: 127
@37980 , @2.00265988372093 Channel: 9 
Note on, C2 key =  36;WhichDrum: B ; velocity: 0
@37980 , @2.00265988372093 Channel: 9 
Note on, F#2 key =  42;WhichDrum: C1 ; velocity: 0
@37980 , @2.00265988372093 Channel: 9 
Note on, C2 key =  36;WhichDrum: B ; velocity: 127
@37980 , @2.00265988372093 Channel: 9 
Note on, F#2 key =  42;WhichDrum: C1 ; velocity: 127
@38000 , @2.0037144702842378 Channel: 9 
Note on, C2 key =  36;WhichDrum: B ; velocity: 0
@38000 , @2.0037144702842378 Channel: 9 
Note on, C2 key =  36;WhichDrum: B ; velocity: 127
@38020 , @2.0047690568475454 Channel: 9 
Note on, C2 key =  36;WhichDrum: B ; velocity: 0
@38020 , @2.0047690568475454 Channel: 9 
Note on, C2 key =  36;WhichDrum: B ; velocity: 127
@38040 , @2.0058236434108525 Channel: 9 
Note on, F#2 key =  42;WhichDrum: C1 ; velocity: 0
@38040 , @2.0058236434108525 Channel: 9 
Note on, C2 key =  36;WhichDrum: B ; velocity: 0
@38040 , @2.0058236434108525 Channel: 9 
Note on, D2 key =  38;WhichDrum: T2 ; velocity: 127
@38040 , @2.0058236434108525 Channel: 9 
Note on, A3 key =  57;WhichDrum: T3 ; velocity: 127
@38100 , @2.0089874031007753 Channel: 9 
Note on, D2 key =  38;WhichDrum: T2 ; velocity: 0
@38100 , @2.0089874031007753 Channel: 9 
Note on, A3 key =  57;WhichDrum: T3 ; velocity: 0
@38100 , @2.0089874031007753 Channel: 9 
Note on, D2 key =  38;WhichDrum: T2 ; velocity: 127
@38130 , @2.0105692829457364 Channel: 9 
Note on, D2 key =  38;WhichDrum: T2 ; velocity: 0
@38130 , @2.0105692829457364 Channel: 9 
Note on, D2 key =  38;WhichDrum: T2 ; velocity: 127
@38160 , @2.0121511627906976 Channel: 9 
Note on, D2 key =  38;WhichDrum: T2 ; velocity: 0
@38160 , @2.0121511627906976 Channel: 9 
Note on, C2 key =  36;WhichDrum: B ; velocity: 127
@38160 , @2.0121511627906976 Channel: 9 
Note on, A3 key =  57;WhichDrum: T3 ; velocity: 127
@38220 , @2.0153149224806204 Channel: 9 
Note on, A3 key =  57;WhichDrum: T3 ; velocity: 0
@38220 , @2.0153149224806204 Channel: 9 
Note on, D2 key =  38;WhichDrum: T2 ; velocity: 127
@38250 , @2.0168968023255816 Channel: 9 
Note on, D2 key =  38;WhichDrum: T2 ; velocity: 0
@38250 , @2.0168968023255816 Channel: 9 
Note on, D2 key =  38;WhichDrum: T2 ; velocity: 127
@38280 , @2.0184786821705427 Channel: 9 
Note on, C2 key =  36;WhichDrum: B ; velocity: 0
@38280 , @2.0184786821705427 Channel: 9 
Note on, D2 key =  38;WhichDrum: T2 ; velocity: 0
@38280 , @2.0184786821705427 Channel: 9 
Note on, C2 key =  36;WhichDrum: B ; velocity: 127
@38280 , @2.0184786821705427 Channel: 9 
Note on, A3 key =  57;WhichDrum: T3 ; velocity: 127
@38340 , @2.021642441860465 Channel: 9 
Note on, C2 key =  36;WhichDrum: B ; velocity: 0
@38340 , @2.021642441860465 Channel: 9 
Note on, A3 key =  57;WhichDrum: T3 ; velocity: 0
@38340 , @2.021642441860465 Channel: 9 
Note on, C2 key =  36;WhichDrum: B ; velocity: 127
@38340 , @2.021642441860465 Channel: 9 
Note on, A3 key =  57;WhichDrum: T3 ; velocity: 127
@38400 , @2.024806201550388 Channel: 9 
Note on, C2 key =  36;WhichDrum: B ; velocity: 0
@38400 , @2.024806201550388 Channel: 9 
Note on, A3 key =  57;WhichDrum: T3 ; velocity: 0
@38400 , @2.024806201550388 Channel: 9 
Note on, C2 key =  36;WhichDrum: B ; velocity: 127
@38400 , @2.024806201550388 Channel: 9 
Note on, A3 key =  57;WhichDrum: T3 ; velocity: 127
@38460 , @2.02796996124031 Channel: 9 
Note on, A3 key =  57;WhichDrum: T3 ; velocity: 0
@38460 , @2.02796996124031 Channel: 9 
Note on, F#2 key =  42;WhichDrum: C1 ; velocity: 127
@38520 , @2.0311337209302325 Channel: 9 
Note on, C2 key =  36;WhichDrum: B ; velocity: 0
@38520 , @2.0311337209302325 Channel: 9 
Note on, F#2 key =  42;WhichDrum: C1 ; velocity: 0
@38520 , @2.0311337209302325 Channel: 9 
Note on, D2 key =  38;WhichDrum: T2 ; velocity: 127
@38520 , @2.0311337209302325 Channel: 9 
Note on, F#2 key =  42;WhichDrum: C1 ; velocity: 127
@38580 , @2.0342974806201553 Channel: 9 
Note on, D2 key =  38;WhichDrum: T2 ; velocity: 0
@38580 , @2.0342974806201553 Channel: 9 
Note on, F#2 key =  42;WhichDrum: C1 ; velocity: 0
@38580 , @2.0342974806201553 Channel: 9 
Note on, F#2 key =  42;WhichDrum: C1 ; velocity: 127
@38640 , @2.0374612403100776 Channel: 9 
Note on, F#2 key =  42;WhichDrum: C1 ; velocity: 0
@38640 , @2.0374612403100776 Channel: 9 
Note on, C2 key =  36;WhichDrum: B ; velocity: 127
@38640 , @2.0374612403100776 Channel: 9 
Note on, F#2 key =  42;WhichDrum: C1 ; velocity: 127
@38700 , @2.040625 Channel: 9 
Note on, F#2 key =  42;WhichDrum: C1 ; velocity: 0
@38700 , @2.040625 Channel: 9 
Note on, F#2 key =  42;WhichDrum: C1 ; velocity: 127
@38760 , @2.0437887596899227 Channel: 9 
Note on, C2 key =  36;WhichDrum: B ; velocity: 0
@38760 , @2.0437887596899227 Channel: 9 
Note on, F#2 key =  42;WhichDrum: C1 ; velocity: 0
@38760 , @2.0437887596899227 Channel: 9 
Note on, D2 key =  38;WhichDrum: T2 ; velocity: 127
@38760 , @2.0437887596899227 Channel: 9 
Note on, F#2 key =  42;WhichDrum: C1 ; velocity: 127
@38820 , @2.046952519379845 Channel: 9 
Note on, D2 key =  38;WhichDrum: T2 ; velocity: 0
@38820 , @2.046952519379845 Channel: 9 
Note on, F#2 key =  42;WhichDrum: C1 ; velocity: 0
@38820 , @2.046952519379845 Channel: 9 
Note on, F#2 key =  42;WhichDrum: C1 ; velocity: 127
@38880 , @2.0501162790697673 Channel: 9 
Note on, F#2 key =  42;WhichDrum: C1 ; velocity: 0
@38880 , @2.0501162790697673 Channel: 9 
Note on, C2 key =  36;WhichDrum: B ; velocity: 127
@38880 , @2.0501162790697673 Channel: 9 
Note on, F#2 key =  42;WhichDrum: C1 ; velocity: 127
@38940 , @2.05328003875969 Channel: 9 
Note on, F#2 key =  42;WhichDrum: C1 ; velocity: 0
@38940 , @2.05328003875969 Channel: 9 
Note on, F#2 key =  42;WhichDrum: C1 ; velocity: 127
@39000 , @2.0564437984496124 Channel: 9 
Note on, C2 key =  36;WhichDrum: B ; velocity: 0
@39000 , @2.0564437984496124 Channel: 9 
Note on, F#2 key =  42;WhichDrum: C1 ; velocity: 0
@39000 , @2.0564437984496124 Channel: 9 
Note on, F#2 key =  42;WhichDrum: C1 ; velocity: 127
@39060 , @2.0596075581395348 Channel: 9 
Note on, F#2 key =  42;WhichDrum: C1 ; velocity: 0
@39060 , @2.0596075581395348 Channel: 9 
Note on, D2 key =  38;WhichDrum: T2 ; velocity: 127
@39060 , @2.0596075581395348 Channel: 9 
Note on, F#2 key =  42;WhichDrum: C1 ; velocity: 127
@39120 , @2.0627713178294576 Channel: 9 
Note on, D2 key =  38;WhichDrum: T2 ; velocity: 0
@39120 , @2.0627713178294576 Channel: 9 
Note on, F#2 key =  42;WhichDrum: C1 ; velocity: 0
@39120 , @2.0627713178294576 Channel: 9 
Note on, C2 key =  36;WhichDrum: B ; velocity: 127
@39120 , @2.0627713178294576 Channel: 9 
Note on, F#2 key =  42;WhichDrum: C1 ; velocity: 127
@39180 , @2.06593507751938 Channel: 9 
Note on, C2 key =  36;WhichDrum: B ; velocity: 0
@39180 , @2.06593507751938 Channel: 9 
Note on, F#2 key =  42;WhichDrum: C1 ; velocity: 0
@39180 , @2.06593507751938 Channel: 9 
Note on, C2 key =  36;WhichDrum: B ; velocity: 127
@39180 , @2.06593507751938 Channel: 9 
Note on, F#2 key =  42;WhichDrum: C1 ; velocity: 127
@39200 , @2.0669896640826875 Channel: 9 
Note on, C2 key =  36;WhichDrum: B ; velocity: 0
@39200 , @2.0669896640826875 Channel: 9 
Note on, C2 key =  36;WhichDrum: B ; velocity: 127
@39220 , @2.0680442506459946 Channel: 9 
Note on, C2 key =  36;WhichDrum: B ; velocity: 0
@39220 , @2.0680442506459946 Channel: 9 
Note on, C2 key =  36;WhichDrum: B ; velocity: 127
@39240 , @2.0690988372093027 Channel: 9 
Note on, F#2 key =  42;WhichDrum: C1 ; velocity: 0
@39240 , @2.0690988372093027 Channel: 9 
Note on, C2 key =  36;WhichDrum: B ; velocity: 0
@39240 , @2.0690988372093027 Channel: 9 
Note on, D2 key =  38;WhichDrum: T2 ; velocity: 127
@39240 , @2.0690988372093027 Channel: 9 
Note on, F#2 key =  42;WhichDrum: C1 ; velocity: 127
@39300 , @2.072262596899225 Channel: 9 
Note on, D2 key =  38;WhichDrum: T2 ; velocity: 0
@39300 , @2.072262596899225 Channel: 9 
Note on, F#2 key =  42;WhichDrum: C1 ; velocity: 0
@39300 , @2.072262596899225 Channel: 9 
Note on, C2 key =  36;WhichDrum: B ; velocity: 127
@39300 , @2.072262596899225 Channel: 9 
Note on, F#2 key =  42;WhichDrum: C1 ; velocity: 127
@39360 , @2.0754263565891473 Channel: 9 
Note on, C2 key =  36;WhichDrum: B ; velocity: 0
@39360 , @2.0754263565891473 Channel: 9 
Note on, F#2 key =  42;WhichDrum: C1 ; velocity: 0
@39360 , @2.0754263565891473 Channel: 9 
Note on, F#2 key =  42;WhichDrum: C1 ; velocity: 127
@39360 , @2.0754263565891473 Channel: 9 
Note on, C2 key =  36;WhichDrum: B ; velocity: 127
@39420 , @2.07859011627907 Channel: 9 
Note on, F#2 key =  42;WhichDrum: C1 ; velocity: 0
@39420 , @2.07859011627907 Channel: 9 
Note on, F#2 key =  42;WhichDrum: C1 ; velocity: 127
@39480 , @2.0817538759689924 Channel: 9 
Note on, C2 key =  36;WhichDrum: B ; velocity: 0
@39480 , @2.0817538759689924 Channel: 9 
Note on, F#2 key =  42;WhichDrum: C1 ; velocity: 0
@39480 , @2.0817538759689924 Channel: 9 
Note on, F#2 key =  42;WhichDrum: C1 ; velocity: 127
@39540 , @2.0849176356589147 Channel: 9 
Note on, F#2 key =  42;WhichDrum: C1 ; velocity: 0
@39540 , @2.0849176356589147 Channel: 9 
Note on, D2 key =  38;WhichDrum: T2 ; velocity: 127
@39540 , @2.0849176356589147 Channel: 9 
Note on, F#2 key =  42;WhichDrum: C1 ; velocity: 127
@39600 , @2.0880813953488375 Channel: 9 
Note on, D2 key =  38;WhichDrum: T2 ; velocity: 0
@39600 , @2.0880813953488375 Channel: 9 
Note on, F#2 key =  42;WhichDrum: C1 ; velocity: 0
@39600 , @2.0880813953488375 Channel: 9 
Note on, F#2 key =  42;WhichDrum: C1 ; velocity: 127
@39600 , @2.0880813953488375 Channel: 9 
Note on, C2 key =  36;WhichDrum: B ; velocity: 127
@39660 , @2.09124515503876 Channel: 9 
Note on, F#2 key =  42;WhichDrum: C1 ; velocity: 0
@39660 , @2.09124515503876 Channel: 9 
Note on, F#2 key =  42;WhichDrum: C1 ; velocity: 127
@39720 , @2.094408914728682 Channel: 9 
Note on, C2 key =  36;WhichDrum: B ; velocity: 0
@39720 , @2.094408914728682 Channel: 9 
Note on, F#2 key =  42;WhichDrum: C1 ; velocity: 0
@39720 , @2.094408914728682 Channel: 9 
Note on, D2 key =  38;WhichDrum: T2 ; velocity: 127
@39720 , @2.094408914728682 Channel: 9 
Note on, F#2 key =  42;WhichDrum: C1 ; velocity: 127
@39780 , @2.097572674418605 Channel: 9 
Note on, D2 key =  38;WhichDrum: T2 ; velocity: 0
@39780 , @2.097572674418605 Channel: 9 
Note on, F#2 key =  42;WhichDrum: C1 ; velocity: 0
@39780 , @2.097572674418605 Channel: 9 
Note on, F#2 key =  42;WhichDrum: C1 ; velocity: 127
@39840 , @2.1007364341085273 Channel: 9 
Note on, F#2 key =  42;WhichDrum: C1 ; velocity: 0
@39840 , @2.1007364341085273 Channel: 9 
Note on, C2 key =  36;WhichDrum: B ; velocity: 127
@39840 , @2.1007364341085273 Channel: 9 
Note on, F#2 key =  42;WhichDrum: C1 ; velocity: 127
@39900 , @2.1039001937984496 Channel: 9 
Note on, F#2 key =  42;WhichDrum: C1 ; velocity: 0
@39900 , @2.1039001937984496 Channel: 9 
Note on, F#2 key =  42;WhichDrum: C1 ; velocity: 127
@39960 , @2.1070639534883724 Channel: 9 
Note on, C2 key =  36;WhichDrum: B ; velocity: 0
@39960 , @2.1070639534883724 Channel: 9 
Note on, F#2 key =  42;WhichDrum: C1 ; velocity: 0
@39960 , @2.1070639534883724 Channel: 9 
Note on, F#2 key =  42;WhichDrum: C1 ; velocity: 127
@40020 , @2.1102277131782947 Channel: 9 
Note on, F#2 key =  42;WhichDrum: C1 ; velocity: 0
@40020 , @2.1102277131782947 Channel: 9 
Note on, D2 key =  38;WhichDrum: T2 ; velocity: 127
@40020 , @2.1102277131782947 Channel: 9 
Note on, F#2 key =  42;WhichDrum: C1 ; velocity: 127
@40080 , @2.113391472868217 Channel: 9 
Note on, D2 key =  38;WhichDrum: T2 ; velocity: 0
@40080 , @2.113391472868217 Channel: 9 
Note on, F#2 key =  42;WhichDrum: C1 ; velocity: 0
@40080 , @2.113391472868217 Channel: 9 
Note on, C2 key =  36;WhichDrum: B ; velocity: 127
@40080 , @2.113391472868217 Channel: 9 
Note on, F#2 key =  42;WhichDrum: C1 ; velocity: 127
@40140 , @2.11655523255814 Channel: 9 
Note on, C2 key =  36;WhichDrum: B ; velocity: 0
@40140 , @2.11655523255814 Channel: 9 
Note on, F#2 key =  42;WhichDrum: C1 ; velocity: 0
@40140 , @2.11655523255814 Channel: 9 
Note on, C2 key =  36;WhichDrum: B ; velocity: 127
@40140 , @2.11655523255814 Channel: 9 
Note on, F#2 key =  42;WhichDrum: C1 ; velocity: 127
@40160 , @2.117609819121447 Channel: 9 
Note on, C2 key =  36;WhichDrum: B ; velocity: 0
@40160 , @2.117609819121447 Channel: 9 
Note on, C2 key =  36;WhichDrum: B ; velocity: 127
@40180 , @2.1186644056847546 Channel: 9 
Note on, C2 key =  36;WhichDrum: B ; velocity: 0
@40180 , @2.1186644056847546 Channel: 9 
Note on, C2 key =  36;WhichDrum: B ; velocity: 127
@40200 , @2.119718992248062 Channel: 9 
Note on, F#2 key =  42;WhichDrum: C1 ; velocity: 0
@40200 , @2.119718992248062 Channel: 9 
Note on, C2 key =  36;WhichDrum: B ; velocity: 0
@40200 , @2.119718992248062 Channel: 9 
Note on, D2 key =  38;WhichDrum: T2 ; velocity: 127
@40200 , @2.119718992248062 Channel: 9 
Note on, F#2 key =  42;WhichDrum: C1 ; velocity: 127
@40260 , @2.122882751937985 Channel: 9 
Note on, D2 key =  38;WhichDrum: T2 ; velocity: 0
@40260 , @2.122882751937985 Channel: 9 
Note on, F#2 key =  42;WhichDrum: C1 ; velocity: 0
@40260 , @2.122882751937985 Channel: 9 
Note on, C2 key =  36;WhichDrum: B ; velocity: 127
@40260 , @2.122882751937985 Channel: 9 
Note on, F#2 key =  42;WhichDrum: C1 ; velocity: 127
@40320 , @2.1260465116279073 Channel: 9 
Note on, C2 key =  36;WhichDrum: B ; velocity: 0
@40320 , @2.1260465116279073 Channel: 9 
Note on, F#2 key =  42;WhichDrum: C1 ; velocity: 0
@40320 , @2.1260465116279073 Channel: 9 
Note on, F#2 key =  42;WhichDrum: C1 ; velocity: 127
@40320 , @2.1260465116279073 Channel: 9 
Note on, C2 key =  36;WhichDrum: B ; velocity: 127
@40380 , @2.1292102713178296 Channel: 9 
Note on, F#2 key =  42;WhichDrum: C1 ; velocity: 0
@40380 , @2.1292102713178296 Channel: 9 
Note on, F#2 key =  42;WhichDrum: C1 ; velocity: 127
@40440 , @2.1323740310077524 Channel: 9 
Note on, C2 key =  36;WhichDrum: B ; velocity: 0
@40440 , @2.1323740310077524 Channel: 9 
Note on, F#2 key =  42;WhichDrum: C1 ; velocity: 0
@40440 , @2.1323740310077524 Channel: 9 
Note on, A3 key =  57;WhichDrum: T3 ; velocity: 127
@40440 , @2.1323740310077524 Channel: 9 
Note on, D2 key =  38;WhichDrum: T2 ; velocity: 127
@40500 , @2.1355377906976747 Channel: 9 
Note on, A3 key =  57;WhichDrum: T3 ; velocity: 0
@40500 , @2.1355377906976747 Channel: 9 
Note on, D2 key =  38;WhichDrum: T2 ; velocity: 0
@40500 , @2.1355377906976747 Channel: 9 
Note on, F#2 key =  42;WhichDrum: C1 ; velocity: 127
@40560 , @2.138701550387597 Channel: 9 
Note on, F#2 key =  42;WhichDrum: C1 ; velocity: 0
@40560 , @2.138701550387597 Channel: 9 
Note on, F#2 key =  42;WhichDrum: C1 ; velocity: 127
@40560 , @2.138701550387597 Channel: 9 
Note on, C2 key =  36;WhichDrum: B ; velocity: 127
@40620 , @2.14186531007752 Channel: 9 
Note on, F#2 key =  42;WhichDrum: C1 ; velocity: 0
@40620 , @2.14186531007752 Channel: 9 
Note on, F#2 key =  42;WhichDrum: C1 ; velocity: 127
@40680 , @2.1450290697674417 Channel: 9 
Note on, C2 key =  36;WhichDrum: B ; velocity: 0
@40680 , @2.1450290697674417 Channel: 9 
Note on, F#2 key =  42;WhichDrum: C1 ; velocity: 0
@40680 , @2.1450290697674417 Channel: 9 
Note on, D2 key =  38;WhichDrum: T2 ; velocity: 127
@40680 , @2.1450290697674417 Channel: 9 
Note on, F#2 key =  42;WhichDrum: C1 ; velocity: 127
@40740 , @2.1481928294573645 Channel: 9 
Note on, D2 key =  38;WhichDrum: T2 ; velocity: 0
@40740 , @2.1481928294573645 Channel: 9 
Note on, F#2 key =  42;WhichDrum: C1 ; velocity: 0
@40740 , @2.1481928294573645 Channel: 9 
Note on, F#2 key =  42;WhichDrum: C1 ; velocity: 127
@40800 , @2.151356589147287 Channel: 9 
Note on, F#2 key =  42;WhichDrum: C1 ; velocity: 0
@40800 , @2.151356589147287 Channel: 9 
Note on, C2 key =  36;WhichDrum: B ; velocity: 127
@40800 , @2.151356589147287 Channel: 9 
Note on, F#2 key =  42;WhichDrum: C1 ; velocity: 127
@40860 , @2.154520348837209 Channel: 9 
Note on, F#2 key =  42;WhichDrum: C1 ; velocity: 0
@40860 , @2.154520348837209 Channel: 9 
Note on, F#2 key =  42;WhichDrum: C1 ; velocity: 127
@40920 , @2.157684108527132 Channel: 9 
Note on, C2 key =  36;WhichDrum: B ; velocity: 0
@40920 , @2.157684108527132 Channel: 9 
Note on, F#2 key =  42;WhichDrum: C1 ; velocity: 0
@40920 , @2.157684108527132 Channel: 9 
Note on, F#2 key =  42;WhichDrum: C1 ; velocity: 127
@40980 , @2.160847868217054 Channel: 9 
Note on, F#2 key =  42;WhichDrum: C1 ; velocity: 0
@40980 , @2.160847868217054 Channel: 9 
Note on, D2 key =  38;WhichDrum: T2 ; velocity: 127
@40980 , @2.160847868217054 Channel: 9 
Note on, F#2 key =  42;WhichDrum: C1 ; velocity: 127
@41040 , @2.1640116279069765 Channel: 9 
Note on, D2 key =  38;WhichDrum: T2 ; velocity: 0
@41040 , @2.1640116279069765 Channel: 9 
Note on, F#2 key =  42;WhichDrum: C1 ; velocity: 0
@41040 , @2.1640116279069765 Channel: 9 
Note on, C2 key =  36;WhichDrum: B ; velocity: 127
@41040 , @2.1640116279069765 Channel: 9 
Note on, F#2 key =  42;WhichDrum: C1 ; velocity: 127
@41100 , @2.1671753875968993 Channel: 9 
Note on, C2 key =  36;WhichDrum: B ; velocity: 0
@41100 , @2.1671753875968993 Channel: 9 
Note on, F#2 key =  42;WhichDrum: C1 ; velocity: 0
@41100 , @2.1671753875968993 Channel: 9 
Note on, C2 key =  36;WhichDrum: B ; velocity: 127
@41100 , @2.1671753875968993 Channel: 9 
Note on, F#2 key =  42;WhichDrum: C1 ; velocity: 127
@41120 , @2.168229974160207 Channel: 9 
Note on, C2 key =  36;WhichDrum: B ; velocity: 0
@41120 , @2.168229974160207 Channel: 9 
Note on, C2 key =  36;WhichDrum: B ; velocity: 127
@41140 , @2.1692845607235145 Channel: 9 
Note on, C2 key =  36;WhichDrum: B ; velocity: 0
@41140 , @2.1692845607235145 Channel: 9 
Note on, C2 key =  36;WhichDrum: B ; velocity: 127
@41160 , @2.1703391472868216 Channel: 9 
Note on, F#2 key =  42;WhichDrum: C1 ; velocity: 0
@41160 , @2.1703391472868216 Channel: 9 
Note on, C2 key =  36;WhichDrum: B ; velocity: 0
@41160 , @2.1703391472868216 Channel: 9 
Note on, D2 key =  38;WhichDrum: T2 ; velocity: 127
@41160 , @2.1703391472868216 Channel: 9 
Note on, F#2 key =  42;WhichDrum: C1 ; velocity: 127
@41220 , @2.173502906976744 Channel: 9 
Note on, D2 key =  38;WhichDrum: T2 ; velocity: 0
@41220 , @2.173502906976744 Channel: 9 
Note on, F#2 key =  42;WhichDrum: C1 ; velocity: 0
@41220 , @2.173502906976744 Channel: 9 
Note on, C2 key =  36;WhichDrum: B ; velocity: 127
@41220 , @2.173502906976744 Channel: 9 
Note on, F#2 key =  42;WhichDrum: C1 ; velocity: 127
@41280 , @2.1766666666666667 Channel: 9 
Note on, C2 key =  36;WhichDrum: B ; velocity: 0
@41280 , @2.1766666666666667 Channel: 9 
Note on, F#2 key =  42;WhichDrum: C1 ; velocity: 0
@41280 , @2.1766666666666667 Channel: 9 
Note on, C2 key =  36;WhichDrum: B ; velocity: 127
@41280 , @2.1766666666666667 Channel: 9 
Note on, F#2 key =  42;WhichDrum: C1 ; velocity: 127
@41340 , @2.179830426356589 Channel: 9 
Note on, F#2 key =  42;WhichDrum: C1 ; velocity: 0
@41340 , @2.179830426356589 Channel: 9 
Note on, F#2 key =  42;WhichDrum: C1 ; velocity: 127
@41400 , @2.1829941860465114 Channel: 9 
Note on, C2 key =  36;WhichDrum: B ; velocity: 0
@41400 , @2.1829941860465114 Channel: 9 
Note on, F#2 key =  42;WhichDrum: C1 ; velocity: 0
@41400 , @2.1829941860465114 Channel: 9 
Note on, F#2 key =  42;WhichDrum: C1 ; velocity: 127
@41460 , @2.186157945736434 Channel: 9 
Note on, F#2 key =  42;WhichDrum: C1 ; velocity: 0
@41460 , @2.186157945736434 Channel: 9 
Note on, A3 key =  57;WhichDrum: T3 ; velocity: 127
@41460 , @2.186157945736434 Channel: 9 
Note on, D2 key =  38;WhichDrum: T2 ; velocity: 127
@41520 , @2.1893217054263565 Channel: 9 
Note on, A3 key =  57;WhichDrum: T3 ; velocity: 0
@41520 , @2.1893217054263565 Channel: 9 
Note on, D2 key =  38;WhichDrum: T2 ; velocity: 0
@41520 , @2.1893217054263565 Channel: 9 
Note on, C2 key =  36;WhichDrum: B ; velocity: 127
@41520 , @2.1893217054263565 Channel: 9 
Note on, F#2 key =  42;WhichDrum: C1 ; velocity: 127
@41580 , @2.192485465116279 Channel: 9 
Note on, F#2 key =  42;WhichDrum: C1 ; velocity: 0
@41580 , @2.192485465116279 Channel: 9 
Note on, F#2 key =  42;WhichDrum: C1 ; velocity: 127
@41640 , @2.1956492248062016 Channel: 9 
Note on, C2 key =  36;WhichDrum: B ; velocity: 0
@41640 , @2.1956492248062016 Channel: 9 
Note on, F#2 key =  42;WhichDrum: C1 ; velocity: 0
@41640 , @2.1956492248062016 Channel: 9 
Note on, A3 key =  57;WhichDrum: T3 ; velocity: 127
@41640 , @2.1956492248062016 Channel: 9 
Note on, D2 key =  38;WhichDrum: T2 ; velocity: 127
@41700 , @2.198812984496124 Channel: 9 
Note on, A3 key =  57;WhichDrum: T3 ; velocity: 0
@41700 , @2.198812984496124 Channel: 9 
Note on, D2 key =  38;WhichDrum: T2 ; velocity: 0
@41700 , @2.198812984496124 Channel: 9 
Note on, F#2 key =  42;WhichDrum: C1 ; velocity: 127
@41760 , @2.2019767441860467 Channel: 9 
Note on, F#2 key =  42;WhichDrum: C1 ; velocity: 0
@41760 , @2.2019767441860467 Channel: 9 
Note on, F#2 key =  42;WhichDrum: C1 ; velocity: 127
@41760 , @2.2019767441860467 Channel: 9 
Note on, C2 key =  36;WhichDrum: B ; velocity: 127
@41820 , @2.205140503875969 Channel: 9 
Note on, F#2 key =  42;WhichDrum: C1 ; velocity: 0
@41820 , @2.205140503875969 Channel: 9 
Note on, C2 key =  36;WhichDrum: B ; velocity: 0
@41820 , @2.205140503875969 Channel: 9 
Note on, F#2 key =  42;WhichDrum: C1 ; velocity: 127
@41820 , @2.205140503875969 Channel: 9 
Note on, C2 key =  36;WhichDrum: B ; velocity: 127
@41840 , @2.2061950904392766 Channel: 9 
Note on, C2 key =  36;WhichDrum: B ; velocity: 0
@41840 , @2.2061950904392766 Channel: 9 
Note on, C2 key =  36;WhichDrum: B ; velocity: 127
@41860 , @2.2072496770025842 Channel: 9 
Note on, C2 key =  36;WhichDrum: B ; velocity: 0
@41860 , @2.2072496770025842 Channel: 9 
Note on, C2 key =  36;WhichDrum: B ; velocity: 127
@41880 , @2.2083042635658914 Channel: 9 
Note on, F#2 key =  42;WhichDrum: C1 ; velocity: 0
@41880 , @2.2083042635658914 Channel: 9 
Note on, C2 key =  36;WhichDrum: B ; velocity: 0
@41880 , @2.2083042635658914 Channel: 9 
Note on, D2 key =  38;WhichDrum: T2 ; velocity: 127
@41880 , @2.2083042635658914 Channel: 9 
Note on, A3 key =  57;WhichDrum: T3 ; velocity: 127
@41940 , @2.211468023255814 Channel: 9 
Note on, D2 key =  38;WhichDrum: T2 ; velocity: 0
@41940 , @2.211468023255814 Channel: 9 
Note on, A3 key =  57;WhichDrum: T3 ; velocity: 0
@41940 , @2.211468023255814 Channel: 9 
Note on, D2 key =  38;WhichDrum: T2 ; velocity: 127
@41940 , @2.211468023255814 Channel: 9 
Note on, A3 key =  57;WhichDrum: T3 ; velocity: 127
@42000 , @2.2146317829457365 Channel: 9 
Note on, D2 key =  38;WhichDrum: T2 ; velocity: 0
@42000 , @2.2146317829457365 Channel: 9 
Note on, A3 key =  57;WhichDrum: T3 ; velocity: 0
@42000 , @2.2146317829457365 Channel: 9 
Note on, A2 key =  45;WhichDrum: T3 ; velocity: 127
@42060 , @2.217795542635659 Channel: 9 
Note on, A2 key =  45;WhichDrum: T3 ; velocity: 0
@42060 , @2.217795542635659 Channel: 9 
Note on, A2 key =  45;WhichDrum: T3 ; velocity: 127
@42090 , @2.21937742248062 Channel: 9 
Note on, A2 key =  45;WhichDrum: T3 ; velocity: 0
@42090 , @2.21937742248062 Channel: 9 
Note on, A2 key =  45;WhichDrum: T3 ; velocity: 127
@42120 , @2.2209593023255816 Channel: 9 
Note on, A2 key =  45;WhichDrum: T3 ; velocity: 0
@42120 , @2.2209593023255816 Channel: 9 
Note on, B2 key =  47;WhichDrum: T1 ; velocity: 127
@42180 , @2.224123062015504 Channel: 9 
Note on, B2 key =  47;WhichDrum: T1 ; velocity: 0
@42180 , @2.224123062015504 Channel: 9 
Note on, B2 key =  47;WhichDrum: T1 ; velocity: 127
@42210 , @2.225704941860465 Channel: 9 
Note on, B2 key =  47;WhichDrum: T1 ; velocity: 0
@42210 , @2.225704941860465 Channel: 9 
Note on, B2 key =  47;WhichDrum: T1 ; velocity: 127
@42240 , @2.2272868217054262 Channel: 9 
Note on, B2 key =  47;WhichDrum: T1 ; velocity: 0
@42240 , @2.2272868217054262 Channel: 9 
Note on, A3 key =  57;WhichDrum: T3 ; velocity: 127
@42240 , @2.2272868217054262 Channel: 9 
Note on, C2 key =  36;WhichDrum: B ; velocity: 127
@42300 , @2.230450581395349 Channel: 9 
Note on, A3 key =  57;WhichDrum: T3 ; velocity: 0
@42300 , @2.230450581395349 Channel: 9 
Note on, B3 key =  59;WhichDrum: T1 ; velocity: 127
@42360 , @2.2336143410852713 Channel: 9 
Note on, C2 key =  36;WhichDrum: B ; velocity: 0
@42360 , @2.2336143410852713 Channel: 9 
Note on, B3 key =  59;WhichDrum: T1 ; velocity: 0
@42360 , @2.2336143410852713 Channel: 9 
Note on, D2 key =  38;WhichDrum: T2 ; velocity: 127
@42360 , @2.2336143410852713 Channel: 9 
Note on, B3 key =  59;WhichDrum: T1 ; velocity: 127
@42420 , @2.2367781007751937 Channel: 9 
Note on, D2 key =  38;WhichDrum: T2 ; velocity: 0
@42420 , @2.2367781007751937 Channel: 9 
Note on, B3 key =  59;WhichDrum: T1 ; velocity: 0
@42420 , @2.2367781007751937 Channel: 9 
Note on, B3 key =  59;WhichDrum: T1 ; velocity: 127
@42480 , @2.2399418604651165 Channel: 9 
Note on, B3 key =  59;WhichDrum: T1 ; velocity: 0
@42480 , @2.2399418604651165 Channel: 9 
Note on, B3 key =  59;WhichDrum: T1 ; velocity: 127
@42480 , @2.2399418604651165 Channel: 9 
Note on, C2 key =  36;WhichDrum: B ; velocity: 127
@42540 , @2.243105620155039 Channel: 9 
Note on, B3 key =  59;WhichDrum: T1 ; velocity: 0
@42540 , @2.243105620155039 Channel: 9 
Note on, A2 key =  45;WhichDrum: T3 ; velocity: 127
@42570 , @2.2446875 Channel: 9 
Note on, A2 key =  45;WhichDrum: T3 ; velocity: 0
@42570 , @2.2446875 Channel: 9 
Note on, A2 key =  45;WhichDrum: T3 ; velocity: 127
@42600 , @2.246269379844961 Channel: 9 
Note on, C2 key =  36;WhichDrum: B ; velocity: 0
@42600 , @2.246269379844961 Channel: 9 
Note on, A2 key =  45;WhichDrum: T3 ; velocity: 0
@42600 , @2.246269379844961 Channel: 9 
Note on, A3 key =  57;WhichDrum: T3 ; velocity: 127
@42600 , @2.246269379844961 Channel: 9 
Note on, C2 key =  36;WhichDrum: B ; velocity: 127
@42660 , @2.249433139534884 Channel: 9 
Note on, A3 key =  57;WhichDrum: T3 ; velocity: 0
@42660 , @2.249433139534884 Channel: 9 
Note on, C2 key =  36;WhichDrum: B ; velocity: 0
@42660 , @2.249433139534884 Channel: 9 
Note on, A3 key =  57;WhichDrum: T3 ; velocity: 127
@42660 , @2.249433139534884 Channel: 9 
Note on, C2 key =  36;WhichDrum: B ; velocity: 127
@42720 , @2.252596899224806 Channel: 9 
Note on, A3 key =  57;WhichDrum: T3 ; velocity: 0
@42720 , @2.252596899224806 Channel: 9 
Note on, C2 key =  36;WhichDrum: B ; velocity: 0
@42720 , @2.252596899224806 Channel: 9 
Note on, A3 key =  57;WhichDrum: T3 ; velocity: 127
@42720 , @2.252596899224806 Channel: 9 
Note on, C2 key =  36;WhichDrum: B ; velocity: 127
@42780 , @2.255760658914729 Channel: 9 
Note on, A3 key =  57;WhichDrum: T3 ; velocity: 0
@42780 , @2.255760658914729 Channel: 9 
Note on, B3 key =  59;WhichDrum: T1 ; velocity: 127
@42840 , @2.2589244186046513 Channel: 9 
Note on, C2 key =  36;WhichDrum: B ; velocity: 0
@42840 , @2.2589244186046513 Channel: 9 
Note on, B3 key =  59;WhichDrum: T1 ; velocity: 0
@42840 , @2.2589244186046513 Channel: 9 
Note on, D2 key =  38;WhichDrum: T2 ; velocity: 127
@42840 , @2.2589244186046513 Channel: 9 
Note on, B3 key =  59;WhichDrum: T1 ; velocity: 127
@42900 , @2.2620881782945736 Channel: 9 
Note on, D2 key =  38;WhichDrum: T2 ; velocity: 0
@42900 , @2.2620881782945736 Channel: 9 
Note on, B3 key =  59;WhichDrum: T1 ; velocity: 0
@42900 , @2.2620881782945736 Channel: 9 
Note on, B3 key =  59;WhichDrum: T1 ; velocity: 127
@42960 , @2.2652519379844964 Channel: 9 
Note on, B3 key =  59;WhichDrum: T1 ; velocity: 0
@42960 , @2.2652519379844964 Channel: 9 
Note on, B3 key =  59;WhichDrum: T1 ; velocity: 127
@42960 , @2.2652519379844964 Channel: 9 
Note on, C2 key =  36;WhichDrum: B ; velocity: 127
@43020 , @2.2684156976744188 Channel: 9 
Note on, B3 key =  59;WhichDrum: T1 ; velocity: 0
@43020 , @2.2684156976744188 Channel: 9 
Note on, A2 key =  45;WhichDrum: T3 ; velocity: 127
@43050 , @2.26999757751938 Channel: 9 
Note on, A2 key =  45;WhichDrum: T3 ; velocity: 0
@43050 , @2.26999757751938 Channel: 9 
Note on, A2 key =  45;WhichDrum: T3 ; velocity: 127
@43080 , @2.271579457364341 Channel: 9 
Note on, C2 key =  36;WhichDrum: B ; velocity: 0
@43080 , @2.271579457364341 Channel: 9 
Note on, A2 key =  45;WhichDrum: T3 ; velocity: 0
@43080 , @2.271579457364341 Channel: 9 
Note on, A3 key =  57;WhichDrum: T3 ; velocity: 127
@43080 , @2.271579457364341 Channel: 9 
Note on, C2 key =  36;WhichDrum: B ; velocity: 127
@43140 , @2.274743217054264 Channel: 9 
Note on, A3 key =  57;WhichDrum: T3 ; velocity: 0
@43140 , @2.274743217054264 Channel: 9 
Note on, C2 key =  36;WhichDrum: B ; velocity: 0
@43140 , @2.274743217054264 Channel: 9 
Note on, A3 key =  57;WhichDrum: T3 ; velocity: 127
@43140 , @2.274743217054264 Channel: 9 
Note on, C2 key =  36;WhichDrum: B ; velocity: 127
@43200 , @2.277906976744186 Channel: 9 
Note on, A3 key =  57;WhichDrum: T3 ; velocity: 0
@43200 , @2.277906976744186 Channel: 9 
Note on, C2 key =  36;WhichDrum: B ; velocity: 0
@43200 , @2.277906976744186 Channel: 9 
Note on, A3 key =  57;WhichDrum: T3 ; velocity: 127
@43200 , @2.277906976744186 Channel: 9 
Note on, C2 key =  36;WhichDrum: B ; velocity: 127
@43260 , @2.2810707364341085 Channel: 9 
Note on, A3 key =  57;WhichDrum: T3 ; velocity: 0
@43260 , @2.2810707364341085 Channel: 9 
Note on, B3 key =  59;WhichDrum: T1 ; velocity: 127
@43320 , @2.2842344961240313 Channel: 9 
Note on, C2 key =  36;WhichDrum: B ; velocity: 0
@43320 , @2.2842344961240313 Channel: 9 
Note on, B3 key =  59;WhichDrum: T1 ; velocity: 0
@43320 , @2.2842344961240313 Channel: 9 
Note on, D2 key =  38;WhichDrum: T2 ; velocity: 127
@43320 , @2.2842344961240313 Channel: 9 
Note on, B3 key =  59;WhichDrum: T1 ; velocity: 127
@43380 , @2.2873982558139536 Channel: 9 
Note on, D2 key =  38;WhichDrum: T2 ; velocity: 0
@43380 , @2.2873982558139536 Channel: 9 
Note on, B3 key =  59;WhichDrum: T1 ; velocity: 0
@43380 , @2.2873982558139536 Channel: 9 
Note on, B3 key =  59;WhichDrum: T1 ; velocity: 127
@43440 , @2.290562015503876 Channel: 9 
Note on, B3 key =  59;WhichDrum: T1 ; velocity: 0
@43440 , @2.290562015503876 Channel: 9 
Note on, B3 key =  59;WhichDrum: T1 ; velocity: 127
@43440 , @2.290562015503876 Channel: 9 
Note on, C2 key =  36;WhichDrum: B ; velocity: 127
@43500 , @2.2937257751937987 Channel: 9 
Note on, B3 key =  59;WhichDrum: T1 ; velocity: 0
@43500 , @2.2937257751937987 Channel: 9 
Note on, A2 key =  45;WhichDrum: T3 ; velocity: 127
@43530 , @2.29530765503876 Channel: 9 
Note on, A2 key =  45;WhichDrum: T3 ; velocity: 0
@43530 , @2.29530765503876 Channel: 9 
Note on, A2 key =  45;WhichDrum: T3 ; velocity: 127
@43560 , @2.296889534883721 Channel: 9 
Note on, C2 key =  36;WhichDrum: B ; velocity: 0
@43560 , @2.296889534883721 Channel: 9 
Note on, A2 key =  45;WhichDrum: T3 ; velocity: 0
@43560 , @2.296889534883721 Channel: 9 
Note on, A3 key =  57;WhichDrum: T3 ; velocity: 127
@43560 , @2.296889534883721 Channel: 9 
Note on, C2 key =  36;WhichDrum: B ; velocity: 127
@43620 , @2.3000532945736434 Channel: 9 
Note on, A3 key =  57;WhichDrum: T3 ; velocity: 0
@43620 , @2.3000532945736434 Channel: 9 
Note on, C2 key =  36;WhichDrum: B ; velocity: 0
@43620 , @2.3000532945736434 Channel: 9 
Note on, A3 key =  57;WhichDrum: T3 ; velocity: 127
@43620 , @2.3000532945736434 Channel: 9 
Note on, C2 key =  36;WhichDrum: B ; velocity: 127
@43680 , @2.303217054263566 Channel: 9 
Note on, A3 key =  57;WhichDrum: T3 ; velocity: 0
@43680 , @2.303217054263566 Channel: 9 
Note on, C2 key =  36;WhichDrum: B ; velocity: 0
@43680 , @2.303217054263566 Channel: 9 
Note on, A3 key =  57;WhichDrum: T3 ; velocity: 127
@43680 , @2.303217054263566 Channel: 9 
Note on, C2 key =  36;WhichDrum: B ; velocity: 127
@43740 , @2.3063808139534885 Channel: 9 
Note on, A3 key =  57;WhichDrum: T3 ; velocity: 0
@43740 , @2.3063808139534885 Channel: 9 
Note on, B3 key =  59;WhichDrum: T1 ; velocity: 127
@43800 , @2.3095445736434113 Channel: 9 
Note on, C2 key =  36;WhichDrum: B ; velocity: 0
@43800 , @2.3095445736434113 Channel: 9 
Note on, B3 key =  59;WhichDrum: T1 ; velocity: 0
@43800 , @2.3095445736434113 Channel: 9 
Note on, D2 key =  38;WhichDrum: T2 ; velocity: 127
@43800 , @2.3095445736434113 Channel: 9 
Note on, B3 key =  59;WhichDrum: T1 ; velocity: 127
@43860 , @2.3127083333333336 Channel: 9 
Note on, D2 key =  38;WhichDrum: T2 ; velocity: 0
@43860 , @2.3127083333333336 Channel: 9 
Note on, B3 key =  59;WhichDrum: T1 ; velocity: 0
@43860 , @2.3127083333333336 Channel: 9 
Note on, B3 key =  59;WhichDrum: T1 ; velocity: 127
@43920 , @2.315872093023256 Channel: 9 
Note on, B3 key =  59;WhichDrum: T1 ; velocity: 0
@43920 , @2.315872093023256 Channel: 9 
Note on, C2 key =  36;WhichDrum: B ; velocity: 127
@43920 , @2.315872093023256 Channel: 9 
Note on, B3 key =  59;WhichDrum: T1 ; velocity: 127
@43980 , @2.3190358527131787 Channel: 9 
Note on, C2 key =  36;WhichDrum: B ; velocity: 0
@43980 , @2.3190358527131787 Channel: 9 
Note on, B3 key =  59;WhichDrum: T1 ; velocity: 0
@43980 , @2.3190358527131787 Channel: 9 
Note on, B3 key =  59;WhichDrum: T1 ; velocity: 127
@43980 , @2.3190358527131787 Channel: 9 
Note on, C2 key =  36;WhichDrum: B ; velocity: 127
@44040 , @2.322199612403101 Channel: 9 
Note on, B3 key =  59;WhichDrum: T1 ; velocity: 0
@44040 , @2.322199612403101 Channel: 9 
Note on, C2 key =  36;WhichDrum: B ; velocity: 0
@44040 , @2.322199612403101 Channel: 9 
Note on, A2 key =  45;WhichDrum: T3 ; velocity: 127
@44070 , @2.323781492248062 Channel: 9 
Note on, A2 key =  45;WhichDrum: T3 ; velocity: 0
@44070 , @2.323781492248062 Channel: 9 
Note on, A2 key =  45;WhichDrum: T3 ; velocity: 127
@44100 , @2.3253633720930234 Channel: 9 
Note on, A2 key =  45;WhichDrum: T3 ; velocity: 0
@44100 , @2.3253633720930234 Channel: 9 
Note on, A2 key =  45;WhichDrum: T3 ; velocity: 127
@44160 , @2.328527131782946 Channel: 9 
Note on, A2 key =  45;WhichDrum: T3 ; velocity: 0
@44160 , @2.328527131782946 Channel: 9 
Note on, A3 key =  57;WhichDrum: T3 ; velocity: 127
@44160 , @2.328527131782946 Channel: 9 
Note on, C2 key =  36;WhichDrum: B ; velocity: 127
@44220 , @2.3316908914728685 Channel: 9 
Note on, A3 key =  57;WhichDrum: T3 ; velocity: 0
@44220 , @2.3316908914728685 Channel: 9 
Note on, B3 key =  59;WhichDrum: T1 ; velocity: 127
@44280 , @2.334854651162791 Channel: 9 
Note on, C2 key =  36;WhichDrum: B ; velocity: 0
@44280 , @2.334854651162791 Channel: 9 
Note on, B3 key =  59;WhichDrum: T1 ; velocity: 0
@44280 , @2.334854651162791 Channel: 9 
Note on, D2 key =  38;WhichDrum: T2 ; velocity: 127
@44280 , @2.334854651162791 Channel: 9 
Note on, B3 key =  59;WhichDrum: T1 ; velocity: 127
@44340 , @2.3380184108527136 Channel: 9 
Note on, D2 key =  38;WhichDrum: T2 ; velocity: 0
@44340 , @2.3380184108527136 Channel: 9 
Note on, B3 key =  59;WhichDrum: T1 ; velocity: 0
@44340 , @2.3380184108527136 Channel: 9 
Note on, B3 key =  59;WhichDrum: T1 ; velocity: 127
@44400 , @2.341182170542636 Channel: 9 
Note on, B3 key =  59;WhichDrum: T1 ; velocity: 0
@44400 , @2.341182170542636 Channel: 9 
Note on, B3 key =  59;WhichDrum: T1 ; velocity: 127
@44400 , @2.341182170542636 Channel: 9 
Note on, C2 key =  36;WhichDrum: B ; velocity: 127
@44460 , @2.344345930232558 Channel: 9 
Note on, B3 key =  59;WhichDrum: T1 ; velocity: 0
@44460 , @2.344345930232558 Channel: 9 
Note on, A2 key =  45;WhichDrum: T3 ; velocity: 127
@44490 , @2.34592781007752 Channel: 9 
Note on, A2 key =  45;WhichDrum: T3 ; velocity: 0
@44490 , @2.34592781007752 Channel: 9 
Note on, A2 key =  45;WhichDrum: T3 ; velocity: 127
@44520 , @2.3475096899224805 Channel: 9 
Note on, C2 key =  36;WhichDrum: B ; velocity: 0
@44520 , @2.3475096899224805 Channel: 9 
Note on, A2 key =  45;WhichDrum: T3 ; velocity: 0
@44520 , @2.3475096899224805 Channel: 9 
Note on, A3 key =  57;WhichDrum: T3 ; velocity: 127
@44520 , @2.3475096899224805 Channel: 9 
Note on, C2 key =  36;WhichDrum: B ; velocity: 127
@44580 , @2.350673449612403 Channel: 9 
Note on, A3 key =  57;WhichDrum: T3 ; velocity: 0
@44580 , @2.350673449612403 Channel: 9 
Note on, C2 key =  36;WhichDrum: B ; velocity: 0
@44580 , @2.350673449612403 Channel: 9 
Note on, A3 key =  57;WhichDrum: T3 ; velocity: 127
@44580 , @2.350673449612403 Channel: 9 
Note on, C2 key =  36;WhichDrum: B ; velocity: 127
@44640 , @2.3538372093023257 Channel: 9 
Note on, A3 key =  57;WhichDrum: T3 ; velocity: 0
@44640 , @2.3538372093023257 Channel: 9 
Note on, C2 key =  36;WhichDrum: B ; velocity: 0
@44640 , @2.3538372093023257 Channel: 9 
Note on, A3 key =  57;WhichDrum: T3 ; velocity: 127
@44640 , @2.3538372093023257 Channel: 9 
Note on, C2 key =  36;WhichDrum: B ; velocity: 127
@44700 , @2.357000968992248 Channel: 9 
Note on, A3 key =  57;WhichDrum: T3 ; velocity: 0
@44700 , @2.357000968992248 Channel: 9 
Note on, B3 key =  59;WhichDrum: T1 ; velocity: 127
@44760 , @2.3601647286821703 Channel: 9 
Note on, C2 key =  36;WhichDrum: B ; velocity: 0
@44760 , @2.3601647286821703 Channel: 9 
Note on, B3 key =  59;WhichDrum: T1 ; velocity: 0
@44760 , @2.3601647286821703 Channel: 9 
Note on, D2 key =  38;WhichDrum: T2 ; velocity: 127
@44760 , @2.3601647286821703 Channel: 9 
Note on, B3 key =  59;WhichDrum: T1 ; velocity: 127
@44820 , @2.363328488372093 Channel: 9 
Note on, D2 key =  38;WhichDrum: T2 ; velocity: 0
@44820 , @2.363328488372093 Channel: 9 
Note on, B3 key =  59;WhichDrum: T1 ; velocity: 0
@44820 , @2.363328488372093 Channel: 9 
Note on, B3 key =  59;WhichDrum: T1 ; velocity: 127
@44880 , @2.3664922480620154 Channel: 9 
Note on, B3 key =  59;WhichDrum: T1 ; velocity: 0
@44880 , @2.3664922480620154 Channel: 9 
Note on, B3 key =  59;WhichDrum: T1 ; velocity: 127
@44880 , @2.3664922480620154 Channel: 9 
Note on, C2 key =  36;WhichDrum: B ; velocity: 127
@44940 , @2.3696560077519377 Channel: 9 
Note on, B3 key =  59;WhichDrum: T1 ; velocity: 0
@44940 , @2.3696560077519377 Channel: 9 
Note on, A2 key =  45;WhichDrum: T3 ; velocity: 127
@44970 , @2.3712378875968994 Channel: 9 
Note on, A2 key =  45;WhichDrum: T3 ; velocity: 0
@44970 , @2.3712378875968994 Channel: 9 
Note on, A2 key =  45;WhichDrum: T3 ; velocity: 127
@45000 , @2.3728197674418605 Channel: 9 
Note on, C2 key =  36;WhichDrum: B ; velocity: 0
@45000 , @2.3728197674418605 Channel: 9 
Note on, A2 key =  45;WhichDrum: T3 ; velocity: 0
@45000 , @2.3728197674418605 Channel: 9 
Note on, A3 key =  57;WhichDrum: T3 ; velocity: 127
@45000 , @2.3728197674418605 Channel: 9 
Note on, C2 key =  36;WhichDrum: B ; velocity: 127
@45060 , @2.375983527131783 Channel: 9 
Note on, A3 key =  57;WhichDrum: T3 ; velocity: 0
@45060 , @2.375983527131783 Channel: 9 
Note on, C2 key =  36;WhichDrum: B ; velocity: 0
@45060 , @2.375983527131783 Channel: 9 
Note on, A3 key =  57;WhichDrum: T3 ; velocity: 127
@45060 , @2.375983527131783 Channel: 9 
Note on, C2 key =  36;WhichDrum: B ; velocity: 127
@45120 , @2.379147286821705 Channel: 9 
Note on, A3 key =  57;WhichDrum: T3 ; velocity: 0
@45120 , @2.379147286821705 Channel: 9 
Note on, C2 key =  36;WhichDrum: B ; velocity: 0
@45120 , @2.379147286821705 Channel: 9 
Note on, A3 key =  57;WhichDrum: T3 ; velocity: 127
@45120 , @2.379147286821705 Channel: 9 
Note on, C2 key =  36;WhichDrum: B ; velocity: 127
@45180 , @2.382311046511628 Channel: 9 
Note on, A3 key =  57;WhichDrum: T3 ; velocity: 0
@45180 , @2.382311046511628 Channel: 9 
Note on, B3 key =  59;WhichDrum: T1 ; velocity: 127
@45240 , @2.3854748062015503 Channel: 9 
Note on, C2 key =  36;WhichDrum: B ; velocity: 0
@45240 , @2.3854748062015503 Channel: 9 
Note on, B3 key =  59;WhichDrum: T1 ; velocity: 0
@45240 , @2.3854748062015503 Channel: 9 
Note on, D2 key =  38;WhichDrum: T2 ; velocity: 127
@45240 , @2.3854748062015503 Channel: 9 
Note on, B3 key =  59;WhichDrum: T1 ; velocity: 127
@45300 , @2.388638565891473 Channel: 9 
Note on, D2 key =  38;WhichDrum: T2 ; velocity: 0
@45300 , @2.388638565891473 Channel: 9 
Note on, B3 key =  59;WhichDrum: T1 ; velocity: 0
@45300 , @2.388638565891473 Channel: 9 
Note on, B3 key =  59;WhichDrum: T1 ; velocity: 127
@45360 , @2.3918023255813954 Channel: 9 
Note on, B3 key =  59;WhichDrum: T1 ; velocity: 0
@45360 , @2.3918023255813954 Channel: 9 
Note on, B3 key =  59;WhichDrum: T1 ; velocity: 127
@45360 , @2.3918023255813954 Channel: 9 
Note on, C2 key =  36;WhichDrum: B ; velocity: 127
@45420 , @2.3949660852713177 Channel: 9 
Note on, B3 key =  59;WhichDrum: T1 ; velocity: 0
@45420 , @2.3949660852713177 Channel: 9 
Note on, A2 key =  45;WhichDrum: T3 ; velocity: 127
@45450 , @2.396547965116279 Channel: 9 
Note on, A2 key =  45;WhichDrum: T3 ; velocity: 0
@45450 , @2.396547965116279 Channel: 9 
Note on, A2 key =  45;WhichDrum: T3 ; velocity: 127
@45480 , @2.3981298449612405 Channel: 9 
Note on, C2 key =  36;WhichDrum: B ; velocity: 0
@45480 , @2.3981298449612405 Channel: 9 
Note on, A2 key =  45;WhichDrum: T3 ; velocity: 0
@45480 , @2.3981298449612405 Channel: 9 
Note on, A3 key =  57;WhichDrum: T3 ; velocity: 127
@45480 , @2.3981298449612405 Channel: 9 
Note on, C2 key =  36;WhichDrum: B ; velocity: 127
@45540 , @2.401293604651163 Channel: 9 
Note on, A3 key =  57;WhichDrum: T3 ; velocity: 0
@45540 , @2.401293604651163 Channel: 9 
Note on, C2 key =  36;WhichDrum: B ; velocity: 0
@45540 , @2.401293604651163 Channel: 9 
Note on, A3 key =  57;WhichDrum: T3 ; velocity: 127
@45540 , @2.401293604651163 Channel: 9 
Note on, C2 key =  36;WhichDrum: B ; velocity: 127
@45600 , @2.404457364341085 Channel: 9 
Note on, A3 key =  57;WhichDrum: T3 ; velocity: 0
@45600 , @2.404457364341085 Channel: 9 
Note on, C2 key =  36;WhichDrum: B ; velocity: 0
@45600 , @2.404457364341085 Channel: 9 
Note on, C2 key =  36;WhichDrum: B ; velocity: 127
@45600 , @2.404457364341085 Channel: 9 
Note on, A3 key =  57;WhichDrum: T3 ; velocity: 127
@45660 , @2.407621124031008 Channel: 9 
Note on, A3 key =  57;WhichDrum: T3 ; velocity: 0
@45660 , @2.407621124031008 Channel: 9 
Note on, D2 key =  38;WhichDrum: T2 ; velocity: 127
@45690 , @2.409203003875969 Channel: 9 
Note on, D2 key =  38;WhichDrum: T2 ; velocity: 0
@45690 , @2.409203003875969 Channel: 9 
Note on, D2 key =  38;WhichDrum: T2 ; velocity: 127
@45720 , @2.4107848837209302 Channel: 9 
Note on, C2 key =  36;WhichDrum: B ; velocity: 0
@45720 , @2.4107848837209302 Channel: 9 
Note on, D2 key =  38;WhichDrum: T2 ; velocity: 0
@45720 , @2.4107848837209302 Channel: 9 
Note on, D2 key =  38;WhichDrum: T2 ; velocity: 127
@45780 , @2.4139486434108526 Channel: 9 
Note on, D2 key =  38;WhichDrum: T2 ; velocity: 0
@45780 , @2.4139486434108526 Channel: 9 
Note on, D2 key =  38;WhichDrum: T2 ; velocity: 127
@45810 , @2.415530523255814 Channel: 9 
Note on, D2 key =  38;WhichDrum: T2 ; velocity: 0
@45810 , @2.415530523255814 Channel: 9 
Note on, D2 key =  38;WhichDrum: T2 ; velocity: 127
@45840 , @2.4171124031007754 Channel: 9 
Note on, D2 key =  38;WhichDrum: T2 ; velocity: 0
@45840 , @2.4171124031007754 Channel: 9 
Note on, D2 key =  38;WhichDrum: T2 ; velocity: 127
@45900 , @2.4202761627906977 Channel: 9 
Note on, D2 key =  38;WhichDrum: T2 ; velocity: 0
@45900 , @2.4202761627906977 Channel: 9 
Note on, D2 key =  38;WhichDrum: T2 ; velocity: 127
@45930 , @2.421858042635659 Channel: 9 
Note on, D2 key =  38;WhichDrum: T2 ; velocity: 0
@45930 , @2.421858042635659 Channel: 9 
Note on, D2 key =  38;WhichDrum: T2 ; velocity: 127
@45960 , @2.42343992248062 Channel: 9 
Note on, D2 key =  38;WhichDrum: T2 ; velocity: 0
@45960 , @2.42343992248062 Channel: 9 
Note on, D2 key =  38;WhichDrum: T2 ; velocity: 127
@46020 , @2.426603682170543 Channel: 9 
Note on, D2 key =  38;WhichDrum: T2 ; velocity: 0
@46020 , @2.426603682170543 Channel: 9 
Note on, D2 key =  38;WhichDrum: T2 ; velocity: 127
@46080 , @2.429767441860465 Channel: 9 
Note on, D2 key =  38;WhichDrum: T2 ; velocity: 0
@46080 , @2.429767441860465 Channel: 9 
Note on, A3 key =  57;WhichDrum: T3 ; velocity: 127
@46080 , @2.429767441860465 Channel: 9 
Note on, C2 key =  36;WhichDrum: B ; velocity: 127
@46140 , @2.4329312015503874 Channel: 9 
Note on, A3 key =  57;WhichDrum: T3 ; velocity: 0
@46140 , @2.4329312015503874 Channel: 9 
Note on, D2 key =  38;WhichDrum: T2 ; velocity: 127
@46170 , @2.434513081395349 Channel: 9 
Note on, D2 key =  38;WhichDrum: T2 ; velocity: 0
@46170 , @2.434513081395349 Channel: 9 
Note on, D2 key =  38;WhichDrum: T2 ; velocity: 127
@46200 , @2.43609496124031 Channel: 9 
Note on, C2 key =  36;WhichDrum: B ; velocity: 0
@46200 , @2.43609496124031 Channel: 9 
Note on, D2 key =  38;WhichDrum: T2 ; velocity: 0
@46200 , @2.43609496124031 Channel: 9 
Note on, D2 key =  38;WhichDrum: T2 ; velocity: 127
@46260 , @2.4392587209302325 Channel: 9 
Note on, D2 key =  38;WhichDrum: T2 ; velocity: 0
@46260 , @2.4392587209302325 Channel: 9 
Note on, D2 key =  38;WhichDrum: T2 ; velocity: 127
@46290 , @2.4408406007751937 Channel: 9 
Note on, D2 key =  38;WhichDrum: T2 ; velocity: 0
@46290 , @2.4408406007751937 Channel: 9 
Note on, D2 key =  38;WhichDrum: T2 ; velocity: 127
@46320 , @2.4424224806201553 Channel: 9 
Note on, D2 key =  38;WhichDrum: T2 ; velocity: 0
@46320 , @2.4424224806201553 Channel: 9 
Note on, A2 key =  45;WhichDrum: T3 ; velocity: 127
@46380 , @2.4455862403100777 Channel: 9 
Note on, A2 key =  45;WhichDrum: T3 ; velocity: 0
@46380 , @2.4455862403100777 Channel: 9 
Note on, A2 key =  45;WhichDrum: T3 ; velocity: 127
@46410 , @2.447168120155039 Channel: 9 
Note on, A2 key =  45;WhichDrum: T3 ; velocity: 0
@46410 , @2.447168120155039 Channel: 9 
Note on, A2 key =  45;WhichDrum: T3 ; velocity: 127
@46440 , @2.44875 Channel: 9 
Note on, A2 key =  45;WhichDrum: T3 ; velocity: 0
@46440 , @2.44875 Channel: 9 
Note on, B2 key =  47;WhichDrum: T1 ; velocity: 127
@46500 , @2.4519137596899228 Channel: 9 
Note on, B2 key =  47;WhichDrum: T1 ; velocity: 0
@46500 , @2.4519137596899228 Channel: 9 
Note on, B2 key =  47;WhichDrum: T1 ; velocity: 127
@46560 , @2.455077519379845 Channel: 9 
Note on, B2 key =  47;WhichDrum: T1 ; velocity: 0
@46560 , @2.455077519379845 Channel: 9 
Note on, A3 key =  57;WhichDrum: T3 ; velocity: 127
@46560 , @2.455077519379845 Channel: 9 
Note on, C2 key =  36;WhichDrum: B ; velocity: 127
@46620 , @2.4582412790697674 Channel: 9 
Note on, A3 key =  57;WhichDrum: T3 ; velocity: 0
@46620 , @2.4582412790697674 Channel: 9 
Note on, F#2 key =  42;WhichDrum: C1 ; velocity: 127
@46680 , @2.46140503875969 Channel: 9 
Note on, C2 key =  36;WhichDrum: B ; velocity: 0
@46680 , @2.46140503875969 Channel: 9 
Note on, F#2 key =  42;WhichDrum: C1 ; velocity: 0
@46680 , @2.46140503875969 Channel: 9 
Note on, D2 key =  38;WhichDrum: T2 ; velocity: 127
@46680 , @2.46140503875969 Channel: 9 
Note on, F#2 key =  42;WhichDrum: C1 ; velocity: 127
@46740 , @2.4645687984496125 Channel: 9 
Note on, D2 key =  38;WhichDrum: T2 ; velocity: 0
@46740 , @2.4645687984496125 Channel: 9 
Note on, F#2 key =  42;WhichDrum: C1 ; velocity: 0
@46740 , @2.4645687984496125 Channel: 9 
Note on, F#2 key =  42;WhichDrum: C1 ; velocity: 127
@46800 , @2.467732558139535 Channel: 9 
Note on, F#2 key =  42;WhichDrum: C1 ; velocity: 0
@46800 , @2.467732558139535 Channel: 9 
Note on, C2 key =  36;WhichDrum: B ; velocity: 127
@46800 , @2.467732558139535 Channel: 9 
Note on, F#2 key =  42;WhichDrum: C1 ; velocity: 127
@46860 , @2.4708963178294576 Channel: 9 
Note on, C2 key =  36;WhichDrum: B ; velocity: 0
@46860 , @2.4708963178294576 Channel: 9 
Note on, F#2 key =  42;WhichDrum: C1 ; velocity: 0
@46860 , @2.4708963178294576 Channel: 9 
Note on, C2 key =  36;WhichDrum: B ; velocity: 127
@46860 , @2.4708963178294576 Channel: 9 
Note on, F#2 key =  42;WhichDrum: C1 ; velocity: 127
@46880 , @2.471950904392765 Channel: 9 
Note on, C2 key =  36;WhichDrum: B ; velocity: 0
@46880 , @2.471950904392765 Channel: 9 
Note on, C2 key =  36;WhichDrum: B ; velocity: 127
@46900 , @2.4730054909560724 Channel: 9 
Note on, C2 key =  36;WhichDrum: B ; velocity: 0
@46900 , @2.4730054909560724 Channel: 9 
Note on, C2 key =  36;WhichDrum: B ; velocity: 127
@46920 , @2.47406007751938 Channel: 9 
Note on, F#2 key =  42;WhichDrum: C1 ; velocity: 0
@46920 , @2.47406007751938 Channel: 9 
Note on, C2 key =  36;WhichDrum: B ; velocity: 0
@46920 , @2.47406007751938 Channel: 9 
Note on, D2 key =  38;WhichDrum: T2 ; velocity: 127
@46920 , @2.47406007751938 Channel: 9 
Note on, F#2 key =  42;WhichDrum: C1 ; velocity: 127
@46980 , @2.4772238372093023 Channel: 9 
Note on, D2 key =  38;WhichDrum: T2 ; velocity: 0
@46980 , @2.4772238372093023 Channel: 9 
Note on, F#2 key =  42;WhichDrum: C1 ; velocity: 0
@46980 , @2.4772238372093023 Channel: 9 
Note on, F#2 key =  42;WhichDrum: C1 ; velocity: 127
@47040 , @2.480387596899225 Channel: 9 
Note on, F#2 key =  42;WhichDrum: C1 ; velocity: 0
@47040 , @2.480387596899225 Channel: 9 
Note on, C2 key =  36;WhichDrum: B ; velocity: 127
@47040 , @2.480387596899225 Channel: 9 
Note on, A3 key =  57;WhichDrum: T3 ; velocity: 127
@47100 , @2.4835513565891474 Channel: 9 
Note on, A3 key =  57;WhichDrum: T3 ; velocity: 0
@47100 , @2.4835513565891474 Channel: 9 
Note on, F#2 key =  42;WhichDrum: C1 ; velocity: 127
@47160 , @2.4867151162790697 Channel: 9 
Note on, C2 key =  36;WhichDrum: B ; velocity: 0
@47160 , @2.4867151162790697 Channel: 9 
Note on, F#2 key =  42;WhichDrum: C1 ; velocity: 0
@47160 , @2.4867151162790697 Channel: 9 
Note on, D2 key =  38;WhichDrum: T2 ; velocity: 127
@47160 , @2.4867151162790697 Channel: 9 
Note on, F#2 key =  42;WhichDrum: C1 ; velocity: 127
@47220 , @2.4898788759689925 Channel: 9 
Note on, D2 key =  38;WhichDrum: T2 ; velocity: 0
@47220 , @2.4898788759689925 Channel: 9 
Note on, F#2 key =  42;WhichDrum: C1 ; velocity: 0
@47220 , @2.4898788759689925 Channel: 9 
Note on, F#2 key =  42;WhichDrum: C1 ; velocity: 127
@47280 , @2.493042635658915 Channel: 9 
Note on, F#2 key =  42;WhichDrum: C1 ; velocity: 0
@47280 , @2.493042635658915 Channel: 9 
Note on, D2 key =  38;WhichDrum: T2 ; velocity: 127
@47310 , @2.494624515503876 Channel: 9 
Note on, D2 key =  38;WhichDrum: T2 ; velocity: 0
@47310 , @2.494624515503876 Channel: 9 
Note on, D2 key =  38;WhichDrum: T2 ; velocity: 127
@47340 , @2.4962063953488376 Channel: 9 
Note on, D2 key =  38;WhichDrum: T2 ; velocity: 0
@47340 , @2.4962063953488376 Channel: 9 
Note on, D2 key =  38;WhichDrum: T2 ; velocity: 127
@47400 , @2.49937015503876 Channel: 9 
Note on, D2 key =  38;WhichDrum: T2 ; velocity: 0
@47400 , @2.49937015503876 Channel: 9 
Note on, A2 key =  45;WhichDrum: T3 ; velocity: 127
@47430 , @2.500952034883721 Channel: 9 
Note on, A2 key =  45;WhichDrum: T3 ; velocity: 0
@47430 , @2.500952034883721 Channel: 9 
Note on, A2 key =  45;WhichDrum: T3 ; velocity: 127
@47460 , @2.5025339147286823 Channel: 9 
Note on, A2 key =  45;WhichDrum: T3 ; velocity: 0
@47460 , @2.5025339147286823 Channel: 9 
Note on, A2 key =  45;WhichDrum: T3 ; velocity: 127
@47520 , @2.505697674418605 Channel: 9 
Note on, A2 key =  45;WhichDrum: T3 ; velocity: 0
@47520 , @2.505697674418605 Channel: 9 
Note on, A3 key =  57;WhichDrum: T3 ; velocity: 127
@47520 , @2.505697674418605 Channel: 9 
Note on, C2 key =  36;WhichDrum: B ; velocity: 127
@47580 , @2.5088614341085274 Channel: 9 
Note on, A3 key =  57;WhichDrum: T3 ; velocity: 0
@47580 , @2.5088614341085274 Channel: 9 
Note on, F#2 key =  42;WhichDrum: C1 ; velocity: 127
@47640 , @2.5120251937984497 Channel: 9 
Note on, C2 key =  36;WhichDrum: B ; velocity: 0
@47640 , @2.5120251937984497 Channel: 9 
Note on, F#2 key =  42;WhichDrum: C1 ; velocity: 0
@47640 , @2.5120251937984497 Channel: 9 
Note on, D2 key =  38;WhichDrum: T2 ; velocity: 127
@47640 , @2.5120251937984497 Channel: 9 
Note on, F#2 key =  42;WhichDrum: C1 ; velocity: 127
@47700 , @2.5151889534883725 Channel: 9 
Note on, D2 key =  38;WhichDrum: T2 ; velocity: 0
@47700 , @2.5151889534883725 Channel: 9 
Note on, F#2 key =  42;WhichDrum: C1 ; velocity: 0
@47700 , @2.5151889534883725 Channel: 9 
Note on, F#2 key =  42;WhichDrum: C1 ; velocity: 127
@47760 , @2.518352713178295 Channel: 9 
Note on, F#2 key =  42;WhichDrum: C1 ; velocity: 0
@47760 , @2.518352713178295 Channel: 9 
Note on, F#2 key =  42;WhichDrum: C1 ; velocity: 127
@47760 , @2.518352713178295 Channel: 9 
Note on, C2 key =  36;WhichDrum: B ; velocity: 127
@47820 , @2.521516472868217 Channel: 9 
Note on, F#2 key =  42;WhichDrum: C1 ; velocity: 0
@47820 , @2.521516472868217 Channel: 9 
Note on, F#2 key =  42;WhichDrum: C1 ; velocity: 127
@47880 , @2.52468023255814 Channel: 9 
Note on, C2 key =  36;WhichDrum: B ; velocity: 0
@47880 , @2.52468023255814 Channel: 9 
Note on, F#2 key =  42;WhichDrum: C1 ; velocity: 0
@47880 , @2.52468023255814 Channel: 9 
Note on, D2 key =  38;WhichDrum: T2 ; velocity: 127
@47880 , @2.52468023255814 Channel: 9 
Note on, F#2 key =  42;WhichDrum: C1 ; velocity: 127
@47940 , @2.527843992248062 Channel: 9 
Note on, D2 key =  38;WhichDrum: T2 ; velocity: 0
@47940 , @2.527843992248062 Channel: 9 
Note on, F#2 key =  42;WhichDrum: C1 ; velocity: 0
@47940 , @2.527843992248062 Channel: 9 
Note on, F#2 key =  42;WhichDrum: C1 ; velocity: 127
@48000 , @2.5310077519379846 Channel: 9 
Note on, F#2 key =  42;WhichDrum: C1 ; velocity: 0
@48000 , @2.5310077519379846 Channel: 9 
Note on, C2 key =  36;WhichDrum: B ; velocity: 127
@48000 , @2.5310077519379846 Channel: 9 
Note on, F#2 key =  42;WhichDrum: C1 ; velocity: 127
@48060 , @2.5341715116279073 Channel: 9 
Note on, C2 key =  36;WhichDrum: B ; velocity: 0
@48060 , @2.5341715116279073 Channel: 9 
Note on, F#2 key =  42;WhichDrum: C1 ; velocity: 0
@48060 , @2.5341715116279073 Channel: 9 
Note on, C2 key =  36;WhichDrum: B ; velocity: 127
@48060 , @2.5341715116279073 Channel: 9 
Note on, F#2 key =  42;WhichDrum: C1 ; velocity: 127
@48080 , @2.5352260981912145 Channel: 9 
Note on, C2 key =  36;WhichDrum: B ; velocity: 0
@48080 , @2.5352260981912145 Channel: 9 
Note on, C2 key =  36;WhichDrum: B ; velocity: 127
@48100 , @2.536280684754522 Channel: 9 
Note on, C2 key =  36;WhichDrum: B ; velocity: 0
@48100 , @2.536280684754522 Channel: 9 
Note on, C2 key =  36;WhichDrum: B ; velocity: 127
@48120 , @2.5373352713178297 Channel: 9 
Note on, F#2 key =  42;WhichDrum: C1 ; velocity: 0
@48120 , @2.5373352713178297 Channel: 9 
Note on, C2 key =  36;WhichDrum: B ; velocity: 0
@48120 , @2.5373352713178297 Channel: 9 
Note on, D2 key =  38;WhichDrum: T2 ; velocity: 127
@48120 , @2.5373352713178297 Channel: 9 
Note on, F#2 key =  42;WhichDrum: C1 ; velocity: 127
@48180 , @2.540499031007752 Channel: 9 
Note on, D2 key =  38;WhichDrum: T2 ; velocity: 0
@48180 , @2.540499031007752 Channel: 9 
Note on, F#2 key =  42;WhichDrum: C1 ; velocity: 0
@48180 , @2.540499031007752 Channel: 9 
Note on, C2 key =  36;WhichDrum: B ; velocity: 127
@48180 , @2.540499031007752 Channel: 9 
Note on, F#2 key =  42;WhichDrum: C1 ; velocity: 127
@48200 , @2.5415536175710596 Channel: 9 
Note on, C2 key =  36;WhichDrum: B ; velocity: 0
@48200 , @2.5415536175710596 Channel: 9 
Note on, C2 key =  36;WhichDrum: B ; velocity: 127
@48220 , @2.542608204134367 Channel: 9 
Note on, C2 key =  36;WhichDrum: B ; velocity: 0
@48220 , @2.542608204134367 Channel: 9 
Note on, C2 key =  36;WhichDrum: B ; velocity: 127
@48240 , @2.5436627906976748 Channel: 9 
Note on, F#2 key =  42;WhichDrum: C1 ; velocity: 0
@48240 , @2.5436627906976748 Channel: 9 
Note on, C2 key =  36;WhichDrum: B ; velocity: 0
@48240 , @2.5436627906976748 Channel: 9 
Note on, D2 key =  38;WhichDrum: T2 ; velocity: 127
@48240 , @2.5436627906976748 Channel: 9 
Note on, F#2 key =  42;WhichDrum: C1 ; velocity: 127
@48300 , @2.546826550387597 Channel: 9 
Note on, D2 key =  38;WhichDrum: T2 ; velocity: 0
@48300 , @2.546826550387597 Channel: 9 
Note on, F#2 key =  42;WhichDrum: C1 ; velocity: 0
@48300 , @2.546826550387597 Channel: 9 
Note on, C2 key =  36;WhichDrum: B ; velocity: 127
@48300 , @2.546826550387597 Channel: 9 
Note on, F#2 key =  42;WhichDrum: C1 ; velocity: 127
@48320 , @2.5478811369509042 Channel: 9 
Note on, C2 key =  36;WhichDrum: B ; velocity: 0
@48320 , @2.5478811369509042 Channel: 9 
Note on, C2 key =  36;WhichDrum: B ; velocity: 127
@48340 , @2.548935723514212 Channel: 9 
Note on, C2 key =  36;WhichDrum: B ; velocity: 0
@48340 , @2.548935723514212 Channel: 9 
Note on, C2 key =  36;WhichDrum: B ; velocity: 127
@48360 , @2.54999031007752 Channel: 9 
Note on, F#2 key =  42;WhichDrum: C1 ; velocity: 0
@48360 , @2.54999031007752 Channel: 9 
Note on, C2 key =  36;WhichDrum: B ; velocity: 0
@48360 , @2.54999031007752 Channel: 9 
Note on, D2 key =  38;WhichDrum: T2 ; velocity: 127
@48360 , @2.54999031007752 Channel: 9 
Note on, F#2 key =  42;WhichDrum: C1 ; velocity: 127
@48420 , @2.5531540697674417 Channel: 9 
Note on, D2 key =  38;WhichDrum: T2 ; velocity: 0
@48420 , @2.5531540697674417 Channel: 9 
Note on, F#2 key =  42;WhichDrum: C1 ; velocity: 0
@48420 , @2.5531540697674417 Channel: 9 
Note on, C2 key =  36;WhichDrum: B ; velocity: 127
@48420 , @2.5531540697674417 Channel: 9 
Note on, F#2 key =  42;WhichDrum: C1 ; velocity: 127
@48480 , @2.556317829457364 Channel: 9 
Note on, C2 key =  36;WhichDrum: B ; velocity: 0
@48480 , @2.556317829457364 Channel: 9 
Note on, F#2 key =  42;WhichDrum: C1 ; velocity: 0
@48480 , @2.556317829457364 Channel: 9 
Note on, A3 key =  57;WhichDrum: T3 ; velocity: 127
@48480 , @2.556317829457364 Channel: 9 
Note on, C2 key =  36;WhichDrum: B ; velocity: 127
@48540 , @2.559481589147287 Channel: 9 
Note on, A3 key =  57;WhichDrum: T3 ; velocity: 0
@48540 , @2.559481589147287 Channel: 9 
Note on, F#2 key =  42;WhichDrum: C1 ; velocity: 127
@48600 , @2.562645348837209 Channel: 9 
Note on, C2 key =  36;WhichDrum: B ; velocity: 0
@48600 , @2.562645348837209 Channel: 9 
Note on, F#2 key =  42;WhichDrum: C1 ; velocity: 0
@48600 , @2.562645348837209 Channel: 9 
Note on, D2 key =  38;WhichDrum: T2 ; velocity: 127
@48600 , @2.562645348837209 Channel: 9 
Note on, F#2 key =  42;WhichDrum: C1 ; velocity: 127
@48660 , @2.5658091085271315 Channel: 9 
Note on, D2 key =  38;WhichDrum: T2 ; velocity: 0
@48660 , @2.5658091085271315 Channel: 9 
Note on, F#2 key =  42;WhichDrum: C1 ; velocity: 0
@48660 , @2.5658091085271315 Channel: 9 
Note on, F#2 key =  42;WhichDrum: C1 ; velocity: 127
@48720 , @2.5689728682170543 Channel: 9 
Note on, F#2 key =  42;WhichDrum: C1 ; velocity: 0
@48720 , @2.5689728682170543 Channel: 9 
Note on, F#2 key =  42;WhichDrum: C1 ; velocity: 127
@48720 , @2.5689728682170543 Channel: 9 
Note on, C2 key =  36;WhichDrum: B ; velocity: 127
@48780 , @2.5721366279069766 Channel: 9 
Note on, F#2 key =  42;WhichDrum: C1 ; velocity: 0
@48780 , @2.5721366279069766 Channel: 9 
Note on, C2 key =  36;WhichDrum: B ; velocity: 0
@48780 , @2.5721366279069766 Channel: 9 
Note on, F#2 key =  42;WhichDrum: C1 ; velocity: 127
@48780 , @2.5721366279069766 Channel: 9 
Note on, C2 key =  36;WhichDrum: B ; velocity: 127
@48800 , @2.573191214470284 Channel: 9 
Note on, C2 key =  36;WhichDrum: B ; velocity: 0
@48800 , @2.573191214470284 Channel: 9 
Note on, C2 key =  36;WhichDrum: B ; velocity: 127
@48820 , @2.574245801033592 Channel: 9 
Note on, C2 key =  36;WhichDrum: B ; velocity: 0
@48820 , @2.574245801033592 Channel: 9 
Note on, C2 key =  36;WhichDrum: B ; velocity: 127
@48840 , @2.5753003875968994 Channel: 9 
Note on, F#2 key =  42;WhichDrum: C1 ; velocity: 0
@48840 , @2.5753003875968994 Channel: 9 
Note on, C2 key =  36;WhichDrum: B ; velocity: 0
@48840 , @2.5753003875968994 Channel: 9 
Note on, D2 key =  38;WhichDrum: T2 ; velocity: 127
@48840 , @2.5753003875968994 Channel: 9 
Note on, F#2 key =  42;WhichDrum: C1 ; velocity: 127
@48900 , @2.5784641472868217 Channel: 9 
Note on, D2 key =  38;WhichDrum: T2 ; velocity: 0
@48900 , @2.5784641472868217 Channel: 9 
Note on, F#2 key =  42;WhichDrum: C1 ; velocity: 0
@48900 , @2.5784641472868217 Channel: 9 
Note on, F#2 key =  42;WhichDrum: C1 ; velocity: 127
@48900 , @2.5784641472868217 Channel: 9 
Note on, C2 key =  36;WhichDrum: B ; velocity: 127
@48960 , @2.581627906976744 Channel: 9 
Note on, F#2 key =  42;WhichDrum: C1 ; velocity: 0
@48960 , @2.581627906976744 Channel: 9 
Note on, C2 key =  36;WhichDrum: B ; velocity: 0
@48960 , @2.581627906976744 Channel: 9 
Note on, C2 key =  36;WhichDrum: B ; velocity: 127
@48960 , @2.581627906976744 Channel: 9 
Note on, A3 key =  57;WhichDrum: T3 ; velocity: 127
@49020 , @2.584791666666667 Channel: 9 
Note on, A3 key =  57;WhichDrum: T3 ; velocity: 0
@49020 , @2.584791666666667 Channel: 9 
Note on, F#2 key =  42;WhichDrum: C1 ; velocity: 127
@49080 , @2.587955426356589 Channel: 9 
Note on, C2 key =  36;WhichDrum: B ; velocity: 0
@49080 , @2.587955426356589 Channel: 9 
Note on, F#2 key =  42;WhichDrum: C1 ; velocity: 0
@49080 , @2.587955426356589 Channel: 9 
Note on, D2 key =  38;WhichDrum: T2 ; velocity: 127
@49080 , @2.587955426356589 Channel: 9 
Note on, F#2 key =  42;WhichDrum: C1 ; velocity: 127
@49140 , @2.5911191860465115 Channel: 9 
Note on, D2 key =  38;WhichDrum: T2 ; velocity: 0
@49140 , @2.5911191860465115 Channel: 9 
Note on, F#2 key =  42;WhichDrum: C1 ; velocity: 0
@49140 , @2.5911191860465115 Channel: 9 
Note on, F#2 key =  42;WhichDrum: C1 ; velocity: 127
@49200 , @2.5942829457364343 Channel: 9 
Note on, F#2 key =  42;WhichDrum: C1 ; velocity: 0
@49200 , @2.5942829457364343 Channel: 9 
Note on, A2 key =  45;WhichDrum: T3 ; velocity: 127
@49260 , @2.5974467054263566 Channel: 9 
Note on, A2 key =  45;WhichDrum: T3 ; velocity: 0
@49260 , @2.5974467054263566 Channel: 9 
Note on, A2 key =  45;WhichDrum: T3 ; velocity: 127
@49320 , @2.600610465116279 Channel: 9 
Note on, A2 key =  45;WhichDrum: T3 ; velocity: 0
@49320 , @2.600610465116279 Channel: 9 
Note on, B2 key =  47;WhichDrum: T1 ; velocity: 127
@49350 , @2.6021923449612405 Channel: 9 
Note on, B2 key =  47;WhichDrum: T1 ; velocity: 0
@49350 , @2.6021923449612405 Channel: 9 
Note on, B2 key =  47;WhichDrum: T1 ; velocity: 127
@49380 , @2.6037742248062017 Channel: 9 
Note on, B2 key =  47;WhichDrum: T1 ; velocity: 0
@49380 , @2.6037742248062017 Channel: 9 
Note on, B2 key =  47;WhichDrum: T1 ; velocity: 127
@49410 , @2.605356104651163 Channel: 9 
Note on, B2 key =  47;WhichDrum: T1 ; velocity: 0
@49410 , @2.605356104651163 Channel: 9 
Note on, B2 key =  47;WhichDrum: T1 ; velocity: 127
@49440 , @2.606937984496124 Channel: 9 
Note on, B2 key =  47;WhichDrum: T1 ; velocity: 0
@49440 , @2.606937984496124 Channel: 9 
Note on, A3 key =  57;WhichDrum: T3 ; velocity: 127
@49440 , @2.606937984496124 Channel: 9 
Note on, C2 key =  36;WhichDrum: B ; velocity: 127
@49500 , @2.6101017441860463 Channel: 9 
Note on, A3 key =  57;WhichDrum: T3 ; velocity: 0
@49500 , @2.6101017441860463 Channel: 9 
Note on, F#2 key =  42;WhichDrum: C1 ; velocity: 127
@49560 , @2.613265503875969 Channel: 9 
Note on, C2 key =  36;WhichDrum: B ; velocity: 0
@49560 , @2.613265503875969 Channel: 9 
Note on, F#2 key =  42;WhichDrum: C1 ; velocity: 0
@49560 , @2.613265503875969 Channel: 9 
Note on, D2 key =  38;WhichDrum: T2 ; velocity: 127
@49560 , @2.613265503875969 Channel: 9 
Note on, F#2 key =  42;WhichDrum: C1 ; velocity: 127
@49620 , @2.6164292635658914 Channel: 9 
Note on, D2 key =  38;WhichDrum: T2 ; velocity: 0
@49620 , @2.6164292635658914 Channel: 9 
Note on, F#2 key =  42;WhichDrum: C1 ; velocity: 0
@49620 , @2.6164292635658914 Channel: 9 
Note on, F#2 key =  42;WhichDrum: C1 ; velocity: 127
@49680 , @2.619593023255814 Channel: 9 
Note on, F#2 key =  42;WhichDrum: C1 ; velocity: 0
@49680 , @2.619593023255814 Channel: 9 
Note on, F#2 key =  42;WhichDrum: C1 ; velocity: 127
@49680 , @2.619593023255814 Channel: 9 
Note on, C2 key =  36;WhichDrum: B ; velocity: 127
@49740 , @2.6227567829457366 Channel: 9 
Note on, F#2 key =  42;WhichDrum: C1 ; velocity: 0
@49740 , @2.6227567829457366 Channel: 9 
Note on, F#2 key =  42;WhichDrum: C1 ; velocity: 127
@49800 , @2.625920542635659 Channel: 9 
Note on, C2 key =  36;WhichDrum: B ; velocity: 0
@49800 , @2.625920542635659 Channel: 9 
Note on, F#2 key =  42;WhichDrum: C1 ; velocity: 0
@49800 , @2.625920542635659 Channel: 9 
Note on, D2 key =  38;WhichDrum: T2 ; velocity: 127
@49800 , @2.625920542635659 Channel: 9 
Note on, F#2 key =  42;WhichDrum: C1 ; velocity: 127
@49860 , @2.6290843023255817 Channel: 9 
Note on, D2 key =  38;WhichDrum: T2 ; velocity: 0
@49860 , @2.6290843023255817 Channel: 9 
Note on, F#2 key =  42;WhichDrum: C1 ; velocity: 0
@49860 , @2.6290843023255817 Channel: 9 
Note on, F#2 key =  42;WhichDrum: C1 ; velocity: 127
@49920 , @2.632248062015504 Channel: 9 
Note on, F#2 key =  42;WhichDrum: C1 ; velocity: 0
@49920 , @2.632248062015504 Channel: 9 
Note on, D2 key =  38;WhichDrum: T2 ; velocity: 127
@49950 , @2.633829941860465 Channel: 9 
Note on, D2 key =  38;WhichDrum: T2 ; velocity: 0
@49950 , @2.633829941860465 Channel: 9 
Note on, D2 key =  38;WhichDrum: T2 ; velocity: 127
@49980 , @2.6354118217054263 Channel: 9 
Note on, D2 key =  38;WhichDrum: T2 ; velocity: 0
@49980 , @2.6354118217054263 Channel: 9 
Note on, F#2 key =  42;WhichDrum: C1 ; velocity: 127
@50040 , @2.638575581395349 Channel: 9 
Note on, F#2 key =  42;WhichDrum: C1 ; velocity: 0
@50040 , @2.638575581395349 Channel: 9 
Note on, D2 key =  38;WhichDrum: T2 ; velocity: 127
@50070 , @2.6401574612403103 Channel: 9 
Note on, D2 key =  38;WhichDrum: T2 ; velocity: 0
@50070 , @2.6401574612403103 Channel: 9 
Note on, D2 key =  38;WhichDrum: T2 ; velocity: 127
@50100 , @2.6417393410852714 Channel: 9 
Note on, D2 key =  38;WhichDrum: T2 ; velocity: 0
@50100 , @2.6417393410852714 Channel: 9 
Note on, F#2 key =  42;WhichDrum: C1 ; velocity: 127
@50160 , @2.6449031007751937 Channel: 9 
Note on, F#2 key =  42;WhichDrum: C1 ; velocity: 0
@50160 , @2.6449031007751937 Channel: 9 
Note on, D2 key =  38;WhichDrum: T2 ; velocity: 127
@50190 , @2.646484980620155 Channel: 9 
Note on, D2 key =  38;WhichDrum: T2 ; velocity: 0
@50190 , @2.646484980620155 Channel: 9 
Note on, D2 key =  38;WhichDrum: T2 ; velocity: 127
@50220 , @2.6480668604651165 Channel: 9 
Note on, D2 key =  38;WhichDrum: T2 ; velocity: 0
@50220 , @2.6480668604651165 Channel: 9 
Note on, F#2 key =  42;WhichDrum: C1 ; velocity: 127
@50275 , @2.650966973514212 Channel: 9 
Note on, F#2 key =  42;WhichDrum: C1 ; velocity: 0
@50275 , @2.650966973514212 Channel: 9 
Note on, D2 key =  38;WhichDrum: T2 ; velocity: 75
@50280 , @2.651230620155039 Channel: 9 
Note on, D2 key =  38;WhichDrum: T2 ; velocity: 0
@50280 , @2.651230620155039 Channel: 9 
Note on, D2 key =  38;WhichDrum: T2 ; velocity: 127
@50335 , @2.6541307332041346 Channel: 9 
Note on, D2 key =  38;WhichDrum: T2 ; velocity: 0
@50335 , @2.6541307332041346 Channel: 9 
Note on, D2 key =  38;WhichDrum: T2 ; velocity: 75
@50340 , @2.654394379844961 Channel: 9 
Note on, D2 key =  38;WhichDrum: T2 ; velocity: 0
@50340 , @2.654394379844961 Channel: 9 
Note on, D2 key =  38;WhichDrum: T2 ; velocity: 127
@50400 , @2.657558139534884 Channel: 9 
Note on, D2 key =  38;WhichDrum: T2 ; velocity: 0
@50400 , @2.657558139534884 Channel: 9 
Note on, A3 key =  57;WhichDrum: T3 ; velocity: 127
@50400 , @2.657558139534884 Channel: 9 
Note on, C2 key =  36;WhichDrum: B ; velocity: 127
@50460 , @2.6607218992248063 Channel: 9 
Note on, A3 key =  57;WhichDrum: T3 ; velocity: 0
@50460 , @2.6607218992248063 Channel: 9 
Note on, F#2 key =  42;WhichDrum: C1 ; velocity: 127
@50520 , @2.6638856589147286 Channel: 9 
Note on, C2 key =  36;WhichDrum: B ; velocity: 0
@50520 , @2.6638856589147286 Channel: 9 
Note on, F#2 key =  42;WhichDrum: C1 ; velocity: 0
@50520 , @2.6638856589147286 Channel: 9 
Note on, D2 key =  38;WhichDrum: T2 ; velocity: 127
@50520 , @2.6638856589147286 Channel: 9 
Note on, F#2 key =  42;WhichDrum: C1 ; velocity: 127
@50580 , @2.6670494186046514 Channel: 9 
Note on, D2 key =  38;WhichDrum: T2 ; velocity: 0
@50580 , @2.6670494186046514 Channel: 9 
Note on, F#2 key =  42;WhichDrum: C1 ; velocity: 0
@50580 , @2.6670494186046514 Channel: 9 
Note on, F#2 key =  42;WhichDrum: C1 ; velocity: 127
@50640 , @2.6702131782945737 Channel: 9 
Note on, F#2 key =  42;WhichDrum: C1 ; velocity: 0
@50640 , @2.6702131782945737 Channel: 9 
Note on, F#2 key =  42;WhichDrum: C1 ; velocity: 127
@50640 , @2.6702131782945737 Channel: 9 
Note on, C2 key =  36;WhichDrum: B ; velocity: 127
@50700 , @2.673376937984496 Channel: 9 
Note on, F#2 key =  42;WhichDrum: C1 ; velocity: 0
@50700 , @2.673376937984496 Channel: 9 
Note on, C2 key =  36;WhichDrum: B ; velocity: 0
@50700 , @2.673376937984496 Channel: 9 
Note on, F#2 key =  42;WhichDrum: C1 ; velocity: 127
@50700 , @2.673376937984496 Channel: 9 
Note on, C2 key =  36;WhichDrum: B ; velocity: 127
@50720 , @2.674431524547804 Channel: 9 
Note on, C2 key =  36;WhichDrum: B ; velocity: 0
@50720 , @2.674431524547804 Channel: 9 
Note on, C2 key =  36;WhichDrum: B ; velocity: 127
@50740 , @2.6754861111111112 Channel: 9 
Note on, C2 key =  36;WhichDrum: B ; velocity: 0
@50740 , @2.6754861111111112 Channel: 9 
Note on, C2 key =  36;WhichDrum: B ; velocity: 127
@50760 , @2.676540697674419 Channel: 9 
Note on, F#2 key =  42;WhichDrum: C1 ; velocity: 0
@50760 , @2.676540697674419 Channel: 9 
Note on, C2 key =  36;WhichDrum: B ; velocity: 0
@50760 , @2.676540697674419 Channel: 9 
Note on, D2 key =  38;WhichDrum: T2 ; velocity: 127
@50760 , @2.676540697674419 Channel: 9 
Note on, A3 key =  57;WhichDrum: T3 ; velocity: 127
@50880 , @2.682868217054264 Channel: 9 
Note on, D2 key =  38;WhichDrum: T2 ; velocity: 0
@50880 , @2.682868217054264 Channel: 9 
Note on, A3 key =  57;WhichDrum: T3 ; velocity: 0
@50880 , @2.682868217054264 Channel: 9 
Note on, C2 key =  36;WhichDrum: B ; velocity: 127
@50880 , @2.682868217054264 Channel: 9 
Note on, A3 key =  57;WhichDrum: T3 ; velocity: 127
@51000 , @2.6891957364341086 Channel: 9 
Note on, C2 key =  36;WhichDrum: B ; velocity: 0
@51000 , @2.6891957364341086 Channel: 9 
Note on, A3 key =  57;WhichDrum: T3 ; velocity: 0
@51000 , @2.6891957364341086 Channel: 9 
Note on, D2 key =  38;WhichDrum: T2 ; velocity: 127
@51000 , @2.6891957364341086 Channel: 9 
Note on, F#2 key =  42;WhichDrum: C1 ; velocity: 127
@51060 , @2.6923594961240314 Channel: 9 
Note on, D2 key =  38;WhichDrum: T2 ; velocity: 0
@51060 , @2.6923594961240314 Channel: 9 
Note on, F#2 key =  42;WhichDrum: C1 ; velocity: 0
@51060 , @2.6923594961240314 Channel: 9 
Note on, F#2 key =  42;WhichDrum: C1 ; velocity: 127
@51120 , @2.6955232558139537 Channel: 9 
Note on, F#2 key =  42;WhichDrum: C1 ; velocity: 0
@51120 , @2.6955232558139537 Channel: 9 
Note on, C2 key =  36;WhichDrum: B ; velocity: 127
@51120 , @2.6955232558139537 Channel: 9 
Note on, A3 key =  57;WhichDrum: T3 ; velocity: 127
@51180 , @2.698687015503876 Channel: 9 
Note on, C2 key =  36;WhichDrum: B ; velocity: 0
@51180 , @2.698687015503876 Channel: 9 
Note on, A3 key =  57;WhichDrum: T3 ; velocity: 0
@51180 , @2.698687015503876 Channel: 9 
Note on, C2 key =  36;WhichDrum: B ; velocity: 127
@51180 , @2.698687015503876 Channel: 9 
Note on, A3 key =  57;WhichDrum: T3 ; velocity: 127
@51240 , @2.701850775193799 Channel: 9 
Note on, C2 key =  36;WhichDrum: B ; velocity: 0
@51240 , @2.701850775193799 Channel: 9 
Note on, A3 key =  57;WhichDrum: T3 ; velocity: 0
@51240 , @2.701850775193799 Channel: 9 
Note on, C2 key =  36;WhichDrum: B ; velocity: 127
@51240 , @2.701850775193799 Channel: 9 
Note on, A3 key =  57;WhichDrum: T3 ; velocity: 127
@51300 , @2.705014534883721 Channel: 9 
Note on, C2 key =  36;WhichDrum: B ; velocity: 0
@51300 , @2.705014534883721 Channel: 9 
Note on, A3 key =  57;WhichDrum: T3 ; velocity: 0
@51300 , @2.705014534883721 Channel: 9 
Note on, C2 key =  36;WhichDrum: B ; velocity: 127
@51300 , @2.705014534883721 Channel: 9 
Note on, A3 key =  57;WhichDrum: T3 ; velocity: 127
@51360 , @2.7081782945736435 Channel: 9 
Note on, C2 key =  36;WhichDrum: B ; velocity: 0
@51360 , @2.7081782945736435 Channel: 9 
Note on, A3 key =  57;WhichDrum: T3 ; velocity: 0
@51360 , @2.7081782945736435 Channel: 9 
Note on, A3 key =  57;WhichDrum: T3 ; velocity: 127
@51360 , @2.7081782945736435 Channel: 9 
Note on, C2 key =  36;WhichDrum: B ; velocity: 127
@51420 , @2.7113420542635662 Channel: 9 
Note on, A3 key =  57;WhichDrum: T3 ; velocity: 0
@51420 , @2.7113420542635662 Channel: 9 
Note on, F#2 key =  42;WhichDrum: C1 ; velocity: 127
@51480 , @2.7145058139534886 Channel: 9 
Note on, C2 key =  36;WhichDrum: B ; velocity: 0
@51480 , @2.7145058139534886 Channel: 9 
Note on, F#2 key =  42;WhichDrum: C1 ; velocity: 0
@51480 , @2.7145058139534886 Channel: 9 
Note on, D2 key =  38;WhichDrum: T2 ; velocity: 127
@51480 , @2.7145058139534886 Channel: 9 
Note on, F#2 key =  42;WhichDrum: C1 ; velocity: 127
@51540 , @2.717669573643411 Channel: 9 
Note on, D2 key =  38;WhichDrum: T2 ; velocity: 0
@51540 , @2.717669573643411 Channel: 9 
Note on, F#2 key =  42;WhichDrum: C1 ; velocity: 0
@51540 , @2.717669573643411 Channel: 9 
Note on, F#2 key =  42;WhichDrum: C1 ; velocity: 127
@51600 , @2.7208333333333337 Channel: 9 
Note on, F#2 key =  42;WhichDrum: C1 ; velocity: 0
@51600 , @2.7208333333333337 Channel: 9 
Note on, F#2 key =  42;WhichDrum: C1 ; velocity: 127
@51600 , @2.7208333333333337 Channel: 9 
Note on, C2 key =  36;WhichDrum: B ; velocity: 127
@51660 , @2.723997093023256 Channel: 9 
Note on, F#2 key =  42;WhichDrum: C1 ; velocity: 0
@51660 , @2.723997093023256 Channel: 9 
Note on, F#2 key =  42;WhichDrum: C1 ; velocity: 127
@51720 , @2.7271608527131783 Channel: 9 
Note on, C2 key =  36;WhichDrum: B ; velocity: 0
@51720 , @2.7271608527131783 Channel: 9 
Note on, F#2 key =  42;WhichDrum: C1 ; velocity: 0
@51720 , @2.7271608527131783 Channel: 9 
Note on, D2 key =  38;WhichDrum: T2 ; velocity: 127
@51720 , @2.7271608527131783 Channel: 9 
Note on, F#2 key =  42;WhichDrum: C1 ; velocity: 127
@51780 , @2.730324612403101 Channel: 9 
Note on, D2 key =  38;WhichDrum: T2 ; velocity: 0
@51780 , @2.730324612403101 Channel: 9 
Note on, F#2 key =  42;WhichDrum: C1 ; velocity: 0
@51780 , @2.730324612403101 Channel: 9 
Note on, F#2 key =  42;WhichDrum: C1 ; velocity: 127
@51840 , @2.7334883720930234 Channel: 9 
Note on, F#2 key =  42;WhichDrum: C1 ; velocity: 0
@51840 , @2.7334883720930234 Channel: 9 
Note on, C2 key =  36;WhichDrum: B ; velocity: 127
@51840 , @2.7334883720930234 Channel: 9 
Note on, F#2 key =  42;WhichDrum: C1 ; velocity: 127
@51900 , @2.736652131782946 Channel: 9 
Note on, C2 key =  36;WhichDrum: B ; velocity: 0
@51900 , @2.736652131782946 Channel: 9 
Note on, F#2 key =  42;WhichDrum: C1 ; velocity: 0
@51900 , @2.736652131782946 Channel: 9 
Note on, C2 key =  36;WhichDrum: B ; velocity: 127
@51900 , @2.736652131782946 Channel: 9 
Note on, F#2 key =  42;WhichDrum: C1 ; velocity: 127
@51920 , @2.7377067183462533 Channel: 9 
Note on, C2 key =  36;WhichDrum: B ; velocity: 0
@51920 , @2.7377067183462533 Channel: 9 
Note on, C2 key =  36;WhichDrum: B ; velocity: 127
@51940 , @2.738761304909561 Channel: 9 
Note on, C2 key =  36;WhichDrum: B ; velocity: 0
@51940 , @2.738761304909561 Channel: 9 
Note on, C2 key =  36;WhichDrum: B ; velocity: 127
@51960 , @2.7398158914728685 Channel: 9 
Note on, F#2 key =  42;WhichDrum: C1 ; velocity: 0
@51960 , @2.7398158914728685 Channel: 9 
Note on, C2 key =  36;WhichDrum: B ; velocity: 0
@51960 , @2.7398158914728685 Channel: 9 
Note on, D2 key =  38;WhichDrum: T2 ; velocity: 127
@51960 , @2.7398158914728685 Channel: 9 
Note on, F#2 key =  42;WhichDrum: C1 ; velocity: 127
@52020 , @2.742979651162791 Channel: 9 
Note on, D2 key =  38;WhichDrum: T2 ; velocity: 0
@52020 , @2.742979651162791 Channel: 9 
Note on, F#2 key =  42;WhichDrum: C1 ; velocity: 0
@52020 , @2.742979651162791 Channel: 9 
Note on, C2 key =  36;WhichDrum: B ; velocity: 127
@52020 , @2.742979651162791 Channel: 9 
Note on, F#2 key =  42;WhichDrum: C1 ; velocity: 127
@52040 , @2.744034237726098 Channel: 9 
Note on, C2 key =  36;WhichDrum: B ; velocity: 0
@52040 , @2.744034237726098 Channel: 9 
Note on, C2 key =  36;WhichDrum: B ; velocity: 127
@52060 , @2.745088824289406 Channel: 9 
Note on, C2 key =  36;WhichDrum: B ; velocity: 0
@52060 , @2.745088824289406 Channel: 9 
Note on, C2 key =  36;WhichDrum: B ; velocity: 127
@52080 , @2.7461434108527136 Channel: 9 
Note on, F#2 key =  42;WhichDrum: C1 ; velocity: 0
@52080 , @2.7461434108527136 Channel: 9 
Note on, C2 key =  36;WhichDrum: B ; velocity: 0
@52080 , @2.7461434108527136 Channel: 9 
Note on, D2 key =  38;WhichDrum: T2 ; velocity: 127
@52080 , @2.7461434108527136 Channel: 9 
Note on, F#2 key =  42;WhichDrum: C1 ; velocity: 127
@52140 , @2.749307170542636 Channel: 9 
Note on, D2 key =  38;WhichDrum: T2 ; velocity: 0
@52140 , @2.749307170542636 Channel: 9 
Note on, F#2 key =  42;WhichDrum: C1 ; velocity: 0
@52140 , @2.749307170542636 Channel: 9 
Note on, C2 key =  36;WhichDrum: B ; velocity: 127
@52140 , @2.749307170542636 Channel: 9 
Note on, F#2 key =  42;WhichDrum: C1 ; velocity: 127
@52160 , @2.750361757105943 Channel: 9 
Note on, C2 key =  36;WhichDrum: B ; velocity: 0
@52160 , @2.750361757105943 Channel: 9 
Note on, C2 key =  36;WhichDrum: B ; velocity: 127
@52180 , @2.7514163436692507 Channel: 9 
Note on, C2 key =  36;WhichDrum: B ; velocity: 0
@52180 , @2.7514163436692507 Channel: 9 
Note on, C2 key =  36;WhichDrum: B ; velocity: 127
@52200 , @2.7524709302325583 Channel: 9 
Note on, F#2 key =  42;WhichDrum: C1 ; velocity: 0
@52200 , @2.7524709302325583 Channel: 9 
Note on, C2 key =  36;WhichDrum: B ; velocity: 0
@52200 , @2.7524709302325583 Channel: 9 
Note on, D2 key =  38;WhichDrum: T2 ; velocity: 127
@52200 , @2.7524709302325583 Channel: 9 
Note on, F#2 key =  42;WhichDrum: C1 ; velocity: 127
@52260 , @2.7556346899224806 Channel: 9 
Note on, D2 key =  38;WhichDrum: T2 ; velocity: 0
@52260 , @2.7556346899224806 Channel: 9 
Note on, F#2 key =  42;WhichDrum: C1 ; velocity: 0
@52260 , @2.7556346899224806 Channel: 9 
Note on, A3 key =  57;WhichDrum: T3 ; velocity: 127
@52260 , @2.7556346899224806 Channel: 9 
Note on, C2 key =  36;WhichDrum: B ; velocity: 127
@52320 , @2.758798449612403 Channel: 9 
Note on, A3 key =  57;WhichDrum: T3 ; velocity: 0
@52320 , @2.758798449612403 Channel: 9 
Note on, C2 key =  36;WhichDrum: B ; velocity: 0
@52320 , @2.758798449612403 Channel: 9 
Note on, C2 key =  36;WhichDrum: B ; velocity: 127
@52320 , @2.758798449612403 Channel: 9 
Note on, A3 key =  57;WhichDrum: T3 ; velocity: 127
@52380 , @2.7619622093023257 Channel: 9 
Note on, A3 key =  57;WhichDrum: T3 ; velocity: 0
@52380 , @2.7619622093023257 Channel: 9 
Note on, F#2 key =  42;WhichDrum: C1 ; velocity: 127
@52440 , @2.765125968992248 Channel: 9 
Note on, C2 key =  36;WhichDrum: B ; velocity: 0
@52440 , @2.765125968992248 Channel: 9 
Note on, F#2 key =  42;WhichDrum: C1 ; velocity: 0
@52440 , @2.765125968992248 Channel: 9 
Note on, D2 key =  38;WhichDrum: T2 ; velocity: 127
@52440 , @2.765125968992248 Channel: 9 
Note on, F#2 key =  42;WhichDrum: C1 ; velocity: 127
@52500 , @2.7682897286821704 Channel: 9 
Note on, D2 key =  38;WhichDrum: T2 ; velocity: 0
@52500 , @2.7682897286821704 Channel: 9 
Note on, F#2 key =  42;WhichDrum: C1 ; velocity: 0
@52500 , @2.7682897286821704 Channel: 9 
Note on, F#2 key =  42;WhichDrum: C1 ; velocity: 127
@52560 , @2.771453488372093 Channel: 9 
Note on, F#2 key =  42;WhichDrum: C1 ; velocity: 0
@52560 , @2.771453488372093 Channel: 9 
Note on, C2 key =  36;WhichDrum: B ; velocity: 127
@52560 , @2.771453488372093 Channel: 9 
Note on, F#2 key =  42;WhichDrum: C1 ; velocity: 127
@52620 , @2.7746172480620155 Channel: 9 
Note on, C2 key =  36;WhichDrum: B ; velocity: 0
@52620 , @2.7746172480620155 Channel: 9 
Note on, F#2 key =  42;WhichDrum: C1 ; velocity: 0
@52620 , @2.7746172480620155 Channel: 9 
Note on, C2 key =  36;WhichDrum: B ; velocity: 127
@52620 , @2.7746172480620155 Channel: 9 
Note on, F#2 key =  42;WhichDrum: C1 ; velocity: 127
@52640 , @2.775671834625323 Channel: 9 
Note on, C2 key =  36;WhichDrum: B ; velocity: 0
@52640 , @2.775671834625323 Channel: 9 
Note on, C2 key =  36;WhichDrum: B ; velocity: 127
@52660 , @2.7767264211886307 Channel: 9 
Note on, C2 key =  36;WhichDrum: B ; velocity: 0
@52660 , @2.7767264211886307 Channel: 9 
Note on, C2 key =  36;WhichDrum: B ; velocity: 127
@52680 , @2.777781007751938 Channel: 9 
Note on, F#2 key =  42;WhichDrum: C1 ; velocity: 0
@52680 , @2.777781007751938 Channel: 9 
Note on, C2 key =  36;WhichDrum: B ; velocity: 0
@52680 , @2.777781007751938 Channel: 9 
Note on, D2 key =  38;WhichDrum: T2 ; velocity: 127
@52680 , @2.777781007751938 Channel: 9 
Note on, F#2 key =  42;WhichDrum: C1 ; velocity: 127
@52740 , @2.7809447674418606 Channel: 9 
Note on, D2 key =  38;WhichDrum: T2 ; velocity: 0
@52740 , @2.7809447674418606 Channel: 9 
Note on, F#2 key =  42;WhichDrum: C1 ; velocity: 0
@52740 , @2.7809447674418606 Channel: 9 
Note on, F#2 key =  42;WhichDrum: C1 ; velocity: 127
@52800 , @2.784108527131783 Channel: 9 
Note on, F#2 key =  42;WhichDrum: C1 ; velocity: 0
@52800 , @2.784108527131783 Channel: 9 
Note on, A3 key =  57;WhichDrum: T3 ; velocity: 127
@52800 , @2.784108527131783 Channel: 9 
Note on, C2 key =  36;WhichDrum: B ; velocity: 127
@52860 , @2.7872722868217052 Channel: 9 
Note on, A3 key =  57;WhichDrum: T3 ; velocity: 0
@52860 , @2.7872722868217052 Channel: 9 
Note on, F#2 key =  42;WhichDrum: C1 ; velocity: 127
@52920 , @2.790436046511628 Channel: 9 
Note on, C2 key =  36;WhichDrum: B ; velocity: 0
@52920 , @2.790436046511628 Channel: 9 
Note on, F#2 key =  42;WhichDrum: C1 ; velocity: 0
@52920 , @2.790436046511628 Channel: 9 
Note on, D2 key =  38;WhichDrum: T2 ; velocity: 127
@52920 , @2.790436046511628 Channel: 9 
Note on, F#2 key =  42;WhichDrum: C1 ; velocity: 127
@52980 , @2.7935998062015504 Channel: 9 
Note on, D2 key =  38;WhichDrum: T2 ; velocity: 0
@52980 , @2.7935998062015504 Channel: 9 
Note on, F#2 key =  42;WhichDrum: C1 ; velocity: 0
@52980 , @2.7935998062015504 Channel: 9 
Note on, F#2 key =  42;WhichDrum: C1 ; velocity: 127
@53040 , @2.7967635658914727 Channel: 9 
Note on, F#2 key =  42;WhichDrum: C1 ; velocity: 0
@53040 , @2.7967635658914727 Channel: 9 
Note on, D2 key =  38;WhichDrum: T2 ; velocity: 127
@53040 , @2.7967635658914727 Channel: 9 
Note on, A3 key =  57;WhichDrum: T3 ; velocity: 127
@53100 , @2.7999273255813955 Channel: 9 
Note on, C2 key =  36;WhichDrum: B ; velocity: 127
@53120 , @2.800981912144703 Channel: 9 
Note on, C2 key =  36;WhichDrum: B ; velocity: 0
@53120 , @2.800981912144703 Channel: 9 
Note on, C2 key =  36;WhichDrum: B ; velocity: 127
@53140 , @2.8020364987080106 Channel: 9 
Note on, C2 key =  36;WhichDrum: B ; velocity: 0
@53140 , @2.8020364987080106 Channel: 9 
Note on, C2 key =  36;WhichDrum: B ; velocity: 127
@53160 , @2.803091085271318 Channel: 9 
Note on, D2 key =  38;WhichDrum: T2 ; velocity: 0
@53160 , @2.803091085271318 Channel: 9 
Note on, A3 key =  57;WhichDrum: T3 ; velocity: 0
@53160 , @2.803091085271318 Channel: 9 
Note on, C2 key =  36;WhichDrum: B ; velocity: 0
@53160 , @2.803091085271318 Channel: 9 
Note on, D2 key =  38;WhichDrum: T2 ; velocity: 127
@53160 , @2.803091085271318 Channel: 9 
Note on, A3 key =  57;WhichDrum: T3 ; velocity: 127
@53220 , @2.80625484496124 Channel: 9 
Note on, C2 key =  36;WhichDrum: B ; velocity: 127
@53240 , @2.807309431524548 Channel: 9 
Note on, C2 key =  36;WhichDrum: B ; velocity: 0
@53240 , @2.807309431524548 Channel: 9 
Note on, C2 key =  36;WhichDrum: B ; velocity: 127
@53260 , @2.8083640180878557 Channel: 9 
Note on, C2 key =  36;WhichDrum: B ; velocity: 0
@53260 , @2.8083640180878557 Channel: 9 
Note on, C2 key =  36;WhichDrum: B ; velocity: 127
@53280 , @2.809418604651163 Channel: 9 
Note on, D2 key =  38;WhichDrum: T2 ; velocity: 0
@53280 , @2.809418604651163 Channel: 9 
Note on, A3 key =  57;WhichDrum: T3 ; velocity: 0
@53280 , @2.809418604651163 Channel: 9 
Note on, C2 key =  36;WhichDrum: B ; velocity: 0
@53280 , @2.809418604651163 Channel: 9 
Note on, D2 key =  38;WhichDrum: T2 ; velocity: 127
@53280 , @2.809418604651163 Channel: 9 
Note on, A3 key =  57;WhichDrum: T3 ; velocity: 127
@53400 , @2.815746124031008 Channel: 9 
Note on, D2 key =  38;WhichDrum: T2 ; velocity: 0
@53400 , @2.815746124031008 Channel: 9 
Note on, A3 key =  57;WhichDrum: T3 ; velocity: 0
@53580 , @2.8252374031007754 Channel: 9 
Note on, C2 key =  36;WhichDrum: B ; velocity: 127
@53600 , @2.826291989664083 Channel: 9 
Note on, C2 key =  36;WhichDrum: B ; velocity: 0
@53600 , @2.826291989664083 Channel: 9 
Note on, C2 key =  36;WhichDrum: B ; velocity: 127
@53620 , @2.82734657622739 Channel: 9 
Note on, C2 key =  36;WhichDrum: B ; velocity: 0
@53620 , @2.82734657622739 Channel: 9 
Note on, C2 key =  36;WhichDrum: B ; velocity: 127
@53635 , @2.8281375161498707 Channel: 9 
Note on, D2 key =  38;WhichDrum: T2 ; velocity: 75
@53640 , @2.8284011627906978 Channel: 9 
Note on, C2 key =  36;WhichDrum: B ; velocity: 0
@53640 , @2.8284011627906978 Channel: 9 
Note on, D2 key =  38;WhichDrum: T2 ; velocity: 0
@53640 , @2.8284011627906978 Channel: 9 
Note on, D2 key =  38;WhichDrum: T2 ; velocity: 127
@53760 , @2.834728682170543 Channel: 9 
Note on, D2 key =  38;WhichDrum: T2 ; velocity: 0
@53760 , @2.834728682170543 Channel: 9 
Note on, C2 key =  36;WhichDrum: B ; velocity: 127
@53760 , @2.834728682170543 Channel: 9 
Note on, A3 key =  57;WhichDrum: T3 ; velocity: 127
@53880 , @2.8410562015503875 Channel: 9 
Note on, C2 key =  36;WhichDrum: B ; velocity: 0
@53880 , @2.8410562015503875 Channel: 9 
Note on, A3 key =  57;WhichDrum: T3 ; velocity: 0
@53880 , @2.8410562015503875 Channel: 9 
Note on, F#2 key =  42;WhichDrum: C1 ; velocity: 127
@53880 , @2.8410562015503875 Channel: 9 
Note on, D2 key =  38;WhichDrum: T2 ; velocity: 127
@54000 , @2.8473837209302326 Channel: 9 
Note on, F#2 key =  42;WhichDrum: C1 ; velocity: 0
@54000 , @2.8473837209302326 Channel: 9 
Note on, D2 key =  38;WhichDrum: T2 ; velocity: 0
@54000 , @2.8473837209302326 Channel: 9 
Note on, C2 key =  36;WhichDrum: B ; velocity: 127
@54000 , @2.8473837209302326 Channel: 9 
Note on, F#2 key =  42;WhichDrum: C1 ; velocity: 127
@54060 , @2.850547480620155 Channel: 9 
Note on, C2 key =  36;WhichDrum: B ; velocity: 0
@54060 , @2.850547480620155 Channel: 9 
Note on, C2 key =  36;WhichDrum: B ; velocity: 127
@54120 , @2.8537112403100777 Channel: 9 
Note on, F#2 key =  42;WhichDrum: C1 ; velocity: 0
@54120 , @2.8537112403100777 Channel: 9 
Note on, C2 key =  36;WhichDrum: B ; velocity: 0
@54120 , @2.8537112403100777 Channel: 9 
Note on, D2 key =  38;WhichDrum: T2 ; velocity: 127
@54120 , @2.8537112403100777 Channel: 9 
Note on, F#2 key =  42;WhichDrum: C1 ; velocity: 127
@54240 , @2.8600387596899224 Channel: 9 
Note on, D2 key =  38;WhichDrum: T2 ; velocity: 0
@54240 , @2.8600387596899224 Channel: 9 
Note on, F#2 key =  42;WhichDrum: C1 ; velocity: 0
@54240 , @2.8600387596899224 Channel: 9 
Note on, C2 key =  36;WhichDrum: B ; velocity: 127
@54240 , @2.8600387596899224 Channel: 9 
Note on, F#2 key =  42;WhichDrum: C1 ; velocity: 127
@54300 , @2.863202519379845 Channel: 9 
Note on, C2 key =  36;WhichDrum: B ; velocity: 0
@54300 , @2.863202519379845 Channel: 9 
Note on, C2 key =  36;WhichDrum: B ; velocity: 127
@54360 , @2.8663662790697675 Channel: 9 
Note on, F#2 key =  42;WhichDrum: C1 ; velocity: 0
@54360 , @2.8663662790697675 Channel: 9 
Note on, C2 key =  36;WhichDrum: B ; velocity: 0
@54360 , @2.8663662790697675 Channel: 9 
Note on, D2 key =  38;WhichDrum: T2 ; velocity: 127
@54360 , @2.8663662790697675 Channel: 9 
Note on, F#2 key =  42;WhichDrum: C1 ; velocity: 127
@54480 , @2.8726937984496126 Channel: 9 
Note on, D2 key =  38;WhichDrum: T2 ; velocity: 0
@54480 , @2.8726937984496126 Channel: 9 
Note on, F#2 key =  42;WhichDrum: C1 ; velocity: 0
@54480 , @2.8726937984496126 Channel: 9 
Note on, C2 key =  36;WhichDrum: B ; velocity: 127
@54480 , @2.8726937984496126 Channel: 9 
Note on, F#2 key =  42;WhichDrum: C1 ; velocity: 127
@54540 , @2.875857558139535 Channel: 9 
Note on, C2 key =  36;WhichDrum: B ; velocity: 0
@54540 , @2.875857558139535 Channel: 9 
Note on, C2 key =  36;WhichDrum: B ; velocity: 127
@54600 , @2.8790213178294577 Channel: 9 
Note on, F#2 key =  42;WhichDrum: C1 ; velocity: 0
@54600 , @2.8790213178294577 Channel: 9 
Note on, C2 key =  36;WhichDrum: B ; velocity: 0
@54600 , @2.8790213178294577 Channel: 9 
Note on, D2 key =  38;WhichDrum: T2 ; velocity: 127
@54600 , @2.8790213178294577 Channel: 9 
Note on, F#2 key =  42;WhichDrum: C1 ; velocity: 127
@54720 , @2.8853488372093024 Channel: 9 
Note on, D2 key =  38;WhichDrum: T2 ; velocity: 0
@54720 , @2.8853488372093024 Channel: 9 
Note on, F#2 key =  42;WhichDrum: C1 ; velocity: 0
@54720 , @2.8853488372093024 Channel: 9 
Note on, C2 key =  36;WhichDrum: B ; velocity: 127
@54720 , @2.8853488372093024 Channel: 9 
Note on, F#2 key =  42;WhichDrum: C1 ; velocity: 127
@54780 , @2.888512596899225 Channel: 9 
Note on, C2 key =  36;WhichDrum: B ; velocity: 0
@54780 , @2.888512596899225 Channel: 9 
Note on, C2 key =  36;WhichDrum: B ; velocity: 127
@54840 , @2.8916763565891475 Channel: 9 
Note on, F#2 key =  42;WhichDrum: C1 ; velocity: 0
@54840 , @2.8916763565891475 Channel: 9 
Note on, C2 key =  36;WhichDrum: B ; velocity: 0
@54840 , @2.8916763565891475 Channel: 9 
Note on, D2 key =  38;WhichDrum: T2 ; velocity: 127
@54840 , @2.8916763565891475 Channel: 9 
Note on, F#2 key =  42;WhichDrum: C1 ; velocity: 127
@54960 , @2.8980038759689926 Channel: 9 
Note on, D2 key =  38;WhichDrum: T2 ; velocity: 0
@54960 , @2.8980038759689926 Channel: 9 
Note on, F#2 key =  42;WhichDrum: C1 ; velocity: 0
@54960 , @2.8980038759689926 Channel: 9 
Note on, C2 key =  36;WhichDrum: B ; velocity: 127
@54960 , @2.8980038759689926 Channel: 9 
Note on, F#2 key =  42;WhichDrum: C1 ; velocity: 127
@55020 , @2.901167635658915 Channel: 9 
Note on, C2 key =  36;WhichDrum: B ; velocity: 0
@55020 , @2.901167635658915 Channel: 9 
Note on, C2 key =  36;WhichDrum: B ; velocity: 127
@55080 , @2.904331395348837 Channel: 9 
Note on, F#2 key =  42;WhichDrum: C1 ; velocity: 0
@55080 , @2.904331395348837 Channel: 9 
Note on, C2 key =  36;WhichDrum: B ; velocity: 0
@55080 , @2.904331395348837 Channel: 9 
Note on, D2 key =  38;WhichDrum: T2 ; velocity: 127
@55080 , @2.904331395348837 Channel: 9 
Note on, F#2 key =  42;WhichDrum: C1 ; velocity: 127
@55200 , @2.9106589147286823 Channel: 9 
Note on, D2 key =  38;WhichDrum: T2 ; velocity: 0
@55200 , @2.9106589147286823 Channel: 9 
Note on, F#2 key =  42;WhichDrum: C1 ; velocity: 0
@55200 , @2.9106589147286823 Channel: 9 
Note on, C2 key =  36;WhichDrum: B ; velocity: 127
@55200 , @2.9106589147286823 Channel: 9 
Note on, F#2 key =  42;WhichDrum: C1 ; velocity: 127
@55260 , @2.9138226744186047 Channel: 9 
Note on, C2 key =  36;WhichDrum: B ; velocity: 0
@55260 , @2.9138226744186047 Channel: 9 
Note on, C2 key =  36;WhichDrum: B ; velocity: 127
@55320 , @2.9169864341085274 Channel: 9 
Note on, F#2 key =  42;WhichDrum: C1 ; velocity: 0
@55320 , @2.9169864341085274 Channel: 9 
Note on, C2 key =  36;WhichDrum: B ; velocity: 0
@55320 , @2.9169864341085274 Channel: 9 
Note on, D2 key =  38;WhichDrum: T2 ; velocity: 127
@55320 , @2.9169864341085274 Channel: 9 
Note on, F#2 key =  42;WhichDrum: C1 ; velocity: 127
@55440 , @2.9233139534883725 Channel: 9 
Note on, D2 key =  38;WhichDrum: T2 ; velocity: 0
@55440 , @2.9233139534883725 Channel: 9 
Note on, F#2 key =  42;WhichDrum: C1 ; velocity: 0
@55440 , @2.9233139534883725 Channel: 9 
Note on, C2 key =  36;WhichDrum: B ; velocity: 127
@55440 , @2.9233139534883725 Channel: 9 
Note on, F#2 key =  42;WhichDrum: C1 ; velocity: 127
@55500 , @2.926477713178295 Channel: 9 
Note on, C2 key =  36;WhichDrum: B ; velocity: 0
@55500 , @2.926477713178295 Channel: 9 
Note on, C2 key =  36;WhichDrum: B ; velocity: 127
@55560 , @2.929641472868217 Channel: 9 
Note on, F#2 key =  42;WhichDrum: C1 ; velocity: 0
@55560 , @2.929641472868217 Channel: 9 
Note on, C2 key =  36;WhichDrum: B ; velocity: 0
@55560 , @2.929641472868217 Channel: 9 
Note on, D2 key =  38;WhichDrum: T2 ; velocity: 127
@55560 , @2.929641472868217 Channel: 9 
Note on, F#2 key =  42;WhichDrum: C1 ; velocity: 127
@55680 , @2.9359689922480623 Channel: 9 
Note on, D2 key =  38;WhichDrum: T2 ; velocity: 0
@55680 , @2.9359689922480623 Channel: 9 
Note on, F#2 key =  42;WhichDrum: C1 ; velocity: 0
@55680 , @2.9359689922480623 Channel: 9 
Note on, C2 key =  36;WhichDrum: B ; velocity: 127
@55680 , @2.9359689922480623 Channel: 9 
Note on, A3 key =  57;WhichDrum: T3 ; velocity: 127
@55800 , @2.9422965116279074 Channel: 9 
Note on, C2 key =  36;WhichDrum: B ; velocity: 0
@55800 , @2.9422965116279074 Channel: 9 
Note on, A3 key =  57;WhichDrum: T3 ; velocity: 0
@55800 , @2.9422965116279074 Channel: 9 
Note on, F#2 key =  42;WhichDrum: C1 ; velocity: 127
@55800 , @2.9422965116279074 Channel: 9 
Note on, D2 key =  38;WhichDrum: T2 ; velocity: 127
@55920 , @2.948624031007752 Channel: 9 
Note on, F#2 key =  42;WhichDrum: C1 ; velocity: 0
@55920 , @2.948624031007752 Channel: 9 
Note on, D2 key =  38;WhichDrum: T2 ; velocity: 0
@55920 , @2.948624031007752 Channel: 9 
Note on, C2 key =  36;WhichDrum: B ; velocity: 127
@55920 , @2.948624031007752 Channel: 9 
Note on, F#2 key =  42;WhichDrum: C1 ; velocity: 127
@55980 , @2.951787790697675 Channel: 9 
Note on, C2 key =  36;WhichDrum: B ; velocity: 0
@55980 , @2.951787790697675 Channel: 9 
Note on, C2 key =  36;WhichDrum: B ; velocity: 127
@56040 , @2.954951550387597 Channel: 9 
Note on, F#2 key =  42;WhichDrum: C1 ; velocity: 0
@56040 , @2.954951550387597 Channel: 9 
Note on, C2 key =  36;WhichDrum: B ; velocity: 0
@56040 , @2.954951550387597 Channel: 9 
Note on, D2 key =  38;WhichDrum: T2 ; velocity: 127
@56040 , @2.954951550387597 Channel: 9 
Note on, F#2 key =  42;WhichDrum: C1 ; velocity: 127
@56160 , @2.961279069767442 Channel: 9 
Note on, D2 key =  38;WhichDrum: T2 ; velocity: 0
@56160 , @2.961279069767442 Channel: 9 
Note on, F#2 key =  42;WhichDrum: C1 ; velocity: 0
@56160 , @2.961279069767442 Channel: 9 
Note on, C2 key =  36;WhichDrum: B ; velocity: 127
@56160 , @2.961279069767442 Channel: 9 
Note on, F#2 key =  42;WhichDrum: C1 ; velocity: 127
@56220 , @2.964442829457364 Channel: 9 
Note on, C2 key =  36;WhichDrum: B ; velocity: 0
@56220 , @2.964442829457364 Channel: 9 
Note on, C2 key =  36;WhichDrum: B ; velocity: 127
@56280 , @2.967606589147287 Channel: 9 
Note on, F#2 key =  42;WhichDrum: C1 ; velocity: 0
@56280 , @2.967606589147287 Channel: 9 
Note on, C2 key =  36;WhichDrum: B ; velocity: 0
@56280 , @2.967606589147287 Channel: 9 
Note on, D2 key =  38;WhichDrum: T2 ; velocity: 127
@56280 , @2.967606589147287 Channel: 9 
Note on, F#2 key =  42;WhichDrum: C1 ; velocity: 127
@56400 , @2.9739341085271316 Channel: 9 
Note on, D2 key =  38;WhichDrum: T2 ; velocity: 0
@56400 , @2.9739341085271316 Channel: 9 
Note on, F#2 key =  42;WhichDrum: C1 ; velocity: 0
@56400 , @2.9739341085271316 Channel: 9 
Note on, C2 key =  36;WhichDrum: B ; velocity: 127
@56400 , @2.9739341085271316 Channel: 9 
Note on, F#2 key =  42;WhichDrum: C1 ; velocity: 127
@56460 , @2.9770978682170544 Channel: 9 
Note on, C2 key =  36;WhichDrum: B ; velocity: 0
@56460 , @2.9770978682170544 Channel: 9 
Note on, C2 key =  36;WhichDrum: B ; velocity: 127
@56520 , @2.9802616279069767 Channel: 9 
Note on, F#2 key =  42;WhichDrum: C1 ; velocity: 0
@56520 , @2.9802616279069767 Channel: 9 
Note on, C2 key =  36;WhichDrum: B ; velocity: 0
@56520 , @2.9802616279069767 Channel: 9 
Note on, D2 key =  38;WhichDrum: T2 ; velocity: 127
@56520 , @2.9802616279069767 Channel: 9 
Note on, F#2 key =  42;WhichDrum: C1 ; velocity: 127
@56640 , @2.986589147286822 Channel: 9 
Note on, D2 key =  38;WhichDrum: T2 ; velocity: 0
@56640 , @2.986589147286822 Channel: 9 
Note on, F#2 key =  42;WhichDrum: C1 ; velocity: 0
@56640 , @2.986589147286822 Channel: 9 
Note on, C2 key =  36;WhichDrum: B ; velocity: 127
@56640 , @2.986589147286822 Channel: 9 
Note on, F#2 key =  42;WhichDrum: C1 ; velocity: 127
@56700 , @2.989752906976744 Channel: 9 
Note on, C2 key =  36;WhichDrum: B ; velocity: 0
@56700 , @2.989752906976744 Channel: 9 
Note on, C2 key =  36;WhichDrum: B ; velocity: 127
@56760 , @2.9929166666666664 Channel: 9 
Note on, F#2 key =  42;WhichDrum: C1 ; velocity: 0
@56760 , @2.9929166666666664 Channel: 9 
Note on, C2 key =  36;WhichDrum: B ; velocity: 0
@56760 , @2.9929166666666664 Channel: 9 
Note on, D2 key =  38;WhichDrum: T2 ; velocity: 127
@56760 , @2.9929166666666664 Channel: 9 
Note on, F#2 key =  42;WhichDrum: C1 ; velocity: 127
@56880 , @2.9992441860465116 Channel: 9 
Note on, D2 key =  38;WhichDrum: T2 ; velocity: 0
@56880 , @2.9992441860465116 Channel: 9 
Note on, F#2 key =  42;WhichDrum: C1 ; velocity: 0
@56880 , @2.9992441860465116 Channel: 9 
Note on, C2 key =  36;WhichDrum: B ; velocity: 127
@56880 , @2.9992441860465116 Channel: 9 
Note on, F#2 key =  42;WhichDrum: C1 ; velocity: 127
@56940 , @3.0024079457364343 Channel: 9 
Note on, C2 key =  36;WhichDrum: B ; velocity: 0
@56940 , @3.0024079457364343 Channel: 9 
Note on, C2 key =  36;WhichDrum: B ; velocity: 127
@57000 , @3.0055717054263567 Channel: 9 
Note on, F#2 key =  42;WhichDrum: C1 ; velocity: 0
@57000 , @3.0055717054263567 Channel: 9 
Note on, C2 key =  36;WhichDrum: B ; velocity: 0
@57000 , @3.0055717054263567 Channel: 9 
Note on, D2 key =  38;WhichDrum: T2 ; velocity: 127
@57000 , @3.0055717054263567 Channel: 9 
Note on, F#2 key =  42;WhichDrum: C1 ; velocity: 127
@57120 , @3.0118992248062018 Channel: 9 
Note on, D2 key =  38;WhichDrum: T2 ; velocity: 0
@57120 , @3.0118992248062018 Channel: 9 
Note on, F#2 key =  42;WhichDrum: C1 ; velocity: 0
@57120 , @3.0118992248062018 Channel: 9 
Note on, F#2 key =  42;WhichDrum: C1 ; velocity: 127
@57120 , @3.0118992248062018 Channel: 9 
Note on, C2 key =  36;WhichDrum: B ; velocity: 127
@57180 , @3.015062984496124 Channel: 9 
Note on, C2 key =  36;WhichDrum: B ; velocity: 0
@57180 , @3.015062984496124 Channel: 9 
Note on, C2 key =  36;WhichDrum: B ; velocity: 127
@57240 , @3.0182267441860464 Channel: 9 
Note on, F#2 key =  42;WhichDrum: C1 ; velocity: 0
@57240 , @3.0182267441860464 Channel: 9 
Note on, C2 key =  36;WhichDrum: B ; velocity: 0
@57240 , @3.0182267441860464 Channel: 9 
Note on, D2 key =  38;WhichDrum: T2 ; velocity: 127
@57240 , @3.0182267441860464 Channel: 9 
Note on, A3 key =  57;WhichDrum: T3 ; velocity: 127
@57360 , @3.0245542635658915 Channel: 9 
Note on, D2 key =  38;WhichDrum: T2 ; velocity: 0
@57360 , @3.0245542635658915 Channel: 9 
Note on, A3 key =  57;WhichDrum: T3 ; velocity: 0
@57360 , @3.0245542635658915 Channel: 9 
Note on, F#2 key =  42;WhichDrum: C1 ; velocity: 127
@57360 , @3.0245542635658915 Channel: 9 
Note on, C2 key =  36;WhichDrum: B ; velocity: 127
@57420 , @3.027718023255814 Channel: 9 
Note on, C2 key =  36;WhichDrum: B ; velocity: 0
@57420 , @3.027718023255814 Channel: 9 
Note on, C2 key =  36;WhichDrum: B ; velocity: 127
@57480 , @3.0308817829457366 Channel: 9 
Note on, F#2 key =  42;WhichDrum: C1 ; velocity: 0
@57480 , @3.0308817829457366 Channel: 9 
Note on, C2 key =  36;WhichDrum: B ; velocity: 0
@57480 , @3.0308817829457366 Channel: 9 
Note on, D2 key =  38;WhichDrum: T2 ; velocity: 127
@57480 , @3.0308817829457366 Channel: 9 
Note on, A3 key =  57;WhichDrum: T3 ; velocity: 127
@57600 , @3.0372093023255813 Channel: 9 
Note on, D2 key =  38;WhichDrum: T2 ; velocity: 0
@57600 , @3.0372093023255813 Channel: 9 
Note on, A3 key =  57;WhichDrum: T3 ; velocity: 0
@57600 , @3.0372093023255813 Channel: 9 
Note on, C2 key =  36;WhichDrum: B ; velocity: 127
@57600 , @3.0372093023255813 Channel: 9 
Note on, F#2 key =  42;WhichDrum: C1 ; velocity: 127
@57660 , @3.040373062015504 Channel: 9 
Note on, C2 key =  36;WhichDrum: B ; velocity: 0
@57660 , @3.040373062015504 Channel: 9 
Note on, C2 key =  36;WhichDrum: B ; velocity: 127
@57720 , @3.0435368217054264 Channel: 9 
Note on, F#2 key =  42;WhichDrum: C1 ; velocity: 0
@57720 , @3.0435368217054264 Channel: 9 
Note on, C2 key =  36;WhichDrum: B ; velocity: 0
@57720 , @3.0435368217054264 Channel: 9 
Note on, D2 key =  38;WhichDrum: T2 ; velocity: 127
@57720 , @3.0435368217054264 Channel: 9 
Note on, F#2 key =  42;WhichDrum: C1 ; velocity: 127
@57840 , @3.0498643410852715 Channel: 9 
Note on, D2 key =  38;WhichDrum: T2 ; velocity: 0
@57840 , @3.0498643410852715 Channel: 9 
Note on, F#2 key =  42;WhichDrum: C1 ; velocity: 0
@57840 , @3.0498643410852715 Channel: 9 
Note on, C2 key =  36;WhichDrum: B ; velocity: 127
@57840 , @3.0498643410852715 Channel: 9 
Note on, F#2 key =  42;WhichDrum: C1 ; velocity: 127
@57900 , @3.053028100775194 Channel: 9 
Note on, C2 key =  36;WhichDrum: B ; velocity: 0
@57900 , @3.053028100775194 Channel: 9 
Note on, C2 key =  36;WhichDrum: B ; velocity: 127
@57960 , @3.0561918604651166 Channel: 9 
Note on, F#2 key =  42;WhichDrum: C1 ; velocity: 0
@57960 , @3.0561918604651166 Channel: 9 
Note on, C2 key =  36;WhichDrum: B ; velocity: 0
@57960 , @3.0561918604651166 Channel: 9 
Note on, D2 key =  38;WhichDrum: T2 ; velocity: 127
@57960 , @3.0561918604651166 Channel: 9 
Note on, F#2 key =  42;WhichDrum: C1 ; velocity: 127
@58080 , @3.0625193798449613 Channel: 9 
Note on, D2 key =  38;WhichDrum: T2 ; velocity: 0
@58080 , @3.0625193798449613 Channel: 9 
Note on, F#2 key =  42;WhichDrum: C1 ; velocity: 0
@58080 , @3.0625193798449613 Channel: 9 
Note on, C2 key =  36;WhichDrum: B ; velocity: 127
@58080 , @3.0625193798449613 Channel: 9 
Note on, F#2 key =  42;WhichDrum: C1 ; velocity: 127
@58140 , @3.065683139534884 Channel: 9 
Note on, C2 key =  36;WhichDrum: B ; velocity: 0
@58140 , @3.065683139534884 Channel: 9 
Note on, C2 key =  36;WhichDrum: B ; velocity: 127
@58200 , @3.0688468992248064 Channel: 9 
Note on, F#2 key =  42;WhichDrum: C1 ; velocity: 0
@58200 , @3.0688468992248064 Channel: 9 
Note on, C2 key =  36;WhichDrum: B ; velocity: 0
@58200 , @3.0688468992248064 Channel: 9 
Note on, D2 key =  38;WhichDrum: T2 ; velocity: 127
@58200 , @3.0688468992248064 Channel: 9 
Note on, F#2 key =  42;WhichDrum: C1 ; velocity: 127
@58320 , @3.0751744186046515 Channel: 9 
Note on, D2 key =  38;WhichDrum: T2 ; velocity: 0
@58320 , @3.0751744186046515 Channel: 9 
Note on, F#2 key =  42;WhichDrum: C1 ; velocity: 0
@58320 , @3.0751744186046515 Channel: 9 
Note on, C2 key =  36;WhichDrum: B ; velocity: 127
@58320 , @3.0751744186046515 Channel: 9 
Note on, F#2 key =  42;WhichDrum: C1 ; velocity: 127
@58380 , @3.078338178294574 Channel: 9 
Note on, C2 key =  36;WhichDrum: B ; velocity: 0
@58380 , @3.078338178294574 Channel: 9 
Note on, C2 key =  36;WhichDrum: B ; velocity: 127
@58440 , @3.081501937984496 Channel: 9 
Note on, F#2 key =  42;WhichDrum: C1 ; velocity: 0
@58440 , @3.081501937984496 Channel: 9 
Note on, C2 key =  36;WhichDrum: B ; velocity: 0
@58440 , @3.081501937984496 Channel: 9 
Note on, D2 key =  38;WhichDrum: T2 ; velocity: 127
@58440 , @3.081501937984496 Channel: 9 
Note on, F#2 key =  42;WhichDrum: C1 ; velocity: 127
@58560 , @3.0878294573643412 Channel: 9 
Note on, D2 key =  38;WhichDrum: T2 ; velocity: 0
@58560 , @3.0878294573643412 Channel: 9 
Note on, F#2 key =  42;WhichDrum: C1 ; velocity: 0
@58560 , @3.0878294573643412 Channel: 9 
Note on, C2 key =  36;WhichDrum: B ; velocity: 127
@58560 , @3.0878294573643412 Channel: 9 
Note on, F#2 key =  42;WhichDrum: C1 ; velocity: 127
@58620 , @3.0909932170542636 Channel: 9 
Note on, C2 key =  36;WhichDrum: B ; velocity: 0
@58620 , @3.0909932170542636 Channel: 9 
Note on, C2 key =  36;WhichDrum: B ; velocity: 127
@58680 , @3.0941569767441863 Channel: 9 
Note on, F#2 key =  42;WhichDrum: C1 ; velocity: 0
@58680 , @3.0941569767441863 Channel: 9 
Note on, C2 key =  36;WhichDrum: B ; velocity: 0
@58680 , @3.0941569767441863 Channel: 9 
Note on, D2 key =  38;WhichDrum: T2 ; velocity: 127
@58680 , @3.0941569767441863 Channel: 9 
Note on, F#2 key =  42;WhichDrum: C1 ; velocity: 127
@58800 , @3.100484496124031 Channel: 9 
Note on, D2 key =  38;WhichDrum: T2 ; velocity: 0
@58800 , @3.100484496124031 Channel: 9 
Note on, F#2 key =  42;WhichDrum: C1 ; velocity: 0
@58800 , @3.100484496124031 Channel: 9 
Note on, C2 key =  36;WhichDrum: B ; velocity: 127
@58800 , @3.100484496124031 Channel: 9 
Note on, F#2 key =  42;WhichDrum: C1 ; velocity: 127
@58860 , @3.1036482558139538 Channel: 9 
Note on, C2 key =  36;WhichDrum: B ; velocity: 0
@58860 , @3.1036482558139538 Channel: 9 
Note on, C2 key =  36;WhichDrum: B ; velocity: 127
@58920 , @3.106812015503876 Channel: 9 
Note on, F#2 key =  42;WhichDrum: C1 ; velocity: 0
@58920 , @3.106812015503876 Channel: 9 
Note on, C2 key =  36;WhichDrum: B ; velocity: 0
@58920 , @3.106812015503876 Channel: 9 
Note on, D2 key =  38;WhichDrum: T2 ; velocity: 127
@58920 , @3.106812015503876 Channel: 9 
Note on, F#2 key =  42;WhichDrum: C1 ; velocity: 127
@59040 , @3.113139534883721 Channel: 9 
Note on, D2 key =  38;WhichDrum: T2 ; velocity: 0
@59040 , @3.113139534883721 Channel: 9 
Note on, F#2 key =  42;WhichDrum: C1 ; velocity: 0
@59040 , @3.113139534883721 Channel: 9 
Note on, D2 key =  38;WhichDrum: T2 ; velocity: 127
@59040 , @3.113139534883721 Channel: 9 
Note on, C2 key =  36;WhichDrum: B ; velocity: 127
@59070 , @3.1147214147286824 Channel: 9 
Note on, D2 key =  38;WhichDrum: T2 ; velocity: 0
@59070 , @3.1147214147286824 Channel: 9 
Note on, D2 key =  38;WhichDrum: T2 ; velocity: 127
@59100 , @3.1163032945736435 Channel: 9 
Note on, D2 key =  38;WhichDrum: T2 ; velocity: 0
@59100 , @3.1163032945736435 Channel: 9 
Note on, D2 key =  38;WhichDrum: T2 ; velocity: 127
@59130 , @3.1178851744186047 Channel: 9 
Note on, D2 key =  38;WhichDrum: T2 ; velocity: 0
@59130 , @3.1178851744186047 Channel: 9 
Note on, D2 key =  38;WhichDrum: T2 ; velocity: 127
@59160 , @3.1194670542635663 Channel: 9 
Note on, C2 key =  36;WhichDrum: B ; velocity: 0
@59160 , @3.1194670542635663 Channel: 9 
Note on, D2 key =  38;WhichDrum: T2 ; velocity: 0
@59160 , @3.1194670542635663 Channel: 9 
Note on, D2 key =  38;WhichDrum: T2 ; velocity: 127
@59160 , @3.1194670542635663 Channel: 9 
Note on, C2 key =  36;WhichDrum: B ; velocity: 127
@59190 , @3.1210489341085275 Channel: 9 
Note on, D2 key =  38;WhichDrum: T2 ; velocity: 0
@59190 , @3.1210489341085275 Channel: 9 
Note on, D2 key =  38;WhichDrum: T2 ; velocity: 127
@59220 , @3.1226308139534886 Channel: 9 
Note on, D2 key =  38;WhichDrum: T2 ; velocity: 0
@59220 , @3.1226308139534886 Channel: 9 
Note on, D2 key =  38;WhichDrum: T2 ; velocity: 127
@59250 , @3.12421269379845 Channel: 9 
Note on, D2 key =  38;WhichDrum: T2 ; velocity: 0
@59250 , @3.12421269379845 Channel: 9 
Note on, D2 key =  38;WhichDrum: T2 ; velocity: 127
@59280 , @3.125794573643411 Channel: 9 
Note on, C2 key =  36;WhichDrum: B ; velocity: 0
@59280 , @3.125794573643411 Channel: 9 
Note on, D2 key =  38;WhichDrum: T2 ; velocity: 0
@59280 , @3.125794573643411 Channel: 9 
Note on, D2 key =  38;WhichDrum: T2 ; velocity: 127
@59280 , @3.125794573643411 Channel: 9 
Note on, C2 key =  36;WhichDrum: B ; velocity: 127
@59310 , @3.127376453488372 Channel: 9 
Note on, D2 key =  38;WhichDrum: T2 ; velocity: 0
@59310 , @3.127376453488372 Channel: 9 
Note on, D2 key =  38;WhichDrum: T2 ; velocity: 127
@59340 , @3.1289583333333337 Channel: 9 
Note on, D2 key =  38;WhichDrum: T2 ; velocity: 0
@59340 , @3.1289583333333337 Channel: 9 
Note on, D2 key =  38;WhichDrum: T2 ; velocity: 127
@59370 , @3.130540213178295 Channel: 9 
Note on, D2 key =  38;WhichDrum: T2 ; velocity: 0
@59370 , @3.130540213178295 Channel: 9 
Note on, D2 key =  38;WhichDrum: T2 ; velocity: 127
@59400 , @3.132122093023256 Channel: 9 
Note on, C2 key =  36;WhichDrum: B ; velocity: 0
@59400 , @3.132122093023256 Channel: 9 
Note on, D2 key =  38;WhichDrum: T2 ; velocity: 0
@59400 , @3.132122093023256 Channel: 9 
Note on, D2 key =  38;WhichDrum: T2 ; velocity: 127
@59400 , @3.132122093023256 Channel: 9 
Note on, C2 key =  36;WhichDrum: B ; velocity: 127
@59430 , @3.1337039728682172 Channel: 9 
Note on, D2 key =  38;WhichDrum: T2 ; velocity: 0
@59430 , @3.1337039728682172 Channel: 9 
Note on, D2 key =  38;WhichDrum: T2 ; velocity: 127
@59460 , @3.1352858527131784 Channel: 9 
Note on, D2 key =  38;WhichDrum: T2 ; velocity: 0
@59460 , @3.1352858527131784 Channel: 9 
Note on, D2 key =  38;WhichDrum: T2 ; velocity: 127
@59490 , @3.13686773255814 Channel: 9 
Note on, D2 key =  38;WhichDrum: T2 ; velocity: 0
@59490 , @3.13686773255814 Channel: 9 
Note on, D2 key =  38;WhichDrum: T2 ; velocity: 127
@59520 , @3.138449612403101 Channel: 9 
Note on, C2 key =  36;WhichDrum: B ; velocity: 0
@59520 , @3.138449612403101 Channel: 9 
Note on, D2 key =  38;WhichDrum: T2 ; velocity: 0
@59520 , @3.138449612403101 Channel: 9 
Note on, C2 key =  36;WhichDrum: B ; velocity: 127
@59520 , @3.138449612403101 Channel: 9 
Note on, A3 key =  57;WhichDrum: T3 ; velocity: 127
@59640 , @3.144777131782946 Channel: 9 
Note on, C2 key =  36;WhichDrum: B ; velocity: 0
@59640 , @3.144777131782946 Channel: 9 
Note on, A3 key =  57;WhichDrum: T3 ; velocity: 0
@59640 , @3.144777131782946 Channel: 9 
Note on, F#2 key =  42;WhichDrum: C1 ; velocity: 127
@59640 , @3.144777131782946 Channel: 9 
Note on, D2 key =  38;WhichDrum: T2 ; velocity: 127
@59760 , @3.151104651162791 Channel: 9 
Note on, F#2 key =  42;WhichDrum: C1 ; velocity: 0
@59760 , @3.151104651162791 Channel: 9 
Note on, D2 key =  38;WhichDrum: T2 ; velocity: 0
@59760 , @3.151104651162791 Channel: 9 
Note on, C2 key =  36;WhichDrum: B ; velocity: 127
@59760 , @3.151104651162791 Channel: 9 
Note on, F#2 key =  42;WhichDrum: C1 ; velocity: 127
@59820 , @3.1542684108527133 Channel: 9 
Note on, C2 key =  36;WhichDrum: B ; velocity: 0
@59820 , @3.1542684108527133 Channel: 9 
Note on, C2 key =  36;WhichDrum: B ; velocity: 127
@59880 , @3.157432170542636 Channel: 9 
Note on, F#2 key =  42;WhichDrum: C1 ; velocity: 0
@59880 , @3.157432170542636 Channel: 9 
Note on, C2 key =  36;WhichDrum: B ; velocity: 0
@59880 , @3.157432170542636 Channel: 9 
Note on, D2 key =  38;WhichDrum: T2 ; velocity: 127
@59880 , @3.157432170542636 Channel: 9 
Note on, F#2 key =  42;WhichDrum: C1 ; velocity: 127
@60000 , @3.1637596899224807 Channel: 9 
Note on, D2 key =  38;WhichDrum: T2 ; velocity: 0
@60000 , @3.1637596899224807 Channel: 9 
Note on, F#2 key =  42;WhichDrum: C1 ; velocity: 0
@60000 , @3.1637596899224807 Channel: 9 
Note on, C2 key =  36;WhichDrum: B ; velocity: 127
@60000 , @3.1637596899224807 Channel: 9 
Note on, F#2 key =  42;WhichDrum: C1 ; velocity: 127
@60060 , @3.166923449612403 Channel: 9 
Note on, C2 key =  36;WhichDrum: B ; velocity: 0
@60060 , @3.166923449612403 Channel: 9 
Note on, C2 key =  36;WhichDrum: B ; velocity: 127
@60120 , @3.1700872093023253 Channel: 9 
Note on, F#2 key =  42;WhichDrum: C1 ; velocity: 0
@60120 , @3.1700872093023253 Channel: 9 
Note on, C2 key =  36;WhichDrum: B ; velocity: 0
@60120 , @3.1700872093023253 Channel: 9 
Note on, D2 key =  38;WhichDrum: T2 ; velocity: 127
@60120 , @3.1700872093023253 Channel: 9 
Note on, F#2 key =  42;WhichDrum: C1 ; velocity: 127
@60240 , @3.1764147286821705 Channel: 9 
Note on, D2 key =  38;WhichDrum: T2 ; velocity: 0
@60240 , @3.1764147286821705 Channel: 9 
Note on, F#2 key =  42;WhichDrum: C1 ; velocity: 0
@60240 , @3.1764147286821705 Channel: 9 
Note on, C2 key =  36;WhichDrum: B ; velocity: 127
@60240 , @3.1764147286821705 Channel: 9 
Note on, F#2 key =  42;WhichDrum: C1 ; velocity: 127
@60300 , @3.179578488372093 Channel: 9 
Note on, C2 key =  36;WhichDrum: B ; velocity: 0
@60300 , @3.179578488372093 Channel: 9 
Note on, C2 key =  36;WhichDrum: B ; velocity: 127
@60360 , @3.1827422480620156 Channel: 9 
Note on, F#2 key =  42;WhichDrum: C1 ; velocity: 0
@60360 , @3.1827422480620156 Channel: 9 
Note on, C2 key =  36;WhichDrum: B ; velocity: 0
@60360 , @3.1827422480620156 Channel: 9 
Note on, D2 key =  38;WhichDrum: T2 ; velocity: 127
@60360 , @3.1827422480620156 Channel: 9 
Note on, F#2 key =  42;WhichDrum: C1 ; velocity: 127
@60480 , @3.1890697674418607 Channel: 9 
Note on, D2 key =  38;WhichDrum: T2 ; velocity: 0
@60480 , @3.1890697674418607 Channel: 9 
Note on, F#2 key =  42;WhichDrum: C1 ; velocity: 0
@60480 , @3.1890697674418607 Channel: 9 
Note on, C2 key =  36;WhichDrum: B ; velocity: 127
@60480 , @3.1890697674418607 Channel: 9 
Note on, F#2 key =  42;WhichDrum: C1 ; velocity: 127
@60540 , @3.192233527131783 Channel: 9 
Note on, C2 key =  36;WhichDrum: B ; velocity: 0
@60540 , @3.192233527131783 Channel: 9 
Note on, C2 key =  36;WhichDrum: B ; velocity: 127
@60600 , @3.1953972868217053 Channel: 9 
Note on, F#2 key =  42;WhichDrum: C1 ; velocity: 0
@60600 , @3.1953972868217053 Channel: 9 
Note on, C2 key =  36;WhichDrum: B ; velocity: 0
@60600 , @3.1953972868217053 Channel: 9 
Note on, D2 key =  38;WhichDrum: T2 ; velocity: 127
@60600 , @3.1953972868217053 Channel: 9 
Note on, F#2 key =  42;WhichDrum: C1 ; velocity: 127
@60720 , @3.2017248062015504 Channel: 9 
Note on, D2 key =  38;WhichDrum: T2 ; velocity: 0
@60720 , @3.2017248062015504 Channel: 9 
Note on, F#2 key =  42;WhichDrum: C1 ; velocity: 0
@60720 , @3.2017248062015504 Channel: 9 
Note on, C2 key =  36;WhichDrum: B ; velocity: 127
@60720 , @3.2017248062015504 Channel: 9 
Note on, F#2 key =  42;WhichDrum: C1 ; velocity: 127
@60780 , @3.2048885658914728 Channel: 9 
Note on, C2 key =  36;WhichDrum: B ; velocity: 0
@60780 , @3.2048885658914728 Channel: 9 
Note on, C2 key =  36;WhichDrum: B ; velocity: 127
@60840 , @3.2080523255813955 Channel: 9 
Note on, F#2 key =  42;WhichDrum: C1 ; velocity: 0
@60840 , @3.2080523255813955 Channel: 9 
Note on, C2 key =  36;WhichDrum: B ; velocity: 0
@60840 , @3.2080523255813955 Channel: 9 
Note on, D2 key =  38;WhichDrum: T2 ; velocity: 127
@60840 , @3.2080523255813955 Channel: 9 
Note on, F#2 key =  42;WhichDrum: C1 ; velocity: 127
@60960 , @3.21437984496124 Channel: 9 
Note on, D2 key =  38;WhichDrum: T2 ; velocity: 0
@60960 , @3.21437984496124 Channel: 9 
Note on, F#2 key =  42;WhichDrum: C1 ; velocity: 0
@60960 , @3.21437984496124 Channel: 9 
Note on, C2 key =  36;WhichDrum: B ; velocity: 127
@60960 , @3.21437984496124 Channel: 9 
Note on, F#2 key =  42;WhichDrum: C1 ; velocity: 127
@61020 , @3.217543604651163 Channel: 9 
Note on, C2 key =  36;WhichDrum: B ; velocity: 0
@61020 , @3.217543604651163 Channel: 9 
Note on, C2 key =  36;WhichDrum: B ; velocity: 127
@61080 , @3.2207073643410853 Channel: 9 
Note on, F#2 key =  42;WhichDrum: C1 ; velocity: 0
@61080 , @3.2207073643410853 Channel: 9 
Note on, C2 key =  36;WhichDrum: B ; velocity: 0
@61080 , @3.2207073643410853 Channel: 9 
Note on, A3 key =  57;WhichDrum: T3 ; velocity: 127
@61080 , @3.2207073643410853 Channel: 9 
Note on, D2 key =  38;WhichDrum: T2 ; velocity: 127
@61200 , @3.2270348837209304 Channel: 9 
Note on, A3 key =  57;WhichDrum: T3 ; velocity: 0
@61200 , @3.2270348837209304 Channel: 9 
Note on, D2 key =  38;WhichDrum: T2 ; velocity: 0
@61200 , @3.2270348837209304 Channel: 9 
Note on, C2 key =  36;WhichDrum: B ; velocity: 127
@61200 , @3.2270348837209304 Channel: 9 
Note on, F#2 key =  42;WhichDrum: C1 ; velocity: 127
@61260 , @3.2301986434108527 Channel: 9 
Note on, C2 key =  36;WhichDrum: B ; velocity: 0
@61260 , @3.2301986434108527 Channel: 9 
Note on, C2 key =  36;WhichDrum: B ; velocity: 127
@61320 , @3.233362403100775 Channel: 9 
Note on, F#2 key =  42;WhichDrum: C1 ; velocity: 0
@61320 , @3.233362403100775 Channel: 9 
Note on, C2 key =  36;WhichDrum: B ; velocity: 0
@61320 , @3.233362403100775 Channel: 9 
Note on, A3 key =  57;WhichDrum: T3 ; velocity: 127
@61320 , @3.233362403100775 Channel: 9 
Note on, D2 key =  38;WhichDrum: T2 ; velocity: 127
@61440 , @3.23968992248062 Channel: 9 
Note on, A3 key =  57;WhichDrum: T3 ; velocity: 0
@61440 , @3.23968992248062 Channel: 9 
Note on, D2 key =  38;WhichDrum: T2 ; velocity: 0
@61440 , @3.23968992248062 Channel: 9 
Note on, C2 key =  36;WhichDrum: B ; velocity: 127
@61440 , @3.23968992248062 Channel: 9 
Note on, F#2 key =  42;WhichDrum: C1 ; velocity: 127
@61500 , @3.242853682170543 Channel: 9 
Note on, C2 key =  36;WhichDrum: B ; velocity: 0
@61500 , @3.242853682170543 Channel: 9 
Note on, C2 key =  36;WhichDrum: B ; velocity: 127
@61560 , @3.2460174418604653 Channel: 9 
Note on, F#2 key =  42;WhichDrum: C1 ; velocity: 0
@61560 , @3.2460174418604653 Channel: 9 
Note on, C2 key =  36;WhichDrum: B ; velocity: 0
@61560 , @3.2460174418604653 Channel: 9 
Note on, D2 key =  38;WhichDrum: T2 ; velocity: 127
@61560 , @3.2460174418604653 Channel: 9 
Note on, F#2 key =  42;WhichDrum: C1 ; velocity: 127
@61680 , @3.2523449612403104 Channel: 9 
Note on, D2 key =  38;WhichDrum: T2 ; velocity: 0
@61680 , @3.2523449612403104 Channel: 9 
Note on, F#2 key =  42;WhichDrum: C1 ; velocity: 0
@61680 , @3.2523449612403104 Channel: 9 
Note on, C2 key =  36;WhichDrum: B ; velocity: 127
@61680 , @3.2523449612403104 Channel: 9 
Note on, F#2 key =  42;WhichDrum: C1 ; velocity: 127
@61740 , @3.2555087209302327 Channel: 9 
Note on, C2 key =  36;WhichDrum: B ; velocity: 0
@61740 , @3.2555087209302327 Channel: 9 
Note on, C2 key =  36;WhichDrum: B ; velocity: 127
@61800 , @3.258672480620155 Channel: 9 
Note on, F#2 key =  42;WhichDrum: C1 ; velocity: 0
@61800 , @3.258672480620155 Channel: 9 
Note on, C2 key =  36;WhichDrum: B ; velocity: 0
@61800 , @3.258672480620155 Channel: 9 
Note on, D2 key =  38;WhichDrum: T2 ; velocity: 127
@61800 , @3.258672480620155 Channel: 9 
Note on, F#2 key =  42;WhichDrum: C1 ; velocity: 127
@61920 , @3.265 Channel: 9 
Note on, D2 key =  38;WhichDrum: T2 ; velocity: 0
@61920 , @3.265 Channel: 9 
Note on, F#2 key =  42;WhichDrum: C1 ; velocity: 0
@61920 , @3.265 Channel: 9 
Note on, C2 key =  36;WhichDrum: B ; velocity: 127
@61920 , @3.265 Channel: 9 
Note on, F#2 key =  42;WhichDrum: C1 ; velocity: 127
@61980 , @3.2681637596899225 Channel: 9 
Note on, C2 key =  36;WhichDrum: B ; velocity: 0
@61980 , @3.2681637596899225 Channel: 9 
Note on, C2 key =  36;WhichDrum: B ; velocity: 127
@62040 , @3.2713275193798452 Channel: 9 
Note on, F#2 key =  42;WhichDrum: C1 ; velocity: 0
@62040 , @3.2713275193798452 Channel: 9 
Note on, C2 key =  36;WhichDrum: B ; velocity: 0
@62040 , @3.2713275193798452 Channel: 9 
Note on, D2 key =  38;WhichDrum: T2 ; velocity: 127
@62040 , @3.2713275193798452 Channel: 9 
Note on, F#2 key =  42;WhichDrum: C1 ; velocity: 127
@62160 , @3.27765503875969 Channel: 9 
Note on, D2 key =  38;WhichDrum: T2 ; velocity: 0
@62160 , @3.27765503875969 Channel: 9 
Note on, F#2 key =  42;WhichDrum: C1 ; velocity: 0
@62160 , @3.27765503875969 Channel: 9 
Note on, C2 key =  36;WhichDrum: B ; velocity: 127
@62160 , @3.27765503875969 Channel: 9 
Note on, F#2 key =  42;WhichDrum: C1 ; velocity: 127
@62220 , @3.2808187984496127 Channel: 9 
Note on, C2 key =  36;WhichDrum: B ; velocity: 0
@62220 , @3.2808187984496127 Channel: 9 
Note on, C2 key =  36;WhichDrum: B ; velocity: 127
@62280 , @3.283982558139535 Channel: 9 
Note on, F#2 key =  42;WhichDrum: C1 ; velocity: 0
@62280 , @3.283982558139535 Channel: 9 
Note on, C2 key =  36;WhichDrum: B ; velocity: 0
@62280 , @3.283982558139535 Channel: 9 
Note on, D2 key =  38;WhichDrum: T2 ; velocity: 127
@62280 , @3.283982558139535 Channel: 9 
Note on, F#2 key =  42;WhichDrum: C1 ; velocity: 127
@62400 , @3.29031007751938 Channel: 9 
Note on, D2 key =  38;WhichDrum: T2 ; velocity: 0
@62400 , @3.29031007751938 Channel: 9 
Note on, F#2 key =  42;WhichDrum: C1 ; velocity: 0
@62400 , @3.29031007751938 Channel: 9 
Note on, C2 key =  36;WhichDrum: B ; velocity: 127
@62400 , @3.29031007751938 Channel: 9 
Note on, F#2 key =  42;WhichDrum: C1 ; velocity: 127
@62460 , @3.2934738372093024 Channel: 9 
Note on, C2 key =  36;WhichDrum: B ; velocity: 0
@62460 , @3.2934738372093024 Channel: 9 
Note on, C2 key =  36;WhichDrum: B ; velocity: 127
@62520 , @3.296637596899225 Channel: 9 
Note on, F#2 key =  42;WhichDrum: C1 ; velocity: 0
@62520 , @3.296637596899225 Channel: 9 
Note on, C2 key =  36;WhichDrum: B ; velocity: 0
@62520 , @3.296637596899225 Channel: 9 
Note on, D2 key =  38;WhichDrum: T2 ; velocity: 127
@62520 , @3.296637596899225 Channel: 9 
Note on, F#2 key =  42;WhichDrum: C1 ; velocity: 127
@62640 , @3.30296511627907 Channel: 9 
Note on, D2 key =  38;WhichDrum: T2 ; velocity: 0
@62640 , @3.30296511627907 Channel: 9 
Note on, F#2 key =  42;WhichDrum: C1 ; velocity: 0
@62640 , @3.30296511627907 Channel: 9 
Note on, C2 key =  36;WhichDrum: B ; velocity: 127
@62640 , @3.30296511627907 Channel: 9 
Note on, F#2 key =  42;WhichDrum: C1 ; velocity: 127
@62700 , @3.3061288759689926 Channel: 9 
Note on, C2 key =  36;WhichDrum: B ; velocity: 0
@62700 , @3.3061288759689926 Channel: 9 
Note on, C2 key =  36;WhichDrum: B ; velocity: 127
@62760 , @3.309292635658915 Channel: 9 
Note on, F#2 key =  42;WhichDrum: C1 ; velocity: 0
@62760 , @3.309292635658915 Channel: 9 
Note on, C2 key =  36;WhichDrum: B ; velocity: 0
@62760 , @3.309292635658915 Channel: 9 
Note on, D2 key =  38;WhichDrum: T2 ; velocity: 127
@62760 , @3.309292635658915 Channel: 9 
Note on, F#2 key =  42;WhichDrum: C1 ; velocity: 127
@62880 , @3.31562015503876 Channel: 9 
Note on, D2 key =  38;WhichDrum: T2 ; velocity: 0
@62880 , @3.31562015503876 Channel: 9 
Note on, F#2 key =  42;WhichDrum: C1 ; velocity: 0
@62880 , @3.31562015503876 Channel: 9 
Note on, D2 key =  38;WhichDrum: T2 ; velocity: 127
@62880 , @3.31562015503876 Channel: 9 
Note on, C2 key =  36;WhichDrum: B ; velocity: 127
@62910 , @3.317202034883721 Channel: 9 
Note on, D2 key =  38;WhichDrum: T2 ; velocity: 0
@62910 , @3.317202034883721 Channel: 9 
Note on, D2 key =  38;WhichDrum: T2 ; velocity: 127
@62940 , @3.3187839147286824 Channel: 9 
Note on, D2 key =  38;WhichDrum: T2 ; velocity: 0
@62940 , @3.3187839147286824 Channel: 9 
Note on, D2 key =  38;WhichDrum: T2 ; velocity: 127
@62970 , @3.320365794573643 Channel: 9 
Note on, D2 key =  38;WhichDrum: T2 ; velocity: 0
@62970 , @3.320365794573643 Channel: 9 
Note on, D2 key =  38;WhichDrum: T2 ; velocity: 127
@63000 , @3.3219476744186047 Channel: 9 
Note on, C2 key =  36;WhichDrum: B ; velocity: 0
@63000 , @3.3219476744186047 Channel: 9 
Note on, D2 key =  38;WhichDrum: T2 ; velocity: 0
@63000 , @3.3219476744186047 Channel: 9 
Note on, A2 key =  45;WhichDrum: T3 ; velocity: 127
@63000 , @3.3219476744186047 Channel: 9 
Note on, C2 key =  36;WhichDrum: B ; velocity: 127
@63030 , @3.323529554263566 Channel: 9 
Note on, A2 key =  45;WhichDrum: T3 ; velocity: 0
@63030 , @3.323529554263566 Channel: 9 
Note on, A2 key =  45;WhichDrum: T3 ; velocity: 127
@63060 , @3.3251114341085275 Channel: 9 
Note on, A2 key =  45;WhichDrum: T3 ; velocity: 0
@63060 , @3.3251114341085275 Channel: 9 
Note on, A2 key =  45;WhichDrum: T3 ; velocity: 127
@63090 , @3.326693313953488 Channel: 9 
Note on, A2 key =  45;WhichDrum: T3 ; velocity: 0
@63090 , @3.326693313953488 Channel: 9 
Note on, A2 key =  45;WhichDrum: T3 ; velocity: 127
@63120 , @3.32827519379845 Channel: 9 
Note on, C2 key =  36;WhichDrum: B ; velocity: 0
@63120 , @3.32827519379845 Channel: 9 
Note on, A2 key =  45;WhichDrum: T3 ; velocity: 0
@63120 , @3.32827519379845 Channel: 9 
Note on, B2 key =  47;WhichDrum: T1 ; velocity: 127
@63120 , @3.32827519379845 Channel: 9 
Note on, C2 key =  36;WhichDrum: B ; velocity: 127
@63150 , @3.3298570736434105 Channel: 9 
Note on, B2 key =  47;WhichDrum: T1 ; velocity: 0
@63150 , @3.3298570736434105 Channel: 9 
Note on, B2 key =  47;WhichDrum: T1 ; velocity: 127
@63180 , @3.331438953488372 Channel: 9 
Note on, B2 key =  47;WhichDrum: T1 ; velocity: 0
@63180 , @3.331438953488372 Channel: 9 
Note on, B2 key =  47;WhichDrum: T1 ; velocity: 127
@63210 , @3.3330208333333333 Channel: 9 
Note on, B2 key =  47;WhichDrum: T1 ; velocity: 0
@63210 , @3.3330208333333333 Channel: 9 
Note on, B2 key =  47;WhichDrum: T1 ; velocity: 127
@63240 , @3.334602713178295 Channel: 9 
Note on, C2 key =  36;WhichDrum: B ; velocity: 0
@63240 , @3.334602713178295 Channel: 9 
Note on, B2 key =  47;WhichDrum: T1 ; velocity: 0
@63240 , @3.334602713178295 Channel: 9 
Note on, C3 key =  48;WhichDrum: B ; velocity: 127
@63240 , @3.334602713178295 Channel: 9 
Note on, C2 key =  36;WhichDrum: B ; velocity: 127
@63270 , @3.3361845930232557 Channel: 9 
Note on, C3 key =  48;WhichDrum: B ; velocity: 0
@63270 , @3.3361845930232557 Channel: 9 
Note on, C3 key =  48;WhichDrum: B ; velocity: 127
@63300 , @3.3377664728682173 Channel: 9 
Note on, C3 key =  48;WhichDrum: B ; velocity: 0
@63300 , @3.3377664728682173 Channel: 9 
Note on, C3 key =  48;WhichDrum: B ; velocity: 127
@63330 , @3.339348352713178 Channel: 9 
Note on, C3 key =  48;WhichDrum: B ; velocity: 0
@63330 , @3.339348352713178 Channel: 9 
Note on, C3 key =  48;WhichDrum: B ; velocity: 127
@63360 , @3.3409302325581396 Channel: 9 
Note on, C2 key =  36;WhichDrum: B ; velocity: 0
@63360 , @3.3409302325581396 Channel: 9 
Note on, C3 key =  48;WhichDrum: B ; velocity: 0
@63360 , @3.3409302325581396 Channel: 9 
Note on, C2 key =  36;WhichDrum: B ; velocity: 127
@63360 , @3.3409302325581396 Channel: 9 
Note on, A3 key =  57;WhichDrum: T3 ; velocity: 127
@63480 , @3.3472577519379847 Channel: 9 
Note on, C2 key =  36;WhichDrum: B ; velocity: 0
@63480 , @3.3472577519379847 Channel: 9 
Note on, A3 key =  57;WhichDrum: T3 ; velocity: 0
@63480 , @3.3472577519379847 Channel: 9 
Note on, D2 key =  38;WhichDrum: T2 ; velocity: 127
@63480 , @3.3472577519379847 Channel: 9 
Note on, F#2 key =  42;WhichDrum: C1 ; velocity: 127
@63600 , @3.35358527131783 Channel: 9 
Note on, D2 key =  38;WhichDrum: T2 ; velocity: 0
@63600 , @3.35358527131783 Channel: 9 
Note on, F#2 key =  42;WhichDrum: C1 ; velocity: 0
@63600 , @3.35358527131783 Channel: 9 
Note on, C2 key =  36;WhichDrum: B ; velocity: 127
@63600 , @3.35358527131783 Channel: 9 
Note on, F#2 key =  42;WhichDrum: C1 ; velocity: 127
@63660 , @3.356749031007752 Channel: 9 
Note on, C2 key =  36;WhichDrum: B ; velocity: 0
@63660 , @3.356749031007752 Channel: 9 
Note on, C2 key =  36;WhichDrum: B ; velocity: 127
@63720 , @3.359912790697675 Channel: 9 
Note on, F#2 key =  42;WhichDrum: C1 ; velocity: 0
@63720 , @3.359912790697675 Channel: 9 
Note on, C2 key =  36;WhichDrum: B ; velocity: 0
@63720 , @3.359912790697675 Channel: 9 
Note on, D2 key =  38;WhichDrum: T2 ; velocity: 127
@63720 , @3.359912790697675 Channel: 9 
Note on, F#2 key =  42;WhichDrum: C1 ; velocity: 127
@63840 , @3.3662403100775196 Channel: 9 
Note on, D2 key =  38;WhichDrum: T2 ; velocity: 0
@63840 , @3.3662403100775196 Channel: 9 
Note on, F#2 key =  42;WhichDrum: C1 ; velocity: 0
@63840 , @3.3662403100775196 Channel: 9 
Note on, C2 key =  36;WhichDrum: B ; velocity: 127
@63840 , @3.3662403100775196 Channel: 9 
Note on, A3 key =  57;WhichDrum: T3 ; velocity: 127
@63960 , @3.3725678294573647 Channel: 9 
Note on, C2 key =  36;WhichDrum: B ; velocity: 0
@63960 , @3.3725678294573647 Channel: 9 
Note on, A3 key =  57;WhichDrum: T3 ; velocity: 0
@63960 , @3.3725678294573647 Channel: 9 
Note on, D2 key =  38;WhichDrum: T2 ; velocity: 127
@63960 , @3.3725678294573647 Channel: 9 
Note on, F#2 key =  42;WhichDrum: C1 ; velocity: 127
@64020 , @3.375731589147287 Channel: 9 
Note on, D2 key =  38;WhichDrum: T2 ; velocity: 0
@64020 , @3.375731589147287 Channel: 9 
Note on, F#2 key =  42;WhichDrum: C1 ; velocity: 0
@64020 , @3.375731589147287 Channel: 9 
Note on, A2 key =  45;WhichDrum: T3 ; velocity: 127
@64080 , @3.3788953488372098 Channel: 9 
Note on, A2 key =  45;WhichDrum: T3 ; velocity: 0
@64080 , @3.3788953488372098 Channel: 9 
Note on, B2 key =  47;WhichDrum: T1 ; velocity: 127
@64140 , @3.382059108527132 Channel: 9 
Note on, B2 key =  47;WhichDrum: T1 ; velocity: 0
@64140 , @3.382059108527132 Channel: 9 
Note on, B2 key =  47;WhichDrum: T1 ; velocity: 127
@64200 , @3.3852228682170544 Channel: 9 
Note on, B2 key =  47;WhichDrum: T1 ; velocity: 0
@64200 , @3.3852228682170544 Channel: 9 
Note on, B2 key =  47;WhichDrum: T1 ; velocity: 127
@64320 , @3.3915503875968995 Channel: 9 
Note on, B2 key =  47;WhichDrum: T1 ; velocity: 0
@64320 , @3.3915503875968995 Channel: 9 
Note on, C2 key =  36;WhichDrum: B ; velocity: 127
@64320 , @3.3915503875968995 Channel: 9 
Note on, A3 key =  57;WhichDrum: T3 ; velocity: 127
@64440 , @3.3978779069767446 Channel: 9 
Note on, C2 key =  36;WhichDrum: B ; velocity: 0
@64440 , @3.3978779069767446 Channel: 9 
Note on, A3 key =  57;WhichDrum: T3 ; velocity: 0
@64440 , @3.3978779069767446 Channel: 9 
Note on, D2 key =  38;WhichDrum: T2 ; velocity: 127
@64440 , @3.3978779069767446 Channel: 9 
Note on, F#2 key =  42;WhichDrum: C1 ; velocity: 127
@64560 , @3.4042054263565897 Channel: 9 
Note on, D2 key =  38;WhichDrum: T2 ; velocity: 0
@64560 , @3.4042054263565897 Channel: 9 
Note on, F#2 key =  42;WhichDrum: C1 ; velocity: 0
@64560 , @3.4042054263565897 Channel: 9 
Note on, C2 key =  36;WhichDrum: B ; velocity: 127
@64560 , @3.4042054263565897 Channel: 9 
Note on, F#2 key =  42;WhichDrum: C1 ; velocity: 127
@64620 , @3.407369186046512 Channel: 9 
Note on, C2 key =  36;WhichDrum: B ; velocity: 0
@64620 , @3.407369186046512 Channel: 9 
Note on, C2 key =  36;WhichDrum: B ; velocity: 127
@64680 , @3.4105329457364344 Channel: 9 
Note on, F#2 key =  42;WhichDrum: C1 ; velocity: 0
@64680 , @3.4105329457364344 Channel: 9 
Note on, C2 key =  36;WhichDrum: B ; velocity: 0
@64680 , @3.4105329457364344 Channel: 9 
Note on, D2 key =  38;WhichDrum: T2 ; velocity: 127
@64680 , @3.4105329457364344 Channel: 9 
Note on, F#2 key =  42;WhichDrum: C1 ; velocity: 127
@64800 , @3.4168604651162795 Channel: 9 
Note on, D2 key =  38;WhichDrum: T2 ; velocity: 0
@64800 , @3.4168604651162795 Channel: 9 
Note on, F#2 key =  42;WhichDrum: C1 ; velocity: 0
@64800 , @3.4168604651162795 Channel: 9 
Note on, F#2 key =  42;WhichDrum: C1 ; velocity: 127
@64800 , @3.4168604651162795 Channel: 9 
Note on, C2 key =  36;WhichDrum: B ; velocity: 127
@64860 , @3.420024224806202 Channel: 9 
Note on, C2 key =  36;WhichDrum: B ; velocity: 0
@64860 , @3.420024224806202 Channel: 9 
Note on, C2 key =  36;WhichDrum: B ; velocity: 127
@64920 , @3.4231879844961246 Channel: 9 
Note on, F#2 key =  42;WhichDrum: C1 ; velocity: 0
@64920 , @3.4231879844961246 Channel: 9 
Note on, C2 key =  36;WhichDrum: B ; velocity: 0
@64920 , @3.4231879844961246 Channel: 9 
Note on, D2 key =  38;WhichDrum: T2 ; velocity: 127
@64920 , @3.4231879844961246 Channel: 9 
Note on, F#2 key =  42;WhichDrum: C1 ; velocity: 127
@65040 , @3.4295155038759693 Channel: 9 
Note on, D2 key =  38;WhichDrum: T2 ; velocity: 0
@65040 , @3.4295155038759693 Channel: 9 
Note on, F#2 key =  42;WhichDrum: C1 ; velocity: 0
@65040 , @3.4295155038759693 Channel: 9 
Note on, F#2 key =  42;WhichDrum: C1 ; velocity: 127
@65040 , @3.4295155038759693 Channel: 9 
Note on, C2 key =  36;WhichDrum: B ; velocity: 127
@65100 , @3.432679263565892 Channel: 9 
Note on, C2 key =  36;WhichDrum: B ; velocity: 0
@65100 , @3.432679263565892 Channel: 9 
Note on, C2 key =  36;WhichDrum: B ; velocity: 127
@65160 , @3.4358430232558144 Channel: 9 
Note on, F#2 key =  42;WhichDrum: C1 ; velocity: 0
@65160 , @3.4358430232558144 Channel: 9 
Note on, C2 key =  36;WhichDrum: B ; velocity: 0
@65160 , @3.4358430232558144 Channel: 9 
Note on, D2 key =  38;WhichDrum: T2 ; velocity: 127
@65160 , @3.4358430232558144 Channel: 9 
Note on, F#2 key =  42;WhichDrum: C1 ; velocity: 127
@65280 , @3.4421705426356595 Channel: 9 
Note on, D2 key =  38;WhichDrum: T2 ; velocity: 0
@65280 , @3.4421705426356595 Channel: 9 
Note on, F#2 key =  42;WhichDrum: C1 ; velocity: 0
@65280 , @3.4421705426356595 Channel: 9 
Note on, C2 key =  36;WhichDrum: B ; velocity: 127
@65280 , @3.4421705426356595 Channel: 9 
Note on, A3 key =  57;WhichDrum: T3 ; velocity: 127
@65400 , @3.448498062015504 Channel: 9 
Note on, C2 key =  36;WhichDrum: B ; velocity: 0
@65400 , @3.448498062015504 Channel: 9 
Note on, A3 key =  57;WhichDrum: T3 ; velocity: 0
@65400 , @3.448498062015504 Channel: 9 
Note on, D2 key =  38;WhichDrum: T2 ; velocity: 127
@65400 , @3.448498062015504 Channel: 9 
Note on, F#2 key =  42;WhichDrum: C1 ; velocity: 127
@65520 , @3.4548255813953492 Channel: 9 
Note on, D2 key =  38;WhichDrum: T2 ; velocity: 0
@65520 , @3.4548255813953492 Channel: 9 
Note on, F#2 key =  42;WhichDrum: C1 ; velocity: 0
@65520 , @3.4548255813953492 Channel: 9 
Note on, C2 key =  36;WhichDrum: B ; velocity: 127
@65520 , @3.4548255813953492 Channel: 9 
Note on, F#2 key =  42;WhichDrum: C1 ; velocity: 127
@65580 , @3.457989341085272 Channel: 9 
Note on, C2 key =  36;WhichDrum: B ; velocity: 0
@65580 , @3.457989341085272 Channel: 9 
Note on, C2 key =  36;WhichDrum: B ; velocity: 127
@65640 , @3.4611531007751943 Channel: 9 
Note on, F#2 key =  42;WhichDrum: C1 ; velocity: 0
@65640 , @3.4611531007751943 Channel: 9 
Note on, C2 key =  36;WhichDrum: B ; velocity: 0
@65640 , @3.4611531007751943 Channel: 9 
Note on, D2 key =  38;WhichDrum: T2 ; velocity: 127
@65640 , @3.4611531007751943 Channel: 9 
Note on, F#2 key =  42;WhichDrum: C1 ; velocity: 127
@65760 , @3.4674806201550394 Channel: 9 
Note on, D2 key =  38;WhichDrum: T2 ; velocity: 0
@65760 , @3.4674806201550394 Channel: 9 
Note on, F#2 key =  42;WhichDrum: C1 ; velocity: 0
@65760 , @3.4674806201550394 Channel: 9 
Note on, C2 key =  36;WhichDrum: B ; velocity: 127
@65760 , @3.4674806201550394 Channel: 9 
Note on, A3 key =  57;WhichDrum: T3 ; velocity: 127
@65880 , @3.4738081395348837 Channel: 9 
Note on, C2 key =  36;WhichDrum: B ; velocity: 0
@65880 , @3.4738081395348837 Channel: 9 
Note on, A3 key =  57;WhichDrum: T3 ; velocity: 0
@65880 , @3.4738081395348837 Channel: 9 
Note on, D2 key =  38;WhichDrum: T2 ; velocity: 127
@65880 , @3.4738081395348837 Channel: 9 
Note on, F#2 key =  42;WhichDrum: C1 ; velocity: 127
@65940 , @3.476971899224806 Channel: 9 
Note on, D2 key =  38;WhichDrum: T2 ; velocity: 0
@65940 , @3.476971899224806 Channel: 9 
Note on, F#2 key =  42;WhichDrum: C1 ; velocity: 0
@65940 , @3.476971899224806 Channel: 9 
Note on, A2 key =  45;WhichDrum: T3 ; velocity: 127
@66000 , @3.4801356589147283 Channel: 9 
Note on, A2 key =  45;WhichDrum: T3 ; velocity: 0
@66000 , @3.4801356589147283 Channel: 9 
Note on, B2 key =  47;WhichDrum: T1 ; velocity: 127
@66060 , @3.483299418604651 Channel: 9 
Note on, B2 key =  47;WhichDrum: T1 ; velocity: 0
@66060 , @3.483299418604651 Channel: 9 
Note on, B2 key =  47;WhichDrum: T1 ; velocity: 127
@66120 , @3.4864631782945734 Channel: 9 
Note on, B2 key =  47;WhichDrum: T1 ; velocity: 0
@66120 , @3.4864631782945734 Channel: 9 
Note on, B2 key =  47;WhichDrum: T1 ; velocity: 127
@66240 , @3.4927906976744185 Channel: 9 
Note on, B2 key =  47;WhichDrum: T1 ; velocity: 0
@66240 , @3.4927906976744185 Channel: 9 
Note on, C2 key =  36;WhichDrum: B ; velocity: 127
@66240 , @3.4927906976744185 Channel: 9 
Note on, A3 key =  57;WhichDrum: T3 ; velocity: 127
@66360 , @3.499118217054263 Channel: 9 
Note on, C2 key =  36;WhichDrum: B ; velocity: 0
@66360 , @3.499118217054263 Channel: 9 
Note on, A3 key =  57;WhichDrum: T3 ; velocity: 0
@66360 , @3.499118217054263 Channel: 9 
Note on, D2 key =  38;WhichDrum: T2 ; velocity: 127
@66360 , @3.499118217054263 Channel: 9 
Note on, F#2 key =  42;WhichDrum: C1 ; velocity: 127
@66480 , @3.5054457364341083 Channel: 9 
Note on, D2 key =  38;WhichDrum: T2 ; velocity: 0
@66480 , @3.5054457364341083 Channel: 9 
Note on, F#2 key =  42;WhichDrum: C1 ; velocity: 0
@66480 , @3.5054457364341083 Channel: 9 
Note on, C2 key =  36;WhichDrum: B ; velocity: 127
@66480 , @3.5054457364341083 Channel: 9 
Note on, F#2 key =  42;WhichDrum: C1 ; velocity: 127
@66540 , @3.508609496124031 Channel: 9 
Note on, C2 key =  36;WhichDrum: B ; velocity: 0
@66540 , @3.508609496124031 Channel: 9 
Note on, C2 key =  36;WhichDrum: B ; velocity: 127
@66600 , @3.5117732558139534 Channel: 9 
Note on, F#2 key =  42;WhichDrum: C1 ; velocity: 0
@66600 , @3.5117732558139534 Channel: 9 
Note on, C2 key =  36;WhichDrum: B ; velocity: 0
@66600 , @3.5117732558139534 Channel: 9 
Note on, D2 key =  38;WhichDrum: T2 ; velocity: 127
@66600 , @3.5117732558139534 Channel: 9 
Note on, F#2 key =  42;WhichDrum: C1 ; velocity: 127
@66720 , @3.5181007751937985 Channel: 9 
Note on, D2 key =  38;WhichDrum: T2 ; velocity: 0
@66720 , @3.5181007751937985 Channel: 9 
Note on, F#2 key =  42;WhichDrum: C1 ; velocity: 0
@66720 , @3.5181007751937985 Channel: 9 
Note on, F#2 key =  42;WhichDrum: C1 ; velocity: 127
@66720 , @3.5181007751937985 Channel: 9 
Note on, C2 key =  36;WhichDrum: B ; velocity: 127
@66780 , @3.521264534883721 Channel: 9 
Note on, C2 key =  36;WhichDrum: B ; velocity: 0
@66780 , @3.521264534883721 Channel: 9 
Note on, C2 key =  36;WhichDrum: B ; velocity: 127
@66840 , @3.524428294573643 Channel: 9 
Note on, F#2 key =  42;WhichDrum: C1 ; velocity: 0
@66840 , @3.524428294573643 Channel: 9 
Note on, C2 key =  36;WhichDrum: B ; velocity: 0
@66840 , @3.524428294573643 Channel: 9 
Note on, D2 key =  38;WhichDrum: T2 ; velocity: 127
@66840 , @3.524428294573643 Channel: 9 
Note on, F#2 key =  42;WhichDrum: C1 ; velocity: 127
@66960 , @3.5307558139534883 Channel: 9 
Note on, D2 key =  38;WhichDrum: T2 ; velocity: 0
@66960 , @3.5307558139534883 Channel: 9 
Note on, F#2 key =  42;WhichDrum: C1 ; velocity: 0
@66960 , @3.5307558139534883 Channel: 9 
Note on, F#2 key =  42;WhichDrum: C1 ; velocity: 127
@66960 , @3.5307558139534883 Channel: 9 
Note on, C2 key =  36;WhichDrum: B ; velocity: 127
@67020 , @3.5339195736434106 Channel: 9 
Note on, C2 key =  36;WhichDrum: B ; velocity: 0
@67020 , @3.5339195736434106 Channel: 9 
Note on, C2 key =  36;WhichDrum: B ; velocity: 127
@67080 , @3.5370833333333334 Channel: 9 
Note on, F#2 key =  42;WhichDrum: C1 ; velocity: 0
@67080 , @3.5370833333333334 Channel: 9 
Note on, C2 key =  36;WhichDrum: B ; velocity: 0
@67080 , @3.5370833333333334 Channel: 9 
Note on, D2 key =  38;WhichDrum: T2 ; velocity: 127
@67080 , @3.5370833333333334 Channel: 9 
Note on, F#2 key =  42;WhichDrum: C1 ; velocity: 127
@67200 , @3.543410852713178 Channel: 9 
Note on, D2 key =  38;WhichDrum: T2 ; velocity: 0
@67200 , @3.543410852713178 Channel: 9 
Note on, F#2 key =  42;WhichDrum: C1 ; velocity: 0
@67200 , @3.543410852713178 Channel: 9 
Note on, C2 key =  36;WhichDrum: B ; velocity: 127
@67200 , @3.543410852713178 Channel: 9 
Note on, A3 key =  57;WhichDrum: T3 ; velocity: 127
@67320 , @3.549738372093023 Channel: 9 
Note on, C2 key =  36;WhichDrum: B ; velocity: 0
@67320 , @3.549738372093023 Channel: 9 
Note on, A3 key =  57;WhichDrum: T3 ; velocity: 0
@67320 , @3.549738372093023 Channel: 9 
Note on, D2 key =  38;WhichDrum: T2 ; velocity: 127
@67320 , @3.549738372093023 Channel: 9 
Note on, F#2 key =  42;WhichDrum: C1 ; velocity: 127
@67440 , @3.5560658914728682 Channel: 9 
Note on, D2 key =  38;WhichDrum: T2 ; velocity: 0
@67440 , @3.5560658914728682 Channel: 9 
Note on, F#2 key =  42;WhichDrum: C1 ; velocity: 0
@67440 , @3.5560658914728682 Channel: 9 
Note on, C2 key =  36;WhichDrum: B ; velocity: 127
@67440 , @3.5560658914728682 Channel: 9 
Note on, F#2 key =  42;WhichDrum: C1 ; velocity: 127
@67500 , @3.5592296511627906 Channel: 9 
Note on, C2 key =  36;WhichDrum: B ; velocity: 0
@67500 , @3.5592296511627906 Channel: 9 
Note on, C2 key =  36;WhichDrum: B ; velocity: 127
@67560 , @3.5623934108527133 Channel: 9 
Note on, F#2 key =  42;WhichDrum: C1 ; velocity: 0
@67560 , @3.5623934108527133 Channel: 9 
Note on, C2 key =  36;WhichDrum: B ; velocity: 0
@67560 , @3.5623934108527133 Channel: 9 
Note on, D2 key =  38;WhichDrum: T2 ; velocity: 127
@67560 , @3.5623934108527133 Channel: 9 
Note on, F#2 key =  42;WhichDrum: C1 ; velocity: 127
@67680 , @3.568720930232558 Channel: 9 
Note on, D2 key =  38;WhichDrum: T2 ; velocity: 0
@67680 , @3.568720930232558 Channel: 9 
Note on, F#2 key =  42;WhichDrum: C1 ; velocity: 0
@67680 , @3.568720930232558 Channel: 9 
Note on, C2 key =  36;WhichDrum: B ; velocity: 127
@67680 , @3.568720930232558 Channel: 9 
Note on, A3 key =  57;WhichDrum: T3 ; velocity: 127
@67800 , @3.575048449612403 Channel: 9 
Note on, C2 key =  36;WhichDrum: B ; velocity: 0
@67800 , @3.575048449612403 Channel: 9 
Note on, A3 key =  57;WhichDrum: T3 ; velocity: 0
@67800 , @3.575048449612403 Channel: 9 
Note on, D2 key =  38;WhichDrum: T2 ; velocity: 127
@67800 , @3.575048449612403 Channel: 9 
Note on, F#2 key =  42;WhichDrum: C1 ; velocity: 127
@67860 , @3.5782122093023254 Channel: 9 
Note on, D2 key =  38;WhichDrum: T2 ; velocity: 0
@67860 , @3.5782122093023254 Channel: 9 
Note on, F#2 key =  42;WhichDrum: C1 ; velocity: 0
@67860 , @3.5782122093023254 Channel: 9 
Note on, A2 key =  45;WhichDrum: T3 ; velocity: 127
@67920 , @3.581375968992248 Channel: 9 
Note on, A2 key =  45;WhichDrum: T3 ; velocity: 0
@67920 , @3.581375968992248 Channel: 9 
Note on, B2 key =  47;WhichDrum: T1 ; velocity: 127
@67980 , @3.5845397286821705 Channel: 9 
Note on, B2 key =  47;WhichDrum: T1 ; velocity: 0
@67980 , @3.5845397286821705 Channel: 9 
Note on, B2 key =  47;WhichDrum: T1 ; velocity: 127
@68040 , @3.587703488372093 Channel: 9 
Note on, B2 key =  47;WhichDrum: T1 ; velocity: 0
@68040 , @3.587703488372093 Channel: 9 
Note on, B2 key =  47;WhichDrum: T1 ; velocity: 127
@68160 , @3.594031007751938 Channel: 9 
Note on, B2 key =  47;WhichDrum: T1 ; velocity: 0
@68160 , @3.594031007751938 Channel: 9 
Note on, C2 key =  36;WhichDrum: B ; velocity: 127
@68160 , @3.594031007751938 Channel: 9 
Note on, A3 key =  57;WhichDrum: T3 ; velocity: 127
@68280 , @3.600358527131783 Channel: 9 
Note on, C2 key =  36;WhichDrum: B ; velocity: 0
@68280 , @3.600358527131783 Channel: 9 
Note on, A3 key =  57;WhichDrum: T3 ; velocity: 0
@68280 , @3.600358527131783 Channel: 9 
Note on, D2 key =  38;WhichDrum: T2 ; velocity: 127
@68280 , @3.600358527131783 Channel: 9 
Note on, F#2 key =  42;WhichDrum: C1 ; velocity: 127
@68400 , @3.6066860465116277 Channel: 9 
Note on, D2 key =  38;WhichDrum: T2 ; velocity: 0
@68400 , @3.6066860465116277 Channel: 9 
Note on, F#2 key =  42;WhichDrum: C1 ; velocity: 0
@68400 , @3.6066860465116277 Channel: 9 
Note on, C2 key =  36;WhichDrum: B ; velocity: 127
@68400 , @3.6066860465116277 Channel: 9 
Note on, F#2 key =  42;WhichDrum: C1 ; velocity: 127
@68460 , @3.6098498062015505 Channel: 9 
Note on, C2 key =  36;WhichDrum: B ; velocity: 0
@68460 , @3.6098498062015505 Channel: 9 
Note on, C2 key =  36;WhichDrum: B ; velocity: 127
@68520 , @3.613013565891473 Channel: 9 
Note on, F#2 key =  42;WhichDrum: C1 ; velocity: 0
@68520 , @3.613013565891473 Channel: 9 
Note on, C2 key =  36;WhichDrum: B ; velocity: 0
@68520 , @3.613013565891473 Channel: 9 
Note on, D2 key =  38;WhichDrum: T2 ; velocity: 127
@68520 , @3.613013565891473 Channel: 9 
Note on, F#2 key =  42;WhichDrum: C1 ; velocity: 127
@68640 , @3.619341085271318 Channel: 9 
Note on, D2 key =  38;WhichDrum: T2 ; velocity: 0
@68640 , @3.619341085271318 Channel: 9 
Note on, F#2 key =  42;WhichDrum: C1 ; velocity: 0
@68640 , @3.619341085271318 Channel: 9 
Note on, F#2 key =  42;WhichDrum: C1 ; velocity: 127
@68640 , @3.619341085271318 Channel: 9 
Note on, C2 key =  36;WhichDrum: B ; velocity: 127
@68700 , @3.6225048449612403 Channel: 9 
Note on, C2 key =  36;WhichDrum: B ; velocity: 0
@68700 , @3.6225048449612403 Channel: 9 
Note on, C2 key =  36;WhichDrum: B ; velocity: 127
@68760 , @3.625668604651163 Channel: 9 
Note on, F#2 key =  42;WhichDrum: C1 ; velocity: 0
@68760 , @3.625668604651163 Channel: 9 
Note on, C2 key =  36;WhichDrum: B ; velocity: 0
@68760 , @3.625668604651163 Channel: 9 
Note on, D2 key =  38;WhichDrum: T2 ; velocity: 127
@68760 , @3.625668604651163 Channel: 9 
Note on, F#2 key =  42;WhichDrum: C1 ; velocity: 127
@68880 , @3.6319961240310077 Channel: 9 
Note on, D2 key =  38;WhichDrum: T2 ; velocity: 0
@68880 , @3.6319961240310077 Channel: 9 
Note on, F#2 key =  42;WhichDrum: C1 ; velocity: 0
@68880 , @3.6319961240310077 Channel: 9 
Note on, F#2 key =  42;WhichDrum: C1 ; velocity: 127
@68880 , @3.6319961240310077 Channel: 9 
Note on, C2 key =  36;WhichDrum: B ; velocity: 127
@68940 , @3.6351598837209305 Channel: 9 
Note on, C2 key =  36;WhichDrum: B ; velocity: 0
@68940 , @3.6351598837209305 Channel: 9 
Note on, C2 key =  36;WhichDrum: B ; velocity: 127
@69000 , @3.638323643410853 Channel: 9 
Note on, F#2 key =  42;WhichDrum: C1 ; velocity: 0
@69000 , @3.638323643410853 Channel: 9 
Note on, C2 key =  36;WhichDrum: B ; velocity: 0
@69000 , @3.638323643410853 Channel: 9 
Note on, D2 key =  38;WhichDrum: T2 ; velocity: 127
@69000 , @3.638323643410853 Channel: 9 
Note on, F#2 key =  42;WhichDrum: C1 ; velocity: 127
@69120 , @3.644651162790698 Channel: 9 
Note on, D2 key =  38;WhichDrum: T2 ; velocity: 0
@69120 , @3.644651162790698 Channel: 9 
Note on, F#2 key =  42;WhichDrum: C1 ; velocity: 0
@69120 , @3.644651162790698 Channel: 9 
Note on, C2 key =  36;WhichDrum: B ; velocity: 127
@69120 , @3.644651162790698 Channel: 9 
Note on, A3 key =  57;WhichDrum: T3 ; velocity: 127
@69240 , @3.6509786821705426 Channel: 9 
Note on, C2 key =  36;WhichDrum: B ; velocity: 0
@69240 , @3.6509786821705426 Channel: 9 
Note on, A3 key =  57;WhichDrum: T3 ; velocity: 0
@69240 , @3.6509786821705426 Channel: 9 
Note on, D2 key =  38;WhichDrum: T2 ; velocity: 127
@69240 , @3.6509786821705426 Channel: 9 
Note on, F#2 key =  42;WhichDrum: C1 ; velocity: 127
@69360 , @3.6573062015503877 Channel: 9 
Note on, D2 key =  38;WhichDrum: T2 ; velocity: 0
@69360 , @3.6573062015503877 Channel: 9 
Note on, F#2 key =  42;WhichDrum: C1 ; velocity: 0
@69360 , @3.6573062015503877 Channel: 9 
Note on, C2 key =  36;WhichDrum: B ; velocity: 127
@69360 , @3.6573062015503877 Channel: 9 
Note on, F#2 key =  42;WhichDrum: C1 ; velocity: 127
@69420 , @3.66046996124031 Channel: 9 
Note on, C2 key =  36;WhichDrum: B ; velocity: 0
@69420 , @3.66046996124031 Channel: 9 
Note on, C2 key =  36;WhichDrum: B ; velocity: 127
@69480 , @3.6636337209302328 Channel: 9 
Note on, F#2 key =  42;WhichDrum: C1 ; velocity: 0
@69480 , @3.6636337209302328 Channel: 9 
Note on, C2 key =  36;WhichDrum: B ; velocity: 0
@69480 , @3.6636337209302328 Channel: 9 
Note on, D2 key =  38;WhichDrum: T2 ; velocity: 127
@69480 , @3.6636337209302328 Channel: 9 
Note on, F#2 key =  42;WhichDrum: C1 ; velocity: 127
@69600 , @3.669961240310078 Channel: 9 
Note on, D2 key =  38;WhichDrum: T2 ; velocity: 0
@69600 , @3.669961240310078 Channel: 9 
Note on, F#2 key =  42;WhichDrum: C1 ; velocity: 0
@69600 , @3.669961240310078 Channel: 9 
Note on, C2 key =  36;WhichDrum: B ; velocity: 127
@69600 , @3.669961240310078 Channel: 9 
Note on, A3 key =  57;WhichDrum: T3 ; velocity: 127
@69720 , @3.6762887596899225 Channel: 9 
Note on, C2 key =  36;WhichDrum: B ; velocity: 0
@69720 , @3.6762887596899225 Channel: 9 
Note on, A3 key =  57;WhichDrum: T3 ; velocity: 0
@69720 , @3.6762887596899225 Channel: 9 
Note on, D2 key =  38;WhichDrum: T2 ; velocity: 127
@69720 , @3.6762887596899225 Channel: 9 
Note on, F#2 key =  42;WhichDrum: C1 ; velocity: 127
@69780 , @3.6794525193798453 Channel: 9 
Note on, D2 key =  38;WhichDrum: T2 ; velocity: 0
@69780 , @3.6794525193798453 Channel: 9 
Note on, F#2 key =  42;WhichDrum: C1 ; velocity: 0
@69780 , @3.6794525193798453 Channel: 9 
Note on, A2 key =  45;WhichDrum: T3 ; velocity: 127
@69840 , @3.6826162790697676 Channel: 9 
Note on, A2 key =  45;WhichDrum: T3 ; velocity: 0
@69840 , @3.6826162790697676 Channel: 9 
Note on, B2 key =  47;WhichDrum: T1 ; velocity: 127
@69900 , @3.68578003875969 Channel: 9 
Note on, B2 key =  47;WhichDrum: T1 ; velocity: 0
@69900 , @3.68578003875969 Channel: 9 
Note on, B2 key =  47;WhichDrum: T1 ; velocity: 127
@69960 , @3.6889437984496127 Channel: 9 
Note on, B2 key =  47;WhichDrum: T1 ; velocity: 0
@69960 , @3.6889437984496127 Channel: 9 
Note on, B2 key =  47;WhichDrum: T1 ; velocity: 127
@70080 , @3.6952713178294574 Channel: 9 
Note on, B2 key =  47;WhichDrum: T1 ; velocity: 0
@70080 , @3.6952713178294574 Channel: 9 
Note on, C2 key =  36;WhichDrum: B ; velocity: 127
@70080 , @3.6952713178294574 Channel: 9 
Note on, A3 key =  57;WhichDrum: T3 ; velocity: 127
@70200 , @3.7015988372093025 Channel: 9 
Note on, C2 key =  36;WhichDrum: B ; velocity: 0
@70200 , @3.7015988372093025 Channel: 9 
Note on, A3 key =  57;WhichDrum: T3 ; velocity: 0
@70200 , @3.7015988372093025 Channel: 9 
Note on, D2 key =  38;WhichDrum: T2 ; velocity: 127
@70200 , @3.7015988372093025 Channel: 9 
Note on, F#2 key =  42;WhichDrum: C1 ; velocity: 127
@70320 , @3.7079263565891476 Channel: 9 
Note on, D2 key =  38;WhichDrum: T2 ; velocity: 0
@70320 , @3.7079263565891476 Channel: 9 
Note on, F#2 key =  42;WhichDrum: C1 ; velocity: 0
@70320 , @3.7079263565891476 Channel: 9 
Note on, C2 key =  36;WhichDrum: B ; velocity: 127
@70320 , @3.7079263565891476 Channel: 9 
Note on, F#2 key =  42;WhichDrum: C1 ; velocity: 127
@70380 , @3.71109011627907 Channel: 9 
Note on, C2 key =  36;WhichDrum: B ; velocity: 0
@70380 , @3.71109011627907 Channel: 9 
Note on, C2 key =  36;WhichDrum: B ; velocity: 127
@70440 , @3.7142538759689923 Channel: 9 
Note on, F#2 key =  42;WhichDrum: C1 ; velocity: 0
@70440 , @3.7142538759689923 Channel: 9 
Note on, C2 key =  36;WhichDrum: B ; velocity: 0
@70440 , @3.7142538759689923 Channel: 9 
Note on, D2 key =  38;WhichDrum: T2 ; velocity: 127
@70440 , @3.7142538759689923 Channel: 9 
Note on, F#2 key =  42;WhichDrum: C1 ; velocity: 127
@70560 , @3.7205813953488374 Channel: 9 
Note on, D2 key =  38;WhichDrum: T2 ; velocity: 0
@70560 , @3.7205813953488374 Channel: 9 
Note on, F#2 key =  42;WhichDrum: C1 ; velocity: 0
@70560 , @3.7205813953488374 Channel: 9 
Note on, F#2 key =  42;WhichDrum: C1 ; velocity: 127
@70560 , @3.7205813953488374 Channel: 9 
Note on, C2 key =  36;WhichDrum: B ; velocity: 127
@70680 , @3.7269089147286825 Channel: 9 
Note on, F#2 key =  42;WhichDrum: C1 ; velocity: 0
@70680 , @3.7269089147286825 Channel: 9 
Note on, C2 key =  36;WhichDrum: B ; velocity: 0
@70680 , @3.7269089147286825 Channel: 9 
Note on, D2 key =  38;WhichDrum: T2 ; velocity: 127
@70680 , @3.7269089147286825 Channel: 9 
Note on, F#2 key =  42;WhichDrum: C1 ; velocity: 127
@70800 , @3.7332364341085276 Channel: 9 
Note on, D2 key =  38;WhichDrum: T2 ; velocity: 0
@70800 , @3.7332364341085276 Channel: 9 
Note on, F#2 key =  42;WhichDrum: C1 ; velocity: 0
@70800 , @3.7332364341085276 Channel: 9 
Note on, F#2 key =  42;WhichDrum: C1 ; velocity: 127
@70800 , @3.7332364341085276 Channel: 9 
Note on, C2 key =  36;WhichDrum: B ; velocity: 127
@70860 , @3.73640019379845 Channel: 9 
Note on, C2 key =  36;WhichDrum: B ; velocity: 0
@70860 , @3.73640019379845 Channel: 9 
Note on, C2 key =  36;WhichDrum: B ; velocity: 127
@70920 , @3.7395639534883722 Channel: 9 
Note on, F#2 key =  42;WhichDrum: C1 ; velocity: 0
@70920 , @3.7395639534883722 Channel: 9 
Note on, C2 key =  36;WhichDrum: B ; velocity: 0
@70920 , @3.7395639534883722 Channel: 9 
Note on, D2 key =  38;WhichDrum: T2 ; velocity: 127
@70920 , @3.7395639534883722 Channel: 9 
Note on, F#2 key =  42;WhichDrum: C1 ; velocity: 127
@71040 , @3.7458914728682173 Channel: 9 
Note on, D2 key =  38;WhichDrum: T2 ; velocity: 0
@71040 , @3.7458914728682173 Channel: 9 
Note on, F#2 key =  42;WhichDrum: C1 ; velocity: 0
@71040 , @3.7458914728682173 Channel: 9 
Note on, C2 key =  36;WhichDrum: B ; velocity: 127
@71040 , @3.7458914728682173 Channel: 9 
Note on, F#2 key =  42;WhichDrum: C1 ; velocity: 127
@71160 , @3.7522189922480624 Channel: 9 
Note on, C2 key =  36;WhichDrum: B ; velocity: 0
@71160 , @3.7522189922480624 Channel: 9 
Note on, F#2 key =  42;WhichDrum: C1 ; velocity: 0
@71160 , @3.7522189922480624 Channel: 9 
Note on, D2 key =  38;WhichDrum: T2 ; velocity: 127
@71160 , @3.7522189922480624 Channel: 9 
Note on, F#2 key =  42;WhichDrum: C1 ; velocity: 127
@71280 , @3.758546511627907 Channel: 9 
Note on, D2 key =  38;WhichDrum: T2 ; velocity: 0
@71280 , @3.758546511627907 Channel: 9 
Note on, F#2 key =  42;WhichDrum: C1 ; velocity: 0
@71280 , @3.758546511627907 Channel: 9 
Note on, F#2 key =  42;WhichDrum: C1 ; velocity: 127
@71280 , @3.758546511627907 Channel: 9 
Note on, C2 key =  36;WhichDrum: B ; velocity: 127
@71340 , @3.76171027131783 Channel: 9 
Note on, C2 key =  36;WhichDrum: B ; velocity: 0
@71340 , @3.76171027131783 Channel: 9 
Note on, C2 key =  36;WhichDrum: B ; velocity: 127
@71400 , @3.764874031007752 Channel: 9 
Note on, F#2 key =  42;WhichDrum: C1 ; velocity: 0
@71400 , @3.764874031007752 Channel: 9 
Note on, C2 key =  36;WhichDrum: B ; velocity: 0
@71400 , @3.764874031007752 Channel: 9 
Note on, D2 key =  38;WhichDrum: T2 ; velocity: 127
@71400 , @3.764874031007752 Channel: 9 
Note on, F#2 key =  42;WhichDrum: C1 ; velocity: 127
@71520 , @3.7712015503875973 Channel: 9 
Note on, D2 key =  38;WhichDrum: T2 ; velocity: 0
@71520 , @3.7712015503875973 Channel: 9 
Note on, F#2 key =  42;WhichDrum: C1 ; velocity: 0
@71520 , @3.7712015503875973 Channel: 9 
Note on, F#2 key =  42;WhichDrum: C1 ; velocity: 127
@71520 , @3.7712015503875973 Channel: 9 
Note on, C2 key =  36;WhichDrum: B ; velocity: 127
@71580 , @3.7743653100775196 Channel: 9 
Note on, C2 key =  36;WhichDrum: B ; velocity: 0
@71580 , @3.7743653100775196 Channel: 9 
Note on, C2 key =  36;WhichDrum: B ; velocity: 127
@71610 , @3.775947189922481 Channel: 9 
Note on, C2 key =  36;WhichDrum: B ; velocity: 0
@71610 , @3.775947189922481 Channel: 9 
Note on, C2 key =  36;WhichDrum: B ; velocity: 127
@71640 , @3.7775290697674424 Channel: 9 
Note on, F#2 key =  42;WhichDrum: C1 ; velocity: 0
@71640 , @3.7775290697674424 Channel: 9 
Note on, C2 key =  36;WhichDrum: B ; velocity: 0
@71640 , @3.7775290697674424 Channel: 9 
Note on, D2 key =  38;WhichDrum: T2 ; velocity: 127
@71640 , @3.7775290697674424 Channel: 9 
Note on, A3 key =  57;WhichDrum: T3 ; velocity: 127
@71760 , @3.783856589147287 Channel: 9 
Note on, D2 key =  38;WhichDrum: T2 ; velocity: 0
@71760 , @3.783856589147287 Channel: 9 
Note on, A3 key =  57;WhichDrum: T3 ; velocity: 0
@71760 , @3.783856589147287 Channel: 9 
Note on, F#2 key =  42;WhichDrum: C1 ; velocity: 127
@71820 , @3.78702034883721 Channel: 9 
Note on, C2 key =  36;WhichDrum: B ; velocity: 127
@71840 , @3.788074935400517 Channel: 9 
Note on, C2 key =  36;WhichDrum: B ; velocity: 0
@71840 , @3.788074935400517 Channel: 9 
Note on, C2 key =  36;WhichDrum: B ; velocity: 127
@71860 , @3.789129521963824 Channel: 9 
Note on, C2 key =  36;WhichDrum: B ; velocity: 0
@71860 , @3.789129521963824 Channel: 9 
Note on, C2 key =  36;WhichDrum: B ; velocity: 127
@71880 , @3.790184108527132 Channel: 9 
Note on, F#2 key =  42;WhichDrum: C1 ; velocity: 0
@71880 , @3.790184108527132 Channel: 9 
Note on, C2 key =  36;WhichDrum: B ; velocity: 0
@71880 , @3.790184108527132 Channel: 9 
Note on, D2 key =  38;WhichDrum: T2 ; velocity: 127
@71880 , @3.790184108527132 Channel: 9 
Note on, A3 key =  57;WhichDrum: T3 ; velocity: 127
@72000 , @3.7965116279069773 Channel: 9 
Note on, D2 key =  38;WhichDrum: T2 ; velocity: 0
@72000 , @3.7965116279069773 Channel: 9 
Note on, A3 key =  57;WhichDrum: T3 ; velocity: 0
@72000 , @3.7965116279069773 Channel: 9 
Note on, A3 key =  57;WhichDrum: T3 ; velocity: 127
@72000 , @3.7965116279069773 Channel: 9 
Note on, C2 key =  36;WhichDrum: B ; velocity: 127
@72120 , @3.802839147286822 Channel: 9 
Note on, A3 key =  57;WhichDrum: T3 ; velocity: 0
@72120 , @3.802839147286822 Channel: 9 
Note on, C2 key =  36;WhichDrum: B ; velocity: 0
@72120 , @3.802839147286822 Channel: 9 
Note on, D2 key =  38;WhichDrum: T2 ; velocity: 127
@72120 , @3.802839147286822 Channel: 9 
Note on, F#2 key =  42;WhichDrum: C1 ; velocity: 127
@72240 , @3.809166666666667 Channel: 9 
Note on, D2 key =  38;WhichDrum: T2 ; velocity: 0
@72240 , @3.809166666666667 Channel: 9 
Note on, F#2 key =  42;WhichDrum: C1 ; velocity: 0
@72240 , @3.809166666666667 Channel: 9 
Note on, C2 key =  36;WhichDrum: B ; velocity: 127
@72240 , @3.809166666666667 Channel: 9 
Note on, F#2 key =  42;WhichDrum: C1 ; velocity: 127
@72300 , @3.8123304263565894 Channel: 9 
Note on, C2 key =  36;WhichDrum: B ; velocity: 0
@72300 , @3.8123304263565894 Channel: 9 
Note on, C2 key =  36;WhichDrum: B ; velocity: 127
@72360 , @3.815494186046512 Channel: 9 
Note on, F#2 key =  42;WhichDrum: C1 ; velocity: 0
@72360 , @3.815494186046512 Channel: 9 
Note on, C2 key =  36;WhichDrum: B ; velocity: 0
@72360 , @3.815494186046512 Channel: 9 
Note on, D2 key =  38;WhichDrum: T2 ; velocity: 127
@72360 , @3.815494186046512 Channel: 9 
Note on, F#2 key =  42;WhichDrum: C1 ; velocity: 127
@72480 , @3.821821705426357 Channel: 9 
Note on, D2 key =  38;WhichDrum: T2 ; velocity: 0
@72480 , @3.821821705426357 Channel: 9 
Note on, F#2 key =  42;WhichDrum: C1 ; velocity: 0
@72480 , @3.821821705426357 Channel: 9 
Note on, C2 key =  36;WhichDrum: B ; velocity: 127
@72480 , @3.821821705426357 Channel: 9 
Note on, F#2 key =  42;WhichDrum: C1 ; velocity: 127
@72600 , @3.828149224806202 Channel: 9 
Note on, C2 key =  36;WhichDrum: B ; velocity: 0
@72600 , @3.828149224806202 Channel: 9 
Note on, F#2 key =  42;WhichDrum: C1 ; velocity: 0
@72600 , @3.828149224806202 Channel: 9 
Note on, D2 key =  38;WhichDrum: T2 ; velocity: 127
@72600 , @3.828149224806202 Channel: 9 
Note on, F#2 key =  42;WhichDrum: C1 ; velocity: 127
@72720 , @3.834476744186047 Channel: 9 
Note on, D2 key =  38;WhichDrum: T2 ; velocity: 0
@72720 , @3.834476744186047 Channel: 9 
Note on, F#2 key =  42;WhichDrum: C1 ; velocity: 0
@72720 , @3.834476744186047 Channel: 9 
Note on, F#2 key =  42;WhichDrum: C1 ; velocity: 127
@72720 , @3.834476744186047 Channel: 9 
Note on, C2 key =  36;WhichDrum: B ; velocity: 127
@72780 , @3.8376405038759693 Channel: 9 
Note on, C2 key =  36;WhichDrum: B ; velocity: 0
@72780 , @3.8376405038759693 Channel: 9 
Note on, C2 key =  36;WhichDrum: B ; velocity: 127
@72840 , @3.840804263565892 Channel: 9 
Note on, F#2 key =  42;WhichDrum: C1 ; velocity: 0
@72840 , @3.840804263565892 Channel: 9 
Note on, C2 key =  36;WhichDrum: B ; velocity: 0
@72840 , @3.840804263565892 Channel: 9 
Note on, D2 key =  38;WhichDrum: T2 ; velocity: 127
@72840 , @3.840804263565892 Channel: 9 
Note on, F#2 key =  42;WhichDrum: C1 ; velocity: 127
@72960 , @3.8471317829457368 Channel: 9 
Note on, D2 key =  38;WhichDrum: T2 ; velocity: 0
@72960 , @3.8471317829457368 Channel: 9 
Note on, F#2 key =  42;WhichDrum: C1 ; velocity: 0
@72960 , @3.8471317829457368 Channel: 9 
Note on, C2 key =  36;WhichDrum: B ; velocity: 127
@72960 , @3.8471317829457368 Channel: 9 
Note on, F#2 key =  42;WhichDrum: C1 ; velocity: 127
@73080 , @3.853459302325582 Channel: 9 
Note on, C2 key =  36;WhichDrum: B ; velocity: 0
@73080 , @3.853459302325582 Channel: 9 
Note on, F#2 key =  42;WhichDrum: C1 ; velocity: 0
@73080 , @3.853459302325582 Channel: 9 
Note on, D2 key =  38;WhichDrum: T2 ; velocity: 127
@73080 , @3.853459302325582 Channel: 9 
Note on, F#2 key =  42;WhichDrum: C1 ; velocity: 127
@73200 , @3.859786821705427 Channel: 9 
Note on, D2 key =  38;WhichDrum: T2 ; velocity: 0
@73200 , @3.859786821705427 Channel: 9 
Note on, F#2 key =  42;WhichDrum: C1 ; velocity: 0
@73200 , @3.859786821705427 Channel: 9 
Note on, F#2 key =  42;WhichDrum: C1 ; velocity: 127
@73200 , @3.859786821705427 Channel: 9 
Note on, C2 key =  36;WhichDrum: B ; velocity: 127
@73260 , @3.8629505813953493 Channel: 9 
Note on, C2 key =  36;WhichDrum: B ; velocity: 0
@73260 , @3.8629505813953493 Channel: 9 
Note on, C2 key =  36;WhichDrum: B ; velocity: 127
@73290 , @3.86453246124031 Channel: 9 
Note on, C2 key =  36;WhichDrum: B ; velocity: 0
@73290 , @3.86453246124031 Channel: 9 
Note on, C2 key =  36;WhichDrum: B ; velocity: 127
@73320 , @3.8661143410852716 Channel: 9 
Note on, F#2 key =  42;WhichDrum: C1 ; velocity: 0
@73320 , @3.8661143410852716 Channel: 9 
Note on, C2 key =  36;WhichDrum: B ; velocity: 0
@73320 , @3.8661143410852716 Channel: 9 
Note on, D2 key =  38;WhichDrum: T2 ; velocity: 127
@73320 , @3.8661143410852716 Channel: 9 
Note on, F#2 key =  42;WhichDrum: C1 ; velocity: 127
@73440 , @3.8724418604651167 Channel: 9 
Note on, D2 key =  38;WhichDrum: T2 ; velocity: 0
@73440 , @3.8724418604651167 Channel: 9 
Note on, F#2 key =  42;WhichDrum: C1 ; velocity: 0
@73440 , @3.8724418604651167 Channel: 9 
Note on, F#2 key =  42;WhichDrum: C1 ; velocity: 127
@73440 , @3.8724418604651167 Channel: 9 
Note on, C2 key =  36;WhichDrum: B ; velocity: 127
@73500 , @3.875605620155039 Channel: 9 
Note on, C2 key =  36;WhichDrum: B ; velocity: 0
@73500 , @3.875605620155039 Channel: 9 
Note on, C2 key =  36;WhichDrum: B ; velocity: 127
@73530 , @3.8771875000000002 Channel: 9 
Note on, C2 key =  36;WhichDrum: B ; velocity: 0
@73530 , @3.8771875000000002 Channel: 9 
Note on, C2 key =  36;WhichDrum: B ; velocity: 127
@73560 , @3.878769379844961 Channel: 9 
Note on, F#2 key =  42;WhichDrum: C1 ; velocity: 0
@73560 , @3.878769379844961 Channel: 9 
Note on, C2 key =  36;WhichDrum: B ; velocity: 0
@73560 , @3.878769379844961 Channel: 9 
Note on, D2 key =  38;WhichDrum: T2 ; velocity: 127
@73560 , @3.878769379844961 Channel: 9 
Note on, A3 key =  57;WhichDrum: T3 ; velocity: 127
@73680 , @3.885096899224806 Channel: 9 
Note on, D2 key =  38;WhichDrum: T2 ; velocity: 0
@73680 , @3.885096899224806 Channel: 9 
Note on, A3 key =  57;WhichDrum: T3 ; velocity: 0
@73680 , @3.885096899224806 Channel: 9 
Note on, F#2 key =  42;WhichDrum: C1 ; velocity: 127
@73740 , @3.8882606589147284 Channel: 9 
Note on, C2 key =  36;WhichDrum: B ; velocity: 127
@73760 , @3.8893152454780364 Channel: 9 
Note on, C2 key =  36;WhichDrum: B ; velocity: 0
@73760 , @3.8893152454780364 Channel: 9 
Note on, C2 key =  36;WhichDrum: B ; velocity: 127
@73780 , @3.8903698320413436 Channel: 9 
Note on, C2 key =  36;WhichDrum: B ; velocity: 0
@73780 , @3.8903698320413436 Channel: 9 
Note on, C2 key =  36;WhichDrum: B ; velocity: 127
@73800 , @3.891424418604651 Channel: 9 
Note on, F#2 key =  42;WhichDrum: C1 ; velocity: 0
@73800 , @3.891424418604651 Channel: 9 
Note on, C2 key =  36;WhichDrum: B ; velocity: 0
@73800 , @3.891424418604651 Channel: 9 
Note on, D2 key =  38;WhichDrum: T2 ; velocity: 127
@73800 , @3.891424418604651 Channel: 9 
Note on, A3 key =  57;WhichDrum: T3 ; velocity: 127
@73920 , @3.897751937984496 Channel: 9 
Note on, D2 key =  38;WhichDrum: T2 ; velocity: 0
@73920 , @3.897751937984496 Channel: 9 
Note on, A3 key =  57;WhichDrum: T3 ; velocity: 0
@73920 , @3.897751937984496 Channel: 9 
Note on, A3 key =  57;WhichDrum: T3 ; velocity: 127
@73920 , @3.897751937984496 Channel: 9 
Note on, C2 key =  36;WhichDrum: B ; velocity: 127
@74040 , @3.904079457364341 Channel: 9 
Note on, A3 key =  57;WhichDrum: T3 ; velocity: 0
@74040 , @3.904079457364341 Channel: 9 
Note on, C2 key =  36;WhichDrum: B ; velocity: 0
@74040 , @3.904079457364341 Channel: 9 
Note on, D2 key =  38;WhichDrum: T2 ; velocity: 127
@74040 , @3.904079457364341 Channel: 9 
Note on, F#2 key =  42;WhichDrum: C1 ; velocity: 127
@74160 , @3.910406976744186 Channel: 9 
Note on, D2 key =  38;WhichDrum: T2 ; velocity: 0
@74160 , @3.910406976744186 Channel: 9 
Note on, F#2 key =  42;WhichDrum: C1 ; velocity: 0
@74160 , @3.910406976744186 Channel: 9 
Note on, C2 key =  36;WhichDrum: B ; velocity: 127
@74160 , @3.910406976744186 Channel: 9 
Note on, F#2 key =  42;WhichDrum: C1 ; velocity: 127
@74220 , @3.9135707364341084 Channel: 9 
Note on, C2 key =  36;WhichDrum: B ; velocity: 0
@74220 , @3.9135707364341084 Channel: 9 
Note on, C2 key =  36;WhichDrum: B ; velocity: 127
@74280 , @3.9167344961240307 Channel: 9 
Note on, F#2 key =  42;WhichDrum: C1 ; velocity: 0
@74280 , @3.9167344961240307 Channel: 9 
Note on, C2 key =  36;WhichDrum: B ; velocity: 0
@74280 , @3.9167344961240307 Channel: 9 
Note on, D2 key =  38;WhichDrum: T2 ; velocity: 127
@74280 , @3.9167344961240307 Channel: 9 
Note on, F#2 key =  42;WhichDrum: C1 ; velocity: 127
@74400 , @3.923062015503876 Channel: 9 
Note on, D2 key =  38;WhichDrum: T2 ; velocity: 0
@74400 , @3.923062015503876 Channel: 9 
Note on, F#2 key =  42;WhichDrum: C1 ; velocity: 0
@74400 , @3.923062015503876 Channel: 9 
Note on, C2 key =  36;WhichDrum: B ; velocity: 127
@74400 , @3.923062015503876 Channel: 9 
Note on, F#2 key =  42;WhichDrum: C1 ; velocity: 127
@74520 , @3.929389534883721 Channel: 9 
Note on, C2 key =  36;WhichDrum: B ; velocity: 0
@74520 , @3.929389534883721 Channel: 9 
Note on, F#2 key =  42;WhichDrum: C1 ; velocity: 0
@74520 , @3.929389534883721 Channel: 9 
Note on, D2 key =  38;WhichDrum: T2 ; velocity: 127
@74520 , @3.929389534883721 Channel: 9 
Note on, F#2 key =  42;WhichDrum: C1 ; velocity: 127
@74640 , @3.935717054263566 Channel: 9 
Note on, D2 key =  38;WhichDrum: T2 ; velocity: 0
@74640 , @3.935717054263566 Channel: 9 
Note on, F#2 key =  42;WhichDrum: C1 ; velocity: 0
@74640 , @3.935717054263566 Channel: 9 
Note on, F#2 key =  42;WhichDrum: C1 ; velocity: 127
@74640 , @3.935717054263566 Channel: 9 
Note on, C2 key =  36;WhichDrum: B ; velocity: 127
@74700 , @3.9388808139534883 Channel: 9 
Note on, C2 key =  36;WhichDrum: B ; velocity: 0
@74700 , @3.9388808139534883 Channel: 9 
Note on, C2 key =  36;WhichDrum: B ; velocity: 127
@74760 , @3.9420445736434107 Channel: 9 
Note on, F#2 key =  42;WhichDrum: C1 ; velocity: 0
@74760 , @3.9420445736434107 Channel: 9 
Note on, C2 key =  36;WhichDrum: B ; velocity: 0
@74760 , @3.9420445736434107 Channel: 9 
Note on, D2 key =  38;WhichDrum: T2 ; velocity: 127
@74760 , @3.9420445736434107 Channel: 9 
Note on, F#2 key =  42;WhichDrum: C1 ; velocity: 127
@74880 , @3.9483720930232558 Channel: 9 
Note on, D2 key =  38;WhichDrum: T2 ; velocity: 0
@74880 , @3.9483720930232558 Channel: 9 
Note on, F#2 key =  42;WhichDrum: C1 ; velocity: 0
@74880 , @3.9483720930232558 Channel: 9 
Note on, C2 key =  36;WhichDrum: B ; velocity: 127
@74880 , @3.9483720930232558 Channel: 9 
Note on, F#2 key =  42;WhichDrum: C1 ; velocity: 127
@75000 , @3.954699612403101 Channel: 9 
Note on, C2 key =  36;WhichDrum: B ; velocity: 0
@75000 , @3.954699612403101 Channel: 9 
Note on, F#2 key =  42;WhichDrum: C1 ; velocity: 0
@75000 , @3.954699612403101 Channel: 9 
Note on, D2 key =  38;WhichDrum: T2 ; velocity: 127
@75000 , @3.954699612403101 Channel: 9 
Note on, F#2 key =  42;WhichDrum: C1 ; velocity: 127
@75120 , @3.9610271317829455 Channel: 9 
Note on, D2 key =  38;WhichDrum: T2 ; velocity: 0
@75120 , @3.9610271317829455 Channel: 9 
Note on, F#2 key =  42;WhichDrum: C1 ; velocity: 0
@75120 , @3.9610271317829455 Channel: 9 
Note on, F#2 key =  42;WhichDrum: C1 ; velocity: 127
@75120 , @3.9610271317829455 Channel: 9 
Note on, C2 key =  36;WhichDrum: B ; velocity: 127
@75180 , @3.9641908914728683 Channel: 9 
Note on, C2 key =  36;WhichDrum: B ; velocity: 0
@75180 , @3.9641908914728683 Channel: 9 
Note on, C2 key =  36;WhichDrum: B ; velocity: 127
@75240 , @3.9673546511627906 Channel: 9 
Note on, F#2 key =  42;WhichDrum: C1 ; velocity: 0
@75240 , @3.9673546511627906 Channel: 9 
Note on, C2 key =  36;WhichDrum: B ; velocity: 0
@75240 , @3.9673546511627906 Channel: 9 
Note on, D2 key =  38;WhichDrum: T2 ; velocity: 127
@75240 , @3.9673546511627906 Channel: 9 
Note on, F#2 key =  42;WhichDrum: C1 ; velocity: 127
@75360 , @3.9736821705426357 Channel: 9 
Note on, D2 key =  38;WhichDrum: T2 ; velocity: 0
@75360 , @3.9736821705426357 Channel: 9 
Note on, F#2 key =  42;WhichDrum: C1 ; velocity: 0
@75360 , @3.9736821705426357 Channel: 9 
Note on, F#2 key =  42;WhichDrum: C1 ; velocity: 127
@75360 , @3.9736821705426357 Channel: 9 
Note on, C2 key =  36;WhichDrum: B ; velocity: 127
@75420 , @3.976845930232558 Channel: 9 
Note on, C2 key =  36;WhichDrum: B ; velocity: 0
@75420 , @3.976845930232558 Channel: 9 
Note on, C2 key =  36;WhichDrum: B ; velocity: 127
@75450 , @3.9784278100775197 Channel: 9 
Note on, C2 key =  36;WhichDrum: B ; velocity: 0
@75450 , @3.9784278100775197 Channel: 9 
Note on, C2 key =  36;WhichDrum: B ; velocity: 127
@75480 , @3.9800096899224804 Channel: 9 
Note on, F#2 key =  42;WhichDrum: C1 ; velocity: 0
@75480 , @3.9800096899224804 Channel: 9 
Note on, C2 key =  36;WhichDrum: B ; velocity: 0
@75480 , @3.9800096899224804 Channel: 9 
Note on, D2 key =  38;WhichDrum: T2 ; velocity: 127
@75480 , @3.9800096899224804 Channel: 9 
Note on, A3 key =  57;WhichDrum: T3 ; velocity: 127
@75600 , @3.9863372093023255 Channel: 9 
Note on, D2 key =  38;WhichDrum: T2 ; velocity: 0
@75600 , @3.9863372093023255 Channel: 9 
Note on, A3 key =  57;WhichDrum: T3 ; velocity: 0
@75600 , @3.9863372093023255 Channel: 9 
Note on, F#2 key =  42;WhichDrum: C1 ; velocity: 127
@75660 , @3.9895009689922483 Channel: 9 
Note on, C2 key =  36;WhichDrum: B ; velocity: 127
@75680 , @3.990555555555556 Channel: 9 
Note on, C2 key =  36;WhichDrum: B ; velocity: 0
@75680 , @3.990555555555556 Channel: 9 
Note on, C2 key =  36;WhichDrum: B ; velocity: 127
@75700 , @3.9916101421188634 Channel: 9 
Note on, C2 key =  36;WhichDrum: B ; velocity: 0
@75700 , @3.9916101421188634 Channel: 9 
Note on, C2 key =  36;WhichDrum: B ; velocity: 127
@75720 , @3.9926647286821706 Channel: 9 
Note on, F#2 key =  42;WhichDrum: C1 ; velocity: 0
@75720 , @3.9926647286821706 Channel: 9 
Note on, C2 key =  36;WhichDrum: B ; velocity: 0
@75720 , @3.9926647286821706 Channel: 9 
Note on, D2 key =  38;WhichDrum: T2 ; velocity: 127
@75720 , @3.9926647286821706 Channel: 9 
Note on, A3 key =  57;WhichDrum: T3 ; velocity: 127
@75840 , @3.9989922480620157 Channel: 9 
Note on, D2 key =  38;WhichDrum: T2 ; velocity: 0
@75840 , @3.9989922480620157 Channel: 9 
Note on, A3 key =  57;WhichDrum: T3 ; velocity: 0
@75840 , @3.9989922480620157 Channel: 9 
Note on, A3 key =  57;WhichDrum: T3 ; velocity: 127
@75840 , @3.9989922480620157 Channel: 9 
Note on, C2 key =  36;WhichDrum: B ; velocity: 127
@75960 , @4.00531976744186 Channel: 9 
Note on, A3 key =  57;WhichDrum: T3 ; velocity: 0
@75960 , @4.00531976744186 Channel: 9 
Note on, C2 key =  36;WhichDrum: B ; velocity: 0
@75960 , @4.00531976744186 Channel: 9 
Note on, D2 key =  38;WhichDrum: T2 ; velocity: 127
@75960 , @4.00531976744186 Channel: 9 
Note on, F#2 key =  42;WhichDrum: C1 ; velocity: 127
@76080 , @4.011647286821705 Channel: 9 
Note on, D2 key =  38;WhichDrum: T2 ; velocity: 0
@76080 , @4.011647286821705 Channel: 9 
Note on, F#2 key =  42;WhichDrum: C1 ; velocity: 0
@76080 , @4.011647286821705 Channel: 9 
Note on, C2 key =  36;WhichDrum: B ; velocity: 127
@76080 , @4.011647286821705 Channel: 9 
Note on, F#2 key =  42;WhichDrum: C1 ; velocity: 127
@76140 , @4.014811046511628 Channel: 9 
Note on, C2 key =  36;WhichDrum: B ; velocity: 0
@76140 , @4.014811046511628 Channel: 9 
Note on, C2 key =  36;WhichDrum: B ; velocity: 127
@76200 , @4.017974806201551 Channel: 9 
Note on, F#2 key =  42;WhichDrum: C1 ; velocity: 0
@76200 , @4.017974806201551 Channel: 9 
Note on, C2 key =  36;WhichDrum: B ; velocity: 0
@76200 , @4.017974806201551 Channel: 9 
Note on, D2 key =  38;WhichDrum: T2 ; velocity: 127
@76200 , @4.017974806201551 Channel: 9 
Note on, F#2 key =  42;WhichDrum: C1 ; velocity: 127
@76320 , @4.024302325581395 Channel: 9 
Note on, D2 key =  38;WhichDrum: T2 ; velocity: 0
@76320 , @4.024302325581395 Channel: 9 
Note on, F#2 key =  42;WhichDrum: C1 ; velocity: 0
@76320 , @4.024302325581395 Channel: 9 
Note on, C2 key =  36;WhichDrum: B ; velocity: 127
@76320 , @4.024302325581395 Channel: 9 
Note on, F#2 key =  42;WhichDrum: C1 ; velocity: 127
@76440 , @4.030629844961241 Channel: 9 
Note on, C2 key =  36;WhichDrum: B ; velocity: 0
@76440 , @4.030629844961241 Channel: 9 
Note on, F#2 key =  42;WhichDrum: C1 ; velocity: 0
@76440 , @4.030629844961241 Channel: 9 
Note on, D2 key =  38;WhichDrum: T2 ; velocity: 127
@76440 , @4.030629844961241 Channel: 9 
Note on, F#2 key =  42;WhichDrum: C1 ; velocity: 127
@76560 , @4.036957364341085 Channel: 9 
Note on, D2 key =  38;WhichDrum: T2 ; velocity: 0
@76560 , @4.036957364341085 Channel: 9 
Note on, F#2 key =  42;WhichDrum: C1 ; velocity: 0
@76560 , @4.036957364341085 Channel: 9 
Note on, F#2 key =  42;WhichDrum: C1 ; velocity: 127
@76560 , @4.036957364341085 Channel: 9 
Note on, C2 key =  36;WhichDrum: B ; velocity: 127
@76620 , @4.040121124031008 Channel: 9 
Note on, C2 key =  36;WhichDrum: B ; velocity: 0
@76620 , @4.040121124031008 Channel: 9 
Note on, C2 key =  36;WhichDrum: B ; velocity: 127
@76680 , @4.04328488372093 Channel: 9 
Note on, F#2 key =  42;WhichDrum: C1 ; velocity: 0
@76680 , @4.04328488372093 Channel: 9 
Note on, C2 key =  36;WhichDrum: B ; velocity: 0
@76680 , @4.04328488372093 Channel: 9 
Note on, D2 key =  38;WhichDrum: T2 ; velocity: 127
@76680 , @4.04328488372093 Channel: 9 
Note on, F#2 key =  42;WhichDrum: C1 ; velocity: 127
@76800 , @4.049612403100776 Channel: 9 
Note on, D2 key =  38;WhichDrum: T2 ; velocity: 0
@76800 , @4.049612403100776 Channel: 9 
Note on, F#2 key =  42;WhichDrum: C1 ; velocity: 0
@76800 , @4.049612403100776 Channel: 9 
Note on, C2 key =  36;WhichDrum: B ; velocity: 127
@76800 , @4.049612403100776 Channel: 9 
Note on, F#2 key =  42;WhichDrum: C1 ; velocity: 127
@76920 , @4.05593992248062 Channel: 9 
Note on, C2 key =  36;WhichDrum: B ; velocity: 0
@76920 , @4.05593992248062 Channel: 9 
Note on, F#2 key =  42;WhichDrum: C1 ; velocity: 0
@76920 , @4.05593992248062 Channel: 9 
Note on, D2 key =  38;WhichDrum: T2 ; velocity: 127
@76920 , @4.05593992248062 Channel: 9 
Note on, F#2 key =  42;WhichDrum: C1 ; velocity: 127
@77040 , @4.062267441860465 Channel: 9 
Note on, D2 key =  38;WhichDrum: T2 ; velocity: 0
@77040 , @4.062267441860465 Channel: 9 
Note on, F#2 key =  42;WhichDrum: C1 ; velocity: 0
@77040 , @4.062267441860465 Channel: 9 
Note on, C2 key =  36;WhichDrum: B ; velocity: 127
@77040 , @4.062267441860465 Channel: 9 
Note on, F#2 key =  42;WhichDrum: C1 ; velocity: 127
@77100 , @4.065431201550387 Channel: 9 
Note on, C2 key =  36;WhichDrum: B ; velocity: 0
@77100 , @4.065431201550387 Channel: 9 
Note on, C2 key =  36;WhichDrum: B ; velocity: 127
@77160 , @4.0685949612403105 Channel: 9 
Note on, F#2 key =  42;WhichDrum: C1 ; velocity: 0
@77160 , @4.0685949612403105 Channel: 9 
Note on, C2 key =  36;WhichDrum: B ; velocity: 0
@77160 , @4.0685949612403105 Channel: 9 
Note on, D2 key =  38;WhichDrum: T2 ; velocity: 127
@77160 , @4.0685949612403105 Channel: 9 
Note on, F#2 key =  42;WhichDrum: C1 ; velocity: 127
@77280 , @4.074922480620155 Channel: 9 
Note on, D2 key =  38;WhichDrum: T2 ; velocity: 0
@77280 , @4.074922480620155 Channel: 9 
Note on, F#2 key =  42;WhichDrum: C1 ; velocity: 0
@77280 , @4.074922480620155 Channel: 9 
Note on, C2 key =  36;WhichDrum: B ; velocity: 127
@77280 , @4.074922480620155 Channel: 9 
Note on, A3 key =  57;WhichDrum: T3 ; velocity: 127
@77400 , @4.08125 Channel: 9 
Note on, C2 key =  36;WhichDrum: B ; velocity: 0
@77400 , @4.08125 Channel: 9 
Note on, A3 key =  57;WhichDrum: T3 ; velocity: 0
@77460 , @4.084413759689923 Channel: 9 
Note on, D2 key =  38;WhichDrum: T2 ; velocity: 127
@77520 , @4.087577519379845 Channel: 9 
Note on, D2 key =  38;WhichDrum: T2 ; velocity: 0
@77640 , @4.09390503875969 Channel: 9 
Note on, D2 key =  38;WhichDrum: T2 ; velocity: 127
@77760 , @4.100232558139535 Channel: 9 
Note on, D2 key =  38;WhichDrum: T2 ; velocity: 0
@77760 , @4.100232558139535 Channel: 9 
Note on, C2 key =  36;WhichDrum: B ; velocity: 127
@77760 , @4.100232558139535 Channel: 9 
Note on, A3 key =  57;WhichDrum: T3 ; velocity: 127
@77880 , @4.10656007751938 Channel: 9 
Note on, C2 key =  36;WhichDrum: B ; velocity: 0
@77880 , @4.10656007751938 Channel: 9 
Note on, A3 key =  57;WhichDrum: T3 ; velocity: 0
@77940 , @4.109723837209303 Channel: 9 
Note on, D2 key =  38;WhichDrum: T2 ; velocity: 127
@78000 , @4.112887596899225 Channel: 9 
Note on, D2 key =  38;WhichDrum: T2 ; velocity: 0
@78120 , @4.1192151162790696 Channel: 9 
Note on, D2 key =  38;WhichDrum: T2 ; velocity: 127
@78240 , @4.125542635658915 Channel: 9 
Note on, D2 key =  38;WhichDrum: T2 ; velocity: 0
@78240 , @4.125542635658915 Channel: 9 
Note on, C2 key =  36;WhichDrum: B ; velocity: 127
@78240 , @4.125542635658915 Channel: 9 
Note on, A3 key =  57;WhichDrum: T3 ; velocity: 127
@78360 , @4.13187015503876 Channel: 9 
Note on, C2 key =  36;WhichDrum: B ; velocity: 0
@78360 , @4.13187015503876 Channel: 9 
Note on, A3 key =  57;WhichDrum: T3 ; velocity: 0
@78540 , @4.141361434108528 Channel: 9 
Note on, C2 key =  36;WhichDrum: B ; velocity: 127
@78560 , @4.142416020671835 Channel: 9 
Note on, C2 key =  36;WhichDrum: B ; velocity: 0
@78560 , @4.142416020671835 Channel: 9 
Note on, C2 key =  36;WhichDrum: B ; velocity: 127
@78580 , @4.143470607235143 Channel: 9 
Note on, C2 key =  36;WhichDrum: B ; velocity: 0
@78580 , @4.143470607235143 Channel: 9 
Note on, C2 key =  36;WhichDrum: B ; velocity: 127
@78595 , @4.144261547157623 Channel: 9 
Note on, D2 key =  38;WhichDrum: T2 ; velocity: 75
@78600 , @4.14452519379845 Channel: 9 
Note on, C2 key =  36;WhichDrum: B ; velocity: 0
@78600 , @4.14452519379845 Channel: 9 
Note on, D2 key =  38;WhichDrum: T2 ; velocity: 0
@78600 , @4.14452519379845 Channel: 9 
Note on, D2 key =  38;WhichDrum: T2 ; velocity: 127
@78720 , @4.150852713178295 Channel: 9 
Note on, D2 key =  38;WhichDrum: T2 ; velocity: 0
@78720 , @4.150852713178295 Channel: 9 
Note on, C2 key =  36;WhichDrum: B ; velocity: 127
@78720 , @4.150852713178295 Channel: 9 
Note on, A3 key =  57;WhichDrum: T3 ; velocity: 127
@78840 , @4.15718023255814 Channel: 9 
Note on, C2 key =  36;WhichDrum: B ; velocity: 0
@78840 , @4.15718023255814 Channel: 9 
Note on, A3 key =  57;WhichDrum: T3 ; velocity: 0
@79560 , @4.19514534883721 Channel: 9 
Note on, C2 key =  36;WhichDrum: B ; velocity: 127
@79560 , @4.19514534883721 Channel: 9 
Note on, D2 key =  38;WhichDrum: T2 ; velocity: 127
@79560 , @4.19514534883721 Channel: 9 
Note on, F#2 key =  42;WhichDrum: C1 ; velocity: 127
@79620 , @4.198309108527132 Channel: 9 
Note on, C2 key =  36;WhichDrum: B ; velocity: 0
@79620 , @4.198309108527132 Channel: 9 
Note on, D2 key =  38;WhichDrum: T2 ; velocity: 0
@79620 , @4.198309108527132 Channel: 9 
Note on, F#2 key =  42;WhichDrum: C1 ; velocity: 0
@79620 , @4.198309108527132 Channel: 9 
Note on, F#2 key =  42;WhichDrum: C1 ; velocity: 127
@79620 , @4.198309108527132 Channel: 9 
Note on, D2 key =  38;WhichDrum: T2 ; velocity: 127
@79620 , @4.198309108527132 Channel: 9 
Note on, C2 key =  36;WhichDrum: B ; velocity: 127
@79680 , @4.201472868217055 Channel: 9 
Note on, F#2 key =  42;WhichDrum: C1 ; velocity: 0
@79680 , @4.201472868217055 Channel: 9 
Note on, D2 key =  38;WhichDrum: T2 ; velocity: 0
@79680 , @4.201472868217055 Channel: 9 
Note on, C2 key =  36;WhichDrum: B ; velocity: 0
@79680 , @4.201472868217055 Channel: 9 
Note on, C2 key =  36;WhichDrum: B ; velocity: 127
@79680 , @4.201472868217055 Channel: 9 
Note on, D2 key =  38;WhichDrum: T2 ; velocity: 127
@79680 , @4.201472868217055 Channel: 9 
Note on, F#2 key =  42;WhichDrum: C1 ; velocity: 127
@79800 , @4.207800387596899 Channel: 9 
Note on, C2 key =  36;WhichDrum: B ; velocity: 0
@79800 , @4.207800387596899 Channel: 9 
Note on, D2 key =  38;WhichDrum: T2 ; velocity: 0
@79800 , @4.207800387596899 Channel: 9 
Note on, F#2 key =  42;WhichDrum: C1 ; velocity: 0
@80520 , @4.24576550387597 Channel: 9 
Note on, C2 key =  36;WhichDrum: B ; velocity: 127
@80520 , @4.24576550387597 Channel: 9 
Note on, D2 key =  38;WhichDrum: T2 ; velocity: 127
@80520 , @4.24576550387597 Channel: 9 
Note on, F#2 key =  42;WhichDrum: C1 ; velocity: 127
@80580 , @4.248929263565892 Channel: 9 
Note on, C2 key =  36;WhichDrum: B ; velocity: 0
@80580 , @4.248929263565892 Channel: 9 
Note on, D2 key =  38;WhichDrum: T2 ; velocity: 0
@80580 , @4.248929263565892 Channel: 9 
Note on, F#2 key =  42;WhichDrum: C1 ; velocity: 0
@80580 , @4.248929263565892 Channel: 9 
Note on, F#2 key =  42;WhichDrum: C1 ; velocity: 127
@80580 , @4.248929263565892 Channel: 9 
Note on, D2 key =  38;WhichDrum: T2 ; velocity: 127
@80580 , @4.248929263565892 Channel: 9 
Note on, C2 key =  36;WhichDrum: B ; velocity: 127
@80640 , @4.2520930232558145 Channel: 9 
Note on, F#2 key =  42;WhichDrum: C1 ; velocity: 0
@80640 , @4.2520930232558145 Channel: 9 
Note on, D2 key =  38;WhichDrum: T2 ; velocity: 0
@80640 , @4.2520930232558145 Channel: 9 
Note on, C2 key =  36;WhichDrum: B ; velocity: 0
@80640 , @4.2520930232558145 Channel: 9 
Note on, C2 key =  36;WhichDrum: B ; velocity: 127
@80640 , @4.2520930232558145 Channel: 9 
Note on, D2 key =  38;WhichDrum: T2 ; velocity: 127
@80640 , @4.2520930232558145 Channel: 9 
Note on, F#2 key =  42;WhichDrum: C1 ; velocity: 127
@80760 , @4.258420542635659 Channel: 9 
Note on, C2 key =  36;WhichDrum: B ; velocity: 0
@80760 , @4.258420542635659 Channel: 9 
Note on, D2 key =  38;WhichDrum: T2 ; velocity: 0
@80760 , @4.258420542635659 Channel: 9 
Note on, F#2 key =  42;WhichDrum: C1 ; velocity: 0
@81600 , @4.302713178294574 Channel: 9 
Note on, D2 key =  38;WhichDrum: T2 ; velocity: 127
@81600 , @4.302713178294574 Channel: 9 
Note on, F#2 key =  42;WhichDrum: C1 ; velocity: 127
@81600 , @4.302713178294574 Channel: 9 
Note on, C2 key =  36;WhichDrum: B ; velocity: 127
@81660 , @4.305876937984496 Channel: 9 
Note on, D2 key =  38;WhichDrum: T2 ; velocity: 0
@81660 , @4.305876937984496 Channel: 9 
Note on, F#2 key =  42;WhichDrum: C1 ; velocity: 0
@81660 , @4.305876937984496 Channel: 9 
Note on, C2 key =  36;WhichDrum: B ; velocity: 0
@81660 , @4.305876937984496 Channel: 9 
Note on, F#2 key =  42;WhichDrum: C1 ; velocity: 127
@81660 , @4.305876937984496 Channel: 9 
Note on, D2 key =  38;WhichDrum: T2 ; velocity: 127
@81660 , @4.305876937984496 Channel: 9 
Note on, C2 key =  36;WhichDrum: B ; velocity: 127
@81720 , @4.309040697674418 Channel: 9 
Note on, F#2 key =  42;WhichDrum: C1 ; velocity: 0
@81720 , @4.309040697674418 Channel: 9 
Note on, D2 key =  38;WhichDrum: T2 ; velocity: 0
@81720 , @4.309040697674418 Channel: 9 
Note on, C2 key =  36;WhichDrum: B ; velocity: 0
@81720 , @4.309040697674418 Channel: 9 
Note on, D2 key =  38;WhichDrum: T2 ; velocity: 127
@81720 , @4.309040697674418 Channel: 9 
Note on, F#2 key =  42;WhichDrum: C1 ; velocity: 127
@81720 , @4.309040697674418 Channel: 9 
Note on, C2 key =  36;WhichDrum: B ; velocity: 127
@81780 , @4.3122044573643405 Channel: 9 
Note on, D2 key =  38;WhichDrum: T2 ; velocity: 0
@81780 , @4.3122044573643405 Channel: 9 
Note on, F#2 key =  42;WhichDrum: C1 ; velocity: 0
@81780 , @4.3122044573643405 Channel: 9 
Note on, C2 key =  36;WhichDrum: B ; velocity: 0
@81780 , @4.3122044573643405 Channel: 9 
Note on, F#2 key =  42;WhichDrum: C1 ; velocity: 127
@81780 , @4.3122044573643405 Channel: 9 
Note on, D2 key =  38;WhichDrum: T2 ; velocity: 127
@81780 , @4.3122044573643405 Channel: 9 
Note on, C2 key =  36;WhichDrum: B ; velocity: 127
@81840 , @4.315368217054264 Channel: 9 
Note on, F#2 key =  42;WhichDrum: C1 ; velocity: 0
@81840 , @4.315368217054264 Channel: 9 
Note on, D2 key =  38;WhichDrum: T2 ; velocity: 0
@81840 , @4.315368217054264 Channel: 9 
Note on, C2 key =  36;WhichDrum: B ; velocity: 0
@81840 , @4.315368217054264 Channel: 9 
Note on, D2 key =  38;WhichDrum: T2 ; velocity: 127
@81840 , @4.315368217054264 Channel: 9 
Note on, F#2 key =  42;WhichDrum: C1 ; velocity: 127
@81840 , @4.315368217054264 Channel: 9 
Note on, C2 key =  36;WhichDrum: B ; velocity: 127
@81900 , @4.318531976744186 Channel: 9 
Note on, D2 key =  38;WhichDrum: T2 ; velocity: 0
@81900 , @4.318531976744186 Channel: 9 
Note on, F#2 key =  42;WhichDrum: C1 ; velocity: 0
@81900 , @4.318531976744186 Channel: 9 
Note on, C2 key =  36;WhichDrum: B ; velocity: 0
@81900 , @4.318531976744186 Channel: 9 
Note on, F#2 key =  42;WhichDrum: C1 ; velocity: 127
@81900 , @4.318531976744186 Channel: 9 
Note on, D2 key =  38;WhichDrum: T2 ; velocity: 127
@81900 , @4.318531976744186 Channel: 9 
Note on, C2 key =  36;WhichDrum: B ; velocity: 127
@81960 , @4.321695736434108 Channel: 9 
Note on, F#2 key =  42;WhichDrum: C1 ; velocity: 0
@81960 , @4.321695736434108 Channel: 9 
Note on, D2 key =  38;WhichDrum: T2 ; velocity: 0
@81960 , @4.321695736434108 Channel: 9 
Note on, C2 key =  36;WhichDrum: B ; velocity: 0
@81960 , @4.321695736434108 Channel: 9 
Note on, D2 key =  38;WhichDrum: T2 ; velocity: 127
@81960 , @4.321695736434108 Channel: 9 
Note on, F#2 key =  42;WhichDrum: C1 ; velocity: 127
@81960 , @4.321695736434108 Channel: 9 
Note on, C2 key =  36;WhichDrum: B ; velocity: 127
@82020 , @4.324859496124031 Channel: 9 
Note on, D2 key =  38;WhichDrum: T2 ; velocity: 0
@82020 , @4.324859496124031 Channel: 9 
Note on, F#2 key =  42;WhichDrum: C1 ; velocity: 0
@82020 , @4.324859496124031 Channel: 9 
Note on, C2 key =  36;WhichDrum: B ; velocity: 0
@82020 , @4.324859496124031 Channel: 9 
Note on, F#2 key =  42;WhichDrum: C1 ; velocity: 127
@82020 , @4.324859496124031 Channel: 9 
Note on, D2 key =  38;WhichDrum: T2 ; velocity: 127
@82020 , @4.324859496124031 Channel: 9 
Note on, C2 key =  36;WhichDrum: B ; velocity: 127
@82080 , @4.328023255813953 Channel: 9 
Note on, F#2 key =  42;WhichDrum: C1 ; velocity: 0
@82080 , @4.328023255813953 Channel: 9 
Note on, D2 key =  38;WhichDrum: T2 ; velocity: 0
@82080 , @4.328023255813953 Channel: 9 
Note on, C2 key =  36;WhichDrum: B ; velocity: 0
@82080 , @4.328023255813953 Channel: 9 
Note on, D2 key =  38;WhichDrum: T2 ; velocity: 127
@82080 , @4.328023255813953 Channel: 9 
Note on, F#2 key =  42;WhichDrum: C1 ; velocity: 127
@82080 , @4.328023255813953 Channel: 9 
Note on, C2 key =  36;WhichDrum: B ; velocity: 127
@82140 , @4.331187015503875 Channel: 9 
Note on, D2 key =  38;WhichDrum: T2 ; velocity: 0
@82140 , @4.331187015503875 Channel: 9 
Note on, F#2 key =  42;WhichDrum: C1 ; velocity: 0
@82140 , @4.331187015503875 Channel: 9 
Note on, C2 key =  36;WhichDrum: B ; velocity: 0
@82140 , @4.331187015503875 Channel: 9 
Note on, F#2 key =  42;WhichDrum: C1 ; velocity: 127
@82140 , @4.331187015503875 Channel: 9 
Note on, D2 key =  38;WhichDrum: T2 ; velocity: 127
@82140 , @4.331187015503875 Channel: 9 
Note on, C2 key =  36;WhichDrum: B ; velocity: 127
@82200 , @4.334350775193799 Channel: 9 
Note on, F#2 key =  42;WhichDrum: C1 ; velocity: 0
@82200 , @4.334350775193799 Channel: 9 
Note on, D2 key =  38;WhichDrum: T2 ; velocity: 0
@82200 , @4.334350775193799 Channel: 9 
Note on, C2 key =  36;WhichDrum: B ; velocity: 0
@82200 , @4.334350775193799 Channel: 9 
Note on, C2 key =  36;WhichDrum: B ; velocity: 127
@82200 , @4.334350775193799 Channel: 9 
Note on, D2 key =  38;WhichDrum: T2 ; velocity: 127
@82230 , @4.33593265503876 Channel: 9 
Note on, D2 key =  38;WhichDrum: T2 ; velocity: 0
@82230 , @4.33593265503876 Channel: 9 
Note on, D2 key =  38;WhichDrum: T2 ; velocity: 127
@82260 , @4.337514534883721 Channel: 9 
Note on, D2 key =  38;WhichDrum: T2 ; velocity: 0
@82260 , @4.337514534883721 Channel: 9 
Note on, D2 key =  38;WhichDrum: T2 ; velocity: 127
@82290 , @4.339096414728682 Channel: 9 
Note on, D2 key =  38;WhichDrum: T2 ; velocity: 0
@82290 , @4.339096414728682 Channel: 9 
Note on, D2 key =  38;WhichDrum: T2 ; velocity: 127
@82320 , @4.340678294573643 Channel: 9 
Note on, C2 key =  36;WhichDrum: B ; velocity: 0
@82320 , @4.340678294573643 Channel: 9 
Note on, D2 key =  38;WhichDrum: T2 ; velocity: 0
@82320 , @4.340678294573643 Channel: 9 
Note on, C2 key =  36;WhichDrum: B ; velocity: 127
@82320 , @4.340678294573643 Channel: 9 
Note on, D2 key =  38;WhichDrum: T2 ; velocity: 127
@82380 , @4.343842054263566 Channel: 9 
Note on, D2 key =  38;WhichDrum: T2 ; velocity: 0
@82380 , @4.343842054263566 Channel: 9 
Note on, D2 key =  38;WhichDrum: T2 ; velocity: 127
@82410 , @4.345423934108528 Channel: 9 
Note on, D2 key =  38;WhichDrum: T2 ; velocity: 0
@82410 , @4.345423934108528 Channel: 9 
Note on, D2 key =  38;WhichDrum: T2 ; velocity: 127
@82440 , @4.347005813953488 Channel: 9 
Note on, C2 key =  36;WhichDrum: B ; velocity: 0
@82440 , @4.347005813953488 Channel: 9 
Note on, D2 key =  38;WhichDrum: T2 ; velocity: 0
@82440 , @4.347005813953488 Channel: 9 
Note on, A3 key =  57;WhichDrum: T3 ; velocity: 127
@82440 , @4.347005813953488 Channel: 9 
Note on, C2 key =  36;WhichDrum: B ; velocity: 127
@82500 , @4.350169573643411 Channel: 9 
Note on, A3 key =  57;WhichDrum: T3 ; velocity: 0
@82500 , @4.350169573643411 Channel: 9 
Note on, C2 key =  36;WhichDrum: B ; velocity: 0
@82500 , @4.350169573643411 Channel: 9 
Note on, A3 key =  57;WhichDrum: T3 ; velocity: 127
@82500 , @4.350169573643411 Channel: 9 
Note on, C2 key =  36;WhichDrum: B ; velocity: 127
@82560 , @4.3533333333333335 Channel: 9 
Note on, A3 key =  57;WhichDrum: T3 ; velocity: 0
@82560 , @4.3533333333333335 Channel: 9 
Note on, C2 key =  36;WhichDrum: B ; velocity: 0
@82560 , @4.3533333333333335 Channel: 9 
Note on, C2 key =  36;WhichDrum: B ; velocity: 127
@82560 , @4.3533333333333335 Channel: 9 
Note on, A3 key =  57;WhichDrum: T3 ; velocity: 127
@82680 , @4.359660852713178 Channel: 9 
Note on, C2 key =  36;WhichDrum: B ; velocity: 0
@82680 , @4.359660852713178 Channel: 9 
Note on, A3 key =  57;WhichDrum: T3 ; velocity: 0
@82680 , @4.359660852713178 Channel: 9 
Note on, D2 key =  38;WhichDrum: T2 ; velocity: 127
@82680 , @4.359660852713178 Channel: 9 
Note on, F#2 key =  42;WhichDrum: C1 ; velocity: 127
@82740 , @4.3628246124031005 Channel: 9 
Note on, D2 key =  38;WhichDrum: T2 ; velocity: 0
@82740 , @4.3628246124031005 Channel: 9 
Note on, F#2 key =  42;WhichDrum: C1 ; velocity: 0
@82740 , @4.3628246124031005 Channel: 9 
Note on, F#2 key =  42;WhichDrum: C1 ; velocity: 127
@82800 , @4.365988372093023 Channel: 9 
Note on, F#2 key =  42;WhichDrum: C1 ; velocity: 0
@82800 , @4.365988372093023 Channel: 9 
Note on, F#2 key =  42;WhichDrum: C1 ; velocity: 127
@82860 , @4.369152131782946 Channel: 9 
Note on, F#2 key =  42;WhichDrum: C1 ; velocity: 0
@82860 , @4.369152131782946 Channel: 9 
Note on, C2 key =  36;WhichDrum: B ; velocity: 127
@82860 , @4.369152131782946 Channel: 9 
Note on, F#2 key =  42;WhichDrum: C1 ; velocity: 127
@82920 , @4.372315891472868 Channel: 9 
Note on, C2 key =  36;WhichDrum: B ; velocity: 0
@82920 , @4.372315891472868 Channel: 9 
Note on, F#2 key =  42;WhichDrum: C1 ; velocity: 0
@82920 , @4.372315891472868 Channel: 9 
Note on, D2 key =  38;WhichDrum: T2 ; velocity: 127
@82920 , @4.372315891472868 Channel: 9 
Note on, F#2 key =  42;WhichDrum: C1 ; velocity: 127
@82980 , @4.375479651162791 Channel: 9 
Note on, D2 key =  38;WhichDrum: T2 ; velocity: 0
@82980 , @4.375479651162791 Channel: 9 
Note on, F#2 key =  42;WhichDrum: C1 ; velocity: 0
@82980 , @4.375479651162791 Channel: 9 
Note on, C2 key =  36;WhichDrum: B ; velocity: 127
@82980 , @4.375479651162791 Channel: 9 
Note on, F#2 key =  42;WhichDrum: C1 ; velocity: 127
@83040 , @4.378643410852713 Channel: 9 
Note on, C2 key =  36;WhichDrum: B ; velocity: 0
@83040 , @4.378643410852713 Channel: 9 
Note on, F#2 key =  42;WhichDrum: C1 ; velocity: 0
@83040 , @4.378643410852713 Channel: 9 
Note on, F#2 key =  42;WhichDrum: C1 ; velocity: 127
@83100 , @4.381807170542635 Channel: 9 
Note on, F#2 key =  42;WhichDrum: C1 ; velocity: 0
@83100 , @4.381807170542635 Channel: 9 
Note on, C2 key =  36;WhichDrum: B ; velocity: 127
@83100 , @4.381807170542635 Channel: 9 
Note on, F#2 key =  42;WhichDrum: C1 ; velocity: 127
@83160 , @4.384970930232558 Channel: 9 
Note on, C2 key =  36;WhichDrum: B ; velocity: 0
@83160 , @4.384970930232558 Channel: 9 
Note on, F#2 key =  42;WhichDrum: C1 ; velocity: 0
@83160 , @4.384970930232558 Channel: 9 
Note on, D2 key =  38;WhichDrum: T2 ; velocity: 127
@83160 , @4.384970930232558 Channel: 9 
Note on, F#2 key =  42;WhichDrum: C1 ; velocity: 127
@83220 , @4.388134689922481 Channel: 9 
Note on, D2 key =  38;WhichDrum: T2 ; velocity: 0
@83220 , @4.388134689922481 Channel: 9 
Note on, F#2 key =  42;WhichDrum: C1 ; velocity: 0
@83220 , @4.388134689922481 Channel: 9 
Note on, F#2 key =  42;WhichDrum: C1 ; velocity: 127
@83280 , @4.391298449612403 Channel: 9 
Note on, F#2 key =  42;WhichDrum: C1 ; velocity: 0
@83280 , @4.391298449612403 Channel: 9 
Note on, C2 key =  36;WhichDrum: B ; velocity: 127
@83280 , @4.391298449612403 Channel: 9 
Note on, F#2 key =  42;WhichDrum: C1 ; velocity: 127
@83340 , @4.394462209302326 Channel: 9 
Note on, C2 key =  36;WhichDrum: B ; velocity: 0
@83340 , @4.394462209302326 Channel: 9 
Note on, F#2 key =  42;WhichDrum: C1 ; velocity: 0
@83340 , @4.394462209302326 Channel: 9 
Note on, C2 key =  36;WhichDrum: B ; velocity: 127
@83340 , @4.394462209302326 Channel: 9 
Note on, F#2 key =  42;WhichDrum: C1 ; velocity: 127
@83360 , @4.395516795865634 Channel: 9 
Note on, C2 key =  36;WhichDrum: B ; velocity: 0
@83360 , @4.395516795865634 Channel: 9 
Note on, C2 key =  36;WhichDrum: B ; velocity: 127
@83380 , @4.396571382428941 Channel: 9 
Note on, C2 key =  36;WhichDrum: B ; velocity: 0
@83380 , @4.396571382428941 Channel: 9 
Note on, C2 key =  36;WhichDrum: B ; velocity: 127
@83400 , @4.397625968992248 Channel: 9 
Note on, F#2 key =  42;WhichDrum: C1 ; velocity: 0
@83400 , @4.397625968992248 Channel: 9 
Note on, C2 key =  36;WhichDrum: B ; velocity: 0
@83400 , @4.397625968992248 Channel: 9 
Note on, D2 key =  38;WhichDrum: T2 ; velocity: 127
@83400 , @4.397625968992248 Channel: 9 
Note on, F#2 key =  42;WhichDrum: C1 ; velocity: 127
@83460 , @4.40078972868217 Channel: 9 
Note on, D2 key =  38;WhichDrum: T2 ; velocity: 0
@83460 , @4.40078972868217 Channel: 9 
Note on, F#2 key =  42;WhichDrum: C1 ; velocity: 0
@83460 , @4.40078972868217 Channel: 9 
Note on, C2 key =  36;WhichDrum: B ; velocity: 127
@83460 , @4.40078972868217 Channel: 9 
Note on, A3 key =  57;WhichDrum: T3 ; velocity: 127
@83520 , @4.403953488372093 Channel: 9 
Note on, C2 key =  36;WhichDrum: B ; velocity: 0
@83520 , @4.403953488372093 Channel: 9 
Note on, A3 key =  57;WhichDrum: T3 ; velocity: 0
@83520 , @4.403953488372093 Channel: 9 
Note on, C2 key =  36;WhichDrum: B ; velocity: 127
@83520 , @4.403953488372093 Channel: 9 
Note on, A3 key =  57;WhichDrum: T3 ; velocity: 127
@83640 , @4.410281007751938 Channel: 9 
Note on, C2 key =  36;WhichDrum: B ; velocity: 0
@83640 , @4.410281007751938 Channel: 9 
Note on, A3 key =  57;WhichDrum: T3 ; velocity: 0
@83640 , @4.410281007751938 Channel: 9 
Note on, D2 key =  38;WhichDrum: T2 ; velocity: 127
@83640 , @4.410281007751938 Channel: 9 
Note on, F#2 key =  42;WhichDrum: C1 ; velocity: 127
@83700 , @4.41344476744186 Channel: 9 
Note on, D2 key =  38;WhichDrum: T2 ; velocity: 0
@83700 , @4.41344476744186 Channel: 9 
Note on, F#2 key =  42;WhichDrum: C1 ; velocity: 0
@83700 , @4.41344476744186 Channel: 9 
Note on, F#2 key =  42;WhichDrum: C1 ; velocity: 127
@83760 , @4.416608527131783 Channel: 9 
Note on, F#2 key =  42;WhichDrum: C1 ; velocity: 0
@83760 , @4.416608527131783 Channel: 9 
Note on, F#2 key =  42;WhichDrum: C1 ; velocity: 127
@83820 , @4.419772286821705 Channel: 9 
Note on, F#2 key =  42;WhichDrum: C1 ; velocity: 0
@83820 , @4.419772286821705 Channel: 9 
Note on, C2 key =  36;WhichDrum: B ; velocity: 127
@83820 , @4.419772286821705 Channel: 9 
Note on, F#2 key =  42;WhichDrum: C1 ; velocity: 127
@83880 , @4.422936046511628 Channel: 9 
Note on, C2 key =  36;WhichDrum: B ; velocity: 0
@83880 , @4.422936046511628 Channel: 9 
Note on, F#2 key =  42;WhichDrum: C1 ; velocity: 0
@83880 , @4.422936046511628 Channel: 9 
Note on, D2 key =  38;WhichDrum: T2 ; velocity: 127
@83880 , @4.422936046511628 Channel: 9 
Note on, F#2 key =  42;WhichDrum: C1 ; velocity: 127
@83940 , @4.426099806201551 Channel: 9 
Note on, D2 key =  38;WhichDrum: T2 ; velocity: 0
@83940 , @4.426099806201551 Channel: 9 
Note on, F#2 key =  42;WhichDrum: C1 ; velocity: 0
@83940 , @4.426099806201551 Channel: 9 
Note on, C2 key =  36;WhichDrum: B ; velocity: 127
@83940 , @4.426099806201551 Channel: 9 
Note on, F#2 key =  42;WhichDrum: C1 ; velocity: 127
@84000 , @4.429263565891473 Channel: 9 
Note on, C2 key =  36;WhichDrum: B ; velocity: 0
@84000 , @4.429263565891473 Channel: 9 
Note on, F#2 key =  42;WhichDrum: C1 ; velocity: 0
@84000 , @4.429263565891473 Channel: 9 
Note on, F#2 key =  42;WhichDrum: C1 ; velocity: 127
@84060 , @4.432427325581395 Channel: 9 
Note on, F#2 key =  42;WhichDrum: C1 ; velocity: 0
@84060 , @4.432427325581395 Channel: 9 
Note on, C2 key =  36;WhichDrum: B ; velocity: 127
@84060 , @4.432427325581395 Channel: 9 
Note on, F#2 key =  42;WhichDrum: C1 ; velocity: 127
@84120 , @4.435591085271318 Channel: 9 
Note on, C2 key =  36;WhichDrum: B ; velocity: 0
@84120 , @4.435591085271318 Channel: 9 
Note on, F#2 key =  42;WhichDrum: C1 ; velocity: 0
@84120 , @4.435591085271318 Channel: 9 
Note on, D2 key =  38;WhichDrum: T2 ; velocity: 127
@84120 , @4.435591085271318 Channel: 9 
Note on, F#2 key =  42;WhichDrum: C1 ; velocity: 127
@84180 , @4.43875484496124 Channel: 9 
Note on, D2 key =  38;WhichDrum: T2 ; velocity: 0
@84180 , @4.43875484496124 Channel: 9 
Note on, F#2 key =  42;WhichDrum: C1 ; velocity: 0
@84180 , @4.43875484496124 Channel: 9 
Note on, F#2 key =  42;WhichDrum: C1 ; velocity: 127
@84240 , @4.441918604651163 Channel: 9 
Note on, F#2 key =  42;WhichDrum: C1 ; velocity: 0
@84240 , @4.441918604651163 Channel: 9 
Note on, C2 key =  36;WhichDrum: B ; velocity: 127
@84240 , @4.441918604651163 Channel: 9 
Note on, F#2 key =  42;WhichDrum: C1 ; velocity: 127
@84300 , @4.4450823643410855 Channel: 9 
Note on, C2 key =  36;WhichDrum: B ; velocity: 0
@84300 , @4.4450823643410855 Channel: 9 
Note on, F#2 key =  42;WhichDrum: C1 ; velocity: 0
@84300 , @4.4450823643410855 Channel: 9 
Note on, C2 key =  36;WhichDrum: B ; velocity: 127
@84300 , @4.4450823643410855 Channel: 9 
Note on, F#2 key =  42;WhichDrum: C1 ; velocity: 127
@84320 , @4.446136950904393 Channel: 9 
Note on, C2 key =  36;WhichDrum: B ; velocity: 0
@84320 , @4.446136950904393 Channel: 9 
Note on, C2 key =  36;WhichDrum: B ; velocity: 127
@84340 , @4.447191537467701 Channel: 9 
Note on, C2 key =  36;WhichDrum: B ; velocity: 0
@84340 , @4.447191537467701 Channel: 9 
Note on, C2 key =  36;WhichDrum: B ; velocity: 127
@84360 , @4.448246124031008 Channel: 9 
Note on, F#2 key =  42;WhichDrum: C1 ; velocity: 0
@84360 , @4.448246124031008 Channel: 9 
Note on, C2 key =  36;WhichDrum: B ; velocity: 0
@84360 , @4.448246124031008 Channel: 9 
Note on, D2 key =  38;WhichDrum: T2 ; velocity: 127
@84360 , @4.448246124031008 Channel: 9 
Note on, F#2 key =  42;WhichDrum: C1 ; velocity: 127
@84420 , @4.45140988372093 Channel: 9 
Note on, D2 key =  38;WhichDrum: T2 ; velocity: 0
@84420 , @4.45140988372093 Channel: 9 
Note on, F#2 key =  42;WhichDrum: C1 ; velocity: 0
@84420 , @4.45140988372093 Channel: 9 
Note on, C2 key =  36;WhichDrum: B ; velocity: 127
@84420 , @4.45140988372093 Channel: 9 
Note on, A3 key =  57;WhichDrum: T3 ; velocity: 127
@84480 , @4.4545736434108525 Channel: 9 
Note on, C2 key =  36;WhichDrum: B ; velocity: 0
@84480 , @4.4545736434108525 Channel: 9 
Note on, A3 key =  57;WhichDrum: T3 ; velocity: 0
@84480 , @4.4545736434108525 Channel: 9 
Note on, C2 key =  36;WhichDrum: B ; velocity: 127
@84480 , @4.4545736434108525 Channel: 9 
Note on, A3 key =  57;WhichDrum: T3 ; velocity: 127
@84600 , @4.460901162790698 Channel: 9 
Note on, C2 key =  36;WhichDrum: B ; velocity: 0
@84600 , @4.460901162790698 Channel: 9 
Note on, A3 key =  57;WhichDrum: T3 ; velocity: 0
@84600 , @4.460901162790698 Channel: 9 
Note on, D2 key =  38;WhichDrum: T2 ; velocity: 127
@84600 , @4.460901162790698 Channel: 9 
Note on, F#2 key =  42;WhichDrum: C1 ; velocity: 127
@84660 , @4.46406492248062 Channel: 9 
Note on, D2 key =  38;WhichDrum: T2 ; velocity: 0
@84660 , @4.46406492248062 Channel: 9 
Note on, F#2 key =  42;WhichDrum: C1 ; velocity: 0
@84660 , @4.46406492248062 Channel: 9 
Note on, F#2 key =  42;WhichDrum: C1 ; velocity: 127
@84720 , @4.467228682170543 Channel: 9 
Note on, F#2 key =  42;WhichDrum: C1 ; velocity: 0
@84720 , @4.467228682170543 Channel: 9 
Note on, F#2 key =  42;WhichDrum: C1 ; velocity: 127
@84780 , @4.470392441860465 Channel: 9 
Note on, F#2 key =  42;WhichDrum: C1 ; velocity: 0
@84780 , @4.470392441860465 Channel: 9 
Note on, C2 key =  36;WhichDrum: B ; velocity: 127
@84780 , @4.470392441860465 Channel: 9 
Note on, F#2 key =  42;WhichDrum: C1 ; velocity: 127
@84840 , @4.473556201550387 Channel: 9 
Note on, C2 key =  36;WhichDrum: B ; velocity: 0
@84840 , @4.473556201550387 Channel: 9 
Note on, F#2 key =  42;WhichDrum: C1 ; velocity: 0
@84840 , @4.473556201550387 Channel: 9 
Note on, D2 key =  38;WhichDrum: T2 ; velocity: 127
@84840 , @4.473556201550387 Channel: 9 
Note on, F#2 key =  42;WhichDrum: C1 ; velocity: 127
@84900 , @4.476719961240311 Channel: 9 
Note on, D2 key =  38;WhichDrum: T2 ; velocity: 0
@84900 , @4.476719961240311 Channel: 9 
Note on, F#2 key =  42;WhichDrum: C1 ; velocity: 0
@84900 , @4.476719961240311 Channel: 9 
Note on, C2 key =  36;WhichDrum: B ; velocity: 127
@84900 , @4.476719961240311 Channel: 9 
Note on, F#2 key =  42;WhichDrum: C1 ; velocity: 127
@84960 , @4.479883720930233 Channel: 9 
Note on, C2 key =  36;WhichDrum: B ; velocity: 0
@84960 , @4.479883720930233 Channel: 9 
Note on, F#2 key =  42;WhichDrum: C1 ; velocity: 0
@84960 , @4.479883720930233 Channel: 9 
Note on, F#2 key =  42;WhichDrum: C1 ; velocity: 127
@85020 , @4.483047480620155 Channel: 9 
Note on, F#2 key =  42;WhichDrum: C1 ; velocity: 0
@85020 , @4.483047480620155 Channel: 9 
Note on, C2 key =  36;WhichDrum: B ; velocity: 127
@85020 , @4.483047480620155 Channel: 9 
Note on, F#2 key =  42;WhichDrum: C1 ; velocity: 127
@85080 , @4.486211240310078 Channel: 9 
Note on, C2 key =  36;WhichDrum: B ; velocity: 0
@85080 , @4.486211240310078 Channel: 9 
Note on, F#2 key =  42;WhichDrum: C1 ; velocity: 0
@85080 , @4.486211240310078 Channel: 9 
Note on, D2 key =  38;WhichDrum: T2 ; velocity: 127
@85080 , @4.486211240310078 Channel: 9 
Note on, F#2 key =  42;WhichDrum: C1 ; velocity: 127
@85140 , @4.489375 Channel: 9 
Note on, D2 key =  38;WhichDrum: T2 ; velocity: 0
@85140 , @4.489375 Channel: 9 
Note on, F#2 key =  42;WhichDrum: C1 ; velocity: 0
@85140 , @4.489375 Channel: 9 
Note on, F#2 key =  42;WhichDrum: C1 ; velocity: 127
@85200 , @4.492538759689922 Channel: 9 
Note on, F#2 key =  42;WhichDrum: C1 ; velocity: 0
@85200 , @4.492538759689922 Channel: 9 
Note on, C2 key =  36;WhichDrum: B ; velocity: 127
@85200 , @4.492538759689922 Channel: 9 
Note on, F#2 key =  42;WhichDrum: C1 ; velocity: 127
@85260 , @4.495702519379845 Channel: 9 
Note on, C2 key =  36;WhichDrum: B ; velocity: 0
@85260 , @4.495702519379845 Channel: 9 
Note on, F#2 key =  42;WhichDrum: C1 ; velocity: 0
@85260 , @4.495702519379845 Channel: 9 
Note on, C2 key =  36;WhichDrum: B ; velocity: 127
@85260 , @4.495702519379845 Channel: 9 
Note on, F#2 key =  42;WhichDrum: C1 ; velocity: 127
@85280 , @4.496757105943153 Channel: 9 
Note on, C2 key =  36;WhichDrum: B ; velocity: 0
@85280 , @4.496757105943153 Channel: 9 
Note on, C2 key =  36;WhichDrum: B ; velocity: 127
@85300 , @4.497811692506461 Channel: 9 
Note on, C2 key =  36;WhichDrum: B ; velocity: 0
@85300 , @4.497811692506461 Channel: 9 
Note on, C2 key =  36;WhichDrum: B ; velocity: 127
@85320 , @4.498866279069768 Channel: 9 
Note on, F#2 key =  42;WhichDrum: C1 ; velocity: 0
@85320 , @4.498866279069768 Channel: 9 
Note on, C2 key =  36;WhichDrum: B ; velocity: 0
@85320 , @4.498866279069768 Channel: 9 
Note on, D2 key =  38;WhichDrum: T2 ; velocity: 127
@85320 , @4.498866279069768 Channel: 9 
Note on, F#2 key =  42;WhichDrum: C1 ; velocity: 127
@85380 , @4.50203003875969 Channel: 9 
Note on, D2 key =  38;WhichDrum: T2 ; velocity: 0
@85380 , @4.50203003875969 Channel: 9 
Note on, F#2 key =  42;WhichDrum: C1 ; velocity: 0
@85380 , @4.50203003875969 Channel: 9 
Note on, C2 key =  36;WhichDrum: B ; velocity: 127
@85380 , @4.50203003875969 Channel: 9 
Note on, A3 key =  57;WhichDrum: T3 ; velocity: 127
@85440 , @4.505193798449612 Channel: 9 
Note on, C2 key =  36;WhichDrum: B ; velocity: 0
@85440 , @4.505193798449612 Channel: 9 
Note on, A3 key =  57;WhichDrum: T3 ; velocity: 0
@85440 , @4.505193798449612 Channel: 9 
Note on, C2 key =  36;WhichDrum: B ; velocity: 127
@85440 , @4.505193798449612 Channel: 9 
Note on, A3 key =  57;WhichDrum: T3 ; velocity: 127
@85560 , @4.511521317829458 Channel: 9 
Note on, C2 key =  36;WhichDrum: B ; velocity: 0
@85560 , @4.511521317829458 Channel: 9 
Note on, A3 key =  57;WhichDrum: T3 ; velocity: 0
@85560 , @4.511521317829458 Channel: 9 
Note on, D2 key =  38;WhichDrum: T2 ; velocity: 127
@85560 , @4.511521317829458 Channel: 9 
Note on, F#2 key =  42;WhichDrum: C1 ; velocity: 127
@85620 , @4.51468507751938 Channel: 9 
Note on, D2 key =  38;WhichDrum: T2 ; velocity: 0
@85620 , @4.51468507751938 Channel: 9 
Note on, F#2 key =  42;WhichDrum: C1 ; velocity: 0
@85620 , @4.51468507751938 Channel: 9 
Note on, F#2 key =  42;WhichDrum: C1 ; velocity: 127
@85680 , @4.517848837209303 Channel: 9 
Note on, F#2 key =  42;WhichDrum: C1 ; velocity: 0
@85680 , @4.517848837209303 Channel: 9 
Note on, F#2 key =  42;WhichDrum: C1 ; velocity: 127
@85740 , @4.521012596899225 Channel: 9 
Note on, F#2 key =  42;WhichDrum: C1 ; velocity: 0
@85740 , @4.521012596899225 Channel: 9 
Note on, C2 key =  36;WhichDrum: B ; velocity: 127
@85740 , @4.521012596899225 Channel: 9 
Note on, F#2 key =  42;WhichDrum: C1 ; velocity: 127
@85800 , @4.524176356589147 Channel: 9 
Note on, C2 key =  36;WhichDrum: B ; velocity: 0
@85800 , @4.524176356589147 Channel: 9 
Note on, F#2 key =  42;WhichDrum: C1 ; velocity: 0
@85800 , @4.524176356589147 Channel: 9 
Note on, D2 key =  38;WhichDrum: T2 ; velocity: 127
@85800 , @4.524176356589147 Channel: 9 
Note on, F#2 key =  42;WhichDrum: C1 ; velocity: 127
@85860 , @4.52734011627907 Channel: 9 
Note on, D2 key =  38;WhichDrum: T2 ; velocity: 0
@85860 , @4.52734011627907 Channel: 9 
Note on, F#2 key =  42;WhichDrum: C1 ; velocity: 0
@85860 , @4.52734011627907 Channel: 9 
Note on, C2 key =  36;WhichDrum: B ; velocity: 127
@85860 , @4.52734011627907 Channel: 9 
Note on, F#2 key =  42;WhichDrum: C1 ; velocity: 127
@85920 , @4.530503875968993 Channel: 9 
Note on, C2 key =  36;WhichDrum: B ; velocity: 0
@85920 , @4.530503875968993 Channel: 9 
Note on, F#2 key =  42;WhichDrum: C1 ; velocity: 0
@85920 , @4.530503875968993 Channel: 9 
Note on, F#2 key =  42;WhichDrum: C1 ; velocity: 127
@85980 , @4.533667635658915 Channel: 9 
Note on, F#2 key =  42;WhichDrum: C1 ; velocity: 0
@85980 , @4.533667635658915 Channel: 9 
Note on, C2 key =  36;WhichDrum: B ; velocity: 127
@85980 , @4.533667635658915 Channel: 9 
Note on, F#2 key =  42;WhichDrum: C1 ; velocity: 127
@86040 , @4.5368313953488375 Channel: 9 
Note on, C2 key =  36;WhichDrum: B ; velocity: 0
@86040 , @4.5368313953488375 Channel: 9 
Note on, F#2 key =  42;WhichDrum: C1 ; velocity: 0
@86040 , @4.5368313953488375 Channel: 9 
Note on, D2 key =  38;WhichDrum: T2 ; velocity: 127
@86040 , @4.5368313953488375 Channel: 9 
Note on, F#2 key =  42;WhichDrum: C1 ; velocity: 127
@86100 , @4.53999515503876 Channel: 9 
Note on, D2 key =  38;WhichDrum: T2 ; velocity: 0
@86100 , @4.53999515503876 Channel: 9 
Note on, F#2 key =  42;WhichDrum: C1 ; velocity: 0
@86100 , @4.53999515503876 Channel: 9 
Note on, F#2 key =  42;WhichDrum: C1 ; velocity: 127
@86160 , @4.543158914728682 Channel: 9 
Note on, F#2 key =  42;WhichDrum: C1 ; velocity: 0
@86160 , @4.543158914728682 Channel: 9 
Note on, C2 key =  36;WhichDrum: B ; velocity: 127
@86160 , @4.543158914728682 Channel: 9 
Note on, F#2 key =  42;WhichDrum: C1 ; velocity: 127
@86220 , @4.5463226744186045 Channel: 9 
Note on, C2 key =  36;WhichDrum: B ; velocity: 0
@86220 , @4.5463226744186045 Channel: 9 
Note on, F#2 key =  42;WhichDrum: C1 ; velocity: 0
@86220 , @4.5463226744186045 Channel: 9 
Note on, C2 key =  36;WhichDrum: B ; velocity: 127
@86220 , @4.5463226744186045 Channel: 9 
Note on, F#2 key =  42;WhichDrum: C1 ; velocity: 127
@86240 , @4.5473772609819125 Channel: 9 
Note on, C2 key =  36;WhichDrum: B ; velocity: 0
@86240 , @4.5473772609819125 Channel: 9 
Note on, C2 key =  36;WhichDrum: B ; velocity: 127
@86260 , @4.548431847545221 Channel: 9 
Note on, C2 key =  36;WhichDrum: B ; velocity: 0
@86260 , @4.548431847545221 Channel: 9 
Note on, C2 key =  36;WhichDrum: B ; velocity: 127
@86280 , @4.549486434108528 Channel: 9 
Note on, F#2 key =  42;WhichDrum: C1 ; velocity: 0
@86280 , @4.549486434108528 Channel: 9 
Note on, C2 key =  36;WhichDrum: B ; velocity: 0
@86280 , @4.549486434108528 Channel: 9 
Note on, D2 key =  38;WhichDrum: T2 ; velocity: 127
@86280 , @4.549486434108528 Channel: 9 
Note on, F#2 key =  42;WhichDrum: C1 ; velocity: 127
@86340 , @4.55265019379845 Channel: 9 
Note on, D2 key =  38;WhichDrum: T2 ; velocity: 0
@86340 , @4.55265019379845 Channel: 9 
Note on, F#2 key =  42;WhichDrum: C1 ; velocity: 0
@86340 , @4.55265019379845 Channel: 9 
Note on, C2 key =  36;WhichDrum: B ; velocity: 127
@86340 , @4.55265019379845 Channel: 9 
Note on, A3 key =  57;WhichDrum: T3 ; velocity: 127
@86400 , @4.555813953488372 Channel: 9 
Note on, C2 key =  36;WhichDrum: B ; velocity: 0
@86400 , @4.555813953488372 Channel: 9 
Note on, A3 key =  57;WhichDrum: T3 ; velocity: 0
@86400 , @4.555813953488372 Channel: 9 
Note on, C2 key =  36;WhichDrum: B ; velocity: 127
@86400 , @4.555813953488372 Channel: 9 
Note on, A3 key =  57;WhichDrum: T3 ; velocity: 127
@86520 , @4.562141472868217 Channel: 9 
Note on, C2 key =  36;WhichDrum: B ; velocity: 0
@86520 , @4.562141472868217 Channel: 9 
Note on, A3 key =  57;WhichDrum: T3 ; velocity: 0
@86700 , @4.571632751937985 Channel: 9 
Note on, C2 key =  36;WhichDrum: B ; velocity: 127
@86760 , @4.574796511627907 Channel: 9 
Note on, C2 key =  36;WhichDrum: B ; velocity: 0
@86760 , @4.574796511627907 Channel: 9 
Note on, A3 key =  57;WhichDrum: T3 ; velocity: 127
@86760 , @4.574796511627907 Channel: 9 
Note on, D2 key =  38;WhichDrum: T2 ; velocity: 127
@86880 , @4.581124031007752 Channel: 9 
Note on, A3 key =  57;WhichDrum: T3 ; velocity: 0
@86880 , @4.581124031007752 Channel: 9 
Note on, D2 key =  38;WhichDrum: T2 ; velocity: 0
@86880 , @4.581124031007752 Channel: 9 
Note on, A3 key =  57;WhichDrum: T3 ; velocity: 127
@86880 , @4.581124031007752 Channel: 9 
Note on, C2 key =  36;WhichDrum: B ; velocity: 127
@87000 , @4.587451550387597 Channel: 9 
Note on, A3 key =  57;WhichDrum: T3 ; velocity: 0
@87000 , @4.587451550387597 Channel: 9 
Note on, C2 key =  36;WhichDrum: B ; velocity: 0
@87000 , @4.587451550387597 Channel: 9 
Note on, D2 key =  38;WhichDrum: T2 ; velocity: 127
@87000 , @4.587451550387597 Channel: 9 
Note on, F#2 key =  42;WhichDrum: C1 ; velocity: 127
@87060 , @4.59061531007752 Channel: 9 
Note on, D2 key =  38;WhichDrum: T2 ; velocity: 0
@87060 , @4.59061531007752 Channel: 9 
Note on, F#2 key =  42;WhichDrum: C1 ; velocity: 0
@87060 , @4.59061531007752 Channel: 9 
Note on, F#2 key =  42;WhichDrum: C1 ; velocity: 127
@87120 , @4.593779069767442 Channel: 9 
Note on, F#2 key =  42;WhichDrum: C1 ; velocity: 0
@87120 , @4.593779069767442 Channel: 9 
Note on, C2 key =  36;WhichDrum: B ; velocity: 127
@87120 , @4.593779069767442 Channel: 9 
Note on, F#2 key =  42;WhichDrum: C1 ; velocity: 127
@87180 , @4.596942829457364 Channel: 9 
Note on, C2 key =  36;WhichDrum: B ; velocity: 0
@87180 , @4.596942829457364 Channel: 9 
Note on, F#2 key =  42;WhichDrum: C1 ; velocity: 0
@87180 , @4.596942829457364 Channel: 9 
Note on, C2 key =  36;WhichDrum: B ; velocity: 127
@87180 , @4.596942829457364 Channel: 9 
Note on, F#2 key =  42;WhichDrum: C1 ; velocity: 127
@87200 , @4.597997416020672 Channel: 9 
Note on, C2 key =  36;WhichDrum: B ; velocity: 0
@87200 , @4.597997416020672 Channel: 9 
Note on, C2 key =  36;WhichDrum: B ; velocity: 127
@87220 , @4.59905200258398 Channel: 9 
Note on, C2 key =  36;WhichDrum: B ; velocity: 0
@87220 , @4.59905200258398 Channel: 9 
Note on, C2 key =  36;WhichDrum: B ; velocity: 127
@87240 , @4.600106589147287 Channel: 9 
Note on, F#2 key =  42;WhichDrum: C1 ; velocity: 0
@87240 , @4.600106589147287 Channel: 9 
Note on, C2 key =  36;WhichDrum: B ; velocity: 0
@87240 , @4.600106589147287 Channel: 9 
Note on, D2 key =  38;WhichDrum: T2 ; velocity: 127
@87240 , @4.600106589147287 Channel: 9 
Note on, F#2 key =  42;WhichDrum: C1 ; velocity: 127
@87300 , @4.60327034883721 Channel: 9 
Note on, D2 key =  38;WhichDrum: T2 ; velocity: 0
@87300 , @4.60327034883721 Channel: 9 
Note on, F#2 key =  42;WhichDrum: C1 ; velocity: 0
@87300 , @4.60327034883721 Channel: 9 
Note on, C2 key =  36;WhichDrum: B ; velocity: 127
@87300 , @4.60327034883721 Channel: 9 
Note on, A3 key =  57;WhichDrum: T3 ; velocity: 127
@87360 , @4.606434108527132 Channel: 9 
Note on, C2 key =  36;WhichDrum: B ; velocity: 0
@87360 , @4.606434108527132 Channel: 9 
Note on, A3 key =  57;WhichDrum: T3 ; velocity: 0
@87360 , @4.606434108527132 Channel: 9 
Note on, C2 key =  36;WhichDrum: B ; velocity: 127
@87360 , @4.606434108527132 Channel: 9 
Note on, F#2 key =  42;WhichDrum: C1 ; velocity: 127
@87420 , @4.609597868217055 Channel: 9 
Note on, F#2 key =  42;WhichDrum: C1 ; velocity: 0
@87420 , @4.609597868217055 Channel: 9 
Note on, F#2 key =  42;WhichDrum: C1 ; velocity: 127
@87480 , @4.612761627906977 Channel: 9 
Note on, C2 key =  36;WhichDrum: B ; velocity: 0
@87480 , @4.612761627906977 Channel: 9 
Note on, F#2 key =  42;WhichDrum: C1 ; velocity: 0
@87480 , @4.612761627906977 Channel: 9 
Note on, D2 key =  38;WhichDrum: T2 ; velocity: 127
@87480 , @4.612761627906977 Channel: 9 
Note on, F#2 key =  42;WhichDrum: C1 ; velocity: 127
@87540 , @4.615925387596899 Channel: 9 
Note on, D2 key =  38;WhichDrum: T2 ; velocity: 0
@87540 , @4.615925387596899 Channel: 9 
Note on, F#2 key =  42;WhichDrum: C1 ; velocity: 0
@87540 , @4.615925387596899 Channel: 9 
Note on, F#2 key =  42;WhichDrum: C1 ; velocity: 127
@87600 , @4.6190891472868225 Channel: 9 
Note on, F#2 key =  42;WhichDrum: C1 ; velocity: 0
@87600 , @4.6190891472868225 Channel: 9 
Note on, C2 key =  36;WhichDrum: B ; velocity: 127
@87600 , @4.6190891472868225 Channel: 9 
Note on, F#2 key =  42;WhichDrum: C1 ; velocity: 127
@87660 , @4.622252906976745 Channel: 9 
Note on, C2 key =  36;WhichDrum: B ; velocity: 0
@87660 , @4.622252906976745 Channel: 9 
Note on, F#2 key =  42;WhichDrum: C1 ; velocity: 0
@87660 , @4.622252906976745 Channel: 9 
Note on, C2 key =  36;WhichDrum: B ; velocity: 127
@87660 , @4.622252906976745 Channel: 9 
Note on, F#2 key =  42;WhichDrum: C1 ; velocity: 127
@87680 , @4.623307493540052 Channel: 9 
Note on, C2 key =  36;WhichDrum: B ; velocity: 0
@87680 , @4.623307493540052 Channel: 9 
Note on, C2 key =  36;WhichDrum: B ; velocity: 127
@87700 , @4.624362080103359 Channel: 9 
Note on, C2 key =  36;WhichDrum: B ; velocity: 0
@87700 , @4.624362080103359 Channel: 9 
Note on, C2 key =  36;WhichDrum: B ; velocity: 127
@87720 , @4.625416666666667 Channel: 9 
Note on, F#2 key =  42;WhichDrum: C1 ; velocity: 0
@87720 , @4.625416666666667 Channel: 9 
Note on, C2 key =  36;WhichDrum: B ; velocity: 0
@87720 , @4.625416666666667 Channel: 9 
Note on, D2 key =  38;WhichDrum: T2 ; velocity: 127
@87720 , @4.625416666666667 Channel: 9 
Note on, F#2 key =  42;WhichDrum: C1 ; velocity: 127
@87780 , @4.6285804263565895 Channel: 9 
Note on, D2 key =  38;WhichDrum: T2 ; velocity: 0
@87780 , @4.6285804263565895 Channel: 9 
Note on, F#2 key =  42;WhichDrum: C1 ; velocity: 0
@87780 , @4.6285804263565895 Channel: 9 
Note on, F#2 key =  42;WhichDrum: C1 ; velocity: 127
@87780 , @4.6285804263565895 Channel: 9 
Note on, C2 key =  36;WhichDrum: B ; velocity: 127
@87840 , @4.631744186046512 Channel: 9 
Note on, F#2 key =  42;WhichDrum: C1 ; velocity: 0
@87840 , @4.631744186046512 Channel: 9 
Note on, C2 key =  36;WhichDrum: B ; velocity: 0
@87840 , @4.631744186046512 Channel: 9 
Note on, C2 key =  36;WhichDrum: B ; velocity: 127
@87840 , @4.631744186046512 Channel: 9 
Note on, F#2 key =  42;WhichDrum: C1 ; velocity: 127
@87900 , @4.634907945736434 Channel: 9 
Note on, F#2 key =  42;WhichDrum: C1 ; velocity: 0
@87900 , @4.634907945736434 Channel: 9 
Note on, F#2 key =  42;WhichDrum: C1 ; velocity: 127
@87960 , @4.638071705426357 Channel: 9 
Note on, C2 key =  36;WhichDrum: B ; velocity: 0
@87960 , @4.638071705426357 Channel: 9 
Note on, F#2 key =  42;WhichDrum: C1 ; velocity: 0
@87960 , @4.638071705426357 Channel: 9 
Note on, D2 key =  38;WhichDrum: T2 ; velocity: 127
@87960 , @4.638071705426357 Channel: 9 
Note on, F#2 key =  42;WhichDrum: C1 ; velocity: 127
@88020 , @4.64123546511628 Channel: 9 
Note on, D2 key =  38;WhichDrum: T2 ; velocity: 0
@88020 , @4.64123546511628 Channel: 9 
Note on, F#2 key =  42;WhichDrum: C1 ; velocity: 0
@88020 , @4.64123546511628 Channel: 9 
Note on, F#2 key =  42;WhichDrum: C1 ; velocity: 127
@88080 , @4.644399224806202 Channel: 9 
Note on, F#2 key =  42;WhichDrum: C1 ; velocity: 0
@88080 , @4.644399224806202 Channel: 9 
Note on, C2 key =  36;WhichDrum: B ; velocity: 127
@88080 , @4.644399224806202 Channel: 9 
Note on, F#2 key =  42;WhichDrum: C1 ; velocity: 127
@88140 , @4.647562984496124 Channel: 9 
Note on, C2 key =  36;WhichDrum: B ; velocity: 0
@88140 , @4.647562984496124 Channel: 9 
Note on, F#2 key =  42;WhichDrum: C1 ; velocity: 0
@88140 , @4.647562984496124 Channel: 9 
Note on, C2 key =  36;WhichDrum: B ; velocity: 127
@88140 , @4.647562984496124 Channel: 9 
Note on, F#2 key =  42;WhichDrum: C1 ; velocity: 127
@88160 , @4.6486175710594315 Channel: 9 
Note on, C2 key =  36;WhichDrum: B ; velocity: 0
@88160 , @4.6486175710594315 Channel: 9 
Note on, C2 key =  36;WhichDrum: B ; velocity: 127
@88180 , @4.649672157622739 Channel: 9 
Note on, C2 key =  36;WhichDrum: B ; velocity: 0
@88180 , @4.649672157622739 Channel: 9 
Note on, C2 key =  36;WhichDrum: B ; velocity: 127
@88200 , @4.650726744186047 Channel: 9 
Note on, F#2 key =  42;WhichDrum: C1 ; velocity: 0
@88200 , @4.650726744186047 Channel: 9 
Note on, C2 key =  36;WhichDrum: B ; velocity: 0
@88200 , @4.650726744186047 Channel: 9 
Note on, D2 key =  38;WhichDrum: T2 ; velocity: 127
@88200 , @4.650726744186047 Channel: 9 
Note on, F#2 key =  42;WhichDrum: C1 ; velocity: 127
@88260 , @4.653890503875969 Channel: 9 
Note on, D2 key =  38;WhichDrum: T2 ; velocity: 0
@88260 , @4.653890503875969 Channel: 9 
Note on, F#2 key =  42;WhichDrum: C1 ; velocity: 0
@88260 , @4.653890503875969 Channel: 9 
Note on, F#2 key =  42;WhichDrum: C1 ; velocity: 127
@88315 , @4.656790616925065 Channel: 9 
Note on, D2 key =  38;WhichDrum: T2 ; velocity: 75
@88320 , @4.657054263565892 Channel: 9 
Note on, F#2 key =  42;WhichDrum: C1 ; velocity: 0
@88320 , @4.657054263565892 Channel: 9 
Note on, D2 key =  38;WhichDrum: T2 ; velocity: 0
@88320 , @4.657054263565892 Channel: 9 
Note on, D2 key =  38;WhichDrum: T2 ; velocity: 127
@88380 , @4.660218023255815 Channel: 9 
Note on, D2 key =  38;WhichDrum: T2 ; velocity: 0
@88380 , @4.660218023255815 Channel: 9 
Note on, A2 key =  45;WhichDrum: T3 ; velocity: 127
@88440 , @4.663381782945737 Channel: 9 
Note on, A2 key =  45;WhichDrum: T3 ; velocity: 0
@88440 , @4.663381782945737 Channel: 9 
Note on, B2 key =  47;WhichDrum: T1 ; velocity: 127
@88470 , @4.664963662790698 Channel: 9 
Note on, B2 key =  47;WhichDrum: T1 ; velocity: 0
@88470 , @4.664963662790698 Channel: 9 
Note on, B2 key =  47;WhichDrum: T1 ; velocity: 127
@88500 , @4.666545542635659 Channel: 9 
Note on, B2 key =  47;WhichDrum: T1 ; velocity: 0
@88500 , @4.666545542635659 Channel: 9 
Note on, B2 key =  47;WhichDrum: T1 ; velocity: 127
@88560 , @4.669709302325582 Channel: 9 
Note on, B2 key =  47;WhichDrum: T1 ; velocity: 0
@88560 , @4.669709302325582 Channel: 9 
Note on, C3 key =  48;WhichDrum: B ; velocity: 127
@88580 , @4.670763888888889 Channel: 9 
Note on, C3 key =  48;WhichDrum: B ; velocity: 0
@88580 , @4.670763888888889 Channel: 9 
Note on, B2 key =  47;WhichDrum: T1 ; velocity: 127
@88600 , @4.671818475452197 Channel: 9 
Note on, B2 key =  47;WhichDrum: T1 ; velocity: 0
@88600 , @4.671818475452197 Channel: 9 
Note on, B2 key =  47;WhichDrum: T1 ; velocity: 127
@88620 , @4.672873062015505 Channel: 9 
Note on, B2 key =  47;WhichDrum: T1 ; velocity: 0
@88620 , @4.672873062015505 Channel: 9 
Note on, B2 key =  47;WhichDrum: T1 ; velocity: 127
@88680 , @4.676036821705427 Channel: 9 
Note on, B2 key =  47;WhichDrum: T1 ; velocity: 0
@88680 , @4.676036821705427 Channel: 9 
Note on, G2 key =  43;WhichDrum: C2 ; velocity: 127
@88680 , @4.676036821705427 Channel: 9 
Note on, C3 key =  48;WhichDrum: B ; velocity: 127
@88740 , @4.6792005813953494 Channel: 9 
Note on, G2 key =  43;WhichDrum: C2 ; velocity: 0
@88740 , @4.6792005813953494 Channel: 9 
Note on, C3 key =  48;WhichDrum: B ; velocity: 0
@88740 , @4.6792005813953494 Channel: 9 
Note on, G2 key =  43;WhichDrum: C2 ; velocity: 127
@88800 , @4.682364341085272 Channel: 9 
Note on, G2 key =  43;WhichDrum: C2 ; velocity: 0
@88800 , @4.682364341085272 Channel: 9 
Note on, A3 key =  57;WhichDrum: T3 ; velocity: 127
@88800 , @4.682364341085272 Channel: 9 
Note on, C2 key =  36;WhichDrum: B ; velocity: 127
@88920 , @4.688691860465116 Channel: 9 
Note on, A3 key =  57;WhichDrum: T3 ; velocity: 0
@88920 , @4.688691860465116 Channel: 9 
Note on, C2 key =  36;WhichDrum: B ; velocity: 0
@88920 , @4.688691860465116 Channel: 9 
Note on, D2 key =  38;WhichDrum: T2 ; velocity: 127
@88920 , @4.688691860465116 Channel: 9 
Note on, F#2 key =  42;WhichDrum: C1 ; velocity: 127
@88980 , @4.69185562015504 Channel: 9 
Note on, D2 key =  38;WhichDrum: T2 ; velocity: 0
@88980 , @4.69185562015504 Channel: 9 
Note on, F#2 key =  42;WhichDrum: C1 ; velocity: 0
@88980 , @4.69185562015504 Channel: 9 
Note on, F#2 key =  42;WhichDrum: C1 ; velocity: 127
@89040 , @4.695019379844961 Channel: 9 
Note on, F#2 key =  42;WhichDrum: C1 ; velocity: 0
@89040 , @4.695019379844961 Channel: 9 
Note on, C2 key =  36;WhichDrum: B ; velocity: 127
@89040 , @4.695019379844961 Channel: 9 
Note on, F#2 key =  42;WhichDrum: C1 ; velocity: 127
@89100 , @4.698183139534883 Channel: 9 
Note on, C2 key =  36;WhichDrum: B ; velocity: 0
@89100 , @4.698183139534883 Channel: 9 
Note on, F#2 key =  42;WhichDrum: C1 ; velocity: 0
@89100 , @4.698183139534883 Channel: 9 
Note on, C2 key =  36;WhichDrum: B ; velocity: 127
@89100 , @4.698183139534883 Channel: 9 
Note on, F#2 key =  42;WhichDrum: C1 ; velocity: 127
@89120 , @4.6992377260981915 Channel: 9 
Note on, C2 key =  36;WhichDrum: B ; velocity: 0
@89120 , @4.6992377260981915 Channel: 9 
Note on, C2 key =  36;WhichDrum: B ; velocity: 127
@89140 , @4.700292312661499 Channel: 9 
Note on, C2 key =  36;WhichDrum: B ; velocity: 0
@89140 , @4.700292312661499 Channel: 9 
Note on, C2 key =  36;WhichDrum: B ; velocity: 127
@89160 , @4.701346899224806 Channel: 9 
Note on, F#2 key =  42;WhichDrum: C1 ; velocity: 0
@89160 , @4.701346899224806 Channel: 9 
Note on, C2 key =  36;WhichDrum: B ; velocity: 0
@89160 , @4.701346899224806 Channel: 9 
Note on, D2 key =  38;WhichDrum: T2 ; velocity: 127
@89160 , @4.701346899224806 Channel: 9 
Note on, F#2 key =  42;WhichDrum: C1 ; velocity: 127
@89220 , @4.704510658914728 Channel: 9 
Note on, D2 key =  38;WhichDrum: T2 ; velocity: 0
@89220 , @4.704510658914728 Channel: 9 
Note on, F#2 key =  42;WhichDrum: C1 ; velocity: 0
@89220 , @4.704510658914728 Channel: 9 
Note on, F#2 key =  42;WhichDrum: C1 ; velocity: 127
@89220 , @4.704510658914728 Channel: 9 
Note on, C2 key =  36;WhichDrum: B ; velocity: 127
@89280 , @4.707674418604651 Channel: 9 
Note on, F#2 key =  42;WhichDrum: C1 ; velocity: 0
@89280 , @4.707674418604651 Channel: 9 
Note on, C2 key =  36;WhichDrum: B ; velocity: 0
@89280 , @4.707674418604651 Channel: 9 
Note on, C2 key =  36;WhichDrum: B ; velocity: 127
@89280 , @4.707674418604651 Channel: 9 
Note on, F#2 key =  42;WhichDrum: C1 ; velocity: 127
@89340 , @4.710838178294574 Channel: 9 
Note on, F#2 key =  42;WhichDrum: C1 ; velocity: 0
@89340 , @4.710838178294574 Channel: 9 
Note on, F#2 key =  42;WhichDrum: C1 ; velocity: 127
@89400 , @4.714001937984496 Channel: 9 
Note on, C2 key =  36;WhichDrum: B ; velocity: 0
@89400 , @4.714001937984496 Channel: 9 
Note on, F#2 key =  42;WhichDrum: C1 ; velocity: 0
@89400 , @4.714001937984496 Channel: 9 
Note on, D2 key =  38;WhichDrum: T2 ; velocity: 127
@89400 , @4.714001937984496 Channel: 9 
Note on, F#2 key =  42;WhichDrum: C1 ; velocity: 127
@89460 , @4.717165697674418 Channel: 9 
Note on, D2 key =  38;WhichDrum: T2 ; velocity: 0
@89460 , @4.717165697674418 Channel: 9 
Note on, F#2 key =  42;WhichDrum: C1 ; velocity: 0
@89460 , @4.717165697674418 Channel: 9 
Note on, F#2 key =  42;WhichDrum: C1 ; velocity: 127
@89520 , @4.720329457364341 Channel: 9 
Note on, F#2 key =  42;WhichDrum: C1 ; velocity: 0
@89520 , @4.720329457364341 Channel: 9 
Note on, C2 key =  36;WhichDrum: B ; velocity: 127
@89520 , @4.720329457364341 Channel: 9 
Note on, F#2 key =  42;WhichDrum: C1 ; velocity: 127
@89580 , @4.723493217054264 Channel: 9 
Note on, C2 key =  36;WhichDrum: B ; velocity: 0
@89580 , @4.723493217054264 Channel: 9 
Note on, F#2 key =  42;WhichDrum: C1 ; velocity: 0
@89580 , @4.723493217054264 Channel: 9 
Note on, C2 key =  36;WhichDrum: B ; velocity: 127
@89580 , @4.723493217054264 Channel: 9 
Note on, F#2 key =  42;WhichDrum: C1 ; velocity: 127
@89600 , @4.724547803617571 Channel: 9 
Note on, C2 key =  36;WhichDrum: B ; velocity: 0
@89600 , @4.724547803617571 Channel: 9 
Note on, C2 key =  36;WhichDrum: B ; velocity: 127
@89620 , @4.725602390180879 Channel: 9 
Note on, C2 key =  36;WhichDrum: B ; velocity: 0
@89620 , @4.725602390180879 Channel: 9 
Note on, C2 key =  36;WhichDrum: B ; velocity: 127
@89640 , @4.726656976744186 Channel: 9 
Note on, F#2 key =  42;WhichDrum: C1 ; velocity: 0
@89640 , @4.726656976744186 Channel: 9 
Note on, C2 key =  36;WhichDrum: B ; velocity: 0
@89640 , @4.726656976744186 Channel: 9 
Note on, D2 key =  38;WhichDrum: T2 ; velocity: 127
@89640 , @4.726656976744186 Channel: 9 
Note on, F#2 key =  42;WhichDrum: C1 ; velocity: 127
@89700 , @4.7298207364341085 Channel: 9 
Note on, D2 key =  38;WhichDrum: T2 ; velocity: 0
@89700 , @4.7298207364341085 Channel: 9 
Note on, F#2 key =  42;WhichDrum: C1 ; velocity: 0
@89700 , @4.7298207364341085 Channel: 9 
Note on, F#2 key =  42;WhichDrum: C1 ; velocity: 127
@89700 , @4.7298207364341085 Channel: 9 
Note on, C2 key =  36;WhichDrum: B ; velocity: 127
@89760 , @4.732984496124031 Channel: 9 
Note on, F#2 key =  42;WhichDrum: C1 ; velocity: 0
@89760 , @4.732984496124031 Channel: 9 
Note on, C2 key =  36;WhichDrum: B ; velocity: 0
@89760 , @4.732984496124031 Channel: 9 
Note on, C2 key =  36;WhichDrum: B ; velocity: 127
@89760 , @4.732984496124031 Channel: 9 
Note on, F#2 key =  42;WhichDrum: C1 ; velocity: 127
@89820 , @4.736148255813953 Channel: 9 
Note on, F#2 key =  42;WhichDrum: C1 ; velocity: 0
@89820 , @4.736148255813953 Channel: 9 
Note on, F#2 key =  42;WhichDrum: C1 ; velocity: 127
@89880 , @4.7393120155038755 Channel: 9 
Note on, C2 key =  36;WhichDrum: B ; velocity: 0
@89880 , @4.7393120155038755 Channel: 9 
Note on, F#2 key =  42;WhichDrum: C1 ; velocity: 0
@89880 , @4.7393120155038755 Channel: 9 
Note on, A3 key =  57;WhichDrum: T3 ; velocity: 127
@89880 , @4.7393120155038755 Channel: 9 
Note on, D2 key =  38;WhichDrum: T2 ; velocity: 127
@89940 , @4.742475775193799 Channel: 9 
Note on, A3 key =  57;WhichDrum: T3 ; velocity: 0
@89940 , @4.742475775193799 Channel: 9 
Note on, D2 key =  38;WhichDrum: T2 ; velocity: 0
@89940 , @4.742475775193799 Channel: 9 
Note on, F#2 key =  42;WhichDrum: C1 ; velocity: 127
@90000 , @4.745639534883721 Channel: 9 
Note on, F#2 key =  42;WhichDrum: C1 ; velocity: 0
@90000 , @4.745639534883721 Channel: 9 
Note on, C2 key =  36;WhichDrum: B ; velocity: 127
@90000 , @4.745639534883721 Channel: 9 
Note on, F#2 key =  42;WhichDrum: C1 ; velocity: 127
@90060 , @4.748803294573643 Channel: 9 
Note on, C2 key =  36;WhichDrum: B ; velocity: 0
@90060 , @4.748803294573643 Channel: 9 
Note on, F#2 key =  42;WhichDrum: C1 ; velocity: 0
@90060 , @4.748803294573643 Channel: 9 
Note on, C2 key =  36;WhichDrum: B ; velocity: 127
@90060 , @4.748803294573643 Channel: 9 
Note on, F#2 key =  42;WhichDrum: C1 ; velocity: 127
@90080 , @4.749857881136951 Channel: 9 
Note on, C2 key =  36;WhichDrum: B ; velocity: 0
@90080 , @4.749857881136951 Channel: 9 
Note on, C2 key =  36;WhichDrum: B ; velocity: 127
@90100 , @4.7509124677002585 Channel: 9 
Note on, C2 key =  36;WhichDrum: B ; velocity: 0
@90100 , @4.7509124677002585 Channel: 9 
Note on, C2 key =  36;WhichDrum: B ; velocity: 127
@90120 , @4.751967054263566 Channel: 9 
Note on, F#2 key =  42;WhichDrum: C1 ; velocity: 0
@90120 , @4.751967054263566 Channel: 9 
Note on, C2 key =  36;WhichDrum: B ; velocity: 0
@90120 , @4.751967054263566 Channel: 9 
Note on, A3 key =  57;WhichDrum: T3 ; velocity: 127
@90120 , @4.751967054263566 Channel: 9 
Note on, D2 key =  38;WhichDrum: T2 ; velocity: 127
@90180 , @4.755130813953488 Channel: 9 
Note on, A3 key =  57;WhichDrum: T3 ; velocity: 0
@90180 , @4.755130813953488 Channel: 9 
Note on, D2 key =  38;WhichDrum: T2 ; velocity: 0
@90180 , @4.755130813953488 Channel: 9 
Note on, F#2 key =  42;WhichDrum: C1 ; velocity: 127
@90240 , @4.75829457364341 Channel: 9 
Note on, F#2 key =  42;WhichDrum: C1 ; velocity: 0
@90240 , @4.75829457364341 Channel: 9 
Note on, C2 key =  36;WhichDrum: B ; velocity: 127
@90240 , @4.75829457364341 Channel: 9 
Note on, F#2 key =  42;WhichDrum: C1 ; velocity: 127
@90300 , @4.761458333333334 Channel: 9 
Note on, C2 key =  36;WhichDrum: B ; velocity: 0
@90300 , @4.761458333333334 Channel: 9 
Note on, F#2 key =  42;WhichDrum: C1 ; velocity: 0
@90300 , @4.761458333333334 Channel: 9 
Note on, C2 key =  36;WhichDrum: B ; velocity: 127
@90300 , @4.761458333333334 Channel: 9 
Note on, F#2 key =  42;WhichDrum: C1 ; velocity: 127
@90330 , @4.763040213178295 Channel: 9 
Note on, C2 key =  36;WhichDrum: B ; velocity: 0
@90330 , @4.763040213178295 Channel: 9 
Note on, C2 key =  36;WhichDrum: B ; velocity: 127
@90360 , @4.764622093023256 Channel: 9 
Note on, F#2 key =  42;WhichDrum: C1 ; velocity: 0
@90360 , @4.764622093023256 Channel: 9 
Note on, C2 key =  36;WhichDrum: B ; velocity: 0
@90360 , @4.764622093023256 Channel: 9 
Note on, D2 key =  38;WhichDrum: T2 ; velocity: 127
@90360 , @4.764622093023256 Channel: 9 
Note on, A3 key =  57;WhichDrum: T3 ; velocity: 127
@90420 , @4.767785852713178 Channel: 9 
Note on, D2 key =  38;WhichDrum: T2 ; velocity: 0
@90420 , @4.767785852713178 Channel: 9 
Note on, A3 key =  57;WhichDrum: T3 ; velocity: 0
@90420 , @4.767785852713178 Channel: 9 
Note on, D2 key =  38;WhichDrum: T2 ; velocity: 127
@90450 , @4.76936773255814 Channel: 9 
Note on, D2 key =  38;WhichDrum: T2 ; velocity: 0
@90450 , @4.76936773255814 Channel: 9 
Note on, D2 key =  38;WhichDrum: T2 ; velocity: 127
@90480 , @4.770949612403101 Channel: 9 
Note on, D2 key =  38;WhichDrum: T2 ; velocity: 0
@90480 , @4.770949612403101 Channel: 9 
Note on, F#2 key =  42;WhichDrum: C1 ; velocity: 127
@90540 , @4.774113372093023 Channel: 9 
Note on, F#2 key =  42;WhichDrum: C1 ; velocity: 0
@90540 , @4.774113372093023 Channel: 9 
Note on, D2 key =  38;WhichDrum: T2 ; velocity: 127
@90570 , @4.775695251937985 Channel: 9 
Note on, D2 key =  38;WhichDrum: T2 ; velocity: 0
@90570 , @4.775695251937985 Channel: 9 
Note on, D2 key =  38;WhichDrum: T2 ; velocity: 127
@90600 , @4.777277131782946 Channel: 9 
Note on, D2 key =  38;WhichDrum: T2 ; velocity: 0
@90600 , @4.777277131782946 Channel: 9 
Note on, A2 key =  45;WhichDrum: T3 ; velocity: 127
@90660 , @4.780440891472868 Channel: 9 
Note on, A2 key =  45;WhichDrum: T3 ; velocity: 0
@90660 , @4.780440891472868 Channel: 9 
Note on, A2 key =  45;WhichDrum: T3 ; velocity: 127
@90690 , @4.78202277131783 Channel: 9 
Note on, A2 key =  45;WhichDrum: T3 ; velocity: 0
@90690 , @4.78202277131783 Channel: 9 
Note on, A2 key =  45;WhichDrum: T3 ; velocity: 127
@90720 , @4.783604651162791 Channel: 9 
Note on, A2 key =  45;WhichDrum: T3 ; velocity: 0
@90720 , @4.783604651162791 Channel: 9 
Note on, C2 key =  36;WhichDrum: B ; velocity: 127
@90720 , @4.783604651162791 Channel: 9 
Note on, A3 key =  57;WhichDrum: T3 ; velocity: 127
@90780 , @4.786768410852713 Channel: 9 
Note on, A3 key =  57;WhichDrum: T3 ; velocity: 0
@90780 , @4.786768410852713 Channel: 9 
Note on, F#2 key =  42;WhichDrum: C1 ; velocity: 127
@90840 , @4.789932170542635 Channel: 9 
Note on, C2 key =  36;WhichDrum: B ; velocity: 0
@90840 , @4.789932170542635 Channel: 9 
Note on, F#2 key =  42;WhichDrum: C1 ; velocity: 0
@90840 , @4.789932170542635 Channel: 9 
Note on, D2 key =  38;WhichDrum: T2 ; velocity: 127
@90840 , @4.789932170542635 Channel: 9 
Note on, F#2 key =  42;WhichDrum: C1 ; velocity: 127
@90900 , @4.793095930232558 Channel: 9 
Note on, D2 key =  38;WhichDrum: T2 ; velocity: 0
@90900 , @4.793095930232558 Channel: 9 
Note on, F#2 key =  42;WhichDrum: C1 ; velocity: 0
@90900 , @4.793095930232558 Channel: 9 
Note on, F#2 key =  42;WhichDrum: C1 ; velocity: 127
@90960 , @4.796259689922481 Channel: 9 
Note on, F#2 key =  42;WhichDrum: C1 ; velocity: 0
@90960 , @4.796259689922481 Channel: 9 
Note on, C2 key =  36;WhichDrum: B ; velocity: 127
@90960 , @4.796259689922481 Channel: 9 
Note on, F#2 key =  42;WhichDrum: C1 ; velocity: 127
@91020 , @4.799423449612403 Channel: 9 
Note on, F#2 key =  42;WhichDrum: C1 ; velocity: 0
@91020 , @4.799423449612403 Channel: 9 
Note on, F#2 key =  42;WhichDrum: C1 ; velocity: 127
@91080 , @4.802587209302326 Channel: 9 
Note on, C2 key =  36;WhichDrum: B ; velocity: 0
@91080 , @4.802587209302326 Channel: 9 
Note on, F#2 key =  42;WhichDrum: C1 ; velocity: 0
@91080 , @4.802587209302326 Channel: 9 
Note on, D2 key =  38;WhichDrum: T2 ; velocity: 127
@91080 , @4.802587209302326 Channel: 9 
Note on, F#2 key =  42;WhichDrum: C1 ; velocity: 127
@91140 , @4.805750968992248 Channel: 9 
Note on, D2 key =  38;WhichDrum: T2 ; velocity: 0
@91140 , @4.805750968992248 Channel: 9 
Note on, F#2 key =  42;WhichDrum: C1 ; velocity: 0
@91140 , @4.805750968992248 Channel: 9 
Note on, F#2 key =  42;WhichDrum: C1 ; velocity: 127
@91200 , @4.80891472868217 Channel: 9 
Note on, F#2 key =  42;WhichDrum: C1 ; velocity: 0
@91200 , @4.80891472868217 Channel: 9 
Note on, C2 key =  36;WhichDrum: B ; velocity: 127
@91200 , @4.80891472868217 Channel: 9 
Note on, F#2 key =  42;WhichDrum: C1 ; velocity: 127
@91260 , @4.812078488372093 Channel: 9 
Note on, F#2 key =  42;WhichDrum: C1 ; velocity: 0
@91260 , @4.812078488372093 Channel: 9 
Note on, F#2 key =  42;WhichDrum: C1 ; velocity: 127
@91320 , @4.815242248062016 Channel: 9 
Note on, C2 key =  36;WhichDrum: B ; velocity: 0
@91320 , @4.815242248062016 Channel: 9 
Note on, F#2 key =  42;WhichDrum: C1 ; velocity: 0
@91320 , @4.815242248062016 Channel: 9 
Note on, F#2 key =  42;WhichDrum: C1 ; velocity: 127
@91380 , @4.818406007751938 Channel: 9 
Note on, F#2 key =  42;WhichDrum: C1 ; velocity: 0
@91380 , @4.818406007751938 Channel: 9 
Note on, D2 key =  38;WhichDrum: T2 ; velocity: 127
@91380 , @4.818406007751938 Channel: 9 
Note on, F#2 key =  42;WhichDrum: C1 ; velocity: 127
@91440 , @4.8215697674418605 Channel: 9 
Note on, D2 key =  38;WhichDrum: T2 ; velocity: 0
@91440 , @4.8215697674418605 Channel: 9 
Note on, F#2 key =  42;WhichDrum: C1 ; velocity: 0
@91440 , @4.8215697674418605 Channel: 9 
Note on, C2 key =  36;WhichDrum: B ; velocity: 127
@91440 , @4.8215697674418605 Channel: 9 
Note on, F#2 key =  42;WhichDrum: C1 ; velocity: 127
@91500 , @4.824733527131783 Channel: 9 
Note on, C2 key =  36;WhichDrum: B ; velocity: 0
@91500 , @4.824733527131783 Channel: 9 
Note on, F#2 key =  42;WhichDrum: C1 ; velocity: 0
@91500 , @4.824733527131783 Channel: 9 
Note on, C2 key =  36;WhichDrum: B ; velocity: 127
@91500 , @4.824733527131783 Channel: 9 
Note on, F#2 key =  42;WhichDrum: C1 ; velocity: 127
@91520 , @4.825788113695091 Channel: 9 
Note on, C2 key =  36;WhichDrum: B ; velocity: 0
@91520 , @4.825788113695091 Channel: 9 
Note on, C2 key =  36;WhichDrum: B ; velocity: 127
@91540 , @4.826842700258398 Channel: 9 
Note on, C2 key =  36;WhichDrum: B ; velocity: 0
@91540 , @4.826842700258398 Channel: 9 
Note on, C2 key =  36;WhichDrum: B ; velocity: 127
@91560 , @4.827897286821705 Channel: 9 
Note on, F#2 key =  42;WhichDrum: C1 ; velocity: 0
@91560 , @4.827897286821705 Channel: 9 
Note on, C2 key =  36;WhichDrum: B ; velocity: 0
@91560 , @4.827897286821705 Channel: 9 
Note on, D2 key =  38;WhichDrum: T2 ; velocity: 127
@91560 , @4.827897286821705 Channel: 9 
Note on, F#2 key =  42;WhichDrum: C1 ; velocity: 127
@91620 , @4.831061046511628 Channel: 9 
Note on, D2 key =  38;WhichDrum: T2 ; velocity: 0
@91620 , @4.831061046511628 Channel: 9 
Note on, F#2 key =  42;WhichDrum: C1 ; velocity: 0
@91620 , @4.831061046511628 Channel: 9 
Note on, C2 key =  36;WhichDrum: B ; velocity: 127
@91620 , @4.831061046511628 Channel: 9 
Note on, F#2 key =  42;WhichDrum: C1 ; velocity: 127
@91680 , @4.834224806201551 Channel: 9 
Note on, C2 key =  36;WhichDrum: B ; velocity: 0
@91680 , @4.834224806201551 Channel: 9 
Note on, F#2 key =  42;WhichDrum: C1 ; velocity: 0
@91680 , @4.834224806201551 Channel: 9 
Note on, F#2 key =  42;WhichDrum: C1 ; velocity: 127
@91680 , @4.834224806201551 Channel: 9 
Note on, C2 key =  36;WhichDrum: B ; velocity: 127
@91740 , @4.837388565891473 Channel: 9 
Note on, F#2 key =  42;WhichDrum: C1 ; velocity: 0
@91740 , @4.837388565891473 Channel: 9 
Note on, F#2 key =  42;WhichDrum: C1 ; velocity: 127
@91800 , @4.840552325581395 Channel: 9 
Note on, C2 key =  36;WhichDrum: B ; velocity: 0
@91800 , @4.840552325581395 Channel: 9 
Note on, F#2 key =  42;WhichDrum: C1 ; velocity: 0
@91800 , @4.840552325581395 Channel: 9 
Note on, F#2 key =  42;WhichDrum: C1 ; velocity: 127
@91860 , @4.843716085271318 Channel: 9 
Note on, F#2 key =  42;WhichDrum: C1 ; velocity: 0
@91860 , @4.843716085271318 Channel: 9 
Note on, D2 key =  38;WhichDrum: T2 ; velocity: 127
@91860 , @4.843716085271318 Channel: 9 
Note on, F#2 key =  42;WhichDrum: C1 ; velocity: 127
@91920 , @4.84687984496124 Channel: 9 
Note on, D2 key =  38;WhichDrum: T2 ; velocity: 0
@91920 , @4.84687984496124 Channel: 9 
Note on, F#2 key =  42;WhichDrum: C1 ; velocity: 0
@91920 , @4.84687984496124 Channel: 9 
Note on, F#2 key =  42;WhichDrum: C1 ; velocity: 127
@91920 , @4.84687984496124 Channel: 9 
Note on, C2 key =  36;WhichDrum: B ; velocity: 127
@91980 , @4.850043604651163 Channel: 9 
Note on, F#2 key =  42;WhichDrum: C1 ; velocity: 0
@91980 , @4.850043604651163 Channel: 9 
Note on, F#2 key =  42;WhichDrum: C1 ; velocity: 127
@92040 , @4.853207364341086 Channel: 9 
Note on, C2 key =  36;WhichDrum: B ; velocity: 0
@92040 , @4.853207364341086 Channel: 9 
Note on, F#2 key =  42;WhichDrum: C1 ; velocity: 0
@92040 , @4.853207364341086 Channel: 9 
Note on, D2 key =  38;WhichDrum: T2 ; velocity: 127
@92040 , @4.853207364341086 Channel: 9 
Note on, F#2 key =  42;WhichDrum: C1 ; velocity: 127
@92100 , @4.856371124031008 Channel: 9 
Note on, D2 key =  38;WhichDrum: T2 ; velocity: 0
@92100 , @4.856371124031008 Channel: 9 
Note on, F#2 key =  42;WhichDrum: C1 ; velocity: 0
@92100 , @4.856371124031008 Channel: 9 
Note on, F#2 key =  42;WhichDrum: C1 ; velocity: 127
@92160 , @4.85953488372093 Channel: 9 
Note on, F#2 key =  42;WhichDrum: C1 ; velocity: 0
@92160 , @4.85953488372093 Channel: 9 
Note on, C2 key =  36;WhichDrum: B ; velocity: 127
@92160 , @4.85953488372093 Channel: 9 
Note on, F#2 key =  42;WhichDrum: C1 ; velocity: 127
@92220 , @4.862698643410853 Channel: 9 
Note on, F#2 key =  42;WhichDrum: C1 ; velocity: 0
@92220 , @4.862698643410853 Channel: 9 
Note on, F#2 key =  42;WhichDrum: C1 ; velocity: 127
@92280 , @4.865862403100775 Channel: 9 
Note on, C2 key =  36;WhichDrum: B ; velocity: 0
@92280 , @4.865862403100775 Channel: 9 
Note on, F#2 key =  42;WhichDrum: C1 ; velocity: 0
@92280 , @4.865862403100775 Channel: 9 
Note on, F#2 key =  42;WhichDrum: C1 ; velocity: 127
@92340 , @4.869026162790698 Channel: 9 
Note on, F#2 key =  42;WhichDrum: C1 ; velocity: 0
@92340 , @4.869026162790698 Channel: 9 
Note on, D2 key =  38;WhichDrum: T2 ; velocity: 127
@92340 , @4.869026162790698 Channel: 9 
Note on, F#2 key =  42;WhichDrum: C1 ; velocity: 127
@92400 , @4.87218992248062 Channel: 9 
Note on, D2 key =  38;WhichDrum: T2 ; velocity: 0
@92400 , @4.87218992248062 Channel: 9 
Note on, F#2 key =  42;WhichDrum: C1 ; velocity: 0
@92400 , @4.87218992248062 Channel: 9 
Note on, C2 key =  36;WhichDrum: B ; velocity: 127
@92400 , @4.87218992248062 Channel: 9 
Note on, F#2 key =  42;WhichDrum: C1 ; velocity: 127
@92460 , @4.875353682170543 Channel: 9 
Note on, C2 key =  36;WhichDrum: B ; velocity: 0
@92460 , @4.875353682170543 Channel: 9 
Note on, F#2 key =  42;WhichDrum: C1 ; velocity: 0
@92460 , @4.875353682170543 Channel: 9 
Note on, C2 key =  36;WhichDrum: B ; velocity: 127
@92460 , @4.875353682170543 Channel: 9 
Note on, F#2 key =  42;WhichDrum: C1 ; velocity: 127
@92480 , @4.87640826873385 Channel: 9 
Note on, C2 key =  36;WhichDrum: B ; velocity: 0
@92480 , @4.87640826873385 Channel: 9 
Note on, C2 key =  36;WhichDrum: B ; velocity: 127
@92500 , @4.877462855297158 Channel: 9 
Note on, C2 key =  36;WhichDrum: B ; velocity: 0
@92500 , @4.877462855297158 Channel: 9 
Note on, C2 key =  36;WhichDrum: B ; velocity: 127
@92520 , @4.878517441860465 Channel: 9 
Note on, F#2 key =  42;WhichDrum: C1 ; velocity: 0
@92520 , @4.878517441860465 Channel: 9 
Note on, C2 key =  36;WhichDrum: B ; velocity: 0
@92520 , @4.878517441860465 Channel: 9 
Note on, D2 key =  38;WhichDrum: T2 ; velocity: 127
@92520 , @4.878517441860465 Channel: 9 
Note on, F#2 key =  42;WhichDrum: C1 ; velocity: 127
@92580 , @4.881681201550387 Channel: 9 
Note on, D2 key =  38;WhichDrum: T2 ; velocity: 0
@92580 , @4.881681201550387 Channel: 9 
Note on, F#2 key =  42;WhichDrum: C1 ; velocity: 0
@92580 , @4.881681201550387 Channel: 9 
Note on, C2 key =  36;WhichDrum: B ; velocity: 127
@92580 , @4.881681201550387 Channel: 9 
Note on, F#2 key =  42;WhichDrum: C1 ; velocity: 127
@92640 , @4.884844961240311 Channel: 9 
Note on, C2 key =  36;WhichDrum: B ; velocity: 0
@92640 , @4.884844961240311 Channel: 9 
Note on, F#2 key =  42;WhichDrum: C1 ; velocity: 0
@92640 , @4.884844961240311 Channel: 9 
Note on, F#2 key =  42;WhichDrum: C1 ; velocity: 127
@92640 , @4.884844961240311 Channel: 9 
Note on, C2 key =  36;WhichDrum: B ; velocity: 127
@92700 , @4.888008720930233 Channel: 9 
Note on, F#2 key =  42;WhichDrum: C1 ; velocity: 0
@92700 , @4.888008720930233 Channel: 9 
Note on, F#2 key =  42;WhichDrum: C1 ; velocity: 127
@92760 , @4.891172480620155 Channel: 9 
Note on, C2 key =  36;WhichDrum: B ; velocity: 0
@92760 , @4.891172480620155 Channel: 9 
Note on, F#2 key =  42;WhichDrum: C1 ; velocity: 0
@92760 , @4.891172480620155 Channel: 9 
Note on, A3 key =  57;WhichDrum: T3 ; velocity: 127
@92760 , @4.891172480620155 Channel: 9 
Note on, D2 key =  38;WhichDrum: T2 ; velocity: 127
@92820 , @4.894336240310078 Channel: 9 
Note on, A3 key =  57;WhichDrum: T3 ; velocity: 0
@92820 , @4.894336240310078 Channel: 9 
Note on, D2 key =  38;WhichDrum: T2 ; velocity: 0
@92820 , @4.894336240310078 Channel: 9 
Note on, F#2 key =  42;WhichDrum: C1 ; velocity: 127
@92880 , @4.8975 Channel: 9 
Note on, F#2 key =  42;WhichDrum: C1 ; velocity: 0
@92880 , @4.8975 Channel: 9 
Note on, F#2 key =  42;WhichDrum: C1 ; velocity: 127
@92880 , @4.8975 Channel: 9 
Note on, C2 key =  36;WhichDrum: B ; velocity: 127
@92940 , @4.900663759689922 Channel: 9 
Note on, F#2 key =  42;WhichDrum: C1 ; velocity: 0
@92940 , @4.900663759689922 Channel: 9 
Note on, F#2 key =  42;WhichDrum: C1 ; velocity: 127
@93000 , @4.9038275193798455 Channel: 9 
Note on, C2 key =  36;WhichDrum: B ; velocity: 0
@93000 , @4.9038275193798455 Channel: 9 
Note on, F#2 key =  42;WhichDrum: C1 ; velocity: 0
@93000 , @4.9038275193798455 Channel: 9 
Note on, D2 key =  38;WhichDrum: T2 ; velocity: 127
@93000 , @4.9038275193798455 Channel: 9 
Note on, F#2 key =  42;WhichDrum: C1 ; velocity: 127
@93060 , @4.906991279069768 Channel: 9 
Note on, D2 key =  38;WhichDrum: T2 ; velocity: 0
@93060 , @4.906991279069768 Channel: 9 
Note on, F#2 key =  42;WhichDrum: C1 ; velocity: 0
@93060 , @4.906991279069768 Channel: 9 
Note on, F#2 key =  42;WhichDrum: C1 ; velocity: 127
@93120 , @4.91015503875969 Channel: 9 
Note on, F#2 key =  42;WhichDrum: C1 ; velocity: 0
@93120 , @4.91015503875969 Channel: 9 
Note on, C2 key =  36;WhichDrum: B ; velocity: 127
@93120 , @4.91015503875969 Channel: 9 
Note on, F#2 key =  42;WhichDrum: C1 ; velocity: 127
@93180 , @4.9133187984496125 Channel: 9 
Note on, F#2 key =  42;WhichDrum: C1 ; velocity: 0
@93180 , @4.9133187984496125 Channel: 9 
Note on, F#2 key =  42;WhichDrum: C1 ; velocity: 127
@93240 , @4.916482558139535 Channel: 9 
Note on, C2 key =  36;WhichDrum: B ; velocity: 0
@93240 , @4.916482558139535 Channel: 9 
Note on, F#2 key =  42;WhichDrum: C1 ; velocity: 0
@93240 , @4.916482558139535 Channel: 9 
Note on, F#2 key =  42;WhichDrum: C1 ; velocity: 127
@93300 , @4.919646317829457 Channel: 9 
Note on, F#2 key =  42;WhichDrum: C1 ; velocity: 0
@93300 , @4.919646317829457 Channel: 9 
Note on, D2 key =  38;WhichDrum: T2 ; velocity: 127
@93300 , @4.919646317829457 Channel: 9 
Note on, F#2 key =  42;WhichDrum: C1 ; velocity: 127
@93360 , @4.92281007751938 Channel: 9 
Note on, D2 key =  38;WhichDrum: T2 ; velocity: 0
@93360 , @4.92281007751938 Channel: 9 
Note on, F#2 key =  42;WhichDrum: C1 ; velocity: 0
@93360 , @4.92281007751938 Channel: 9 
Note on, C2 key =  36;WhichDrum: B ; velocity: 127
@93360 , @4.92281007751938 Channel: 9 
Note on, F#2 key =  42;WhichDrum: C1 ; velocity: 127
@93420 , @4.925973837209303 Channel: 9 
Note on, C2 key =  36;WhichDrum: B ; velocity: 0
@93420 , @4.925973837209303 Channel: 9 
Note on, F#2 key =  42;WhichDrum: C1 ; velocity: 0
@93420 , @4.925973837209303 Channel: 9 
Note on, C2 key =  36;WhichDrum: B ; velocity: 127
@93420 , @4.925973837209303 Channel: 9 
Note on, F#2 key =  42;WhichDrum: C1 ; velocity: 127
@93440 , @4.92702842377261 Channel: 9 
Note on, C2 key =  36;WhichDrum: B ; velocity: 0
@93440 , @4.92702842377261 Channel: 9 
Note on, C2 key =  36;WhichDrum: B ; velocity: 127
@93460 , @4.928083010335918 Channel: 9 
Note on, C2 key =  36;WhichDrum: B ; velocity: 0
@93460 , @4.928083010335918 Channel: 9 
Note on, C2 key =  36;WhichDrum: B ; velocity: 127
@93480 , @4.929137596899225 Channel: 9 
Note on, F#2 key =  42;WhichDrum: C1 ; velocity: 0
@93480 , @4.929137596899225 Channel: 9 
Note on, C2 key =  36;WhichDrum: B ; velocity: 0
@93480 , @4.929137596899225 Channel: 9 
Note on, D2 key =  38;WhichDrum: T2 ; velocity: 127
@93480 , @4.929137596899225 Channel: 9 
Note on, F#2 key =  42;WhichDrum: C1 ; velocity: 127
@93540 , @4.932301356589147 Channel: 9 
Note on, D2 key =  38;WhichDrum: T2 ; velocity: 0
@93540 , @4.932301356589147 Channel: 9 
Note on, F#2 key =  42;WhichDrum: C1 ; velocity: 0
@93540 , @4.932301356589147 Channel: 9 
Note on, C2 key =  36;WhichDrum: B ; velocity: 127
@93540 , @4.932301356589147 Channel: 9 
Note on, F#2 key =  42;WhichDrum: C1 ; velocity: 127
@93600 , @4.93546511627907 Channel: 9 
Note on, C2 key =  36;WhichDrum: B ; velocity: 0
@93600 , @4.93546511627907 Channel: 9 
Note on, F#2 key =  42;WhichDrum: C1 ; velocity: 0
@93600 , @4.93546511627907 Channel: 9 
Note on, C2 key =  36;WhichDrum: B ; velocity: 127
@93600 , @4.93546511627907 Channel: 9 
Note on, F#2 key =  42;WhichDrum: C1 ; velocity: 127
@93660 , @4.938628875968993 Channel: 9 
Note on, F#2 key =  42;WhichDrum: C1 ; velocity: 0
@93660 , @4.938628875968993 Channel: 9 
Note on, F#2 key =  42;WhichDrum: C1 ; velocity: 127
@93720 , @4.941792635658915 Channel: 9 
Note on, C2 key =  36;WhichDrum: B ; velocity: 0
@93720 , @4.941792635658915 Channel: 9 
Note on, F#2 key =  42;WhichDrum: C1 ; velocity: 0
@93720 , @4.941792635658915 Channel: 9 
Note on, F#2 key =  42;WhichDrum: C1 ; velocity: 127
@93780 , @4.944956395348838 Channel: 9 
Note on, F#2 key =  42;WhichDrum: C1 ; velocity: 0
@93780 , @4.944956395348838 Channel: 9 
Note on, A3 key =  57;WhichDrum: T3 ; velocity: 127
@93780 , @4.944956395348838 Channel: 9 
Note on, D2 key =  38;WhichDrum: T2 ; velocity: 127
@93840 , @4.94812015503876 Channel: 9 
Note on, A3 key =  57;WhichDrum: T3 ; velocity: 0
@93840 , @4.94812015503876 Channel: 9 
Note on, D2 key =  38;WhichDrum: T2 ; velocity: 0
@93840 , @4.94812015503876 Channel: 9 
Note on, C2 key =  36;WhichDrum: B ; velocity: 127
@93840 , @4.94812015503876 Channel: 9 
Note on, F#2 key =  42;WhichDrum: C1 ; velocity: 127
@93900 , @4.951283914728682 Channel: 9 
Note on, C2 key =  36;WhichDrum: B ; velocity: 0
@93900 , @4.951283914728682 Channel: 9 
Note on, F#2 key =  42;WhichDrum: C1 ; velocity: 0
@93900 , @4.951283914728682 Channel: 9 
Note on, C2 key =  36;WhichDrum: B ; velocity: 127
@93900 , @4.951283914728682 Channel: 9 
Note on, F#2 key =  42;WhichDrum: C1 ; velocity: 127
@93920 , @4.952338501291989 Channel: 9 
Note on, C2 key =  36;WhichDrum: B ; velocity: 0
@93920 , @4.952338501291989 Channel: 9 
Note on, C2 key =  36;WhichDrum: B ; velocity: 127
@93940 , @4.953393087855297 Channel: 9 
Note on, C2 key =  36;WhichDrum: B ; velocity: 0
@93940 , @4.953393087855297 Channel: 9 
Note on, C2 key =  36;WhichDrum: B ; velocity: 127
@93960 , @4.954447674418605 Channel: 9 
Note on, F#2 key =  42;WhichDrum: C1 ; velocity: 0
@93960 , @4.954447674418605 Channel: 9 
Note on, C2 key =  36;WhichDrum: B ; velocity: 0
@93960 , @4.954447674418605 Channel: 9 
Note on, A3 key =  57;WhichDrum: T3 ; velocity: 127
@93960 , @4.954447674418605 Channel: 9 
Note on, D2 key =  38;WhichDrum: T2 ; velocity: 127
@94020 , @4.957611434108528 Channel: 9 
Note on, A3 key =  57;WhichDrum: T3 ; velocity: 0
@94020 , @4.957611434108528 Channel: 9 
Note on, D2 key =  38;WhichDrum: T2 ; velocity: 0
@94020 , @4.957611434108528 Channel: 9 
Note on, F#2 key =  42;WhichDrum: C1 ; velocity: 127
@94080 , @4.96077519379845 Channel: 9 
Note on, F#2 key =  42;WhichDrum: C1 ; velocity: 0
@94080 , @4.96077519379845 Channel: 9 
Note on, F#2 key =  42;WhichDrum: C1 ; velocity: 127
@94080 , @4.96077519379845 Channel: 9 
Note on, C2 key =  36;WhichDrum: B ; velocity: 127
@94140 , @4.963938953488372 Channel: 9 
Note on, F#2 key =  42;WhichDrum: C1 ; velocity: 0
@94140 , @4.963938953488372 Channel: 9 
Note on, C2 key =  36;WhichDrum: B ; velocity: 0
@94140 , @4.963938953488372 Channel: 9 
Note on, F#2 key =  42;WhichDrum: C1 ; velocity: 127
@94140 , @4.963938953488372 Channel: 9 
Note on, C2 key =  36;WhichDrum: B ; velocity: 127
@94160 , @4.96499354005168 Channel: 9 
Note on, C2 key =  36;WhichDrum: B ; velocity: 0
@94160 , @4.96499354005168 Channel: 9 
Note on, C2 key =  36;WhichDrum: B ; velocity: 127
@94180 , @4.966048126614987 Channel: 9 
Note on, C2 key =  36;WhichDrum: B ; velocity: 0
@94180 , @4.966048126614987 Channel: 9 
Note on, C2 key =  36;WhichDrum: B ; velocity: 127
@94200 , @4.967102713178295 Channel: 9 
Note on, F#2 key =  42;WhichDrum: C1 ; velocity: 0
@94200 , @4.967102713178295 Channel: 9 
Note on, C2 key =  36;WhichDrum: B ; velocity: 0
@94200 , @4.967102713178295 Channel: 9 
Note on, D2 key =  38;WhichDrum: T2 ; velocity: 127
@94200 , @4.967102713178295 Channel: 9 
Note on, A3 key =  57;WhichDrum: T3 ; velocity: 127
@94260 , @4.970266472868217 Channel: 9 
Note on, D2 key =  38;WhichDrum: T2 ; velocity: 0
@94260 , @4.970266472868217 Channel: 9 
Note on, A3 key =  57;WhichDrum: T3 ; velocity: 0
@94260 , @4.970266472868217 Channel: 9 
Note on, D2 key =  38;WhichDrum: T2 ; velocity: 127
@94290 , @4.971848352713178 Channel: 9 
Note on, D2 key =  38;WhichDrum: T2 ; velocity: 0
@94290 , @4.971848352713178 Channel: 9 
Note on, D2 key =  38;WhichDrum: T2 ; velocity: 127
@94320 , @4.973430232558139 Channel: 9 
Note on, D2 key =  38;WhichDrum: T2 ; velocity: 0
@94320 , @4.973430232558139 Channel: 9 
Note on, A2 key =  45;WhichDrum: T3 ; velocity: 127
@94380 , @4.976593992248063 Channel: 9 
Note on, A2 key =  45;WhichDrum: T3 ; velocity: 0
@94380 , @4.976593992248063 Channel: 9 
Note on, A2 key =  45;WhichDrum: T3 ; velocity: 127
@94410 , @4.978175872093023 Channel: 9 
Note on, A2 key =  45;WhichDrum: T3 ; velocity: 0
@94410 , @4.978175872093023 Channel: 9 
Note on, A2 key =  45;WhichDrum: T3 ; velocity: 127
@94440 , @4.979757751937985 Channel: 9 
Note on, A2 key =  45;WhichDrum: T3 ; velocity: 0
@94440 , @4.979757751937985 Channel: 9 
Note on, B2 key =  47;WhichDrum: T1 ; velocity: 127
@94500 , @4.982921511627907 Channel: 9 
Note on, B2 key =  47;WhichDrum: T1 ; velocity: 0
@94500 , @4.982921511627907 Channel: 9 
Note on, B2 key =  47;WhichDrum: T1 ; velocity: 127
@94530 , @4.9845033914728685 Channel: 9 
Note on, B2 key =  47;WhichDrum: T1 ; velocity: 0
@94530 , @4.9845033914728685 Channel: 9 
Note on, B2 key =  47;WhichDrum: T1 ; velocity: 127
@94560 , @4.98608527131783 Channel: 9 
Note on, B2 key =  47;WhichDrum: T1 ; velocity: 0
@94560 , @4.98608527131783 Channel: 9 
Note on, A3 key =  57;WhichDrum: T3 ; velocity: 127
@94560 , @4.98608527131783 Channel: 9 
Note on, C2 key =  36;WhichDrum: B ; velocity: 127
@94620 , @4.989249031007752 Channel: 9 
Note on, A3 key =  57;WhichDrum: T3 ; velocity: 0
@94620 , @4.989249031007752 Channel: 9 
Note on, B3 key =  59;WhichDrum: T1 ; velocity: 127
@94680 , @4.992412790697675 Channel: 9 
Note on, C2 key =  36;WhichDrum: B ; velocity: 0
@94680 , @4.992412790697675 Channel: 9 
Note on, B3 key =  59;WhichDrum: T1 ; velocity: 0
@94680 , @4.992412790697675 Channel: 9 
Note on, D2 key =  38;WhichDrum: T2 ; velocity: 127
@94680 , @4.992412790697675 Channel: 9 
Note on, B3 key =  59;WhichDrum: T1 ; velocity: 127
@94740 , @4.9955765503875975 Channel: 9 
Note on, D2 key =  38;WhichDrum: T2 ; velocity: 0
@94740 , @4.9955765503875975 Channel: 9 
Note on, B3 key =  59;WhichDrum: T1 ; velocity: 0
@94740 , @4.9955765503875975 Channel: 9 
Note on, B3 key =  59;WhichDrum: T1 ; velocity: 127
@94800 , @4.99874031007752 Channel: 9 
Note on, B3 key =  59;WhichDrum: T1 ; velocity: 0
@94800 , @4.99874031007752 Channel: 9 
Note on, B3 key =  59;WhichDrum: T1 ; velocity: 127
@94800 , @4.99874031007752 Channel: 9 
Note on, C2 key =  36;WhichDrum: B ; velocity: 127
@94860 , @5.001904069767442 Channel: 9 
Note on, B3 key =  59;WhichDrum: T1 ; velocity: 0
@94860 , @5.001904069767442 Channel: 9 
Note on, A2 key =  45;WhichDrum: T3 ; velocity: 127
@94890 , @5.003485949612403 Channel: 9 
Note on, A2 key =  45;WhichDrum: T3 ; velocity: 0
@94890 , @5.003485949612403 Channel: 9 
Note on, A2 key =  45;WhichDrum: T3 ; velocity: 127
@94920 , @5.0050678294573645 Channel: 9 
Note on, C2 key =  36;WhichDrum: B ; velocity: 0
@94920 , @5.0050678294573645 Channel: 9 
Note on, A2 key =  45;WhichDrum: T3 ; velocity: 0
@94920 , @5.0050678294573645 Channel: 9 
Note on, A3 key =  57;WhichDrum: T3 ; velocity: 127
@94920 , @5.0050678294573645 Channel: 9 
Note on, C2 key =  36;WhichDrum: B ; velocity: 127
@94980 , @5.008231589147287 Channel: 9 
Note on, A3 key =  57;WhichDrum: T3 ; velocity: 0
@94980 , @5.008231589147287 Channel: 9 
Note on, C2 key =  36;WhichDrum: B ; velocity: 0
@94980 , @5.008231589147287 Channel: 9 
Note on, A3 key =  57;WhichDrum: T3 ; velocity: 127
@94980 , @5.008231589147287 Channel: 9 
Note on, C2 key =  36;WhichDrum: B ; velocity: 127
@95040 , @5.01139534883721 Channel: 9 
Note on, A3 key =  57;WhichDrum: T3 ; velocity: 0
@95040 , @5.01139534883721 Channel: 9 
Note on, C2 key =  36;WhichDrum: B ; velocity: 0
@95040 , @5.01139534883721 Channel: 9 
Note on, A3 key =  57;WhichDrum: T3 ; velocity: 127
@95040 , @5.01139534883721 Channel: 9 
Note on, C2 key =  36;WhichDrum: B ; velocity: 127
@95100 , @5.014559108527132 Channel: 9 
Note on, A3 key =  57;WhichDrum: T3 ; velocity: 0
@95100 , @5.014559108527132 Channel: 9 
Note on, B3 key =  59;WhichDrum: T1 ; velocity: 127
@95160 , @5.017722868217055 Channel: 9 
Note on, C2 key =  36;WhichDrum: B ; velocity: 0
@95160 , @5.017722868217055 Channel: 9 
Note on, B3 key =  59;WhichDrum: T1 ; velocity: 0
@95160 , @5.017722868217055 Channel: 9 
Note on, D2 key =  38;WhichDrum: T2 ; velocity: 127
@95160 , @5.017722868217055 Channel: 9 
Note on, B3 key =  59;WhichDrum: T1 ; velocity: 127
@95220 , @5.020886627906977 Channel: 9 
Note on, D2 key =  38;WhichDrum: T2 ; velocity: 0
@95220 , @5.020886627906977 Channel: 9 
Note on, B3 key =  59;WhichDrum: T1 ; velocity: 0
@95220 , @5.020886627906977 Channel: 9 
Note on, B3 key =  59;WhichDrum: T1 ; velocity: 127
@95280 , @5.024050387596899 Channel: 9 
Note on, B3 key =  59;WhichDrum: T1 ; velocity: 0
@95280 , @5.024050387596899 Channel: 9 
Note on, B3 key =  59;WhichDrum: T1 ; velocity: 127
@95280 , @5.024050387596899 Channel: 9 
Note on, C2 key =  36;WhichDrum: B ; velocity: 127
@95340 , @5.027214147286822 Channel: 9 
Note on, B3 key =  59;WhichDrum: T1 ; velocity: 0
@95340 , @5.027214147286822 Channel: 9 
Note on, A2 key =  45;WhichDrum: T3 ; velocity: 127
@95370 , @5.028796027131783 Channel: 9 
Note on, A2 key =  45;WhichDrum: T3 ; velocity: 0
@95370 , @5.028796027131783 Channel: 9 
Note on, A2 key =  45;WhichDrum: T3 ; velocity: 127
@95400 , @5.030377906976745 Channel: 9 
Note on, C2 key =  36;WhichDrum: B ; velocity: 0
@95400 , @5.030377906976745 Channel: 9 
Note on, A2 key =  45;WhichDrum: T3 ; velocity: 0
@95400 , @5.030377906976745 Channel: 9 
Note on, A3 key =  57;WhichDrum: T3 ; velocity: 127
@95400 , @5.030377906976745 Channel: 9 
Note on, C2 key =  36;WhichDrum: B ; velocity: 127
@95460 , @5.033541666666667 Channel: 9 
Note on, A3 key =  57;WhichDrum: T3 ; velocity: 0
@95460 , @5.033541666666667 Channel: 9 
Note on, C2 key =  36;WhichDrum: B ; velocity: 0
@95460 , @5.033541666666667 Channel: 9 
Note on, A3 key =  57;WhichDrum: T3 ; velocity: 127
@95460 , @5.033541666666667 Channel: 9 
Note on, C2 key =  36;WhichDrum: B ; velocity: 127
@95520 , @5.03670542635659 Channel: 9 
Note on, A3 key =  57;WhichDrum: T3 ; velocity: 0
@95520 , @5.03670542635659 Channel: 9 
Note on, C2 key =  36;WhichDrum: B ; velocity: 0
@95520 , @5.03670542635659 Channel: 9 
Note on, A3 key =  57;WhichDrum: T3 ; velocity: 127
@95520 , @5.03670542635659 Channel: 9 
Note on, C2 key =  36;WhichDrum: B ; velocity: 127
@95580 , @5.039869186046512 Channel: 9 
Note on, A3 key =  57;WhichDrum: T3 ; velocity: 0
@95580 , @5.039869186046512 Channel: 9 
Note on, B3 key =  59;WhichDrum: T1 ; velocity: 127
@95640 , @5.043032945736434 Channel: 9 
Note on, C2 key =  36;WhichDrum: B ; velocity: 0
@95640 , @5.043032945736434 Channel: 9 
Note on, B3 key =  59;WhichDrum: T1 ; velocity: 0
@95640 , @5.043032945736434 Channel: 9 
Note on, D2 key =  38;WhichDrum: T2 ; velocity: 127
@95640 , @5.043032945736434 Channel: 9 
Note on, B3 key =  59;WhichDrum: T1 ; velocity: 127
@95700 , @5.0461967054263575 Channel: 9 
Note on, D2 key =  38;WhichDrum: T2 ; velocity: 0
@95700 , @5.0461967054263575 Channel: 9 
Note on, B3 key =  59;WhichDrum: T1 ; velocity: 0
@95700 , @5.0461967054263575 Channel: 9 
Note on, B3 key =  59;WhichDrum: T1 ; velocity: 127
@95760 , @5.04936046511628 Channel: 9 
Note on, B3 key =  59;WhichDrum: T1 ; velocity: 0
@95760 , @5.04936046511628 Channel: 9 
Note on, B3 key =  59;WhichDrum: T1 ; velocity: 127
@95760 , @5.04936046511628 Channel: 9 
Note on, C2 key =  36;WhichDrum: B ; velocity: 127
@95820 , @5.052524224806202 Channel: 9 
Note on, B3 key =  59;WhichDrum: T1 ; velocity: 0
@95820 , @5.052524224806202 Channel: 9 
Note on, A2 key =  45;WhichDrum: T3 ; velocity: 127
@95850 , @5.054106104651163 Channel: 9 
Note on, A2 key =  45;WhichDrum: T3 ; velocity: 0
@95850 , @5.054106104651163 Channel: 9 
Note on, A2 key =  45;WhichDrum: T3 ; velocity: 127
@95880 , @5.055687984496124 Channel: 9 
Note on, C2 key =  36;WhichDrum: B ; velocity: 0
@95880 , @5.055687984496124 Channel: 9 
Note on, A2 key =  45;WhichDrum: T3 ; velocity: 0
@95880 , @5.055687984496124 Channel: 9 
Note on, A3 key =  57;WhichDrum: T3 ; velocity: 127
@95880 , @5.055687984496124 Channel: 9 
Note on, C2 key =  36;WhichDrum: B ; velocity: 127
@95940 , @5.058851744186047 Channel: 9 
Note on, A3 key =  57;WhichDrum: T3 ; velocity: 0
@95940 , @5.058851744186047 Channel: 9 
Note on, C2 key =  36;WhichDrum: B ; velocity: 0
@95940 , @5.058851744186047 Channel: 9 
Note on, A3 key =  57;WhichDrum: T3 ; velocity: 127
@95940 , @5.058851744186047 Channel: 9 
Note on, C2 key =  36;WhichDrum: B ; velocity: 127
@96000 , @5.062015503875969 Channel: 9 
Note on, A3 key =  57;WhichDrum: T3 ; velocity: 0
@96000 , @5.062015503875969 Channel: 9 
Note on, C2 key =  36;WhichDrum: B ; velocity: 0
@96000 , @5.062015503875969 Channel: 9 
Note on, A3 key =  57;WhichDrum: T3 ; velocity: 127
@96000 , @5.062015503875969 Channel: 9 
Note on, C2 key =  36;WhichDrum: B ; velocity: 127
@96060 , @5.065179263565892 Channel: 9 
Note on, A3 key =  57;WhichDrum: T3 ; velocity: 0
@96060 , @5.065179263565892 Channel: 9 
Note on, B3 key =  59;WhichDrum: T1 ; velocity: 127
@96120 , @5.068343023255815 Channel: 9 
Note on, C2 key =  36;WhichDrum: B ; velocity: 0
@96120 , @5.068343023255815 Channel: 9 
Note on, B3 key =  59;WhichDrum: T1 ; velocity: 0
@96120 , @5.068343023255815 Channel: 9 
Note on, D2 key =  38;WhichDrum: T2 ; velocity: 127
@96120 , @5.068343023255815 Channel: 9 
Note on, B3 key =  59;WhichDrum: T1 ; velocity: 127
@96180 , @5.071506782945737 Channel: 9 
Note on, D2 key =  38;WhichDrum: T2 ; velocity: 0
@96180 , @5.071506782945737 Channel: 9 
Note on, B3 key =  59;WhichDrum: T1 ; velocity: 0
@96180 , @5.071506782945737 Channel: 9 
Note on, B3 key =  59;WhichDrum: T1 ; velocity: 127
@96240 , @5.074670542635659 Channel: 9 
Note on, B3 key =  59;WhichDrum: T1 ; velocity: 0
@96240 , @5.074670542635659 Channel: 9 
Note on, C2 key =  36;WhichDrum: B ; velocity: 127
@96240 , @5.074670542635659 Channel: 9 
Note on, B3 key =  59;WhichDrum: T1 ; velocity: 127
@96300 , @5.077834302325582 Channel: 9 
Note on, C2 key =  36;WhichDrum: B ; velocity: 0
@96300 , @5.077834302325582 Channel: 9 
Note on, B3 key =  59;WhichDrum: T1 ; velocity: 0
@96300 , @5.077834302325582 Channel: 9 
Note on, B3 key =  59;WhichDrum: T1 ; velocity: 127
@96300 , @5.077834302325582 Channel: 9 
Note on, C2 key =  36;WhichDrum: B ; velocity: 127
@96360 , @5.080998062015504 Channel: 9 
Note on, B3 key =  59;WhichDrum: T1 ; velocity: 0
@96360 , @5.080998062015504 Channel: 9 
Note on, C2 key =  36;WhichDrum: B ; velocity: 0
@96360 , @5.080998062015504 Channel: 9 
Note on, A2 key =  45;WhichDrum: T3 ; velocity: 127
@96390 , @5.082579941860465 Channel: 9 
Note on, A2 key =  45;WhichDrum: T3 ; velocity: 0
@96390 , @5.082579941860465 Channel: 9 
Note on, A2 key =  45;WhichDrum: T3 ; velocity: 127
@96420 , @5.084161821705427 Channel: 9 
Note on, A2 key =  45;WhichDrum: T3 ; velocity: 0
@96420 , @5.084161821705427 Channel: 9 
Note on, A2 key =  45;WhichDrum: T3 ; velocity: 127
@96480 , @5.0873255813953495 Channel: 9 
Note on, A2 key =  45;WhichDrum: T3 ; velocity: 0
@96480 , @5.0873255813953495 Channel: 9 
Note on, A3 key =  57;WhichDrum: T3 ; velocity: 127
@96480 , @5.0873255813953495 Channel: 9 
Note on, C2 key =  36;WhichDrum: B ; velocity: 127
@96540 , @5.090489341085272 Channel: 9 
Note on, A3 key =  57;WhichDrum: T3 ; velocity: 0
@96540 , @5.090489341085272 Channel: 9 
Note on, B3 key =  59;WhichDrum: T1 ; velocity: 127
@96600 , @5.093653100775194 Channel: 9 
Note on, C2 key =  36;WhichDrum: B ; velocity: 0
@96600 , @5.093653100775194 Channel: 9 
Note on, B3 key =  59;WhichDrum: T1 ; velocity: 0
@96600 , @5.093653100775194 Channel: 9 
Note on, D2 key =  38;WhichDrum: T2 ; velocity: 127
@96600 , @5.093653100775194 Channel: 9 
Note on, B3 key =  59;WhichDrum: T1 ; velocity: 127
@96660 , @5.0968168604651165 Channel: 9 
Note on, D2 key =  38;WhichDrum: T2 ; velocity: 0
@96660 , @5.0968168604651165 Channel: 9 
Note on, B3 key =  59;WhichDrum: T1 ; velocity: 0
@96660 , @5.0968168604651165 Channel: 9 
Note on, B3 key =  59;WhichDrum: T1 ; velocity: 127
@96720 , @5.09998062015504 Channel: 9 
Note on, B3 key =  59;WhichDrum: T1 ; velocity: 0
@96720 , @5.09998062015504 Channel: 9 
Note on, B3 key =  59;WhichDrum: T1 ; velocity: 127
@96720 , @5.09998062015504 Channel: 9 
Note on, C2 key =  36;WhichDrum: B ; velocity: 127
@96780 , @5.103144379844961 Channel: 9 
Note on, B3 key =  59;WhichDrum: T1 ; velocity: 0
@96780 , @5.103144379844961 Channel: 9 
Note on, A2 key =  45;WhichDrum: T3 ; velocity: 127
@96810 , @5.104726259689922 Channel: 9 
Note on, A2 key =  45;WhichDrum: T3 ; velocity: 0
@96810 , @5.104726259689922 Channel: 9 
Note on, A2 key =  45;WhichDrum: T3 ; velocity: 127
@96840 , @5.1063081395348835 Channel: 9 
Note on, C2 key =  36;WhichDrum: B ; velocity: 0
@96840 , @5.1063081395348835 Channel: 9 
Note on, A2 key =  45;WhichDrum: T3 ; velocity: 0
@96840 , @5.1063081395348835 Channel: 9 
Note on, A3 key =  57;WhichDrum: T3 ; velocity: 127
@96840 , @5.1063081395348835 Channel: 9 
Note on, C2 key =  36;WhichDrum: B ; velocity: 127
@96900 , @5.109471899224806 Channel: 9 
Note on, A3 key =  57;WhichDrum: T3 ; velocity: 0
@96900 , @5.109471899224806 Channel: 9 
Note on, C2 key =  36;WhichDrum: B ; velocity: 0
@96900 , @5.109471899224806 Channel: 9 
Note on, A3 key =  57;WhichDrum: T3 ; velocity: 127
@96900 , @5.109471899224806 Channel: 9 
Note on, C2 key =  36;WhichDrum: B ; velocity: 127
@96960 , @5.112635658914728 Channel: 9 
Note on, A3 key =  57;WhichDrum: T3 ; velocity: 0
@96960 , @5.112635658914728 Channel: 9 
Note on, C2 key =  36;WhichDrum: B ; velocity: 0
@96960 , @5.112635658914728 Channel: 9 
Note on, A3 key =  57;WhichDrum: T3 ; velocity: 127
@96960 , @5.112635658914728 Channel: 9 
Note on, C2 key =  36;WhichDrum: B ; velocity: 127
@97020 , @5.115799418604651 Channel: 9 
Note on, A3 key =  57;WhichDrum: T3 ; velocity: 0
@97020 , @5.115799418604651 Channel: 9 
Note on, B3 key =  59;WhichDrum: T1 ; velocity: 127
@97080 , @5.118963178294574 Channel: 9 
Note on, C2 key =  36;WhichDrum: B ; velocity: 0
@97080 , @5.118963178294574 Channel: 9 
Note on, B3 key =  59;WhichDrum: T1 ; velocity: 0
@97080 , @5.118963178294574 Channel: 9 
Note on, D2 key =  38;WhichDrum: T2 ; velocity: 127
@97080 , @5.118963178294574 Channel: 9 
Note on, B3 key =  59;WhichDrum: T1 ; velocity: 127
@97140 , @5.122126937984496 Channel: 9 
Note on, D2 key =  38;WhichDrum: T2 ; velocity: 0
@97140 , @5.122126937984496 Channel: 9 
Note on, B3 key =  59;WhichDrum: T1 ; velocity: 0
@97140 , @5.122126937984496 Channel: 9 
Note on, B3 key =  59;WhichDrum: T1 ; velocity: 127
@97200 , @5.125290697674418 Channel: 9 
Note on, B3 key =  59;WhichDrum: T1 ; velocity: 0
@97200 , @5.125290697674418 Channel: 9 
Note on, B3 key =  59;WhichDrum: T1 ; velocity: 127
@97200 , @5.125290697674418 Channel: 9 
Note on, C2 key =  36;WhichDrum: B ; velocity: 127
@97260 , @5.128454457364341 Channel: 9 
Note on, B3 key =  59;WhichDrum: T1 ; velocity: 0
@97260 , @5.128454457364341 Channel: 9 
Note on, A2 key =  45;WhichDrum: T3 ; velocity: 127
@97290 , @5.130036337209303 Channel: 9 
Note on, A2 key =  45;WhichDrum: T3 ; velocity: 0
@97290 , @5.130036337209303 Channel: 9 
Note on, A2 key =  45;WhichDrum: T3 ; velocity: 127
@97320 , @5.131618217054263 Channel: 9 
Note on, C2 key =  36;WhichDrum: B ; velocity: 0
@97320 , @5.131618217054263 Channel: 9 
Note on, A2 key =  45;WhichDrum: T3 ; velocity: 0
@97320 , @5.131618217054263 Channel: 9 
Note on, A3 key =  57;WhichDrum: T3 ; velocity: 127
@97320 , @5.131618217054263 Channel: 9 
Note on, C2 key =  36;WhichDrum: B ; velocity: 127
@97380 , @5.134781976744186 Channel: 9 
Note on, A3 key =  57;WhichDrum: T3 ; velocity: 0
@97380 , @5.134781976744186 Channel: 9 
Note on, C2 key =  36;WhichDrum: B ; velocity: 0
@97380 , @5.134781976744186 Channel: 9 
Note on, A3 key =  57;WhichDrum: T3 ; velocity: 127
@97380 , @5.134781976744186 Channel: 9 
Note on, C2 key =  36;WhichDrum: B ; velocity: 127
@97440 , @5.137945736434109 Channel: 9 
Note on, A3 key =  57;WhichDrum: T3 ; velocity: 0
@97440 , @5.137945736434109 Channel: 9 
Note on, C2 key =  36;WhichDrum: B ; velocity: 0
@97440 , @5.137945736434109 Channel: 9 
Note on, A3 key =  57;WhichDrum: T3 ; velocity: 127
@97440 , @5.137945736434109 Channel: 9 
Note on, C2 key =  36;WhichDrum: B ; velocity: 127
@97500 , @5.141109496124031 Channel: 9 
Note on, A3 key =  57;WhichDrum: T3 ; velocity: 0
@97500 , @5.141109496124031 Channel: 9 
Note on, B3 key =  59;WhichDrum: T1 ; velocity: 127
@97560 , @5.144273255813953 Channel: 9 
Note on, C2 key =  36;WhichDrum: B ; velocity: 0
@97560 , @5.144273255813953 Channel: 9 
Note on, B3 key =  59;WhichDrum: T1 ; velocity: 0
@97560 , @5.144273255813953 Channel: 9 
Note on, D2 key =  38;WhichDrum: T2 ; velocity: 127
@97560 , @5.144273255813953 Channel: 9 
Note on, B3 key =  59;WhichDrum: T1 ; velocity: 127
@97620 , @5.147437015503876 Channel: 9 
Note on, D2 key =  38;WhichDrum: T2 ; velocity: 0
@97620 , @5.147437015503876 Channel: 9 
Note on, B3 key =  59;WhichDrum: T1 ; velocity: 0
@97620 , @5.147437015503876 Channel: 9 
Note on, B3 key =  59;WhichDrum: T1 ; velocity: 127
@97680 , @5.150600775193799 Channel: 9 
Note on, B3 key =  59;WhichDrum: T1 ; velocity: 0
@97680 , @5.150600775193799 Channel: 9 
Note on, B3 key =  59;WhichDrum: T1 ; velocity: 127
@97680 , @5.150600775193799 Channel: 9 
Note on, C2 key =  36;WhichDrum: B ; velocity: 127
@97740 , @5.153764534883721 Channel: 9 
Note on, B3 key =  59;WhichDrum: T1 ; velocity: 0
@97740 , @5.153764534883721 Channel: 9 
Note on, A2 key =  45;WhichDrum: T3 ; velocity: 127
@97770 , @5.155346414728682 Channel: 9 
Note on, A2 key =  45;WhichDrum: T3 ; velocity: 0
@97770 , @5.155346414728682 Channel: 9 
Note on, A2 key =  45;WhichDrum: T3 ; velocity: 127
@97800 , @5.156928294573643 Channel: 9 
Note on, C2 key =  36;WhichDrum: B ; velocity: 0
@97800 , @5.156928294573643 Channel: 9 
Note on, A2 key =  45;WhichDrum: T3 ; velocity: 0
@97800 , @5.156928294573643 Channel: 9 
Note on, A3 key =  57;WhichDrum: T3 ; velocity: 127
@97800 , @5.156928294573643 Channel: 9 
Note on, C2 key =  36;WhichDrum: B ; velocity: 127
@97860 , @5.160092054263566 Channel: 9 
Note on, A3 key =  57;WhichDrum: T3 ; velocity: 0
@97860 , @5.160092054263566 Channel: 9 
Note on, C2 key =  36;WhichDrum: B ; velocity: 0
@97860 , @5.160092054263566 Channel: 9 
Note on, A3 key =  57;WhichDrum: T3 ; velocity: 127
@97860 , @5.160092054263566 Channel: 9 
Note on, C2 key =  36;WhichDrum: B ; velocity: 127
@97920 , @5.163255813953488 Channel: 9 
Note on, A3 key =  57;WhichDrum: T3 ; velocity: 0
@97920 , @5.163255813953488 Channel: 9 
Note on, C2 key =  36;WhichDrum: B ; velocity: 0
@97920 , @5.163255813953488 Channel: 9 
Note on, C2 key =  36;WhichDrum: B ; velocity: 127
@97920 , @5.163255813953488 Channel: 9 
Note on, A3 key =  57;WhichDrum: T3 ; velocity: 127
@97980 , @5.16641957364341 Channel: 9 
Note on, A3 key =  57;WhichDrum: T3 ; velocity: 0
@97980 , @5.16641957364341 Channel: 9 
Note on, D2 key =  38;WhichDrum: T2 ; velocity: 127
@98010 , @5.1680014534883725 Channel: 9 
Note on, D2 key =  38;WhichDrum: T2 ; velocity: 0
@98010 , @5.1680014534883725 Channel: 9 
Note on, D2 key =  38;WhichDrum: T2 ; velocity: 127
@98040 , @5.169583333333334 Channel: 9 
Note on, C2 key =  36;WhichDrum: B ; velocity: 0
@98040 , @5.169583333333334 Channel: 9 
Note on, D2 key =  38;WhichDrum: T2 ; velocity: 0
@98040 , @5.169583333333334 Channel: 9 
Note on, D2 key =  38;WhichDrum: T2 ; velocity: 127
@98100 , @5.172747093023256 Channel: 9 
Note on, D2 key =  38;WhichDrum: T2 ; velocity: 0
@98100 , @5.172747093023256 Channel: 9 
Note on, D2 key =  38;WhichDrum: T2 ; velocity: 127
@98130 , @5.174328972868217 Channel: 9 
Note on, D2 key =  38;WhichDrum: T2 ; velocity: 0
@98130 , @5.174328972868217 Channel: 9 
Note on, D2 key =  38;WhichDrum: T2 ; velocity: 127
@98160 , @5.175910852713178 Channel: 9 
Note on, D2 key =  38;WhichDrum: T2 ; velocity: 0
@98160 , @5.175910852713178 Channel: 9 
Note on, D2 key =  38;WhichDrum: T2 ; velocity: 127
@98220 , @5.179074612403101 Channel: 9 
Note on, D2 key =  38;WhichDrum: T2 ; velocity: 0
@98220 , @5.179074612403101 Channel: 9 
Note on, D2 key =  38;WhichDrum: T2 ; velocity: 127
@98250 , @5.180656492248063 Channel: 9 
Note on, D2 key =  38;WhichDrum: T2 ; velocity: 0
@98250 , @5.180656492248063 Channel: 9 
Note on, D2 key =  38;WhichDrum: T2 ; velocity: 127
@98280 , @5.182238372093023 Channel: 9 
Note on, D2 key =  38;WhichDrum: T2 ; velocity: 0
@98280 , @5.182238372093023 Channel: 9 
Note on, D2 key =  38;WhichDrum: T2 ; velocity: 127
@98340 , @5.185402131782945 Channel: 9 
Note on, D2 key =  38;WhichDrum: T2 ; velocity: 0
@98340 , @5.185402131782945 Channel: 9 
Note on, D2 key =  38;WhichDrum: T2 ; velocity: 127
@98400 , @5.1885658914728685 Channel: 9 
Note on, D2 key =  38;WhichDrum: T2 ; velocity: 0
@98400 , @5.1885658914728685 Channel: 9 
Note on, A3 key =  57;WhichDrum: T3 ; velocity: 127
@98400 , @5.1885658914728685 Channel: 9 
Note on, C2 key =  36;WhichDrum: B ; velocity: 127
@98460 , @5.191729651162791 Channel: 9 
Note on, A3 key =  57;WhichDrum: T3 ; velocity: 0
@98460 , @5.191729651162791 Channel: 9 
Note on, D2 key =  38;WhichDrum: T2 ; velocity: 127
@98490 , @5.193311531007752 Channel: 9 
Note on, D2 key =  38;WhichDrum: T2 ; velocity: 0
@98490 , @5.193311531007752 Channel: 9 
Note on, D2 key =  38;WhichDrum: T2 ; velocity: 127
@98520 , @5.194893410852713 Channel: 9 
Note on, C2 key =  36;WhichDrum: B ; velocity: 0
@98520 , @5.194893410852713 Channel: 9 
Note on, D2 key =  38;WhichDrum: T2 ; velocity: 0
@98520 , @5.194893410852713 Channel: 9 
Note on, D2 key =  38;WhichDrum: T2 ; velocity: 127
@98580 , @5.1980571705426355 Channel: 9 
Note on, D2 key =  38;WhichDrum: T2 ; velocity: 0
@98580 , @5.1980571705426355 Channel: 9 
Note on, D2 key =  38;WhichDrum: T2 ; velocity: 127
@98610 , @5.1996390503875975 Channel: 9 
Note on, D2 key =  38;WhichDrum: T2 ; velocity: 0
@98610 , @5.1996390503875975 Channel: 9 
Note on, D2 key =  38;WhichDrum: T2 ; velocity: 127
@98640 , @5.201220930232558 Channel: 9 
Note on, D2 key =  38;WhichDrum: T2 ; velocity: 0
@98640 , @5.201220930232558 Channel: 9 
Note on, A2 key =  45;WhichDrum: T3 ; velocity: 127
@98700 , @5.204384689922481 Channel: 9 
Note on, A2 key =  45;WhichDrum: T3 ; velocity: 0
@98700 , @5.204384689922481 Channel: 9 
Note on, A2 key =  45;WhichDrum: T3 ; velocity: 127
@98730 , @5.205966569767442 Channel: 9 
Note on, A2 key =  45;WhichDrum: T3 ; velocity: 0
@98730 , @5.205966569767442 Channel: 9 
Note on, A2 key =  45;WhichDrum: T3 ; velocity: 127
@98760 , @5.207548449612403 Channel: 9 
Note on, A2 key =  45;WhichDrum: T3 ; velocity: 0
@98760 , @5.207548449612403 Channel: 9 
Note on, B2 key =  47;WhichDrum: T1 ; velocity: 127
@98820 , @5.210712209302326 Channel: 9 
Note on, B2 key =  47;WhichDrum: T1 ; velocity: 0
@98820 , @5.210712209302326 Channel: 9 
Note on, B2 key =  47;WhichDrum: T1 ; velocity: 127
@98880 , @5.213875968992248 Channel: 9 
Note on, B2 key =  47;WhichDrum: T1 ; velocity: 0
@98880 , @5.213875968992248 Channel: 9 
Note on, A3 key =  57;WhichDrum: T3 ; velocity: 127
@98880 , @5.213875968992248 Channel: 9 
Note on, C2 key =  36;WhichDrum: B ; velocity: 127
@98940 , @5.21703972868217 Channel: 9 
Note on, A3 key =  57;WhichDrum: T3 ; velocity: 0
@98940 , @5.21703972868217 Channel: 9 
Note on, F#2 key =  42;WhichDrum: C1 ; velocity: 127
@99000 , @5.220203488372093 Channel: 9 
Note on, C2 key =  36;WhichDrum: B ; velocity: 0
@99000 , @5.220203488372093 Channel: 9 
Note on, F#2 key =  42;WhichDrum: C1 ; velocity: 0
@99000 , @5.220203488372093 Channel: 9 
Note on, D2 key =  38;WhichDrum: T2 ; velocity: 127
@99000 , @5.220203488372093 Channel: 9 
Note on, F#2 key =  42;WhichDrum: C1 ; velocity: 127
@99060 , @5.223367248062016 Channel: 9 
Note on, D2 key =  38;WhichDrum: T2 ; velocity: 0
@99060 , @5.223367248062016 Channel: 9 
Note on, F#2 key =  42;WhichDrum: C1 ; velocity: 0
@99060 , @5.223367248062016 Channel: 9 
Note on, F#2 key =  42;WhichDrum: C1 ; velocity: 127
@99120 , @5.226531007751938 Channel: 9 
Note on, F#2 key =  42;WhichDrum: C1 ; velocity: 0
@99120 , @5.226531007751938 Channel: 9 
Note on, C2 key =  36;WhichDrum: B ; velocity: 127
@99120 , @5.226531007751938 Channel: 9 
Note on, F#2 key =  42;WhichDrum: C1 ; velocity: 127
@99180 , @5.229694767441861 Channel: 9 
Note on, C2 key =  36;WhichDrum: B ; velocity: 0
@99180 , @5.229694767441861 Channel: 9 
Note on, F#2 key =  42;WhichDrum: C1 ; velocity: 0
@99180 , @5.229694767441861 Channel: 9 
Note on, C2 key =  36;WhichDrum: B ; velocity: 127
@99180 , @5.229694767441861 Channel: 9 
Note on, F#2 key =  42;WhichDrum: C1 ; velocity: 127
@99200 , @5.230749354005169 Channel: 9 
Note on, C2 key =  36;WhichDrum: B ; velocity: 0
@99200 , @5.230749354005169 Channel: 9 
Note on, C2 key =  36;WhichDrum: B ; velocity: 127
@99220 , @5.231803940568476 Channel: 9 
Note on, C2 key =  36;WhichDrum: B ; velocity: 0
@99220 , @5.231803940568476 Channel: 9 
Note on, C2 key =  36;WhichDrum: B ; velocity: 127
@99240 , @5.232858527131783 Channel: 9 
Note on, F#2 key =  42;WhichDrum: C1 ; velocity: 0
@99240 , @5.232858527131783 Channel: 9 
Note on, C2 key =  36;WhichDrum: B ; velocity: 0
@99240 , @5.232858527131783 Channel: 9 
Note on, D2 key =  38;WhichDrum: T2 ; velocity: 127
@99240 , @5.232858527131783 Channel: 9 
Note on, F#2 key =  42;WhichDrum: C1 ; velocity: 127
@99300 , @5.236022286821705 Channel: 9 
Note on, D2 key =  38;WhichDrum: T2 ; velocity: 0
@99300 , @5.236022286821705 Channel: 9 
Note on, F#2 key =  42;WhichDrum: C1 ; velocity: 0
@99300 , @5.236022286821705 Channel: 9 
Note on, F#2 key =  42;WhichDrum: C1 ; velocity: 127
@99360 , @5.239186046511628 Channel: 9 
Note on, F#2 key =  42;WhichDrum: C1 ; velocity: 0
@99360 , @5.239186046511628 Channel: 9 
Note on, C2 key =  36;WhichDrum: B ; velocity: 127
@99360 , @5.239186046511628 Channel: 9 
Note on, A3 key =  57;WhichDrum: T3 ; velocity: 127
@99420 , @5.242349806201551 Channel: 9 
Note on, A3 key =  57;WhichDrum: T3 ; velocity: 0
@99420 , @5.242349806201551 Channel: 9 
Note on, F#2 key =  42;WhichDrum: C1 ; velocity: 127
@99480 , @5.245513565891473 Channel: 9 
Note on, C2 key =  36;WhichDrum: B ; velocity: 0
@99480 , @5.245513565891473 Channel: 9 
Note on, F#2 key =  42;WhichDrum: C1 ; velocity: 0
@99480 , @5.245513565891473 Channel: 9 
Note on, D2 key =  38;WhichDrum: T2 ; velocity: 127
@99480 , @5.245513565891473 Channel: 9 
Note on, F#2 key =  42;WhichDrum: C1 ; velocity: 127
@99540 , @5.248677325581395 Channel: 9 
Note on, D2 key =  38;WhichDrum: T2 ; velocity: 0
@99540 , @5.248677325581395 Channel: 9 
Note on, F#2 key =  42;WhichDrum: C1 ; velocity: 0
@99540 , @5.248677325581395 Channel: 9 
Note on, F#2 key =  42;WhichDrum: C1 ; velocity: 127
@99600 , @5.251841085271318 Channel: 9 
Note on, F#2 key =  42;WhichDrum: C1 ; velocity: 0
@99600 , @5.251841085271318 Channel: 9 
Note on, D2 key =  38;WhichDrum: T2 ; velocity: 127
@99630 , @5.25342296511628 Channel: 9 
Note on, D2 key =  38;WhichDrum: T2 ; velocity: 0
@99630 , @5.25342296511628 Channel: 9 
Note on, D2 key =  38;WhichDrum: T2 ; velocity: 127
@99660 , @5.25500484496124 Channel: 9 
Note on, D2 key =  38;WhichDrum: T2 ; velocity: 0
@99660 , @5.25500484496124 Channel: 9 
Note on, D2 key =  38;WhichDrum: T2 ; velocity: 127
@99720 , @5.258168604651163 Channel: 9 
Note on, D2 key =  38;WhichDrum: T2 ; velocity: 0
@99720 , @5.258168604651163 Channel: 9 
Note on, A2 key =  45;WhichDrum: T3 ; velocity: 127
@99750 , @5.2597504844961245 Channel: 9 
Note on, A2 key =  45;WhichDrum: T3 ; velocity: 0
@99750 , @5.2597504844961245 Channel: 9 
Note on, A2 key =  45;WhichDrum: T3 ; velocity: 127
@99780 , @5.261332364341086 Channel: 9 
Note on, A2 key =  45;WhichDrum: T3 ; velocity: 0
@99780 , @5.261332364341086 Channel: 9 
Note on, A2 key =  45;WhichDrum: T3 ; velocity: 127
@99840 , @5.264496124031008 Channel: 9 
Note on, A2 key =  45;WhichDrum: T3 ; velocity: 0
@99840 , @5.264496124031008 Channel: 9 
Note on, A3 key =  57;WhichDrum: T3 ; velocity: 127
@99840 , @5.264496124031008 Channel: 9 
Note on, C2 key =  36;WhichDrum: B ; velocity: 127
@99900 , @5.26765988372093 Channel: 9 
Note on, A3 key =  57;WhichDrum: T3 ; velocity: 0
@99900 , @5.26765988372093 Channel: 9 
Note on, F#2 key =  42;WhichDrum: C1 ; velocity: 127
@99960 , @5.270823643410853 Channel: 9 
Note on, C2 key =  36;WhichDrum: B ; velocity: 0
@99960 , @5.270823643410853 Channel: 9 
Note on, F#2 key =  42;WhichDrum: C1 ; velocity: 0
@99960 , @5.270823643410853 Channel: 9 
Note on, D2 key =  38;WhichDrum: T2 ; velocity: 127
@99960 , @5.270823643410853 Channel: 9 
Note on, F#2 key =  42;WhichDrum: C1 ; velocity: 127
@100020 , @5.273987403100775 Channel: 9 
Note on, D2 key =  38;WhichDrum: T2 ; velocity: 0
@100020 , @5.273987403100775 Channel: 9 
Note on, F#2 key =  42;WhichDrum: C1 ; velocity: 0
@100020 , @5.273987403100775 Channel: 9 
Note on, F#2 key =  42;WhichDrum: C1 ; velocity: 127
@100080 , @5.277151162790698 Channel: 9 
Note on, F#2 key =  42;WhichDrum: C1 ; velocity: 0
@100080 , @5.277151162790698 Channel: 9 
Note on, F#2 key =  42;WhichDrum: C1 ; velocity: 127
@100080 , @5.277151162790698 Channel: 9 
Note on, C2 key =  36;WhichDrum: B ; velocity: 127
@100140 , @5.2803149224806205 Channel: 9 
Note on, F#2 key =  42;WhichDrum: C1 ; velocity: 0
@100140 , @5.2803149224806205 Channel: 9 
Note on, F#2 key =  42;WhichDrum: C1 ; velocity: 127
@100200 , @5.283478682170543 Channel: 9 
Note on, C2 key =  36;WhichDrum: B ; velocity: 0
@100200 , @5.283478682170543 Channel: 9 
Note on, F#2 key =  42;WhichDrum: C1 ; velocity: 0
@100200 , @5.283478682170543 Channel: 9 
Note on, D2 key =  38;WhichDrum: T2 ; velocity: 127
@100200 , @5.283478682170543 Channel: 9 
Note on, F#2 key =  42;WhichDrum: C1 ; velocity: 127
@100260 , @5.286642441860465 Channel: 9 
Note on, D2 key =  38;WhichDrum: T2 ; velocity: 0
@100260 , @5.286642441860465 Channel: 9 
Note on, F#2 key =  42;WhichDrum: C1 ; velocity: 0
@100260 , @5.286642441860465 Channel: 9 
Note on, F#2 key =  42;WhichDrum: C1 ; velocity: 127
@100320 , @5.2898062015503875 Channel: 9 
Note on, F#2 key =  42;WhichDrum: C1 ; velocity: 0
@100320 , @5.2898062015503875 Channel: 9 
Note on, C2 key =  36;WhichDrum: B ; velocity: 127
@100320 , @5.2898062015503875 Channel: 9 
Note on, F#2 key =  42;WhichDrum: C1 ; velocity: 127
@100380 , @5.29296996124031 Channel: 9 
Note on, F#2 key =  42;WhichDrum: C1 ; velocity: 0
@100380 , @5.29296996124031 Channel: 9 
Note on, F#2 key =  42;WhichDrum: C1 ; velocity: 127
@100440 , @5.296133720930233 Channel: 9 
Note on, C2 key =  36;WhichDrum: B ; velocity: 0
@100440 , @5.296133720930233 Channel: 9 
Note on, F#2 key =  42;WhichDrum: C1 ; velocity: 0
@100440 , @5.296133720930233 Channel: 9 
Note on, D2 key =  38;WhichDrum: T2 ; velocity: 127
@100440 , @5.296133720930233 Channel: 9 
Note on, F#2 key =  42;WhichDrum: C1 ; velocity: 127
@100500 , @5.299297480620155 Channel: 9 
Note on, D2 key =  38;WhichDrum: T2 ; velocity: 0
@100500 , @5.299297480620155 Channel: 9 
Note on, F#2 key =  42;WhichDrum: C1 ; velocity: 0
@100500 , @5.299297480620155 Channel: 9 
Note on, C2 key =  36;WhichDrum: B ; velocity: 127
@100500 , @5.299297480620155 Channel: 9 
Note on, F#2 key =  42;WhichDrum: C1 ; velocity: 127
@100520 , @5.3003520671834625 Channel: 9 
Note on, C2 key =  36;WhichDrum: B ; velocity: 0
@100520 , @5.3003520671834625 Channel: 9 
Note on, C2 key =  36;WhichDrum: B ; velocity: 127
@100540 , @5.301406653746771 Channel: 9 
Note on, C2 key =  36;WhichDrum: B ; velocity: 0
@100540 , @5.301406653746771 Channel: 9 
Note on, C2 key =  36;WhichDrum: B ; velocity: 127
@100560 , @5.302461240310078 Channel: 9 
Note on, F#2 key =  42;WhichDrum: C1 ; velocity: 0
@100560 , @5.302461240310078 Channel: 9 
Note on, C2 key =  36;WhichDrum: B ; velocity: 0
@100560 , @5.302461240310078 Channel: 9 
Note on, D2 key =  38;WhichDrum: T2 ; velocity: 127
@100560 , @5.302461240310078 Channel: 9 
Note on, F#2 key =  42;WhichDrum: C1 ; velocity: 127
@100620 , @5.305625 Channel: 9 
Note on, D2 key =  38;WhichDrum: T2 ; velocity: 0
@100620 , @5.305625 Channel: 9 
Note on, F#2 key =  42;WhichDrum: C1 ; velocity: 0
@100620 , @5.305625 Channel: 9 
Note on, C2 key =  36;WhichDrum: B ; velocity: 127
@100620 , @5.305625 Channel: 9 
Note on, F#2 key =  42;WhichDrum: C1 ; velocity: 127
@100640 , @5.306679586563307 Channel: 9 
Note on, C2 key =  36;WhichDrum: B ; velocity: 0
@100640 , @5.306679586563307 Channel: 9 
Note on, C2 key =  36;WhichDrum: B ; velocity: 127
@100660 , @5.307734173126615 Channel: 9 
Note on, C2 key =  36;WhichDrum: B ; velocity: 0
@100660 , @5.307734173126615 Channel: 9 
Note on, C2 key =  36;WhichDrum: B ; velocity: 127
@100680 , @5.308788759689922 Channel: 9 
Note on, F#2 key =  42;WhichDrum: C1 ; velocity: 0
@100680 , @5.308788759689922 Channel: 9 
Note on, C2 key =  36;WhichDrum: B ; velocity: 0
@100680 , @5.308788759689922 Channel: 9 
Note on, D2 key =  38;WhichDrum: T2 ; velocity: 127
@100680 , @5.308788759689922 Channel: 9 
Note on, F#2 key =  42;WhichDrum: C1 ; velocity: 127
@100740 , @5.311952519379846 Channel: 9 
Note on, D2 key =  38;WhichDrum: T2 ; velocity: 0
@100740 , @5.311952519379846 Channel: 9 
Note on, F#2 key =  42;WhichDrum: C1 ; velocity: 0
@100740 , @5.311952519379846 Channel: 9 
Note on, C2 key =  36;WhichDrum: B ; velocity: 127
@100740 , @5.311952519379846 Channel: 9 
Note on, F#2 key =  42;WhichDrum: C1 ; velocity: 127
@100800 , @5.315116279069768 Channel: 9 
Note on, C2 key =  36;WhichDrum: B ; velocity: 0
@100800 , @5.315116279069768 Channel: 9 
Note on, F#2 key =  42;WhichDrum: C1 ; velocity: 0
@100800 , @5.315116279069768 Channel: 9 
Note on, A3 key =  57;WhichDrum: T3 ; velocity: 127
@100800 , @5.315116279069768 Channel: 9 
Note on, C2 key =  36;WhichDrum: B ; velocity: 127
@100860 , @5.31828003875969 Channel: 9 
Note on, A3 key =  57;WhichDrum: T3 ; velocity: 0
@100860 , @5.31828003875969 Channel: 9 
Note on, F#2 key =  42;WhichDrum: C1 ; velocity: 127
@100920 , @5.321443798449613 Channel: 9 
Note on, C2 key =  36;WhichDrum: B ; velocity: 0
@100920 , @5.321443798449613 Channel: 9 
Note on, F#2 key =  42;WhichDrum: C1 ; velocity: 0
@100920 , @5.321443798449613 Channel: 9 
Note on, D2 key =  38;WhichDrum: T2 ; velocity: 127
@100920 , @5.321443798449613 Channel: 9 
Note on, F#2 key =  42;WhichDrum: C1 ; velocity: 127
@100980 , @5.324607558139535 Channel: 9 
Note on, D2 key =  38;WhichDrum: T2 ; velocity: 0
@100980 , @5.324607558139535 Channel: 9 
Note on, F#2 key =  42;WhichDrum: C1 ; velocity: 0
@100980 , @5.324607558139535 Channel: 9 
Note on, F#2 key =  42;WhichDrum: C1 ; velocity: 127
@101040 , @5.327771317829457 Channel: 9 
Note on, F#2 key =  42;WhichDrum: C1 ; velocity: 0
@101040 , @5.327771317829457 Channel: 9 
Note on, F#2 key =  42;WhichDrum: C1 ; velocity: 127
@101040 , @5.327771317829457 Channel: 9 
Note on, C2 key =  36;WhichDrum: B ; velocity: 127
@101100 , @5.3309350775193804 Channel: 9 
Note on, F#2 key =  42;WhichDrum: C1 ; velocity: 0
@101100 , @5.3309350775193804 Channel: 9 
Note on, C2 key =  36;WhichDrum: B ; velocity: 0
@101100 , @5.3309350775193804 Channel: 9 
Note on, F#2 key =  42;WhichDrum: C1 ; velocity: 127
@101100 , @5.3309350775193804 Channel: 9 
Note on, C2 key =  36;WhichDrum: B ; velocity: 127
@101120 , @5.331989664082688 Channel: 9 
Note on, C2 key =  36;WhichDrum: B ; velocity: 0
@101120 , @5.331989664082688 Channel: 9 
Note on, C2 key =  36;WhichDrum: B ; velocity: 127
@101140 , @5.333044250645996 Channel: 9 
Note on, C2 key =  36;WhichDrum: B ; velocity: 0
@101140 , @5.333044250645996 Channel: 9 
Note on, C2 key =  36;WhichDrum: B ; velocity: 127
@101160 , @5.334098837209303 Channel: 9 
Note on, F#2 key =  42;WhichDrum: C1 ; velocity: 0
@101160 , @5.334098837209303 Channel: 9 
Note on, C2 key =  36;WhichDrum: B ; velocity: 0
@101160 , @5.334098837209303 Channel: 9 
Note on, D2 key =  38;WhichDrum: T2 ; velocity: 127
@101160 , @5.334098837209303 Channel: 9 
Note on, F#2 key =  42;WhichDrum: C1 ; velocity: 127
@101220 , @5.337262596899225 Channel: 9 
Note on, D2 key =  38;WhichDrum: T2 ; velocity: 0
@101220 , @5.337262596899225 Channel: 9 
Note on, F#2 key =  42;WhichDrum: C1 ; velocity: 0
@101220 , @5.337262596899225 Channel: 9 
Note on, F#2 key =  42;WhichDrum: C1 ; velocity: 127
@101220 , @5.337262596899225 Channel: 9 
Note on, C2 key =  36;WhichDrum: B ; velocity: 127
@101280 , @5.340426356589147 Channel: 9 
Note on, F#2 key =  42;WhichDrum: C1 ; velocity: 0
@101280 , @5.340426356589147 Channel: 9 
Note on, C2 key =  36;WhichDrum: B ; velocity: 0
@101280 , @5.340426356589147 Channel: 9 
Note on, C2 key =  36;WhichDrum: B ; velocity: 127
@101280 , @5.340426356589147 Channel: 9 
Note on, A3 key =  57;WhichDrum: T3 ; velocity: 127
@101340 , @5.34359011627907 Channel: 9 
Note on, A3 key =  57;WhichDrum: T3 ; velocity: 0
@101340 , @5.34359011627907 Channel: 9 
Note on, F#2 key =  42;WhichDrum: C1 ; velocity: 127
@101400 , @5.346753875968992 Channel: 9 
Note on, C2 key =  36;WhichDrum: B ; velocity: 0
@101400 , @5.346753875968992 Channel: 9 
Note on, F#2 key =  42;WhichDrum: C1 ; velocity: 0
@101400 , @5.346753875968992 Channel: 9 
Note on, D2 key =  38;WhichDrum: T2 ; velocity: 127
@101400 , @5.346753875968992 Channel: 9 
Note on, F#2 key =  42;WhichDrum: C1 ; velocity: 127
@101460 , @5.349917635658915 Channel: 9 
Note on, D2 key =  38;WhichDrum: T2 ; velocity: 0
@101460 , @5.349917635658915 Channel: 9 
Note on, F#2 key =  42;WhichDrum: C1 ; velocity: 0
@101460 , @5.349917635658915 Channel: 9 
Note on, F#2 key =  42;WhichDrum: C1 ; velocity: 127
@101520 , @5.353081395348838 Channel: 9 
Note on, F#2 key =  42;WhichDrum: C1 ; velocity: 0
@101520 , @5.353081395348838 Channel: 9 
Note on, A2 key =  45;WhichDrum: T3 ; velocity: 127
@101580 , @5.35624515503876 Channel: 9 
Note on, A2 key =  45;WhichDrum: T3 ; velocity: 0
@101580 , @5.35624515503876 Channel: 9 
Note on, A2 key =  45;WhichDrum: T3 ; velocity: 127
@101640 , @5.359408914728682 Channel: 9 
Note on, A2 key =  45;WhichDrum: T3 ; velocity: 0
@101640 , @5.359408914728682 Channel: 9 
Note on, B2 key =  47;WhichDrum: T1 ; velocity: 127
@101670 , @5.3609907945736435 Channel: 9 
Note on, B2 key =  47;WhichDrum: T1 ; velocity: 0
@101670 , @5.3609907945736435 Channel: 9 
Note on, B2 key =  47;WhichDrum: T1 ; velocity: 127
@101700 , @5.362572674418605 Channel: 9 
Note on, B2 key =  47;WhichDrum: T1 ; velocity: 0
@101700 , @5.362572674418605 Channel: 9 
Note on, B2 key =  47;WhichDrum: T1 ; velocity: 127
@101730 , @5.364154554263566 Channel: 9 
Note on, B2 key =  47;WhichDrum: T1 ; velocity: 0
@101730 , @5.364154554263566 Channel: 9 
Note on, B2 key =  47;WhichDrum: T1 ; velocity: 127
@101760 , @5.365736434108528 Channel: 9 
Note on, B2 key =  47;WhichDrum: T1 ; velocity: 0
@101760 , @5.365736434108528 Channel: 9 
Note on, A3 key =  57;WhichDrum: T3 ; velocity: 127
@101760 , @5.365736434108528 Channel: 9 
Note on, C2 key =  36;WhichDrum: B ; velocity: 127
@101820 , @5.36890019379845 Channel: 9 
Note on, A3 key =  57;WhichDrum: T3 ; velocity: 0
@101820 , @5.36890019379845 Channel: 9 
Note on, F#2 key =  42;WhichDrum: C1 ; velocity: 127
@101880 , @5.3720639534883725 Channel: 9 
Note on, C2 key =  36;WhichDrum: B ; velocity: 0
@101880 , @5.3720639534883725 Channel: 9 
Note on, F#2 key =  42;WhichDrum: C1 ; velocity: 0
@101880 , @5.3720639534883725 Channel: 9 
Note on, D2 key =  38;WhichDrum: T2 ; velocity: 127
@101880 , @5.3720639534883725 Channel: 9 
Note on, F#2 key =  42;WhichDrum: C1 ; velocity: 127
@101940 , @5.375227713178295 Channel: 9 
Note on, D2 key =  38;WhichDrum: T2 ; velocity: 0
@101940 , @5.375227713178295 Channel: 9 
Note on, F#2 key =  42;WhichDrum: C1 ; velocity: 0
@101940 , @5.375227713178295 Channel: 9 
Note on, F#2 key =  42;WhichDrum: C1 ; velocity: 127
@102000 , @5.378391472868217 Channel: 9 
Note on, F#2 key =  42;WhichDrum: C1 ; velocity: 0
@102000 , @5.378391472868217 Channel: 9 
Note on, F#2 key =  42;WhichDrum: C1 ; velocity: 127
@102000 , @5.378391472868217 Channel: 9 
Note on, C2 key =  36;WhichDrum: B ; velocity: 127
@102060 , @5.3815552325581395 Channel: 9 
Note on, F#2 key =  42;WhichDrum: C1 ; velocity: 0
@102060 , @5.3815552325581395 Channel: 9 
Note on, F#2 key =  42;WhichDrum: C1 ; velocity: 127
@102120 , @5.384718992248063 Channel: 9 
Note on, C2 key =  36;WhichDrum: B ; velocity: 0
@102120 , @5.384718992248063 Channel: 9 
Note on, F#2 key =  42;WhichDrum: C1 ; velocity: 0
@102120 , @5.384718992248063 Channel: 9 
Note on, D2 key =  38;WhichDrum: T2 ; velocity: 127
@102120 , @5.384718992248063 Channel: 9 
Note on, F#2 key =  42;WhichDrum: C1 ; velocity: 127
@102180 , @5.387882751937985 Channel: 9 
Note on, D2 key =  38;WhichDrum: T2 ; velocity: 0
@102180 , @5.387882751937985 Channel: 9 
Note on, F#2 key =  42;WhichDrum: C1 ; velocity: 0
@102180 , @5.387882751937985 Channel: 9 
Note on, F#2 key =  42;WhichDrum: C1 ; velocity: 127
@102240 , @5.391046511627907 Channel: 9 
Note on, F#2 key =  42;WhichDrum: C1 ; velocity: 0
@102240 , @5.391046511627907 Channel: 9 
Note on, D2 key =  38;WhichDrum: T2 ; velocity: 127
@102270 , @5.3926283914728685 Channel: 9 
Note on, D2 key =  38;WhichDrum: T2 ; velocity: 0
@102270 , @5.3926283914728685 Channel: 9 
Note on, D2 key =  38;WhichDrum: T2 ; velocity: 127
@102300 , @5.39421027131783 Channel: 9 
Note on, D2 key =  38;WhichDrum: T2 ; velocity: 0
@102300 , @5.39421027131783 Channel: 9 
Note on, F#2 key =  42;WhichDrum: C1 ; velocity: 127
@102360 , @5.397374031007752 Channel: 9 
Note on, F#2 key =  42;WhichDrum: C1 ; velocity: 0
@102360 , @5.397374031007752 Channel: 9 
Note on, D2 key =  38;WhichDrum: T2 ; velocity: 127
@102390 , @5.398955910852713 Channel: 9 
Note on, D2 key =  38;WhichDrum: T2 ; velocity: 0
@102390 , @5.398955910852713 Channel: 9 
Note on, D2 key =  38;WhichDrum: T2 ; velocity: 127
@102420 , @5.400537790697674 Channel: 9 
Note on, D2 key =  38;WhichDrum: T2 ; velocity: 0
@102420 , @5.400537790697674 Channel: 9 
Note on, F#2 key =  42;WhichDrum: C1 ; velocity: 127
@102480 , @5.403701550387598 Channel: 9 
Note on, F#2 key =  42;WhichDrum: C1 ; velocity: 0
@102480 , @5.403701550387598 Channel: 9 
Note on, D2 key =  38;WhichDrum: T2 ; velocity: 127
@102510 , @5.405283430232558 Channel: 9 
Note on, D2 key =  38;WhichDrum: T2 ; velocity: 0
@102510 , @5.405283430232558 Channel: 9 
Note on, D2 key =  38;WhichDrum: T2 ; velocity: 127
@102540 , @5.40686531007752 Channel: 9 
Note on, D2 key =  38;WhichDrum: T2 ; velocity: 0
@102540 , @5.40686531007752 Channel: 9 
Note on, F#2 key =  42;WhichDrum: C1 ; velocity: 127
@102595 , @5.409765423126616 Channel: 9 
Note on, F#2 key =  42;WhichDrum: C1 ; velocity: 0
@102595 , @5.409765423126616 Channel: 9 
Note on, D2 key =  38;WhichDrum: T2 ; velocity: 75
@102600 , @5.410029069767442 Channel: 9 
Note on, D2 key =  38;WhichDrum: T2 ; velocity: 0
@102600 , @5.410029069767442 Channel: 9 
Note on, D2 key =  38;WhichDrum: T2 ; velocity: 127
@102655 , @5.412929182816538 Channel: 9 
Note on, D2 key =  38;WhichDrum: T2 ; velocity: 0
@102655 , @5.412929182816538 Channel: 9 
Note on, D2 key =  38;WhichDrum: T2 ; velocity: 75
@102660 , @5.413192829457365 Channel: 9 
Note on, D2 key =  38;WhichDrum: T2 ; velocity: 0
@102660 , @5.413192829457365 Channel: 9 
Note on, D2 key =  38;WhichDrum: T2 ; velocity: 127
@102720 , @5.416356589147287 Channel: 9 
Note on, D2 key =  38;WhichDrum: T2 ; velocity: 0
@102720 , @5.416356589147287 Channel: 9 
Note on, A3 key =  57;WhichDrum: T3 ; velocity: 127
@102720 , @5.416356589147287 Channel: 9 
Note on, C2 key =  36;WhichDrum: B ; velocity: 127
@102780 , @5.41952034883721 Channel: 9 
Note on, A3 key =  57;WhichDrum: T3 ; velocity: 0
@102780 , @5.41952034883721 Channel: 9 
Note on, F#2 key =  42;WhichDrum: C1 ; velocity: 127
@102840 , @5.4226841085271325 Channel: 9 
Note on, C2 key =  36;WhichDrum: B ; velocity: 0
@102840 , @5.4226841085271325 Channel: 9 
Note on, F#2 key =  42;WhichDrum: C1 ; velocity: 0
@102840 , @5.4226841085271325 Channel: 9 
Note on, D2 key =  38;WhichDrum: T2 ; velocity: 127
@102840 , @5.4226841085271325 Channel: 9 
Note on, F#2 key =  42;WhichDrum: C1 ; velocity: 127
@102900 , @5.425847868217055 Channel: 9 
Note on, D2 key =  38;WhichDrum: T2 ; velocity: 0
@102900 , @5.425847868217055 Channel: 9 
Note on, F#2 key =  42;WhichDrum: C1 ; velocity: 0
@102900 , @5.425847868217055 Channel: 9 
Note on, F#2 key =  42;WhichDrum: C1 ; velocity: 127
@102960 , @5.429011627906977 Channel: 9 
Note on, F#2 key =  42;WhichDrum: C1 ; velocity: 0
@102960 , @5.429011627906977 Channel: 9 
Note on, F#2 key =  42;WhichDrum: C1 ; velocity: 127
@102960 , @5.429011627906977 Channel: 9 
Note on, C2 key =  36;WhichDrum: B ; velocity: 127
@103020 , @5.432175387596899 Channel: 9 
Note on, F#2 key =  42;WhichDrum: C1 ; velocity: 0
@103020 , @5.432175387596899 Channel: 9 
Note on, C2 key =  36;WhichDrum: B ; velocity: 0
@103020 , @5.432175387596899 Channel: 9 
Note on, F#2 key =  42;WhichDrum: C1 ; velocity: 127
@103020 , @5.432175387596899 Channel: 9 
Note on, C2 key =  36;WhichDrum: B ; velocity: 127
@103040 , @5.433229974160207 Channel: 9 
Note on, C2 key =  36;WhichDrum: B ; velocity: 0
@103040 , @5.433229974160207 Channel: 9 
Note on, C2 key =  36;WhichDrum: B ; velocity: 127
@103060 , @5.434284560723514 Channel: 9 
Note on, C2 key =  36;WhichDrum: B ; velocity: 0
@103060 , @5.434284560723514 Channel: 9 
Note on, C2 key =  36;WhichDrum: B ; velocity: 127
@103080 , @5.435339147286822 Channel: 9 
Note on, F#2 key =  42;WhichDrum: C1 ; velocity: 0
@103080 , @5.435339147286822 Channel: 9 
Note on, C2 key =  36;WhichDrum: B ; velocity: 0
@103080 , @5.435339147286822 Channel: 9 
Note on, D2 key =  38;WhichDrum: T2 ; velocity: 127
@103080 , @5.435339147286822 Channel: 9 
Note on, A3 key =  57;WhichDrum: T3 ; velocity: 127
@103200 , @5.441666666666667 Channel: 9 
Note on, D2 key =  38;WhichDrum: T2 ; velocity: 0
@103200 , @5.441666666666667 Channel: 9 
Note on, A3 key =  57;WhichDrum: T3 ; velocity: 0
@103200 , @5.441666666666667 Channel: 9 
Note on, C2 key =  36;WhichDrum: B ; velocity: 127
@103200 , @5.441666666666667 Channel: 9 
Note on, A3 key =  57;WhichDrum: T3 ; velocity: 127
@103320 , @5.447994186046512 Channel: 9 
Note on, C2 key =  36;WhichDrum: B ; velocity: 0
@103320 , @5.447994186046512 Channel: 9 
Note on, A3 key =  57;WhichDrum: T3 ; velocity: 0
@103320 , @5.447994186046512 Channel: 9 
Note on, D2 key =  38;WhichDrum: T2 ; velocity: 127
@103320 , @5.447994186046512 Channel: 9 
Note on, F#2 key =  42;WhichDrum: C1 ; velocity: 127
@103380 , @5.451157945736434 Channel: 9 
Note on, D2 key =  38;WhichDrum: T2 ; velocity: 0
@103380 , @5.451157945736434 Channel: 9 
Note on, F#2 key =  42;WhichDrum: C1 ; velocity: 0
@103380 , @5.451157945736434 Channel: 9 
Note on, F#2 key =  42;WhichDrum: C1 ; velocity: 127
@103440 , @5.454321705426357 Channel: 9 
Note on, F#2 key =  42;WhichDrum: C1 ; velocity: 0
@103440 , @5.454321705426357 Channel: 9 
Note on, C2 key =  36;WhichDrum: B ; velocity: 127
@103440 , @5.454321705426357 Channel: 9 
Note on, A3 key =  57;WhichDrum: T3 ; velocity: 127
@103500 , @5.45748546511628 Channel: 9 
Note on, C2 key =  36;WhichDrum: B ; velocity: 0
@103500 , @5.45748546511628 Channel: 9 
Note on, A3 key =  57;WhichDrum: T3 ; velocity: 0
@103500 , @5.45748546511628 Channel: 9 
Note on, C2 key =  36;WhichDrum: B ; velocity: 127
@103500 , @5.45748546511628 Channel: 9 
Note on, A3 key =  57;WhichDrum: T3 ; velocity: 127
@103560 , @5.460649224806202 Channel: 9 
Note on, C2 key =  36;WhichDrum: B ; velocity: 0
@103560 , @5.460649224806202 Channel: 9 
Note on, A3 key =  57;WhichDrum: T3 ; velocity: 0
@103560 , @5.460649224806202 Channel: 9 
Note on, C2 key =  36;WhichDrum: B ; velocity: 127
@103560 , @5.460649224806202 Channel: 9 
Note on, A3 key =  57;WhichDrum: T3 ; velocity: 127
@103620 , @5.4638129844961245 Channel: 9 
Note on, C2 key =  36;WhichDrum: B ; velocity: 0
@103620 , @5.4638129844961245 Channel: 9 
Note on, A3 key =  57;WhichDrum: T3 ; velocity: 0
@103620 , @5.4638129844961245 Channel: 9 
Note on, C2 key =  36;WhichDrum: B ; velocity: 127
@103620 , @5.4638129844961245 Channel: 9 
Note on, A3 key =  57;WhichDrum: T3 ; velocity: 127
@103680 , @5.466976744186047 Channel: 9 
Note on, C2 key =  36;WhichDrum: B ; velocity: 0
@103680 , @5.466976744186047 Channel: 9 
Note on, A3 key =  57;WhichDrum: T3 ; velocity: 0
@103680 , @5.466976744186047 Channel: 9 
Note on, A3 key =  57;WhichDrum: T3 ; velocity: 127
@103680 , @5.466976744186047 Channel: 9 
Note on, C2 key =  36;WhichDrum: B ; velocity: 127
@103740 , @5.470140503875969 Channel: 9 
Note on, A3 key =  57;WhichDrum: T3 ; velocity: 0
@103740 , @5.470140503875969 Channel: 9 
Note on, F#2 key =  42;WhichDrum: C1 ; velocity: 127
@103800 , @5.473304263565892 Channel: 9 
Note on, C2 key =  36;WhichDrum: B ; velocity: 0
@103800 , @5.473304263565892 Channel: 9 
Note on, F#2 key =  42;WhichDrum: C1 ; velocity: 0
@103800 , @5.473304263565892 Channel: 9 
Note on, D2 key =  38;WhichDrum: T2 ; velocity: 127
@103800 , @5.473304263565892 Channel: 9 
Note on, F#2 key =  42;WhichDrum: C1 ; velocity: 127
@103860 , @5.476468023255815 Channel: 9 
Note on, D2 key =  38;WhichDrum: T2 ; velocity: 0
@103860 , @5.476468023255815 Channel: 9 
Note on, F#2 key =  42;WhichDrum: C1 ; velocity: 0
@103860 , @5.476468023255815 Channel: 9 
Note on, F#2 key =  42;WhichDrum: C1 ; velocity: 127
@103920 , @5.479631782945737 Channel: 9 
Note on, F#2 key =  42;WhichDrum: C1 ; velocity: 0
@103920 , @5.479631782945737 Channel: 9 
Note on, F#2 key =  42;WhichDrum: C1 ; velocity: 127
@103920 , @5.479631782945737 Channel: 9 
Note on, C2 key =  36;WhichDrum: B ; velocity: 127
@103980 , @5.482795542635659 Channel: 9 
Note on, F#2 key =  42;WhichDrum: C1 ; velocity: 0
@103980 , @5.482795542635659 Channel: 9 
Note on, F#2 key =  42;WhichDrum: C1 ; velocity: 127
@104040 , @5.485959302325582 Channel: 9 
Note on, C2 key =  36;WhichDrum: B ; velocity: 0
@104040 , @5.485959302325582 Channel: 9 
Note on, F#2 key =  42;WhichDrum: C1 ; velocity: 0
@104040 , @5.485959302325582 Channel: 9 
Note on, D2 key =  38;WhichDrum: T2 ; velocity: 127
@104040 , @5.485959302325582 Channel: 9 
Note on, F#2 key =  42;WhichDrum: C1 ; velocity: 127
@104100 , @5.489123062015504 Channel: 9 
Note on, D2 key =  38;WhichDrum: T2 ; velocity: 0
@104100 , @5.489123062015504 Channel: 9 
Note on, F#2 key =  42;WhichDrum: C1 ; velocity: 0
@104100 , @5.489123062015504 Channel: 9 
Note on, F#2 key =  42;WhichDrum: C1 ; velocity: 127
@104160 , @5.492286821705427 Channel: 9 
Note on, F#2 key =  42;WhichDrum: C1 ; velocity: 0
@104160 , @5.492286821705427 Channel: 9 
Note on, C2 key =  36;WhichDrum: B ; velocity: 127
@104160 , @5.492286821705427 Channel: 9 
Note on, F#2 key =  42;WhichDrum: C1 ; velocity: 127
@104220 , @5.49545058139535 Channel: 9 
Note on, C2 key =  36;WhichDrum: B ; velocity: 0
@104220 , @5.49545058139535 Channel: 9 
Note on, F#2 key =  42;WhichDrum: C1 ; velocity: 0
@104220 , @5.49545058139535 Channel: 9 
Note on, C2 key =  36;WhichDrum: B ; velocity: 127
@104220 , @5.49545058139535 Channel: 9 
Note on, F#2 key =  42;WhichDrum: C1 ; velocity: 127
@104240 , @5.496505167958657 Channel: 9 
Note on, C2 key =  36;WhichDrum: B ; velocity: 0
@104240 , @5.496505167958657 Channel: 9 
Note on, C2 key =  36;WhichDrum: B ; velocity: 127
@104260 , @5.497559754521964 Channel: 9 
Note on, C2 key =  36;WhichDrum: B ; velocity: 0
@104260 , @5.497559754521964 Channel: 9 
Note on, C2 key =  36;WhichDrum: B ; velocity: 127
@104280 , @5.498614341085272 Channel: 9 
Note on, F#2 key =  42;WhichDrum: C1 ; velocity: 0
@104280 , @5.498614341085272 Channel: 9 
Note on, C2 key =  36;WhichDrum: B ; velocity: 0
@104280 , @5.498614341085272 Channel: 9 
Note on, D2 key =  38;WhichDrum: T2 ; velocity: 127
@104280 , @5.498614341085272 Channel: 9 
Note on, F#2 key =  42;WhichDrum: C1 ; velocity: 127
@104340 , @5.501778100775194 Channel: 9 
Note on, D2 key =  38;WhichDrum: T2 ; velocity: 0
@104340 , @5.501778100775194 Channel: 9 
Note on, F#2 key =  42;WhichDrum: C1 ; velocity: 0
@104340 , @5.501778100775194 Channel: 9 
Note on, C2 key =  36;WhichDrum: B ; velocity: 127
@104340 , @5.501778100775194 Channel: 9 
Note on, F#2 key =  42;WhichDrum: C1 ; velocity: 127
@104360 , @5.502832687338501 Channel: 9 
Note on, C2 key =  36;WhichDrum: B ; velocity: 0
@104360 , @5.502832687338501 Channel: 9 
Note on, C2 key =  36;WhichDrum: B ; velocity: 127
@104380 , @5.5038872739018085 Channel: 9 
Note on, C2 key =  36;WhichDrum: B ; velocity: 0
@104380 , @5.5038872739018085 Channel: 9 
Note on, C2 key =  36;WhichDrum: B ; velocity: 127
@104400 , @5.504941860465117 Channel: 9 
Note on, F#2 key =  42;WhichDrum: C1 ; velocity: 0
@104400 , @5.504941860465117 Channel: 9 
Note on, C2 key =  36;WhichDrum: B ; velocity: 0
@104400 , @5.504941860465117 Channel: 9 
Note on, D2 key =  38;WhichDrum: T2 ; velocity: 127
@104400 , @5.504941860465117 Channel: 9 
Note on, F#2 key =  42;WhichDrum: C1 ; velocity: 127
@104460 , @5.508105620155039 Channel: 9 
Note on, D2 key =  38;WhichDrum: T2 ; velocity: 0
@104460 , @5.508105620155039 Channel: 9 
Note on, F#2 key =  42;WhichDrum: C1 ; velocity: 0
@104460 , @5.508105620155039 Channel: 9 
Note on, C2 key =  36;WhichDrum: B ; velocity: 127
@104460 , @5.508105620155039 Channel: 9 
Note on, F#2 key =  42;WhichDrum: C1 ; velocity: 127
@104480 , @5.509160206718347 Channel: 9 
Note on, C2 key =  36;WhichDrum: B ; velocity: 0
@104480 , @5.509160206718347 Channel: 9 
Note on, C2 key =  36;WhichDrum: B ; velocity: 127
@104500 , @5.510214793281654 Channel: 9 
Note on, C2 key =  36;WhichDrum: B ; velocity: 0
@104500 , @5.510214793281654 Channel: 9 
Note on, C2 key =  36;WhichDrum: B ; velocity: 127
@104520 , @5.511269379844961 Channel: 9 
Note on, F#2 key =  42;WhichDrum: C1 ; velocity: 0
@104520 , @5.511269379844961 Channel: 9 
Note on, C2 key =  36;WhichDrum: B ; velocity: 0
@104520 , @5.511269379844961 Channel: 9 
Note on, D2 key =  38;WhichDrum: T2 ; velocity: 127
@104520 , @5.511269379844961 Channel: 9 
Note on, F#2 key =  42;WhichDrum: C1 ; velocity: 127
@104580 , @5.514433139534884 Channel: 9 
Note on, D2 key =  38;WhichDrum: T2 ; velocity: 0
@104580 , @5.514433139534884 Channel: 9 
Note on, F#2 key =  42;WhichDrum: C1 ; velocity: 0
@104580 , @5.514433139534884 Channel: 9 
Note on, A3 key =  57;WhichDrum: T3 ; velocity: 127
@104580 , @5.514433139534884 Channel: 9 
Note on, C2 key =  36;WhichDrum: B ; velocity: 127
@104640 , @5.517596899224806 Channel: 9 
Note on, A3 key =  57;WhichDrum: T3 ; velocity: 0
@104640 , @5.517596899224806 Channel: 9 
Note on, C2 key =  36;WhichDrum: B ; velocity: 0
@104640 , @5.517596899224806 Channel: 9 
Note on, C2 key =  36;WhichDrum: B ; velocity: 127
@104640 , @5.517596899224806 Channel: 9 
Note on, A3 key =  57;WhichDrum: T3 ; velocity: 127
@104760 , @5.523924418604651 Channel: 9 
Note on, C2 key =  36;WhichDrum: B ; velocity: 0
@104760 , @5.523924418604651 Channel: 9 
Note on, A3 key =  57;WhichDrum: T3 ; velocity: 0
@104760 , @5.523924418604651 Channel: 9 
Note on, D2 key =  38;WhichDrum: T2 ; velocity: 127
@104760 , @5.523924418604651 Channel: 9 
Note on, F#2 key =  42;WhichDrum: C1 ; velocity: 127
@104820 , @5.527088178294574 Channel: 9 
Note on, D2 key =  38;WhichDrum: T2 ; velocity: 0
@104820 , @5.527088178294574 Channel: 9 
Note on, F#2 key =  42;WhichDrum: C1 ; velocity: 0
@104820 , @5.527088178294574 Channel: 9 
Note on, F#2 key =  42;WhichDrum: C1 ; velocity: 127
@104880 , @5.530251937984496 Channel: 9 
Note on, F#2 key =  42;WhichDrum: C1 ; velocity: 0
@104880 , @5.530251937984496 Channel: 9 
Note on, F#2 key =  42;WhichDrum: C1 ; velocity: 127
@104880 , @5.530251937984496 Channel: 9 
Note on, C2 key =  36;WhichDrum: B ; velocity: 127
@104940 , @5.533415697674418 Channel: 9 
Note on, F#2 key =  42;WhichDrum: C1 ; velocity: 0
@104940 , @5.533415697674418 Channel: 9 
Note on, C2 key =  36;WhichDrum: B ; velocity: 0
@104940 , @5.533415697674418 Channel: 9 
Note on, F#2 key =  42;WhichDrum: C1 ; velocity: 127
@104940 , @5.533415697674418 Channel: 9 
Note on, C2 key =  36;WhichDrum: B ; velocity: 127
@104960 , @5.5344702842377265 Channel: 9 
Note on, C2 key =  36;WhichDrum: B ; velocity: 0
@104960 , @5.5344702842377265 Channel: 9 
Note on, C2 key =  36;WhichDrum: B ; velocity: 127
@104980 , @5.535524870801034 Channel: 9 
Note on, C2 key =  36;WhichDrum: B ; velocity: 0
@104980 , @5.535524870801034 Channel: 9 
Note on, C2 key =  36;WhichDrum: B ; velocity: 127
@105000 , @5.536579457364341 Channel: 9 
Note on, F#2 key =  42;WhichDrum: C1 ; velocity: 0
@105000 , @5.536579457364341 Channel: 9 
Note on, C2 key =  36;WhichDrum: B ; velocity: 0
@105000 , @5.536579457364341 Channel: 9 
Note on, D2 key =  38;WhichDrum: T2 ; velocity: 127
@105000 , @5.536579457364341 Channel: 9 
Note on, A3 key =  57;WhichDrum: T3 ; velocity: 127
@105120 , @5.542906976744186 Channel: 9 
Note on, D2 key =  38;WhichDrum: T2 ; velocity: 0
@105120 , @5.542906976744186 Channel: 9 
Note on, A3 key =  57;WhichDrum: T3 ; velocity: 0
@105120 , @5.542906976744186 Channel: 9 
Note on, C2 key =  36;WhichDrum: B ; velocity: 127
@105120 , @5.542906976744186 Channel: 9 
Note on, A3 key =  57;WhichDrum: T3 ; velocity: 127
@105240 , @5.549234496124031 Channel: 9 
Note on, C2 key =  36;WhichDrum: B ; velocity: 0
@105240 , @5.549234496124031 Channel: 9 
Note on, A3 key =  57;WhichDrum: T3 ; velocity: 0
@105240 , @5.549234496124031 Channel: 9 
Note on, F#2 key =  42;WhichDrum: C1 ; velocity: 127
@105240 , @5.549234496124031 Channel: 9 
Note on, D2 key =  38;WhichDrum: T2 ; velocity: 127
@105300 , @5.552398255813953 Channel: 9 
Note on, F#2 key =  42;WhichDrum: C1 ; velocity: 0
@105300 , @5.552398255813953 Channel: 9 
Note on, D2 key =  38;WhichDrum: T2 ; velocity: 0
@105300 , @5.552398255813953 Channel: 9 
Note on, F#2 key =  42;WhichDrum: C1 ; velocity: 127
@105355 , @5.555298368863049 Channel: 9 
Note on, D2 key =  38;WhichDrum: T2 ; velocity: 75
@105360 , @5.555562015503876 Channel: 9 
Note on, F#2 key =  42;WhichDrum: C1 ; velocity: 0
@105360 , @5.555562015503876 Channel: 9 
Note on, D2 key =  38;WhichDrum: T2 ; velocity: 0
@105360 , @5.555562015503876 Channel: 9 
Note on, D2 key =  38;WhichDrum: T2 ; velocity: 127
@105420 , @5.558725775193798 Channel: 9 
Note on, D2 key =  38;WhichDrum: T2 ; velocity: 0
@105420 , @5.558725775193798 Channel: 9 
Note on, D2 key =  38;WhichDrum: T2 ; velocity: 127
@105480 , @5.561889534883721 Channel: 9 
Note on, D2 key =  38;WhichDrum: T2 ; velocity: 0
@105480 , @5.561889534883721 Channel: 9 
Note on, A2 key =  45;WhichDrum: T3 ; velocity: 127
@105510 , @5.563471414728682 Channel: 9 
Note on, A2 key =  45;WhichDrum: T3 ; velocity: 0
@105510 , @5.563471414728682 Channel: 9 
Note on, A2 key =  45;WhichDrum: T3 ; velocity: 127
@105540 , @5.5650532945736435 Channel: 9 
Note on, A2 key =  45;WhichDrum: T3 ; velocity: 0
@105540 , @5.5650532945736435 Channel: 9 
Note on, A2 key =  45;WhichDrum: T3 ; velocity: 127
@105600 , @5.568217054263566 Channel: 9 
Note on, A2 key =  45;WhichDrum: T3 ; velocity: 0
@105600 , @5.568217054263566 Channel: 9 
Note on, C2 key =  36;WhichDrum: B ; velocity: 127
@105600 , @5.568217054263566 Channel: 9 
Note on, A3 key =  57;WhichDrum: T3 ; velocity: 127
@105660 , @5.571380813953488 Channel: 9 
Note on, A3 key =  57;WhichDrum: T3 ; velocity: 0
@105660 , @5.571380813953488 Channel: 9 
Note on, F#2 key =  42;WhichDrum: C1 ; velocity: 127
@105720 , @5.5745445736434105 Channel: 9 
Note on, C2 key =  36;WhichDrum: B ; velocity: 0
@105720 , @5.5745445736434105 Channel: 9 
Note on, F#2 key =  42;WhichDrum: C1 ; velocity: 0
@105720 , @5.5745445736434105 Channel: 9 
Note on, D2 key =  38;WhichDrum: T2 ; velocity: 127
@105720 , @5.5745445736434105 Channel: 9 
Note on, F#2 key =  42;WhichDrum: C1 ; velocity: 127
@105780 , @5.577708333333334 Channel: 9 
Note on, D2 key =  38;WhichDrum: T2 ; velocity: 0
@105780 , @5.577708333333334 Channel: 9 
Note on, F#2 key =  42;WhichDrum: C1 ; velocity: 0
@105780 , @5.577708333333334 Channel: 9 
Note on, F#2 key =  42;WhichDrum: C1 ; velocity: 127
@105840 , @5.580872093023256 Channel: 9 
Note on, F#2 key =  42;WhichDrum: C1 ; velocity: 0
@105840 , @5.580872093023256 Channel: 9 
Note on, C2 key =  36;WhichDrum: B ; velocity: 127
@105840 , @5.580872093023256 Channel: 9 
Note on, F#2 key =  42;WhichDrum: C1 ; velocity: 127
@105900 , @5.584035852713178 Channel: 9 
Note on, F#2 key =  42;WhichDrum: C1 ; velocity: 0
@105900 , @5.584035852713178 Channel: 9 
Note on, F#2 key =  42;WhichDrum: C1 ; velocity: 127
@105960 , @5.587199612403101 Channel: 9 
Note on, C2 key =  36;WhichDrum: B ; velocity: 0
@105960 , @5.587199612403101 Channel: 9 
Note on, F#2 key =  42;WhichDrum: C1 ; velocity: 0
@105960 , @5.587199612403101 Channel: 9 
Note on, D2 key =  38;WhichDrum: T2 ; velocity: 127
@105960 , @5.587199612403101 Channel: 9 
Note on, F#2 key =  42;WhichDrum: C1 ; velocity: 127
@106020 , @5.590363372093023 Channel: 9 
Note on, D2 key =  38;WhichDrum: T2 ; velocity: 0
@106020 , @5.590363372093023 Channel: 9 
Note on, F#2 key =  42;WhichDrum: C1 ; velocity: 0
@106020 , @5.590363372093023 Channel: 9 
Note on, F#2 key =  42;WhichDrum: C1 ; velocity: 127
@106080 , @5.593527131782945 Channel: 9 
Note on, F#2 key =  42;WhichDrum: C1 ; velocity: 0
@106080 , @5.593527131782945 Channel: 9 
Note on, F#2 key =  42;WhichDrum: C1 ; velocity: 127
@106080 , @5.593527131782945 Channel: 9 
Note on, C2 key =  36;WhichDrum: B ; velocity: 127
@106140 , @5.596690891472869 Channel: 9 
Note on, F#2 key =  42;WhichDrum: C1 ; velocity: 0
@106140 , @5.596690891472869 Channel: 9 
Note on, F#2 key =  42;WhichDrum: C1 ; velocity: 127
@106200 , @5.599854651162791 Channel: 9 
Note on, C2 key =  36;WhichDrum: B ; velocity: 0
@106200 , @5.599854651162791 Channel: 9 
Note on, F#2 key =  42;WhichDrum: C1 ; velocity: 0
@106200 , @5.599854651162791 Channel: 9 
Note on, D2 key =  38;WhichDrum: T2 ; velocity: 127
@106200 , @5.599854651162791 Channel: 9 
Note on, F#2 key =  42;WhichDrum: C1 ; velocity: 127
@106260 , @5.603018410852713 Channel: 9 
Note on, D2 key =  38;WhichDrum: T2 ; velocity: 0
@106260 , @5.603018410852713 Channel: 9 
Note on, F#2 key =  42;WhichDrum: C1 ; velocity: 0
@106260 , @5.603018410852713 Channel: 9 
Note on, F#2 key =  42;WhichDrum: C1 ; velocity: 127
@106320 , @5.606182170542636 Channel: 9 
Note on, F#2 key =  42;WhichDrum: C1 ; velocity: 0
@106320 , @5.606182170542636 Channel: 9 
Note on, F#2 key =  42;WhichDrum: C1 ; velocity: 127
@106320 , @5.606182170542636 Channel: 9 
Note on, C2 key =  36;WhichDrum: B ; velocity: 127
@106380 , @5.609345930232558 Channel: 9 
Note on, F#2 key =  42;WhichDrum: C1 ; velocity: 0
@106380 , @5.609345930232558 Channel: 9 
Note on, D2 key =  38;WhichDrum: T2 ; velocity: 127
@106440 , @5.61250968992248 Channel: 9 
Note on, C2 key =  36;WhichDrum: B ; velocity: 0
@106440 , @5.61250968992248 Channel: 9 
Note on, D2 key =  38;WhichDrum: T2 ; velocity: 0
@106440 , @5.61250968992248 Channel: 9 
Note on, D2 key =  38;WhichDrum: T2 ; velocity: 127
@106500 , @5.6156734496124034 Channel: 9 
Note on, D2 key =  38;WhichDrum: T2 ; velocity: 0
@106500 , @5.6156734496124034 Channel: 9 
Note on, A3 key =  57;WhichDrum: T3 ; velocity: 127
@106500 , @5.6156734496124034 Channel: 9 
Note on, C2 key =  36;WhichDrum: B ; velocity: 127
@106560 , @5.618837209302326 Channel: 9 
Note on, A3 key =  57;WhichDrum: T3 ; velocity: 0
@106560 , @5.618837209302326 Channel: 9 
Note on, C2 key =  36;WhichDrum: B ; velocity: 0
@106560 , @5.618837209302326 Channel: 9 
Note on, C2 key =  36;WhichDrum: B ; velocity: 127
@106560 , @5.618837209302326 Channel: 9 
Note on, A3 key =  57;WhichDrum: T3 ; velocity: 127
@106620 , @5.622000968992248 Channel: 9 
Note on, A3 key =  57;WhichDrum: T3 ; velocity: 0
@106620 , @5.622000968992248 Channel: 9 
Note on, F#2 key =  42;WhichDrum: C1 ; velocity: 127
@106680 , @5.62516472868217 Channel: 9 
Note on, C2 key =  36;WhichDrum: B ; velocity: 0
@106680 , @5.62516472868217 Channel: 9 
Note on, F#2 key =  42;WhichDrum: C1 ; velocity: 0
@106680 , @5.62516472868217 Channel: 9 
Note on, F#2 key =  42;WhichDrum: C1 ; velocity: 127
@106740 , @5.628328488372093 Channel: 9 
Note on, F#2 key =  42;WhichDrum: C1 ; velocity: 0
@106740 , @5.628328488372093 Channel: 9 
Note on, C2 key =  36;WhichDrum: B ; velocity: 127
@106740 , @5.628328488372093 Channel: 9 
Note on, F#2 key =  42;WhichDrum: C1 ; velocity: 127
@106800 , @5.631492248062016 Channel: 9 
Note on, C2 key =  36;WhichDrum: B ; velocity: 0
@106800 , @5.631492248062016 Channel: 9 
Note on, F#2 key =  42;WhichDrum: C1 ; velocity: 0
@106800 , @5.631492248062016 Channel: 9 
Note on, F#2 key =  42;WhichDrum: C1 ; velocity: 127
@106800 , @5.631492248062016 Channel: 9 
Note on, D2 key =  38;WhichDrum: T2 ; velocity: 127
@106860 , @5.634656007751938 Channel: 9 
Note on, F#2 key =  42;WhichDrum: C1 ; velocity: 0
@106860 , @5.634656007751938 Channel: 9 
Note on, D2 key =  38;WhichDrum: T2 ; velocity: 0
@106860 , @5.634656007751938 Channel: 9 
Note on, F#2 key =  42;WhichDrum: C1 ; velocity: 127
@106920 , @5.637819767441861 Channel: 9 
Note on, F#2 key =  42;WhichDrum: C1 ; velocity: 0
@106920 , @5.637819767441861 Channel: 9 
Note on, F#2 key =  42;WhichDrum: C1 ; velocity: 127
@106980 , @5.640983527131783 Channel: 9 
Note on, F#2 key =  42;WhichDrum: C1 ; velocity: 0
@106980 , @5.640983527131783 Channel: 9 
Note on, C2 key =  36;WhichDrum: B ; velocity: 127
@106980 , @5.640983527131783 Channel: 9 
Note on, F#2 key =  42;WhichDrum: C1 ; velocity: 127
@107040 , @5.644147286821705 Channel: 9 
Note on, C2 key =  36;WhichDrum: B ; velocity: 0
@107040 , @5.644147286821705 Channel: 9 
Note on, F#2 key =  42;WhichDrum: C1 ; velocity: 0
@107040 , @5.644147286821705 Channel: 9 
Note on, F#2 key =  42;WhichDrum: C1 ; velocity: 127
@107040 , @5.644147286821705 Channel: 9 
Note on, C2 key =  36;WhichDrum: B ; velocity: 127
@107100 , @5.647311046511628 Channel: 9 
Note on, F#2 key =  42;WhichDrum: C1 ; velocity: 0
@107100 , @5.647311046511628 Channel: 9 
Note on, F#2 key =  42;WhichDrum: C1 ; velocity: 127
@107160 , @5.650474806201551 Channel: 9 
Note on, C2 key =  36;WhichDrum: B ; velocity: 0
@107160 , @5.650474806201551 Channel: 9 
Note on, F#2 key =  42;WhichDrum: C1 ; velocity: 0
@107160 , @5.650474806201551 Channel: 9 
Note on, F#2 key =  42;WhichDrum: C1 ; velocity: 127
@107220 , @5.653638565891473 Channel: 9 
Note on, F#2 key =  42;WhichDrum: C1 ; velocity: 0
@107220 , @5.653638565891473 Channel: 9 
Note on, F#2 key =  42;WhichDrum: C1 ; velocity: 127
@107220 , @5.653638565891473 Channel: 9 
Note on, C2 key =  36;WhichDrum: B ; velocity: 127
@107240 , @5.65469315245478 Channel: 9 
Note on, C2 key =  36;WhichDrum: B ; velocity: 0
@107240 , @5.65469315245478 Channel: 9 
Note on, C2 key =  36;WhichDrum: B ; velocity: 127
@107260 , @5.655747739018088 Channel: 9 
Note on, C2 key =  36;WhichDrum: B ; velocity: 0
@107260 , @5.655747739018088 Channel: 9 
Note on, C2 key =  36;WhichDrum: B ; velocity: 127
@107280 , @5.6568023255813955 Channel: 9 
Note on, F#2 key =  42;WhichDrum: C1 ; velocity: 0
@107280 , @5.6568023255813955 Channel: 9 
Note on, C2 key =  36;WhichDrum: B ; velocity: 0
@107280 , @5.6568023255813955 Channel: 9 
Note on, D2 key =  38;WhichDrum: T2 ; velocity: 127
@107280 , @5.6568023255813955 Channel: 9 
Note on, F#2 key =  42;WhichDrum: C1 ; velocity: 127
@107340 , @5.659966085271318 Channel: 9 
Note on, D2 key =  38;WhichDrum: T2 ; velocity: 0
@107340 , @5.659966085271318 Channel: 9 
Note on, F#2 key =  42;WhichDrum: C1 ; velocity: 0
@107340 , @5.659966085271318 Channel: 9 
Note on, F#2 key =  42;WhichDrum: C1 ; velocity: 127
@107340 , @5.659966085271318 Channel: 9 
Note on, C2 key =  36;WhichDrum: B ; velocity: 127
@107400 , @5.66312984496124 Channel: 9 
Note on, F#2 key =  42;WhichDrum: C1 ; velocity: 0
@107400 , @5.66312984496124 Channel: 9 
Note on, C2 key =  36;WhichDrum: B ; velocity: 0
@107400 , @5.66312984496124 Channel: 9 
Note on, F#2 key =  42;WhichDrum: C1 ; velocity: 127
@107460 , @5.6662936046511625 Channel: 9 
Note on, F#2 key =  42;WhichDrum: C1 ; velocity: 0
@107460 , @5.6662936046511625 Channel: 9 
Note on, F#2 key =  42;WhichDrum: C1 ; velocity: 127
@107460 , @5.6662936046511625 Channel: 9 
Note on, C2 key =  36;WhichDrum: B ; velocity: 127
@107520 , @5.669457364341086 Channel: 9 
Note on, F#2 key =  42;WhichDrum: C1 ; velocity: 0
@107520 , @5.669457364341086 Channel: 9 
Note on, C2 key =  36;WhichDrum: B ; velocity: 0
@107520 , @5.669457364341086 Channel: 9 
Note on, F#2 key =  42;WhichDrum: C1 ; velocity: 127
@107520 , @5.669457364341086 Channel: 9 
Note on, C2 key =  36;WhichDrum: B ; velocity: 127
@107580 , @5.672621124031008 Channel: 9 
Note on, F#2 key =  42;WhichDrum: C1 ; velocity: 0
@107580 , @5.672621124031008 Channel: 9 
Note on, F#2 key =  42;WhichDrum: C1 ; velocity: 127
@107640 , @5.67578488372093 Channel: 9 
Note on, C2 key =  36;WhichDrum: B ; velocity: 0
@107640 , @5.67578488372093 Channel: 9 
Note on, F#2 key =  42;WhichDrum: C1 ; velocity: 0
@107640 , @5.67578488372093 Channel: 9 
Note on, F#2 key =  42;WhichDrum: C1 ; velocity: 127
@107700 , @5.678948643410853 Channel: 9 
Note on, F#2 key =  42;WhichDrum: C1 ; velocity: 0
@107700 , @5.678948643410853 Channel: 9 
Note on, C2 key =  36;WhichDrum: B ; velocity: 127
@107700 , @5.678948643410853 Channel: 9 
Note on, F#2 key =  42;WhichDrum: C1 ; velocity: 127
@107760 , @5.682112403100775 Channel: 9 
Note on, C2 key =  36;WhichDrum: B ; velocity: 0
@107760 , @5.682112403100775 Channel: 9 
Note on, F#2 key =  42;WhichDrum: C1 ; velocity: 0
@107760 , @5.682112403100775 Channel: 9 
Note on, F#2 key =  42;WhichDrum: C1 ; velocity: 127
@107760 , @5.682112403100775 Channel: 9 
Note on, D2 key =  38;WhichDrum: T2 ; velocity: 127
@107820 , @5.685276162790698 Channel: 9 
Note on, F#2 key =  42;WhichDrum: C1 ; velocity: 0
@107820 , @5.685276162790698 Channel: 9 
Note on, D2 key =  38;WhichDrum: T2 ; velocity: 0
@107820 , @5.685276162790698 Channel: 9 
Note on, F#2 key =  42;WhichDrum: C1 ; velocity: 127
@107880 , @5.688439922480621 Channel: 9 
Note on, F#2 key =  42;WhichDrum: C1 ; velocity: 0
@107880 , @5.688439922480621 Channel: 9 
Note on, F#2 key =  42;WhichDrum: C1 ; velocity: 127
@107940 , @5.691603682170543 Channel: 9 
Note on, F#2 key =  42;WhichDrum: C1 ; velocity: 0
@107940 , @5.691603682170543 Channel: 9 
Note on, C2 key =  36;WhichDrum: B ; velocity: 127
@107940 , @5.691603682170543 Channel: 9 
Note on, F#2 key =  42;WhichDrum: C1 ; velocity: 127
@108000 , @5.694767441860465 Channel: 9 
Note on, C2 key =  36;WhichDrum: B ; velocity: 0
@108000 , @5.694767441860465 Channel: 9 
Note on, F#2 key =  42;WhichDrum: C1 ; velocity: 0
@108000 , @5.694767441860465 Channel: 9 
Note on, F#2 key =  42;WhichDrum: C1 ; velocity: 127
@108000 , @5.694767441860465 Channel: 9 
Note on, C2 key =  36;WhichDrum: B ; velocity: 127
@108060 , @5.697931201550388 Channel: 9 
Note on, F#2 key =  42;WhichDrum: C1 ; velocity: 0
@108060 , @5.697931201550388 Channel: 9 
Note on, F#2 key =  42;WhichDrum: C1 ; velocity: 127
@108120 , @5.70109496124031 Channel: 9 
Note on, C2 key =  36;WhichDrum: B ; velocity: 0
@108120 , @5.70109496124031 Channel: 9 
Note on, F#2 key =  42;WhichDrum: C1 ; velocity: 0
@108120 , @5.70109496124031 Channel: 9 
Note on, F#2 key =  42;WhichDrum: C1 ; velocity: 127
@108180 , @5.704258720930233 Channel: 9 
Note on, F#2 key =  42;WhichDrum: C1 ; velocity: 0
@108180 , @5.704258720930233 Channel: 9 
Note on, F#2 key =  42;WhichDrum: C1 ; velocity: 127
@108180 , @5.704258720930233 Channel: 9 
Note on, C2 key =  36;WhichDrum: B ; velocity: 127
@108200 , @5.70531330749354 Channel: 9 
Note on, C2 key =  36;WhichDrum: B ; velocity: 0
@108200 , @5.70531330749354 Channel: 9 
Note on, C2 key =  36;WhichDrum: B ; velocity: 127
@108220 , @5.706367894056848 Channel: 9 
Note on, C2 key =  36;WhichDrum: B ; velocity: 0
@108220 , @5.706367894056848 Channel: 9 
Note on, C2 key =  36;WhichDrum: B ; velocity: 127
@108240 , @5.7074224806201554 Channel: 9 
Note on, F#2 key =  42;WhichDrum: C1 ; velocity: 0
@108240 , @5.7074224806201554 Channel: 9 
Note on, C2 key =  36;WhichDrum: B ; velocity: 0
@108240 , @5.7074224806201554 Channel: 9 
Note on, D2 key =  38;WhichDrum: T2 ; velocity: 127
@108240 , @5.7074224806201554 Channel: 9 
Note on, F#2 key =  42;WhichDrum: C1 ; velocity: 127
@108300 , @5.710586240310078 Channel: 9 
Note on, D2 key =  38;WhichDrum: T2 ; velocity: 0
@108300 , @5.710586240310078 Channel: 9 
Note on, F#2 key =  42;WhichDrum: C1 ; velocity: 0
@108300 , @5.710586240310078 Channel: 9 
Note on, F#2 key =  42;WhichDrum: C1 ; velocity: 127
@108300 , @5.710586240310078 Channel: 9 
Note on, C2 key =  36;WhichDrum: B ; velocity: 127
@108360 , @5.71375 Channel: 9 
Note on, F#2 key =  42;WhichDrum: C1 ; velocity: 0
@108360 , @5.71375 Channel: 9 
Note on, C2 key =  36;WhichDrum: B ; velocity: 0
@108360 , @5.71375 Channel: 9 
Note on, F#2 key =  42;WhichDrum: C1 ; velocity: 127
@108420 , @5.716913759689922 Channel: 9 
Note on, F#2 key =  42;WhichDrum: C1 ; velocity: 0
@108420 , @5.716913759689922 Channel: 9 
Note on, F#2 key =  42;WhichDrum: C1 ; velocity: 127
@108420 , @5.716913759689922 Channel: 9 
Note on, C2 key =  36;WhichDrum: B ; velocity: 127
@108480 , @5.720077519379845 Channel: 9 
Note on, F#2 key =  42;WhichDrum: C1 ; velocity: 0
@108480 , @5.720077519379845 Channel: 9 
Note on, C2 key =  36;WhichDrum: B ; velocity: 0
@108480 , @5.720077519379845 Channel: 9 
Note on, F#2 key =  42;WhichDrum: C1 ; velocity: 127
@108480 , @5.720077519379845 Channel: 9 
Note on, C2 key =  36;WhichDrum: B ; velocity: 127
@108540 , @5.723241279069768 Channel: 9 
Note on, F#2 key =  42;WhichDrum: C1 ; velocity: 0
@108540 , @5.723241279069768 Channel: 9 
Note on, F#2 key =  42;WhichDrum: C1 ; velocity: 127
@108600 , @5.72640503875969 Channel: 9 
Note on, C2 key =  36;WhichDrum: B ; velocity: 0
@108600 , @5.72640503875969 Channel: 9 
Note on, F#2 key =  42;WhichDrum: C1 ; velocity: 0
@108600 , @5.72640503875969 Channel: 9 
Note on, F#2 key =  42;WhichDrum: C1 ; velocity: 127
@108660 , @5.729568798449613 Channel: 9 
Note on, F#2 key =  42;WhichDrum: C1 ; velocity: 0
@108660 , @5.729568798449613 Channel: 9 
Note on, C2 key =  36;WhichDrum: B ; velocity: 127
@108660 , @5.729568798449613 Channel: 9 
Note on, F#2 key =  42;WhichDrum: C1 ; velocity: 127
@108720 , @5.732732558139535 Channel: 9 
Note on, C2 key =  36;WhichDrum: B ; velocity: 0
@108720 , @5.732732558139535 Channel: 9 
Note on, F#2 key =  42;WhichDrum: C1 ; velocity: 0
@108720 , @5.732732558139535 Channel: 9 
Note on, F#2 key =  42;WhichDrum: C1 ; velocity: 127
@108720 , @5.732732558139535 Channel: 9 
Note on, D2 key =  38;WhichDrum: T2 ; velocity: 127
@108780 , @5.735896317829457 Channel: 9 
Note on, F#2 key =  42;WhichDrum: C1 ; velocity: 0
@108780 , @5.735896317829457 Channel: 9 
Note on, D2 key =  38;WhichDrum: T2 ; velocity: 0
@108780 , @5.735896317829457 Channel: 9 
Note on, F#2 key =  42;WhichDrum: C1 ; velocity: 127
@108840 , @5.7390600775193805 Channel: 9 
Note on, F#2 key =  42;WhichDrum: C1 ; velocity: 0
@108840 , @5.7390600775193805 Channel: 9 
Note on, F#2 key =  42;WhichDrum: C1 ; velocity: 127
@108900 , @5.742223837209303 Channel: 9 
Note on, F#2 key =  42;WhichDrum: C1 ; velocity: 0
@108900 , @5.742223837209303 Channel: 9 
Note on, C2 key =  36;WhichDrum: B ; velocity: 127
@108900 , @5.742223837209303 Channel: 9 
Note on, F#2 key =  42;WhichDrum: C1 ; velocity: 127
@108960 , @5.745387596899225 Channel: 9 
Note on, C2 key =  36;WhichDrum: B ; velocity: 0
@108960 , @5.745387596899225 Channel: 9 
Note on, F#2 key =  42;WhichDrum: C1 ; velocity: 0
@108960 , @5.745387596899225 Channel: 9 
Note on, F#2 key =  42;WhichDrum: C1 ; velocity: 127
@108960 , @5.745387596899225 Channel: 9 
Note on, C2 key =  36;WhichDrum: B ; velocity: 127
@109020 , @5.7485513565891475 Channel: 9 
Note on, F#2 key =  42;WhichDrum: C1 ; velocity: 0
@109020 , @5.7485513565891475 Channel: 9 
Note on, F#2 key =  42;WhichDrum: C1 ; velocity: 127
@109080 , @5.75171511627907 Channel: 9 
Note on, C2 key =  36;WhichDrum: B ; velocity: 0
@109080 , @5.75171511627907 Channel: 9 
Note on, F#2 key =  42;WhichDrum: C1 ; velocity: 0
@109080 , @5.75171511627907 Channel: 9 
Note on, F#2 key =  42;WhichDrum: C1 ; velocity: 127
@109140 , @5.754878875968992 Channel: 9 
Note on, F#2 key =  42;WhichDrum: C1 ; velocity: 0
@109140 , @5.754878875968992 Channel: 9 
Note on, F#2 key =  42;WhichDrum: C1 ; velocity: 127
@109140 , @5.754878875968992 Channel: 9 
Note on, C2 key =  36;WhichDrum: B ; velocity: 127
@109160 , @5.7559334625323 Channel: 9 
Note on, C2 key =  36;WhichDrum: B ; velocity: 0
@109160 , @5.7559334625323 Channel: 9 
Note on, C2 key =  36;WhichDrum: B ; velocity: 127
@109180 , @5.756988049095607 Channel: 9 
Note on, C2 key =  36;WhichDrum: B ; velocity: 0
@109180 , @5.756988049095607 Channel: 9 
Note on, C2 key =  36;WhichDrum: B ; velocity: 127
@109200 , @5.758042635658915 Channel: 9 
Note on, F#2 key =  42;WhichDrum: C1 ; velocity: 0
@109200 , @5.758042635658915 Channel: 9 
Note on, C2 key =  36;WhichDrum: B ; velocity: 0
@109200 , @5.758042635658915 Channel: 9 
Note on, D2 key =  38;WhichDrum: T2 ; velocity: 127
@109200 , @5.758042635658915 Channel: 9 
Note on, F#2 key =  42;WhichDrum: C1 ; velocity: 127
@109260 , @5.761206395348838 Channel: 9 
Note on, D2 key =  38;WhichDrum: T2 ; velocity: 0
@109260 , @5.761206395348838 Channel: 9 
Note on, F#2 key =  42;WhichDrum: C1 ; velocity: 0
@109260 , @5.761206395348838 Channel: 9 
Note on, F#2 key =  42;WhichDrum: C1 ; velocity: 127
@109260 , @5.761206395348838 Channel: 9 
Note on, C2 key =  36;WhichDrum: B ; velocity: 127
@109320 , @5.76437015503876 Channel: 9 
Note on, F#2 key =  42;WhichDrum: C1 ; velocity: 0
@109320 , @5.76437015503876 Channel: 9 
Note on, C2 key =  36;WhichDrum: B ; velocity: 0
@109320 , @5.76437015503876 Channel: 9 
Note on, F#2 key =  42;WhichDrum: C1 ; velocity: 127
@109380 , @5.767533914728682 Channel: 9 
Note on, F#2 key =  42;WhichDrum: C1 ; velocity: 0
@109380 , @5.767533914728682 Channel: 9 
Note on, F#2 key =  42;WhichDrum: C1 ; velocity: 127
@109380 , @5.767533914728682 Channel: 9 
Note on, C2 key =  36;WhichDrum: B ; velocity: 127
@109440 , @5.770697674418605 Channel: 9 
Note on, F#2 key =  42;WhichDrum: C1 ; velocity: 0
@109440 , @5.770697674418605 Channel: 9 
Note on, C2 key =  36;WhichDrum: B ; velocity: 0
@109440 , @5.770697674418605 Channel: 9 
Note on, F#2 key =  42;WhichDrum: C1 ; velocity: 127
@109440 , @5.770697674418605 Channel: 9 
Note on, C2 key =  36;WhichDrum: B ; velocity: 127
@109500 , @5.773861434108527 Channel: 9 
Note on, F#2 key =  42;WhichDrum: C1 ; velocity: 0
@109500 , @5.773861434108527 Channel: 9 
Note on, F#2 key =  42;WhichDrum: C1 ; velocity: 127
@109560 , @5.77702519379845 Channel: 9 
Note on, C2 key =  36;WhichDrum: B ; velocity: 0
@109560 , @5.77702519379845 Channel: 9 
Note on, F#2 key =  42;WhichDrum: C1 ; velocity: 0
@109560 , @5.77702519379845 Channel: 9 
Note on, F#2 key =  42;WhichDrum: C1 ; velocity: 127
@109620 , @5.780188953488373 Channel: 9 
Note on, F#2 key =  42;WhichDrum: C1 ; velocity: 0
@109620 , @5.780188953488373 Channel: 9 
Note on, C2 key =  36;WhichDrum: B ; velocity: 127
@109620 , @5.780188953488373 Channel: 9 
Note on, F#2 key =  42;WhichDrum: C1 ; velocity: 127
@109680 , @5.783352713178295 Channel: 9 
Note on, C2 key =  36;WhichDrum: B ; velocity: 0
@109680 , @5.783352713178295 Channel: 9 
Note on, F#2 key =  42;WhichDrum: C1 ; velocity: 0
@109680 , @5.783352713178295 Channel: 9 
Note on, F#2 key =  42;WhichDrum: C1 ; velocity: 127
@109680 , @5.783352713178295 Channel: 9 
Note on, D2 key =  38;WhichDrum: T2 ; velocity: 127
@109740 , @5.786516472868217 Channel: 9 
Note on, F#2 key =  42;WhichDrum: C1 ; velocity: 0
@109740 , @5.786516472868217 Channel: 9 
Note on, D2 key =  38;WhichDrum: T2 ; velocity: 0
@109740 , @5.786516472868217 Channel: 9 
Note on, F#2 key =  42;WhichDrum: C1 ; velocity: 127
@109800 , @5.78968023255814 Channel: 9 
Note on, F#2 key =  42;WhichDrum: C1 ; velocity: 0
@109800 , @5.78968023255814 Channel: 9 
Note on, F#2 key =  42;WhichDrum: C1 ; velocity: 127
@109860 , @5.792843992248063 Channel: 9 
Note on, F#2 key =  42;WhichDrum: C1 ; velocity: 0
@109860 , @5.792843992248063 Channel: 9 
Note on, C2 key =  36;WhichDrum: B ; velocity: 127
@109860 , @5.792843992248063 Channel: 9 
Note on, F#2 key =  42;WhichDrum: C1 ; velocity: 127
@109920 , @5.796007751937985 Channel: 9 
Note on, C2 key =  36;WhichDrum: B ; velocity: 0
@109920 , @5.796007751937985 Channel: 9 
Note on, F#2 key =  42;WhichDrum: C1 ; velocity: 0
@109920 , @5.796007751937985 Channel: 9 
Note on, F#2 key =  42;WhichDrum: C1 ; velocity: 127
@109920 , @5.796007751937985 Channel: 9 
Note on, C2 key =  36;WhichDrum: B ; velocity: 127
@109980 , @5.7991715116279074 Channel: 9 
Note on, F#2 key =  42;WhichDrum: C1 ; velocity: 0
@109980 , @5.7991715116279074 Channel: 9 
Note on, F#2 key =  42;WhichDrum: C1 ; velocity: 127
@110040 , @5.80233527131783 Channel: 9 
Note on, C2 key =  36;WhichDrum: B ; velocity: 0
@110040 , @5.80233527131783 Channel: 9 
Note on, F#2 key =  42;WhichDrum: C1 ; velocity: 0
@110040 , @5.80233527131783 Channel: 9 
Note on, F#2 key =  42;WhichDrum: C1 ; velocity: 127
@110100 , @5.805499031007752 Channel: 9 
Note on, F#2 key =  42;WhichDrum: C1 ; velocity: 0
@110100 , @5.805499031007752 Channel: 9 
Note on, F#2 key =  42;WhichDrum: C1 ; velocity: 127
@110100 , @5.805499031007752 Channel: 9 
Note on, C2 key =  36;WhichDrum: B ; velocity: 127
@110120 , @5.806553617571059 Channel: 9 
Note on, C2 key =  36;WhichDrum: B ; velocity: 0
@110120 , @5.806553617571059 Channel: 9 
Note on, C2 key =  36;WhichDrum: B ; velocity: 127
@110140 , @5.807608204134366 Channel: 9 
Note on, C2 key =  36;WhichDrum: B ; velocity: 0
@110140 , @5.807608204134366 Channel: 9 
Note on, C2 key =  36;WhichDrum: B ; velocity: 127
@110160 , @5.808662790697674 Channel: 9 
Note on, F#2 key =  42;WhichDrum: C1 ; velocity: 0
@110160 , @5.808662790697674 Channel: 9 
Note on, C2 key =  36;WhichDrum: B ; velocity: 0
@110160 , @5.808662790697674 Channel: 9 
Note on, D2 key =  38;WhichDrum: T2 ; velocity: 127
@110160 , @5.808662790697674 Channel: 9 
Note on, F#2 key =  42;WhichDrum: C1 ; velocity: 127
@110220 , @5.811826550387598 Channel: 9 
Note on, D2 key =  38;WhichDrum: T2 ; velocity: 0
@110220 , @5.811826550387598 Channel: 9 
Note on, F#2 key =  42;WhichDrum: C1 ; velocity: 0
@110220 , @5.811826550387598 Channel: 9 
Note on, F#2 key =  42;WhichDrum: C1 ; velocity: 127
@110220 , @5.811826550387598 Channel: 9 
Note on, C2 key =  36;WhichDrum: B ; velocity: 127
@110250 , @5.813408430232558 Channel: 9 
Note on, C2 key =  36;WhichDrum: B ; velocity: 0
@110250 , @5.813408430232558 Channel: 9 
Note on, C2 key =  36;WhichDrum: B ; velocity: 127
@110280 , @5.81499031007752 Channel: 9 
Note on, F#2 key =  42;WhichDrum: C1 ; velocity: 0
@110280 , @5.81499031007752 Channel: 9 
Note on, C2 key =  36;WhichDrum: B ; velocity: 0
@110280 , @5.81499031007752 Channel: 9 
Note on, F#2 key =  42;WhichDrum: C1 ; velocity: 127
@110340 , @5.818154069767442 Channel: 9 
Note on, F#2 key =  42;WhichDrum: C1 ; velocity: 0
@110340 , @5.818154069767442 Channel: 9 
Note on, F#2 key =  42;WhichDrum: C1 ; velocity: 127
@110340 , @5.818154069767442 Channel: 9 
Note on, C2 key =  36;WhichDrum: B ; velocity: 127
@110400 , @5.821317829457365 Channel: 9 
Note on, F#2 key =  42;WhichDrum: C1 ; velocity: 0
@110400 , @5.821317829457365 Channel: 9 
Note on, C2 key =  36;WhichDrum: B ; velocity: 0
@110400 , @5.821317829457365 Channel: 9 
Note on, C2 key =  36;WhichDrum: B ; velocity: 127
@110400 , @5.821317829457365 Channel: 9 
Note on, F#2 key =  42;WhichDrum: C1 ; velocity: 127
@110460 , @5.824481589147287 Channel: 9 
Note on, F#2 key =  42;WhichDrum: C1 ; velocity: 0
@110460 , @5.824481589147287 Channel: 9 
Note on, F#2 key =  42;WhichDrum: C1 ; velocity: 127
@110520 , @5.827645348837209 Channel: 9 
Note on, C2 key =  36;WhichDrum: B ; velocity: 0
@110520 , @5.827645348837209 Channel: 9 
Note on, F#2 key =  42;WhichDrum: C1 ; velocity: 0
@110520 , @5.827645348837209 Channel: 9 
Note on, D2 key =  38;WhichDrum: T2 ; velocity: 127
@110520 , @5.827645348837209 Channel: 9 
Note on, A3 key =  57;WhichDrum: T3 ; velocity: 127
@110580 , @5.8308091085271325 Channel: 9 
Note on, D2 key =  38;WhichDrum: T2 ; velocity: 0
@110580 , @5.8308091085271325 Channel: 9 
Note on, A3 key =  57;WhichDrum: T3 ; velocity: 0
@110580 , @5.8308091085271325 Channel: 9 
Note on, C2 key =  36;WhichDrum: B ; velocity: 127
@110580 , @5.8308091085271325 Channel: 9 
Note on, F#2 key =  42;WhichDrum: C1 ; velocity: 127
@110640 , @5.833972868217055 Channel: 9 
Note on, C2 key =  36;WhichDrum: B ; velocity: 0
@110640 , @5.833972868217055 Channel: 9 
Note on, F#2 key =  42;WhichDrum: C1 ; velocity: 0
@110640 , @5.833972868217055 Channel: 9 
Note on, C2 key =  36;WhichDrum: B ; velocity: 127
@110640 , @5.833972868217055 Channel: 9 
Note on, F#2 key =  42;WhichDrum: C1 ; velocity: 127
@110700 , @5.837136627906977 Channel: 9 
Note on, F#2 key =  42;WhichDrum: C1 ; velocity: 0
@110700 , @5.837136627906977 Channel: 9 
Note on, F#2 key =  42;WhichDrum: C1 ; velocity: 127
@110760 , @5.8403003875968995 Channel: 9 
Note on, C2 key =  36;WhichDrum: B ; velocity: 0
@110760 , @5.8403003875968995 Channel: 9 
Note on, F#2 key =  42;WhichDrum: C1 ; velocity: 0
@110760 , @5.8403003875968995 Channel: 9 
Note on, A3 key =  57;WhichDrum: T3 ; velocity: 127
@110760 , @5.8403003875968995 Channel: 9 
Note on, D2 key =  38;WhichDrum: T2 ; velocity: 127
@110820 , @5.843464147286822 Channel: 9 
Note on, A3 key =  57;WhichDrum: T3 ; velocity: 0
@110820 , @5.843464147286822 Channel: 9 
Note on, D2 key =  38;WhichDrum: T2 ; velocity: 0
@110820 , @5.843464147286822 Channel: 9 
Note on, C2 key =  36;WhichDrum: B ; velocity: 127
@110820 , @5.843464147286822 Channel: 9 
Note on, F#2 key =  42;WhichDrum: C1 ; velocity: 127
@110880 , @5.846627906976745 Channel: 9 
Note on, C2 key =  36;WhichDrum: B ; velocity: 0
@110880 , @5.846627906976745 Channel: 9 
Note on, F#2 key =  42;WhichDrum: C1 ; velocity: 0
@110880 , @5.846627906976745 Channel: 9 
Note on, F#2 key =  42;WhichDrum: C1 ; velocity: 127
@110880 , @5.846627906976745 Channel: 9 
Note on, C2 key =  36;WhichDrum: B ; velocity: 127
@110940 , @5.849791666666667 Channel: 9 
Note on, F#2 key =  42;WhichDrum: C1 ; velocity: 0
@110940 , @5.849791666666667 Channel: 9 
Note on, F#2 key =  42;WhichDrum: C1 ; velocity: 127
@111000 , @5.85295542635659 Channel: 9 
Note on, C2 key =  36;WhichDrum: B ; velocity: 0
@111000 , @5.85295542635659 Channel: 9 
Note on, F#2 key =  42;WhichDrum: C1 ; velocity: 0
@111000 , @5.85295542635659 Channel: 9 
Note on, D2 key =  38;WhichDrum: T2 ; velocity: 127
@111000 , @5.85295542635659 Channel: 9 
Note on, F#2 key =  42;WhichDrum: C1 ; velocity: 127
@111060 , @5.856119186046512 Channel: 9 
Note on, D2 key =  38;WhichDrum: T2 ; velocity: 0
@111060 , @5.856119186046512 Channel: 9 
Note on, F#2 key =  42;WhichDrum: C1 ; velocity: 0
@111060 , @5.856119186046512 Channel: 9 
Note on, F#2 key =  42;WhichDrum: C1 ; velocity: 127
@111120 , @5.859282945736434 Channel: 9 
Note on, F#2 key =  42;WhichDrum: C1 ; velocity: 0
@111120 , @5.859282945736434 Channel: 9 
Note on, F#2 key =  42;WhichDrum: C1 ; velocity: 127
@111120 , @5.859282945736434 Channel: 9 
Note on, C2 key =  36;WhichDrum: B ; velocity: 127
@111180 , @5.862446705426357 Channel: 9 
Note on, F#2 key =  42;WhichDrum: C1 ; velocity: 0
@111180 , @5.862446705426357 Channel: 9 
Note on, F#2 key =  42;WhichDrum: C1 ; velocity: 127
@111240 , @5.86561046511628 Channel: 9 
Note on, C2 key =  36;WhichDrum: B ; velocity: 0
@111240 , @5.86561046511628 Channel: 9 
Note on, F#2 key =  42;WhichDrum: C1 ; velocity: 0
@111240 , @5.86561046511628 Channel: 9 
Note on, D2 key =  38;WhichDrum: T2 ; velocity: 127
@111240 , @5.86561046511628 Channel: 9 
Note on, F#2 key =  42;WhichDrum: C1 ; velocity: 127
@111300 , @5.868774224806202 Channel: 9 
Note on, D2 key =  38;WhichDrum: T2 ; velocity: 0
@111300 , @5.868774224806202 Channel: 9 
Note on, F#2 key =  42;WhichDrum: C1 ; velocity: 0
@111300 , @5.868774224806202 Channel: 9 
Note on, F#2 key =  42;WhichDrum: C1 ; velocity: 127
@111300 , @5.868774224806202 Channel: 9 
Note on, C2 key =  36;WhichDrum: B ; velocity: 127
@111360 , @5.871937984496125 Channel: 9 
Note on, F#2 key =  42;WhichDrum: C1 ; velocity: 0
@111360 , @5.871937984496125 Channel: 9 
Note on, C2 key =  36;WhichDrum: B ; velocity: 0
@111360 , @5.871937984496125 Channel: 9 
Note on, C2 key =  36;WhichDrum: B ; velocity: 127
@111360 , @5.871937984496125 Channel: 9 
Note on, F#2 key =  42;WhichDrum: C1 ; velocity: 127
@111420 , @5.875101744186047 Channel: 9 
Note on, F#2 key =  42;WhichDrum: C1 ; velocity: 0
@111420 , @5.875101744186047 Channel: 9 
Note on, F#2 key =  42;WhichDrum: C1 ; velocity: 127
@111480 , @5.878265503875969 Channel: 9 
Note on, C2 key =  36;WhichDrum: B ; velocity: 0
@111480 , @5.878265503875969 Channel: 9 
Note on, F#2 key =  42;WhichDrum: C1 ; velocity: 0
@111480 , @5.878265503875969 Channel: 9 
Note on, D2 key =  38;WhichDrum: T2 ; velocity: 127
@111480 , @5.878265503875969 Channel: 9 
Note on, A3 key =  57;WhichDrum: T3 ; velocity: 127
@111540 , @5.881429263565892 Channel: 9 
Note on, D2 key =  38;WhichDrum: T2 ; velocity: 0
@111540 , @5.881429263565892 Channel: 9 
Note on, A3 key =  57;WhichDrum: T3 ; velocity: 0
@111540 , @5.881429263565892 Channel: 9 
Note on, C2 key =  36;WhichDrum: B ; velocity: 127
@111540 , @5.881429263565892 Channel: 9 
Note on, F#2 key =  42;WhichDrum: C1 ; velocity: 127
@111600 , @5.884593023255815 Channel: 9 
Note on, C2 key =  36;WhichDrum: B ; velocity: 0
@111600 , @5.884593023255815 Channel: 9 
Note on, F#2 key =  42;WhichDrum: C1 ; velocity: 0
@111600 , @5.884593023255815 Channel: 9 
Note on, C2 key =  36;WhichDrum: B ; velocity: 127
@111600 , @5.884593023255815 Channel: 9 
Note on, F#2 key =  42;WhichDrum: C1 ; velocity: 127
@111660 , @5.887756782945737 Channel: 9 
Note on, F#2 key =  42;WhichDrum: C1 ; velocity: 0
@111660 , @5.887756782945737 Channel: 9 
Note on, F#2 key =  42;WhichDrum: C1 ; velocity: 127
@111720 , @5.8909205426356595 Channel: 9 
Note on, C2 key =  36;WhichDrum: B ; velocity: 0
@111720 , @5.8909205426356595 Channel: 9 
Note on, F#2 key =  42;WhichDrum: C1 ; velocity: 0
@111720 , @5.8909205426356595 Channel: 9 
Note on, A3 key =  57;WhichDrum: T3 ; velocity: 127
@111720 , @5.8909205426356595 Channel: 9 
Note on, D2 key =  38;WhichDrum: T2 ; velocity: 127
@111780 , @5.894084302325582 Channel: 9 
Note on, A3 key =  57;WhichDrum: T3 ; velocity: 0
@111780 , @5.894084302325582 Channel: 9 
Note on, D2 key =  38;WhichDrum: T2 ; velocity: 0
@111780 , @5.894084302325582 Channel: 9 
Note on, C2 key =  36;WhichDrum: B ; velocity: 127
@111780 , @5.894084302325582 Channel: 9 
Note on, F#2 key =  42;WhichDrum: C1 ; velocity: 127
@111840 , @5.897248062015504 Channel: 9 
Note on, C2 key =  36;WhichDrum: B ; velocity: 0
@111840 , @5.897248062015504 Channel: 9 
Note on, F#2 key =  42;WhichDrum: C1 ; velocity: 0
@111840 , @5.897248062015504 Channel: 9 
Note on, F#2 key =  42;WhichDrum: C1 ; velocity: 127
@111840 , @5.897248062015504 Channel: 9 
Note on, C2 key =  36;WhichDrum: B ; velocity: 127
@111900 , @5.900411821705427 Channel: 9 
Note on, F#2 key =  42;WhichDrum: C1 ; velocity: 0
@111900 , @5.900411821705427 Channel: 9 
Note on, F#2 key =  42;WhichDrum: C1 ; velocity: 127
@111960 , @5.90357558139535 Channel: 9 
Note on, C2 key =  36;WhichDrum: B ; velocity: 0
@111960 , @5.90357558139535 Channel: 9 
Note on, F#2 key =  42;WhichDrum: C1 ; velocity: 0
@111960 , @5.90357558139535 Channel: 9 
Note on, D2 key =  38;WhichDrum: T2 ; velocity: 127
@111960 , @5.90357558139535 Channel: 9 
Note on, F#2 key =  42;WhichDrum: C1 ; velocity: 127
@112020 , @5.906739341085272 Channel: 9 
Note on, D2 key =  38;WhichDrum: T2 ; velocity: 0
@112020 , @5.906739341085272 Channel: 9 
Note on, F#2 key =  42;WhichDrum: C1 ; velocity: 0
@112020 , @5.906739341085272 Channel: 9 
Note on, F#2 key =  42;WhichDrum: C1 ; velocity: 127
@112080 , @5.909903100775194 Channel: 9 
Note on, F#2 key =  42;WhichDrum: C1 ; velocity: 0
@112080 , @5.909903100775194 Channel: 9 
Note on, F#2 key =  42;WhichDrum: C1 ; velocity: 127
@112080 , @5.909903100775194 Channel: 9 
Note on, C2 key =  36;WhichDrum: B ; velocity: 127
@112140 , @5.913066860465117 Channel: 9 
Note on, F#2 key =  42;WhichDrum: C1 ; velocity: 0
@112140 , @5.913066860465117 Channel: 9 
Note on, F#2 key =  42;WhichDrum: C1 ; velocity: 127
@112200 , @5.916230620155039 Channel: 9 
Note on, C2 key =  36;WhichDrum: B ; velocity: 0
@112200 , @5.916230620155039 Channel: 9 
Note on, F#2 key =  42;WhichDrum: C1 ; velocity: 0
@112200 , @5.916230620155039 Channel: 9 
Note on, D2 key =  38;WhichDrum: T2 ; velocity: 127
@112200 , @5.916230620155039 Channel: 9 
Note on, F#2 key =  42;WhichDrum: C1 ; velocity: 127
@112260 , @5.919394379844961 Channel: 9 
Note on, D2 key =  38;WhichDrum: T2 ; velocity: 0
@112260 , @5.919394379844961 Channel: 9 
Note on, F#2 key =  42;WhichDrum: C1 ; velocity: 0
@112260 , @5.919394379844961 Channel: 9 
Note on, F#2 key =  42;WhichDrum: C1 ; velocity: 127
@112260 , @5.919394379844961 Channel: 9 
Note on, C2 key =  36;WhichDrum: B ; velocity: 127
@112320 , @5.922558139534884 Channel: 9 
Note on, F#2 key =  42;WhichDrum: C1 ; velocity: 0
@112320 , @5.922558139534884 Channel: 9 
Note on, C2 key =  36;WhichDrum: B ; velocity: 0
@112320 , @5.922558139534884 Channel: 9 
Note on, C2 key =  36;WhichDrum: B ; velocity: 127
@112320 , @5.922558139534884 Channel: 9 
Note on, F#2 key =  42;WhichDrum: C1 ; velocity: 127
@112380 , @5.925721899224806 Channel: 9 
Note on, F#2 key =  42;WhichDrum: C1 ; velocity: 0
@112380 , @5.925721899224806 Channel: 9 
Note on, F#2 key =  42;WhichDrum: C1 ; velocity: 127
@112440 , @5.928885658914728 Channel: 9 
Note on, C2 key =  36;WhichDrum: B ; velocity: 0
@112440 , @5.928885658914728 Channel: 9 
Note on, F#2 key =  42;WhichDrum: C1 ; velocity: 0
@112440 , @5.928885658914728 Channel: 9 
Note on, D2 key =  38;WhichDrum: T2 ; velocity: 127
@112440 , @5.928885658914728 Channel: 9 
Note on, A3 key =  57;WhichDrum: T3 ; velocity: 127
@112500 , @5.932049418604651 Channel: 9 
Note on, D2 key =  38;WhichDrum: T2 ; velocity: 0
@112500 , @5.932049418604651 Channel: 9 
Note on, A3 key =  57;WhichDrum: T3 ; velocity: 0
@112500 , @5.932049418604651 Channel: 9 
Note on, C2 key =  36;WhichDrum: B ; velocity: 127
@112500 , @5.932049418604651 Channel: 9 
Note on, F#2 key =  42;WhichDrum: C1 ; velocity: 127
@112560 , @5.935213178294574 Channel: 9 
Note on, C2 key =  36;WhichDrum: B ; velocity: 0
@112560 , @5.935213178294574 Channel: 9 
Note on, F#2 key =  42;WhichDrum: C1 ; velocity: 0
@112560 , @5.935213178294574 Channel: 9 
Note on, C2 key =  36;WhichDrum: B ; velocity: 127
@112560 , @5.935213178294574 Channel: 9 
Note on, F#2 key =  42;WhichDrum: C1 ; velocity: 127
@112620 , @5.938376937984496 Channel: 9 
Note on, F#2 key =  42;WhichDrum: C1 ; velocity: 0
@112620 , @5.938376937984496 Channel: 9 
Note on, F#2 key =  42;WhichDrum: C1 ; velocity: 127
@112680 , @5.9415406976744185 Channel: 9 
Note on, C2 key =  36;WhichDrum: B ; velocity: 0
@112680 , @5.9415406976744185 Channel: 9 
Note on, F#2 key =  42;WhichDrum: C1 ; velocity: 0
@112680 , @5.9415406976744185 Channel: 9 
Note on, A3 key =  57;WhichDrum: T3 ; velocity: 127
@112680 , @5.9415406976744185 Channel: 9 
Note on, D2 key =  38;WhichDrum: T2 ; velocity: 127
@112740 , @5.944704457364341 Channel: 9 
Note on, A3 key =  57;WhichDrum: T3 ; velocity: 0
@112740 , @5.944704457364341 Channel: 9 
Note on, D2 key =  38;WhichDrum: T2 ; velocity: 0
@112740 , @5.944704457364341 Channel: 9 
Note on, C2 key =  36;WhichDrum: B ; velocity: 127
@112740 , @5.944704457364341 Channel: 9 
Note on, F#2 key =  42;WhichDrum: C1 ; velocity: 127
@112800 , @5.947868217054263 Channel: 9 
Note on, C2 key =  36;WhichDrum: B ; velocity: 0
@112800 , @5.947868217054263 Channel: 9 
Note on, F#2 key =  42;WhichDrum: C1 ; velocity: 0
@112800 , @5.947868217054263 Channel: 9 
Note on, F#2 key =  42;WhichDrum: C1 ; velocity: 127
@112800 , @5.947868217054263 Channel: 9 
Note on, C2 key =  36;WhichDrum: B ; velocity: 127
@112860 , @5.951031976744186 Channel: 9 
Note on, F#2 key =  42;WhichDrum: C1 ; velocity: 0
@112860 , @5.951031976744186 Channel: 9 
Note on, F#2 key =  42;WhichDrum: C1 ; velocity: 127
@112920 , @5.954195736434109 Channel: 9 
Note on, C2 key =  36;WhichDrum: B ; velocity: 0
@112920 , @5.954195736434109 Channel: 9 
Note on, F#2 key =  42;WhichDrum: C1 ; velocity: 0
@112920 , @5.954195736434109 Channel: 9 
Note on, D2 key =  38;WhichDrum: T2 ; velocity: 127
@112920 , @5.954195736434109 Channel: 9 
Note on, F#2 key =  42;WhichDrum: C1 ; velocity: 127
@112980 , @5.957359496124031 Channel: 9 
Note on, D2 key =  38;WhichDrum: T2 ; velocity: 0
@112980 , @5.957359496124031 Channel: 9 
Note on, F#2 key =  42;WhichDrum: C1 ; velocity: 0
@112980 , @5.957359496124031 Channel: 9 
Note on, F#2 key =  42;WhichDrum: C1 ; velocity: 127
@113040 , @5.960523255813953 Channel: 9 
Note on, F#2 key =  42;WhichDrum: C1 ; velocity: 0
@113040 , @5.960523255813953 Channel: 9 
Note on, F#2 key =  42;WhichDrum: C1 ; velocity: 127
@113040 , @5.960523255813953 Channel: 9 
Note on, C2 key =  36;WhichDrum: B ; velocity: 127
@113100 , @5.963687015503876 Channel: 9 
Note on, F#2 key =  42;WhichDrum: C1 ; velocity: 0
@113100 , @5.963687015503876 Channel: 9 
Note on, F#2 key =  42;WhichDrum: C1 ; velocity: 127
@113160 , @5.966850775193798 Channel: 9 
Note on, C2 key =  36;WhichDrum: B ; velocity: 0
@113160 , @5.966850775193798 Channel: 9 
Note on, F#2 key =  42;WhichDrum: C1 ; velocity: 0
@113160 , @5.966850775193798 Channel: 9 
Note on, D2 key =  38;WhichDrum: T2 ; velocity: 127
@113160 , @5.966850775193798 Channel: 9 
Note on, F#2 key =  42;WhichDrum: C1 ; velocity: 127
@113220 , @5.970014534883721 Channel: 9 
Note on, D2 key =  38;WhichDrum: T2 ; velocity: 0
@113220 , @5.970014534883721 Channel: 9 
Note on, F#2 key =  42;WhichDrum: C1 ; velocity: 0
@113220 , @5.970014534883721 Channel: 9 
Note on, F#2 key =  42;WhichDrum: C1 ; velocity: 127
@113220 , @5.970014534883721 Channel: 9 
Note on, C2 key =  36;WhichDrum: B ; velocity: 127
@113280 , @5.973178294573644 Channel: 9 
Note on, F#2 key =  42;WhichDrum: C1 ; velocity: 0
@113280 , @5.973178294573644 Channel: 9 
Note on, C2 key =  36;WhichDrum: B ; velocity: 0
@113280 , @5.973178294573644 Channel: 9 
Note on, C2 key =  36;WhichDrum: B ; velocity: 127
@113280 , @5.973178294573644 Channel: 9 
Note on, F#2 key =  42;WhichDrum: C1 ; velocity: 127
@113340 , @5.976342054263566 Channel: 9 
Note on, F#2 key =  42;WhichDrum: C1 ; velocity: 0
@113340 , @5.976342054263566 Channel: 9 
Note on, F#2 key =  42;WhichDrum: C1 ; velocity: 127
@113400 , @5.979505813953488 Channel: 9 
Note on, C2 key =  36;WhichDrum: B ; velocity: 0
@113400 , @5.979505813953488 Channel: 9 
Note on, F#2 key =  42;WhichDrum: C1 ; velocity: 0
@113400 , @5.979505813953488 Channel: 9 
Note on, D2 key =  38;WhichDrum: T2 ; velocity: 127
@113400 , @5.979505813953488 Channel: 9 
Note on, A3 key =  57;WhichDrum: T3 ; velocity: 127
@113460 , @5.982669573643411 Channel: 9 
Note on, D2 key =  38;WhichDrum: T2 ; velocity: 0
@113460 , @5.982669573643411 Channel: 9 
Note on, A3 key =  57;WhichDrum: T3 ; velocity: 0
@113460 , @5.982669573643411 Channel: 9 
Note on, C2 key =  36;WhichDrum: B ; velocity: 127
@113460 , @5.982669573643411 Channel: 9 
Note on, F#2 key =  42;WhichDrum: C1 ; velocity: 127
@113520 , @5.985833333333333 Channel: 9 
Note on, C2 key =  36;WhichDrum: B ; velocity: 0
@113520 , @5.985833333333333 Channel: 9 
Note on, F#2 key =  42;WhichDrum: C1 ; velocity: 0
@113520 , @5.985833333333333 Channel: 9 
Note on, C2 key =  36;WhichDrum: B ; velocity: 127
@113520 , @5.985833333333333 Channel: 9 
Note on, F#2 key =  42;WhichDrum: C1 ; velocity: 127
@113580 , @5.988997093023256 Channel: 9 
Note on, F#2 key =  42;WhichDrum: C1 ; velocity: 0
@113580 , @5.988997093023256 Channel: 9 
Note on, F#2 key =  42;WhichDrum: C1 ; velocity: 127
@113640 , @5.992160852713178 Channel: 9 
Note on, C2 key =  36;WhichDrum: B ; velocity: 0
@113640 , @5.992160852713178 Channel: 9 
Note on, F#2 key =  42;WhichDrum: C1 ; velocity: 0
@113640 , @5.992160852713178 Channel: 9 
Note on, A3 key =  57;WhichDrum: T3 ; velocity: 127
@113640 , @5.992160852713178 Channel: 9 
Note on, D2 key =  38;WhichDrum: T2 ; velocity: 127
@113700 , @5.995324612403101 Channel: 9 
Note on, A3 key =  57;WhichDrum: T3 ; velocity: 0
@113700 , @5.995324612403101 Channel: 9 
Note on, D2 key =  38;WhichDrum: T2 ; velocity: 0
@113700 , @5.995324612403101 Channel: 9 
Note on, F#2 key =  42;WhichDrum: C1 ; velocity: 127
@113760 , @5.998488372093023 Channel: 9 
Note on, F#2 key =  42;WhichDrum: C1 ; velocity: 0
@113760 , @5.998488372093023 Channel: 9 
Note on, A2 key =  45;WhichDrum: T3 ; velocity: 127
@113790 , @6.000070251937985 Channel: 9 
Note on, A2 key =  45;WhichDrum: T3 ; velocity: 0
@113790 , @6.000070251937985 Channel: 9 
Note on, A2 key =  45;WhichDrum: T3 ; velocity: 127
@113820 , @6.001652131782945 Channel: 9 
Note on, A2 key =  45;WhichDrum: T3 ; velocity: 0
@113820 , @6.001652131782945 Channel: 9 
Note on, A2 key =  45;WhichDrum: T3 ; velocity: 127
@113880 , @6.004815891472869 Channel: 9 
Note on, A2 key =  45;WhichDrum: T3 ; velocity: 0
@113880 , @6.004815891472869 Channel: 9 
Note on, B2 key =  47;WhichDrum: T1 ; velocity: 127
@113910 , @6.00639777131783 Channel: 9 
Note on, B2 key =  47;WhichDrum: T1 ; velocity: 0
@113910 , @6.00639777131783 Channel: 9 
Note on, B2 key =  47;WhichDrum: T1 ; velocity: 127
@113940 , @6.007979651162791 Channel: 9 
Note on, B2 key =  47;WhichDrum: T1 ; velocity: 0
@113940 , @6.007979651162791 Channel: 9 
Note on, B2 key =  47;WhichDrum: T1 ; velocity: 127
@114000 , @6.011143410852713 Channel: 9 
Note on, B2 key =  47;WhichDrum: T1 ; velocity: 0
@114000 , @6.011143410852713 Channel: 9 
Note on, C3 key =  48;WhichDrum: B ; velocity: 127
@114030 , @6.0127252906976745 Channel: 9 
Note on, C3 key =  48;WhichDrum: B ; velocity: 0
@114030 , @6.0127252906976745 Channel: 9 
Note on, C3 key =  48;WhichDrum: B ; velocity: 127
@114060 , @6.014307170542636 Channel: 9 
Note on, C3 key =  48;WhichDrum: B ; velocity: 0
@114060 , @6.014307170542636 Channel: 9 
Note on, C3 key =  48;WhichDrum: B ; velocity: 127
@114120 , @6.017470930232558 Channel: 9 
Note on, C3 key =  48;WhichDrum: B ; velocity: 0
@114120 , @6.017470930232558 Channel: 9 
Note on, D3 key =  50;WhichDrum: T2 ; velocity: 127
@114175 , @6.020371043281654 Channel: 9 
Note on, D2 key =  38;WhichDrum: T2 ; velocity: 75
@114180 , @6.02063468992248 Channel: 9 
Note on, D3 key =  50;WhichDrum: T2 ; velocity: 0
@114180 , @6.02063468992248 Channel: 9 
Note on, D2 key =  38;WhichDrum: T2 ; velocity: 0
@114180 , @6.02063468992248 Channel: 9 
Note on, D2 key =  38;WhichDrum: T2 ; velocity: 127
@114240 , @6.0237984496124035 Channel: 9 
Note on, D2 key =  38;WhichDrum: T2 ; velocity: 0
@114240 , @6.0237984496124035 Channel: 9 
Note on, C2 key =  36;WhichDrum: B ; velocity: 127
@114240 , @6.0237984496124035 Channel: 9 
Note on, A3 key =  57;WhichDrum: T3 ; velocity: 127
@114300 , @6.026962209302326 Channel: 9 
Note on, A3 key =  57;WhichDrum: T3 ; velocity: 0
@114300 , @6.026962209302326 Channel: 9 
Note on, F#2 key =  42;WhichDrum: C1 ; velocity: 127
@114360 , @6.030125968992248 Channel: 9 
Note on, C2 key =  36;WhichDrum: B ; velocity: 0
@114360 , @6.030125968992248 Channel: 9 
Note on, F#2 key =  42;WhichDrum: C1 ; velocity: 0
@114360 , @6.030125968992248 Channel: 9 
Note on, F#2 key =  42;WhichDrum: C1 ; velocity: 127
@114420 , @6.0332897286821705 Channel: 9 
Note on, F#2 key =  42;WhichDrum: C1 ; velocity: 0
@114420 , @6.0332897286821705 Channel: 9 
Note on, C2 key =  36;WhichDrum: B ; velocity: 127
@114420 , @6.0332897286821705 Channel: 9 
Note on, F#2 key =  42;WhichDrum: C1 ; velocity: 127
@114480 , @6.036453488372093 Channel: 9 
Note on, C2 key =  36;WhichDrum: B ; velocity: 0
@114480 , @6.036453488372093 Channel: 9 
Note on, F#2 key =  42;WhichDrum: C1 ; velocity: 0
@114480 , @6.036453488372093 Channel: 9 
Note on, F#2 key =  42;WhichDrum: C1 ; velocity: 127
@114480 , @6.036453488372093 Channel: 9 
Note on, D2 key =  38;WhichDrum: T2 ; velocity: 127
@114540 , @6.039617248062015 Channel: 9 
Note on, F#2 key =  42;WhichDrum: C1 ; velocity: 0
@114540 , @6.039617248062015 Channel: 9 
Note on, D2 key =  38;WhichDrum: T2 ; velocity: 0
@114540 , @6.039617248062015 Channel: 9 
Note on, F#2 key =  42;WhichDrum: C1 ; velocity: 127
@114600 , @6.042781007751938 Channel: 9 
Note on, F#2 key =  42;WhichDrum: C1 ; velocity: 0
@114600 , @6.042781007751938 Channel: 9 
Note on, F#2 key =  42;WhichDrum: C1 ; velocity: 127
@114660 , @6.045944767441861 Channel: 9 
Note on, F#2 key =  42;WhichDrum: C1 ; velocity: 0
@114660 , @6.045944767441861 Channel: 9 
Note on, C2 key =  36;WhichDrum: B ; velocity: 127
@114660 , @6.045944767441861 Channel: 9 
Note on, F#2 key =  42;WhichDrum: C1 ; velocity: 127
@114720 , @6.049108527131783 Channel: 9 
Note on, C2 key =  36;WhichDrum: B ; velocity: 0
@114720 , @6.049108527131783 Channel: 9 
Note on, F#2 key =  42;WhichDrum: C1 ; velocity: 0
@114720 , @6.049108527131783 Channel: 9 
Note on, C2 key =  36;WhichDrum: B ; velocity: 127
@114720 , @6.049108527131783 Channel: 9 
Note on, F#2 key =  42;WhichDrum: C1 ; velocity: 127
@114780 , @6.052272286821705 Channel: 9 
Note on, F#2 key =  42;WhichDrum: C1 ; velocity: 0
@114780 , @6.052272286821705 Channel: 9 
Note on, F#2 key =  42;WhichDrum: C1 ; velocity: 127
@114840 , @6.055436046511628 Channel: 9 
Note on, C2 key =  36;WhichDrum: B ; velocity: 0
@114840 , @6.055436046511628 Channel: 9 
Note on, F#2 key =  42;WhichDrum: C1 ; velocity: 0
@114840 , @6.055436046511628 Channel: 9 
Note on, F#2 key =  42;WhichDrum: C1 ; velocity: 127
@114900 , @6.058599806201551 Channel: 9 
Note on, F#2 key =  42;WhichDrum: C1 ; velocity: 0
@114900 , @6.058599806201551 Channel: 9 
Note on, C2 key =  36;WhichDrum: B ; velocity: 127
@114900 , @6.058599806201551 Channel: 9 
Note on, F#2 key =  42;WhichDrum: C1 ; velocity: 127
@114960 , @6.061763565891473 Channel: 9 
Note on, C2 key =  36;WhichDrum: B ; velocity: 0
@114960 , @6.061763565891473 Channel: 9 
Note on, F#2 key =  42;WhichDrum: C1 ; velocity: 0
@114960 , @6.061763565891473 Channel: 9 
Note on, F#2 key =  42;WhichDrum: C1 ; velocity: 127
@115020 , @6.064927325581396 Channel: 9 
Note on, F#2 key =  42;WhichDrum: C1 ; velocity: 0
@115020 , @6.064927325581396 Channel: 9 
Note on, C2 key =  36;WhichDrum: B ; velocity: 127
@115020 , @6.064927325581396 Channel: 9 
Note on, F#2 key =  42;WhichDrum: C1 ; velocity: 127
@115080 , @6.068091085271318 Channel: 9 
Note on, C2 key =  36;WhichDrum: B ; velocity: 0
@115080 , @6.068091085271318 Channel: 9 
Note on, F#2 key =  42;WhichDrum: C1 ; velocity: 0
@115080 , @6.068091085271318 Channel: 9 
Note on, D2 key =  38;WhichDrum: T2 ; velocity: 127
@115080 , @6.068091085271318 Channel: 9 
Note on, F#2 key =  42;WhichDrum: C1 ; velocity: 127
@115140 , @6.07125484496124 Channel: 9 
Note on, D2 key =  38;WhichDrum: T2 ; velocity: 0
@115140 , @6.07125484496124 Channel: 9 
Note on, F#2 key =  42;WhichDrum: C1 ; velocity: 0
@115140 , @6.07125484496124 Channel: 9 
Note on, C2 key =  36;WhichDrum: B ; velocity: 127
@115140 , @6.07125484496124 Channel: 9 
Note on, F#2 key =  42;WhichDrum: C1 ; velocity: 127
@115200 , @6.074418604651163 Channel: 9 
Note on, C2 key =  36;WhichDrum: B ; velocity: 0
@115200 , @6.074418604651163 Channel: 9 
Note on, F#2 key =  42;WhichDrum: C1 ; velocity: 0
@115200 , @6.074418604651163 Channel: 9 
Note on, F#2 key =  42;WhichDrum: C1 ; velocity: 127
@115200 , @6.074418604651163 Channel: 9 
Note on, C2 key =  36;WhichDrum: B ; velocity: 127
@115260 , @6.077582364341086 Channel: 9 
Note on, F#2 key =  42;WhichDrum: C1 ; velocity: 0
@115260 , @6.077582364341086 Channel: 9 
Note on, F#2 key =  42;WhichDrum: C1 ; velocity: 127
@115320 , @6.080746124031008 Channel: 9 
Note on, C2 key =  36;WhichDrum: B ; velocity: 0
@115320 , @6.080746124031008 Channel: 9 
Note on, F#2 key =  42;WhichDrum: C1 ; velocity: 0
@115320 , @6.080746124031008 Channel: 9 
Note on, F#2 key =  42;WhichDrum: C1 ; velocity: 127
@115380 , @6.0839098837209304 Channel: 9 
Note on, F#2 key =  42;WhichDrum: C1 ; velocity: 0
@115380 , @6.0839098837209304 Channel: 9 
Note on, F#2 key =  42;WhichDrum: C1 ; velocity: 127
@115380 , @6.0839098837209304 Channel: 9 
Note on, C2 key =  36;WhichDrum: B ; velocity: 127
@115400 , @6.084964470284238 Channel: 9 
Note on, C2 key =  36;WhichDrum: B ; velocity: 0
@115400 , @6.084964470284238 Channel: 9 
Note on, C2 key =  36;WhichDrum: B ; velocity: 127
@115420 , @6.086019056847546 Channel: 9 
Note on, C2 key =  36;WhichDrum: B ; velocity: 0
@115420 , @6.086019056847546 Channel: 9 
Note on, C2 key =  36;WhichDrum: B ; velocity: 127
@115440 , @6.087073643410853 Channel: 9 
Note on, F#2 key =  42;WhichDrum: C1 ; velocity: 0
@115440 , @6.087073643410853 Channel: 9 
Note on, C2 key =  36;WhichDrum: B ; velocity: 0
@115440 , @6.087073643410853 Channel: 9 
Note on, A3 key =  57;WhichDrum: T3 ; velocity: 127
@115440 , @6.087073643410853 Channel: 9 
Note on, D2 key =  38;WhichDrum: T2 ; velocity: 127
@115500 , @6.090237403100775 Channel: 9 
Note on, A3 key =  57;WhichDrum: T3 ; velocity: 0
@115500 , @6.090237403100775 Channel: 9 
Note on, D2 key =  38;WhichDrum: T2 ; velocity: 0
@115500 , @6.090237403100775 Channel: 9 
Note on, F#2 key =  42;WhichDrum: C1 ; velocity: 127
@115560 , @6.093401162790697 Channel: 9 
Note on, F#2 key =  42;WhichDrum: C1 ; velocity: 0
@115560 , @6.093401162790697 Channel: 9 
Note on, F#2 key =  42;WhichDrum: C1 ; velocity: 127
@115620 , @6.096564922480621 Channel: 9 
Note on, F#2 key =  42;WhichDrum: C1 ; velocity: 0
@115620 , @6.096564922480621 Channel: 9 
Note on, F#2 key =  42;WhichDrum: C1 ; velocity: 127
@115620 , @6.096564922480621 Channel: 9 
Note on, C2 key =  36;WhichDrum: B ; velocity: 127
@115680 , @6.099728682170543 Channel: 9 
Note on, F#2 key =  42;WhichDrum: C1 ; velocity: 0
@115680 , @6.099728682170543 Channel: 9 
Note on, C2 key =  36;WhichDrum: B ; velocity: 0
@115680 , @6.099728682170543 Channel: 9 
Note on, F#2 key =  42;WhichDrum: C1 ; velocity: 127
@115680 , @6.099728682170543 Channel: 9 
Note on, C2 key =  36;WhichDrum: B ; velocity: 127
@115740 , @6.102892441860465 Channel: 9 
Note on, F#2 key =  42;WhichDrum: C1 ; velocity: 0
@115740 , @6.102892441860465 Channel: 9 
Note on, F#2 key =  42;WhichDrum: C1 ; velocity: 127
@115800 , @6.106056201550388 Channel: 9 
Note on, C2 key =  36;WhichDrum: B ; velocity: 0
@115800 , @6.106056201550388 Channel: 9 
Note on, F#2 key =  42;WhichDrum: C1 ; velocity: 0
@115800 , @6.106056201550388 Channel: 9 
Note on, F#2 key =  42;WhichDrum: C1 ; velocity: 127
@115860 , @6.10921996124031 Channel: 9 
Note on, F#2 key =  42;WhichDrum: C1 ; velocity: 0
@115860 , @6.10921996124031 Channel: 9 
Note on, C2 key =  36;WhichDrum: B ; velocity: 127
@115860 , @6.10921996124031 Channel: 9 
Note on, F#2 key =  42;WhichDrum: C1 ; velocity: 127
@115920 , @6.112383720930233 Channel: 9 
Note on, C2 key =  36;WhichDrum: B ; velocity: 0
@115920 , @6.112383720930233 Channel: 9 
Note on, F#2 key =  42;WhichDrum: C1 ; velocity: 0
@115920 , @6.112383720930233 Channel: 9 
Note on, F#2 key =  42;WhichDrum: C1 ; velocity: 127
@115980 , @6.1155474806201555 Channel: 9 
Note on, F#2 key =  42;WhichDrum: C1 ; velocity: 0
@115980 , @6.1155474806201555 Channel: 9 
Note on, C2 key =  36;WhichDrum: B ; velocity: 127
@115980 , @6.1155474806201555 Channel: 9 
Note on, F#2 key =  42;WhichDrum: C1 ; velocity: 127
@116040 , @6.118711240310078 Channel: 9 
Note on, C2 key =  36;WhichDrum: B ; velocity: 0
@116040 , @6.118711240310078 Channel: 9 
Note on, F#2 key =  42;WhichDrum: C1 ; velocity: 0
@116040 , @6.118711240310078 Channel: 9 
Note on, F#2 key =  42;WhichDrum: C1 ; velocity: 127
@116040 , @6.118711240310078 Channel: 9 
Note on, D2 key =  38;WhichDrum: T2 ; velocity: 127
@116100 , @6.121875 Channel: 9 
Note on, F#2 key =  42;WhichDrum: C1 ; velocity: 0
@116100 , @6.121875 Channel: 9 
Note on, D2 key =  38;WhichDrum: T2 ; velocity: 0
@116100 , @6.121875 Channel: 9 
Note on, C2 key =  36;WhichDrum: B ; velocity: 127
@116100 , @6.121875 Channel: 9 
Note on, F#2 key =  42;WhichDrum: C1 ; velocity: 127
@116160 , @6.1250387596899225 Channel: 9 
Note on, C2 key =  36;WhichDrum: B ; velocity: 0
@116160 , @6.1250387596899225 Channel: 9 
Note on, F#2 key =  42;WhichDrum: C1 ; velocity: 0
@116160 , @6.1250387596899225 Channel: 9 
Note on, F#2 key =  42;WhichDrum: C1 ; velocity: 127
@116160 , @6.1250387596899225 Channel: 9 
Note on, C2 key =  36;WhichDrum: B ; velocity: 127
@116220 , @6.128202519379845 Channel: 9 
Note on, F#2 key =  42;WhichDrum: C1 ; velocity: 0
@116220 , @6.128202519379845 Channel: 9 
Note on, F#2 key =  42;WhichDrum: C1 ; velocity: 127
@116280 , @6.131366279069768 Channel: 9 
Note on, C2 key =  36;WhichDrum: B ; velocity: 0
@116280 , @6.131366279069768 Channel: 9 
Note on, F#2 key =  42;WhichDrum: C1 ; velocity: 0
@116280 , @6.131366279069768 Channel: 9 
Note on, F#2 key =  42;WhichDrum: C1 ; velocity: 127
@116340 , @6.13453003875969 Channel: 9 
Note on, F#2 key =  42;WhichDrum: C1 ; velocity: 0
@116340 , @6.13453003875969 Channel: 9 
Note on, F#2 key =  42;WhichDrum: C1 ; velocity: 127
@116340 , @6.13453003875969 Channel: 9 
Note on, C2 key =  36;WhichDrum: B ; velocity: 127
@116360 , @6.1355846253229975 Channel: 9 
Note on, C2 key =  36;WhichDrum: B ; velocity: 0
@116360 , @6.1355846253229975 Channel: 9 
Note on, C2 key =  36;WhichDrum: B ; velocity: 127
@116380 , @6.136639211886306 Channel: 9 
Note on, C2 key =  36;WhichDrum: B ; velocity: 0
@116380 , @6.136639211886306 Channel: 9 
Note on, C2 key =  36;WhichDrum: B ; velocity: 127
@116400 , @6.137693798449613 Channel: 9 
Note on, F#2 key =  42;WhichDrum: C1 ; velocity: 0
@116400 , @6.137693798449613 Channel: 9 
Note on, C2 key =  36;WhichDrum: B ; velocity: 0
@116400 , @6.137693798449613 Channel: 9 
Note on, A3 key =  57;WhichDrum: T3 ; velocity: 127
@116400 , @6.137693798449613 Channel: 9 
Note on, D2 key =  38;WhichDrum: T2 ; velocity: 127
@116460 , @6.140857558139535 Channel: 9 
Note on, A3 key =  57;WhichDrum: T3 ; velocity: 0
@116460 , @6.140857558139535 Channel: 9 
Note on, D2 key =  38;WhichDrum: T2 ; velocity: 0
@116460 , @6.140857558139535 Channel: 9 
Note on, F#2 key =  42;WhichDrum: C1 ; velocity: 127
@116520 , @6.144021317829457 Channel: 9 
Note on, F#2 key =  42;WhichDrum: C1 ; velocity: 0
@116520 , @6.144021317829457 Channel: 9 
Note on, F#2 key =  42;WhichDrum: C1 ; velocity: 127
@116580 , @6.14718507751938 Channel: 9 
Note on, F#2 key =  42;WhichDrum: C1 ; velocity: 0
@116580 , @6.14718507751938 Channel: 9 
Note on, F#2 key =  42;WhichDrum: C1 ; velocity: 127
@116580 , @6.14718507751938 Channel: 9 
Note on, C2 key =  36;WhichDrum: B ; velocity: 127
@116640 , @6.150348837209303 Channel: 9 
Note on, F#2 key =  42;WhichDrum: C1 ; velocity: 0
@116640 , @6.150348837209303 Channel: 9 
Note on, C2 key =  36;WhichDrum: B ; velocity: 0
@116640 , @6.150348837209303 Channel: 9 
Note on, F#2 key =  42;WhichDrum: C1 ; velocity: 127
@116640 , @6.150348837209303 Channel: 9 
Note on, C2 key =  36;WhichDrum: B ; velocity: 127
@116700 , @6.153512596899225 Channel: 9 
Note on, F#2 key =  42;WhichDrum: C1 ; velocity: 0
@116700 , @6.153512596899225 Channel: 9 
Note on, F#2 key =  42;WhichDrum: C1 ; velocity: 127
@116760 , @6.156676356589148 Channel: 9 
Note on, C2 key =  36;WhichDrum: B ; velocity: 0
@116760 , @6.156676356589148 Channel: 9 
Note on, F#2 key =  42;WhichDrum: C1 ; velocity: 0
@116760 , @6.156676356589148 Channel: 9 
Note on, F#2 key =  42;WhichDrum: C1 ; velocity: 127
@116820 , @6.15984011627907 Channel: 9 
Note on, F#2 key =  42;WhichDrum: C1 ; velocity: 0
@116820 , @6.15984011627907 Channel: 9 
Note on, C2 key =  36;WhichDrum: B ; velocity: 127
@116820 , @6.15984011627907 Channel: 9 
Note on, F#2 key =  42;WhichDrum: C1 ; velocity: 127
@116880 , @6.163003875968992 Channel: 9 
Note on, C2 key =  36;WhichDrum: B ; velocity: 0
@116880 , @6.163003875968992 Channel: 9 
Note on, F#2 key =  42;WhichDrum: C1 ; velocity: 0
@116880 , @6.163003875968992 Channel: 9 
Note on, F#2 key =  42;WhichDrum: C1 ; velocity: 127
@116940 , @6.1661676356589155 Channel: 9 
Note on, F#2 key =  42;WhichDrum: C1 ; velocity: 0
@116940 , @6.1661676356589155 Channel: 9 
Note on, C2 key =  36;WhichDrum: B ; velocity: 127
@116940 , @6.1661676356589155 Channel: 9 
Note on, F#2 key =  42;WhichDrum: C1 ; velocity: 127
@117000 , @6.169331395348838 Channel: 9 
Note on, C2 key =  36;WhichDrum: B ; velocity: 0
@117000 , @6.169331395348838 Channel: 9 
Note on, F#2 key =  42;WhichDrum: C1 ; velocity: 0
@117000 , @6.169331395348838 Channel: 9 
Note on, F#2 key =  42;WhichDrum: C1 ; velocity: 127
@117000 , @6.169331395348838 Channel: 9 
Note on, D2 key =  38;WhichDrum: T2 ; velocity: 127
@117060 , @6.17249515503876 Channel: 9 
Note on, F#2 key =  42;WhichDrum: C1 ; velocity: 0
@117060 , @6.17249515503876 Channel: 9 
Note on, D2 key =  38;WhichDrum: T2 ; velocity: 0
@117060 , @6.17249515503876 Channel: 9 
Note on, C2 key =  36;WhichDrum: B ; velocity: 127
@117060 , @6.17249515503876 Channel: 9 
Note on, F#2 key =  42;WhichDrum: C1 ; velocity: 127
@117120 , @6.1756589147286824 Channel: 9 
Note on, C2 key =  36;WhichDrum: B ; velocity: 0
@117120 , @6.1756589147286824 Channel: 9 
Note on, F#2 key =  42;WhichDrum: C1 ; velocity: 0
@117120 , @6.1756589147286824 Channel: 9 
Note on, F#2 key =  42;WhichDrum: C1 ; velocity: 127
@117120 , @6.1756589147286824 Channel: 9 
Note on, C2 key =  36;WhichDrum: B ; velocity: 127
@117180 , @6.178822674418605 Channel: 9 
Note on, F#2 key =  42;WhichDrum: C1 ; velocity: 0
@117180 , @6.178822674418605 Channel: 9 
Note on, F#2 key =  42;WhichDrum: C1 ; velocity: 127
@117240 , @6.181986434108527 Channel: 9 
Note on, C2 key =  36;WhichDrum: B ; velocity: 0
@117240 , @6.181986434108527 Channel: 9 
Note on, F#2 key =  42;WhichDrum: C1 ; velocity: 0
@117240 , @6.181986434108527 Channel: 9 
Note on, F#2 key =  42;WhichDrum: C1 ; velocity: 127
@117300 , @6.18515019379845 Channel: 9 
Note on, F#2 key =  42;WhichDrum: C1 ; velocity: 0
@117300 , @6.18515019379845 Channel: 9 
Note on, F#2 key =  42;WhichDrum: C1 ; velocity: 127
@117300 , @6.18515019379845 Channel: 9 
Note on, C2 key =  36;WhichDrum: B ; velocity: 127
@117320 , @6.1862047803617575 Channel: 9 
Note on, C2 key =  36;WhichDrum: B ; velocity: 0
@117320 , @6.1862047803617575 Channel: 9 
Note on, C2 key =  36;WhichDrum: B ; velocity: 127
@117340 , @6.1872593669250655 Channel: 9 
Note on, C2 key =  36;WhichDrum: B ; velocity: 0
@117340 , @6.1872593669250655 Channel: 9 
Note on, C2 key =  36;WhichDrum: B ; velocity: 127
@117360 , @6.188313953488373 Channel: 9 
Note on, F#2 key =  42;WhichDrum: C1 ; velocity: 0
@117360 , @6.188313953488373 Channel: 9 
Note on, C2 key =  36;WhichDrum: B ; velocity: 0
@117360 , @6.188313953488373 Channel: 9 
Note on, A3 key =  57;WhichDrum: T3 ; velocity: 127
@117360 , @6.188313953488373 Channel: 9 
Note on, D2 key =  38;WhichDrum: T2 ; velocity: 127
@117420 , @6.191477713178295 Channel: 9 
Note on, A3 key =  57;WhichDrum: T3 ; velocity: 0
@117420 , @6.191477713178295 Channel: 9 
Note on, D2 key =  38;WhichDrum: T2 ; velocity: 0
@117420 , @6.191477713178295 Channel: 9 
Note on, F#2 key =  42;WhichDrum: C1 ; velocity: 127
@117480 , @6.194641472868217 Channel: 9 
Note on, F#2 key =  42;WhichDrum: C1 ; velocity: 0
@117480 , @6.194641472868217 Channel: 9 
Note on, F#2 key =  42;WhichDrum: C1 ; velocity: 127
@117540 , @6.19780523255814 Channel: 9 
Note on, F#2 key =  42;WhichDrum: C1 ; velocity: 0
@117540 , @6.19780523255814 Channel: 9 
Note on, F#2 key =  42;WhichDrum: C1 ; velocity: 127
@117540 , @6.19780523255814 Channel: 9 
Note on, C2 key =  36;WhichDrum: B ; velocity: 127
@117560 , @6.198859819121447 Channel: 9 
Note on, C2 key =  36;WhichDrum: B ; velocity: 0
@117560 , @6.198859819121447 Channel: 9 
Note on, C2 key =  36;WhichDrum: B ; velocity: 127
@117580 , @6.199914405684755 Channel: 9 
Note on, C2 key =  36;WhichDrum: B ; velocity: 0
@117580 , @6.199914405684755 Channel: 9 
Note on, C2 key =  36;WhichDrum: B ; velocity: 127
@117600 , @6.200968992248062 Channel: 9 
Note on, F#2 key =  42;WhichDrum: C1 ; velocity: 0
@117600 , @6.200968992248062 Channel: 9 
Note on, C2 key =  36;WhichDrum: B ; velocity: 0
@117600 , @6.200968992248062 Channel: 9 
Note on, D2 key =  38;WhichDrum: T2 ; velocity: 127
@117600 , @6.200968992248062 Channel: 9 
Note on, A3 key =  57;WhichDrum: T3 ; velocity: 127
@117660 , @6.204132751937985 Channel: 9 
Note on, D2 key =  38;WhichDrum: T2 ; velocity: 0
@117660 , @6.204132751937985 Channel: 9 
Note on, A3 key =  57;WhichDrum: T3 ; velocity: 0
@117660 , @6.204132751937985 Channel: 9 
Note on, D2 key =  38;WhichDrum: T2 ; velocity: 127
@117690 , @6.2057146317829455 Channel: 9 
Note on, D2 key =  38;WhichDrum: T2 ; velocity: 0
@117690 , @6.2057146317829455 Channel: 9 
Note on, D2 key =  38;WhichDrum: T2 ; velocity: 127
@117720 , @6.2072965116279075 Channel: 9 
Note on, D2 key =  38;WhichDrum: T2 ; velocity: 0
@117720 , @6.2072965116279075 Channel: 9 
Note on, C2 key =  36;WhichDrum: B ; velocity: 127
@117720 , @6.2072965116279075 Channel: 9 
Note on, A3 key =  57;WhichDrum: T3 ; velocity: 127
@117780 , @6.21046027131783 Channel: 9 
Note on, A3 key =  57;WhichDrum: T3 ; velocity: 0
@117780 , @6.21046027131783 Channel: 9 
Note on, A2 key =  45;WhichDrum: T3 ; velocity: 127
@117810 , @6.212042151162791 Channel: 9 
Note on, A2 key =  45;WhichDrum: T3 ; velocity: 0
@117810 , @6.212042151162791 Channel: 9 
Note on, A2 key =  45;WhichDrum: T3 ; velocity: 127
@117840 , @6.213624031007752 Channel: 9 
Note on, C2 key =  36;WhichDrum: B ; velocity: 0
@117840 , @6.213624031007752 Channel: 9 
Note on, A2 key =  45;WhichDrum: T3 ; velocity: 0
@117840 , @6.213624031007752 Channel: 9 
Note on, C2 key =  36;WhichDrum: B ; velocity: 127
@117840 , @6.213624031007752 Channel: 9 
Note on, A2 key =  45;WhichDrum: T3 ; velocity: 127
@117895 , @6.216524144056848 Channel: 9 
Note on, D2 key =  38;WhichDrum: T2 ; velocity: 75
@117900 , @6.2167877906976745 Channel: 9 
Note on, A2 key =  45;WhichDrum: T3 ; velocity: 0
@117900 , @6.2167877906976745 Channel: 9 
Note on, D2 key =  38;WhichDrum: T2 ; velocity: 0
@117900 , @6.2167877906976745 Channel: 9 
Note on, D2 key =  38;WhichDrum: T2 ; velocity: 127
@117960 , @6.219951550387598 Channel: 9 
Note on, C2 key =  36;WhichDrum: B ; velocity: 0
@117960 , @6.219951550387598 Channel: 9 
Note on, D2 key =  38;WhichDrum: T2 ; velocity: 0
@117960 , @6.219951550387598 Channel: 9 
Note on, C2 key =  36;WhichDrum: B ; velocity: 127
@117960 , @6.219951550387598 Channel: 9 
Note on, A3 key =  57;WhichDrum: T3 ; velocity: 127
@118020 , @6.22311531007752 Channel: 9 
Note on, C2 key =  36;WhichDrum: B ; velocity: 0
@118020 , @6.22311531007752 Channel: 9 
Note on, A3 key =  57;WhichDrum: T3 ; velocity: 0
@118020 , @6.22311531007752 Channel: 9 
Note on, C2 key =  36;WhichDrum: B ; velocity: 127
@118020 , @6.22311531007752 Channel: 9 
Note on, A3 key =  57;WhichDrum: T3 ; velocity: 127
@118080 , @6.226279069767442 Channel: 9 
Note on, C2 key =  36;WhichDrum: B ; velocity: 0
@118080 , @6.226279069767442 Channel: 9 
Note on, A3 key =  57;WhichDrum: T3 ; velocity: 0
@118080 , @6.226279069767442 Channel: 9 
Note on, A3 key =  57;WhichDrum: T3 ; velocity: 127
@118080 , @6.226279069767442 Channel: 9 
Note on, C2 key =  36;WhichDrum: B ; velocity: 127
@118140 , @6.229442829457365 Channel: 9 
Note on, A3 key =  57;WhichDrum: T3 ; velocity: 0
@118140 , @6.229442829457365 Channel: 9 
Note on, F#2 key =  42;WhichDrum: C1 ; velocity: 127
@118200 , @6.232606589147287 Channel: 9 
Note on, C2 key =  36;WhichDrum: B ; velocity: 0
@118200 , @6.232606589147287 Channel: 9 
Note on, F#2 key =  42;WhichDrum: C1 ; velocity: 0
@118200 , @6.232606589147287 Channel: 9 
Note on, D2 key =  38;WhichDrum: T2 ; velocity: 127
@118200 , @6.232606589147287 Channel: 9 
Note on, F#2 key =  42;WhichDrum: C1 ; velocity: 127
@118260 , @6.235770348837209 Channel: 9 
Note on, D2 key =  38;WhichDrum: T2 ; velocity: 0
@118260 , @6.235770348837209 Channel: 9 
Note on, F#2 key =  42;WhichDrum: C1 ; velocity: 0
@118260 , @6.235770348837209 Channel: 9 
Note on, F#2 key =  42;WhichDrum: C1 ; velocity: 127
@118260 , @6.235770348837209 Channel: 9 
Note on, C2 key =  36;WhichDrum: B ; velocity: 127
@118320 , @6.238934108527133 Channel: 9 
Note on, F#2 key =  42;WhichDrum: C1 ; velocity: 0
@118320 , @6.238934108527133 Channel: 9 
Note on, C2 key =  36;WhichDrum: B ; velocity: 0
@118320 , @6.238934108527133 Channel: 9 
Note on, F#2 key =  42;WhichDrum: C1 ; velocity: 127
@118320 , @6.238934108527133 Channel: 9 
Note on, C2 key =  36;WhichDrum: B ; velocity: 127
@118380 , @6.242097868217055 Channel: 9 
Note on, F#2 key =  42;WhichDrum: C1 ; velocity: 0
@118380 , @6.242097868217055 Channel: 9 
Note on, F#2 key =  42;WhichDrum: C1 ; velocity: 127
@118440 , @6.245261627906977 Channel: 9 
Note on, C2 key =  36;WhichDrum: B ; velocity: 0
@118440 , @6.245261627906977 Channel: 9 
Note on, F#2 key =  42;WhichDrum: C1 ; velocity: 0
@118440 , @6.245261627906977 Channel: 9 
Note on, D2 key =  38;WhichDrum: T2 ; velocity: 127
@118440 , @6.245261627906977 Channel: 9 
Note on, F#2 key =  42;WhichDrum: C1 ; velocity: 127
@118500 , @6.2484253875969 Channel: 9 
Note on, D2 key =  38;WhichDrum: T2 ; velocity: 0
@118500 , @6.2484253875969 Channel: 9 
Note on, F#2 key =  42;WhichDrum: C1 ; velocity: 0
@118500 , @6.2484253875969 Channel: 9 
Note on, F#2 key =  42;WhichDrum: C1 ; velocity: 127
@118500 , @6.2484253875969 Channel: 9 
Note on, C2 key =  36;WhichDrum: B ; velocity: 127
@118560 , @6.251589147286822 Channel: 9 
Note on, F#2 key =  42;WhichDrum: C1 ; velocity: 0
@118560 , @6.251589147286822 Channel: 9 
Note on, C2 key =  36;WhichDrum: B ; velocity: 0
@118560 , @6.251589147286822 Channel: 9 
Note on, F#2 key =  42;WhichDrum: C1 ; velocity: 127
@118560 , @6.251589147286822 Channel: 9 
Note on, C2 key =  36;WhichDrum: B ; velocity: 127
@118620 , @6.254752906976744 Channel: 9 
Note on, F#2 key =  42;WhichDrum: C1 ; velocity: 0
@118620 , @6.254752906976744 Channel: 9 
Note on, F#2 key =  42;WhichDrum: C1 ; velocity: 127
@118680 , @6.2579166666666675 Channel: 9 
Note on, C2 key =  36;WhichDrum: B ; velocity: 0
@118680 , @6.2579166666666675 Channel: 9 
Note on, F#2 key =  42;WhichDrum: C1 ; velocity: 0
@118680 , @6.2579166666666675 Channel: 9 
Note on, D2 key =  38;WhichDrum: T2 ; velocity: 127
@118680 , @6.2579166666666675 Channel: 9 
Note on, F#2 key =  42;WhichDrum: C1 ; velocity: 127
@118740 , @6.26108042635659 Channel: 9 
Note on, D2 key =  38;WhichDrum: T2 ; velocity: 0
@118740 , @6.26108042635659 Channel: 9 
Note on, F#2 key =  42;WhichDrum: C1 ; velocity: 0
@118740 , @6.26108042635659 Channel: 9 
Note on, F#2 key =  42;WhichDrum: C1 ; velocity: 127
@118800 , @6.264244186046512 Channel: 9 
Note on, F#2 key =  42;WhichDrum: C1 ; velocity: 0
@118800 , @6.264244186046512 Channel: 9 
Note on, F#2 key =  42;WhichDrum: C1 ; velocity: 127
@118800 , @6.264244186046512 Channel: 9 
Note on, C2 key =  36;WhichDrum: B ; velocity: 127
@118860 , @6.2674079457364344 Channel: 9 
Note on, F#2 key =  42;WhichDrum: C1 ; velocity: 0
@118860 , @6.2674079457364344 Channel: 9 
Note on, C2 key =  36;WhichDrum: B ; velocity: 0
@118860 , @6.2674079457364344 Channel: 9 
Note on, F#2 key =  42;WhichDrum: C1 ; velocity: 127
@118860 , @6.2674079457364344 Channel: 9 
Note on, C2 key =  36;WhichDrum: B ; velocity: 127
@118880 , @6.268462532299742 Channel: 9 
Note on, C2 key =  36;WhichDrum: B ; velocity: 0
@118880 , @6.268462532299742 Channel: 9 
Note on, C2 key =  36;WhichDrum: B ; velocity: 127
@118900 , @6.269517118863049 Channel: 9 
Note on, C2 key =  36;WhichDrum: B ; velocity: 0
@118900 , @6.269517118863049 Channel: 9 
Note on, C2 key =  36;WhichDrum: B ; velocity: 127
@118920 , @6.270571705426357 Channel: 9 
Note on, F#2 key =  42;WhichDrum: C1 ; velocity: 0
@118920 , @6.270571705426357 Channel: 9 
Note on, C2 key =  36;WhichDrum: B ; velocity: 0
@118920 , @6.270571705426357 Channel: 9 
Note on, A3 key =  57;WhichDrum: T3 ; velocity: 127
@118920 , @6.270571705426357 Channel: 9 
Note on, D2 key =  38;WhichDrum: T2 ; velocity: 127
@119040 , @6.276899224806202 Channel: 9 
Note on, A3 key =  57;WhichDrum: T3 ; velocity: 0
@119040 , @6.276899224806202 Channel: 9 
Note on, D2 key =  38;WhichDrum: T2 ; velocity: 0
@119040 , @6.276899224806202 Channel: 9 
Note on, A3 key =  57;WhichDrum: T3 ; velocity: 127
@119040 , @6.276899224806202 Channel: 9 
Note on, C2 key =  36;WhichDrum: B ; velocity: 127
@119100 , @6.280062984496125 Channel: 9 
Note on, A3 key =  57;WhichDrum: T3 ; velocity: 0
@119100 , @6.280062984496125 Channel: 9 
Note on, F#2 key =  42;WhichDrum: C1 ; velocity: 127
@119160 , @6.283226744186047 Channel: 9 
Note on, C2 key =  36;WhichDrum: B ; velocity: 0
@119160 , @6.283226744186047 Channel: 9 
Note on, F#2 key =  42;WhichDrum: C1 ; velocity: 0
@119160 , @6.283226744186047 Channel: 9 
Note on, D2 key =  38;WhichDrum: T2 ; velocity: 127
@119160 , @6.283226744186047 Channel: 9 
Note on, F#2 key =  42;WhichDrum: C1 ; velocity: 127
@119220 , @6.286390503875969 Channel: 9 
Note on, D2 key =  38;WhichDrum: T2 ; velocity: 0
@119220 , @6.286390503875969 Channel: 9 
Note on, F#2 key =  42;WhichDrum: C1 ; velocity: 0
@119220 , @6.286390503875969 Channel: 9 
Note on, F#2 key =  42;WhichDrum: C1 ; velocity: 127
@119220 , @6.286390503875969 Channel: 9 
Note on, C2 key =  36;WhichDrum: B ; velocity: 127
@119280 , @6.289554263565892 Channel: 9 
Note on, F#2 key =  42;WhichDrum: C1 ; velocity: 0
@119280 , @6.289554263565892 Channel: 9 
Note on, C2 key =  36;WhichDrum: B ; velocity: 0
@119280 , @6.289554263565892 Channel: 9 
Note on, F#2 key =  42;WhichDrum: C1 ; velocity: 127
@119280 , @6.289554263565892 Channel: 9 
Note on, C2 key =  36;WhichDrum: B ; velocity: 127
@119340 , @6.292718023255815 Channel: 9 
Note on, F#2 key =  42;WhichDrum: C1 ; velocity: 0
@119340 , @6.292718023255815 Channel: 9 
Note on, F#2 key =  42;WhichDrum: C1 ; velocity: 127
@119400 , @6.295881782945737 Channel: 9 
Note on, C2 key =  36;WhichDrum: B ; velocity: 0
@119400 , @6.295881782945737 Channel: 9 
Note on, F#2 key =  42;WhichDrum: C1 ; velocity: 0
@119400 , @6.295881782945737 Channel: 9 
Note on, D2 key =  38;WhichDrum: T2 ; velocity: 127
@119400 , @6.295881782945737 Channel: 9 
Note on, F#2 key =  42;WhichDrum: C1 ; velocity: 127
@119460 , @6.2990455426356595 Channel: 9 
Note on, D2 key =  38;WhichDrum: T2 ; velocity: 0
@119460 , @6.2990455426356595 Channel: 9 
Note on, F#2 key =  42;WhichDrum: C1 ; velocity: 0
@119460 , @6.2990455426356595 Channel: 9 
Note on, F#2 key =  42;WhichDrum: C1 ; velocity: 127
@119460 , @6.2990455426356595 Channel: 9 
Note on, C2 key =  36;WhichDrum: B ; velocity: 127
@119520 , @6.302209302325582 Channel: 9 
Note on, F#2 key =  42;WhichDrum: C1 ; velocity: 0
@119520 , @6.302209302325582 Channel: 9 
Note on, C2 key =  36;WhichDrum: B ; velocity: 0
@119520 , @6.302209302325582 Channel: 9 
Note on, F#2 key =  42;WhichDrum: C1 ; velocity: 127
@119520 , @6.302209302325582 Channel: 9 
Note on, C2 key =  36;WhichDrum: B ; velocity: 127
@119580 , @6.305373062015504 Channel: 9 
Note on, F#2 key =  42;WhichDrum: C1 ; velocity: 0
@119580 , @6.305373062015504 Channel: 9 
Note on, F#2 key =  42;WhichDrum: C1 ; velocity: 127
@119640 , @6.3085368217054265 Channel: 9 
Note on, C2 key =  36;WhichDrum: B ; velocity: 0
@119640 , @6.3085368217054265 Channel: 9 
Note on, F#2 key =  42;WhichDrum: C1 ; velocity: 0
@119640 , @6.3085368217054265 Channel: 9 
Note on, D2 key =  38;WhichDrum: T2 ; velocity: 127
@119640 , @6.3085368217054265 Channel: 9 
Note on, F#2 key =  42;WhichDrum: C1 ; velocity: 127
@119700 , @6.31170058139535 Channel: 9 
Note on, D2 key =  38;WhichDrum: T2 ; velocity: 0
@119700 , @6.31170058139535 Channel: 9 
Note on, F#2 key =  42;WhichDrum: C1 ; velocity: 0
@119700 , @6.31170058139535 Channel: 9 
Note on, F#2 key =  42;WhichDrum: C1 ; velocity: 127
@119760 , @6.314864341085272 Channel: 9 
Note on, F#2 key =  42;WhichDrum: C1 ; velocity: 0
@119760 , @6.314864341085272 Channel: 9 
Note on, F#2 key =  42;WhichDrum: C1 ; velocity: 127
@119760 , @6.314864341085272 Channel: 9 
Note on, C2 key =  36;WhichDrum: B ; velocity: 127
@119820 , @6.318028100775194 Channel: 9 
Note on, F#2 key =  42;WhichDrum: C1 ; velocity: 0
@119820 , @6.318028100775194 Channel: 9 
Note on, C2 key =  36;WhichDrum: B ; velocity: 0
@119820 , @6.318028100775194 Channel: 9 
Note on, F#2 key =  42;WhichDrum: C1 ; velocity: 127
@119820 , @6.318028100775194 Channel: 9 
Note on, C2 key =  36;WhichDrum: B ; velocity: 127
@119840 , @6.3190826873385015 Channel: 9 
Note on, C2 key =  36;WhichDrum: B ; velocity: 0
@119840 , @6.3190826873385015 Channel: 9 
Note on, C2 key =  36;WhichDrum: B ; velocity: 127
@119860 , @6.320137273901809 Channel: 9 
Note on, C2 key =  36;WhichDrum: B ; velocity: 0
@119860 , @6.320137273901809 Channel: 9 
Note on, C2 key =  36;WhichDrum: B ; velocity: 127
@119880 , @6.321191860465117 Channel: 9 
Note on, F#2 key =  42;WhichDrum: C1 ; velocity: 0
@119880 , @6.321191860465117 Channel: 9 
Note on, C2 key =  36;WhichDrum: B ; velocity: 0
@119880 , @6.321191860465117 Channel: 9 
Note on, A3 key =  57;WhichDrum: T3 ; velocity: 127
@119880 , @6.321191860465117 Channel: 9 
Note on, D2 key =  38;WhichDrum: T2 ; velocity: 127
@120000 , @6.327519379844961 Channel: 9 
Note on, A3 key =  57;WhichDrum: T3 ; velocity: 0
@120000 , @6.327519379844961 Channel: 9 
Note on, D2 key =  38;WhichDrum: T2 ; velocity: 0
@120000 , @6.327519379844961 Channel: 9 
Note on, A3 key =  57;WhichDrum: T3 ; velocity: 127
@120000 , @6.327519379844961 Channel: 9 
Note on, C2 key =  36;WhichDrum: B ; velocity: 127
@120060 , @6.330683139534884 Channel: 9 
Note on, A3 key =  57;WhichDrum: T3 ; velocity: 0
@120060 , @6.330683139534884 Channel: 9 
Note on, F#2 key =  42;WhichDrum: C1 ; velocity: 127
@120120 , @6.333846899224806 Channel: 9 
Note on, C2 key =  36;WhichDrum: B ; velocity: 0
@120120 , @6.333846899224806 Channel: 9 
Note on, F#2 key =  42;WhichDrum: C1 ; velocity: 0
@120120 , @6.333846899224806 Channel: 9 
Note on, D2 key =  38;WhichDrum: T2 ; velocity: 127
@120120 , @6.333846899224806 Channel: 9 
Note on, F#2 key =  42;WhichDrum: C1 ; velocity: 127
@120180 , @6.337010658914728 Channel: 9 
Note on, D2 key =  38;WhichDrum: T2 ; velocity: 0
@120180 , @6.337010658914728 Channel: 9 
Note on, F#2 key =  42;WhichDrum: C1 ; velocity: 0
@120180 , @6.337010658914728 Channel: 9 
Note on, F#2 key =  42;WhichDrum: C1 ; velocity: 127
@120180 , @6.337010658914728 Channel: 9 
Note on, C2 key =  36;WhichDrum: B ; velocity: 127
@120240 , @6.340174418604651 Channel: 9 
Note on, F#2 key =  42;WhichDrum: C1 ; velocity: 0
@120240 , @6.340174418604651 Channel: 9 
Note on, C2 key =  36;WhichDrum: B ; velocity: 0
@120240 , @6.340174418604651 Channel: 9 
Note on, F#2 key =  42;WhichDrum: C1 ; velocity: 127
@120240 , @6.340174418604651 Channel: 9 
Note on, C2 key =  36;WhichDrum: B ; velocity: 127
@120300 , @6.343338178294574 Channel: 9 
Note on, F#2 key =  42;WhichDrum: C1 ; velocity: 0
@120300 , @6.343338178294574 Channel: 9 
Note on, F#2 key =  42;WhichDrum: C1 ; velocity: 127
@120360 , @6.346501937984496 Channel: 9 
Note on, C2 key =  36;WhichDrum: B ; velocity: 0
@120360 , @6.346501937984496 Channel: 9 
Note on, F#2 key =  42;WhichDrum: C1 ; velocity: 0
@120360 , @6.346501937984496 Channel: 9 
Note on, D2 key =  38;WhichDrum: T2 ; velocity: 127
@120360 , @6.346501937984496 Channel: 9 
Note on, F#2 key =  42;WhichDrum: C1 ; velocity: 127
@120420 , @6.349665697674419 Channel: 9 
Note on, D2 key =  38;WhichDrum: T2 ; velocity: 0
@120420 , @6.349665697674419 Channel: 9 
Note on, F#2 key =  42;WhichDrum: C1 ; velocity: 0
@120420 , @6.349665697674419 Channel: 9 
Note on, F#2 key =  42;WhichDrum: C1 ; velocity: 127
@120420 , @6.349665697674419 Channel: 9 
Note on, C2 key =  36;WhichDrum: B ; velocity: 127
@120480 , @6.352829457364341 Channel: 9 
Note on, F#2 key =  42;WhichDrum: C1 ; velocity: 0
@120480 , @6.352829457364341 Channel: 9 
Note on, C2 key =  36;WhichDrum: B ; velocity: 0
@120480 , @6.352829457364341 Channel: 9 
Note on, F#2 key =  42;WhichDrum: C1 ; velocity: 127
@120480 , @6.352829457364341 Channel: 9 
Note on, C2 key =  36;WhichDrum: B ; velocity: 127
@120540 , @6.355993217054263 Channel: 9 
Note on, F#2 key =  42;WhichDrum: C1 ; velocity: 0
@120540 , @6.355993217054263 Channel: 9 
Note on, F#2 key =  42;WhichDrum: C1 ; velocity: 127
@120600 , @6.359156976744186 Channel: 9 
Note on, C2 key =  36;WhichDrum: B ; velocity: 0
@120600 , @6.359156976744186 Channel: 9 
Note on, F#2 key =  42;WhichDrum: C1 ; velocity: 0
@120600 , @6.359156976744186 Channel: 9 
Note on, D2 key =  38;WhichDrum: T2 ; velocity: 127
@120600 , @6.359156976744186 Channel: 9 
Note on, F#2 key =  42;WhichDrum: C1 ; velocity: 127
@120660 , @6.362320736434109 Channel: 9 
Note on, D2 key =  38;WhichDrum: T2 ; velocity: 0
@120660 , @6.362320736434109 Channel: 9 
Note on, F#2 key =  42;WhichDrum: C1 ; velocity: 0
@120660 , @6.362320736434109 Channel: 9 
Note on, F#2 key =  42;WhichDrum: C1 ; velocity: 127
@120720 , @6.365484496124031 Channel: 9 
Note on, F#2 key =  42;WhichDrum: C1 ; velocity: 0
@120720 , @6.365484496124031 Channel: 9 
Note on, F#2 key =  42;WhichDrum: C1 ; velocity: 127
@120720 , @6.365484496124031 Channel: 9 
Note on, C2 key =  36;WhichDrum: B ; velocity: 127
@120780 , @6.368648255813953 Channel: 9 
Note on, F#2 key =  42;WhichDrum: C1 ; velocity: 0
@120780 , @6.368648255813953 Channel: 9 
Note on, C2 key =  36;WhichDrum: B ; velocity: 0
@120780 , @6.368648255813953 Channel: 9 
Note on, F#2 key =  42;WhichDrum: C1 ; velocity: 127
@120780 , @6.368648255813953 Channel: 9 
Note on, C2 key =  36;WhichDrum: B ; velocity: 127
@120800 , @6.3697028423772615 Channel: 9 
Note on, C2 key =  36;WhichDrum: B ; velocity: 0
@120800 , @6.3697028423772615 Channel: 9 
Note on, C2 key =  36;WhichDrum: B ; velocity: 127
@120820 , @6.370757428940569 Channel: 9 
Note on, C2 key =  36;WhichDrum: B ; velocity: 0
@120820 , @6.370757428940569 Channel: 9 
Note on, C2 key =  36;WhichDrum: B ; velocity: 127
@120840 , @6.371812015503876 Channel: 9 
Note on, F#2 key =  42;WhichDrum: C1 ; velocity: 0
@120840 , @6.371812015503876 Channel: 9 
Note on, C2 key =  36;WhichDrum: B ; velocity: 0
@120840 , @6.371812015503876 Channel: 9 
Note on, A3 key =  57;WhichDrum: T3 ; velocity: 127
@120840 , @6.371812015503876 Channel: 9 
Note on, D2 key =  38;WhichDrum: T2 ; velocity: 127
@120960 , @6.378139534883721 Channel: 9 
Note on, A3 key =  57;WhichDrum: T3 ; velocity: 0
@120960 , @6.378139534883721 Channel: 9 
Note on, D2 key =  38;WhichDrum: T2 ; velocity: 0
@120960 , @6.378139534883721 Channel: 9 
Note on, C2 key =  36;WhichDrum: B ; velocity: 127
@120960 , @6.378139534883721 Channel: 9 
Note on, A3 key =  57;WhichDrum: T3 ; velocity: 127
@121020 , @6.381303294573644 Channel: 9 
Note on, A3 key =  57;WhichDrum: T3 ; velocity: 0
@121020 , @6.381303294573644 Channel: 9 
Note on, F#2 key =  42;WhichDrum: C1 ; velocity: 127
@121080 , @6.384467054263566 Channel: 9 
Note on, C2 key =  36;WhichDrum: B ; velocity: 0
@121080 , @6.384467054263566 Channel: 9 
Note on, F#2 key =  42;WhichDrum: C1 ; velocity: 0
@121080 , @6.384467054263566 Channel: 9 
Note on, D2 key =  38;WhichDrum: T2 ; velocity: 127
@121080 , @6.384467054263566 Channel: 9 
Note on, F#2 key =  42;WhichDrum: C1 ; velocity: 127
@121140 , @6.387630813953488 Channel: 9 
Note on, D2 key =  38;WhichDrum: T2 ; velocity: 0
@121140 , @6.387630813953488 Channel: 9 
Note on, F#2 key =  42;WhichDrum: C1 ; velocity: 0
@121140 , @6.387630813953488 Channel: 9 
Note on, C2 key =  36;WhichDrum: B ; velocity: 127
@121140 , @6.387630813953488 Channel: 9 
Note on, F#2 key =  42;WhichDrum: C1 ; velocity: 127
@121200 , @6.390794573643411 Channel: 9 
Note on, C2 key =  36;WhichDrum: B ; velocity: 0
@121200 , @6.390794573643411 Channel: 9 
Note on, F#2 key =  42;WhichDrum: C1 ; velocity: 0
@121200 , @6.390794573643411 Channel: 9 
Note on, C2 key =  36;WhichDrum: B ; velocity: 127
@121200 , @6.390794573643411 Channel: 9 
Note on, F#2 key =  42;WhichDrum: C1 ; velocity: 127
@121260 , @6.393958333333333 Channel: 9 
Note on, F#2 key =  42;WhichDrum: C1 ; velocity: 0
@121260 , @6.393958333333333 Channel: 9 
Note on, F#2 key =  42;WhichDrum: C1 ; velocity: 127
@121320 , @6.397122093023256 Channel: 9 
Note on, C2 key =  36;WhichDrum: B ; velocity: 0
@121320 , @6.397122093023256 Channel: 9 
Note on, F#2 key =  42;WhichDrum: C1 ; velocity: 0
@121320 , @6.397122093023256 Channel: 9 
Note on, D2 key =  38;WhichDrum: T2 ; velocity: 127
@121320 , @6.397122093023256 Channel: 9 
Note on, F#2 key =  42;WhichDrum: C1 ; velocity: 127
@121380 , @6.4002858527131785 Channel: 9 
Note on, D2 key =  38;WhichDrum: T2 ; velocity: 0
@121380 , @6.4002858527131785 Channel: 9 
Note on, F#2 key =  42;WhichDrum: C1 ; velocity: 0
@121380 , @6.4002858527131785 Channel: 9 
Note on, C2 key =  36;WhichDrum: B ; velocity: 127
@121380 , @6.4002858527131785 Channel: 9 
Note on, F#2 key =  42;WhichDrum: C1 ; velocity: 127
@121440 , @6.403449612403101 Channel: 9 
Note on, C2 key =  36;WhichDrum: B ; velocity: 0
@121440 , @6.403449612403101 Channel: 9 
Note on, F#2 key =  42;WhichDrum: C1 ; velocity: 0
@121440 , @6.403449612403101 Channel: 9 
Note on, F#2 key =  42;WhichDrum: C1 ; velocity: 127
@121440 , @6.403449612403101 Channel: 9 
Note on, C2 key =  36;WhichDrum: B ; velocity: 127
@121500 , @6.406613372093023 Channel: 9 
Note on, F#2 key =  42;WhichDrum: C1 ; velocity: 0
@121500 , @6.406613372093023 Channel: 9 
Note on, F#2 key =  42;WhichDrum: C1 ; velocity: 127
@121560 , @6.4097771317829455 Channel: 9 
Note on, C2 key =  36;WhichDrum: B ; velocity: 0
@121560 , @6.4097771317829455 Channel: 9 
Note on, F#2 key =  42;WhichDrum: C1 ; velocity: 0
@121560 , @6.4097771317829455 Channel: 9 
Note on, D2 key =  38;WhichDrum: T2 ; velocity: 127
@121560 , @6.4097771317829455 Channel: 9 
Note on, F#2 key =  42;WhichDrum: C1 ; velocity: 127
@121620 , @6.412940891472868 Channel: 9 
Note on, D2 key =  38;WhichDrum: T2 ; velocity: 0
@121620 , @6.412940891472868 Channel: 9 
Note on, F#2 key =  42;WhichDrum: C1 ; velocity: 0
@121620 , @6.412940891472868 Channel: 9 
Note on, F#2 key =  42;WhichDrum: C1 ; velocity: 127
@121680 , @6.416104651162791 Channel: 9 
Note on, F#2 key =  42;WhichDrum: C1 ; velocity: 0
@121680 , @6.416104651162791 Channel: 9 
Note on, F#2 key =  42;WhichDrum: C1 ; velocity: 127
@121680 , @6.416104651162791 Channel: 9 
Note on, C2 key =  36;WhichDrum: B ; velocity: 127
@121740 , @6.419268410852713 Channel: 9 
Note on, F#2 key =  42;WhichDrum: C1 ; velocity: 0
@121740 , @6.419268410852713 Channel: 9 
Note on, C2 key =  36;WhichDrum: B ; velocity: 0
@121740 , @6.419268410852713 Channel: 9 
Note on, F#2 key =  42;WhichDrum: C1 ; velocity: 127
@121740 , @6.419268410852713 Channel: 9 
Note on, C2 key =  36;WhichDrum: B ; velocity: 127
@121760 , @6.420322997416021 Channel: 9 
Note on, C2 key =  36;WhichDrum: B ; velocity: 0
@121760 , @6.420322997416021 Channel: 9 
Note on, C2 key =  36;WhichDrum: B ; velocity: 127
@121780 , @6.421377583979329 Channel: 9 
Note on, C2 key =  36;WhichDrum: B ; velocity: 0
@121780 , @6.421377583979329 Channel: 9 
Note on, C2 key =  36;WhichDrum: B ; velocity: 127
@121800 , @6.422432170542636 Channel: 9 
Note on, F#2 key =  42;WhichDrum: C1 ; velocity: 0
@121800 , @6.422432170542636 Channel: 9 
Note on, C2 key =  36;WhichDrum: B ; velocity: 0
@121800 , @6.422432170542636 Channel: 9 
Note on, D2 key =  38;WhichDrum: T2 ; velocity: 127
@121800 , @6.422432170542636 Channel: 9 
Note on, F#2 key =  42;WhichDrum: C1 ; velocity: 127
@121860 , @6.425595930232558 Channel: 9 
Note on, D2 key =  38;WhichDrum: T2 ; velocity: 0
@121860 , @6.425595930232558 Channel: 9 
Note on, F#2 key =  42;WhichDrum: C1 ; velocity: 0
@121860 , @6.425595930232558 Channel: 9 
Note on, F#2 key =  42;WhichDrum: C1 ; velocity: 127
@121920 , @6.42875968992248 Channel: 9 
Note on, F#2 key =  42;WhichDrum: C1 ; velocity: 0
@121920 , @6.42875968992248 Channel: 9 
Note on, F#2 key =  42;WhichDrum: C1 ; velocity: 127
@121920 , @6.42875968992248 Channel: 9 
Note on, C2 key =  36;WhichDrum: B ; velocity: 127
@121980 , @6.431923449612404 Channel: 9 
Note on, F#2 key =  42;WhichDrum: C1 ; velocity: 0
@121980 , @6.431923449612404 Channel: 9 
Note on, C2 key =  36;WhichDrum: B ; velocity: 0
@121980 , @6.431923449612404 Channel: 9 
Note on, F#2 key =  42;WhichDrum: C1 ; velocity: 127
@121980 , @6.431923449612404 Channel: 9 
Note on, C2 key =  36;WhichDrum: B ; velocity: 127
@122000 , @6.432978036175711 Channel: 9 
Note on, C2 key =  36;WhichDrum: B ; velocity: 0
@122000 , @6.432978036175711 Channel: 9 
Note on, C2 key =  36;WhichDrum: B ; velocity: 127
@122020 , @6.434032622739019 Channel: 9 
Note on, C2 key =  36;WhichDrum: B ; velocity: 0
@122020 , @6.434032622739019 Channel: 9 
Note on, C2 key =  36;WhichDrum: B ; velocity: 127
@122040 , @6.435087209302326 Channel: 9 
Note on, F#2 key =  42;WhichDrum: C1 ; velocity: 0
@122040 , @6.435087209302326 Channel: 9 
Note on, C2 key =  36;WhichDrum: B ; velocity: 0
@122040 , @6.435087209302326 Channel: 9 
Note on, D2 key =  38;WhichDrum: T2 ; velocity: 127
@122040 , @6.435087209302326 Channel: 9 
Note on, A3 key =  57;WhichDrum: T3 ; velocity: 127
@122160 , @6.441414728682171 Channel: 9 
Note on, D2 key =  38;WhichDrum: T2 ; velocity: 0
@122160 , @6.441414728682171 Channel: 9 
Note on, A3 key =  57;WhichDrum: T3 ; velocity: 0
@122520 , @6.460397286821705 Channel: 9 
Note on, C2 key =  36;WhichDrum: B ; velocity: 127
@122520 , @6.460397286821705 Channel: 9 
Note on, A3 key =  57;WhichDrum: T3 ; velocity: 127
@122640 , @6.46672480620155 Channel: 9 
Note on, C2 key =  36;WhichDrum: B ; velocity: 0
@122640 , @6.46672480620155 Channel: 9 
Note on, A3 key =  57;WhichDrum: T3 ; velocity: 0
@123000 , @6.485707364341086 Channel: 9 
Note on, A3 key =  57;WhichDrum: T3 ; velocity: 127
@123000 , @6.485707364341086 Channel: 9 
Note on, C2 key =  36;WhichDrum: B ; velocity: 127
@123120 , @6.4920348837209305 Channel: 9 
Note on, A3 key =  57;WhichDrum: T3 ; velocity: 0
@123120 , @6.4920348837209305 Channel: 9 
Note on, C2 key =  36;WhichDrum: B ; velocity: 0
@123480 , @6.511017441860465 Channel: 9 
Note on, F#2 key =  42;WhichDrum: C1 ; velocity: 127
@123480 , @6.511017441860465 Channel: 9 
Note on, C2 key =  36;WhichDrum: B ; velocity: 127
@123540 , @6.514181201550388 Channel: 9 
Note on, F#2 key =  42;WhichDrum: C1 ; velocity: 0
@123540 , @6.514181201550388 Channel: 9 
Note on, C2 key =  36;WhichDrum: B ; velocity: 0
@123540 , @6.514181201550388 Channel: 9 
Note on, F#2 key =  42;WhichDrum: C1 ; velocity: 127
@123540 , @6.514181201550388 Channel: 9 
Note on, C2 key =  36;WhichDrum: B ; velocity: 127
@123600 , @6.51734496124031 Channel: 9 
Note on, F#2 key =  42;WhichDrum: C1 ; velocity: 0
@123600 , @6.51734496124031 Channel: 9 
Note on, C2 key =  36;WhichDrum: B ; velocity: 0
@123600 , @6.51734496124031 Channel: 9 
Note on, F#2 key =  42;WhichDrum: C1 ; velocity: 127
@123600 , @6.51734496124031 Channel: 9 
Note on, C2 key =  36;WhichDrum: B ; velocity: 127
@123660 , @6.520508720930232 Channel: 9 
Note on, F#2 key =  42;WhichDrum: C1 ; velocity: 0
@123660 , @6.520508720930232 Channel: 9 
Note on, D2 key =  38;WhichDrum: T2 ; velocity: 127
@123660 , @6.520508720930232 Channel: 9 
Note on, F#2 key =  42;WhichDrum: C1 ; velocity: 127
@123720 , @6.523672480620156 Channel: 9 
Note on, C2 key =  36;WhichDrum: B ; velocity: 0
@123720 , @6.523672480620156 Channel: 9 
Note on, D2 key =  38;WhichDrum: T2 ; velocity: 0
@123720 , @6.523672480620156 Channel: 9 
Note on, F#2 key =  42;WhichDrum: C1 ; velocity: 0
@123720 , @6.523672480620156 Channel: 9 
Note on, C2 key =  36;WhichDrum: B ; velocity: 127
@123720 , @6.523672480620156 Channel: 9 
Note on, D2 key =  38;WhichDrum: T2 ; velocity: 127
@123720 , @6.523672480620156 Channel: 9 
Note on, A3 key =  57;WhichDrum: T3 ; velocity: 127
@123840 , @6.53 Channel: 9 
Note on, C2 key =  36;WhichDrum: B ; velocity: 0
@123840 , @6.53 Channel: 9 
Note on, D2 key =  38;WhichDrum: T2 ; velocity: 0
@123840 , @6.53 Channel: 9 
Note on, A3 key =  57;WhichDrum: T3 ; velocity: 0
@123840 , @6.53 Other Message: class javax.sound.midi.Track$ImmutableEndOfTrack

Track 8: size = 3
@0 , @0.0 Other Message: class javax.sound.midi.MetaMessage

@0 , @0.0 Other Message: class javax.sound.midi.MetaMessage

@0 , @0.0 Other Message: class javax.sound.midi.Track$ImmutableEndOfTrack

Track 9: size = 3
@0 , @0.0 Other Message: class javax.sound.midi.MetaMessage

@0 , @0.0 Other Message: class javax.sound.midi.MetaMessage

@0 , @0.0 Other Message: class javax.sound.midi.Track$ImmutableEndOfTrack

Track 10: size = 3
@0 , @0.0 Other Message: class javax.sound.midi.MetaMessage

@0 , @0.0 Other Message: class javax.sound.midi.MetaMessage

@0 , @0.0 Other Message: class javax.sound.midi.Track$ImmutableEndOfTrack

Track 11: size = 3
@0 , @0.0 Other Message: class javax.sound.midi.MetaMessage

@0 , @0.0 Other Message: class javax.sound.midi.MetaMessage

@0 , @0.0 Other Message: class javax.sound.midi.Track$ImmutableEndOfTrack

Track 12: size = 3
@0 , @0.0 Other Message: class javax.sound.midi.MetaMessage

@0 , @0.0 Other Message: class javax.sound.midi.MetaMessage

@0 , @0.0 Other Message: class javax.sound.midi.Track$ImmutableEndOfTrack

Track 13: size = 3
@0 , @0.0 Other Message: class javax.sound.midi.MetaMessage

@0 , @0.0 Other Message: class javax.sound.midi.MetaMessage

@0 , @0.0 Other Message: class javax.sound.midi.Track$ImmutableEndOfTrack

